<?xml version="1.0" encoding="utf-8"?>
<svg version="1.1" xmlns:xlink="http://www.w3.org/1999/xlink" width="105px" height="19px" xmlns="http://www.w3.org/2000/svg">
  <defs>
    <mask fill="white" id="clip179">
      <path d="M 0 14  L 0 5  C 0 2.19999999999999  2.19999999999999 0  5 0  L 31.7843137254916 0  L 100 0  C 102.8 0  105 2.19999999999999  105 5  L 105 14  C 105 16.8  102.8 19  100 19  L 5 19  C 2.19999999999999 19  0 16.8  0 14  Z " fill-rule="evenodd" />
    </mask>
  </defs>
  <g transform="matrix(1 0 0 1 -309 -449 )">
    <path d="M 0 14  L 0 5  C 0 2.19999999999999  2.19999999999999 0  5 0  L 31.7843137254916 0  L 100 0  C 102.8 0  105 2.19999999999999  105 5  L 105 14  C 105 16.8  102.8 19  100 19  L 5 19  C 2.19999999999999 19  0 16.8  0 14  Z " fill-rule="nonzero" fill="#ffffff" stroke="none" transform="matrix(1 0 0 1 309 449 )" />
    <path d="M 0 14  L 0 5  C 0 2.19999999999999  2.19999999999999 0  5 0  L 31.7843137254916 0  L 100 0  C 102.8 0  105 2.19999999999999  105 5  L 105 14  C 105 16.8  102.8 19  100 19  L 5 19  C 2.19999999999999 19  0 16.8  0 14  Z " stroke-width="2" stroke="#797979" fill="none" transform="matrix(1 0 0 1 309 449 )" mask="url(#clip179)" />
  </g>
</svg>