<?xml version="1.0" encoding="utf-8"?>
<svg version="1.1" xmlns:xlink="http://www.w3.org/1999/xlink" width="89px" height="110px" xmlns="http://www.w3.org/2000/svg">
  <defs>
    <mask fill="white" id="clip83">
      <path d="M 4.21987142857138 21.4844807692307  C 4.21987142857138 21.4844807692307  0.572905714285725 21.2890192307692  0.572905714285725 21.2890192307692  C 0.572905714285725 21.2890192307692  3.61924857142853 16.3925384615384  3.61924857142853 16.3925384615384  C 3.61924857142853 16.3925384615384  5.88951142857144 15.6915  5.88951142857144 15.6915  C 5.88951142857144 15.6915  5.30414571428567 13.3353846153846  5.30414571428567 13.3353846153846  C 5.30414571428567 13.3353846153846  7.45667428571422 11.6684615384616  7.45667428571422 11.6684615384616  C 7.45667428571422 11.6684615384616  7.42768571428569 8.80655769230766  7.42768571428569 8.80655769230766  C 7.42768571428569 8.80655769230766  9.44951142857139 10.6346730769231  9.44951142857139 10.6346730769231  C 9.44951142857139 10.6346730769231  11.6612885714285 10.2890192307692  11.6612885714285 10.2890192307692  C 11.6612885714285 10.2890192307692  15.4259885714285 4.02600000000006  15.4259885714285 4.02600000000006  C 15.4259885714285 4.02600000000006  20.5378942857143 6.55451923076923  20.5378942857143 6.55451923076923  C 20.5378942857143 6.55451923076923  23.3795371428572 1.58971153846158  23.3795371428572 1.58971153846158  C 23.3795371428572 1.58971153846158  25.1521628571429 2.62371153846152  25.1521628571429 2.62371153846152  C 25.1521628571429 2.62371153846152  28.63842 5.96834615384612  28.63842 5.96834615384612  C 28.63842 5.96834615384612  28.2577542857143 7.27882692307692  28.2577542857143 7.27882692307692  C 28.2577542857143 7.27882692307692  26.2651714285714 7.97901923076927  26.2651714285714 7.97901923076927  C 26.2651714285714 7.97901923076927  25.1376685714286 11.6223461538461  25.1376685714286 11.6223461538461  C 25.1376685714286 11.6223461538461  22.5297142857143 15.6915  22.5297142857143 15.6915  C 22.5297142857143 15.6915  35.9476085714286 22.4960576923077  35.9476085714286 22.4960576923077  C 35.9476085714286 22.4960576923077  52.3037742857142 29.7376538461538  52.3037742857142 29.7376538461538  C 52.3037742857142 29.7376538461538  55.2779 31.8189807692308  55.2779 31.8189807692308  C 55.2779 31.8189807692308  54.2081199999999 34.6580384615385  54.2081199999999 34.6580384615385  C 54.2081199999999 34.6580384615385  56.3176742857143 37.3834999999999  56.3176742857143 37.3834999999999  C 56.3176742857143 37.3834999999999  54.4863085714286 39.6482307692307  54.4863085714286 39.6482307692307  C 54.4863085714286 39.6482307692307  52.0693228571428 39.8436923076923  52.0693228571428 39.8436923076923  C 52.0693228571428 39.8436923076923  54.5740371428572 40.7863076923077  54.5740371428572 40.7863076923077  C 54.5740371428572 40.7863076923077  52.6551971428572 42.7866153846154  52.6551971428572 42.7866153846154  C 52.6551971428572 42.7866153846154  55.9515028571428 45.5461346153846  55.9515028571428 45.5461346153846  C 55.9515028571428 45.5461346153846  59.2470457142857 46.6501538461538  59.2470457142857 46.6501538461538  C 59.2470457142857 46.6501538461538  60.1551 45.6265192307692  60.1551 45.6265192307692  C 60.1551 45.6265192307692  62.9969971428571 45.327826923077  62.9969971428571 45.327826923077  C 62.9969971428571 45.327826923077  63.9342942857143 47.1669423076923  63.9342942857143 47.1669423076923  C 63.9342942857143 47.1669423076923  64.9303314285714 46.6960576923077  64.9303314285714 46.6960576923077  C 64.9303314285714 46.6960576923077  66.8346771428571 47.0757692307693  66.8346771428571 47.0757692307693  C 66.8346771428571 47.0757692307693  68.2703742857142 49.6510384615385  68.2703742857142 49.6510384615385  C 68.2703742857142 49.6510384615385  68.6073028571428 52.3995576923076  68.6073028571428 52.3995576923076  C 68.6073028571428 52.3995576923076  71.84436 53.5725384615385  71.84436 53.5725384615385  C 71.84436 53.5725384615385  72.09356 57.7343461538461  72.09356 57.7343461538461  C 72.09356 57.7343461538461  76.7078285714286 58.9644423076923  76.7078285714286 58.9644423076923  C 76.7078285714286 58.9644423076923  78.9051114285714 60.1374230769231  78.9051114285714 60.1374230769231  C 78.9051114285714 60.1374230769231  74.90596 65.5312307692308  74.90596 65.5312307692308  C 74.90596 65.5312307692308  77.6746228571429 67.6125576923077  77.6746228571429 67.6125576923077  C 77.6746228571429 67.6125576923077  77.4839085714286 69.7981730769231  77.4839085714286 69.7981730769231  C 77.4839085714286 69.7981730769231  81.3368457142857 71.0631730769231  81.3368457142857 71.0631730769231  C 81.3368457142857 71.0631730769231  83.7533228571428 72.5236346153847  83.7533228571428 72.5236346153847  C 83.7533228571428 72.5236346153847  85.5259485714286 71.6040769230769  85.5259485714286 71.6040769230769  C 85.5259485714286 71.6040769230769  85.2767485714286 70.0052692307692  85.2767485714286 70.0052692307692  C 85.2767485714286 70.0052692307692  87.3133228571429 68.3377115384615  87.3133228571429 68.3377115384615  C 87.3133228571429 68.3377115384615  88.9974571428572 70.8907692307692  88.9974571428572 70.8907692307692  C 88.9974571428572 70.8907692307692  85.2330114285714 77.7340384615385  85.2330114285714 77.7340384615385  C 85.2330114285714 77.7340384615385  82.7572857142858 80.5984807692307  82.7572857142858 80.5984807692307  C 82.7572857142858 80.5984807692307  82.3473771428572 82.3233653846154  82.3473771428572 82.3233653846154  C 82.3473771428572 82.3233653846154  79.5642200000001 83.9228076923077  79.5642200000001 83.9228076923077  C 79.5642200000001 83.9228076923077  82.6258199999999 85.9470192307692  82.6258199999999 85.9470192307692  C 82.6258199999999 85.9470192307692  82.55284 89.8353076923077  82.55284 89.8353076923077  C 82.55284 89.8353076923077  84.1202571428572 89.5818846153846  84.1202571428572 89.5818846153846  C 84.1202571428572 89.5818846153846  83.8125714285714 84.6128461538462  83.8125714285714 84.6128461538462  C 83.8125714285714 84.6128461538462  86.0388428571429 86.5680961538461  86.0388428571429 86.5680961538461  C 86.0388428571429 86.5680961538461  85.7314114285715 88.9036923076923  85.7314114285715 88.9036923076923  C 85.7314114285715 88.9036923076923  86.4635 91.4226923076923  86.4635 91.4226923076923  C 86.4635 91.4226923076923  80.7217285714286 91.5379807692307  80.7217285714286 91.5379807692307  C 80.7217285714286 91.5379807692307  81.0584028571428 92.4924423076923  81.0584028571428 92.4924423076923  C 81.0584028571428 92.4924423076923  83.9147942857143 93.7233846153847  83.9147942857143 93.7233846153847  C 83.9147942857143 93.7233846153847  83.3141714285715 94.8741538461539  83.3141714285715 94.8741538461539  C 83.3141714285715 94.8741538461539  80.6924857142857 95.3338269230769  80.6924857142857 95.3338269230769  C 80.6924857142857 95.3338269230769  77.3816857142857 94.2530769230769  77.3816857142857 94.2530769230769  C 77.3816857142857 94.2530769230769  75.5210771428571 96.1742692307692  75.5210771428571 96.1742692307692  C 75.5210771428571 96.1742692307692  73.8514371428572 94.7360192307692  73.8514371428572 94.7360192307692  C 73.8514371428572 94.7360192307692  71.4489457142857 96.7720769230769  71.4489457142857 96.7720769230769  C 71.4489457142857 96.7720769230769  69.5008628571428 96.0018653846154  69.5008628571428 96.0018653846154  C 69.5008628571428 96.0018653846154  67.6845 92.6656923076924  67.6845 92.6656923076924  C 67.6845 92.6656923076924  65.1065514285714 91.3306730769231  65.1065514285714 91.3306730769231  C 65.1065514285714 91.3306730769231  63.4661542857143 91.6761153846154  63.4661542857143 91.6761153846154  C 63.4661542857143 91.6761153846154  57.5919 94.2300192307692  57.5919 94.2300192307692  C 57.5919 94.2300192307692  55.3216371428571 94.70175  55.3216371428571 94.70175  C 55.3216371428571 94.70175  53.4905257142857 96.2544423076923  53.4905257142857 96.2544423076923  C 53.4905257142857 96.2544423076923  51.5424428571428 101.846038461538  51.5424428571428 101.846038461538  C 51.5424428571428 101.846038461538  55.8485171428571 104.986961538462  55.8485171428571 104.986961538462  C 55.8485171428571 104.986961538462  54.5447942857143 108.0365  54.5447942857143 108.0365  C 54.5447942857143 108.0365  52.1138228571428 107.414788461538  52.1138228571428 107.414788461538  C 52.1138228571428 107.414788461538  48.1584085714285 107.47275  48.1584085714285 107.47275  C 48.1584085714285 107.47275  42.9938657142857 106.92  42.9938657142857 106.92  C 42.9938657142857 106.92  42.9201228571428 108.105673076923  42.9201228571428 108.105673076923  C 42.9201228571428 108.105673076923  39.4193714285715 109.175423076923  39.4193714285715 109.175423076923  C 39.4193714285715 109.175423076923  36.7829371428571 106.552346153846  36.7829371428571 106.552346153846  C 36.7829371428571 106.552346153846  36.4022714285714 102.502019230769  36.4022714285714 102.502019230769  C 36.4022714285714 102.502019230769  38.9069857142857 97.8769423076923  38.9069857142857 97.8769423076923  C 38.9069857142857 97.8769423076923  41.29422 97.0485576923077  41.29422 97.0485576923077  C 41.29422 97.0485576923077  40.0492371428572 91.3306730769231  40.0492371428572 91.3306730769231  C 40.0492371428572 91.3306730769231  38.6432914285714 89.558826923077  38.6432914285714 89.558826923077  C 38.6432914285714 89.558826923077  35.5816914285714 87.9832884615385  35.5816914285714 87.9832884615385  C 35.5816914285714 87.9832884615385  30.6449885714286 87.9492307692308  30.6449885714286 87.9492307692308  C 30.6449885714286 87.9492307692308  26.7635714285714 89.0530384615385  26.7635714285714 89.0530384615385  C 26.7635714285714 89.0530384615385  24.8739742857143 90.2839807692308  24.8739742857143 90.2839807692308  C 24.8739742857143 90.2839807692308  20.5378942857143 89.7779807692307  20.5378942857143 89.7779807692307  C 20.5378942857143 89.7779807692307  18.1946514285714 90.9858653846154  18.1946514285714 90.9858653846154  C 18.1946514285714 90.9858653846154  16.6272342857142 89.111  16.6272342857142 89.111  C 16.6272342857142 89.111  14.0637800000001 89.4094807692308  14.0637800000001 89.4094807692308  C 14.0637800000001 89.4094807692308  11.3975942857142 88.3509423076923  11.3975942857142 88.3509423076923  C 11.3975942857142 88.3509423076923  11.2806228571428 86.3726346153846  11.2806228571428 86.3726346153846  C 11.2806228571428 86.3726346153846  15.8796342857143 81.0010384615385  15.8796342857143 81.0010384615385  C 15.8796342857143 81.0010384615385  14.8106171428572 74.2493653846154  14.8106171428572 74.2493653846154  C 14.8106171428572 74.2493653846154  16.1433285714286 71.8564423076923  16.1433285714286 71.8564423076923  C 16.1433285714286 71.8564423076923  18.7952742857142 70.4420961538461  18.7952742857142 70.4420961538461  C 18.7952742857142 70.4420961538461  17.7399885714286 67.76275  17.7399885714286 67.76275  C 17.7399885714286 67.76275  17.3008371428571 63.8524615384615  17.3008371428571 63.8524615384615  C 17.3008371428571 63.8524615384615  18.42834 62.2879230769231  18.42834 62.2879230769231  C 18.42834 62.2879230769231  21.5339314285714 60.8966346153847  21.5339314285714 60.8966346153847  C 21.5339314285714 60.8966346153847  22.1782914285714 53.8020576923077  22.1782914285714 53.8020576923077  C 22.1782914285714 53.8020576923077  19.4688771428571 47.2822307692308  19.4688771428571 47.2822307692308  C 19.4688771428571 47.2822307692308  20.3771857142858 44.891  20.3771857142858 44.891  C 20.3771857142858 44.891  19.49812 41.1770192307693  19.49812 41.1770192307693  C 19.49812 41.1770192307693  20.9622971428572 39.1764999999999  20.9622971428572 39.1764999999999  C 20.9622971428572 39.1764999999999  25.9722342857143 38.2569423076923  25.9722342857143 38.2569423076923  C 25.9722342857143 38.2569423076923  26.9242799999999 35.6015  26.9242799999999 35.6015  C 26.9242799999999 35.6015  24.3170885714286 29.0133461538461  24.3170885714286 29.0133461538461  C 24.3170885714286 29.0133461538461  21.91536 26.2206153846154  21.91536 26.2206153846154  C 21.91536 26.2206153846154  19.7765628571429 25.5764807692308  19.7765628571429 25.5764807692308  C 19.7765628571429 25.5764807692308  14.9420828571429 22.7486346153846  14.9420828571429 22.7486346153846  C 14.9420828571429 22.7486346153846  4.21987142857138 21.4844807692307  4.21987142857138 21.4844807692307  Z " fill-rule="evenodd" />
    </mask>
  </defs>
  <g transform="matrix(1 0 0 1 -500 -560 )">
    <path d="M 4.21987142857138 21.4844807692307  C 4.21987142857138 21.4844807692307  0.572905714285725 21.2890192307692  0.572905714285725 21.2890192307692  C 0.572905714285725 21.2890192307692  3.61924857142853 16.3925384615384  3.61924857142853 16.3925384615384  C 3.61924857142853 16.3925384615384  5.88951142857144 15.6915  5.88951142857144 15.6915  C 5.88951142857144 15.6915  5.30414571428567 13.3353846153846  5.30414571428567 13.3353846153846  C 5.30414571428567 13.3353846153846  7.45667428571422 11.6684615384616  7.45667428571422 11.6684615384616  C 7.45667428571422 11.6684615384616  7.42768571428569 8.80655769230766  7.42768571428569 8.80655769230766  C 7.42768571428569 8.80655769230766  9.44951142857139 10.6346730769231  9.44951142857139 10.6346730769231  C 9.44951142857139 10.6346730769231  11.6612885714285 10.2890192307692  11.6612885714285 10.2890192307692  C 11.6612885714285 10.2890192307692  15.4259885714285 4.02600000000006  15.4259885714285 4.02600000000006  C 15.4259885714285 4.02600000000006  20.5378942857143 6.55451923076923  20.5378942857143 6.55451923076923  C 20.5378942857143 6.55451923076923  23.3795371428572 1.58971153846158  23.3795371428572 1.58971153846158  C 23.3795371428572 1.58971153846158  25.1521628571429 2.62371153846152  25.1521628571429 2.62371153846152  C 25.1521628571429 2.62371153846152  28.63842 5.96834615384612  28.63842 5.96834615384612  C 28.63842 5.96834615384612  28.2577542857143 7.27882692307692  28.2577542857143 7.27882692307692  C 28.2577542857143 7.27882692307692  26.2651714285714 7.97901923076927  26.2651714285714 7.97901923076927  C 26.2651714285714 7.97901923076927  25.1376685714286 11.6223461538461  25.1376685714286 11.6223461538461  C 25.1376685714286 11.6223461538461  22.5297142857143 15.6915  22.5297142857143 15.6915  C 22.5297142857143 15.6915  35.9476085714286 22.4960576923077  35.9476085714286 22.4960576923077  C 35.9476085714286 22.4960576923077  52.3037742857142 29.7376538461538  52.3037742857142 29.7376538461538  C 52.3037742857142 29.7376538461538  55.2779 31.8189807692308  55.2779 31.8189807692308  C 55.2779 31.8189807692308  54.2081199999999 34.6580384615385  54.2081199999999 34.6580384615385  C 54.2081199999999 34.6580384615385  56.3176742857143 37.3834999999999  56.3176742857143 37.3834999999999  C 56.3176742857143 37.3834999999999  54.4863085714286 39.6482307692307  54.4863085714286 39.6482307692307  C 54.4863085714286 39.6482307692307  52.0693228571428 39.8436923076923  52.0693228571428 39.8436923076923  C 52.0693228571428 39.8436923076923  54.5740371428572 40.7863076923077  54.5740371428572 40.7863076923077  C 54.5740371428572 40.7863076923077  52.6551971428572 42.7866153846154  52.6551971428572 42.7866153846154  C 52.6551971428572 42.7866153846154  55.9515028571428 45.5461346153846  55.9515028571428 45.5461346153846  C 55.9515028571428 45.5461346153846  59.2470457142857 46.6501538461538  59.2470457142857 46.6501538461538  C 59.2470457142857 46.6501538461538  60.1551 45.6265192307692  60.1551 45.6265192307692  C 60.1551 45.6265192307692  62.9969971428571 45.327826923077  62.9969971428571 45.327826923077  C 62.9969971428571 45.327826923077  63.9342942857143 47.1669423076923  63.9342942857143 47.1669423076923  C 63.9342942857143 47.1669423076923  64.9303314285714 46.6960576923077  64.9303314285714 46.6960576923077  C 64.9303314285714 46.6960576923077  66.8346771428571 47.0757692307693  66.8346771428571 47.0757692307693  C 66.8346771428571 47.0757692307693  68.2703742857142 49.6510384615385  68.2703742857142 49.6510384615385  C 68.2703742857142 49.6510384615385  68.6073028571428 52.3995576923076  68.6073028571428 52.3995576923076  C 68.6073028571428 52.3995576923076  71.84436 53.5725384615385  71.84436 53.5725384615385  C 71.84436 53.5725384615385  72.09356 57.7343461538461  72.09356 57.7343461538461  C 72.09356 57.7343461538461  76.7078285714286 58.9644423076923  76.7078285714286 58.9644423076923  C 76.7078285714286 58.9644423076923  78.9051114285714 60.1374230769231  78.9051114285714 60.1374230769231  C 78.9051114285714 60.1374230769231  74.90596 65.5312307692308  74.90596 65.5312307692308  C 74.90596 65.5312307692308  77.6746228571429 67.6125576923077  77.6746228571429 67.6125576923077  C 77.6746228571429 67.6125576923077  77.4839085714286 69.7981730769231  77.4839085714286 69.7981730769231  C 77.4839085714286 69.7981730769231  81.3368457142857 71.0631730769231  81.3368457142857 71.0631730769231  C 81.3368457142857 71.0631730769231  83.7533228571428 72.5236346153847  83.7533228571428 72.5236346153847  C 83.7533228571428 72.5236346153847  85.5259485714286 71.6040769230769  85.5259485714286 71.6040769230769  C 85.5259485714286 71.6040769230769  85.2767485714286 70.0052692307692  85.2767485714286 70.0052692307692  C 85.2767485714286 70.0052692307692  87.3133228571429 68.3377115384615  87.3133228571429 68.3377115384615  C 87.3133228571429 68.3377115384615  88.9974571428572 70.8907692307692  88.9974571428572 70.8907692307692  C 88.9974571428572 70.8907692307692  85.2330114285714 77.7340384615385  85.2330114285714 77.7340384615385  C 85.2330114285714 77.7340384615385  82.7572857142858 80.5984807692307  82.7572857142858 80.5984807692307  C 82.7572857142858 80.5984807692307  82.3473771428572 82.3233653846154  82.3473771428572 82.3233653846154  C 82.3473771428572 82.3233653846154  79.5642200000001 83.9228076923077  79.5642200000001 83.9228076923077  C 79.5642200000001 83.9228076923077  82.6258199999999 85.9470192307692  82.6258199999999 85.9470192307692  C 82.6258199999999 85.9470192307692  82.55284 89.8353076923077  82.55284 89.8353076923077  C 82.55284 89.8353076923077  84.1202571428572 89.5818846153846  84.1202571428572 89.5818846153846  C 84.1202571428572 89.5818846153846  83.8125714285714 84.6128461538462  83.8125714285714 84.6128461538462  C 83.8125714285714 84.6128461538462  86.0388428571429 86.5680961538461  86.0388428571429 86.5680961538461  C 86.0388428571429 86.5680961538461  85.7314114285715 88.9036923076923  85.7314114285715 88.9036923076923  C 85.7314114285715 88.9036923076923  86.4635 91.4226923076923  86.4635 91.4226923076923  C 86.4635 91.4226923076923  80.7217285714286 91.5379807692307  80.7217285714286 91.5379807692307  C 80.7217285714286 91.5379807692307  81.0584028571428 92.4924423076923  81.0584028571428 92.4924423076923  C 81.0584028571428 92.4924423076923  83.9147942857143 93.7233846153847  83.9147942857143 93.7233846153847  C 83.9147942857143 93.7233846153847  83.3141714285715 94.8741538461539  83.3141714285715 94.8741538461539  C 83.3141714285715 94.8741538461539  80.6924857142857 95.3338269230769  80.6924857142857 95.3338269230769  C 80.6924857142857 95.3338269230769  77.3816857142857 94.2530769230769  77.3816857142857 94.2530769230769  C 77.3816857142857 94.2530769230769  75.5210771428571 96.1742692307692  75.5210771428571 96.1742692307692  C 75.5210771428571 96.1742692307692  73.8514371428572 94.7360192307692  73.8514371428572 94.7360192307692  C 73.8514371428572 94.7360192307692  71.4489457142857 96.7720769230769  71.4489457142857 96.7720769230769  C 71.4489457142857 96.7720769230769  69.5008628571428 96.0018653846154  69.5008628571428 96.0018653846154  C 69.5008628571428 96.0018653846154  67.6845 92.6656923076924  67.6845 92.6656923076924  C 67.6845 92.6656923076924  65.1065514285714 91.3306730769231  65.1065514285714 91.3306730769231  C 65.1065514285714 91.3306730769231  63.4661542857143 91.6761153846154  63.4661542857143 91.6761153846154  C 63.4661542857143 91.6761153846154  57.5919 94.2300192307692  57.5919 94.2300192307692  C 57.5919 94.2300192307692  55.3216371428571 94.70175  55.3216371428571 94.70175  C 55.3216371428571 94.70175  53.4905257142857 96.2544423076923  53.4905257142857 96.2544423076923  C 53.4905257142857 96.2544423076923  51.5424428571428 101.846038461538  51.5424428571428 101.846038461538  C 51.5424428571428 101.846038461538  55.8485171428571 104.986961538462  55.8485171428571 104.986961538462  C 55.8485171428571 104.986961538462  54.5447942857143 108.0365  54.5447942857143 108.0365  C 54.5447942857143 108.0365  52.1138228571428 107.414788461538  52.1138228571428 107.414788461538  C 52.1138228571428 107.414788461538  48.1584085714285 107.47275  48.1584085714285 107.47275  C 48.1584085714285 107.47275  42.9938657142857 106.92  42.9938657142857 106.92  C 42.9938657142857 106.92  42.9201228571428 108.105673076923  42.9201228571428 108.105673076923  C 42.9201228571428 108.105673076923  39.4193714285715 109.175423076923  39.4193714285715 109.175423076923  C 39.4193714285715 109.175423076923  36.7829371428571 106.552346153846  36.7829371428571 106.552346153846  C 36.7829371428571 106.552346153846  36.4022714285714 102.502019230769  36.4022714285714 102.502019230769  C 36.4022714285714 102.502019230769  38.9069857142857 97.8769423076923  38.9069857142857 97.8769423076923  C 38.9069857142857 97.8769423076923  41.29422 97.0485576923077  41.29422 97.0485576923077  C 41.29422 97.0485576923077  40.0492371428572 91.3306730769231  40.0492371428572 91.3306730769231  C 40.0492371428572 91.3306730769231  38.6432914285714 89.558826923077  38.6432914285714 89.558826923077  C 38.6432914285714 89.558826923077  35.5816914285714 87.9832884615385  35.5816914285714 87.9832884615385  C 35.5816914285714 87.9832884615385  30.6449885714286 87.9492307692308  30.6449885714286 87.9492307692308  C 30.6449885714286 87.9492307692308  26.7635714285714 89.0530384615385  26.7635714285714 89.0530384615385  C 26.7635714285714 89.0530384615385  24.8739742857143 90.2839807692308  24.8739742857143 90.2839807692308  C 24.8739742857143 90.2839807692308  20.5378942857143 89.7779807692307  20.5378942857143 89.7779807692307  C 20.5378942857143 89.7779807692307  18.1946514285714 90.9858653846154  18.1946514285714 90.9858653846154  C 18.1946514285714 90.9858653846154  16.6272342857142 89.111  16.6272342857142 89.111  C 16.6272342857142 89.111  14.0637800000001 89.4094807692308  14.0637800000001 89.4094807692308  C 14.0637800000001 89.4094807692308  11.3975942857142 88.3509423076923  11.3975942857142 88.3509423076923  C 11.3975942857142 88.3509423076923  11.2806228571428 86.3726346153846  11.2806228571428 86.3726346153846  C 11.2806228571428 86.3726346153846  15.8796342857143 81.0010384615385  15.8796342857143 81.0010384615385  C 15.8796342857143 81.0010384615385  14.8106171428572 74.2493653846154  14.8106171428572 74.2493653846154  C 14.8106171428572 74.2493653846154  16.1433285714286 71.8564423076923  16.1433285714286 71.8564423076923  C 16.1433285714286 71.8564423076923  18.7952742857142 70.4420961538461  18.7952742857142 70.4420961538461  C 18.7952742857142 70.4420961538461  17.7399885714286 67.76275  17.7399885714286 67.76275  C 17.7399885714286 67.76275  17.3008371428571 63.8524615384615  17.3008371428571 63.8524615384615  C 17.3008371428571 63.8524615384615  18.42834 62.2879230769231  18.42834 62.2879230769231  C 18.42834 62.2879230769231  21.5339314285714 60.8966346153847  21.5339314285714 60.8966346153847  C 21.5339314285714 60.8966346153847  22.1782914285714 53.8020576923077  22.1782914285714 53.8020576923077  C 22.1782914285714 53.8020576923077  19.4688771428571 47.2822307692308  19.4688771428571 47.2822307692308  C 19.4688771428571 47.2822307692308  20.3771857142858 44.891  20.3771857142858 44.891  C 20.3771857142858 44.891  19.49812 41.1770192307693  19.49812 41.1770192307693  C 19.49812 41.1770192307693  20.9622971428572 39.1764999999999  20.9622971428572 39.1764999999999  C 20.9622971428572 39.1764999999999  25.9722342857143 38.2569423076923  25.9722342857143 38.2569423076923  C 25.9722342857143 38.2569423076923  26.9242799999999 35.6015  26.9242799999999 35.6015  C 26.9242799999999 35.6015  24.3170885714286 29.0133461538461  24.3170885714286 29.0133461538461  C 24.3170885714286 29.0133461538461  21.91536 26.2206153846154  21.91536 26.2206153846154  C 21.91536 26.2206153846154  19.7765628571429 25.5764807692308  19.7765628571429 25.5764807692308  C 19.7765628571429 25.5764807692308  14.9420828571429 22.7486346153846  14.9420828571429 22.7486346153846  C 14.9420828571429 22.7486346153846  4.21987142857138 21.4844807692307  4.21987142857138 21.4844807692307  Z " fill-rule="nonzero" fill="#ffffff" stroke="none" transform="matrix(1 0 0 1 500 560 )" />
    <path d="M 4.21987142857138 21.4844807692307  C 4.21987142857138 21.4844807692307  0.572905714285725 21.2890192307692  0.572905714285725 21.2890192307692  C 0.572905714285725 21.2890192307692  3.61924857142853 16.3925384615384  3.61924857142853 16.3925384615384  C 3.61924857142853 16.3925384615384  5.88951142857144 15.6915  5.88951142857144 15.6915  C 5.88951142857144 15.6915  5.30414571428567 13.3353846153846  5.30414571428567 13.3353846153846  C 5.30414571428567 13.3353846153846  7.45667428571422 11.6684615384616  7.45667428571422 11.6684615384616  C 7.45667428571422 11.6684615384616  7.42768571428569 8.80655769230766  7.42768571428569 8.80655769230766  C 7.42768571428569 8.80655769230766  9.44951142857139 10.6346730769231  9.44951142857139 10.6346730769231  C 9.44951142857139 10.6346730769231  11.6612885714285 10.2890192307692  11.6612885714285 10.2890192307692  C 11.6612885714285 10.2890192307692  15.4259885714285 4.02600000000006  15.4259885714285 4.02600000000006  C 15.4259885714285 4.02600000000006  20.5378942857143 6.55451923076923  20.5378942857143 6.55451923076923  C 20.5378942857143 6.55451923076923  23.3795371428572 1.58971153846158  23.3795371428572 1.58971153846158  C 23.3795371428572 1.58971153846158  25.1521628571429 2.62371153846152  25.1521628571429 2.62371153846152  C 25.1521628571429 2.62371153846152  28.63842 5.96834615384612  28.63842 5.96834615384612  C 28.63842 5.96834615384612  28.2577542857143 7.27882692307692  28.2577542857143 7.27882692307692  C 28.2577542857143 7.27882692307692  26.2651714285714 7.97901923076927  26.2651714285714 7.97901923076927  C 26.2651714285714 7.97901923076927  25.1376685714286 11.6223461538461  25.1376685714286 11.6223461538461  C 25.1376685714286 11.6223461538461  22.5297142857143 15.6915  22.5297142857143 15.6915  C 22.5297142857143 15.6915  35.9476085714286 22.4960576923077  35.9476085714286 22.4960576923077  C 35.9476085714286 22.4960576923077  52.3037742857142 29.7376538461538  52.3037742857142 29.7376538461538  C 52.3037742857142 29.7376538461538  55.2779 31.8189807692308  55.2779 31.8189807692308  C 55.2779 31.8189807692308  54.2081199999999 34.6580384615385  54.2081199999999 34.6580384615385  C 54.2081199999999 34.6580384615385  56.3176742857143 37.3834999999999  56.3176742857143 37.3834999999999  C 56.3176742857143 37.3834999999999  54.4863085714286 39.6482307692307  54.4863085714286 39.6482307692307  C 54.4863085714286 39.6482307692307  52.0693228571428 39.8436923076923  52.0693228571428 39.8436923076923  C 52.0693228571428 39.8436923076923  54.5740371428572 40.7863076923077  54.5740371428572 40.7863076923077  C 54.5740371428572 40.7863076923077  52.6551971428572 42.7866153846154  52.6551971428572 42.7866153846154  C 52.6551971428572 42.7866153846154  55.9515028571428 45.5461346153846  55.9515028571428 45.5461346153846  C 55.9515028571428 45.5461346153846  59.2470457142857 46.6501538461538  59.2470457142857 46.6501538461538  C 59.2470457142857 46.6501538461538  60.1551 45.6265192307692  60.1551 45.6265192307692  C 60.1551 45.6265192307692  62.9969971428571 45.327826923077  62.9969971428571 45.327826923077  C 62.9969971428571 45.327826923077  63.9342942857143 47.1669423076923  63.9342942857143 47.1669423076923  C 63.9342942857143 47.1669423076923  64.9303314285714 46.6960576923077  64.9303314285714 46.6960576923077  C 64.9303314285714 46.6960576923077  66.8346771428571 47.0757692307693  66.8346771428571 47.0757692307693  C 66.8346771428571 47.0757692307693  68.2703742857142 49.6510384615385  68.2703742857142 49.6510384615385  C 68.2703742857142 49.6510384615385  68.6073028571428 52.3995576923076  68.6073028571428 52.3995576923076  C 68.6073028571428 52.3995576923076  71.84436 53.5725384615385  71.84436 53.5725384615385  C 71.84436 53.5725384615385  72.09356 57.7343461538461  72.09356 57.7343461538461  C 72.09356 57.7343461538461  76.7078285714286 58.9644423076923  76.7078285714286 58.9644423076923  C 76.7078285714286 58.9644423076923  78.9051114285714 60.1374230769231  78.9051114285714 60.1374230769231  C 78.9051114285714 60.1374230769231  74.90596 65.5312307692308  74.90596 65.5312307692308  C 74.90596 65.5312307692308  77.6746228571429 67.6125576923077  77.6746228571429 67.6125576923077  C 77.6746228571429 67.6125576923077  77.4839085714286 69.7981730769231  77.4839085714286 69.7981730769231  C 77.4839085714286 69.7981730769231  81.3368457142857 71.0631730769231  81.3368457142857 71.0631730769231  C 81.3368457142857 71.0631730769231  83.7533228571428 72.5236346153847  83.7533228571428 72.5236346153847  C 83.7533228571428 72.5236346153847  85.5259485714286 71.6040769230769  85.5259485714286 71.6040769230769  C 85.5259485714286 71.6040769230769  85.2767485714286 70.0052692307692  85.2767485714286 70.0052692307692  C 85.2767485714286 70.0052692307692  87.3133228571429 68.3377115384615  87.3133228571429 68.3377115384615  C 87.3133228571429 68.3377115384615  88.9974571428572 70.8907692307692  88.9974571428572 70.8907692307692  C 88.9974571428572 70.8907692307692  85.2330114285714 77.7340384615385  85.2330114285714 77.7340384615385  C 85.2330114285714 77.7340384615385  82.7572857142858 80.5984807692307  82.7572857142858 80.5984807692307  C 82.7572857142858 80.5984807692307  82.3473771428572 82.3233653846154  82.3473771428572 82.3233653846154  C 82.3473771428572 82.3233653846154  79.5642200000001 83.9228076923077  79.5642200000001 83.9228076923077  C 79.5642200000001 83.9228076923077  82.6258199999999 85.9470192307692  82.6258199999999 85.9470192307692  C 82.6258199999999 85.9470192307692  82.55284 89.8353076923077  82.55284 89.8353076923077  C 82.55284 89.8353076923077  84.1202571428572 89.5818846153846  84.1202571428572 89.5818846153846  C 84.1202571428572 89.5818846153846  83.8125714285714 84.6128461538462  83.8125714285714 84.6128461538462  C 83.8125714285714 84.6128461538462  86.0388428571429 86.5680961538461  86.0388428571429 86.5680961538461  C 86.0388428571429 86.5680961538461  85.7314114285715 88.9036923076923  85.7314114285715 88.9036923076923  C 85.7314114285715 88.9036923076923  86.4635 91.4226923076923  86.4635 91.4226923076923  C 86.4635 91.4226923076923  80.7217285714286 91.5379807692307  80.7217285714286 91.5379807692307  C 80.7217285714286 91.5379807692307  81.0584028571428 92.4924423076923  81.0584028571428 92.4924423076923  C 81.0584028571428 92.4924423076923  83.9147942857143 93.7233846153847  83.9147942857143 93.7233846153847  C 83.9147942857143 93.7233846153847  83.3141714285715 94.8741538461539  83.3141714285715 94.8741538461539  C 83.3141714285715 94.8741538461539  80.6924857142857 95.3338269230769  80.6924857142857 95.3338269230769  C 80.6924857142857 95.3338269230769  77.3816857142857 94.2530769230769  77.3816857142857 94.2530769230769  C 77.3816857142857 94.2530769230769  75.5210771428571 96.1742692307692  75.5210771428571 96.1742692307692  C 75.5210771428571 96.1742692307692  73.8514371428572 94.7360192307692  73.8514371428572 94.7360192307692  C 73.8514371428572 94.7360192307692  71.4489457142857 96.7720769230769  71.4489457142857 96.7720769230769  C 71.4489457142857 96.7720769230769  69.5008628571428 96.0018653846154  69.5008628571428 96.0018653846154  C 69.5008628571428 96.0018653846154  67.6845 92.6656923076924  67.6845 92.6656923076924  C 67.6845 92.6656923076924  65.1065514285714 91.3306730769231  65.1065514285714 91.3306730769231  C 65.1065514285714 91.3306730769231  63.4661542857143 91.6761153846154  63.4661542857143 91.6761153846154  C 63.4661542857143 91.6761153846154  57.5919 94.2300192307692  57.5919 94.2300192307692  C 57.5919 94.2300192307692  55.3216371428571 94.70175  55.3216371428571 94.70175  C 55.3216371428571 94.70175  53.4905257142857 96.2544423076923  53.4905257142857 96.2544423076923  C 53.4905257142857 96.2544423076923  51.5424428571428 101.846038461538  51.5424428571428 101.846038461538  C 51.5424428571428 101.846038461538  55.8485171428571 104.986961538462  55.8485171428571 104.986961538462  C 55.8485171428571 104.986961538462  54.5447942857143 108.0365  54.5447942857143 108.0365  C 54.5447942857143 108.0365  52.1138228571428 107.414788461538  52.1138228571428 107.414788461538  C 52.1138228571428 107.414788461538  48.1584085714285 107.47275  48.1584085714285 107.47275  C 48.1584085714285 107.47275  42.9938657142857 106.92  42.9938657142857 106.92  C 42.9938657142857 106.92  42.9201228571428 108.105673076923  42.9201228571428 108.105673076923  C 42.9201228571428 108.105673076923  39.4193714285715 109.175423076923  39.4193714285715 109.175423076923  C 39.4193714285715 109.175423076923  36.7829371428571 106.552346153846  36.7829371428571 106.552346153846  C 36.7829371428571 106.552346153846  36.4022714285714 102.502019230769  36.4022714285714 102.502019230769  C 36.4022714285714 102.502019230769  38.9069857142857 97.8769423076923  38.9069857142857 97.8769423076923  C 38.9069857142857 97.8769423076923  41.29422 97.0485576923077  41.29422 97.0485576923077  C 41.29422 97.0485576923077  40.0492371428572 91.3306730769231  40.0492371428572 91.3306730769231  C 40.0492371428572 91.3306730769231  38.6432914285714 89.558826923077  38.6432914285714 89.558826923077  C 38.6432914285714 89.558826923077  35.5816914285714 87.9832884615385  35.5816914285714 87.9832884615385  C 35.5816914285714 87.9832884615385  30.6449885714286 87.9492307692308  30.6449885714286 87.9492307692308  C 30.6449885714286 87.9492307692308  26.7635714285714 89.0530384615385  26.7635714285714 89.0530384615385  C 26.7635714285714 89.0530384615385  24.8739742857143 90.2839807692308  24.8739742857143 90.2839807692308  C 24.8739742857143 90.2839807692308  20.5378942857143 89.7779807692307  20.5378942857143 89.7779807692307  C 20.5378942857143 89.7779807692307  18.1946514285714 90.9858653846154  18.1946514285714 90.9858653846154  C 18.1946514285714 90.9858653846154  16.6272342857142 89.111  16.6272342857142 89.111  C 16.6272342857142 89.111  14.0637800000001 89.4094807692308  14.0637800000001 89.4094807692308  C 14.0637800000001 89.4094807692308  11.3975942857142 88.3509423076923  11.3975942857142 88.3509423076923  C 11.3975942857142 88.3509423076923  11.2806228571428 86.3726346153846  11.2806228571428 86.3726346153846  C 11.2806228571428 86.3726346153846  15.8796342857143 81.0010384615385  15.8796342857143 81.0010384615385  C 15.8796342857143 81.0010384615385  14.8106171428572 74.2493653846154  14.8106171428572 74.2493653846154  C 14.8106171428572 74.2493653846154  16.1433285714286 71.8564423076923  16.1433285714286 71.8564423076923  C 16.1433285714286 71.8564423076923  18.7952742857142 70.4420961538461  18.7952742857142 70.4420961538461  C 18.7952742857142 70.4420961538461  17.7399885714286 67.76275  17.7399885714286 67.76275  C 17.7399885714286 67.76275  17.3008371428571 63.8524615384615  17.3008371428571 63.8524615384615  C 17.3008371428571 63.8524615384615  18.42834 62.2879230769231  18.42834 62.2879230769231  C 18.42834 62.2879230769231  21.5339314285714 60.8966346153847  21.5339314285714 60.8966346153847  C 21.5339314285714 60.8966346153847  22.1782914285714 53.8020576923077  22.1782914285714 53.8020576923077  C 22.1782914285714 53.8020576923077  19.4688771428571 47.2822307692308  19.4688771428571 47.2822307692308  C 19.4688771428571 47.2822307692308  20.3771857142858 44.891  20.3771857142858 44.891  C 20.3771857142858 44.891  19.49812 41.1770192307693  19.49812 41.1770192307693  C 19.49812 41.1770192307693  20.9622971428572 39.1764999999999  20.9622971428572 39.1764999999999  C 20.9622971428572 39.1764999999999  25.9722342857143 38.2569423076923  25.9722342857143 38.2569423076923  C 25.9722342857143 38.2569423076923  26.9242799999999 35.6015  26.9242799999999 35.6015  C 26.9242799999999 35.6015  24.3170885714286 29.0133461538461  24.3170885714286 29.0133461538461  C 24.3170885714286 29.0133461538461  21.91536 26.2206153846154  21.91536 26.2206153846154  C 21.91536 26.2206153846154  19.7765628571429 25.5764807692308  19.7765628571429 25.5764807692308  C 19.7765628571429 25.5764807692308  14.9420828571429 22.7486346153846  14.9420828571429 22.7486346153846  C 14.9420828571429 22.7486346153846  4.21987142857138 21.4844807692307  4.21987142857138 21.4844807692307  Z " stroke-width="2" stroke="#666666" fill="none" transform="matrix(1 0 0 1 500 560 )" mask="url(#clip83)" />
  </g>
</svg>