<?xml version="1.0" encoding="utf-8"?>
<svg version="1.1" xmlns:xlink="http://www.w3.org/1999/xlink" width="155px" height="70px" xmlns="http://www.w3.org/2000/svg">
  <defs>
    <mask fill="white" id="clip84">
      <path d="M 149.863909836066 45.9102424242424  C 149.863909836066 45.9102424242424  152.952475409836 48.2607575757576  152.952475409836 48.2607575757576  C 152.952475409836 48.2607575757576  150.112926229508 53.2392424242424  150.112926229508 53.2392424242424  C 150.112926229508 53.2392424242424  145.004786885246 50.7037575757576  145.004786885246 50.7037575757576  C 145.004786885246 50.7037575757576  141.242860655738 56.9840303030303  141.242860655738 56.9840303030303  C 141.242860655738 56.9840303030303  139.032713114754 57.3306363636364  139.032713114754 57.3306363636364  C 139.032713114754 57.3306363636364  137.01237704918 55.4974848484848  137.01237704918 55.4974848484848  C 137.01237704918 55.4974848484848  137.041344262295 58.3672727272728  137.041344262295 58.3672727272728  C 137.041344262295 58.3672727272728  134.890401639344 60.0387878787878  134.890401639344 60.0387878787878  C 134.890401639344 60.0387878787878  135.475336065574 62.4013939393939  135.475336065574 62.4013939393939  C 135.475336065574 62.4013939393939  133.206745901639 63.1043636363636  133.206745901639 63.1043636363636  C 133.206745901639 63.1043636363636  130.162647540984 68.0143333333333  130.162647540984 68.0143333333333  C 130.162647540984 68.0143333333333  127.161491803279 66.2274242424242  127.161491803279 66.2274242424242  C 127.161491803279 66.2274242424242  125.551524590164 63.9804242424242  125.551524590164 63.9804242424242  C 125.551524590164 63.9804242424242  114.748786885246 64.1420606060606  114.748786885246 64.1420606060606  C 114.748786885246 64.1420606060606  112.729213114754 64.7527575757576  112.729213114754 64.7527575757576  C 112.729213114754 64.7527575757576  104.634401639344 64.8100303030303  104.634401639344 64.8100303030303  C 104.634401639344 64.8100303030303  101.209409836066 64.0958181818182  101.209409836066 64.0958181818182  C 101.209409836066 64.0958181818182  98.5164754098361 59.1627272727273  98.5164754098361 59.1627272727273  C 98.5164754098361 59.1627272727273  95.8227786885246 59.6811515151515  95.8227786885246 59.6811515151515  C 95.8227786885246 59.6811515151515  94.7400655737705 61.6519696969697  94.7400655737705 61.6519696969697  C 94.7400655737705 61.6519696969697  90.1144590163935 63.0352121212122  90.1144590163935 63.0352121212122  C 90.1144590163935 63.0352121212122  88.2117704918033 61.1797878787879  88.2117704918033 61.1797878787879  C 88.2117704918033 61.1797878787879  89.0162459016393 59.3014545454545  89.0162459016393 59.3014545454545  C 89.0162459016393 59.3014545454545  88.386844262295 57.4801818181818  88.386844262295 57.4801818181818  C 88.386844262295 57.4801818181818  86.1182540983607 57.3306363636364  86.1182540983607 57.3306363636364  C 86.1182540983607 57.3306363636364  84.1571229508196 56.0046666666667  84.1571229508196 56.0046666666667  C 84.1571229508196 56.0046666666667  82.4147704918032 56.7309696969697  82.4147704918032 56.7309696969697  C 82.4147704918032 56.7309696969697  82.0051639344263 60.788  82.0051639344263 60.788  C 82.0051639344263 60.788  79.2825 61.4330606060606  79.2825 61.4330606060606  C 79.2825 61.4330606060606  80.087737704918 59.036303030303  80.087737704918 59.036303030303  C 80.087737704918 59.036303030303  74.516631147541 56.2819090909091  74.516631147541 56.2819090909091  C 74.516631147541 56.2819090909091  73.1701639344262 58.4366363636364  73.1701639344262 58.4366363636364  C 73.1701639344262 58.4366363636364  72.7460737704918 56.5470606060606  72.7460737704918 56.5470606060606  C 72.7460737704918 56.5470606060606  70.3013934426229 55.5324848484848  70.3013934426229 55.5324848484848  C 70.3013934426229 55.5324848484848  67.4471065573771 58.7940606060606  67.4471065573771 58.7940606060606  C 67.4471065573771 58.7940606060606  64.4606885245902 56.2125454545455  64.4606885245902 56.2125454545455  C 64.4606885245902 56.2125454545455  60.8895901639345 57.6872121212121  60.8895901639345 57.6872121212121  C 60.8895901639345 57.6872121212121  59.3380655737705 59.8540303030303  59.3380655737705 59.8540303030303  C 59.3380655737705 59.8540303030303  57.9031721311475 60.1191818181818  57.9031721311475 60.1191818181818  C 57.9031721311475 60.1191818181818  56.5714426229508 57.9523636363636  56.5714426229508 57.9523636363636  C 56.5714426229508 57.9523636363636  58.5917786885246 54.9680303030303  58.5917786885246 54.9680303030303  C 58.5917786885246 54.9680303030303  49.9991885245902 53.4462727272727  49.9991885245902 53.4462727272727  C 49.9991885245902 53.4462727272727  49.6040655737704 55.4862424242424  49.6040655737704 55.4862424242424  C 49.6040655737704 55.4862424242424  47.3209918032787 55.7395151515151  47.3209918032787 55.7395151515151  C 47.3209918032787 55.7395151515151  45.3296229508197 58.1602424242425  45.3296229508197 58.1602424242425  C 45.3296229508197 58.1602424242425  43.0025901639345 58.1021212121213  43.0025901639345 58.1021212121213  C 43.0025901639345 58.1021212121213  41.9928032786886 56.6616060606061  41.9928032786886 56.6616060606061  C 41.9928032786886 56.6616060606061  40.3528524590164 56.9157272727273  40.3528524590164 56.9157272727273  C 40.3528524590164 56.9157272727273  40.1045983606557 58.2750000000001  40.1045983606557 58.2750000000001  C 40.1045983606557 58.2750000000001  37.7183606557377 58.6555454545455  37.7183606557377 58.6555454545455  C 37.7183606557377 58.6555454545455  36.9868114754099 56.4889393939394  36.9868114754099 56.4889393939394  C 36.9868114754099 56.4889393939394  31.6880983606557 56.442696969697  31.6880983606557 56.442696969697  C 31.6880983606557 56.442696969697  29.9604836065574 57.8719696969698  29.9604836065574 57.8719696969698  C 29.9604836065574 57.8719696969698  26.5944426229509 57.6530606060606  26.5944426229509 57.6530606060606  C 26.5944426229509 57.6530606060606  27.0624918032787 54.4837575757576  27.0624918032787 54.4837575757576  C 27.0624918032787 54.4837575757576  25.1158442622951 52.2598787878788  25.1158442622951 52.2598787878788  C 25.1158442622951 52.2598787878788  23.271344262295 50.0589090909091  23.271344262295 50.0589090909091  C 23.271344262295 50.0589090909091  10.5074754098361 46.6244545454545  10.5074754098361 46.6244545454545  C 10.5074754098361 46.6244545454545  7.49259836065567 45.0804242424243  7.49259836065567 45.0804242424243  C 7.49259836065567 45.0804242424243  7.40417213114757 43.720303030303  7.40417213114757 43.720303030303  C 7.40417213114757 43.720303030303  4.25716393442629 43.7665454545454  4.25716393442629 43.7665454545454  C 4.25716393442629 43.7665454545454  1.79876229508195 39.8838787878787  1.79876229508195 39.8838787878787  C 1.79876229508195 39.8838787878787  2.69090163934433 38.2244545454546  2.69090163934433 38.2244545454546  C 2.69090163934433 38.2244545454546  6.68710655737711 38.4777272727273  6.68710655737711 38.4777272727273  C 6.68710655737711 38.4777272727273  8.60453278688526 37.5564848484848  8.60453278688526 37.5564848484848  C 8.60453278688526 37.5564848484848  9.5121721311475 32.6927575757576  9.5121721311475 32.6927575757576  C 9.5121721311475 32.6927575757576  12.878975409836 31.9204242424243  12.878975409836 31.9204242424243  C 12.878975409836 31.9204242424243  15.3236557377049 28.315  15.3236557377049 28.315  C 15.3236557377049 28.315  18.9824180327869 24.4664848484848  18.9824180327869 24.4664848484848  C 18.9824180327869 24.4664848484848  19.3635655737705 19.5821818181818  19.3635655737705 19.5821818181818  C 19.3635655737705 19.5821818181818  23.1099918032787 17.8654848484849  23.1099918032787 17.8654848484849  C 23.1099918032787 17.8654848484849  25.3209016393442 13.1317878787879  25.3209016393442 13.1317878787879  C 25.3209016393442 13.1317878787879  28.8045901639345 13.7535151515151  28.8045901639345 13.7535151515151  C 28.8045901639345 13.7535151515151  30.6635737704919 10.9085454545455  30.6635737704919 10.9085454545455  C 30.6635737704919 10.9085454545455  28.2044098360656 5.85136363636369  28.2044098360656 5.85136363636369  C 28.2044098360656 5.85136363636369  28.8775163934427 3.01848484848485  28.8775163934427 3.01848484848485  C 28.8775163934427 3.01848484848485  33.0345655737705 6.11672727272728  33.0345655737705 6.11672727272728  C 33.0345655737705 6.11672727272728  35.2447131147541 5.35627272727275  35.2447131147541 5.35627272727275  C 35.2447131147541 5.35627272727275  33.8398032786886 2.41966666666663  33.8398032786886 2.41966666666663  C 33.8398032786886 2.41966666666663  35.9917622950819 0.749848484848478  35.9917622950819 0.749848484848478  C 35.9917622950819 0.749848484848478  38.6259999999999 0.185393939393944  38.6259999999999 0.185393939393944  C 38.6259999999999 0.185393939393944  40.9385491803279 2.97224242424246  40.9385491803279 2.97224242424246  C 40.9385491803279 2.97224242424246  45.4764918032787 1.95851515151512  45.4764918032787 1.95851515151512  C 45.4764918032787 1.95851515151512  46.8374426229508 2.69584848484845  46.8374426229508 2.69584848484845  C 46.8374426229508 2.69584848484845  45.9882459016393 5.79409090909087  45.9882459016393 5.79409090909087  C 45.9882459016393 5.79409090909087  46.6323852459017 6.7615757575757  46.6323852459017 6.7615757575757  C 46.6323852459017 6.7615757575757  48.6964262295082 6.1286060606061  48.6964262295082 6.1286060606061  C 48.6964262295082 6.1286060606061  51.3456557377049 6.86509090909092  51.3456557377049 6.86509090909092  C 51.3456557377049 6.86509090909092  52.2385573770492 10.8966666666667  52.2385573770492 10.8966666666667  C 52.2385573770492 10.8966666666667  54.5808360655738 10.4363636363637  54.5808360655738 10.4363636363637  C 54.5808360655738 10.4363636363637  59.0450901639344 11.1847272727273  59.0450901639344 11.1847272727273  C 59.0450901639344 11.1847272727273  59.6600081967214 13.3275757575758  59.6600081967214 13.3275757575758  C 59.6600081967214 13.3275757575758  59.3817704918033 15.9194848484849  59.3817704918033 15.9194848484849  C 59.3817704918033 15.9194848484849  61.4168442622951 16.3104242424243  61.4168442622951 16.3104242424243  C 61.4168442622951 16.3104242424243  61.138606557377 21.483  61.138606557377 21.483  C 61.138606557377 21.483  65.1785163934426 24.5477272727273  65.1785163934426 24.5477272727273  C 65.1785163934426 24.5477272727273  66.7147950819672 26.7136969696969  66.7147950819672 26.7136969696969  C 66.7147950819672 26.7136969696969  72.1019344262296 26.0105151515151  72.1019344262296 26.0105151515151  C 72.1019344262296 26.0105151515151  74.6195409836066 23.7753939393939  74.6195409836066 23.7753939393939  C 74.6195409836066 23.7753939393939  73.1849016393443 22.7385454545455  73.1849016393443 22.7385454545455  C 73.1849016393443 22.7385454545455  73.6089918032787 20.3999090909091  73.6089918032787 20.3999090909091  C 73.6089918032787 20.3999090909091  71.3404016393442 19.5821818181818  71.3404016393442 19.5821818181818  C 71.3404016393442 19.5821818181818  73.7558606557377 17.1058787878788  73.7558606557377 17.1058787878788  C 73.7558606557377 17.1058787878788  82.2981393442623 17.6815757575758  82.2981393442623 17.6815757575758  C 82.2981393442623 17.6815757575758  83.4400573770491 18.1768787878788  83.4400573770491 18.1768787878788  C 83.4400573770491 18.1768787878788  84.9471147540983 22.1168181818181  84.9471147540983 22.1168181818181  C 84.9471147540983 22.1168181818181  87.7429590163934 22.0243333333333  87.7429590163934 22.0243333333333  C 87.7429590163934 22.0243333333333  89.6603852459017 20.907303030303  89.6603852459017 20.907303030303  C 89.6603852459017 20.907303030303  91.0365819672131 21.3794848484848  91.0365819672131 21.3794848484848  C 91.0365819672131 21.3794848484848  90.3197704918033 23.3604848484849  90.3197704918033 23.3604848484849  C 90.3197704918033 23.3604848484849  92.1487704918032 26.4133333333333  92.1487704918032 26.4133333333333  C 92.1487704918032 26.4133333333333  91.9734426229509 29.9273333333334  91.9734426229509 29.9273333333334  C 91.9734426229509 29.9273333333334  88.4460491803278 30.2274848484848  88.4460491803278 30.2274848484848  C 88.4460491803278 30.2274848484848  86.9237459016394 31.2062121212121  86.9237459016394 31.2062121212121  C 86.9237459016394 31.2062121212121  87.9335327868853 32.7852424242424  87.9335327868853 32.7852424242424  C 87.9335327868853 32.7852424242424  91.9005163934426 32.6004848484849  91.9005163934426 32.6004848484849  C 91.9005163934426 32.6004848484849  92.8955655737705 36.8422727272727  92.8955655737705 36.8422727272727  C 92.8955655737705 36.8422727272727  94.8861721311476 38.0978181818182  94.8861721311476 38.0978181818182  C 94.8861721311476 38.0978181818182  97.7257213114753 37.8670303030303  97.7257213114753 37.8670303030303  C 97.7257213114753 37.8670303030303  99.7168360655738 36.6575151515152  99.7168360655738 36.6575151515152  C 99.7168360655738 36.6575151515152  105.205614754098 38.4314848484849  105.205614754098 38.4314848484849  C 105.205614754098 38.4314848484849  107.459467213115 40.0336363636363  107.459467213115 40.0336363636363  C 107.459467213115 40.0336363636363  109.098655737705 40.2406666666666  109.098655737705 40.2406666666666  C 109.098655737705 40.2406666666666  108.118090163934 42.8103030303031  108.118090163934 42.8103030303031  C 108.118090163934 42.8103030303031  108.996508196721 46.8777272727272  108.996508196721 46.8777272727272  C 108.996508196721 46.8777272727272  110.416663934426 48.9870606060606  110.416663934426 48.9870606060606  C 110.416663934426 48.9870606060606  113.329393442623 50.2778181818182  113.329393442623 50.2778181818182  C 113.329393442623 50.2778181818182  120.018278688525 54.2648484848485  120.018278688525 54.2648484848485  C 120.018278688525 54.2648484848485  123.048655737705 50.219696969697  123.048655737705 50.219696969697  C 123.048655737705 50.219696969697  123.136319672131 47.6269393939394  123.136319672131 47.6269393939394  C 123.136319672131 47.6269393939394  124.746286885246 43.8017575757576  124.746286885246 43.8017575757576  C 124.746286885246 43.8017575757576  129.108139344262 41.1969090909091  129.108139344262 41.1969090909091  C 129.108139344262 41.1969090909091  130.952639344262 41.4510303030303  130.952639344262 41.4510303030303  C 130.952639344262 41.4510303030303  132.577344262295 37.6831212121212  132.577344262295 37.6831212121212  C 132.577344262295 37.6831212121212  136.427442622951 39.4108484848485  136.427442622951 39.4108484848485  C 136.427442622951 39.4108484848485  138.66681147541 41.1508787878788  138.66681147541 41.1508787878788  C 138.66681147541 41.1508787878788  141.535581967213 41.5776666666667  141.535581967213 41.5776666666667  C 141.535581967213 41.5776666666667  148.064131147541 45.7486060606061  148.064131147541 45.7486060606061  C 148.064131147541 45.7486060606061  149.863909836066 45.9102424242424  149.863909836066 45.9102424242424  Z " fill-rule="evenodd" />
    </mask>
  </defs>
  <g transform="matrix(1 0 0 1 -308 -500 )">
    <path d="M 149.863909836066 45.9102424242424  C 149.863909836066 45.9102424242424  152.952475409836 48.2607575757576  152.952475409836 48.2607575757576  C 152.952475409836 48.2607575757576  150.112926229508 53.2392424242424  150.112926229508 53.2392424242424  C 150.112926229508 53.2392424242424  145.004786885246 50.7037575757576  145.004786885246 50.7037575757576  C 145.004786885246 50.7037575757576  141.242860655738 56.9840303030303  141.242860655738 56.9840303030303  C 141.242860655738 56.9840303030303  139.032713114754 57.3306363636364  139.032713114754 57.3306363636364  C 139.032713114754 57.3306363636364  137.01237704918 55.4974848484848  137.01237704918 55.4974848484848  C 137.01237704918 55.4974848484848  137.041344262295 58.3672727272728  137.041344262295 58.3672727272728  C 137.041344262295 58.3672727272728  134.890401639344 60.0387878787878  134.890401639344 60.0387878787878  C 134.890401639344 60.0387878787878  135.475336065574 62.4013939393939  135.475336065574 62.4013939393939  C 135.475336065574 62.4013939393939  133.206745901639 63.1043636363636  133.206745901639 63.1043636363636  C 133.206745901639 63.1043636363636  130.162647540984 68.0143333333333  130.162647540984 68.0143333333333  C 130.162647540984 68.0143333333333  127.161491803279 66.2274242424242  127.161491803279 66.2274242424242  C 127.161491803279 66.2274242424242  125.551524590164 63.9804242424242  125.551524590164 63.9804242424242  C 125.551524590164 63.9804242424242  114.748786885246 64.1420606060606  114.748786885246 64.1420606060606  C 114.748786885246 64.1420606060606  112.729213114754 64.7527575757576  112.729213114754 64.7527575757576  C 112.729213114754 64.7527575757576  104.634401639344 64.8100303030303  104.634401639344 64.8100303030303  C 104.634401639344 64.8100303030303  101.209409836066 64.0958181818182  101.209409836066 64.0958181818182  C 101.209409836066 64.0958181818182  98.5164754098361 59.1627272727273  98.5164754098361 59.1627272727273  C 98.5164754098361 59.1627272727273  95.8227786885246 59.6811515151515  95.8227786885246 59.6811515151515  C 95.8227786885246 59.6811515151515  94.7400655737705 61.6519696969697  94.7400655737705 61.6519696969697  C 94.7400655737705 61.6519696969697  90.1144590163935 63.0352121212122  90.1144590163935 63.0352121212122  C 90.1144590163935 63.0352121212122  88.2117704918033 61.1797878787879  88.2117704918033 61.1797878787879  C 88.2117704918033 61.1797878787879  89.0162459016393 59.3014545454545  89.0162459016393 59.3014545454545  C 89.0162459016393 59.3014545454545  88.386844262295 57.4801818181818  88.386844262295 57.4801818181818  C 88.386844262295 57.4801818181818  86.1182540983607 57.3306363636364  86.1182540983607 57.3306363636364  C 86.1182540983607 57.3306363636364  84.1571229508196 56.0046666666667  84.1571229508196 56.0046666666667  C 84.1571229508196 56.0046666666667  82.4147704918032 56.7309696969697  82.4147704918032 56.7309696969697  C 82.4147704918032 56.7309696969697  82.0051639344263 60.788  82.0051639344263 60.788  C 82.0051639344263 60.788  79.2825 61.4330606060606  79.2825 61.4330606060606  C 79.2825 61.4330606060606  80.087737704918 59.036303030303  80.087737704918 59.036303030303  C 80.087737704918 59.036303030303  74.516631147541 56.2819090909091  74.516631147541 56.2819090909091  C 74.516631147541 56.2819090909091  73.1701639344262 58.4366363636364  73.1701639344262 58.4366363636364  C 73.1701639344262 58.4366363636364  72.7460737704918 56.5470606060606  72.7460737704918 56.5470606060606  C 72.7460737704918 56.5470606060606  70.3013934426229 55.5324848484848  70.3013934426229 55.5324848484848  C 70.3013934426229 55.5324848484848  67.4471065573771 58.7940606060606  67.4471065573771 58.7940606060606  C 67.4471065573771 58.7940606060606  64.4606885245902 56.2125454545455  64.4606885245902 56.2125454545455  C 64.4606885245902 56.2125454545455  60.8895901639345 57.6872121212121  60.8895901639345 57.6872121212121  C 60.8895901639345 57.6872121212121  59.3380655737705 59.8540303030303  59.3380655737705 59.8540303030303  C 59.3380655737705 59.8540303030303  57.9031721311475 60.1191818181818  57.9031721311475 60.1191818181818  C 57.9031721311475 60.1191818181818  56.5714426229508 57.9523636363636  56.5714426229508 57.9523636363636  C 56.5714426229508 57.9523636363636  58.5917786885246 54.9680303030303  58.5917786885246 54.9680303030303  C 58.5917786885246 54.9680303030303  49.9991885245902 53.4462727272727  49.9991885245902 53.4462727272727  C 49.9991885245902 53.4462727272727  49.6040655737704 55.4862424242424  49.6040655737704 55.4862424242424  C 49.6040655737704 55.4862424242424  47.3209918032787 55.7395151515151  47.3209918032787 55.7395151515151  C 47.3209918032787 55.7395151515151  45.3296229508197 58.1602424242425  45.3296229508197 58.1602424242425  C 45.3296229508197 58.1602424242425  43.0025901639345 58.1021212121213  43.0025901639345 58.1021212121213  C 43.0025901639345 58.1021212121213  41.9928032786886 56.6616060606061  41.9928032786886 56.6616060606061  C 41.9928032786886 56.6616060606061  40.3528524590164 56.9157272727273  40.3528524590164 56.9157272727273  C 40.3528524590164 56.9157272727273  40.1045983606557 58.2750000000001  40.1045983606557 58.2750000000001  C 40.1045983606557 58.2750000000001  37.7183606557377 58.6555454545455  37.7183606557377 58.6555454545455  C 37.7183606557377 58.6555454545455  36.9868114754099 56.4889393939394  36.9868114754099 56.4889393939394  C 36.9868114754099 56.4889393939394  31.6880983606557 56.442696969697  31.6880983606557 56.442696969697  C 31.6880983606557 56.442696969697  29.9604836065574 57.8719696969698  29.9604836065574 57.8719696969698  C 29.9604836065574 57.8719696969698  26.5944426229509 57.6530606060606  26.5944426229509 57.6530606060606  C 26.5944426229509 57.6530606060606  27.0624918032787 54.4837575757576  27.0624918032787 54.4837575757576  C 27.0624918032787 54.4837575757576  25.1158442622951 52.2598787878788  25.1158442622951 52.2598787878788  C 25.1158442622951 52.2598787878788  23.271344262295 50.0589090909091  23.271344262295 50.0589090909091  C 23.271344262295 50.0589090909091  10.5074754098361 46.6244545454545  10.5074754098361 46.6244545454545  C 10.5074754098361 46.6244545454545  7.49259836065567 45.0804242424243  7.49259836065567 45.0804242424243  C 7.49259836065567 45.0804242424243  7.40417213114757 43.720303030303  7.40417213114757 43.720303030303  C 7.40417213114757 43.720303030303  4.25716393442629 43.7665454545454  4.25716393442629 43.7665454545454  C 4.25716393442629 43.7665454545454  1.79876229508195 39.8838787878787  1.79876229508195 39.8838787878787  C 1.79876229508195 39.8838787878787  2.69090163934433 38.2244545454546  2.69090163934433 38.2244545454546  C 2.69090163934433 38.2244545454546  6.68710655737711 38.4777272727273  6.68710655737711 38.4777272727273  C 6.68710655737711 38.4777272727273  8.60453278688526 37.5564848484848  8.60453278688526 37.5564848484848  C 8.60453278688526 37.5564848484848  9.5121721311475 32.6927575757576  9.5121721311475 32.6927575757576  C 9.5121721311475 32.6927575757576  12.878975409836 31.9204242424243  12.878975409836 31.9204242424243  C 12.878975409836 31.9204242424243  15.3236557377049 28.315  15.3236557377049 28.315  C 15.3236557377049 28.315  18.9824180327869 24.4664848484848  18.9824180327869 24.4664848484848  C 18.9824180327869 24.4664848484848  19.3635655737705 19.5821818181818  19.3635655737705 19.5821818181818  C 19.3635655737705 19.5821818181818  23.1099918032787 17.8654848484849  23.1099918032787 17.8654848484849  C 23.1099918032787 17.8654848484849  25.3209016393442 13.1317878787879  25.3209016393442 13.1317878787879  C 25.3209016393442 13.1317878787879  28.8045901639345 13.7535151515151  28.8045901639345 13.7535151515151  C 28.8045901639345 13.7535151515151  30.6635737704919 10.9085454545455  30.6635737704919 10.9085454545455  C 30.6635737704919 10.9085454545455  28.2044098360656 5.85136363636369  28.2044098360656 5.85136363636369  C 28.2044098360656 5.85136363636369  28.8775163934427 3.01848484848485  28.8775163934427 3.01848484848485  C 28.8775163934427 3.01848484848485  33.0345655737705 6.11672727272728  33.0345655737705 6.11672727272728  C 33.0345655737705 6.11672727272728  35.2447131147541 5.35627272727275  35.2447131147541 5.35627272727275  C 35.2447131147541 5.35627272727275  33.8398032786886 2.41966666666663  33.8398032786886 2.41966666666663  C 33.8398032786886 2.41966666666663  35.9917622950819 0.749848484848478  35.9917622950819 0.749848484848478  C 35.9917622950819 0.749848484848478  38.6259999999999 0.185393939393944  38.6259999999999 0.185393939393944  C 38.6259999999999 0.185393939393944  40.9385491803279 2.97224242424246  40.9385491803279 2.97224242424246  C 40.9385491803279 2.97224242424246  45.4764918032787 1.95851515151512  45.4764918032787 1.95851515151512  C 45.4764918032787 1.95851515151512  46.8374426229508 2.69584848484845  46.8374426229508 2.69584848484845  C 46.8374426229508 2.69584848484845  45.9882459016393 5.79409090909087  45.9882459016393 5.79409090909087  C 45.9882459016393 5.79409090909087  46.6323852459017 6.7615757575757  46.6323852459017 6.7615757575757  C 46.6323852459017 6.7615757575757  48.6964262295082 6.1286060606061  48.6964262295082 6.1286060606061  C 48.6964262295082 6.1286060606061  51.3456557377049 6.86509090909092  51.3456557377049 6.86509090909092  C 51.3456557377049 6.86509090909092  52.2385573770492 10.8966666666667  52.2385573770492 10.8966666666667  C 52.2385573770492 10.8966666666667  54.5808360655738 10.4363636363637  54.5808360655738 10.4363636363637  C 54.5808360655738 10.4363636363637  59.0450901639344 11.1847272727273  59.0450901639344 11.1847272727273  C 59.0450901639344 11.1847272727273  59.6600081967214 13.3275757575758  59.6600081967214 13.3275757575758  C 59.6600081967214 13.3275757575758  59.3817704918033 15.9194848484849  59.3817704918033 15.9194848484849  C 59.3817704918033 15.9194848484849  61.4168442622951 16.3104242424243  61.4168442622951 16.3104242424243  C 61.4168442622951 16.3104242424243  61.138606557377 21.483  61.138606557377 21.483  C 61.138606557377 21.483  65.1785163934426 24.5477272727273  65.1785163934426 24.5477272727273  C 65.1785163934426 24.5477272727273  66.7147950819672 26.7136969696969  66.7147950819672 26.7136969696969  C 66.7147950819672 26.7136969696969  72.1019344262296 26.0105151515151  72.1019344262296 26.0105151515151  C 72.1019344262296 26.0105151515151  74.6195409836066 23.7753939393939  74.6195409836066 23.7753939393939  C 74.6195409836066 23.7753939393939  73.1849016393443 22.7385454545455  73.1849016393443 22.7385454545455  C 73.1849016393443 22.7385454545455  73.6089918032787 20.3999090909091  73.6089918032787 20.3999090909091  C 73.6089918032787 20.3999090909091  71.3404016393442 19.5821818181818  71.3404016393442 19.5821818181818  C 71.3404016393442 19.5821818181818  73.7558606557377 17.1058787878788  73.7558606557377 17.1058787878788  C 73.7558606557377 17.1058787878788  82.2981393442623 17.6815757575758  82.2981393442623 17.6815757575758  C 82.2981393442623 17.6815757575758  83.4400573770491 18.1768787878788  83.4400573770491 18.1768787878788  C 83.4400573770491 18.1768787878788  84.9471147540983 22.1168181818181  84.9471147540983 22.1168181818181  C 84.9471147540983 22.1168181818181  87.7429590163934 22.0243333333333  87.7429590163934 22.0243333333333  C 87.7429590163934 22.0243333333333  89.6603852459017 20.907303030303  89.6603852459017 20.907303030303  C 89.6603852459017 20.907303030303  91.0365819672131 21.3794848484848  91.0365819672131 21.3794848484848  C 91.0365819672131 21.3794848484848  90.3197704918033 23.3604848484849  90.3197704918033 23.3604848484849  C 90.3197704918033 23.3604848484849  92.1487704918032 26.4133333333333  92.1487704918032 26.4133333333333  C 92.1487704918032 26.4133333333333  91.9734426229509 29.9273333333334  91.9734426229509 29.9273333333334  C 91.9734426229509 29.9273333333334  88.4460491803278 30.2274848484848  88.4460491803278 30.2274848484848  C 88.4460491803278 30.2274848484848  86.9237459016394 31.2062121212121  86.9237459016394 31.2062121212121  C 86.9237459016394 31.2062121212121  87.9335327868853 32.7852424242424  87.9335327868853 32.7852424242424  C 87.9335327868853 32.7852424242424  91.9005163934426 32.6004848484849  91.9005163934426 32.6004848484849  C 91.9005163934426 32.6004848484849  92.8955655737705 36.8422727272727  92.8955655737705 36.8422727272727  C 92.8955655737705 36.8422727272727  94.8861721311476 38.0978181818182  94.8861721311476 38.0978181818182  C 94.8861721311476 38.0978181818182  97.7257213114753 37.8670303030303  97.7257213114753 37.8670303030303  C 97.7257213114753 37.8670303030303  99.7168360655738 36.6575151515152  99.7168360655738 36.6575151515152  C 99.7168360655738 36.6575151515152  105.205614754098 38.4314848484849  105.205614754098 38.4314848484849  C 105.205614754098 38.4314848484849  107.459467213115 40.0336363636363  107.459467213115 40.0336363636363  C 107.459467213115 40.0336363636363  109.098655737705 40.2406666666666  109.098655737705 40.2406666666666  C 109.098655737705 40.2406666666666  108.118090163934 42.8103030303031  108.118090163934 42.8103030303031  C 108.118090163934 42.8103030303031  108.996508196721 46.8777272727272  108.996508196721 46.8777272727272  C 108.996508196721 46.8777272727272  110.416663934426 48.9870606060606  110.416663934426 48.9870606060606  C 110.416663934426 48.9870606060606  113.329393442623 50.2778181818182  113.329393442623 50.2778181818182  C 113.329393442623 50.2778181818182  120.018278688525 54.2648484848485  120.018278688525 54.2648484848485  C 120.018278688525 54.2648484848485  123.048655737705 50.219696969697  123.048655737705 50.219696969697  C 123.048655737705 50.219696969697  123.136319672131 47.6269393939394  123.136319672131 47.6269393939394  C 123.136319672131 47.6269393939394  124.746286885246 43.8017575757576  124.746286885246 43.8017575757576  C 124.746286885246 43.8017575757576  129.108139344262 41.1969090909091  129.108139344262 41.1969090909091  C 129.108139344262 41.1969090909091  130.952639344262 41.4510303030303  130.952639344262 41.4510303030303  C 130.952639344262 41.4510303030303  132.577344262295 37.6831212121212  132.577344262295 37.6831212121212  C 132.577344262295 37.6831212121212  136.427442622951 39.4108484848485  136.427442622951 39.4108484848485  C 136.427442622951 39.4108484848485  138.66681147541 41.1508787878788  138.66681147541 41.1508787878788  C 138.66681147541 41.1508787878788  141.535581967213 41.5776666666667  141.535581967213 41.5776666666667  C 141.535581967213 41.5776666666667  148.064131147541 45.7486060606061  148.064131147541 45.7486060606061  C 148.064131147541 45.7486060606061  149.863909836066 45.9102424242424  149.863909836066 45.9102424242424  Z " fill-rule="nonzero" fill="#ffffff" stroke="none" transform="matrix(1 0 0 1 308 500 )" />
    <path d="M 149.863909836066 45.9102424242424  C 149.863909836066 45.9102424242424  152.952475409836 48.2607575757576  152.952475409836 48.2607575757576  C 152.952475409836 48.2607575757576  150.112926229508 53.2392424242424  150.112926229508 53.2392424242424  C 150.112926229508 53.2392424242424  145.004786885246 50.7037575757576  145.004786885246 50.7037575757576  C 145.004786885246 50.7037575757576  141.242860655738 56.9840303030303  141.242860655738 56.9840303030303  C 141.242860655738 56.9840303030303  139.032713114754 57.3306363636364  139.032713114754 57.3306363636364  C 139.032713114754 57.3306363636364  137.01237704918 55.4974848484848  137.01237704918 55.4974848484848  C 137.01237704918 55.4974848484848  137.041344262295 58.3672727272728  137.041344262295 58.3672727272728  C 137.041344262295 58.3672727272728  134.890401639344 60.0387878787878  134.890401639344 60.0387878787878  C 134.890401639344 60.0387878787878  135.475336065574 62.4013939393939  135.475336065574 62.4013939393939  C 135.475336065574 62.4013939393939  133.206745901639 63.1043636363636  133.206745901639 63.1043636363636  C 133.206745901639 63.1043636363636  130.162647540984 68.0143333333333  130.162647540984 68.0143333333333  C 130.162647540984 68.0143333333333  127.161491803279 66.2274242424242  127.161491803279 66.2274242424242  C 127.161491803279 66.2274242424242  125.551524590164 63.9804242424242  125.551524590164 63.9804242424242  C 125.551524590164 63.9804242424242  114.748786885246 64.1420606060606  114.748786885246 64.1420606060606  C 114.748786885246 64.1420606060606  112.729213114754 64.7527575757576  112.729213114754 64.7527575757576  C 112.729213114754 64.7527575757576  104.634401639344 64.8100303030303  104.634401639344 64.8100303030303  C 104.634401639344 64.8100303030303  101.209409836066 64.0958181818182  101.209409836066 64.0958181818182  C 101.209409836066 64.0958181818182  98.5164754098361 59.1627272727273  98.5164754098361 59.1627272727273  C 98.5164754098361 59.1627272727273  95.8227786885246 59.6811515151515  95.8227786885246 59.6811515151515  C 95.8227786885246 59.6811515151515  94.7400655737705 61.6519696969697  94.7400655737705 61.6519696969697  C 94.7400655737705 61.6519696969697  90.1144590163935 63.0352121212122  90.1144590163935 63.0352121212122  C 90.1144590163935 63.0352121212122  88.2117704918033 61.1797878787879  88.2117704918033 61.1797878787879  C 88.2117704918033 61.1797878787879  89.0162459016393 59.3014545454545  89.0162459016393 59.3014545454545  C 89.0162459016393 59.3014545454545  88.386844262295 57.4801818181818  88.386844262295 57.4801818181818  C 88.386844262295 57.4801818181818  86.1182540983607 57.3306363636364  86.1182540983607 57.3306363636364  C 86.1182540983607 57.3306363636364  84.1571229508196 56.0046666666667  84.1571229508196 56.0046666666667  C 84.1571229508196 56.0046666666667  82.4147704918032 56.7309696969697  82.4147704918032 56.7309696969697  C 82.4147704918032 56.7309696969697  82.0051639344263 60.788  82.0051639344263 60.788  C 82.0051639344263 60.788  79.2825 61.4330606060606  79.2825 61.4330606060606  C 79.2825 61.4330606060606  80.087737704918 59.036303030303  80.087737704918 59.036303030303  C 80.087737704918 59.036303030303  74.516631147541 56.2819090909091  74.516631147541 56.2819090909091  C 74.516631147541 56.2819090909091  73.1701639344262 58.4366363636364  73.1701639344262 58.4366363636364  C 73.1701639344262 58.4366363636364  72.7460737704918 56.5470606060606  72.7460737704918 56.5470606060606  C 72.7460737704918 56.5470606060606  70.3013934426229 55.5324848484848  70.3013934426229 55.5324848484848  C 70.3013934426229 55.5324848484848  67.4471065573771 58.7940606060606  67.4471065573771 58.7940606060606  C 67.4471065573771 58.7940606060606  64.4606885245902 56.2125454545455  64.4606885245902 56.2125454545455  C 64.4606885245902 56.2125454545455  60.8895901639345 57.6872121212121  60.8895901639345 57.6872121212121  C 60.8895901639345 57.6872121212121  59.3380655737705 59.8540303030303  59.3380655737705 59.8540303030303  C 59.3380655737705 59.8540303030303  57.9031721311475 60.1191818181818  57.9031721311475 60.1191818181818  C 57.9031721311475 60.1191818181818  56.5714426229508 57.9523636363636  56.5714426229508 57.9523636363636  C 56.5714426229508 57.9523636363636  58.5917786885246 54.9680303030303  58.5917786885246 54.9680303030303  C 58.5917786885246 54.9680303030303  49.9991885245902 53.4462727272727  49.9991885245902 53.4462727272727  C 49.9991885245902 53.4462727272727  49.6040655737704 55.4862424242424  49.6040655737704 55.4862424242424  C 49.6040655737704 55.4862424242424  47.3209918032787 55.7395151515151  47.3209918032787 55.7395151515151  C 47.3209918032787 55.7395151515151  45.3296229508197 58.1602424242425  45.3296229508197 58.1602424242425  C 45.3296229508197 58.1602424242425  43.0025901639345 58.1021212121213  43.0025901639345 58.1021212121213  C 43.0025901639345 58.1021212121213  41.9928032786886 56.6616060606061  41.9928032786886 56.6616060606061  C 41.9928032786886 56.6616060606061  40.3528524590164 56.9157272727273  40.3528524590164 56.9157272727273  C 40.3528524590164 56.9157272727273  40.1045983606557 58.2750000000001  40.1045983606557 58.2750000000001  C 40.1045983606557 58.2750000000001  37.7183606557377 58.6555454545455  37.7183606557377 58.6555454545455  C 37.7183606557377 58.6555454545455  36.9868114754099 56.4889393939394  36.9868114754099 56.4889393939394  C 36.9868114754099 56.4889393939394  31.6880983606557 56.442696969697  31.6880983606557 56.442696969697  C 31.6880983606557 56.442696969697  29.9604836065574 57.8719696969698  29.9604836065574 57.8719696969698  C 29.9604836065574 57.8719696969698  26.5944426229509 57.6530606060606  26.5944426229509 57.6530606060606  C 26.5944426229509 57.6530606060606  27.0624918032787 54.4837575757576  27.0624918032787 54.4837575757576  C 27.0624918032787 54.4837575757576  25.1158442622951 52.2598787878788  25.1158442622951 52.2598787878788  C 25.1158442622951 52.2598787878788  23.271344262295 50.0589090909091  23.271344262295 50.0589090909091  C 23.271344262295 50.0589090909091  10.5074754098361 46.6244545454545  10.5074754098361 46.6244545454545  C 10.5074754098361 46.6244545454545  7.49259836065567 45.0804242424243  7.49259836065567 45.0804242424243  C 7.49259836065567 45.0804242424243  7.40417213114757 43.720303030303  7.40417213114757 43.720303030303  C 7.40417213114757 43.720303030303  4.25716393442629 43.7665454545454  4.25716393442629 43.7665454545454  C 4.25716393442629 43.7665454545454  1.79876229508195 39.8838787878787  1.79876229508195 39.8838787878787  C 1.79876229508195 39.8838787878787  2.69090163934433 38.2244545454546  2.69090163934433 38.2244545454546  C 2.69090163934433 38.2244545454546  6.68710655737711 38.4777272727273  6.68710655737711 38.4777272727273  C 6.68710655737711 38.4777272727273  8.60453278688526 37.5564848484848  8.60453278688526 37.5564848484848  C 8.60453278688526 37.5564848484848  9.5121721311475 32.6927575757576  9.5121721311475 32.6927575757576  C 9.5121721311475 32.6927575757576  12.878975409836 31.9204242424243  12.878975409836 31.9204242424243  C 12.878975409836 31.9204242424243  15.3236557377049 28.315  15.3236557377049 28.315  C 15.3236557377049 28.315  18.9824180327869 24.4664848484848  18.9824180327869 24.4664848484848  C 18.9824180327869 24.4664848484848  19.3635655737705 19.5821818181818  19.3635655737705 19.5821818181818  C 19.3635655737705 19.5821818181818  23.1099918032787 17.8654848484849  23.1099918032787 17.8654848484849  C 23.1099918032787 17.8654848484849  25.3209016393442 13.1317878787879  25.3209016393442 13.1317878787879  C 25.3209016393442 13.1317878787879  28.8045901639345 13.7535151515151  28.8045901639345 13.7535151515151  C 28.8045901639345 13.7535151515151  30.6635737704919 10.9085454545455  30.6635737704919 10.9085454545455  C 30.6635737704919 10.9085454545455  28.2044098360656 5.85136363636369  28.2044098360656 5.85136363636369  C 28.2044098360656 5.85136363636369  28.8775163934427 3.01848484848485  28.8775163934427 3.01848484848485  C 28.8775163934427 3.01848484848485  33.0345655737705 6.11672727272728  33.0345655737705 6.11672727272728  C 33.0345655737705 6.11672727272728  35.2447131147541 5.35627272727275  35.2447131147541 5.35627272727275  C 35.2447131147541 5.35627272727275  33.8398032786886 2.41966666666663  33.8398032786886 2.41966666666663  C 33.8398032786886 2.41966666666663  35.9917622950819 0.749848484848478  35.9917622950819 0.749848484848478  C 35.9917622950819 0.749848484848478  38.6259999999999 0.185393939393944  38.6259999999999 0.185393939393944  C 38.6259999999999 0.185393939393944  40.9385491803279 2.97224242424246  40.9385491803279 2.97224242424246  C 40.9385491803279 2.97224242424246  45.4764918032787 1.95851515151512  45.4764918032787 1.95851515151512  C 45.4764918032787 1.95851515151512  46.8374426229508 2.69584848484845  46.8374426229508 2.69584848484845  C 46.8374426229508 2.69584848484845  45.9882459016393 5.79409090909087  45.9882459016393 5.79409090909087  C 45.9882459016393 5.79409090909087  46.6323852459017 6.7615757575757  46.6323852459017 6.7615757575757  C 46.6323852459017 6.7615757575757  48.6964262295082 6.1286060606061  48.6964262295082 6.1286060606061  C 48.6964262295082 6.1286060606061  51.3456557377049 6.86509090909092  51.3456557377049 6.86509090909092  C 51.3456557377049 6.86509090909092  52.2385573770492 10.8966666666667  52.2385573770492 10.8966666666667  C 52.2385573770492 10.8966666666667  54.5808360655738 10.4363636363637  54.5808360655738 10.4363636363637  C 54.5808360655738 10.4363636363637  59.0450901639344 11.1847272727273  59.0450901639344 11.1847272727273  C 59.0450901639344 11.1847272727273  59.6600081967214 13.3275757575758  59.6600081967214 13.3275757575758  C 59.6600081967214 13.3275757575758  59.3817704918033 15.9194848484849  59.3817704918033 15.9194848484849  C 59.3817704918033 15.9194848484849  61.4168442622951 16.3104242424243  61.4168442622951 16.3104242424243  C 61.4168442622951 16.3104242424243  61.138606557377 21.483  61.138606557377 21.483  C 61.138606557377 21.483  65.1785163934426 24.5477272727273  65.1785163934426 24.5477272727273  C 65.1785163934426 24.5477272727273  66.7147950819672 26.7136969696969  66.7147950819672 26.7136969696969  C 66.7147950819672 26.7136969696969  72.1019344262296 26.0105151515151  72.1019344262296 26.0105151515151  C 72.1019344262296 26.0105151515151  74.6195409836066 23.7753939393939  74.6195409836066 23.7753939393939  C 74.6195409836066 23.7753939393939  73.1849016393443 22.7385454545455  73.1849016393443 22.7385454545455  C 73.1849016393443 22.7385454545455  73.6089918032787 20.3999090909091  73.6089918032787 20.3999090909091  C 73.6089918032787 20.3999090909091  71.3404016393442 19.5821818181818  71.3404016393442 19.5821818181818  C 71.3404016393442 19.5821818181818  73.7558606557377 17.1058787878788  73.7558606557377 17.1058787878788  C 73.7558606557377 17.1058787878788  82.2981393442623 17.6815757575758  82.2981393442623 17.6815757575758  C 82.2981393442623 17.6815757575758  83.4400573770491 18.1768787878788  83.4400573770491 18.1768787878788  C 83.4400573770491 18.1768787878788  84.9471147540983 22.1168181818181  84.9471147540983 22.1168181818181  C 84.9471147540983 22.1168181818181  87.7429590163934 22.0243333333333  87.7429590163934 22.0243333333333  C 87.7429590163934 22.0243333333333  89.6603852459017 20.907303030303  89.6603852459017 20.907303030303  C 89.6603852459017 20.907303030303  91.0365819672131 21.3794848484848  91.0365819672131 21.3794848484848  C 91.0365819672131 21.3794848484848  90.3197704918033 23.3604848484849  90.3197704918033 23.3604848484849  C 90.3197704918033 23.3604848484849  92.1487704918032 26.4133333333333  92.1487704918032 26.4133333333333  C 92.1487704918032 26.4133333333333  91.9734426229509 29.9273333333334  91.9734426229509 29.9273333333334  C 91.9734426229509 29.9273333333334  88.4460491803278 30.2274848484848  88.4460491803278 30.2274848484848  C 88.4460491803278 30.2274848484848  86.9237459016394 31.2062121212121  86.9237459016394 31.2062121212121  C 86.9237459016394 31.2062121212121  87.9335327868853 32.7852424242424  87.9335327868853 32.7852424242424  C 87.9335327868853 32.7852424242424  91.9005163934426 32.6004848484849  91.9005163934426 32.6004848484849  C 91.9005163934426 32.6004848484849  92.8955655737705 36.8422727272727  92.8955655737705 36.8422727272727  C 92.8955655737705 36.8422727272727  94.8861721311476 38.0978181818182  94.8861721311476 38.0978181818182  C 94.8861721311476 38.0978181818182  97.7257213114753 37.8670303030303  97.7257213114753 37.8670303030303  C 97.7257213114753 37.8670303030303  99.7168360655738 36.6575151515152  99.7168360655738 36.6575151515152  C 99.7168360655738 36.6575151515152  105.205614754098 38.4314848484849  105.205614754098 38.4314848484849  C 105.205614754098 38.4314848484849  107.459467213115 40.0336363636363  107.459467213115 40.0336363636363  C 107.459467213115 40.0336363636363  109.098655737705 40.2406666666666  109.098655737705 40.2406666666666  C 109.098655737705 40.2406666666666  108.118090163934 42.8103030303031  108.118090163934 42.8103030303031  C 108.118090163934 42.8103030303031  108.996508196721 46.8777272727272  108.996508196721 46.8777272727272  C 108.996508196721 46.8777272727272  110.416663934426 48.9870606060606  110.416663934426 48.9870606060606  C 110.416663934426 48.9870606060606  113.329393442623 50.2778181818182  113.329393442623 50.2778181818182  C 113.329393442623 50.2778181818182  120.018278688525 54.2648484848485  120.018278688525 54.2648484848485  C 120.018278688525 54.2648484848485  123.048655737705 50.219696969697  123.048655737705 50.219696969697  C 123.048655737705 50.219696969697  123.136319672131 47.6269393939394  123.136319672131 47.6269393939394  C 123.136319672131 47.6269393939394  124.746286885246 43.8017575757576  124.746286885246 43.8017575757576  C 124.746286885246 43.8017575757576  129.108139344262 41.1969090909091  129.108139344262 41.1969090909091  C 129.108139344262 41.1969090909091  130.952639344262 41.4510303030303  130.952639344262 41.4510303030303  C 130.952639344262 41.4510303030303  132.577344262295 37.6831212121212  132.577344262295 37.6831212121212  C 132.577344262295 37.6831212121212  136.427442622951 39.4108484848485  136.427442622951 39.4108484848485  C 136.427442622951 39.4108484848485  138.66681147541 41.1508787878788  138.66681147541 41.1508787878788  C 138.66681147541 41.1508787878788  141.535581967213 41.5776666666667  141.535581967213 41.5776666666667  C 141.535581967213 41.5776666666667  148.064131147541 45.7486060606061  148.064131147541 45.7486060606061  C 148.064131147541 45.7486060606061  149.863909836066 45.9102424242424  149.863909836066 45.9102424242424  Z " stroke-width="2" stroke="#666666" fill="none" transform="matrix(1 0 0 1 308 500 )" mask="url(#clip84)" />
  </g>
</svg>