<?xml version="1.0" encoding="utf-8"?>
<svg version="1.1" xmlns:xlink="http://www.w3.org/1999/xlink" width="155px" height="126px" xmlns="http://www.w3.org/2000/svg">
  <defs>
    <mask fill="white" id="clip85">
      <path d="M 76.2887131147541 48.99909  C 76.2887131147541 48.99909  83.2947131147541 47.28927  83.2947131147541 47.28927  C 83.2947131147541 47.28927  84.4503524590164 48.34956  84.4503524590164 48.34956  C 84.4503524590164 48.34956  88.0661721311475 49.54614  88.0661721311475 49.54614  C 88.0661721311475 49.54614  97.6388196721311 57.4463399999999  97.6388196721311 57.4463399999999  C 97.6388196721311 57.4463399999999  101.840081967213 58.27878  101.840081967213 58.27878  C 101.840081967213 58.27878  103.771991803279 56.62566  103.771991803279 56.62566  C 103.771991803279 56.62566  105.323770491803 50.12805  105.323770491803 50.12805  C 105.323770491803 50.12805  106.670237704918 47.60868  106.670237704918 47.60868  C 106.670237704918 47.60868  108.938827868852 46.37724  108.938827868852 46.37724  C 108.938827868852 46.37724  112.115819672131 46.05888  112.115819672131 46.05888  C 112.115819672131 46.05888  116.125745901639 44.20101  116.125745901639 44.20101  C 116.125745901639 44.20101  119.272754098361 41.85258  119.272754098361 41.85258  C 119.272754098361 41.85258  120.19487704918 40.3477199999999  120.19487704918 40.3477199999999  C 120.19487704918 40.3477199999999  118.761 38.33067  118.761 38.33067  C 118.761 38.33067  120.356483606557 37.0545  120.356483606557 37.0545  C 120.356483606557 37.0545  119.727081967213 35.70966  119.727081967213 35.70966  C 119.727081967213 35.70966  118.219262295082 36.50745  118.219262295082 36.50745  C 118.219262295082 36.50745  114.852459016393 36.4387800000001  114.852459016393 36.4387800000001  C 114.852459016393 36.4387800000001  114.428114754098 33.92025  114.428114754098 33.92025  C 114.428114754098 33.92025  111.148975409836 34.51308  111.148975409836 34.51308  C 111.148975409836 34.51308  108.441557377049 36.76911  108.441557377049 36.76911  C 108.441557377049 36.76911  107.768450819672 39.60768  107.768450819672 39.60768  C 107.768450819672 39.60768  104.079450819672 39.8693400000001  104.079450819672 39.8693400000001  C 104.079450819672 39.8693400000001  104.006524590164 37.79538  104.006524590164 37.79538  C 104.006524590164 37.79538  102.351836065574 39.7779899999999  102.351836065574 39.7779899999999  C 102.351836065574 39.7779899999999  99.9666147540984 38.88948  99.9666147540984 38.88948  C 99.9666147540984 38.88948  99.1174180327869 37.47618  99.1174180327869 37.47618  C 99.1174180327869 37.47618  101.693213114754 36.17712  101.693213114754 36.17712  C 101.693213114754 36.17712  100.668942622951 34.49019  100.668942622951 34.49019  C 100.668942622951 34.49019  99.1903442622951 34.51308  99.1903442622951 34.51308  C 99.1903442622951 34.51308  101.312827868853 29.8172699999999  101.312827868853 29.8172699999999  C 101.312827868853 29.8172699999999  102.147540983607 25.45284  102.147540983607 25.45284  C 102.147540983607 25.45284  100.771090163934 22.67265  100.771090163934 22.67265  C 100.771090163934 22.67265  97.5656393442623 20.65539  97.5656393442623 20.65539  C 97.5656393442623 20.65539  96.4974098360656 20.74695  96.4974098360656 20.74695  C 96.4974098360656 20.74695  96.0285983606557 23.54982  96.0285983606557 23.54982  C 96.0285983606557 23.54982  94.1843524590164 23.82345  94.1843524590164 23.82345  C 94.1843524590164 23.82345  89.5739918032788 20.42754  89.5739918032788 20.42754  C 89.5739918032788 20.42754  89.8814508196722 17.34012  89.8814508196722 17.34012  C 89.8814508196722 17.34012  93.145344262295 14.0238  93.145344262295 14.0238  C 93.145344262295 14.0238  93.5109918032787 11.99562  93.5109918032787 11.99562  C 93.5109918032787 11.99562  92.9547704918033 9.12491999999995  92.9547704918033 9.12491999999995  C 92.9547704918033 9.12491999999995  94.5062950819672 7.78091999999998  94.5062950819672 7.78091999999998  C 94.5062950819672 7.78091999999998  96.6435163934427 10.15035  96.6435163934427 10.15035  C 96.6435163934427 10.15035  99.4830655737706 10.5035700000001  99.4830655737706 10.5035700000001  C 99.4830655737706 10.5035700000001  101.122254098361 9.34163999999998  101.122254098361 9.34163999999998  C 101.122254098361 9.34163999999998  101.751655737705 5.10320999999996  101.751655737705 5.10320999999996  C 101.751655737705 5.10320999999996  104.137893442623 5.17188000000003  104.137893442623 5.17188000000003  C 104.137893442623 5.17188000000003  108.338647540984 2.85914999999995  108.338647540984 2.85914999999995  C 108.338647540984 2.85914999999995  110.358983606557 3.16659000000001  110.358983606557 3.16659000000001  C 110.358983606557 3.16659000000001  111.148975409836 1.41183000000001  111.148975409836 1.41183000000001  C 111.148975409836 1.41183000000001  112.978737704918 1.40091000000001  112.978737704918 1.40091000000001  C 112.978737704918 1.40091000000001  114.925385245902 4.35120000000001  114.925385245902 4.35120000000001  C 114.925385245902 4.35120000000001  112.305631147541 7.19922000000001  112.305631147541 7.19922000000001  C 112.305631147541 7.19922000000001  112.598352459016 8.41868999999996  112.598352459016 8.41868999999996  C 112.598352459016 8.41868999999996  114.677131147541 7.82586000000004  114.677131147541 7.82586000000004  C 114.677131147541 7.82586000000004  116.18418852459 5.34197999999995  116.18418852459 5.34197999999995  C 116.18418852459 5.34197999999995  117.545901639344 5.76365999999998  117.545901639344 5.76365999999998  C 117.545901639344 5.76365999999998  118.131598360656 8.35002000000001  118.131598360656 8.35002000000001  C 118.131598360656 8.35002000000001  115.628475409836 11.22156  115.628475409836 11.22156  C 115.628475409836 11.22156  116.609040983607 12.61134  116.609040983607 12.61134  C 116.609040983607 12.61134  121.600549180328 10.67451  121.600549180328 10.67451  C 121.600549180328 10.67451  123.796213114754 11.928  123.796213114754 11.928  C 123.796213114754 11.928  125.025795081967 14.69622  125.025795081967 14.69622  C 125.025795081967 14.69622  128.538704918033 17.1002999999999  128.538704918033 17.1002999999999  C 128.538704918033 17.1002999999999  131.187680327869 18.05727  131.187680327869 18.05727  C 131.187680327869 18.05727  137.657532786885 19.17426  137.657532786885 19.17426  C 137.657532786885 19.17426  140.482598360656 20.83746  140.482598360656 20.83746  C 140.482598360656 20.83746  142.56137704918 24.3137999999999  142.56137704918 24.3137999999999  C 142.56137704918 24.3137999999999  142.531393442623 26.18196  142.531393442623 26.18196  C 142.531393442623 26.18196  141.082778688525 27.89157  141.082778688525 27.89157  C 141.082778688525 27.89157  136.355024590164 31.38996  136.355024590164 31.38996  C 136.355024590164 31.38996  136.515614754098 34.30728  136.515614754098 34.30728  C 136.515614754098 34.30728  139.780270491803 36.15423  139.780270491803 36.15423  C 139.780270491803 36.15423  147.655032786885 36.2338200000001  147.655032786885 36.2338200000001  C 147.655032786885 36.2338200000001  151.402221311475 38.63895  151.402221311475 38.63895  C 151.402221311475 38.63895  152.763426229508 42.4225199999999  152.763426229508 42.4225199999999  C 152.763426229508 42.4225199999999  153.422049180328 50.28723  153.422049180328 50.28723  C 153.422049180328 50.28723  153.261204918033 54.50529  153.261204918033 54.50529  C 153.261204918033 54.50529  151.416959016393 54.61869  151.416959016393 54.61869  C 151.416959016393 54.61869  149.66012295082 51.02811  149.66012295082 51.02811  C 149.66012295082 51.02811  145.985860655738 51.35928  145.985860655738 51.35928  C 145.985860655738 51.35928  143.746491803279 49.97979  143.746491803279 49.97979  C 143.746491803279 49.97979  142.576114754098 52.1451  142.576114754098 52.1451  C 142.576114754098 52.1451  142.809631147541 55.61115  142.809631147541 55.61115  C 142.809631147541 55.61115  144.610172131147 56.65968  144.610172131147 56.65968  C 144.610172131147 56.65968  143.380590163935 58.00431  143.380590163935 58.00431  C 143.380590163935 58.00431  139.838713114754 58.4150700000001  139.838713114754 58.4150700000001  C 139.838713114754 58.4150700000001  139.004 60.94641  139.004 60.94641  C 139.004 60.94641  137.188975409836 60.6610199999999  137.188975409836 60.6610199999999  C 137.188975409836 60.6610199999999  137.877327868852 65.45133  137.877327868852 65.45133  C 137.877327868852 65.45133  134.59818852459 68.34765  134.59818852459 68.34765  C 134.59818852459 68.34765  133.16431147541 67.7428500000001  133.16431147541 67.7428500000001  C 133.16431147541 67.7428500000001  128.304172131148 69.4077300000001  128.304172131148 69.4077300000001  C 128.304172131148 69.4077300000001  126.166950819672 67.3329300000001  126.166950819672 67.3329300000001  C 126.166950819672 67.3329300000001  124.556983606557 68.9402700000001  124.556983606557 68.9402700000001  C 124.556983606557 68.9402700000001  125.113459016393 73.38702  125.113459016393 73.38702  C 125.113459016393 73.38702  123.063901639344 74.9834399999999  123.063901639344 74.9834399999999  C 123.063901639344 74.9834399999999  117.223959016393 75.2797500000001  117.223959016393 75.2797500000001  C 117.223959016393 75.2797500000001  114.677131147541 76.1808599999999  114.677131147541 76.1808599999999  C 114.677131147541 76.1808599999999  113.755008196721 77.77707  113.755008196721 77.77707  C 113.755008196721 77.77707  114.076950819672 82.23495  114.076950819672 82.23495  C 114.076950819672 82.23495  109.114663934426 82.59993  109.114663934426 82.59993  C 109.114663934426 82.59993  109.187844262295 80.87814  109.187844262295 80.87814  C 109.187844262295 80.87814  105.587270491803 80.91216  105.587270491803 80.91216  C 105.587270491803 80.91216  103.244991803279 82.57704  103.244991803279 82.57704  C 103.244991803279 82.57704  101.459696721312 82.3491900000001  101.459696721312 82.3491900000001  C 101.459696721312 82.3491900000001  102.600852459016 79.79517  102.600852459016 79.79517  C 102.600852459016 79.79517  101.049327868853 78.27834  101.049327868853 78.27834  C 101.049327868853 78.27834  100.347 80.10261  100.347 80.10261  C 100.347 80.10261  100.756606557377 86.46561  100.756606557377 86.46561  C 100.756606557377 86.46561  99.5270245901639 86.83059  99.5270245901639 86.83059  C 99.5270245901639 86.83059  101.166975409836 89.12295  101.166975409836 89.12295  C 101.166975409836 89.12295  101.049327868853 95.76063  101.049327868853 95.76063  C 101.049327868853 95.76063  117.442991803279 96.05694  117.442991803279 96.05694  C 117.442991803279 96.05694  116.125745901639 97.72182  116.125745901639 97.72182  C 116.125745901639 97.72182  117.941024590164 98.66871  117.941024590164 98.66871  C 117.941024590164 98.66871  117.677270491803 100.47072  117.677270491803 100.47072  C 117.677270491803 100.47072  116.228655737705 101.86197  116.228655737705 101.86197  C 116.228655737705 101.86197  116.565336065574 103.73265  116.565336065574 103.73265  C 116.565336065574 103.73265  118.10237704918 104.61087  118.10237704918 104.61087  C 118.10237704918 104.61087  114.208319672131 111.06711  114.208319672131 111.06711  C 114.208319672131 111.06711  118.761 113.56527  118.761 113.56527  C 118.761 113.56527  114.837721311475 119.17815  114.837721311475 119.17815  C 114.837721311475 119.17815  111.749155737705 116.85114  111.749155737705 116.85114  C 111.749155737705 116.85114  109.94937704918 116.69112  109.94937704918 116.69112  C 109.94937704918 116.69112  103.420827868852 112.56189  103.420827868852 112.56189  C 103.420827868852 112.56189  100.552057377049 112.13937  100.552057377049 112.13937  C 100.552057377049 112.13937  98.3126885245902 110.41674  98.3126885245902 110.41674  C 98.3126885245902 110.41674  94.4625901639344 108.70629  94.4625901639344 108.70629  C 94.4625901639344 108.70629  92.8378852459017 112.43652  92.8378852459017 112.43652  C 92.8378852459017 112.43652  90.9933852459016 112.18494  90.9933852459016 112.18494  C 90.9933852459016 112.18494  86.6315327868853 114.76374  86.6315327868853 114.76374  C 86.6315327868853 114.76374  85.0215655737705 118.55067  85.0215655737705 118.55067  C 85.0215655737705 118.55067  84.9339016393442 121.1175  84.9339016393442 121.1175  C 84.9339016393442 121.1175  79.3625409836066 125.1222  79.3625409836066 125.1222  C 79.3625409836066 125.1222  72.6736557377049 121.17504  72.6736557377049 121.17504  C 72.6736557377049 121.17504  69.7609262295082 119.89719  69.7609262295082 119.89719  C 69.7609262295082 119.89719  68.3407704918033 117.80895  68.3407704918033 117.80895  C 68.3407704918033 117.80895  67.4623524590163 113.7822  67.4623524590163 113.7822  C 67.4623524590163 113.7822  68.4429180327869 111.23826  68.4429180327869 111.23826  C 68.4429180327869 111.23826  66.8037295081968 111.0333  66.8037295081968 111.0333  C 66.8037295081968 111.0333  64.5498770491804 109.44717  64.5498770491804 109.44717  C 64.5498770491804 109.44717  59.0610983606558 107.69094  59.0610983606558 107.69094  C 59.0610983606558 107.69094  57.0699836065573 108.88836  57.0699836065573 108.88836  C 57.0699836065573 108.88836  54.2304344262296 109.11684  54.2304344262296 109.11684  C 54.2304344262296 109.11684  52.2398278688524 107.87385  52.2398278688524 107.87385  C 52.2398278688524 107.87385  51.2447786885246 105.77448  51.2447786885246 105.77448  C 51.2447786885246 105.77448  47.2777950819673 105.95739  47.2777950819673 105.95739  C 47.2777950819673 105.95739  46.2680081967214 104.39415  46.2680081967214 104.39415  C 46.2680081967214 104.39415  47.7903114754098 103.42521  47.7903114754098 103.42521  C 47.7903114754098 103.42521  51.3177049180329 103.12806  51.3177049180329 103.12806  C 51.3177049180329 103.12806  51.4930327868852 99.6492  51.4930327868852 99.6492  C 51.4930327868852 99.6492  49.6640327868853 96.6268800000001  49.6640327868853 96.6268800000001  C 49.6640327868853 96.6268800000001  50.380844262295 94.66569  50.380844262295 94.66569  C 50.380844262295 94.66569  49.0046475409837 94.19823  49.0046475409837 94.19823  C 49.0046475409837 94.19823  47.0872213114754 95.30409  47.0872213114754 95.30409  C 47.0872213114754 95.30409  44.2913770491803 95.3956499999999  44.2913770491803 95.3956499999999  C 44.2913770491803 95.3956499999999  42.7843196721311 91.49511  42.7843196721311 91.49511  C 42.7843196721311 91.49511  41.6424016393443 91.00476  41.6424016393443 91.00476  C 41.6424016393443 91.00476  35.6411065573771 90.4348200000001  35.6411065573771 90.4348200000001  C 35.6411065573771 90.4348200000001  33.2256475409836 92.88636  33.2256475409836 92.88636  C 33.2256475409836 92.88636  35.4942377049181 93.69591  35.4942377049181 93.69591  C 35.4942377049181 93.69591  35.0701475409836 96.01116  35.0701475409836 96.01116  C 35.0701475409836 96.01116  36.5047868852459 97.03764  36.5047868852459 97.03764  C 36.5047868852459 97.03764  33.9871803278689 99.25041  33.9871803278689 99.25041  C 33.9871803278689 99.25041  28.6000409836065 99.9465599999999  28.6000409836065 99.9465599999999  C 28.6000409836065 99.9465599999999  27.0637622950819 97.80225  27.0637622950819 97.80225  C 27.0637622950819 97.80225  23.0238524590163 94.76817  23.0238524590163 94.76817  C 23.0238524590163 94.76817  23.3020901639344 89.6473200000001  23.3020901639344 89.6473200000001  C 23.3020901639344 89.6473200000001  21.2670163934426 89.26029  21.2670163934426 89.26029  C 21.2670163934426 89.26029  21.5452540983607 86.6943  21.5452540983607 86.6943  C 21.5452540983607 86.6943  20.9303360655738 84.57288  20.9303360655738 84.57288  C 20.9303360655738 84.57288  16.4660819672132 83.832  16.4660819672132 83.832  C 16.4660819672132 83.832  14.1238032786885 84.2877  14.1238032786885 84.2877  C 14.1238032786885 84.2877  13.2309016393442 80.29644  13.2309016393442 80.29644  C 13.2309016393442 80.29644  10.5816721311475 79.56732  10.5816721311475 79.56732  C 10.5816721311475 79.56732  8.517631147541 80.1939599999999  8.517631147541 80.1939599999999  C 8.517631147541 80.1939599999999  7.87349180327863 79.23615  7.87349180327863 79.23615  C 7.87349180327863 79.23615  8.72268852459013 76.16889  8.72268852459013 76.16889  C 8.72268852459013 76.16889  11.5332704918033 75.06303  11.5332704918033 75.06303  C 11.5332704918033 75.06303  13.6120491803279 75.30264  13.6120491803279 75.30264  C 13.6120491803279 75.30264  13.6557540983606 73.50063  13.6557540983606 73.50063  C 13.6557540983606 73.50063  15.1927950819673 71.58585  15.1927950819673 71.58585  C 15.1927950819673 71.58585  17.2852950819672 72.96534  17.2852950819672 72.96534  C 17.2852950819672 72.96534  17.4758688524589 74.61846  17.4758688524589 74.61846  C 17.4758688524589 74.61846  21.3107213114754 77.41209  21.3107213114754 77.41209  C 21.3107213114754 77.41209  23.6532540983606 77.6061300000001  23.6532540983606 77.6061300000001  C 23.6532540983606 77.6061300000001  28.2341393442622 76.3518  28.2341393442622 76.3518  C 28.2341393442622 76.3518  23.0091147540984 70.73052  23.0091147540984 70.73052  C 23.0091147540984 70.73052  25.5706803278689 69.82941  25.5706803278689 69.82941  C 25.5706803278689 69.82941  25.7165327868852 68.39322  25.7165327868852 68.39322  C 25.7165327868852 68.39322  28.4686721311475 68.56437  28.4686721311475 68.56437  C 28.4686721311475 68.56437  30.2984344262295 66.92238  30.2984344262295 66.92238  C 30.2984344262295 66.92238  31.8499590163934 67.86822  31.8499590163934 67.86822  C 31.8499590163934 67.86822  35.5242213114754 71.91618  35.5242213114754 71.91618  C 35.5242213114754 71.91618  37.5877540983606 71.85948  37.5877540983606 71.85948  C 37.5877540983606 71.85948  39.6373114754098 72.93069  39.6373114754098 72.93069  C 39.6373114754098 72.93069  40.3396393442623 71.5512  40.3396393442623 71.5512  C 40.3396393442623 71.5512  39.1829836065573 70.42224  39.1829836065573 70.42224  C 39.1829836065573 70.42224  43.3989836065575 64.6308599999999  43.3989836065575 64.6308599999999  C 43.3989836065575 64.6308599999999  42.695893442623 61.6872900000001  42.695893442623 61.6872900000001  C 42.695893442623 61.6872900000001  44.4527295081967 60.05706  44.4527295081967 60.05706  C 44.4527295081967 60.05706  44.5403934426229 58.25589  44.5403934426229 58.25589  C 44.5403934426229 58.25589  41.1588524590163 54.44775  41.1588524590163 54.44775  C 41.1588524590163 54.44775  40.8369098360656 48.83991  40.8369098360656 48.83991  C 40.8369098360656 48.83991  41.6276639344262 45.73968  41.6276639344262 45.73968  C 41.6276639344262 45.73968  42.9449098360655 43.64199  42.9449098360655 43.64199  C 42.9449098360655 43.64199  46.4430819672131 42.27447  46.4430819672131 42.27447  C 46.4430819672131 42.27447  50.0589016393443 41.85258  50.0589016393443 41.85258  C 50.0589016393443 41.85258  52.4151557377049 42.22869  52.4151557377049 42.22869  C 52.4151557377049 42.22869  56.3968770491804 46.18425  56.3968770491804 46.18425  C 56.3968770491804 46.18425  55.1670409836065 48.63495  55.1670409836065 48.63495  C 55.1670409836065 48.63495  53.4549262295082 49.26159  53.4549262295082 49.26159  C 53.4549262295082 49.26159  53.2788360655738 50.75469  53.2788360655738 50.75469  C 53.2788360655738 50.75469  56.2060491803279 52.06551  56.2060491803279 52.06551  C 56.2060491803279 52.06551  58.6362459016393 50.49303  58.6362459016393 50.49303  C 58.6362459016393 50.49303  59.821868852459 51.40422  59.821868852459 51.40422  C 59.821868852459 51.40422  59.3830409836065 56.69349  59.3830409836065 56.69349  C 59.3830409836065 56.69349  60.7587295081967 57.3321  60.7587295081967 57.3321  C 60.7587295081967 57.3321  62.8814672131147 56.6139  62.8814672131147 56.6139  C 62.8814672131147 56.6139  64.8425983606558 59.0874900000001  64.8425983606558 59.0874900000001  C 64.8425983606558 59.0874900000001  63.0273196721312 59.62362  63.0273196721312 59.62362  C 63.0273196721312 59.62362  65.4427786885246 65.40555  65.4427786885246 65.40555  C 65.4427786885246 65.40555  72.0442540983606 68.6668500000001  72.0442540983606 68.6668500000001  C 72.0442540983606 68.6668500000001  73.6105163934426 64.4368199999999  73.6105163934426 64.4368199999999  C 73.6105163934426 64.4368199999999  71.2535 58.8140700000001  71.2535 58.8140700000001  C 71.2535 58.8140700000001  68.6482295081967 56.37429  68.6482295081967 56.37429  C 68.6482295081967 56.37429  67.58 53.59326  67.58 53.59326  C 67.58 53.59326  71.663868852459 52.8633  71.663868852459 52.8633  C 71.663868852459 52.8633  76.2887131147541 48.99909  76.2887131147541 48.99909  Z M 18.0557213114754 23.8801500000001  C 18.0557213114754 23.8801500000001  16.2844016393443 28.84077  16.2844016393443 28.84077  C 16.2844016393443 28.84077  15.1869508196722 28.69251  15.1869508196722 28.69251  C 15.1869508196722 28.69251  13.3279672131148 32.30514  13.3279672131148 32.30514  C 13.3279672131148 32.30514  7.14194262295081 32.7946499999999  7.14194262295081 32.7946499999999  C 7.14194262295081 32.7946499999999  6.7468196721311 35.50722  6.7468196721311 35.50722  C 6.7468196721311 35.50722  4.03863934426233 35.22267  4.03863934426233 35.22267  C 4.03863934426233 35.22267  4.00941803278688 31.89459  4.00941803278688 31.89459  C 4.00941803278688 31.89459  1.06772131147547 29.91198  1.06772131147547 29.91198  C 1.06772131147547 29.91198  2.57554098360655 25.54419  2.57554098360655 25.54419  C 2.57554098360655 25.54419  4.27317213114748 28.8518999999999  4.27317213114748 28.8518999999999  C 4.27317213114748 28.8518999999999  6.80526229508198 28.62405  6.80526229508198 28.62405  C 6.80526229508198 28.62405  3.83434426229512 24.09708  3.83434426229512 24.09708  C 3.83434426229512 24.09708  11.6732786885246 19.62996  11.6732786885246 19.62996  C 11.6732786885246 19.62996  15.1277459016394 20.91789  15.1277459016394 20.91789  C 15.1277459016394 20.91789  18.1141639344263 22.07982  18.1141639344263 22.07982  C 18.1141639344263 22.07982  18.0557213114754 23.8801500000001  18.0557213114754 23.8801500000001  Z " fill-rule="evenodd" />
    </mask>
  </defs>
  <g transform="matrix(1 0 0 1 -423 -410 )">
    <path d="M 76.2887131147541 48.99909  C 76.2887131147541 48.99909  83.2947131147541 47.28927  83.2947131147541 47.28927  C 83.2947131147541 47.28927  84.4503524590164 48.34956  84.4503524590164 48.34956  C 84.4503524590164 48.34956  88.0661721311475 49.54614  88.0661721311475 49.54614  C 88.0661721311475 49.54614  97.6388196721311 57.4463399999999  97.6388196721311 57.4463399999999  C 97.6388196721311 57.4463399999999  101.840081967213 58.27878  101.840081967213 58.27878  C 101.840081967213 58.27878  103.771991803279 56.62566  103.771991803279 56.62566  C 103.771991803279 56.62566  105.323770491803 50.12805  105.323770491803 50.12805  C 105.323770491803 50.12805  106.670237704918 47.60868  106.670237704918 47.60868  C 106.670237704918 47.60868  108.938827868852 46.37724  108.938827868852 46.37724  C 108.938827868852 46.37724  112.115819672131 46.05888  112.115819672131 46.05888  C 112.115819672131 46.05888  116.125745901639 44.20101  116.125745901639 44.20101  C 116.125745901639 44.20101  119.272754098361 41.85258  119.272754098361 41.85258  C 119.272754098361 41.85258  120.19487704918 40.3477199999999  120.19487704918 40.3477199999999  C 120.19487704918 40.3477199999999  118.761 38.33067  118.761 38.33067  C 118.761 38.33067  120.356483606557 37.0545  120.356483606557 37.0545  C 120.356483606557 37.0545  119.727081967213 35.70966  119.727081967213 35.70966  C 119.727081967213 35.70966  118.219262295082 36.50745  118.219262295082 36.50745  C 118.219262295082 36.50745  114.852459016393 36.4387800000001  114.852459016393 36.4387800000001  C 114.852459016393 36.4387800000001  114.428114754098 33.92025  114.428114754098 33.92025  C 114.428114754098 33.92025  111.148975409836 34.51308  111.148975409836 34.51308  C 111.148975409836 34.51308  108.441557377049 36.76911  108.441557377049 36.76911  C 108.441557377049 36.76911  107.768450819672 39.60768  107.768450819672 39.60768  C 107.768450819672 39.60768  104.079450819672 39.8693400000001  104.079450819672 39.8693400000001  C 104.079450819672 39.8693400000001  104.006524590164 37.79538  104.006524590164 37.79538  C 104.006524590164 37.79538  102.351836065574 39.7779899999999  102.351836065574 39.7779899999999  C 102.351836065574 39.7779899999999  99.9666147540984 38.88948  99.9666147540984 38.88948  C 99.9666147540984 38.88948  99.1174180327869 37.47618  99.1174180327869 37.47618  C 99.1174180327869 37.47618  101.693213114754 36.17712  101.693213114754 36.17712  C 101.693213114754 36.17712  100.668942622951 34.49019  100.668942622951 34.49019  C 100.668942622951 34.49019  99.1903442622951 34.51308  99.1903442622951 34.51308  C 99.1903442622951 34.51308  101.312827868853 29.8172699999999  101.312827868853 29.8172699999999  C 101.312827868853 29.8172699999999  102.147540983607 25.45284  102.147540983607 25.45284  C 102.147540983607 25.45284  100.771090163934 22.67265  100.771090163934 22.67265  C 100.771090163934 22.67265  97.5656393442623 20.65539  97.5656393442623 20.65539  C 97.5656393442623 20.65539  96.4974098360656 20.74695  96.4974098360656 20.74695  C 96.4974098360656 20.74695  96.0285983606557 23.54982  96.0285983606557 23.54982  C 96.0285983606557 23.54982  94.1843524590164 23.82345  94.1843524590164 23.82345  C 94.1843524590164 23.82345  89.5739918032788 20.42754  89.5739918032788 20.42754  C 89.5739918032788 20.42754  89.8814508196722 17.34012  89.8814508196722 17.34012  C 89.8814508196722 17.34012  93.145344262295 14.0238  93.145344262295 14.0238  C 93.145344262295 14.0238  93.5109918032787 11.99562  93.5109918032787 11.99562  C 93.5109918032787 11.99562  92.9547704918033 9.12491999999995  92.9547704918033 9.12491999999995  C 92.9547704918033 9.12491999999995  94.5062950819672 7.78091999999998  94.5062950819672 7.78091999999998  C 94.5062950819672 7.78091999999998  96.6435163934427 10.15035  96.6435163934427 10.15035  C 96.6435163934427 10.15035  99.4830655737706 10.5035700000001  99.4830655737706 10.5035700000001  C 99.4830655737706 10.5035700000001  101.122254098361 9.34163999999998  101.122254098361 9.34163999999998  C 101.122254098361 9.34163999999998  101.751655737705 5.10320999999996  101.751655737705 5.10320999999996  C 101.751655737705 5.10320999999996  104.137893442623 5.17188000000003  104.137893442623 5.17188000000003  C 104.137893442623 5.17188000000003  108.338647540984 2.85914999999995  108.338647540984 2.85914999999995  C 108.338647540984 2.85914999999995  110.358983606557 3.16659000000001  110.358983606557 3.16659000000001  C 110.358983606557 3.16659000000001  111.148975409836 1.41183000000001  111.148975409836 1.41183000000001  C 111.148975409836 1.41183000000001  112.978737704918 1.40091000000001  112.978737704918 1.40091000000001  C 112.978737704918 1.40091000000001  114.925385245902 4.35120000000001  114.925385245902 4.35120000000001  C 114.925385245902 4.35120000000001  112.305631147541 7.19922000000001  112.305631147541 7.19922000000001  C 112.305631147541 7.19922000000001  112.598352459016 8.41868999999996  112.598352459016 8.41868999999996  C 112.598352459016 8.41868999999996  114.677131147541 7.82586000000004  114.677131147541 7.82586000000004  C 114.677131147541 7.82586000000004  116.18418852459 5.34197999999995  116.18418852459 5.34197999999995  C 116.18418852459 5.34197999999995  117.545901639344 5.76365999999998  117.545901639344 5.76365999999998  C 117.545901639344 5.76365999999998  118.131598360656 8.35002000000001  118.131598360656 8.35002000000001  C 118.131598360656 8.35002000000001  115.628475409836 11.22156  115.628475409836 11.22156  C 115.628475409836 11.22156  116.609040983607 12.61134  116.609040983607 12.61134  C 116.609040983607 12.61134  121.600549180328 10.67451  121.600549180328 10.67451  C 121.600549180328 10.67451  123.796213114754 11.928  123.796213114754 11.928  C 123.796213114754 11.928  125.025795081967 14.69622  125.025795081967 14.69622  C 125.025795081967 14.69622  128.538704918033 17.1002999999999  128.538704918033 17.1002999999999  C 128.538704918033 17.1002999999999  131.187680327869 18.05727  131.187680327869 18.05727  C 131.187680327869 18.05727  137.657532786885 19.17426  137.657532786885 19.17426  C 137.657532786885 19.17426  140.482598360656 20.83746  140.482598360656 20.83746  C 140.482598360656 20.83746  142.56137704918 24.3137999999999  142.56137704918 24.3137999999999  C 142.56137704918 24.3137999999999  142.531393442623 26.18196  142.531393442623 26.18196  C 142.531393442623 26.18196  141.082778688525 27.89157  141.082778688525 27.89157  C 141.082778688525 27.89157  136.355024590164 31.38996  136.355024590164 31.38996  C 136.355024590164 31.38996  136.515614754098 34.30728  136.515614754098 34.30728  C 136.515614754098 34.30728  139.780270491803 36.15423  139.780270491803 36.15423  C 139.780270491803 36.15423  147.655032786885 36.2338200000001  147.655032786885 36.2338200000001  C 147.655032786885 36.2338200000001  151.402221311475 38.63895  151.402221311475 38.63895  C 151.402221311475 38.63895  152.763426229508 42.4225199999999  152.763426229508 42.4225199999999  C 152.763426229508 42.4225199999999  153.422049180328 50.28723  153.422049180328 50.28723  C 153.422049180328 50.28723  153.261204918033 54.50529  153.261204918033 54.50529  C 153.261204918033 54.50529  151.416959016393 54.61869  151.416959016393 54.61869  C 151.416959016393 54.61869  149.66012295082 51.02811  149.66012295082 51.02811  C 149.66012295082 51.02811  145.985860655738 51.35928  145.985860655738 51.35928  C 145.985860655738 51.35928  143.746491803279 49.97979  143.746491803279 49.97979  C 143.746491803279 49.97979  142.576114754098 52.1451  142.576114754098 52.1451  C 142.576114754098 52.1451  142.809631147541 55.61115  142.809631147541 55.61115  C 142.809631147541 55.61115  144.610172131147 56.65968  144.610172131147 56.65968  C 144.610172131147 56.65968  143.380590163935 58.00431  143.380590163935 58.00431  C 143.380590163935 58.00431  139.838713114754 58.4150700000001  139.838713114754 58.4150700000001  C 139.838713114754 58.4150700000001  139.004 60.94641  139.004 60.94641  C 139.004 60.94641  137.188975409836 60.6610199999999  137.188975409836 60.6610199999999  C 137.188975409836 60.6610199999999  137.877327868852 65.45133  137.877327868852 65.45133  C 137.877327868852 65.45133  134.59818852459 68.34765  134.59818852459 68.34765  C 134.59818852459 68.34765  133.16431147541 67.7428500000001  133.16431147541 67.7428500000001  C 133.16431147541 67.7428500000001  128.304172131148 69.4077300000001  128.304172131148 69.4077300000001  C 128.304172131148 69.4077300000001  126.166950819672 67.3329300000001  126.166950819672 67.3329300000001  C 126.166950819672 67.3329300000001  124.556983606557 68.9402700000001  124.556983606557 68.9402700000001  C 124.556983606557 68.9402700000001  125.113459016393 73.38702  125.113459016393 73.38702  C 125.113459016393 73.38702  123.063901639344 74.9834399999999  123.063901639344 74.9834399999999  C 123.063901639344 74.9834399999999  117.223959016393 75.2797500000001  117.223959016393 75.2797500000001  C 117.223959016393 75.2797500000001  114.677131147541 76.1808599999999  114.677131147541 76.1808599999999  C 114.677131147541 76.1808599999999  113.755008196721 77.77707  113.755008196721 77.77707  C 113.755008196721 77.77707  114.076950819672 82.23495  114.076950819672 82.23495  C 114.076950819672 82.23495  109.114663934426 82.59993  109.114663934426 82.59993  C 109.114663934426 82.59993  109.187844262295 80.87814  109.187844262295 80.87814  C 109.187844262295 80.87814  105.587270491803 80.91216  105.587270491803 80.91216  C 105.587270491803 80.91216  103.244991803279 82.57704  103.244991803279 82.57704  C 103.244991803279 82.57704  101.459696721312 82.3491900000001  101.459696721312 82.3491900000001  C 101.459696721312 82.3491900000001  102.600852459016 79.79517  102.600852459016 79.79517  C 102.600852459016 79.79517  101.049327868853 78.27834  101.049327868853 78.27834  C 101.049327868853 78.27834  100.347 80.10261  100.347 80.10261  C 100.347 80.10261  100.756606557377 86.46561  100.756606557377 86.46561  C 100.756606557377 86.46561  99.5270245901639 86.83059  99.5270245901639 86.83059  C 99.5270245901639 86.83059  101.166975409836 89.12295  101.166975409836 89.12295  C 101.166975409836 89.12295  101.049327868853 95.76063  101.049327868853 95.76063  C 101.049327868853 95.76063  117.442991803279 96.05694  117.442991803279 96.05694  C 117.442991803279 96.05694  116.125745901639 97.72182  116.125745901639 97.72182  C 116.125745901639 97.72182  117.941024590164 98.66871  117.941024590164 98.66871  C 117.941024590164 98.66871  117.677270491803 100.47072  117.677270491803 100.47072  C 117.677270491803 100.47072  116.228655737705 101.86197  116.228655737705 101.86197  C 116.228655737705 101.86197  116.565336065574 103.73265  116.565336065574 103.73265  C 116.565336065574 103.73265  118.10237704918 104.61087  118.10237704918 104.61087  C 118.10237704918 104.61087  114.208319672131 111.06711  114.208319672131 111.06711  C 114.208319672131 111.06711  118.761 113.56527  118.761 113.56527  C 118.761 113.56527  114.837721311475 119.17815  114.837721311475 119.17815  C 114.837721311475 119.17815  111.749155737705 116.85114  111.749155737705 116.85114  C 111.749155737705 116.85114  109.94937704918 116.69112  109.94937704918 116.69112  C 109.94937704918 116.69112  103.420827868852 112.56189  103.420827868852 112.56189  C 103.420827868852 112.56189  100.552057377049 112.13937  100.552057377049 112.13937  C 100.552057377049 112.13937  98.3126885245902 110.41674  98.3126885245902 110.41674  C 98.3126885245902 110.41674  94.4625901639344 108.70629  94.4625901639344 108.70629  C 94.4625901639344 108.70629  92.8378852459017 112.43652  92.8378852459017 112.43652  C 92.8378852459017 112.43652  90.9933852459016 112.18494  90.9933852459016 112.18494  C 90.9933852459016 112.18494  86.6315327868853 114.76374  86.6315327868853 114.76374  C 86.6315327868853 114.76374  85.0215655737705 118.55067  85.0215655737705 118.55067  C 85.0215655737705 118.55067  84.9339016393442 121.1175  84.9339016393442 121.1175  C 84.9339016393442 121.1175  79.3625409836066 125.1222  79.3625409836066 125.1222  C 79.3625409836066 125.1222  72.6736557377049 121.17504  72.6736557377049 121.17504  C 72.6736557377049 121.17504  69.7609262295082 119.89719  69.7609262295082 119.89719  C 69.7609262295082 119.89719  68.3407704918033 117.80895  68.3407704918033 117.80895  C 68.3407704918033 117.80895  67.4623524590163 113.7822  67.4623524590163 113.7822  C 67.4623524590163 113.7822  68.4429180327869 111.23826  68.4429180327869 111.23826  C 68.4429180327869 111.23826  66.8037295081968 111.0333  66.8037295081968 111.0333  C 66.8037295081968 111.0333  64.5498770491804 109.44717  64.5498770491804 109.44717  C 64.5498770491804 109.44717  59.0610983606558 107.69094  59.0610983606558 107.69094  C 59.0610983606558 107.69094  57.0699836065573 108.88836  57.0699836065573 108.88836  C 57.0699836065573 108.88836  54.2304344262296 109.11684  54.2304344262296 109.11684  C 54.2304344262296 109.11684  52.2398278688524 107.87385  52.2398278688524 107.87385  C 52.2398278688524 107.87385  51.2447786885246 105.77448  51.2447786885246 105.77448  C 51.2447786885246 105.77448  47.2777950819673 105.95739  47.2777950819673 105.95739  C 47.2777950819673 105.95739  46.2680081967214 104.39415  46.2680081967214 104.39415  C 46.2680081967214 104.39415  47.7903114754098 103.42521  47.7903114754098 103.42521  C 47.7903114754098 103.42521  51.3177049180329 103.12806  51.3177049180329 103.12806  C 51.3177049180329 103.12806  51.4930327868852 99.6492  51.4930327868852 99.6492  C 51.4930327868852 99.6492  49.6640327868853 96.6268800000001  49.6640327868853 96.6268800000001  C 49.6640327868853 96.6268800000001  50.380844262295 94.66569  50.380844262295 94.66569  C 50.380844262295 94.66569  49.0046475409837 94.19823  49.0046475409837 94.19823  C 49.0046475409837 94.19823  47.0872213114754 95.30409  47.0872213114754 95.30409  C 47.0872213114754 95.30409  44.2913770491803 95.3956499999999  44.2913770491803 95.3956499999999  C 44.2913770491803 95.3956499999999  42.7843196721311 91.49511  42.7843196721311 91.49511  C 42.7843196721311 91.49511  41.6424016393443 91.00476  41.6424016393443 91.00476  C 41.6424016393443 91.00476  35.6411065573771 90.4348200000001  35.6411065573771 90.4348200000001  C 35.6411065573771 90.4348200000001  33.2256475409836 92.88636  33.2256475409836 92.88636  C 33.2256475409836 92.88636  35.4942377049181 93.69591  35.4942377049181 93.69591  C 35.4942377049181 93.69591  35.0701475409836 96.01116  35.0701475409836 96.01116  C 35.0701475409836 96.01116  36.5047868852459 97.03764  36.5047868852459 97.03764  C 36.5047868852459 97.03764  33.9871803278689 99.25041  33.9871803278689 99.25041  C 33.9871803278689 99.25041  28.6000409836065 99.9465599999999  28.6000409836065 99.9465599999999  C 28.6000409836065 99.9465599999999  27.0637622950819 97.80225  27.0637622950819 97.80225  C 27.0637622950819 97.80225  23.0238524590163 94.76817  23.0238524590163 94.76817  C 23.0238524590163 94.76817  23.3020901639344 89.6473200000001  23.3020901639344 89.6473200000001  C 23.3020901639344 89.6473200000001  21.2670163934426 89.26029  21.2670163934426 89.26029  C 21.2670163934426 89.26029  21.5452540983607 86.6943  21.5452540983607 86.6943  C 21.5452540983607 86.6943  20.9303360655738 84.57288  20.9303360655738 84.57288  C 20.9303360655738 84.57288  16.4660819672132 83.832  16.4660819672132 83.832  C 16.4660819672132 83.832  14.1238032786885 84.2877  14.1238032786885 84.2877  C 14.1238032786885 84.2877  13.2309016393442 80.29644  13.2309016393442 80.29644  C 13.2309016393442 80.29644  10.5816721311475 79.56732  10.5816721311475 79.56732  C 10.5816721311475 79.56732  8.517631147541 80.1939599999999  8.517631147541 80.1939599999999  C 8.517631147541 80.1939599999999  7.87349180327863 79.23615  7.87349180327863 79.23615  C 7.87349180327863 79.23615  8.72268852459013 76.16889  8.72268852459013 76.16889  C 8.72268852459013 76.16889  11.5332704918033 75.06303  11.5332704918033 75.06303  C 11.5332704918033 75.06303  13.6120491803279 75.30264  13.6120491803279 75.30264  C 13.6120491803279 75.30264  13.6557540983606 73.50063  13.6557540983606 73.50063  C 13.6557540983606 73.50063  15.1927950819673 71.58585  15.1927950819673 71.58585  C 15.1927950819673 71.58585  17.2852950819672 72.96534  17.2852950819672 72.96534  C 17.2852950819672 72.96534  17.4758688524589 74.61846  17.4758688524589 74.61846  C 17.4758688524589 74.61846  21.3107213114754 77.41209  21.3107213114754 77.41209  C 21.3107213114754 77.41209  23.6532540983606 77.6061300000001  23.6532540983606 77.6061300000001  C 23.6532540983606 77.6061300000001  28.2341393442622 76.3518  28.2341393442622 76.3518  C 28.2341393442622 76.3518  23.0091147540984 70.73052  23.0091147540984 70.73052  C 23.0091147540984 70.73052  25.5706803278689 69.82941  25.5706803278689 69.82941  C 25.5706803278689 69.82941  25.7165327868852 68.39322  25.7165327868852 68.39322  C 25.7165327868852 68.39322  28.4686721311475 68.56437  28.4686721311475 68.56437  C 28.4686721311475 68.56437  30.2984344262295 66.92238  30.2984344262295 66.92238  C 30.2984344262295 66.92238  31.8499590163934 67.86822  31.8499590163934 67.86822  C 31.8499590163934 67.86822  35.5242213114754 71.91618  35.5242213114754 71.91618  C 35.5242213114754 71.91618  37.5877540983606 71.85948  37.5877540983606 71.85948  C 37.5877540983606 71.85948  39.6373114754098 72.93069  39.6373114754098 72.93069  C 39.6373114754098 72.93069  40.3396393442623 71.5512  40.3396393442623 71.5512  C 40.3396393442623 71.5512  39.1829836065573 70.42224  39.1829836065573 70.42224  C 39.1829836065573 70.42224  43.3989836065575 64.6308599999999  43.3989836065575 64.6308599999999  C 43.3989836065575 64.6308599999999  42.695893442623 61.6872900000001  42.695893442623 61.6872900000001  C 42.695893442623 61.6872900000001  44.4527295081967 60.05706  44.4527295081967 60.05706  C 44.4527295081967 60.05706  44.5403934426229 58.25589  44.5403934426229 58.25589  C 44.5403934426229 58.25589  41.1588524590163 54.44775  41.1588524590163 54.44775  C 41.1588524590163 54.44775  40.8369098360656 48.83991  40.8369098360656 48.83991  C 40.8369098360656 48.83991  41.6276639344262 45.73968  41.6276639344262 45.73968  C 41.6276639344262 45.73968  42.9449098360655 43.64199  42.9449098360655 43.64199  C 42.9449098360655 43.64199  46.4430819672131 42.27447  46.4430819672131 42.27447  C 46.4430819672131 42.27447  50.0589016393443 41.85258  50.0589016393443 41.85258  C 50.0589016393443 41.85258  52.4151557377049 42.22869  52.4151557377049 42.22869  C 52.4151557377049 42.22869  56.3968770491804 46.18425  56.3968770491804 46.18425  C 56.3968770491804 46.18425  55.1670409836065 48.63495  55.1670409836065 48.63495  C 55.1670409836065 48.63495  53.4549262295082 49.26159  53.4549262295082 49.26159  C 53.4549262295082 49.26159  53.2788360655738 50.75469  53.2788360655738 50.75469  C 53.2788360655738 50.75469  56.2060491803279 52.06551  56.2060491803279 52.06551  C 56.2060491803279 52.06551  58.6362459016393 50.49303  58.6362459016393 50.49303  C 58.6362459016393 50.49303  59.821868852459 51.40422  59.821868852459 51.40422  C 59.821868852459 51.40422  59.3830409836065 56.69349  59.3830409836065 56.69349  C 59.3830409836065 56.69349  60.7587295081967 57.3321  60.7587295081967 57.3321  C 60.7587295081967 57.3321  62.8814672131147 56.6139  62.8814672131147 56.6139  C 62.8814672131147 56.6139  64.8425983606558 59.0874900000001  64.8425983606558 59.0874900000001  C 64.8425983606558 59.0874900000001  63.0273196721312 59.62362  63.0273196721312 59.62362  C 63.0273196721312 59.62362  65.4427786885246 65.40555  65.4427786885246 65.40555  C 65.4427786885246 65.40555  72.0442540983606 68.6668500000001  72.0442540983606 68.6668500000001  C 72.0442540983606 68.6668500000001  73.6105163934426 64.4368199999999  73.6105163934426 64.4368199999999  C 73.6105163934426 64.4368199999999  71.2535 58.8140700000001  71.2535 58.8140700000001  C 71.2535 58.8140700000001  68.6482295081967 56.37429  68.6482295081967 56.37429  C 68.6482295081967 56.37429  67.58 53.59326  67.58 53.59326  C 67.58 53.59326  71.663868852459 52.8633  71.663868852459 52.8633  C 71.663868852459 52.8633  76.2887131147541 48.99909  76.2887131147541 48.99909  Z M 18.0557213114754 23.8801500000001  C 18.0557213114754 23.8801500000001  16.2844016393443 28.84077  16.2844016393443 28.84077  C 16.2844016393443 28.84077  15.1869508196722 28.69251  15.1869508196722 28.69251  C 15.1869508196722 28.69251  13.3279672131148 32.30514  13.3279672131148 32.30514  C 13.3279672131148 32.30514  7.14194262295081 32.7946499999999  7.14194262295081 32.7946499999999  C 7.14194262295081 32.7946499999999  6.7468196721311 35.50722  6.7468196721311 35.50722  C 6.7468196721311 35.50722  4.03863934426233 35.22267  4.03863934426233 35.22267  C 4.03863934426233 35.22267  4.00941803278688 31.89459  4.00941803278688 31.89459  C 4.00941803278688 31.89459  1.06772131147547 29.91198  1.06772131147547 29.91198  C 1.06772131147547 29.91198  2.57554098360655 25.54419  2.57554098360655 25.54419  C 2.57554098360655 25.54419  4.27317213114748 28.8518999999999  4.27317213114748 28.8518999999999  C 4.27317213114748 28.8518999999999  6.80526229508198 28.62405  6.80526229508198 28.62405  C 6.80526229508198 28.62405  3.83434426229512 24.09708  3.83434426229512 24.09708  C 3.83434426229512 24.09708  11.6732786885246 19.62996  11.6732786885246 19.62996  C 11.6732786885246 19.62996  15.1277459016394 20.91789  15.1277459016394 20.91789  C 15.1277459016394 20.91789  18.1141639344263 22.07982  18.1141639344263 22.07982  C 18.1141639344263 22.07982  18.0557213114754 23.8801500000001  18.0557213114754 23.8801500000001  Z " fill-rule="nonzero" fill="#ffffff" stroke="none" transform="matrix(1 0 0 1 423 410 )" />
    <path d="M 76.2887131147541 48.99909  C 76.2887131147541 48.99909  83.2947131147541 47.28927  83.2947131147541 47.28927  C 83.2947131147541 47.28927  84.4503524590164 48.34956  84.4503524590164 48.34956  C 84.4503524590164 48.34956  88.0661721311475 49.54614  88.0661721311475 49.54614  C 88.0661721311475 49.54614  97.6388196721311 57.4463399999999  97.6388196721311 57.4463399999999  C 97.6388196721311 57.4463399999999  101.840081967213 58.27878  101.840081967213 58.27878  C 101.840081967213 58.27878  103.771991803279 56.62566  103.771991803279 56.62566  C 103.771991803279 56.62566  105.323770491803 50.12805  105.323770491803 50.12805  C 105.323770491803 50.12805  106.670237704918 47.60868  106.670237704918 47.60868  C 106.670237704918 47.60868  108.938827868852 46.37724  108.938827868852 46.37724  C 108.938827868852 46.37724  112.115819672131 46.05888  112.115819672131 46.05888  C 112.115819672131 46.05888  116.125745901639 44.20101  116.125745901639 44.20101  C 116.125745901639 44.20101  119.272754098361 41.85258  119.272754098361 41.85258  C 119.272754098361 41.85258  120.19487704918 40.3477199999999  120.19487704918 40.3477199999999  C 120.19487704918 40.3477199999999  118.761 38.33067  118.761 38.33067  C 118.761 38.33067  120.356483606557 37.0545  120.356483606557 37.0545  C 120.356483606557 37.0545  119.727081967213 35.70966  119.727081967213 35.70966  C 119.727081967213 35.70966  118.219262295082 36.50745  118.219262295082 36.50745  C 118.219262295082 36.50745  114.852459016393 36.4387800000001  114.852459016393 36.4387800000001  C 114.852459016393 36.4387800000001  114.428114754098 33.92025  114.428114754098 33.92025  C 114.428114754098 33.92025  111.148975409836 34.51308  111.148975409836 34.51308  C 111.148975409836 34.51308  108.441557377049 36.76911  108.441557377049 36.76911  C 108.441557377049 36.76911  107.768450819672 39.60768  107.768450819672 39.60768  C 107.768450819672 39.60768  104.079450819672 39.8693400000001  104.079450819672 39.8693400000001  C 104.079450819672 39.8693400000001  104.006524590164 37.79538  104.006524590164 37.79538  C 104.006524590164 37.79538  102.351836065574 39.7779899999999  102.351836065574 39.7779899999999  C 102.351836065574 39.7779899999999  99.9666147540984 38.88948  99.9666147540984 38.88948  C 99.9666147540984 38.88948  99.1174180327869 37.47618  99.1174180327869 37.47618  C 99.1174180327869 37.47618  101.693213114754 36.17712  101.693213114754 36.17712  C 101.693213114754 36.17712  100.668942622951 34.49019  100.668942622951 34.49019  C 100.668942622951 34.49019  99.1903442622951 34.51308  99.1903442622951 34.51308  C 99.1903442622951 34.51308  101.312827868853 29.8172699999999  101.312827868853 29.8172699999999  C 101.312827868853 29.8172699999999  102.147540983607 25.45284  102.147540983607 25.45284  C 102.147540983607 25.45284  100.771090163934 22.67265  100.771090163934 22.67265  C 100.771090163934 22.67265  97.5656393442623 20.65539  97.5656393442623 20.65539  C 97.5656393442623 20.65539  96.4974098360656 20.74695  96.4974098360656 20.74695  C 96.4974098360656 20.74695  96.0285983606557 23.54982  96.0285983606557 23.54982  C 96.0285983606557 23.54982  94.1843524590164 23.82345  94.1843524590164 23.82345  C 94.1843524590164 23.82345  89.5739918032788 20.42754  89.5739918032788 20.42754  C 89.5739918032788 20.42754  89.8814508196722 17.34012  89.8814508196722 17.34012  C 89.8814508196722 17.34012  93.145344262295 14.0238  93.145344262295 14.0238  C 93.145344262295 14.0238  93.5109918032787 11.99562  93.5109918032787 11.99562  C 93.5109918032787 11.99562  92.9547704918033 9.12491999999995  92.9547704918033 9.12491999999995  C 92.9547704918033 9.12491999999995  94.5062950819672 7.78091999999998  94.5062950819672 7.78091999999998  C 94.5062950819672 7.78091999999998  96.6435163934427 10.15035  96.6435163934427 10.15035  C 96.6435163934427 10.15035  99.4830655737706 10.5035700000001  99.4830655737706 10.5035700000001  C 99.4830655737706 10.5035700000001  101.122254098361 9.34163999999998  101.122254098361 9.34163999999998  C 101.122254098361 9.34163999999998  101.751655737705 5.10320999999996  101.751655737705 5.10320999999996  C 101.751655737705 5.10320999999996  104.137893442623 5.17188000000003  104.137893442623 5.17188000000003  C 104.137893442623 5.17188000000003  108.338647540984 2.85914999999995  108.338647540984 2.85914999999995  C 108.338647540984 2.85914999999995  110.358983606557 3.16659000000001  110.358983606557 3.16659000000001  C 110.358983606557 3.16659000000001  111.148975409836 1.41183000000001  111.148975409836 1.41183000000001  C 111.148975409836 1.41183000000001  112.978737704918 1.40091000000001  112.978737704918 1.40091000000001  C 112.978737704918 1.40091000000001  114.925385245902 4.35120000000001  114.925385245902 4.35120000000001  C 114.925385245902 4.35120000000001  112.305631147541 7.19922000000001  112.305631147541 7.19922000000001  C 112.305631147541 7.19922000000001  112.598352459016 8.41868999999996  112.598352459016 8.41868999999996  C 112.598352459016 8.41868999999996  114.677131147541 7.82586000000004  114.677131147541 7.82586000000004  C 114.677131147541 7.82586000000004  116.18418852459 5.34197999999995  116.18418852459 5.34197999999995  C 116.18418852459 5.34197999999995  117.545901639344 5.76365999999998  117.545901639344 5.76365999999998  C 117.545901639344 5.76365999999998  118.131598360656 8.35002000000001  118.131598360656 8.35002000000001  C 118.131598360656 8.35002000000001  115.628475409836 11.22156  115.628475409836 11.22156  C 115.628475409836 11.22156  116.609040983607 12.61134  116.609040983607 12.61134  C 116.609040983607 12.61134  121.600549180328 10.67451  121.600549180328 10.67451  C 121.600549180328 10.67451  123.796213114754 11.928  123.796213114754 11.928  C 123.796213114754 11.928  125.025795081967 14.69622  125.025795081967 14.69622  C 125.025795081967 14.69622  128.538704918033 17.1002999999999  128.538704918033 17.1002999999999  C 128.538704918033 17.1002999999999  131.187680327869 18.05727  131.187680327869 18.05727  C 131.187680327869 18.05727  137.657532786885 19.17426  137.657532786885 19.17426  C 137.657532786885 19.17426  140.482598360656 20.83746  140.482598360656 20.83746  C 140.482598360656 20.83746  142.56137704918 24.3137999999999  142.56137704918 24.3137999999999  C 142.56137704918 24.3137999999999  142.531393442623 26.18196  142.531393442623 26.18196  C 142.531393442623 26.18196  141.082778688525 27.89157  141.082778688525 27.89157  C 141.082778688525 27.89157  136.355024590164 31.38996  136.355024590164 31.38996  C 136.355024590164 31.38996  136.515614754098 34.30728  136.515614754098 34.30728  C 136.515614754098 34.30728  139.780270491803 36.15423  139.780270491803 36.15423  C 139.780270491803 36.15423  147.655032786885 36.2338200000001  147.655032786885 36.2338200000001  C 147.655032786885 36.2338200000001  151.402221311475 38.63895  151.402221311475 38.63895  C 151.402221311475 38.63895  152.763426229508 42.4225199999999  152.763426229508 42.4225199999999  C 152.763426229508 42.4225199999999  153.422049180328 50.28723  153.422049180328 50.28723  C 153.422049180328 50.28723  153.261204918033 54.50529  153.261204918033 54.50529  C 153.261204918033 54.50529  151.416959016393 54.61869  151.416959016393 54.61869  C 151.416959016393 54.61869  149.66012295082 51.02811  149.66012295082 51.02811  C 149.66012295082 51.02811  145.985860655738 51.35928  145.985860655738 51.35928  C 145.985860655738 51.35928  143.746491803279 49.97979  143.746491803279 49.97979  C 143.746491803279 49.97979  142.576114754098 52.1451  142.576114754098 52.1451  C 142.576114754098 52.1451  142.809631147541 55.61115  142.809631147541 55.61115  C 142.809631147541 55.61115  144.610172131147 56.65968  144.610172131147 56.65968  C 144.610172131147 56.65968  143.380590163935 58.00431  143.380590163935 58.00431  C 143.380590163935 58.00431  139.838713114754 58.4150700000001  139.838713114754 58.4150700000001  C 139.838713114754 58.4150700000001  139.004 60.94641  139.004 60.94641  C 139.004 60.94641  137.188975409836 60.6610199999999  137.188975409836 60.6610199999999  C 137.188975409836 60.6610199999999  137.877327868852 65.45133  137.877327868852 65.45133  C 137.877327868852 65.45133  134.59818852459 68.34765  134.59818852459 68.34765  C 134.59818852459 68.34765  133.16431147541 67.7428500000001  133.16431147541 67.7428500000001  C 133.16431147541 67.7428500000001  128.304172131148 69.4077300000001  128.304172131148 69.4077300000001  C 128.304172131148 69.4077300000001  126.166950819672 67.3329300000001  126.166950819672 67.3329300000001  C 126.166950819672 67.3329300000001  124.556983606557 68.9402700000001  124.556983606557 68.9402700000001  C 124.556983606557 68.9402700000001  125.113459016393 73.38702  125.113459016393 73.38702  C 125.113459016393 73.38702  123.063901639344 74.9834399999999  123.063901639344 74.9834399999999  C 123.063901639344 74.9834399999999  117.223959016393 75.2797500000001  117.223959016393 75.2797500000001  C 117.223959016393 75.2797500000001  114.677131147541 76.1808599999999  114.677131147541 76.1808599999999  C 114.677131147541 76.1808599999999  113.755008196721 77.77707  113.755008196721 77.77707  C 113.755008196721 77.77707  114.076950819672 82.23495  114.076950819672 82.23495  C 114.076950819672 82.23495  109.114663934426 82.59993  109.114663934426 82.59993  C 109.114663934426 82.59993  109.187844262295 80.87814  109.187844262295 80.87814  C 109.187844262295 80.87814  105.587270491803 80.91216  105.587270491803 80.91216  C 105.587270491803 80.91216  103.244991803279 82.57704  103.244991803279 82.57704  C 103.244991803279 82.57704  101.459696721312 82.3491900000001  101.459696721312 82.3491900000001  C 101.459696721312 82.3491900000001  102.600852459016 79.79517  102.600852459016 79.79517  C 102.600852459016 79.79517  101.049327868853 78.27834  101.049327868853 78.27834  C 101.049327868853 78.27834  100.347 80.10261  100.347 80.10261  C 100.347 80.10261  100.756606557377 86.46561  100.756606557377 86.46561  C 100.756606557377 86.46561  99.5270245901639 86.83059  99.5270245901639 86.83059  C 99.5270245901639 86.83059  101.166975409836 89.12295  101.166975409836 89.12295  C 101.166975409836 89.12295  101.049327868853 95.76063  101.049327868853 95.76063  C 101.049327868853 95.76063  117.442991803279 96.05694  117.442991803279 96.05694  C 117.442991803279 96.05694  116.125745901639 97.72182  116.125745901639 97.72182  C 116.125745901639 97.72182  117.941024590164 98.66871  117.941024590164 98.66871  C 117.941024590164 98.66871  117.677270491803 100.47072  117.677270491803 100.47072  C 117.677270491803 100.47072  116.228655737705 101.86197  116.228655737705 101.86197  C 116.228655737705 101.86197  116.565336065574 103.73265  116.565336065574 103.73265  C 116.565336065574 103.73265  118.10237704918 104.61087  118.10237704918 104.61087  C 118.10237704918 104.61087  114.208319672131 111.06711  114.208319672131 111.06711  C 114.208319672131 111.06711  118.761 113.56527  118.761 113.56527  C 118.761 113.56527  114.837721311475 119.17815  114.837721311475 119.17815  C 114.837721311475 119.17815  111.749155737705 116.85114  111.749155737705 116.85114  C 111.749155737705 116.85114  109.94937704918 116.69112  109.94937704918 116.69112  C 109.94937704918 116.69112  103.420827868852 112.56189  103.420827868852 112.56189  C 103.420827868852 112.56189  100.552057377049 112.13937  100.552057377049 112.13937  C 100.552057377049 112.13937  98.3126885245902 110.41674  98.3126885245902 110.41674  C 98.3126885245902 110.41674  94.4625901639344 108.70629  94.4625901639344 108.70629  C 94.4625901639344 108.70629  92.8378852459017 112.43652  92.8378852459017 112.43652  C 92.8378852459017 112.43652  90.9933852459016 112.18494  90.9933852459016 112.18494  C 90.9933852459016 112.18494  86.6315327868853 114.76374  86.6315327868853 114.76374  C 86.6315327868853 114.76374  85.0215655737705 118.55067  85.0215655737705 118.55067  C 85.0215655737705 118.55067  84.9339016393442 121.1175  84.9339016393442 121.1175  C 84.9339016393442 121.1175  79.3625409836066 125.1222  79.3625409836066 125.1222  C 79.3625409836066 125.1222  72.6736557377049 121.17504  72.6736557377049 121.17504  C 72.6736557377049 121.17504  69.7609262295082 119.89719  69.7609262295082 119.89719  C 69.7609262295082 119.89719  68.3407704918033 117.80895  68.3407704918033 117.80895  C 68.3407704918033 117.80895  67.4623524590163 113.7822  67.4623524590163 113.7822  C 67.4623524590163 113.7822  68.4429180327869 111.23826  68.4429180327869 111.23826  C 68.4429180327869 111.23826  66.8037295081968 111.0333  66.8037295081968 111.0333  C 66.8037295081968 111.0333  64.5498770491804 109.44717  64.5498770491804 109.44717  C 64.5498770491804 109.44717  59.0610983606558 107.69094  59.0610983606558 107.69094  C 59.0610983606558 107.69094  57.0699836065573 108.88836  57.0699836065573 108.88836  C 57.0699836065573 108.88836  54.2304344262296 109.11684  54.2304344262296 109.11684  C 54.2304344262296 109.11684  52.2398278688524 107.87385  52.2398278688524 107.87385  C 52.2398278688524 107.87385  51.2447786885246 105.77448  51.2447786885246 105.77448  C 51.2447786885246 105.77448  47.2777950819673 105.95739  47.2777950819673 105.95739  C 47.2777950819673 105.95739  46.2680081967214 104.39415  46.2680081967214 104.39415  C 46.2680081967214 104.39415  47.7903114754098 103.42521  47.7903114754098 103.42521  C 47.7903114754098 103.42521  51.3177049180329 103.12806  51.3177049180329 103.12806  C 51.3177049180329 103.12806  51.4930327868852 99.6492  51.4930327868852 99.6492  C 51.4930327868852 99.6492  49.6640327868853 96.6268800000001  49.6640327868853 96.6268800000001  C 49.6640327868853 96.6268800000001  50.380844262295 94.66569  50.380844262295 94.66569  C 50.380844262295 94.66569  49.0046475409837 94.19823  49.0046475409837 94.19823  C 49.0046475409837 94.19823  47.0872213114754 95.30409  47.0872213114754 95.30409  C 47.0872213114754 95.30409  44.2913770491803 95.3956499999999  44.2913770491803 95.3956499999999  C 44.2913770491803 95.3956499999999  42.7843196721311 91.49511  42.7843196721311 91.49511  C 42.7843196721311 91.49511  41.6424016393443 91.00476  41.6424016393443 91.00476  C 41.6424016393443 91.00476  35.6411065573771 90.4348200000001  35.6411065573771 90.4348200000001  C 35.6411065573771 90.4348200000001  33.2256475409836 92.88636  33.2256475409836 92.88636  C 33.2256475409836 92.88636  35.4942377049181 93.69591  35.4942377049181 93.69591  C 35.4942377049181 93.69591  35.0701475409836 96.01116  35.0701475409836 96.01116  C 35.0701475409836 96.01116  36.5047868852459 97.03764  36.5047868852459 97.03764  C 36.5047868852459 97.03764  33.9871803278689 99.25041  33.9871803278689 99.25041  C 33.9871803278689 99.25041  28.6000409836065 99.9465599999999  28.6000409836065 99.9465599999999  C 28.6000409836065 99.9465599999999  27.0637622950819 97.80225  27.0637622950819 97.80225  C 27.0637622950819 97.80225  23.0238524590163 94.76817  23.0238524590163 94.76817  C 23.0238524590163 94.76817  23.3020901639344 89.6473200000001  23.3020901639344 89.6473200000001  C 23.3020901639344 89.6473200000001  21.2670163934426 89.26029  21.2670163934426 89.26029  C 21.2670163934426 89.26029  21.5452540983607 86.6943  21.5452540983607 86.6943  C 21.5452540983607 86.6943  20.9303360655738 84.57288  20.9303360655738 84.57288  C 20.9303360655738 84.57288  16.4660819672132 83.832  16.4660819672132 83.832  C 16.4660819672132 83.832  14.1238032786885 84.2877  14.1238032786885 84.2877  C 14.1238032786885 84.2877  13.2309016393442 80.29644  13.2309016393442 80.29644  C 13.2309016393442 80.29644  10.5816721311475 79.56732  10.5816721311475 79.56732  C 10.5816721311475 79.56732  8.517631147541 80.1939599999999  8.517631147541 80.1939599999999  C 8.517631147541 80.1939599999999  7.87349180327863 79.23615  7.87349180327863 79.23615  C 7.87349180327863 79.23615  8.72268852459013 76.16889  8.72268852459013 76.16889  C 8.72268852459013 76.16889  11.5332704918033 75.06303  11.5332704918033 75.06303  C 11.5332704918033 75.06303  13.6120491803279 75.30264  13.6120491803279 75.30264  C 13.6120491803279 75.30264  13.6557540983606 73.50063  13.6557540983606 73.50063  C 13.6557540983606 73.50063  15.1927950819673 71.58585  15.1927950819673 71.58585  C 15.1927950819673 71.58585  17.2852950819672 72.96534  17.2852950819672 72.96534  C 17.2852950819672 72.96534  17.4758688524589 74.61846  17.4758688524589 74.61846  C 17.4758688524589 74.61846  21.3107213114754 77.41209  21.3107213114754 77.41209  C 21.3107213114754 77.41209  23.6532540983606 77.6061300000001  23.6532540983606 77.6061300000001  C 23.6532540983606 77.6061300000001  28.2341393442622 76.3518  28.2341393442622 76.3518  C 28.2341393442622 76.3518  23.0091147540984 70.73052  23.0091147540984 70.73052  C 23.0091147540984 70.73052  25.5706803278689 69.82941  25.5706803278689 69.82941  C 25.5706803278689 69.82941  25.7165327868852 68.39322  25.7165327868852 68.39322  C 25.7165327868852 68.39322  28.4686721311475 68.56437  28.4686721311475 68.56437  C 28.4686721311475 68.56437  30.2984344262295 66.92238  30.2984344262295 66.92238  C 30.2984344262295 66.92238  31.8499590163934 67.86822  31.8499590163934 67.86822  C 31.8499590163934 67.86822  35.5242213114754 71.91618  35.5242213114754 71.91618  C 35.5242213114754 71.91618  37.5877540983606 71.85948  37.5877540983606 71.85948  C 37.5877540983606 71.85948  39.6373114754098 72.93069  39.6373114754098 72.93069  C 39.6373114754098 72.93069  40.3396393442623 71.5512  40.3396393442623 71.5512  C 40.3396393442623 71.5512  39.1829836065573 70.42224  39.1829836065573 70.42224  C 39.1829836065573 70.42224  43.3989836065575 64.6308599999999  43.3989836065575 64.6308599999999  C 43.3989836065575 64.6308599999999  42.695893442623 61.6872900000001  42.695893442623 61.6872900000001  C 42.695893442623 61.6872900000001  44.4527295081967 60.05706  44.4527295081967 60.05706  C 44.4527295081967 60.05706  44.5403934426229 58.25589  44.5403934426229 58.25589  C 44.5403934426229 58.25589  41.1588524590163 54.44775  41.1588524590163 54.44775  C 41.1588524590163 54.44775  40.8369098360656 48.83991  40.8369098360656 48.83991  C 40.8369098360656 48.83991  41.6276639344262 45.73968  41.6276639344262 45.73968  C 41.6276639344262 45.73968  42.9449098360655 43.64199  42.9449098360655 43.64199  C 42.9449098360655 43.64199  46.4430819672131 42.27447  46.4430819672131 42.27447  C 46.4430819672131 42.27447  50.0589016393443 41.85258  50.0589016393443 41.85258  C 50.0589016393443 41.85258  52.4151557377049 42.22869  52.4151557377049 42.22869  C 52.4151557377049 42.22869  56.3968770491804 46.18425  56.3968770491804 46.18425  C 56.3968770491804 46.18425  55.1670409836065 48.63495  55.1670409836065 48.63495  C 55.1670409836065 48.63495  53.4549262295082 49.26159  53.4549262295082 49.26159  C 53.4549262295082 49.26159  53.2788360655738 50.75469  53.2788360655738 50.75469  C 53.2788360655738 50.75469  56.2060491803279 52.06551  56.2060491803279 52.06551  C 56.2060491803279 52.06551  58.6362459016393 50.49303  58.6362459016393 50.49303  C 58.6362459016393 50.49303  59.821868852459 51.40422  59.821868852459 51.40422  C 59.821868852459 51.40422  59.3830409836065 56.69349  59.3830409836065 56.69349  C 59.3830409836065 56.69349  60.7587295081967 57.3321  60.7587295081967 57.3321  C 60.7587295081967 57.3321  62.8814672131147 56.6139  62.8814672131147 56.6139  C 62.8814672131147 56.6139  64.8425983606558 59.0874900000001  64.8425983606558 59.0874900000001  C 64.8425983606558 59.0874900000001  63.0273196721312 59.62362  63.0273196721312 59.62362  C 63.0273196721312 59.62362  65.4427786885246 65.40555  65.4427786885246 65.40555  C 65.4427786885246 65.40555  72.0442540983606 68.6668500000001  72.0442540983606 68.6668500000001  C 72.0442540983606 68.6668500000001  73.6105163934426 64.4368199999999  73.6105163934426 64.4368199999999  C 73.6105163934426 64.4368199999999  71.2535 58.8140700000001  71.2535 58.8140700000001  C 71.2535 58.8140700000001  68.6482295081967 56.37429  68.6482295081967 56.37429  C 68.6482295081967 56.37429  67.58 53.59326  67.58 53.59326  C 67.58 53.59326  71.663868852459 52.8633  71.663868852459 52.8633  C 71.663868852459 52.8633  76.2887131147541 48.99909  76.2887131147541 48.99909  Z " stroke-width="2" stroke="#666666" fill="none" transform="matrix(1 0 0 1 423 410 )" mask="url(#clip85)" />
    <path d="M 18.0557213114754 23.8801500000001  C 18.0557213114754 23.8801500000001  16.2844016393443 28.84077  16.2844016393443 28.84077  C 16.2844016393443 28.84077  15.1869508196722 28.69251  15.1869508196722 28.69251  C 15.1869508196722 28.69251  13.3279672131148 32.30514  13.3279672131148 32.30514  C 13.3279672131148 32.30514  7.14194262295081 32.7946499999999  7.14194262295081 32.7946499999999  C 7.14194262295081 32.7946499999999  6.7468196721311 35.50722  6.7468196721311 35.50722  C 6.7468196721311 35.50722  4.03863934426233 35.22267  4.03863934426233 35.22267  C 4.03863934426233 35.22267  4.00941803278688 31.89459  4.00941803278688 31.89459  C 4.00941803278688 31.89459  1.06772131147547 29.91198  1.06772131147547 29.91198  C 1.06772131147547 29.91198  2.57554098360655 25.54419  2.57554098360655 25.54419  C 2.57554098360655 25.54419  4.27317213114748 28.8518999999999  4.27317213114748 28.8518999999999  C 4.27317213114748 28.8518999999999  6.80526229508198 28.62405  6.80526229508198 28.62405  C 6.80526229508198 28.62405  3.83434426229512 24.09708  3.83434426229512 24.09708  C 3.83434426229512 24.09708  11.6732786885246 19.62996  11.6732786885246 19.62996  C 11.6732786885246 19.62996  15.1277459016394 20.91789  15.1277459016394 20.91789  C 15.1277459016394 20.91789  18.1141639344263 22.07982  18.1141639344263 22.07982  C 18.1141639344263 22.07982  18.0557213114754 23.8801500000001  18.0557213114754 23.8801500000001  Z " stroke-width="2" stroke="#666666" fill="none" transform="matrix(1 0 0 1 423 410 )" mask="url(#clip85)" />
  </g>
</svg>