<?xml version="1.0" encoding="utf-8"?>
<svg version="1.1" xmlns:xlink="http://www.w3.org/1999/xlink" width="117px" height="118px" xmlns="http://www.w3.org/2000/svg">
  <g transform="matrix(1 0 0 1 -383 -563 )">
    <path d="M 3.75804347826079 9.41176428571436  C 3.75804347826079 9.41176428571436  2.36923478260877 5.0381785714286  2.36923478260877 5.0381785714286  C 2.36923478260877 5.0381785714286  4.71846086956526 5.09591428571434  4.71846086956526 5.09591428571434  C 4.71846086956526 5.09591428571434  6.72882173913047 2.69124285714287  6.72882173913047 2.69124285714287  C 6.72882173913047 2.69124285714287  9.03366956521734 2.43965000000003  9.03366956521734 2.43965000000003  C 9.03366956521734 2.43965000000003  9.43256086956524 0.413210714285697  9.43256086956524 0.413210714285697  C 9.43256086956524 0.413210714285697  18.1070999999999 1.92487499999999  18.1070999999999 1.92487499999999  C 18.1070999999999 1.92487499999999  16.0674956521739 4.88941428571428  16.0674956521739 4.88941428571428  C 16.0674956521739 4.88941428571428  17.4119260869564 7.04186071428575  17.4119260869564 7.04186071428575  C 17.4119260869564 7.04186071428575  18.8605043478261 6.77846785714286  18.8605043478261 6.77846785714286  C 18.8605043478261 6.77846785714286  20.4268260869566 4.62602142857145  20.4268260869566 4.62602142857145  C 20.4268260869566 4.62602142857145  24.0319826086957 3.16113571428571  24.0319826086957 3.16113571428571  C 24.0319826086957 3.16113571428571  27.0468826086957 5.72552857142853  27.0468826086957 5.72552857142853  C 27.0468826086957 5.72552857142853  29.9283913043478 2.48558571428572  29.9283913043478 2.48558571428572  C 29.9283913043478 2.48558571428572  32.3963869565217 3.4934321428571  32.3963869565217 3.4934321428571  C 32.3963869565217 3.4934321428571  32.8245217391304 5.370475  32.8245217391304 5.370475  C 32.8245217391304 5.370475  34.1838304347826 3.23003928571427  34.1838304347826 3.23003928571427  C 34.1838304347826 3.23003928571427  37.242852173913 5.96616428571423  37.242852173913 5.96616428571423  C 37.242852173913 5.96616428571423  36.4299347826087 8.34702499999997  36.4299347826087 8.34702499999997  C 36.4299347826087 8.34702499999997  39.1785652173913 7.70624285714285  39.1785652173913 7.70624285714285  C 39.1785652173913 7.70624285714285  39.5920782608695 3.67612142857143  39.5920782608695 3.67612142857143  C 39.5920782608695 3.67612142857143  41.3510478260869 2.9546357142857  41.3510478260869 2.9546357142857  C 41.3510478260869 2.9546357142857  43.3308826086957 4.27181071428578  43.3308826086957 4.27181071428578  C 43.3308826086957 4.27181071428578  45.6211086956521 4.4203642857143  45.6211086956521 4.4203642857143  C 45.6211086956521 4.4203642857143  46.2565130434782 6.22955714285706  46.2565130434782 6.22955714285706  C 46.2565130434782 6.22955714285706  45.4443652173913 8.09543214285713  45.4443652173913 8.09543214285713  C 45.4443652173913 8.09543214285713  47.3652 9.93855000000008  47.3652 9.93855000000008  C 47.3652 9.93855000000008  52.0349217391305 8.56448214285717  52.0349217391305 8.56448214285717  C 52.0349217391305 8.56448214285717  53.1279608695652 6.60673571428572  53.1279608695652 6.60673571428572  C 53.1279608695652 6.60673571428572  55.847347826087 6.09175000000005  55.847347826087 6.09175000000005  C 55.847347826087 6.09175000000005  61.1311826086957 10.9921214285715  61.1311826086957 10.9921214285715  C 61.1311826086957 10.9921214285715  64.5888391304347 11.7015964285714  64.5888391304347 11.7015964285714  C 64.5888391304347 11.7015964285714  72.760852173913 11.6447035714286  72.760852173913 11.6447035714286  C 72.760852173913 11.6447035714286  74.7996869565217 11.0380571428572  74.7996869565217 11.0380571428572  C 74.7996869565217 11.0380571428572  85.705452173913 10.8774928571428  85.705452173913 10.8774928571428  C 85.705452173913 10.8774928571428  87.3307739130435 13.1095892857143  87.3307739130435 13.1095892857143  C 87.3307739130435 13.1095892857143  90.3605521739131 14.8846464285714  90.3605521739131 14.8846464285714  C 90.3605521739131 14.8846464285714  94.0395869565217 15.0793464285714  94.0395869565217 15.0793464285714  C 94.0395869565217 15.0793464285714  94.2172903720888 15.1000342026267  94.5271427992702 15.1361064243314  C 96.6347003195085 15.3814628438923  104.856082608696 16.338575  104.856082608696 16.338575  C 104.856082608696 16.338575  109.733073913044 19.1554035714286  109.733073913044 19.1554035714286  C 109.733073913044 19.1554035714286  111.89067826087 19.7970285714285  111.89067826087 19.7970285714285  C 111.89067826087 19.7970285714285  114.313526086957 22.5788785714285  114.313526086957 22.5788785714285  C 114.313526086957 22.5788785714285  116.943643478261 29.1413642857142  116.943643478261 29.1413642857142  C 116.943643478261 29.1413642857142  115.983226086957 31.7864607142858  115.983226086957 31.7864607142858  C 115.983226086957 31.7864607142858  110.929234782609 32.7024357142857  110.929234782609 32.7024357142857  C 110.929234782609 32.7024357142857  109.452182608696 34.6951607142857  109.452182608696 34.6951607142857  C 109.452182608696 34.6951607142857  110.33897826087 38.3946714285714  110.33897826087 38.3946714285714  C 110.33897826087 38.3946714285714  109.422682608696 40.7765857142857  109.422682608696 40.7765857142857  C 109.422682608696 40.7765857142857  112.15592173913 47.2710107142857  112.15592173913 47.2710107142857  C 112.15592173913 47.2710107142857  111.505895652174 52.2308035714286  111.505895652174 52.2308035714286  C 111.505895652174 52.2308035714286  108.372995652174 53.6166714285714  108.372995652174 53.6166714285714  C 108.372995652174 53.6166714285714  107.23557826087 55.1751142857142  107.23557826087 55.1751142857142  C 107.23557826087 55.1751142857142  107.678591304348 61.1773107142857  107.678591304348 61.1773107142857  C 107.678591304348 61.1773107142857  108.743156521739 63.8462178571428  108.743156521739 63.8462178571428  C 108.743156521739 63.8462178571428  106.067891304348 65.2550535714286  106.067891304348 65.2550535714286  C 106.067891304348 65.2550535714286  104.723460869565 67.6386535714286  104.723460869565 67.6386535714286  C 104.723460869565 67.6386535714286  105.80187826087 74.3640214285715  105.80187826087 74.3640214285715  C 105.80187826087 74.3640214285715  101.162426086956 79.7146892857143  101.162426086956 79.7146892857143  C 101.162426086956 79.7146892857143  101.280426086956 81.6852892857142  101.280426086956 81.6852892857142  C 101.280426086956 81.6852892857142  103.970056521739 82.7397035714285  103.970056521739 82.7397035714285  C 103.970056521739 82.7397035714285  106.556052173913 82.4423857142857  106.556052173913 82.4423857142857  C 106.556052173913 82.4423857142857  108.137252173913 84.3099464285715  108.137252173913 84.3099464285715  C 108.137252173913 84.3099464285715  105.71337826087 89.5008928571428  105.71337826087 89.5008928571428  C 105.71337826087 89.5008928571428  108.9199 92.51495  108.9199 92.51495  C 108.9199 92.51495  109.747695652174 94.49735  109.747695652174 94.49735  C 109.747695652174 94.49735  109.525804347826 96.8128892857144  109.525804347826 96.8128892857144  C 109.525804347826 96.8128892857144  107.279956521739 98.6235571428571  107.279956521739 98.6235571428571  C 107.279956521739 98.6235571428571  103.319260869565 99.1623535714285  103.319260869565 99.1623535714285  C 103.319260869565 99.1623535714285  101.812452173913 101.351253571429  101.812452173913 101.351253571429  C 101.812452173913 101.351253571429  103.511652173913 106.715407142857  103.511652173913 106.715407142857  C 103.511652173913 106.715407142857  106.851565217391 107.953564285714  106.851565217391 107.953564285714  C 106.851565217391 107.953564285714  106.009147826087 110.440625  106.009147826087 110.440625  C 106.009147826087 110.440625  102.240843478261 110.761753571429  102.240843478261 110.761753571429  C 102.240843478261 110.761753571429  100.408252173913 111.50705  100.408252173913 111.50705  C 100.408252173913 111.50705  97.304852173913 114.521739285714  97.304852173913 114.521739285714  C 97.304852173913 114.521739285714  93.4188043478262 116.562085714286  93.4188043478262 116.562085714286  C 93.4188043478262 116.562085714286  93.4336826086956 112.985632142857  93.4336826086956 112.985632142857  C 93.4336826086956 112.985632142857  88.4240695652173 112.859835714286  88.4240695652173 112.859835714286  C 88.4240695652173 112.859835714286  88.3650695652174 113.69595  88.3650695652174 113.69595  C 88.3650695652174 113.69595  84.7155347826087 113.478282142857  84.7155347826087 113.478282142857  C 84.7155347826087 113.478282142857  84.6860347826087 110.922317857143  84.6860347826087 110.922317857143  C 84.6860347826087 110.922317857143  80.0458130434782 110.933485714286  80.0458130434782 110.933485714286  C 80.0458130434782 110.933485714286  77.9921000000001 111.632846428571  77.9921000000001 111.632846428571  C 77.9921000000001 111.632846428571  77.8587086956521 116.000321428571  77.8587086956521 116.000321428571  C 77.8587086956521 116.000321428571  67.4998478260869 117.169575  67.4998478260869 117.169575  C 67.4998478260869 117.169575  57.0740347826086 116.160885714286  57.0740347826086 116.160885714286  C 57.0740347826086 116.160885714286  56.4681304347826 113.467325  56.4681304347826 113.467325  C 56.4681304347826 113.467325  54.3251478260869 112.344007142857  54.3251478260869 112.344007142857  C 54.3251478260869 112.344007142857  55.7434565217392 109.9937  55.7434565217392 109.9937  C 55.7434565217392 109.9937  53.526852173913 109.191510714286  53.526852173913 109.191510714286  C 53.526852173913 109.191510714286  50.3939521739131 110.280060714286  50.3939521739131 110.280060714286  C 50.3939521739131 110.280060714286  49.758547826087 107.712928571429  49.758547826087 107.712928571429  C 49.758547826087 107.712928571429  52.5959347826087 105.821557142857  52.5959347826087 105.821557142857  C 52.5959347826087 105.821557142857  55.2414434782609 105.247992857143  55.2414434782609 105.247992857143  C 55.2414434782609 105.247992857143  55.137552173913 103.115985714286  55.137552173913 103.115985714286  C 55.137552173913 103.115985714286  60.3482782608696 100.113096428571  60.3482782608696 100.113096428571  C 60.3482782608696 100.113096428571  61.2055739130435 95.5977  61.2055739130435 95.5977  C 61.2055739130435 95.5977  64.0722043478261 90.6353785714285  64.0722043478261 90.6353785714285  C 64.0722043478261 90.6353785714285  64.3825956521739 88.7098714285714  64.3825956521739 88.7098714285714  C 64.3825956521739 88.7098714285714  69.0810478260869 87.7591285714285  69.0810478260869 87.7591285714285  C 69.0810478260869 87.7591285714285  70.455747826087 84.3788499999999  70.455747826087 84.3788499999999  C 70.455747826087 84.3788499999999  70.6622478260869 79.748825  70.6622478260869 79.748825  C 70.6622478260869 79.748825  68.1950217391304 76.0941964285714  68.1950217391304 76.0941964285714  C 68.1950217391304 76.0941964285714  66.9978347826087 75.6811964285714  66.9978347826087 75.6811964285714  C 66.9978347826087 75.6811964285714  64.1460826086957 76.7467785714285  64.1460826086957 76.7467785714285  C 64.1460826086957 76.7467785714285  61.9884782608696 75.5783678571429  61.9884782608696 75.5783678571429  C 61.9884782608696 75.5783678571429  55.8622260869565 70.6286892857144  55.8622260869565 70.6286892857144  C 55.8622260869565 70.6286892857144  53.8518652173914 69.6659357142858  53.8518652173914 69.6659357142858  C 53.8518652173914 69.6659357142858  48.7835086956521 68.3719392857142  48.7835086956521 68.3719392857142  C 48.7835086956521 68.3719392857142  46.8477956521739 69.3566071428572  46.8477956521739 69.3566071428572  C 46.8477956521739 69.3566071428572  48.4582391304347 71.1097500000001  48.4582391304347 71.1097500000001  C 48.4582391304347 71.1097500000001  45.725 74.2373821428571  45.725 74.2373821428571  C 45.725 74.2373821428571  45.6211086956521 76.2886857142856  45.6211086956521 76.2886857142856  C 45.6211086956521 76.2886857142856  43.9072869565217 76.1281214285715  43.9072869565217 76.1281214285715  C 43.9072869565217 76.1281214285715  44.2323000000001 73.1031071428571  44.2323000000001 73.1031071428571  C 44.2323000000001 73.1031071428571  40.3757521739131 72.8626821428571  40.3757521739131 72.8626821428571  C 40.3757521739131 72.8626821428571  34.3762217391304 69.8385107142858  34.3762217391304 69.8385107142858  C 34.3762217391304 69.8385107142858  30.8298086956522 69.8954035714286  30.8298086956522 69.8954035714286  C 30.8298086956522 69.8954035714286  27.8444086956522 71.6483357142856  27.8444086956522 71.6483357142856  C 27.8444086956522 71.6483357142856  25.1996695652174 74.5127857142858  25.1996695652174 74.5127857142858  C 25.1996695652174 74.5127857142858  24.8746565217392 78.2820428571429  24.8746565217392 78.2820428571429  C 24.8746565217392 78.2820428571429  23.9288608695651 80.5059214285715  23.9288608695651 80.5059214285715  C 23.9288608695651 80.5059214285715  18.5647347826087 80.60875  18.5647347826087 80.60875  C 18.5647347826087 80.60875  15.1512000000001 78.2141928571428  15.1512000000001 78.2141928571428  C 15.1512000000001 78.2141928571428  16.6439 76.0023249999999  16.6439 76.0023249999999  C 16.6439 76.0023249999999  14.7376869565218 75.4178035714285  14.7376869565218 75.4178035714285  C 14.7376869565218 75.4178035714285  14.9300782608695 73.5620428571428  14.9300782608695 73.5620428571428  C 14.9300782608695 73.5620428571428  13.7623913043478 71.5225392857143  13.7623913043478 71.5225392857143  C 13.7623913043478 71.5225392857143  11.9298 71.6024  11.9298 71.6024  C 11.9298 71.6024  9.00416956521747 69.2310214285714  9.00416956521747 69.2310214285714  C 9.00416956521747 69.2310214285714  7.95525217391304 67.56975  7.95525217391304 67.56975  C 7.95525217391304 67.56975  9.107547826087 65.6680535714286  9.107547826087 65.6680535714286  C 9.107547826087 65.6680535714286  12.5064608695653 66.7566035714286  12.5064608695653 66.7566035714286  C 12.5064608695653 66.7566035714286  12.3433130434782 69.1850857142857  12.3433130434782 69.1850857142857  C 12.3433130434782 69.1850857142857  14.5747956521739 70.8122214285714  14.5747956521739 70.8122214285714  C 14.5747956521739 70.8122214285714  14.3831739130435 67.7303142857143  14.3831739130435 67.7303142857143  C 14.3831739130435 67.7303142857143  15.5057130434783 65.8625428571429  15.5057130434783 65.8625428571429  C 15.5057130434783 65.8625428571429  14.3387956521739 61.8528607142857  14.3387956521739 61.8528607142857  C 14.3387956521739 61.8528607142857  15.1512000000001 59.8822607142857  15.1512000000001 59.8822607142857  C 15.1512000000001 59.8822607142857  14.5009173913043 55.3816142857142  14.5009173913043 55.3816142857142  C 14.5009173913043 55.3816142857142  15.4615913043478 53.971725  15.4615913043478 53.971725  C 15.4615913043478 53.971725  15.4910913043478 49.2414  15.4910913043478 49.2414  C 15.4910913043478 49.2414  13.3039869565218 50.4098107142856  13.3039869565218 50.4098107142856  C 13.3039869565218 50.4098107142856  11.7971782608696 48.118925  11.7971782608696 48.118925  C 11.7971782608696 48.118925  8.4572652173913 48.3823178571429  8.4572652173913 48.3823178571429  C 8.4572652173913 48.3823178571429  7.34934782608695 45.6215392857142  7.34934782608695 45.6215392857142  C 7.34934782608695 45.6215392857142  7.5114695652174 40.4103642857143  7.5114695652174 40.4103642857143  C 7.5114695652174 40.4103642857143  6.90556521739131 38.6123392857143  6.90556521739131 38.6123392857143  C 6.90556521739131 38.6123392857143  9.15166956521745 36.7224428571428  9.15166956521745 36.7224428571428  C 9.15166956521745 36.7224428571428  9.21066956521736 34.0765035714286  9.21066956521736 34.0765035714286  C 9.21066956521736 34.0765035714286  11.5162869565217 34.6262571428571  11.5162869565217 34.6262571428571  C 11.5162869565217 34.6262571428571  11.5606652173914 33.5726857142856  11.5606652173914 33.5726857142856  C 11.5606652173914 33.5726857142856  7.83673913043481 30.377625  7.83673913043481 30.377625  C 7.83673913043481 30.377625  7.39372608695646 28.7861  7.39372608695646 28.7861  C 7.39372608695646 28.7861  4.92573043478268 26.7246821428572  4.92573043478268 26.7246821428572  C 4.92573043478268 26.7246821428572  5.54625652173917 23.7592999999999  5.54625652173917 23.7592999999999  C 5.54625652173917 23.7592999999999  3.65492173913043 22.6018464285714  3.65492173913043 22.6018464285714  C 3.65492173913043 22.6018464285714  4.57121739130429 20.197175  4.57121739130429 20.197175  C 4.57121739130429 20.197175  4.34932608695647 16.8196357142857  4.34932608695647 16.8196357142857  C 4.34932608695647 16.8196357142857  2.13272173913037 16.9681892857143  2.13272173913037 16.9681892857143  C 2.13272173913037 16.9681892857143  0.84703478260866 14.0146071428572  0.84703478260866 14.0146071428572  C 0.84703478260866 14.0146071428572  3.07851739130439 11.5071071428572  3.07851739130439 11.5071071428572  C 3.07851739130439 11.5071071428572  3.75804347826079 9.41176428571436  3.75804347826079 9.41176428571436  Z " fill-rule="nonzero" fill="#169bd5" stroke="none" transform="matrix(1 0 0 1 383 563 )" />
  </g>
</svg>