<?xml version="1.0" encoding="utf-8"?>
<svg version="1.1" xmlns:xlink="http://www.w3.org/1999/xlink" width="133px" height="118px" xmlns="http://www.w3.org/2000/svg">
  <g transform="matrix(1 0 0 1 -534 -492 )">
    <path d="M 17.625825 72.1492035714286  C 17.625825 72.1492035714286  15.8428576923078 71.1192321428572  15.8428576923078 71.1192321428572  C 15.8428576923078 71.1192321428572  19.7919346153846 65.4872607142858  19.7919346153846 65.4872607142858  C 19.7919346153846 65.4872607142858  15.2093173076923 62.9806035714285  15.2093173076923 62.9806035714285  C 15.2093173076923 62.9806035714285  19.1289807692307 54.3952607142857  19.1289807692307 54.3952607142857  C 19.1289807692307 54.3952607142857  17.5818326923077 53.5140535714286  17.5818326923077 53.5140535714286  C 17.5818326923077 53.5140535714286  17.2429384615385 51.6370107142857  17.2429384615385 51.6370107142857  C 17.2429384615385 51.6370107142857  18.7010788461538 50.2410285714286  18.7010788461538 50.2410285714286  C 18.7010788461538 50.2410285714286  18.9665673076923 48.4328892857143  18.9665673076923 48.4328892857143  C 18.9665673076923 48.4328892857143  17.1393519230769 47.4827785714286  17.1393519230769 47.4827785714286  C 17.1393519230769 47.4827785714286  18.4652596153846 45.8122357142857  18.4652596153846 45.8122357142857  C 18.4652596153846 45.8122357142857  1.96379615384621 45.5149178571429  1.96379615384621 45.5149178571429  C 1.96379615384621 45.5149178571429  2.0822173076923 38.8546607142857  2.0822173076923 38.8546607142857  C 2.0822173076923 38.8546607142857  0.431482692307695 36.5545035714285  0.431482692307695 36.5545035714285  C 0.431482692307695 36.5545035714285  1.66915000000002 36.1882821428572  1.66915000000002 36.1882821428572  C 1.66915000000002 36.1882821428572  1.25685 29.8036392857142  1.25685 29.8036392857142  C 1.25685 29.8036392857142  1.96379615384621 27.9731642857143  1.96379615384621 27.9731642857143  C 1.96379615384621 27.9731642857143  3.52552307692307 29.4951535714286  3.52552307692307 29.4951535714286  C 3.52552307692307 29.4951535714286  2.37686346153849 32.0578607142858  2.37686346153849 32.0578607142858  C 2.37686346153849 32.0578607142858  4.17389807692301 32.2864857142857  4.17389807692301 32.2864857142857  C 4.17389807692301 32.2864857142857  6.53157884615383 30.6159428571429  6.53157884615383 30.6159428571429  C 6.53157884615383 30.6159428571429  10.1558288461539 30.5818071428571  10.1558288461539 30.5818071428571  C 10.1558288461539 30.5818071428571  10.0821673076922 32.3094535714286  10.0821673076922 32.3094535714286  C 10.0821673076922 32.3094535714286  15.0770846153846 31.9432321428571  15.0770846153846 31.9432321428571  C 15.0770846153846 31.9432321428571  14.753025 27.4701892857143  14.753025 27.4701892857143  C 14.753025 27.4701892857143  15.6812115384615 25.8685499999999  15.6812115384615 25.8685499999999  C 15.6812115384615 25.8685499999999  18.2447865384616 24.9643750000001  18.2447865384616 24.9643750000001  C 18.2447865384616 24.9643750000001  24.1231307692308 24.6670571428571  24.1231307692308 24.6670571428571  C 24.1231307692308 24.6670571428571  26.1861653846154 23.0652071428571  26.1861653846154 23.0652071428571  C 26.1861653846154 23.0652071428571  25.6260307692308 18.6033321428572  25.6260307692308 18.6033321428572  C 25.6260307692308 18.6033321428572  27.2465846153846 16.9905250000001  27.2465846153846 16.9905250000001  C 27.2465846153846 16.9905250000001  29.3978596153846 19.0723821428572  29.3978596153846 19.0723821428572  C 29.3978596153846 19.0723821428572  34.2899576923078 17.4018392857143  34.2899576923078 17.4018392857143  C 34.2899576923078 17.4018392857143  35.7332634615384 18.0086964285714  35.7332634615384 18.0086964285714  C 35.7332634615384 18.0086964285714  39.0339653846153 15.102525  39.0339653846153 15.102525  C 39.0339653846153 15.102525  38.3410865384615 12.4030642857142  38.3410865384615 12.4030642857142  C 38.3410865384615 12.4030642857142  40.1680461538461 12.689425  40.1680461538461 12.689425  C 40.1680461538461 12.689425  41.0082480769231 10.1494750000001  41.0082480769231 10.1494750000001  C 41.0082480769231 10.1494750000001  44.5734153846155 9.73731785714288  44.5734153846155 9.73731785714288  C 44.5734153846155 9.73731785714288  45.8110826923076 8.38811428571426  45.8110826923076 8.38811428571426  C 45.8110826923076 8.38811428571426  43.9987019230769 7.33601785714282  43.9987019230769 7.33601785714282  C 43.9987019230769 7.33601785714282  43.7636499999999 3.85817857142861  43.7636499999999 3.85817857142861  C 43.7636499999999 3.85817857142861  44.941723076923 1.68550357142853  44.941723076923 1.68550357142853  C 44.941723076923 1.68550357142853  47.1958173076923 3.06968571428569  47.1958173076923 3.06968571428569  C 47.1958173076923 3.06968571428569  50.8942403846154 2.73738928571431  50.8942403846154 2.73738928571431  C 50.8942403846154 2.73738928571431  52.6626288461538 6.34018214285711  52.6626288461538 6.34018214285711  C 52.6626288461538 6.34018214285711  54.5190019230769 6.22639642857145  54.5190019230769 6.22639642857145  C 54.5190019230769 6.22639642857145  55.4768576923077 8.67447499999996  55.4768576923077 8.67447499999996  C 55.4768576923077 8.67447499999996  49.7153999999999 11.0416392857143  49.7153999999999 11.0416392857143  C 49.7153999999999 11.0416392857143  52.4413884615385 13.2153678571429  52.4413884615385 13.2153678571429  C 52.4413884615385 13.2153678571429  53.5319884615385 13.2153678571429  53.5319884615385 13.2153678571429  C 53.5319884615385 13.2153678571429  56.993825 10.8241821428572  56.993825 10.8241821428572  C 56.993825 10.8241821428572  60.0584519230769 10.4128678571429  60.0584519230769 10.4128678571429  C 60.0584519230769 10.4128678571429  71.0882442307692 10.5845999999999  71.0882442307692 10.5845999999999  C 71.0882442307692 10.5845999999999  76.0095 12.3689285714286  76.0095 12.3689285714286  C 76.0095 12.3689285714286  76.657875 14.4168607142857  76.657875 14.4168607142857  C 76.657875 14.4168607142857  74.9923057692307 15.6404785714285  74.9923057692307 15.6404785714285  C 74.9923057692307 15.6404785714285  75.1547192307692 18.1233250000001  75.1547192307692 18.1233250000001  C 75.1547192307692 18.1233250000001  77.3208288461539 23.1910035714286  77.3208288461539 23.1910035714286  C 77.3208288461539 23.1910035714286  79.589501923077 22.5504321428572  79.589501923077 22.5504321428572  C 79.589501923077 22.5504321428572  81.8435961538462 19.9306214285714  81.8435961538462 19.9306214285714  C 81.8435961538462 19.9306214285714  85.7036653846153 17.8829  85.7036653846153 17.8829  C 85.7036653846153 17.8829  90.0504634615384 19.1412857142857  90.0504634615384 19.1412857142857  C 90.0504634615384 19.1412857142857  89.416923076923 24.72395  89.416923076923 24.72395  C 89.416923076923 24.72395  90.7574096153846 25.0901714285714  90.7574096153846 25.0901714285714  C 90.7574096153846 25.0901714285714  93.2033307692308 21.9555857142857  93.2033307692308 21.9555857142857  C 93.2033307692308 21.9555857142857  94.8093057692308 21.6462571428572  94.8093057692308 21.6462571428572  C 94.8093057692308 21.6462571428572  97.2846403846153 23.3627357142857  97.2846403846153 23.3627357142857  C 97.2846403846153 23.3627357142857  95.0893730769231 30.7874642857143  95.0893730769231 30.7874642857143  C 95.0893730769231 30.7874642857143  95.3251923076923 32.4929857142857  95.3251923076923 32.4929857142857  C 95.3251923076923 32.4929857142857  98.4194884615385 33.0876214285715  98.4194884615385 33.0876214285715  C 98.4194884615385 33.0876214285715  101.012476923077 34.5407071428572  101.012476923077 34.5407071428572  C 101.012476923077 34.5407071428572  105.270011538462 33.9458607142857  105.270011538462 33.9458607142857  C 105.270011538462 33.9458607142857  109.837794230769 37.6074428571429  109.837794230769 37.6074428571429  C 109.837794230769 37.6074428571429  111.782663461538 37.9047607142857  111.782663461538 37.9047607142857  C 111.782663461538 37.9047607142857  113.844930769231 33.2483964285715  113.844930769231 33.2483964285715  C 113.844930769231 33.2483964285715  115.686725 32.0009678571428  115.686725 32.0009678571428  C 115.686725 32.0009678571428  119.635801923077 31.0858357142857  119.635801923077 31.0858357142857  C 119.635801923077 31.0858357142857  122.699661538462 31.0169321428571  122.699661538462 31.0169321428571  C 122.699661538462 31.0169321428571  126.398084615385 33.2483964285715  126.398084615385 33.2483964285715  C 126.398084615385 33.2483964285715  126.207025 34.6435357142857  126.207025 34.6435357142857  C 126.207025 34.6435357142857  123.687698076923 35.3300428571428  123.687698076923 35.3300428571428  C 123.687698076923 35.3300428571428  121.889896153846 36.7492035714285  121.889896153846 36.7492035714285  C 121.889896153846 36.7492035714285  121.816490384615 38.2370571428572  121.816490384615 38.2370571428572  C 121.816490384615 38.2370571428572  123.274630769231 40.4565107142857  123.274630769231 40.4565107142857  C 123.274630769231 40.4565107142857  125.912378846154 42.0132678571428  125.912378846154 42.0132678571428  C 125.912378846154 42.0132678571428  125.484476923077 47.1165571428572  125.484476923077 47.1165571428572  C 125.484476923077 47.1165571428572  126.634159615385 48.7302071428571  126.634159615385 48.7302071428571  C 126.634159615385 48.7302071428571  129.978086538461 50.6420178571429  129.978086538461 50.6420178571429  C 129.978086538461 50.6420178571429  131.834715384615 52.6218892857143  131.834715384615 52.6218892857143  C 131.834715384615 52.6218892857143  131.834715384615 54.6816214285714  131.834715384615 54.6816214285714  C 131.834715384615 54.6816214285714  129.1829 54.2007714285714  129.1829 54.2007714285714  C 129.1829 54.2007714285714  123.259796153846 60.9208714285715  123.259796153846 60.9208714285715  C 123.259796153846 60.9208714285715  119.105080769231 61.252325  119.105080769231 61.252325  C 119.105080769231 61.252325  113.373803846154 60.3822857142857  113.373803846154 60.3822857142857  C 113.373803846154 60.3822857142857  110.588988461538 61.458825  110.588988461538 61.458825  C 110.588988461538 61.458825  107.569121153846 57.3600107142857  107.569121153846 57.3600107142857  C 107.569121153846 57.3600107142857  104.002930769231 60.4170535714286  104.002930769231 60.4170535714286  C 104.002930769231 60.4170535714286  102.854271153846 57.0047464285714  102.854271153846 57.0047464285714  C 102.854271153846 57.0047464285714  97.8299403846154 60.9320392857143  97.8299403846154 60.9320392857143  C 97.8299403846154 60.9320392857143  96.0321384615385 65.6021  96.0321384615385 65.6021  C 96.0321384615385 65.6021  94.5146596153846 67.261475  94.5146596153846 67.261475  C 94.5146596153846 67.261475  89.9328096153846 69.3791535714286  89.9328096153846 69.3791535714286  C 89.9328096153846 69.3791535714286  85.659673076923 70.1573214285715  85.659673076923 70.1573214285715  C 85.659673076923 70.1573214285715  83.7442173076923 71.5653142857142  83.7442173076923 71.5653142857142  C 83.7442173076923 71.5653142857142  80.001801923077 71.3369  80.001801923077 71.3369  C 80.001801923077 71.3369  78.3812480769231 68.2922892857143  78.3812480769231 68.2922892857143  C 78.3812480769231 68.2922892857143  76.0389134615384 68.0518642857143  76.0389134615384 68.0518642857143  C 76.0389134615384 68.0518642857143  73.7106461538462 70.0087678571428  73.7106461538462 70.0087678571428  C 73.7106461538462 70.0087678571428  71.6335442307692 73.5460285714286  71.6335442307692 73.5460285714286  C 71.6335442307692 73.5460285714286  71.353476923077 75.6066035714286  71.353476923077 75.6066035714286  C 71.353476923077 75.6066035714286  72.2376711538461 78.3656964285714  72.2376711538461 78.3656964285714  C 72.2376711538461 78.3656964285714  70.4398692307692 78.2169321428571  70.4398692307692 78.2169321428571  C 70.4398692307692 78.2169321428571  69.1139615384615 75.0109142857143  69.1139615384615 75.0109142857143  C 69.1139615384615 75.0109142857143  61.5761865384616 73.9921107142857  61.5761865384616 73.9921107142857  C 61.5761865384616 73.9921107142857  60.8544057692308 75.4230714285714  60.8544057692308 75.4230714285714  C 60.8544057692308 75.4230714285714  62.1509 78.91545  62.1509 78.91545  C 62.1509 78.91545  63.3885673076923 78.9953107142858  63.3885673076923 78.9953107142858  C 63.3885673076923 78.9953107142858  67.5670692307692 77.0835  67.5670692307692 77.0835  C 67.5670692307692 77.0835  69.1727884615385 78.2510678571429  69.1727884615385 78.2510678571429  C 69.1727884615385 78.2510678571429  69.4528557692307 85.4404285714286  69.4528557692307 85.4404285714286  C 69.4528557692307 85.4404285714286  70.7935980769231 87.6506107142857  70.7935980769231 87.6506107142857  C 70.7935980769231 87.6506107142857  73.0328576923076 89.436625  73.0328576923076 89.436625  C 73.0328576923076 89.436625  71.2652365384615 90.1463107142857  71.2652365384615 90.1463107142857  C 71.2652365384615 90.1463107142857  71.1028230769231 93.4439892857143  71.1028230769231 93.4439892857143  C 71.1028230769231 93.4439892857143  74.0347057692308 93.7762857142857  74.0347057692308 93.7762857142857  C 74.0347057692308 93.7762857142857  75.9059134615385 97.1885928571429  75.9059134615385 97.1885928571429  C 75.9059134615385 97.1885928571429  76.4660480769231 100.257014285714  76.4660480769231 100.257014285714  C 76.4660480769231 100.257014285714  74.2411115384615 106.2118  74.2411115384615 106.2118  C 74.2411115384615 106.2118  74.1382923076923 108.593714285714  74.1382923076923 108.593714285714  C 74.1382923076923 108.593714285714  75.8910788461538 111.468278571429  75.8910788461538 111.468278571429  C 75.8910788461538 111.468278571429  74.5800057692308 114.423546428571  74.5800057692308 114.423546428571  C 74.5800057692308 114.423546428571  71.5445365384616 114.503407142857  71.5445365384616 114.503407142857  C 71.5445365384616 114.503407142857  69.79175 111.789407142857  69.79175 111.789407142857  C 69.79175 111.789407142857  59.1008519230769 112.144671428571  59.1008519230769 112.144671428571  C 59.1008519230769 112.144671428571  56.0661499999999 113.736196428571  56.0661499999999 113.736196428571  C 56.0661499999999 113.736196428571  55.0783692307692 116.049839285714  55.0783692307692 116.049839285714  C 55.0783692307692 116.049839285714  54.0765211538461 116.518889285714  54.0765211538461 116.518889285714  C 54.0765211538461 116.518889285714  53.1337557692307 114.686939285714  53.1337557692307 114.686939285714  C 53.1337557692307 114.686939285714  50.2752788461538 114.984467857143  50.2752788461538 114.984467857143  C 50.2752788461538 114.984467857143  49.3619269230769 116.004114285714  49.3619269230769 116.004114285714  C 49.3619269230769 116.004114285714  46.0471576923077 114.904396428571  46.0471576923077 114.904396428571  C 46.0471576923077 114.904396428571  42.7316211538462 112.155628571429  42.7316211538462 112.155628571429  C 42.7316211538462 112.155628571429  44.6616557692308 110.163114285714  44.6616557692308 110.163114285714  C 44.6616557692308 110.163114285714  42.1423288461538 109.224171428571  42.1423288461538 109.224171428571  C 42.1423288461538 109.224171428571  44.5734153846155 109.029471428571  44.5734153846155 109.029471428571  C 44.5734153846155 109.029471428571  46.4154653846154 106.773564285714  46.4154653846154 106.773564285714  C 46.4154653846154 106.773564285714  44.2936038461538 104.058721428571  44.2936038461538 104.058721428571  C 44.2936038461538 104.058721428571  45.369625 101.230725  45.369625 101.230725  C 45.369625 101.230725  42.378148076923 99.1575071428571  42.378148076923 99.1575071428571  C 42.378148076923 99.1575071428571  28.484251923077 91.944125  28.484251923077 91.944125  C 28.484251923077 91.944125  14.988076923077 85.1660785714286  14.988076923077 85.1660785714286  C 14.988076923077 85.1660785714286  17.6112461538462 81.1127785714285  17.6112461538462 81.1127785714285  C 17.6112461538462 81.1127785714285  18.7453269230769 77.4836464285715  18.7453269230769 77.4836464285715  C 18.7453269230769 77.4836464285715  20.7495346153846 76.7861821428571  20.7495346153846 76.7861821428571  C 20.7495346153846 76.7861821428571  21.1324211538461 75.4808071428571  21.1324211538461 75.4808071428571  C 21.1324211538461 75.4808071428571  17.625825 72.1492035714286  17.625825 72.1492035714286  Z " fill-rule="nonzero" fill="#169bd5" stroke="none" transform="matrix(1 0 0 1 534 492 )" />
  </g>
</svg>