<?xml version="1.0" encoding="utf-8"?>
<svg version="1.1" xmlns:xlink="http://www.w3.org/1999/xlink" width="248px" height="223px" xmlns="http://www.w3.org/2000/svg">
  <g transform="matrix(1 0 0 1 -587 -548 )">
    <path d="M 72.8854103092784 30.9725962264151  C 72.8854103092784 30.9725962264151  75.5361979381443 31.4526773584906  75.5361979381443 31.4526773584906  C 75.5361979381443 31.4526773584906  74.4613608247423 35.7835056603774  74.4613608247423 35.7835056603774  C 74.4613608247423 35.7835056603774  74.8146969072165 37.0289396226415  74.8146969072165 37.0289396226415  C 74.8146969072165 37.0289396226415  79.5422927835052 37.9775311320755  79.5422927835052 37.9775311320755  C 79.5422927835052 37.9775311320755  81.5158103092783 40.4690301886792  81.5158103092783 40.4690301886792  C 81.5158103092783 40.4690301886792  83.2247092783505 40.4231679245283  83.2247092783505 40.4231679245283  C 83.2247092783505 40.4231679245283  86.1406268041237 38.5602764150943  86.1406268041237 38.5602764150943  C 86.1406268041237 38.5602764150943  84.3729237113402 38.9488433962264  84.3729237113402 38.9488433962264  C 84.3729237113402 38.9488433962264  84.9622432989691 36.5497  84.9622432989691 36.5497  C 84.9622432989691 36.5497  88.2910680412372 36.5038377358491  88.2910680412372 36.5038377358491  C 88.2910680412372 36.5038377358491  88.246837113402 33.2579254716981  88.246837113402 33.2579254716981  C 88.246837113402 33.2579254716981  87.1860618556701 32.0015518867925  87.1860618556701 32.0015518867925  C 87.1860618556701 32.0015518867925  88.2322639175258 31.007308490566  88.2322639175258 31.007308490566  C 88.2322639175258 31.007308490566  89.7632164948453 32.1153660377359  89.7632164948453 32.1153660377359  C 89.7632164948453 32.1153660377359  90.6324948453609 30.6526122641509  90.6324948453609 30.6526122641509  C 90.6324948453609 30.6526122641509  88.6150020618556 28.5046594339623  88.6150020618556 28.5046594339623  C 88.6150020618556 28.5046594339623  91.2069855670103 26.5508849056604  91.2069855670103 26.5508849056604  C 91.2069855670103 26.5508849056604  91.7226721649485 24.0829481132075  91.7226721649485 24.0829481132075  C 91.7226721649485 24.0829481132075  97.127793814433 26.1961886792453  97.127793814433 26.1961886792453  C 97.127793814433 26.1961886792453  97.7171134020619 22.5745424528302  97.7171134020619 22.5745424528302  C 97.7171134020619 22.5745424528302  95.8906061855671 21.9230037735849  95.8906061855671 21.9230037735849  C 95.8906061855671 21.9230037735849  94.2706804123712 19.2956009433962  94.2706804123712 19.2956009433962  C 94.2706804123712 19.2956009433962  98.0704494845361 16.5537528301887  98.0704494845361 16.5537528301887  C 98.0704494845361 16.5537528301887  97.7462597938144 15.0453471698113  97.7462597938144 15.0453471698113  C 97.7462597938144 15.0453471698113  99.4543917525773 11.6986641509433  99.4543917525773 11.6986641509433  C 99.4543917525773 11.6986641509433  101.266325773196 10.7959349056604  101.266325773196 10.7959349056604  C 101.266325773196 10.7959349056604  100.131917525773 10.0417320754716  100.131917525773 10.0417320754716  C 100.131917525773 10.0417320754716  101.958424742268 6.3979962264151  101.958424742268 6.3979962264151  C 101.958424742268 6.3979962264151  104.255620618557 5.2325056603773  104.255620618557 5.2325056603773  C 104.255620618557 5.2325056603773  105.537039175258 5.74645754716977  105.537039175258 5.74645754716977  C 105.537039175258 5.74645754716977  107.304486597938 8.14560094339619  107.304486597938 8.14560094339619  C 107.304486597938 8.14560094339619  110.249806185567 8.46558490566038  110.249806185567 8.46558490566038  C 110.249806185567 8.46558490566038  113.269525773196 9.83640377358485  113.269525773196 9.83640377358485  C 113.269525773196 9.83640377358485  115.59612371134 5.87205283018869  115.59612371134 5.87205283018869  C 115.59612371134 5.87205283018869  119.778630927835 7.17428867924523  119.778630927835 7.17428867924523  C 119.778630927835 7.17428867924523  122.356808247423 6.87744622641505  122.356808247423 6.87744622641505  C 122.356808247423 6.87744622641505  128.197591752577 4.61567924528305  128.197591752577 4.61567924528305  C 128.197591752577 4.61567924528305  132.041336082474 5.12984150943397  132.041336082474 5.12984150943397  C 132.041336082474 5.12984150943397  142.395208247423 8.04293679245285  142.395208247423 8.04293679245285  C 142.395208247423 8.04293679245285  143.588420618557 7.72316320754722  143.588420618557 7.72316320754722  C 143.588420618557 7.72316320754722  143.367265979382 3.38202641509432  143.367265979382 3.38202641509432  C 143.367265979382 3.38202641509432  144.133509278351 1.65735283018869  144.133509278351 1.65735283018869  C 144.133509278351 1.65735283018869  146.092197938144 1.2349150943396  146.092197938144 1.2349150943396  C 146.092197938144 1.2349150943396  148.639950515464 2.52536981132076  148.639950515464 2.52536981132076  C 148.639950515464 2.52536981132076  155.974358762887 10.190258490566  155.974358762887 10.190258490566  C 155.974358762887 10.190258490566  157.991851546392 11.6180896226415  157.991851546392 11.6180896226415  C 157.991851546392 11.6180896226415  182.602144329897 22.0944613207547  182.602144329897 22.0944613207547  C 182.602144329897 22.0944613207547  185.415282474227 20.9983952830188  185.415282474227 20.9983952830188  C 185.415282474227 20.9983952830188  197.683868041237 23.1804292452831  197.683868041237 23.1804292452831  C 197.683868041237 23.1804292452831  200.011232989691 24.5971103773584  200.011232989691 24.5971103773584  C 200.011232989691 24.5971103773584  200.584956701031 27.3280188679245  200.584956701031 27.3280188679245  C 200.584956701031 27.3280188679245  200.172816494845 33.9094641509434  200.172816494845 33.9094641509434  C 200.172816494845 33.9094641509434  200.820940206186 36.3435301886792  200.820940206186 36.3435301886792  C 200.820940206186 36.3435301886792  202.588387628866 38.0810367924528  202.588387628866 38.0810367924528  C 202.588387628866 38.0810367924528  215.34249072165 43.7149424528301  215.34249072165 43.7149424528301  C 215.34249072165 43.7149424528301  216.638482474227 41.4285613207547  216.638482474227 41.4285613207547  C 216.638482474227 41.4285613207547  217.728915463918 34.4924198113208  217.728915463918 34.4924198113208  C 217.728915463918 34.4924198113208  218.686144329897 32.7328235849057  218.686144329897 32.7328235849057  C 218.686144329897 32.7328235849057  223.060404123711 32.3783377358491  223.060404123711 32.3783377358491  C 223.060404123711 32.3783377358491  227.065987628866 33.8985245283019  227.065987628866 33.8985245283019  C 227.065987628866 33.8985245283019  232.589228865979 37.6236764150943  232.589228865979 37.6236764150943  C 232.589228865979 37.6236764150943  234.798474226804 41.3258971698114  234.798474226804 41.3258971698114  C 234.798474226804 41.3258971698114  235.431769072165 47.1430415094339  235.431769072165 47.1430415094339  C 235.431769072165 47.1430415094339  235.741129896907 50.9487679245283  235.741129896907 50.9487679245283  C 235.741129896907 50.9487679245283  232.942564948454 54.2981858490567  232.942564948454 54.2981858490567  C 232.942564948454 54.2981858490567  229.628569072165 63.5343830188679  229.628569072165 63.5343830188679  C 229.628569072165 63.5343830188679  229.569764948453 68.940870754717  229.569764948453 68.940870754717  C 229.569764948453 68.940870754717  228.43612371134 72.7026283018868  228.43612371134 72.7026283018868  C 228.43612371134 72.7026283018868  228.804288659794 74.9319971698114  228.804288659794 74.9319971698114  C 228.804288659794 74.9319971698114  230.512420618557 75.9033094339623  230.512420618557 75.9033094339623  C 230.512420618557 75.9033094339623  233.0456 75.4570990566038  233.0456 75.4570990566038  C 233.0456 75.4570990566038  235.402367010309 73.6051471698113  235.402367010309 73.6051471698113  C 235.402367010309 73.6051471698113  237.316824742268 66.0826839622641  237.316824742268 66.0826839622641  C 237.316824742268 66.0826839622641  240.174193814433 61.9683339622642  240.174193814433 61.9683339622642  C 240.174193814433 61.9683339622642  243.148915463918 59.7734669811321  243.148915463918 59.7734669811321  C 243.148915463918 59.7734669811321  245.196321649485 61.4421801886792  245.196321649485 61.4421801886792  C 245.196321649485 61.4421801886792  246.624494845361 68.6210971698114  246.624494845361 68.6210971698114  C 246.624494845361 68.6210971698114  246.963257731959 75.2747018867924  246.963257731959 75.2747018867924  C 246.963257731959 75.2747018867924  246.787101030928 78.2814150943396  246.787101030928 78.2814150943396  C 246.787101030928 78.2814150943396  245.652692783505 81.7690509433962  245.652692783505 81.7690509433962  C 245.652692783505 81.7690509433962  242.515620618557 85.084387735849  242.515620618557 85.084387735849  C 242.515620618557 85.084387735849  241.720742268041 88.0917320754717  241.720742268041 88.0917320754717  C 241.720742268041 88.0917320754717  241.85292371134 90.7795132075472  241.85292371134 90.7795132075472  C 241.85292371134 90.7795132075472  236.874515463918 95.1934405660377  236.874515463918 95.1934405660377  C 236.874515463918 95.1934405660377  234.474540206185 96.5312301886792  234.474540206185 96.5312301886792  C 234.474540206185 96.5312301886792  232.574655670103 96.5541613207547  232.574655670103 96.5541613207547  C 232.574655670103 96.5541613207547  229.908272164949 94.8846066037736  229.908272164949 94.8846066037736  C 229.908272164949 94.8846066037736  227.522870103093 94.6445660377359  227.522870103093 94.6445660377359  C 227.522870103093 94.6445660377359  226.595043298969 95.7076028301886  226.595043298969 95.7076028301886  C 226.595043298969 95.7076028301886  226.300255670103 100.247966981132  226.300255670103 100.247966981132  C 226.300255670103 100.247966981132  224.783364948454 103.735602830189  224.783364948454 103.735602830189  C 224.783364948454 103.735602830189  221.056973195876 106.503748113207  221.056973195876 106.503748113207  C 221.056973195876 106.503748113207  216.977245360825 106.675205660377  216.977245360825 106.675205660377  C 216.977245360825 106.675205660377  212.721360824742 108.436274528302  212.721360824742 108.436274528302  C 212.721360824742 108.436274528302  208.921336082474 114.600331132075  208.921336082474 114.600331132075  C 208.921336082474 114.600331132075  208.656206185567 117.975204716981  208.656206185567 117.975204716981  C 208.656206185567 117.975204716981  206.653542268041 121.886961320755  206.653542268041 121.886961320755  C 206.653542268041 121.886961320755  206.373583505155 125.845421698113  206.373583505155 125.845421698113  C 206.373583505155 125.845421698113  207.065682474227 131.862845283019  207.065682474227 131.862845283019  C 207.065682474227 131.862845283019  210.408313402062 137.857337735849  210.408313402062 137.857337735849  C 210.408313402062 137.857337735849  210.526688659794 139.253822641509  210.526688659794 139.253822641509  C 210.526688659794 139.253822641509  207.272008247423 144.162347169811  207.272008247423 144.162347169811  C 207.272008247423 144.162347169811  206.726919587629 145.809812264151  206.726919587629 145.809812264151  C 206.726919587629 145.809812264151  206.152428865979 155.753508490566  206.152428865979 155.753508490566  C 206.152428865979 155.753508490566  206.344181443299 160.560420754717  206.344181443299 160.560420754717  C 206.344181443299 160.560420754717  203.60467628866 164.394127358491  203.60467628866 164.394127358491  C 203.60467628866 164.394127358491  203.913781443299 166.317397169811  203.913781443299 166.317397169811  C 203.913781443299 166.317397169811  205.460329896907 168.720748113208  205.460329896907 168.720748113208  C 205.460329896907 168.720748113208  207.949534020619 171.169961320755  207.949534020619 171.169961320755  C 207.949534020619 171.169961320755  210.600321649484 172.360276415094  210.600321649484 172.360276415094  C 210.600321649484 172.360276415094  214.00252371134 172.085313207547  214.00252371134 172.085313207547  C 214.00252371134 172.085313207547  216.034589690722 173.218616037736  216.034589690722 173.218616037736  C 216.034589690722 173.218616037736  216.903868041237 175.977504716981  216.903868041237 175.977504716981  C 216.903868041237 175.977504716981  216.138136082474 178.987583962264  216.138136082474 178.987583962264  C 216.138136082474 178.987583962264  213.428032989691 182.100958490566  213.428032989691 182.100958490566  C 213.428032989691 182.100958490566  207.964107216495 185.134810377359  207.964107216495 185.134810377359  C 207.964107216495 185.134810377359  203.412668041237 187.046930188679  203.412668041237 187.046930188679  C 203.412668041237 187.046930188679  201.439406185567 188.512208490566  201.439406185567 188.512208490566  C 201.439406185567 188.512208490566  201.277822680412 191.568781132075  201.277822680412 191.568781132075  C 201.277822680412 191.568781132075  202.662020618557 194.980891509434  202.662020618557 194.980891509434  C 202.662020618557 194.980891509434  202.293855670103 200.098951886792  202.293855670103 200.098951886792  C 202.293855670103 200.098951886792  198.921055670103 203.350754716981  198.921055670103 203.350754716981  C 198.921055670103 203.350754716981  197.050573195876 203.786025471698  197.050573195876 203.786025471698  C 197.050573195876 203.786025471698  193.147769072165 202.28603490566  193.147769072165 202.28603490566  C 193.147769072165 202.28603490566  191.925410309278 202.606018867924  191.925410309278 202.606018867924  C 191.925410309278 202.606018867924  184.104717525773 200.820125471698  184.104717525773 200.820125471698  C 184.104717525773 200.820125471698  178.920750515464 200.91185  178.920750515464 200.91185  C 178.920750515464 200.91185  176.166416494845 205.652493396226  176.166416494845 205.652493396226  C 176.166416494845 205.652493396226  174.619868041237 206.785796226415  174.619868041237 206.785796226415  C 174.619868041237 206.785796226415  168.301492783505 205.90431509434  168.301492783505 205.90431509434  C 168.301492783505 205.90431509434  166.799175257732 208.045535849057  166.799175257732 208.045535849057  C 166.799175257732 208.045535849057  165.120445360825 207.3008  165.120445360825 207.3008  C 165.120445360825 207.3008  160.09806185567 208.400232075472  160.09806185567 208.400232075472  C 160.09806185567 208.400232075472  158.345954639175 207.62141509434  158.345954639175 207.62141509434  C 158.345954639175 207.62141509434  158.536940206186 205.217222641509  158.536940206186 205.217222641509  C 158.536940206186 205.217222641509  161.688841237114 202.263103773585  161.688841237114 202.263103773585  C 161.688841237114 202.263103773585  162.263331958763 199.388928301887  162.263331958763 199.388928301887  C 162.263331958763 199.388928301887  160.422251546392 193.080552830189  160.422251546392 193.080552830189  C 160.422251546392 193.080552830189  155.856750515464 183.371848113208  155.856750515464 183.371848113208  C 155.856750515464 183.371848113208  151.74787628866 179.514368867925  151.74787628866 179.514368867925  C 151.74787628866 179.514368867925  148.448197938144 178.049300943396  148.448197938144 178.049300943396  C 148.448197938144 178.049300943396  146.327158762887 179.262336792453  146.327158762887 179.262336792453  C 146.327158762887 179.262336792453  145.458903092783 183.600949056604  145.458903092783 183.600949056604  C 145.458903092783 183.600949056604  146.857674226804 184.654518867925  146.857674226804 184.654518867925  C 146.857674226804 184.654518867925  150.362911340206 184.402697169811  150.362911340206 184.402697169811  C 150.362911340206 184.402697169811  151.997410309278 184.940421698113  151.997410309278 184.940421698113  C 151.997410309278 184.940421698113  152.572156701031 186.909553773585  152.572156701031 186.909553773585  C 152.572156701031 186.909553773585  150.245303092784 191.065768867925  150.245303092784 191.065768867925  C 150.245303092784 191.065768867925  153.14664742268 195.828291509434  153.14664742268 195.828291509434  C 153.14664742268 195.828291509434  150.510432989691 198.942717924528  150.510432989691 198.942717924528  C 150.510432989691 198.942717924528  148.654779381443 198.10625754717  148.654779381443 198.10625754717  C 148.654779381443 198.10625754717  143.323035051546 198.186832075472  143.323035051546 198.186832075472  C 143.323035051546 198.186832075472  138.757789690722 198.885074528302  138.757789690722 198.885074528302  C 138.757789690722 198.885074528302  137.240643298969 198.129188679245  137.240643298969 198.129188679245  C 137.240643298969 198.129188679245  131.246457731959 192.96610754717  131.246457731959 192.96610754717  C 131.246457731959 192.96610754717  128.345113402062 191.637574528302  128.345113402062 191.637574528302  C 128.345113402062 191.637574528302  126.916173195876 188.718167924528  126.916173195876 188.718167924528  C 126.916173195876 188.718167924528  120.869063917526 187.985213207547  120.869063917526 187.985213207547  C 120.869063917526 187.985213207547  119.867604123711 188.832823584906  119.867604123711 188.832823584906  C 119.867604123711 188.832823584906  118.954350515464 192.782658490566  118.954350515464 192.782658490566  C 118.954350515464 192.782658490566  116.62775257732 195.198000943396  116.62775257732 195.198000943396  C 116.62775257732 195.198000943396  111.620197938144 198.163900943396  111.620197938144 198.163900943396  C 111.620197938144 198.163900943396  104.462202061856 203.121653773585  104.462202061856 203.121653773585  C 104.462202061856 203.121653773585  97.4959587628867 204.048997169811  97.4959587628867 204.048997169811  C 97.4959587628867 204.048997169811  92.7681072164948 206.373456603774  92.7681072164948 206.373456603774  C 92.7681072164948 206.373456603774  90.2349278350515 209.556466037736  90.2349278350515 209.556466037736  C 90.2349278350515 209.556466037736  89.4247092783506 211.869985849057  89.4247092783506 211.869985849057  C 89.4247092783506 211.869985849057  89.954969072165 213.530283962264  89.954969072165 213.530283962264  C 89.954969072165 213.530283962264  94.0201237113402 216.920304716981  94.0201237113402 216.920304716981  C 94.0201237113402 216.920304716981  93.4456329896908 219.199112264151  93.4456329896908 219.199112264151  C 93.4456329896908 219.199112264151  89.7338144329897 219.920916981132  89.7338144329897 219.920916981132  C 89.7338144329897 219.920916981132  86.0524206185567 221.272381132076  86.0524206185567 221.272381132076  C 86.0524206185567 221.272381132076  84.5058721649485 222.726509433962  84.5058721649485 222.726509433962  C 84.5058721649485 222.726509433962  68.8793154639175 219.165031132075  68.8793154639175 219.165031132075  C 68.8793154639175 219.165031132075  65.4180536082475 217.332644339623  65.4180536082475 217.332644339623  C 65.4180536082475 217.332644339623  65.0501443298969 213.084073584906  65.0501443298969 213.084073584906  C 65.0501443298969 213.084073584906  63.4887670103092 213.084073584906  63.4887670103092 213.084073584906  C 63.4887670103092 213.084073584906  62.1636288659794 211.149022641509  62.1636288659794 211.149022641509  C 62.1636288659794 211.149022641509  60.7940041237113 211.377913207547  60.7940041237113 211.377913207547  C 60.7940041237113 211.377913207547  58.7317690721649 208.881154716981  58.7317690721649 208.881154716981  C 58.7317690721649 208.881154716981  54.7108453608247 208.297567924528  54.7108453608247 208.297567924528  C 54.7108453608247 208.297567924528  53.1497237113403 208.686976415094  53.1497237113403 208.686976415094  C 53.1497237113403 208.686976415094  51.3388123711341 207.094630188679  51.3388123711341 207.094630188679  C 51.3388123711341 207.094630188679  53.5478020618557 206.236080188679  53.5478020618557 206.236080188679  C 53.5478020618557 206.236080188679  52.0894597938144 204.40453490566  52.0894597938144 204.40453490566  C 52.0894597938144 204.40453490566  50.7055175257732 205.354599056604  50.7055175257732 205.354599056604  C 50.7055175257732 205.354599056604  49.4680742268042 202.308966037736  49.4680742268042 202.308966037736  C 49.4680742268042 202.308966037736  47.8775505154639 200.682749056604  47.8775505154639 200.682749056604  C 47.8775505154639 200.682749056604  49.0853360824742 198.736548113208  49.0853360824742 198.736548113208  C 49.0853360824742 198.736548113208  48.2163134020618 196.881230188679  48.2163134020618 196.881230188679  C 48.2163134020618 196.881230188679  48.1127670103093 193.721151886792  48.1127670103093 193.721151886792  C 48.1127670103093 193.721151886792  46.5074144329897 189.599649056604  46.5074144329897 189.599649056604  C 46.5074144329897 189.599649056604  44.7553072164949 189.324896226415  44.7553072164949 189.324896226415  C 44.7553072164949 189.324896226415  42.7817896907217 184.16181509434  42.7817896907217 184.16181509434  C 42.7817896907217 184.16181509434  38.3039835051547 176.744540566038  38.3039835051547 176.744540566038  C 38.3039835051547 176.744540566038  36.5958515463917 169.544375471698  36.5958515463917 169.544375471698  C 36.5958515463917 169.544375471698  34.9171216494846 165.950709433962  34.9171216494846 165.950709433962  C 34.9171216494846 165.950709433962  32.2803958762887 163.48971509434  32.2803958762887 163.48971509434  C 32.2803958762887 163.48971509434  30.5134597938145 164.325333962264  30.5134597938145 164.325333962264  C 30.5134597938145 164.325333962264  29.0108865979381 162.677868867925  29.0108865979381 162.677868867925  C 29.0108865979381 162.677868867925  27.7885278350515 159.141004716981  27.7885278350515 159.141004716981  C 27.7885278350515 159.141004716981  25.1229113402062 156.589127358491  25.1229113402062 156.589127358491  C 25.1229113402062 156.589127358491  20.5129237113401 155.788220754717  20.5129237113401 155.788220754717  C 20.5129237113401 155.788220754717  18.4358597938144 154.918731132075  18.4358597938144 154.918731132075  C 18.4358597938144 154.918731132075  13.5172783505154 151.496522641509  13.5172783505154 151.496522641509  C 13.5172783505154 151.496522641509  12.0147051546392 149.780264150943  12.0147051546392 149.780264150943  C 12.0147051546392 149.780264150943  11.7789773195876 146.358686792453  11.7789773195876 146.358686792453  C 11.7789773195876 146.358686792453  13.0015917525774 142.342583018868  13.0015917525774 142.342583018868  C 13.0015917525774 142.342583018868  12.0147051546392 139.825628301887  12.0147051546392 139.825628301887  C 12.0147051546392 139.825628301887  13.885443298969 137.914981132075  13.885443298969 137.914981132075  C 13.885443298969 137.914981132075  17.2142680412371 138.989799056604  17.2142680412371 138.989799056604  C 17.2142680412371 138.989799056604  19.8502268041237 138.532649056604  19.8502268041237 138.532649056604  C 19.8502268041237 138.532649056604  20.4541195876289 137.388196226415  20.4541195876289 137.388196226415  C 20.4541195876289 137.388196226415  17.5821773195876 136.164010377359  17.5821773195876 136.164010377359  C 17.5821773195876 136.164010377359  17.2436701030928 135.214787735849  17.2436701030928 135.214787735849  C 17.2436701030928 135.214787735849  23.0167010309278 135.100132075472  23.0167010309278 135.100132075472  C 23.0167010309278 135.100132075472  22.2806268041238 132.594958490566  22.2806268041238 132.594958490566  C 22.2806268041238 132.594958490566  22.589731958763 130.272182075472  22.589731958763 130.272182075472  C 22.589731958763 130.272182075472  20.3513402061855 128.327664150943  20.3513402061855 128.327664150943  C 20.3513402061855 128.327664150943  20.6607010309279 133.269428301887  20.6607010309279 133.269428301887  C 20.6607010309279 133.269428301887  19.084750515464 133.521460377358  19.084750515464 133.521460377358  C 19.084750515464 133.521460377358  19.1581278350515 129.654514150943  19.1581278350515 129.654514150943  C 19.1581278350515 129.654514150943  16.0798597938145 127.641413207547  16.0798597938145 127.641413207547  C 16.0798597938145 127.641413207547  18.878169072165 126.05075  18.878169072165 126.05075  C 18.878169072165 126.05075  19.2903092783506 124.335333018868  19.2903092783506 124.335333018868  C 19.2903092783506 124.335333018868  21.7795134020618 121.486613207547  21.7795134020618 121.486613207547  C 21.7795134020618 121.486613207547  25.5644536082475 114.680905660377  25.5644536082475 114.680905660377  C 25.5644536082475 114.680905660377  23.8711505154639 110.038087735849  23.8711505154639 110.038087735849  C 23.8711505154639 110.038087735849  21.8234886597938 113.800266037736  21.8234886597938 113.800266037736  C 21.8234886597938 113.800266037736  22.0740453608248 115.390298113208  22.0740453608248 115.390298113208  C 22.0740453608248 115.390298113208  20.2917690721649 116.304808490566  20.2917690721649 116.304808490566  C 20.2917690721649 116.304808490566  17.8621360824742 114.852363207547  17.8621360824742 114.852363207547  C 17.8621360824742 114.852363207547  13.9882226804124 113.594306603774  13.9882226804124 113.594306603774  C 13.9882226804124 113.594306603774  14.179975257732 109.316914150943  14.179975257732 109.316914150943  C 14.179975257732 109.316914150943  11.3962391752577 107.247011320755  11.3962391752577 107.247011320755  C 11.3962391752577 107.247011320755  15.417162886598 101.882809433962  15.417162886598 101.882809433962  C 15.417162886598 101.882809433962  13.2079175257732 100.716266981132  13.2079175257732 100.716266981132  C 13.2079175257732 100.716266981132  8.56852783505158 99.4929226415094  8.56852783505158 99.4929226415094  C 8.56852783505158 99.4929226415094  8.31797113402062 97.4577320754717  8.31797113402062 97.4577320754717  C 8.31797113402062 97.4577320754717  5.06329072164942 96.2911896226415  5.06329072164942 96.2911896226415  C 5.06329072164942 96.2911896226415  4.7245278350515 93.5577566037736  4.7245278350515 93.5577566037736  C 4.7245278350515 93.5577566037736  3.28101443298968 90.9966226415095  3.28101443298968 90.9966226415095  C 3.28101443298968 90.9966226415095  1.36630103092785 90.6189952830189  1.36630103092785 90.6189952830189  C 1.36630103092785 90.6189952830189  2.35369896907211 88.3090518867924  2.35369896907211 88.3090518867924  C 2.35369896907211 88.3090518867924  5.38722474226805 86.7200716981132  5.38722474226805 86.7200716981132  C 5.38722474226805 86.7200716981132  13.5172783505154 86.3653754716981  13.5172783505154 86.3653754716981  C 13.5172783505154 86.3653754716981  15.2693855670104 89.0750358490566  15.2693855670104 89.0750358490566  C 15.2693855670104 89.0750358490566  18.3036783505155 88.9953028301887  18.3036783505155 88.9953028301887  C 18.3036783505155 88.9953028301887  19.614243298969 86.0447603773585  19.614243298969 86.0447603773585  C 19.614243298969 86.0447603773585  17.8621360824742 83.1747924528302  17.8621360824742 83.1747924528302  C 17.8621360824742 83.1747924528302  17.9649154639175 80.7966867924528  17.9649154639175 80.7966867924528  C 17.9649154639175 80.7966867924528  20.1889896907217 74.8514226415095  20.1889896907217 74.8514226415095  C 20.1889896907217 74.8514226415095  19.6290721649485 71.7879075471698  19.6290721649485 71.7879075471698  C 19.6290721649485 71.7879075471698  17.7585896907216 68.3810566037736  17.7585896907216 68.3810566037736  C 17.7585896907216 68.3810566037736  14.8278432989691 68.0492915094339  14.8278432989691 68.0492915094339  C 14.8278432989691 68.0492915094339  14.9901938144329 64.7568858490566  14.9901938144329 64.7568858490566  C 14.9901938144329 64.7568858490566  16.7571298969072 64.0483349056604  16.7571298969072 64.0483349056604  C 16.7571298969072 64.0483349056604  14.5187381443299 62.2651764150944  14.5187381443299 62.2651764150944  C 14.5187381443299 62.2651764150944  13.1785154639175 60.0585283018868  13.1785154639175 60.0585283018868  C 13.1785154639175 60.0585283018868  12.898556701031 52.8806632075472  12.898556701031 52.8806632075472  C 12.898556701031 52.8806632075472  11.2934597938144 51.7149622641509  11.2934597938144 51.7149622641509  C 11.2934597938144 51.7149622641509  9.67327835051547 53.6237160377359  9.67327835051547 53.6237160377359  C 9.67327835051547 53.6237160377359  8.43609072164948 53.5439830188679  8.43609072164948 53.5439830188679  C 8.43609072164948 53.5439830188679  7.14009896907223 50.0571886792453  7.14009896907223 50.0571886792453  C 7.14009896907223 50.0571886792453  7.86160000000004 48.6285160377358  7.86160000000004 48.6285160377358  C 7.86160000000004 48.6285160377358  12.8397525773196 49.6456905660378  12.8397525773196 49.6456905660378  C 12.8397525773196 49.6456905660378  14.1651463917525 52.8465820754716  14.1651463917525 52.8465820754716  C 14.1651463917525 52.8465820754716  15.9622515463917 52.995108490566  15.9622515463917 52.995108490566  C 15.9622515463917 52.995108490566  15.0784 50.2404273584906  15.0784 50.2404273584906  C 15.0784 50.2404273584906  15.3583587628865 48.1831471698114  15.3583587628865 48.1831471698114  C 15.3583587628865 48.1831471698114  17.4346556701032 44.6515424528301  17.4346556701032 44.6515424528301  C 17.4346556701032 44.6515424528301  19.7620206185566 42.6977679245283  19.7620206185566 42.6977679245283  C 19.7620206185566 42.6977679245283  22.1034474226805 42.937808490566  22.1034474226805 42.937808490566  C 22.1034474226805 42.937808490566  23.7233731958763 45.9775509433963  23.7233731958763 45.9775509433963  C 23.7233731958763 45.9775509433963  27.4643381443299 46.2055999999999  27.4643381443299 46.2055999999999  C 27.4643381443299 46.2055999999999  29.3790515463917 44.7998584905661  29.3790515463917 44.7998584905661  C 29.3790515463917 44.7998584905661  33.6505319587629 44.0229349056604  33.6505319587629 44.0229349056604  C 33.6505319587629 44.0229349056604  38.230606185567 41.9086424528302  38.230606185567 41.9086424528302  C 38.230606185567 41.9086424528302  39.7474969072165 40.251920754717  39.7474969072165 40.251920754717  C 39.7474969072165 40.251920754717  41.5446020618557 35.5893273584906  41.5446020618557 35.5893273584906  C 41.5446020618557 35.5893273584906  46.5669855670104 33.772087735849  46.5669855670104 33.772087735849  C 46.5669855670104 33.772087735849  47.7152 35.0751650943397  47.7152 35.0751650943397  C 47.7152 35.0751650943397  51.2800082474227 34.1267839622641  51.2800082474227 34.1267839622641  C 51.2800082474227 34.1267839622641  54.2987051546392 36.115270754717  54.2987051546392 36.115270754717  C 54.2987051546392 36.115270754717  57.0824412371134 35.0404528301887  57.0824412371134 35.0404528301887  C 57.0824412371134 35.0404528301887  62.8114969072166 35.9091009433962  62.8114969072166 35.9091009433962  C 62.8114969072166 35.9091009433962  66.9646020618557 35.5781773584906  66.9646020618557 35.5781773584906  C 66.9646020618557 35.5781773584906  72.8854103092784 30.9725962264151  72.8854103092784 30.9725962264151  Z " fill-rule="nonzero" fill="#169bd5" stroke="none" transform="matrix(1 0 0 1 587 548 )" />
  </g>
</svg>