<?xml version="1.0" encoding="utf-8"?>
<svg version="1.1" xmlns:xlink="http://www.w3.org/1999/xlink" width="264px" height="221px" xmlns="http://www.w3.org/2000/svg">
  <defs>
    <mask fill="white" id="clip86">
      <path d="M 22.0616854368932 12.0226104761905  C 22.0616854368932 12.0226104761905  23.3609242718447 4.10639047619052  23.3609242718447 4.10639047619052  C 23.3609242718447 4.10639047619052  27.8499495145631 1.76884190476188  27.8499495145631 1.76884190476188  C 27.8499495145631 1.76884190476188  34.0654834951457 1.55163047619042  34.0654834951457 1.55163047619042  C 34.0654834951457 1.55163047619042  36.3097398058252 2.94350952380955  36.3097398058252 2.94350952380955  C 36.3097398058252 2.94350952380955  37.4616 4.88199523809525  37.4616 4.88199523809525  C 37.4616 4.88199523809525  37.0189514563106 8.33822476190471  37.0189514563106 8.33822476190471  C 37.0189514563106 8.33822476190471  41.4336466019417 8.32643809523813  41.4336466019417 8.32643809523813  C 41.4336466019417 8.32643809523813  41.4777320388349 9.72926190476191  41.4777320388349 9.72926190476191  C 41.4777320388349 9.72926190476191  44.4599067961164 14.0758057142857  44.4599067961164 14.0758057142857  C 44.4599067961164 14.0758057142857  45.9957203883494 14.1216895238096  45.9957203883494 14.1216895238096  C 45.9957203883494 14.1216895238096  47.3831300970874 11.6458580952381  47.3831300970874 11.6458580952381  C 47.3831300970874 11.6458580952381  50.0413281553399 12.0337657142857  50.0413281553399 12.0337657142857  C 50.0413281553399 12.0337657142857  54.3824621359223 17.0643571428572  54.3824621359223 17.0643571428572  C 54.3824621359223 17.0643571428572  55.6668349514563 17.0643571428572  55.6668349514563 17.0643571428572  C 55.6668349514563 17.0643571428572  58.1174213592233 14.6003123809524  58.1174213592233 14.6003123809524  C 58.1174213592233 14.6003123809524  68.5118446601942 15.0909323809523  68.5118446601942 15.0909323809523  C 68.5118446601942 15.0909323809523  74.2701203883496 11.9198980952381  74.2701203883496 11.9198980952381  C 74.2701203883496 11.9198980952381  76.7801708737864 8.36116666666672  76.7801708737864 8.36116666666672  C 76.7801708737864 8.36116666666672  78.9211339805825 8.10985809523806  78.9211339805825 8.10985809523806  C 78.9211339805825 8.10985809523806  80.5894601941747 9.20475523809518  80.5894601941747 9.20475523809518  C 80.5894601941747 9.20475523809518  80.8701203883495 12.6957133333333  80.8701203883495 12.6957133333333  C 80.8701203883495 12.6957133333333  83.9561009708738 13.6531695238096  83.9561009708738 13.6531695238096  C 83.9561009708738 13.6531695238096  86.2739184466019 11.7824571428572  86.2739184466019 11.7824571428572  C 86.2739184466019 11.7824571428572  89.5964737864078 11.2350085714286  89.5964737864078 11.2350085714286  C 89.5964737864078 11.2350085714286  96.5212194174757 12.4105180952382  96.5212194174757 12.4105180952382  C 96.5212194174757 12.4105180952382  100.994866019417 10.254820952381  100.994866019417 10.254820952381  C 100.994866019417 10.254820952381  111.226532038835 12.7866390476191  111.226532038835 12.7866390476191  C 111.226532038835 12.7866390476191  113.042749514563 13.9842485714285  113.042749514563 13.9842485714285  C 113.042749514563 13.9842485714285  117.516396116505 14.6912380952381  117.516396116505 14.6912380952381  C 117.516396116505 14.6912380952381  121.370027184466 17.7713466666667  121.370027184466 17.7713466666667  C 121.370027184466 17.7713466666667  126.065382524272 19.7336161904762  126.065382524272 19.7336161904762  C 126.065382524272 19.7336161904762  128.043588349514 19.174380952381  128.043588349514 19.174380952381  C 128.043588349514 19.174380952381  130.731262135922 16.8250457142858  130.731262135922 16.8250457142858  C 130.731262135922 16.8250457142858  136.202726213592 12.8664095238095  136.202726213592 12.8664095238095  C 136.202726213592 12.8664095238095  139.746221359223 11.4751619047619  139.746221359223 11.4751619047619  C 139.746221359223 11.4751619047619  141.724427184466 11.4751619047619  141.724427184466 11.4751619047619  C 141.724427184466 11.4751619047619  142.477980582524 13.9960352380952  142.477980582524 13.9960352380952  C 142.477980582524 13.9960352380952  147.498081553398 10.6197866666666  147.498081553398 10.6197866666666  C 147.498081553398 10.6197866666666  148.428489320388 7.9044333333333  148.428489320388 7.9044333333333  C 148.428489320388 7.9044333333333  150.03760776699 8.36116666666672  150.03760776699 8.36116666666672  C 150.03760776699 8.36116666666672  152.104240776699 10.8022695238095  152.104240776699 10.8022695238095  C 152.104240776699 10.8022695238095  154.777304854369 12.2621323809524  154.777304854369 12.2621323809524  C 154.777304854369 12.2621323809524  152.78346407767 15.4220114285714  152.78346407767 15.4220114285714  C 152.78346407767 15.4220114285714  153.034648543689 16.6655047619048  153.034648543689 16.6655047619048  C 153.034648543689 16.6655047619048  156.740644660194 22.0610619047619  156.740644660194 22.0610619047619  C 156.740644660194 22.0610619047619  158.025273786408 27.2749780952381  158.025273786408 27.2749780952381  C 158.025273786408 27.2749780952381  160.461763106796 29.9901209523809  160.461763106796 29.9901209523809  C 160.461763106796 29.9901209523809  162.750104854369 29.6590419047619  162.750104854369 29.6590419047619  C 162.750104854369 29.6590419047619  166.205172815534 27.4004219047619  166.205172815534 27.4004219047619  C 166.205172815534 27.4004219047619  168.5376 27.3656933333333  168.5376 27.3656933333333  C 168.5376 27.3656933333333  170.309732038835 29.772699047619  170.309732038835 29.772699047619  C 170.309732038835 29.772699047619  175.787347572816 30.8686485714285  175.787347572816 30.8686485714285  C 175.787347572816 30.8686485714285  177.633040776699 34.0632561904762  177.633040776699 34.0632561904762  C 177.633040776699 34.0632561904762  179.094267961165 41.3429961904762  179.094267961165 41.3429961904762  C 179.094267961165 41.3429961904762  178.607277669903 44.275560952381  178.607277669903 44.275560952381  C 178.607277669903 44.275560952381  174.812854368932 47.8132447619048  174.812854368932 47.8132447619048  C 174.812854368932 47.8132447619048  173.616652427185 49.513260952381  173.616652427185 49.513260952381  C 173.616652427185 49.513260952381  173.040722330097 56.1786209523809  173.040722330097 56.1786209523809  C 173.040722330097 56.1786209523809  170.870283495146 58.80368  170.870283495146 58.80368  C 170.870283495146 58.80368  167.681009708738 58.1646742857142  167.681009708738 58.1646742857142  C 167.681009708738 58.1646742857142  162.676287378641 58.1526771428571  162.676287378641 58.1526771428571  C 162.676287378641 58.1526771428571  159.590306796117 59.4081676190476  159.590306796117 59.4081676190476  C 159.590306796117 59.4081676190476  153.212015533981 59.1229723809524  153.212015533981 59.1229723809524  C 153.212015533981 59.1229723809524  151.676458252427 60.6184057142857  151.676458252427 60.6184057142857  C 151.676458252427 60.6184057142857  151.691067961165 62.2157095238096  151.691067961165 62.2157095238096  C 151.691067961165 62.2157095238096  153.536761165049 67.1242247619047  153.536761165049 67.1242247619047  C 153.536761165049 67.1242247619047  154.171642718447 70.4114419047619  154.171642718447 70.4114419047619  C 154.171642718447 70.4114419047619  156.51893592233 70.4800571428571  156.51893592233 70.4800571428571  C 156.51893592233 70.4800571428571  160.210578640777 67.5468609523809  160.210578640777 67.5468609523809  C 160.210578640777 67.5468609523809  161.214291262136 64.2817438095237  161.214291262136 64.2817438095237  C 161.214291262136 64.2817438095237  163.443937864078 64.5099  163.443937864078 64.5099  C 163.443937864078 64.5099  165.702803883495 69.13322  165.702803883495 69.13322  C 165.702803883495 69.13322  167.577972815534 71.5640095238095  167.577972815534 71.5640095238095  C 167.577972815534 71.5640095238095  167.873242718447 73.2648676190476  167.873242718447 73.2648676190476  C 167.873242718447 73.2648676190476  164.787262135922 78.24284  164.787262135922 78.24284  C 164.787262135922 78.24284  164.536077669903 80.7195133333334  164.536077669903 80.7195133333334  C 164.536077669903 80.7195133333334  167.370873786408 86.0176200000001  167.370873786408 86.0176200000001  C 167.370873786408 86.0176200000001  168.109817475728 89.2597952380953  168.109817475728 89.2597952380953  C 168.109817475728 89.2597952380953  169.999596116505 90.2875504761904  169.999596116505 90.2875504761904  C 169.999596116505 90.2875504761904  171.121467961165 92.61668  171.121467961165 92.61668  C 171.121467961165 92.61668  176.00905631068 94.7631161904761  176.00905631068 94.7631161904761  C 176.00905631068 94.7631161904761  176.968683495145 96.5327999999999  176.968683495145 96.5327999999999  C 176.968683495145 96.5327999999999  175.329833009709 99.1368114285714  175.329833009709 99.1368114285714  C 175.329833009709 99.1368114285714  175.580248543689 102.562311428571  175.580248543689 102.562311428571  C 175.580248543689 102.562311428571  172.036753398058 104.264221904762  172.036753398058 104.264221904762  C 172.036753398058 104.264221904762  171.343176699029 105.439731428571  171.343176699029 105.439731428571  C 171.343176699029 105.439731428571  172.170291262136 108.100571428571  172.170291262136 108.100571428571  C 172.170291262136 108.100571428571  173.911922330097 112.078571428571  173.911922330097 112.078571428571  C 173.911922330097 112.078571428571  177.189623300971 113.129268571429  177.189623300971 113.129268571429  C 177.189623300971 113.129268571429  182.992753398058 109.573904761905  182.992753398058 109.573904761905  C 182.992753398058 109.573904761905  184.985568932039 112.363766666667  184.985568932039 112.363766666667  C 184.985568932039 112.363766666667  191.157786407767 115.561741904762  191.157786407767 115.561741904762  C 191.157786407767 115.561741904762  193.903386407767 116.361340952381  193.903386407767 116.361340952381  C 193.903386407767 116.361340952381  197.816737864078 115.65350952381  197.816737864078 115.65350952381  C 197.816737864078 115.65350952381  200.606679611651 113.460347619048  200.606679611651 113.460347619048  C 200.606679611651 113.460347619048  202.895790291262 108.786302857143  202.895790291262 108.786302857143  C 202.895790291262 108.786302857143  204.652287378641 107.918088571429  204.652287378641 107.918088571429  C 204.652287378641 107.918088571429  210.041475728155 107.015777142857  210.041475728155 107.015777142857  C 210.041475728155 107.015777142857  213.614959223301 103.932300952381  213.614959223301 103.932300952381  C 213.614959223301 103.932300952381  214.529732038835 104.480591428571  214.529732038835 104.480591428571  C 214.529732038835 104.480591428571  213.068504854369 106.867391428571  213.068504854369 106.867391428571  C 213.068504854369 106.867391428571  207.856170873787 112.626861904762  207.856170873787 112.626861904762  C 207.856170873787 112.626861904762  206.690213592233 114.71646952381  206.690213592233 114.71646952381  C 206.690213592233 114.71646952381  209.303557281554 120.964244761905  209.303557281554 120.964244761905  C 209.303557281554 120.964244761905  211.44452038835 122.894311428571  211.44452038835 122.894311428571  C 211.44452038835 122.894311428571  214.05760776699 123.350834285714  214.05760776699 123.350834285714  C 214.05760776699 123.350834285714  216.479487378641 122.425791428571  216.479487378641 122.425791428571  C 216.479487378641 122.425791428571  219.358368932039 118.839698095238  219.358368932039 118.839698095238  C 219.358368932039 118.839698095238  221.041304854369 118.085982857143  221.041304854369 118.085982857143  C 221.041304854369 118.085982857143  222.842912621359 118.634273333333  222.842912621359 118.634273333333  C 222.842912621359 118.634273333333  227.124326213592 123.454388571429  227.124326213592 123.454388571429  C 227.124326213592 123.454388571429  229.132776699029 124.608008571429  229.132776699029 124.608008571429  C 229.132776699029 124.608008571429  230.712675728155 124.070662857143  230.712675728155 124.070662857143  C 230.712675728155 124.070662857143  238.478633009709 117.183881904762  238.478633009709 117.183881904762  C 238.478633009709 117.183881904762  241.357770873786 117.035285714286  241.357770873786 117.035285714286  C 241.357770873786 117.035285714286  245.890112621359 118.12008  245.890112621359 118.12008  C 245.890112621359 118.12008  247.706586407767 119.74200952381  247.706586407767 119.74200952381  C 247.706586407767 119.74200952381  248.62187184466 122.220366666667  248.62187184466 122.220366666667  C 248.62187184466 122.220366666667  248.356077669903 124.390586666667  248.356077669903 124.390586666667  C 248.356077669903 124.390586666667  246.93893592233 127.429231428571  246.93893592233 127.429231428571  C 246.93893592233 127.429231428571  246.850765048544 129.942317142857  246.850765048544 129.942317142857  C 246.850765048544 129.942317142857  248.150003883495 137.630380952381  248.150003883495 137.630380952381  C 248.150003883495 137.630380952381  248.326601941748 144.987576190476  248.326601941748 144.987576190476  C 248.326601941748 144.987576190476  249.581755339806 148.391818095238  249.581755339806 148.391818095238  C 249.581755339806 148.391818095238  251.280069902913 151.236824761905  251.280069902913 151.236824761905  C 251.280069902913 151.236824761905  248.164613592233 157.007660952381  248.164613592233 157.007660952381  C 248.164613592233 157.007660952381  243.247549514563 161.109631428571  243.247549514563 161.109631428571  C 243.247549514563 161.109631428571  242.45067961165 164.446941904762  242.45067961165 164.446941904762  C 242.45067961165 164.446941904762  242.907937864078 167.577985714286  242.907937864078 167.577985714286  C 242.907937864078 167.577985714286  244.295603883495 168.526180952381  244.295603883495 168.526180952381  C 244.295603883495 168.526180952381  249.788598058253 167.840239047619  249.788598058253 167.840239047619  C 249.788598058253 167.840239047619  253.139860194175 166.275138095238  253.139860194175 166.275138095238  C 253.139860194175 166.275138095238  253.583277669903 165.16677047619  253.583277669903 165.16677047619  C 253.583277669903 165.16677047619  251.708108737864 164.09228952381  251.708108737864 164.09228952381  C 251.708108737864 164.09228952381  251.280069902913 162.309766666667  251.280069902913 162.309766666667  C 251.280069902913 162.309766666667  254.35067184466 163.052537142857  254.35067184466 163.052537142857  C 254.35067184466 163.052537142857  257.584031067961 165.63529047619  257.584031067961 165.63529047619  C 257.584031067961 165.63529047619  257.924411650485 168.743392380952  257.924411650485 168.743392380952  C 257.924411650485 168.743392380952  254.645941747573 169.932582857143  254.645941747573 169.932582857143  C 254.645941747573 169.932582857143  256.152279611651 172.480397142857  256.152279611651 172.480397142857  C 256.152279611651 172.480397142857  257.569165048544 176.400937142857  257.569165048544 176.400937142857  C 257.569165048544 176.400937142857  257.363091262136 178.504225714286  257.363091262136 178.504225714286  C 257.363091262136 178.504225714286  255.915704854369 182.55020952381  255.915704854369 182.55020952381  C 255.915704854369 182.55020952381  251.427448543689 188.905748571429  251.427448543689 188.905748571429  C 251.427448543689 188.905748571429  251.087836893204 191.054710476191  251.087836893204 191.054710476191  C 251.087836893204 191.054710476191  256.963759223301 191.71771047619  256.963759223301 191.71771047619  C 256.963759223301 191.71771047619  260.818159223301 193.924342857143  260.818159223301 193.924342857143  C 260.818159223301 193.924342857143  262.678462135922 198.017052380952  262.678462135922 198.017052380952  C 262.678462135922 198.017052380952  261.068574757282 200.726301904762  261.068574757282 200.726301904762  C 261.068574757282 200.726301904762  255.118834951456 201.789838095238  255.118834951456 201.789838095238  C 255.118834951456 201.789838095238  254.203293203884 202.887260952381  254.203293203884 202.887260952381  C 254.203293203884 202.887260952381  253.154469902913 210.387790476191  253.154469902913 210.387790476191  C 253.154469902913 210.387790476191  255.517398058253 213.943996190476  255.517398058253 213.943996190476  C 255.517398058253 213.943996190476  254.380147572816 216.276493333333  254.380147572816 216.276493333333  C 254.380147572816 216.276493333333  250.187161165049 217.61406952381  250.187161165049 217.61406952381  C 250.187161165049 217.61406952381  243.926772815534 215.498994285714  243.926772815534 215.498994285714  C 243.926772815534 215.498994285714  234.964613592233 210.387790476191  234.964613592233 210.387790476191  C 234.964613592233 210.387790476191  230.357685436893 209.163871428571  230.357685436893 209.163871428571  C 230.357685436893 209.163871428571  226.459968932039 208.798063809524  226.459968932039 208.798063809524  C 226.459968932039 208.798063809524  231.258361165049 215.224954285714  231.258361165049 215.224954285714  C 231.258361165049 215.224954285714  230.697297087379 217.523354285714  230.697297087379 217.523354285714  C 230.697297087379 217.523354285714  233.326019417476 218.014816190476  233.326019417476 218.014816190476  C 233.326019417476 218.014816190476  233.975510679612 219.387120952381  233.975510679612 219.387120952381  C 233.975510679612 219.387120952381  229.619766990291 220.027179047619  229.619766990291 220.027179047619  C 229.619766990291 220.027179047619  226.69654368932 217.294145714286  226.69654368932 217.294145714286  C 226.69654368932 217.294145714286  225.618244660194 213.143765714286  225.618244660194 213.143765714286  C 225.618244660194 213.143765714286  220.642998058252 211.336617142857  220.642998058252 211.336617142857  C 220.642998058252 211.336617142857  220.008116504854 205.51674  220.008116504854 205.51674  C 220.008116504854 205.51674  217.79333592233 201.81278  217.79333592233 201.81278  C 217.79333592233 201.81278  212.25625631068 198.085878095238  212.25625631068 198.085878095238  C 212.25625631068 198.085878095238  208.240636893204 196.564977142857  208.240636893204 196.564977142857  C 208.240636893204 196.564977142857  203.855417475728 196.91962952381  203.855417475728 196.91962952381  C 203.855417475728 196.91962952381  202.895790291262 198.680052380952  202.895790291262 198.680052380952  C 202.895790291262 198.680052380952  201.802625242719 205.619452380952  201.802625242719 205.619452380952  C 201.802625242719 205.619452380952  200.503386407767 207.906907619048  200.503386407767 207.906907619048  C 200.503386407767 207.906907619048  187.71732815534 202.270355238095  187.71732815534 202.270355238095  C 187.71732815534 202.270355238095  185.945452427185 200.532032380952  185.945452427185 200.532032380952  C 185.945452427185 200.532032380952  185.295704854369 198.096822857143  185.295704854369 198.096822857143  C 185.295704854369 198.096822857143  185.708877669903 191.512285714286  185.708877669903 191.512285714286  C 185.708877669903 191.512285714286  185.133716504854 188.780094285714  185.133716504854 188.780094285714  C 185.133716504854 188.780094285714  182.800520388349 187.362747619048  182.800520388349 187.362747619048  C 182.800520388349 187.362747619048  170.501196116505 185.179688571429  170.501196116505 185.179688571429  C 170.501196116505 185.179688571429  167.681009708738 186.27626952381  167.681009708738 186.27626952381  C 167.681009708738 186.27626952381  143.00905631068 175.794976190476  143.00905631068 175.794976190476  C 143.00905631068 175.794976190476  140.986508737864 174.366474285714  140.986508737864 174.366474285714  C 140.986508737864 174.366474285714  133.633724271845 166.697984761905  133.633724271845 166.697984761905  C 133.633724271845 166.697984761905  130.553638834951 160.973032380952  130.553638834951 160.973032380952  C 130.553638834951 160.973032380952  128.69307961165 153.865461904762  128.69307961165 153.865461904762  C 128.69307961165 153.865461904762  130.701786407767 151.065497142857  130.701786407767 151.065497142857  C 130.701786407767 151.065497142857  128.221211650485 150.642860952381  128.221211650485 150.642860952381  C 128.221211650485 150.642860952381  126.641312621359 148.14072  126.641312621359 148.14072  C 126.641312621359 148.14072  124.810229126214 147.889411428571  124.810229126214 147.889411428571  C 124.810229126214 147.889411428571  124.426532038835 145.330441904762  124.426532038835 145.330441904762  C 124.426532038835 145.330441904762  123.407953398058 145.021462857143  123.407953398058 145.021462857143  C 123.407953398058 145.021462857143  118.151277669903 149.912087619048  118.151277669903 149.912087619048  C 118.151277669903 149.912087619048  116.305584466019 149.660779047619  116.305584466019 149.660779047619  C 116.305584466019 149.660779047619  113.869095145631 146.975313333333  113.869095145631 146.975313333333  C 113.869095145631 146.975313333333  111.50719223301 145.741080952381  111.50719223301 145.741080952381  C 111.50719223301 145.741080952381  107.919611650485 145.478827619048  107.919611650485 145.478827619048  C 107.919611650485 145.478827619048  102.825693203883 145.753078095238  102.825693203883 145.753078095238  C 102.825693203883 145.753078095238  100.301033009709 148.368876190476  100.301033009709 148.368876190476  C 100.301033009709 148.368876190476  100.580924271845 151.054341904762  100.580924271845 151.054341904762  C 100.580924271845 151.054341904762  98.6319378640777 152.596711428571  98.6319378640777 152.596711428571  C 98.6319378640777 152.596711428571  96.4171572815534 151.911611428571  96.4171572815534 151.911611428571  C 96.4171572815534 151.911611428571  94.1142058252427 152.608498095238  94.1142058252427 152.608498095238  C 94.1142058252427 152.608498095238  93.7745941747573 153.705079047619  93.7745941747573 153.705079047619  C 93.7745941747573 153.705079047619  90.0537320388349 150.220014285714  90.0537320388349 150.220014285714  C 90.0537320388349 150.220014285714  83.7195262135922 147.112754285714  83.7195262135922 147.112754285714  C 83.7195262135922 147.112754285714  80.2352388349514 143.547919047619  80.2352388349514 143.547919047619  C 80.2352388349514 143.547919047619  78.3157281553398 140.635139047619  78.3157281553398 140.635139047619  C 78.3157281553398 140.635139047619  77.9615067961166 138.589520952381  77.9615067961166 138.589520952381  C 77.9615067961166 138.589520952381  78.6109980582525 135.67653047619  78.6109980582525 135.67653047619  C 78.6109980582525 135.67653047619  82.804240776699 132.95802  82.804240776699 132.95802  C 82.804240776699 132.95802  85.4032310679612 126.33265047619  85.4032310679612 126.33265047619  C 85.4032310679612 126.33265047619  85.5065242718447 124.367644761905  85.5065242718447 124.367644761905  C 85.5065242718447 124.367644761905  84.4282252427184 122.917253333333  84.4282252427184 122.917253333333  C 84.4282252427184 122.917253333333  81.3135378640777 120.907416190476  81.3135378640777 120.907416190476  C 81.3135378640777 120.907416190476  80.0289087378641 119.101951428571  80.0289087378641 119.101951428571  C 80.0289087378641 119.101951428571  78.1978252427185 112.923843809524  78.1978252427185 112.923843809524  C 78.1978252427185 112.923843809524  75.377895145631 108.363666666667  75.377895145631 108.363666666667  C 75.377895145631 108.363666666667  75.067759223301 106.285003809524  75.067759223301 106.285003809524  C 75.067759223301 106.285003809524  76.6033165048544 104.743686666667  76.6033165048544 104.743686666667  C 76.6033165048544 104.743686666667  74.0343145631067 101.237574285714  74.0343145631067 101.237574285714  C 74.0343145631067 101.237574285714  72.5133669902913 95.608599047619  72.5133669902913 95.608599047619  C 72.5133669902913 95.608599047619  70.2839766990291 94.1689419047619  70.2839766990291 94.1689419047619  C 70.2839766990291 94.1689419047619  64.2893825242719 94.2268228571428  64.2893825242719 94.2268228571428  C 64.2893825242719 94.2268228571428  63.4181825242719 92.7193923809524  63.4181825242719 92.7193923809524  C 63.4181825242719 92.7193923809524  64.0971495145632 90.3902628571429  64.0971495145632 90.3902628571429  C 64.0971495145632 90.3902628571429  62.1189436893203 86.7593380952381  62.1189436893203 86.7593380952381  C 62.1189436893203 86.7593380952381  57.586345631068 82.3408114285714  57.586345631068 82.3408114285714  C 57.586345631068 82.3408114285714  56.3460582524272 79.7035447619048  56.3460582524272 79.7035447619048  C 56.3460582524272 79.7035447619048  56.7592310679612 76.1302904761905  56.7592310679612 76.1302904761905  C 56.7592310679612 76.1302904761905  59.594027184466 70.3775552380952  59.594027184466 70.3775552380952  C 59.594027184466 70.3775552380952  61.1739262135922 69.156161904762  61.1739262135922 69.156161904762  C 61.1739262135922 69.156161904762  65.2933514563107 71.9637038095238  65.2933514563107 71.9637038095238  C 65.2933514563107 71.9637038095238  68.1135378640776 71.5757961904762  68.1135378640776 71.5757961904762  C 68.1135378640776 71.5757961904762  66.2088932038835 67.5468609523809  66.2088932038835 67.5468609523809  C 66.2088932038835 67.5468609523809  68.8660660194175 66.72432  68.8660660194175 66.72432  C 68.8660660194175 66.72432  68.8219805825243 65.2067866666666  68.8219805825243 65.2067866666666  C 68.8219805825243 65.2067866666666  66.5925902912621 63.9277228571429  66.5925902912621 63.9277228571429  C 66.5925902912621 63.9277228571429  64.7761165048543 60.789101904762  64.7761165048543 60.789101904762  C 64.7761165048543 60.789101904762  62.5762019417476 61.4060076190476  62.5762019417476 61.4060076190476  C 62.5762019417476 61.4060076190476  62.2514563106797 59.9335161904761  62.2514563106797 59.9335161904761  C 62.2514563106797 59.9335161904761  63.3887067961165 57.5595552380953  63.3887067961165 57.5595552380953  C 63.3887067961165 57.5595552380953  63.1669980582524 55.3569219047619  63.1669980582524 55.3569219047619  C 63.1669980582524 55.3569219047619  58.4273009708738 49.7075304761904  58.4273009708738 49.7075304761904  C 58.4273009708738 49.7075304761904  56.3311922330098 48.2468257142858  56.3311922330098 48.2468257142858  C 56.3311922330098 48.2468257142858  47.9887922330097 44.0591914285715  47.9887922330097 44.0591914285715  C 47.9887922330097 44.0591914285715  43.973172815534 43.6024580952381  43.973172815534 43.6024580952381  C 43.973172815534 43.6024580952381  40.1638834951457 45.7472104761905  40.1638834951457 45.7472104761905  C 40.1638834951457 45.7472104761905  38.3033242718446 42.506719047619  38.3033242718446 42.506719047619  C 38.3033242718446 42.506719047619  36.6344854368932 41.7650009523809  36.6344854368932 41.7650009523809  C 36.6344854368932 41.7650009523809  32.2941203883495 46.7175057142857  32.2941203883495 46.7175057142857  C 32.2941203883495 46.7175057142857  30.035254368932 48.0186695238095  30.035254368932 48.0186695238095  C 30.035254368932 48.0186695238095  27.8058640776699 47.8471314285714  27.8058640776699 47.8471314285714  C 27.8058640776699 47.8471314285714  24.2762097087379 44.3094476190477  24.2762097087379 44.3094476190477  C 24.2762097087379 44.3094476190477  20.1716504854369 42.6433180952381  20.1716504854369 42.6433180952381  C 20.1716504854369 42.6433180952381  14.2073009708738 42.9634523809524  14.2073009708738 42.9634523809524  C 14.2073009708738 42.9634523809524  12.0219961165049 43.956479047619  12.0219961165049 43.956479047619  C 12.0219961165049 43.956479047619  11.6972504854369 45.3713000000001  11.6972504854369 45.3713000000001  C 11.6972504854369 45.3713000000001  8.5669281553398 50.6778257142857  8.5669281553398 50.6778257142857  C 8.5669281553398 50.6778257142857  6.8245281553398 49.8900133333333  6.8245281553398 49.8900133333333  C 6.8245281553398 49.8900133333333  5.33382524271849 46.7292923809524  5.33382524271849 46.7292923809524  C 5.33382524271849 46.7292923809524  6.41109902912625 44.6864104761905  6.41109902912625 44.6864104761905  C 6.41109902912625 44.6864104761905  1.67165825242717 40.6012780952382  1.67165825242717 40.6012780952382  C 1.67165825242717 40.6012780952382  2.11430679611654 38.11366  2.11430679611654 38.11366  C 2.11430679611654 38.11366  3.5322174757282 37.3037476190476  3.5322174757282 37.3037476190476  C 3.5322174757282 37.3037476190476  7.65164271844659 36.6876838095238  7.65164271844659 36.6876838095238  C 7.65164271844659 36.6876838095238  9.49733592233009 32.6484352380953  9.49733592233009 32.6484352380953  C 9.49733592233009 32.6484352380953  9.55628737864083 28.8943819047619  9.55628737864083 28.8943819047619  C 9.55628737864083 28.8943819047619  9.02444271844656 24.6623371428571  9.02444271844656 24.6623371428571  C 9.02444271844656 24.6623371428571  14.5615223300971 22.4260276190476  14.5615223300971 22.4260276190476  C 14.5615223300971 22.4260276190476  18.2229203883495 19.3798057142857  18.2229203883495 19.3798057142857  C 18.2229203883495 19.3798057142857  22.0616854368932 12.0226104761905  22.0616854368932 12.0226104761905  Z " fill-rule="evenodd" />
    </mask>
  </defs>
  <g transform="matrix(1 0 0 1 -636 -318 )">
    <path d="M 22.0616854368932 12.0226104761905  C 22.0616854368932 12.0226104761905  23.3609242718447 4.10639047619052  23.3609242718447 4.10639047619052  C 23.3609242718447 4.10639047619052  27.8499495145631 1.76884190476188  27.8499495145631 1.76884190476188  C 27.8499495145631 1.76884190476188  34.0654834951457 1.55163047619042  34.0654834951457 1.55163047619042  C 34.0654834951457 1.55163047619042  36.3097398058252 2.94350952380955  36.3097398058252 2.94350952380955  C 36.3097398058252 2.94350952380955  37.4616 4.88199523809525  37.4616 4.88199523809525  C 37.4616 4.88199523809525  37.0189514563106 8.33822476190471  37.0189514563106 8.33822476190471  C 37.0189514563106 8.33822476190471  41.4336466019417 8.32643809523813  41.4336466019417 8.32643809523813  C 41.4336466019417 8.32643809523813  41.4777320388349 9.72926190476191  41.4777320388349 9.72926190476191  C 41.4777320388349 9.72926190476191  44.4599067961164 14.0758057142857  44.4599067961164 14.0758057142857  C 44.4599067961164 14.0758057142857  45.9957203883494 14.1216895238096  45.9957203883494 14.1216895238096  C 45.9957203883494 14.1216895238096  47.3831300970874 11.6458580952381  47.3831300970874 11.6458580952381  C 47.3831300970874 11.6458580952381  50.0413281553399 12.0337657142857  50.0413281553399 12.0337657142857  C 50.0413281553399 12.0337657142857  54.3824621359223 17.0643571428572  54.3824621359223 17.0643571428572  C 54.3824621359223 17.0643571428572  55.6668349514563 17.0643571428572  55.6668349514563 17.0643571428572  C 55.6668349514563 17.0643571428572  58.1174213592233 14.6003123809524  58.1174213592233 14.6003123809524  C 58.1174213592233 14.6003123809524  68.5118446601942 15.0909323809523  68.5118446601942 15.0909323809523  C 68.5118446601942 15.0909323809523  74.2701203883496 11.9198980952381  74.2701203883496 11.9198980952381  C 74.2701203883496 11.9198980952381  76.7801708737864 8.36116666666672  76.7801708737864 8.36116666666672  C 76.7801708737864 8.36116666666672  78.9211339805825 8.10985809523806  78.9211339805825 8.10985809523806  C 78.9211339805825 8.10985809523806  80.5894601941747 9.20475523809518  80.5894601941747 9.20475523809518  C 80.5894601941747 9.20475523809518  80.8701203883495 12.6957133333333  80.8701203883495 12.6957133333333  C 80.8701203883495 12.6957133333333  83.9561009708738 13.6531695238096  83.9561009708738 13.6531695238096  C 83.9561009708738 13.6531695238096  86.2739184466019 11.7824571428572  86.2739184466019 11.7824571428572  C 86.2739184466019 11.7824571428572  89.5964737864078 11.2350085714286  89.5964737864078 11.2350085714286  C 89.5964737864078 11.2350085714286  96.5212194174757 12.4105180952382  96.5212194174757 12.4105180952382  C 96.5212194174757 12.4105180952382  100.994866019417 10.254820952381  100.994866019417 10.254820952381  C 100.994866019417 10.254820952381  111.226532038835 12.7866390476191  111.226532038835 12.7866390476191  C 111.226532038835 12.7866390476191  113.042749514563 13.9842485714285  113.042749514563 13.9842485714285  C 113.042749514563 13.9842485714285  117.516396116505 14.6912380952381  117.516396116505 14.6912380952381  C 117.516396116505 14.6912380952381  121.370027184466 17.7713466666667  121.370027184466 17.7713466666667  C 121.370027184466 17.7713466666667  126.065382524272 19.7336161904762  126.065382524272 19.7336161904762  C 126.065382524272 19.7336161904762  128.043588349514 19.174380952381  128.043588349514 19.174380952381  C 128.043588349514 19.174380952381  130.731262135922 16.8250457142858  130.731262135922 16.8250457142858  C 130.731262135922 16.8250457142858  136.202726213592 12.8664095238095  136.202726213592 12.8664095238095  C 136.202726213592 12.8664095238095  139.746221359223 11.4751619047619  139.746221359223 11.4751619047619  C 139.746221359223 11.4751619047619  141.724427184466 11.4751619047619  141.724427184466 11.4751619047619  C 141.724427184466 11.4751619047619  142.477980582524 13.9960352380952  142.477980582524 13.9960352380952  C 142.477980582524 13.9960352380952  147.498081553398 10.6197866666666  147.498081553398 10.6197866666666  C 147.498081553398 10.6197866666666  148.428489320388 7.9044333333333  148.428489320388 7.9044333333333  C 148.428489320388 7.9044333333333  150.03760776699 8.36116666666672  150.03760776699 8.36116666666672  C 150.03760776699 8.36116666666672  152.104240776699 10.8022695238095  152.104240776699 10.8022695238095  C 152.104240776699 10.8022695238095  154.777304854369 12.2621323809524  154.777304854369 12.2621323809524  C 154.777304854369 12.2621323809524  152.78346407767 15.4220114285714  152.78346407767 15.4220114285714  C 152.78346407767 15.4220114285714  153.034648543689 16.6655047619048  153.034648543689 16.6655047619048  C 153.034648543689 16.6655047619048  156.740644660194 22.0610619047619  156.740644660194 22.0610619047619  C 156.740644660194 22.0610619047619  158.025273786408 27.2749780952381  158.025273786408 27.2749780952381  C 158.025273786408 27.2749780952381  160.461763106796 29.9901209523809  160.461763106796 29.9901209523809  C 160.461763106796 29.9901209523809  162.750104854369 29.6590419047619  162.750104854369 29.6590419047619  C 162.750104854369 29.6590419047619  166.205172815534 27.4004219047619  166.205172815534 27.4004219047619  C 166.205172815534 27.4004219047619  168.5376 27.3656933333333  168.5376 27.3656933333333  C 168.5376 27.3656933333333  170.309732038835 29.772699047619  170.309732038835 29.772699047619  C 170.309732038835 29.772699047619  175.787347572816 30.8686485714285  175.787347572816 30.8686485714285  C 175.787347572816 30.8686485714285  177.633040776699 34.0632561904762  177.633040776699 34.0632561904762  C 177.633040776699 34.0632561904762  179.094267961165 41.3429961904762  179.094267961165 41.3429961904762  C 179.094267961165 41.3429961904762  178.607277669903 44.275560952381  178.607277669903 44.275560952381  C 178.607277669903 44.275560952381  174.812854368932 47.8132447619048  174.812854368932 47.8132447619048  C 174.812854368932 47.8132447619048  173.616652427185 49.513260952381  173.616652427185 49.513260952381  C 173.616652427185 49.513260952381  173.040722330097 56.1786209523809  173.040722330097 56.1786209523809  C 173.040722330097 56.1786209523809  170.870283495146 58.80368  170.870283495146 58.80368  C 170.870283495146 58.80368  167.681009708738 58.1646742857142  167.681009708738 58.1646742857142  C 167.681009708738 58.1646742857142  162.676287378641 58.1526771428571  162.676287378641 58.1526771428571  C 162.676287378641 58.1526771428571  159.590306796117 59.4081676190476  159.590306796117 59.4081676190476  C 159.590306796117 59.4081676190476  153.212015533981 59.1229723809524  153.212015533981 59.1229723809524  C 153.212015533981 59.1229723809524  151.676458252427 60.6184057142857  151.676458252427 60.6184057142857  C 151.676458252427 60.6184057142857  151.691067961165 62.2157095238096  151.691067961165 62.2157095238096  C 151.691067961165 62.2157095238096  153.536761165049 67.1242247619047  153.536761165049 67.1242247619047  C 153.536761165049 67.1242247619047  154.171642718447 70.4114419047619  154.171642718447 70.4114419047619  C 154.171642718447 70.4114419047619  156.51893592233 70.4800571428571  156.51893592233 70.4800571428571  C 156.51893592233 70.4800571428571  160.210578640777 67.5468609523809  160.210578640777 67.5468609523809  C 160.210578640777 67.5468609523809  161.214291262136 64.2817438095237  161.214291262136 64.2817438095237  C 161.214291262136 64.2817438095237  163.443937864078 64.5099  163.443937864078 64.5099  C 163.443937864078 64.5099  165.702803883495 69.13322  165.702803883495 69.13322  C 165.702803883495 69.13322  167.577972815534 71.5640095238095  167.577972815534 71.5640095238095  C 167.577972815534 71.5640095238095  167.873242718447 73.2648676190476  167.873242718447 73.2648676190476  C 167.873242718447 73.2648676190476  164.787262135922 78.24284  164.787262135922 78.24284  C 164.787262135922 78.24284  164.536077669903 80.7195133333334  164.536077669903 80.7195133333334  C 164.536077669903 80.7195133333334  167.370873786408 86.0176200000001  167.370873786408 86.0176200000001  C 167.370873786408 86.0176200000001  168.109817475728 89.2597952380953  168.109817475728 89.2597952380953  C 168.109817475728 89.2597952380953  169.999596116505 90.2875504761904  169.999596116505 90.2875504761904  C 169.999596116505 90.2875504761904  171.121467961165 92.61668  171.121467961165 92.61668  C 171.121467961165 92.61668  176.00905631068 94.7631161904761  176.00905631068 94.7631161904761  C 176.00905631068 94.7631161904761  176.968683495145 96.5327999999999  176.968683495145 96.5327999999999  C 176.968683495145 96.5327999999999  175.329833009709 99.1368114285714  175.329833009709 99.1368114285714  C 175.329833009709 99.1368114285714  175.580248543689 102.562311428571  175.580248543689 102.562311428571  C 175.580248543689 102.562311428571  172.036753398058 104.264221904762  172.036753398058 104.264221904762  C 172.036753398058 104.264221904762  171.343176699029 105.439731428571  171.343176699029 105.439731428571  C 171.343176699029 105.439731428571  172.170291262136 108.100571428571  172.170291262136 108.100571428571  C 172.170291262136 108.100571428571  173.911922330097 112.078571428571  173.911922330097 112.078571428571  C 173.911922330097 112.078571428571  177.189623300971 113.129268571429  177.189623300971 113.129268571429  C 177.189623300971 113.129268571429  182.992753398058 109.573904761905  182.992753398058 109.573904761905  C 182.992753398058 109.573904761905  184.985568932039 112.363766666667  184.985568932039 112.363766666667  C 184.985568932039 112.363766666667  191.157786407767 115.561741904762  191.157786407767 115.561741904762  C 191.157786407767 115.561741904762  193.903386407767 116.361340952381  193.903386407767 116.361340952381  C 193.903386407767 116.361340952381  197.816737864078 115.65350952381  197.816737864078 115.65350952381  C 197.816737864078 115.65350952381  200.606679611651 113.460347619048  200.606679611651 113.460347619048  C 200.606679611651 113.460347619048  202.895790291262 108.786302857143  202.895790291262 108.786302857143  C 202.895790291262 108.786302857143  204.652287378641 107.918088571429  204.652287378641 107.918088571429  C 204.652287378641 107.918088571429  210.041475728155 107.015777142857  210.041475728155 107.015777142857  C 210.041475728155 107.015777142857  213.614959223301 103.932300952381  213.614959223301 103.932300952381  C 213.614959223301 103.932300952381  214.529732038835 104.480591428571  214.529732038835 104.480591428571  C 214.529732038835 104.480591428571  213.068504854369 106.867391428571  213.068504854369 106.867391428571  C 213.068504854369 106.867391428571  207.856170873787 112.626861904762  207.856170873787 112.626861904762  C 207.856170873787 112.626861904762  206.690213592233 114.71646952381  206.690213592233 114.71646952381  C 206.690213592233 114.71646952381  209.303557281554 120.964244761905  209.303557281554 120.964244761905  C 209.303557281554 120.964244761905  211.44452038835 122.894311428571  211.44452038835 122.894311428571  C 211.44452038835 122.894311428571  214.05760776699 123.350834285714  214.05760776699 123.350834285714  C 214.05760776699 123.350834285714  216.479487378641 122.425791428571  216.479487378641 122.425791428571  C 216.479487378641 122.425791428571  219.358368932039 118.839698095238  219.358368932039 118.839698095238  C 219.358368932039 118.839698095238  221.041304854369 118.085982857143  221.041304854369 118.085982857143  C 221.041304854369 118.085982857143  222.842912621359 118.634273333333  222.842912621359 118.634273333333  C 222.842912621359 118.634273333333  227.124326213592 123.454388571429  227.124326213592 123.454388571429  C 227.124326213592 123.454388571429  229.132776699029 124.608008571429  229.132776699029 124.608008571429  C 229.132776699029 124.608008571429  230.712675728155 124.070662857143  230.712675728155 124.070662857143  C 230.712675728155 124.070662857143  238.478633009709 117.183881904762  238.478633009709 117.183881904762  C 238.478633009709 117.183881904762  241.357770873786 117.035285714286  241.357770873786 117.035285714286  C 241.357770873786 117.035285714286  245.890112621359 118.12008  245.890112621359 118.12008  C 245.890112621359 118.12008  247.706586407767 119.74200952381  247.706586407767 119.74200952381  C 247.706586407767 119.74200952381  248.62187184466 122.220366666667  248.62187184466 122.220366666667  C 248.62187184466 122.220366666667  248.356077669903 124.390586666667  248.356077669903 124.390586666667  C 248.356077669903 124.390586666667  246.93893592233 127.429231428571  246.93893592233 127.429231428571  C 246.93893592233 127.429231428571  246.850765048544 129.942317142857  246.850765048544 129.942317142857  C 246.850765048544 129.942317142857  248.150003883495 137.630380952381  248.150003883495 137.630380952381  C 248.150003883495 137.630380952381  248.326601941748 144.987576190476  248.326601941748 144.987576190476  C 248.326601941748 144.987576190476  249.581755339806 148.391818095238  249.581755339806 148.391818095238  C 249.581755339806 148.391818095238  251.280069902913 151.236824761905  251.280069902913 151.236824761905  C 251.280069902913 151.236824761905  248.164613592233 157.007660952381  248.164613592233 157.007660952381  C 248.164613592233 157.007660952381  243.247549514563 161.109631428571  243.247549514563 161.109631428571  C 243.247549514563 161.109631428571  242.45067961165 164.446941904762  242.45067961165 164.446941904762  C 242.45067961165 164.446941904762  242.907937864078 167.577985714286  242.907937864078 167.577985714286  C 242.907937864078 167.577985714286  244.295603883495 168.526180952381  244.295603883495 168.526180952381  C 244.295603883495 168.526180952381  249.788598058253 167.840239047619  249.788598058253 167.840239047619  C 249.788598058253 167.840239047619  253.139860194175 166.275138095238  253.139860194175 166.275138095238  C 253.139860194175 166.275138095238  253.583277669903 165.16677047619  253.583277669903 165.16677047619  C 253.583277669903 165.16677047619  251.708108737864 164.09228952381  251.708108737864 164.09228952381  C 251.708108737864 164.09228952381  251.280069902913 162.309766666667  251.280069902913 162.309766666667  C 251.280069902913 162.309766666667  254.35067184466 163.052537142857  254.35067184466 163.052537142857  C 254.35067184466 163.052537142857  257.584031067961 165.63529047619  257.584031067961 165.63529047619  C 257.584031067961 165.63529047619  257.924411650485 168.743392380952  257.924411650485 168.743392380952  C 257.924411650485 168.743392380952  254.645941747573 169.932582857143  254.645941747573 169.932582857143  C 254.645941747573 169.932582857143  256.152279611651 172.480397142857  256.152279611651 172.480397142857  C 256.152279611651 172.480397142857  257.569165048544 176.400937142857  257.569165048544 176.400937142857  C 257.569165048544 176.400937142857  257.363091262136 178.504225714286  257.363091262136 178.504225714286  C 257.363091262136 178.504225714286  255.915704854369 182.55020952381  255.915704854369 182.55020952381  C 255.915704854369 182.55020952381  251.427448543689 188.905748571429  251.427448543689 188.905748571429  C 251.427448543689 188.905748571429  251.087836893204 191.054710476191  251.087836893204 191.054710476191  C 251.087836893204 191.054710476191  256.963759223301 191.71771047619  256.963759223301 191.71771047619  C 256.963759223301 191.71771047619  260.818159223301 193.924342857143  260.818159223301 193.924342857143  C 260.818159223301 193.924342857143  262.678462135922 198.017052380952  262.678462135922 198.017052380952  C 262.678462135922 198.017052380952  261.068574757282 200.726301904762  261.068574757282 200.726301904762  C 261.068574757282 200.726301904762  255.118834951456 201.789838095238  255.118834951456 201.789838095238  C 255.118834951456 201.789838095238  254.203293203884 202.887260952381  254.203293203884 202.887260952381  C 254.203293203884 202.887260952381  253.154469902913 210.387790476191  253.154469902913 210.387790476191  C 253.154469902913 210.387790476191  255.517398058253 213.943996190476  255.517398058253 213.943996190476  C 255.517398058253 213.943996190476  254.380147572816 216.276493333333  254.380147572816 216.276493333333  C 254.380147572816 216.276493333333  250.187161165049 217.61406952381  250.187161165049 217.61406952381  C 250.187161165049 217.61406952381  243.926772815534 215.498994285714  243.926772815534 215.498994285714  C 243.926772815534 215.498994285714  234.964613592233 210.387790476191  234.964613592233 210.387790476191  C 234.964613592233 210.387790476191  230.357685436893 209.163871428571  230.357685436893 209.163871428571  C 230.357685436893 209.163871428571  226.459968932039 208.798063809524  226.459968932039 208.798063809524  C 226.459968932039 208.798063809524  231.258361165049 215.224954285714  231.258361165049 215.224954285714  C 231.258361165049 215.224954285714  230.697297087379 217.523354285714  230.697297087379 217.523354285714  C 230.697297087379 217.523354285714  233.326019417476 218.014816190476  233.326019417476 218.014816190476  C 233.326019417476 218.014816190476  233.975510679612 219.387120952381  233.975510679612 219.387120952381  C 233.975510679612 219.387120952381  229.619766990291 220.027179047619  229.619766990291 220.027179047619  C 229.619766990291 220.027179047619  226.69654368932 217.294145714286  226.69654368932 217.294145714286  C 226.69654368932 217.294145714286  225.618244660194 213.143765714286  225.618244660194 213.143765714286  C 225.618244660194 213.143765714286  220.642998058252 211.336617142857  220.642998058252 211.336617142857  C 220.642998058252 211.336617142857  220.008116504854 205.51674  220.008116504854 205.51674  C 220.008116504854 205.51674  217.79333592233 201.81278  217.79333592233 201.81278  C 217.79333592233 201.81278  212.25625631068 198.085878095238  212.25625631068 198.085878095238  C 212.25625631068 198.085878095238  208.240636893204 196.564977142857  208.240636893204 196.564977142857  C 208.240636893204 196.564977142857  203.855417475728 196.91962952381  203.855417475728 196.91962952381  C 203.855417475728 196.91962952381  202.895790291262 198.680052380952  202.895790291262 198.680052380952  C 202.895790291262 198.680052380952  201.802625242719 205.619452380952  201.802625242719 205.619452380952  C 201.802625242719 205.619452380952  200.503386407767 207.906907619048  200.503386407767 207.906907619048  C 200.503386407767 207.906907619048  187.71732815534 202.270355238095  187.71732815534 202.270355238095  C 187.71732815534 202.270355238095  185.945452427185 200.532032380952  185.945452427185 200.532032380952  C 185.945452427185 200.532032380952  185.295704854369 198.096822857143  185.295704854369 198.096822857143  C 185.295704854369 198.096822857143  185.708877669903 191.512285714286  185.708877669903 191.512285714286  C 185.708877669903 191.512285714286  185.133716504854 188.780094285714  185.133716504854 188.780094285714  C 185.133716504854 188.780094285714  182.800520388349 187.362747619048  182.800520388349 187.362747619048  C 182.800520388349 187.362747619048  170.501196116505 185.179688571429  170.501196116505 185.179688571429  C 170.501196116505 185.179688571429  167.681009708738 186.27626952381  167.681009708738 186.27626952381  C 167.681009708738 186.27626952381  143.00905631068 175.794976190476  143.00905631068 175.794976190476  C 143.00905631068 175.794976190476  140.986508737864 174.366474285714  140.986508737864 174.366474285714  C 140.986508737864 174.366474285714  133.633724271845 166.697984761905  133.633724271845 166.697984761905  C 133.633724271845 166.697984761905  130.553638834951 160.973032380952  130.553638834951 160.973032380952  C 130.553638834951 160.973032380952  128.69307961165 153.865461904762  128.69307961165 153.865461904762  C 128.69307961165 153.865461904762  130.701786407767 151.065497142857  130.701786407767 151.065497142857  C 130.701786407767 151.065497142857  128.221211650485 150.642860952381  128.221211650485 150.642860952381  C 128.221211650485 150.642860952381  126.641312621359 148.14072  126.641312621359 148.14072  C 126.641312621359 148.14072  124.810229126214 147.889411428571  124.810229126214 147.889411428571  C 124.810229126214 147.889411428571  124.426532038835 145.330441904762  124.426532038835 145.330441904762  C 124.426532038835 145.330441904762  123.407953398058 145.021462857143  123.407953398058 145.021462857143  C 123.407953398058 145.021462857143  118.151277669903 149.912087619048  118.151277669903 149.912087619048  C 118.151277669903 149.912087619048  116.305584466019 149.660779047619  116.305584466019 149.660779047619  C 116.305584466019 149.660779047619  113.869095145631 146.975313333333  113.869095145631 146.975313333333  C 113.869095145631 146.975313333333  111.50719223301 145.741080952381  111.50719223301 145.741080952381  C 111.50719223301 145.741080952381  107.919611650485 145.478827619048  107.919611650485 145.478827619048  C 107.919611650485 145.478827619048  102.825693203883 145.753078095238  102.825693203883 145.753078095238  C 102.825693203883 145.753078095238  100.301033009709 148.368876190476  100.301033009709 148.368876190476  C 100.301033009709 148.368876190476  100.580924271845 151.054341904762  100.580924271845 151.054341904762  C 100.580924271845 151.054341904762  98.6319378640777 152.596711428571  98.6319378640777 152.596711428571  C 98.6319378640777 152.596711428571  96.4171572815534 151.911611428571  96.4171572815534 151.911611428571  C 96.4171572815534 151.911611428571  94.1142058252427 152.608498095238  94.1142058252427 152.608498095238  C 94.1142058252427 152.608498095238  93.7745941747573 153.705079047619  93.7745941747573 153.705079047619  C 93.7745941747573 153.705079047619  90.0537320388349 150.220014285714  90.0537320388349 150.220014285714  C 90.0537320388349 150.220014285714  83.7195262135922 147.112754285714  83.7195262135922 147.112754285714  C 83.7195262135922 147.112754285714  80.2352388349514 143.547919047619  80.2352388349514 143.547919047619  C 80.2352388349514 143.547919047619  78.3157281553398 140.635139047619  78.3157281553398 140.635139047619  C 78.3157281553398 140.635139047619  77.9615067961166 138.589520952381  77.9615067961166 138.589520952381  C 77.9615067961166 138.589520952381  78.6109980582525 135.67653047619  78.6109980582525 135.67653047619  C 78.6109980582525 135.67653047619  82.804240776699 132.95802  82.804240776699 132.95802  C 82.804240776699 132.95802  85.4032310679612 126.33265047619  85.4032310679612 126.33265047619  C 85.4032310679612 126.33265047619  85.5065242718447 124.367644761905  85.5065242718447 124.367644761905  C 85.5065242718447 124.367644761905  84.4282252427184 122.917253333333  84.4282252427184 122.917253333333  C 84.4282252427184 122.917253333333  81.3135378640777 120.907416190476  81.3135378640777 120.907416190476  C 81.3135378640777 120.907416190476  80.0289087378641 119.101951428571  80.0289087378641 119.101951428571  C 80.0289087378641 119.101951428571  78.1978252427185 112.923843809524  78.1978252427185 112.923843809524  C 78.1978252427185 112.923843809524  75.377895145631 108.363666666667  75.377895145631 108.363666666667  C 75.377895145631 108.363666666667  75.067759223301 106.285003809524  75.067759223301 106.285003809524  C 75.067759223301 106.285003809524  76.6033165048544 104.743686666667  76.6033165048544 104.743686666667  C 76.6033165048544 104.743686666667  74.0343145631067 101.237574285714  74.0343145631067 101.237574285714  C 74.0343145631067 101.237574285714  72.5133669902913 95.608599047619  72.5133669902913 95.608599047619  C 72.5133669902913 95.608599047619  70.2839766990291 94.1689419047619  70.2839766990291 94.1689419047619  C 70.2839766990291 94.1689419047619  64.2893825242719 94.2268228571428  64.2893825242719 94.2268228571428  C 64.2893825242719 94.2268228571428  63.4181825242719 92.7193923809524  63.4181825242719 92.7193923809524  C 63.4181825242719 92.7193923809524  64.0971495145632 90.3902628571429  64.0971495145632 90.3902628571429  C 64.0971495145632 90.3902628571429  62.1189436893203 86.7593380952381  62.1189436893203 86.7593380952381  C 62.1189436893203 86.7593380952381  57.586345631068 82.3408114285714  57.586345631068 82.3408114285714  C 57.586345631068 82.3408114285714  56.3460582524272 79.7035447619048  56.3460582524272 79.7035447619048  C 56.3460582524272 79.7035447619048  56.7592310679612 76.1302904761905  56.7592310679612 76.1302904761905  C 56.7592310679612 76.1302904761905  59.594027184466 70.3775552380952  59.594027184466 70.3775552380952  C 59.594027184466 70.3775552380952  61.1739262135922 69.156161904762  61.1739262135922 69.156161904762  C 61.1739262135922 69.156161904762  65.2933514563107 71.9637038095238  65.2933514563107 71.9637038095238  C 65.2933514563107 71.9637038095238  68.1135378640776 71.5757961904762  68.1135378640776 71.5757961904762  C 68.1135378640776 71.5757961904762  66.2088932038835 67.5468609523809  66.2088932038835 67.5468609523809  C 66.2088932038835 67.5468609523809  68.8660660194175 66.72432  68.8660660194175 66.72432  C 68.8660660194175 66.72432  68.8219805825243 65.2067866666666  68.8219805825243 65.2067866666666  C 68.8219805825243 65.2067866666666  66.5925902912621 63.9277228571429  66.5925902912621 63.9277228571429  C 66.5925902912621 63.9277228571429  64.7761165048543 60.789101904762  64.7761165048543 60.789101904762  C 64.7761165048543 60.789101904762  62.5762019417476 61.4060076190476  62.5762019417476 61.4060076190476  C 62.5762019417476 61.4060076190476  62.2514563106797 59.9335161904761  62.2514563106797 59.9335161904761  C 62.2514563106797 59.9335161904761  63.3887067961165 57.5595552380953  63.3887067961165 57.5595552380953  C 63.3887067961165 57.5595552380953  63.1669980582524 55.3569219047619  63.1669980582524 55.3569219047619  C 63.1669980582524 55.3569219047619  58.4273009708738 49.7075304761904  58.4273009708738 49.7075304761904  C 58.4273009708738 49.7075304761904  56.3311922330098 48.2468257142858  56.3311922330098 48.2468257142858  C 56.3311922330098 48.2468257142858  47.9887922330097 44.0591914285715  47.9887922330097 44.0591914285715  C 47.9887922330097 44.0591914285715  43.973172815534 43.6024580952381  43.973172815534 43.6024580952381  C 43.973172815534 43.6024580952381  40.1638834951457 45.7472104761905  40.1638834951457 45.7472104761905  C 40.1638834951457 45.7472104761905  38.3033242718446 42.506719047619  38.3033242718446 42.506719047619  C 38.3033242718446 42.506719047619  36.6344854368932 41.7650009523809  36.6344854368932 41.7650009523809  C 36.6344854368932 41.7650009523809  32.2941203883495 46.7175057142857  32.2941203883495 46.7175057142857  C 32.2941203883495 46.7175057142857  30.035254368932 48.0186695238095  30.035254368932 48.0186695238095  C 30.035254368932 48.0186695238095  27.8058640776699 47.8471314285714  27.8058640776699 47.8471314285714  C 27.8058640776699 47.8471314285714  24.2762097087379 44.3094476190477  24.2762097087379 44.3094476190477  C 24.2762097087379 44.3094476190477  20.1716504854369 42.6433180952381  20.1716504854369 42.6433180952381  C 20.1716504854369 42.6433180952381  14.2073009708738 42.9634523809524  14.2073009708738 42.9634523809524  C 14.2073009708738 42.9634523809524  12.0219961165049 43.956479047619  12.0219961165049 43.956479047619  C 12.0219961165049 43.956479047619  11.6972504854369 45.3713000000001  11.6972504854369 45.3713000000001  C 11.6972504854369 45.3713000000001  8.5669281553398 50.6778257142857  8.5669281553398 50.6778257142857  C 8.5669281553398 50.6778257142857  6.8245281553398 49.8900133333333  6.8245281553398 49.8900133333333  C 6.8245281553398 49.8900133333333  5.33382524271849 46.7292923809524  5.33382524271849 46.7292923809524  C 5.33382524271849 46.7292923809524  6.41109902912625 44.6864104761905  6.41109902912625 44.6864104761905  C 6.41109902912625 44.6864104761905  1.67165825242717 40.6012780952382  1.67165825242717 40.6012780952382  C 1.67165825242717 40.6012780952382  2.11430679611654 38.11366  2.11430679611654 38.11366  C 2.11430679611654 38.11366  3.5322174757282 37.3037476190476  3.5322174757282 37.3037476190476  C 3.5322174757282 37.3037476190476  7.65164271844659 36.6876838095238  7.65164271844659 36.6876838095238  C 7.65164271844659 36.6876838095238  9.49733592233009 32.6484352380953  9.49733592233009 32.6484352380953  C 9.49733592233009 32.6484352380953  9.55628737864083 28.8943819047619  9.55628737864083 28.8943819047619  C 9.55628737864083 28.8943819047619  9.02444271844656 24.6623371428571  9.02444271844656 24.6623371428571  C 9.02444271844656 24.6623371428571  14.5615223300971 22.4260276190476  14.5615223300971 22.4260276190476  C 14.5615223300971 22.4260276190476  18.2229203883495 19.3798057142857  18.2229203883495 19.3798057142857  C 18.2229203883495 19.3798057142857  22.0616854368932 12.0226104761905  22.0616854368932 12.0226104761905  Z " fill-rule="nonzero" fill="#ffffff" stroke="none" transform="matrix(1 0 0 1 636 318 )" />
    <path d="M 22.0616854368932 12.0226104761905  C 22.0616854368932 12.0226104761905  23.3609242718447 4.10639047619052  23.3609242718447 4.10639047619052  C 23.3609242718447 4.10639047619052  27.8499495145631 1.76884190476188  27.8499495145631 1.76884190476188  C 27.8499495145631 1.76884190476188  34.0654834951457 1.55163047619042  34.0654834951457 1.55163047619042  C 34.0654834951457 1.55163047619042  36.3097398058252 2.94350952380955  36.3097398058252 2.94350952380955  C 36.3097398058252 2.94350952380955  37.4616 4.88199523809525  37.4616 4.88199523809525  C 37.4616 4.88199523809525  37.0189514563106 8.33822476190471  37.0189514563106 8.33822476190471  C 37.0189514563106 8.33822476190471  41.4336466019417 8.32643809523813  41.4336466019417 8.32643809523813  C 41.4336466019417 8.32643809523813  41.4777320388349 9.72926190476191  41.4777320388349 9.72926190476191  C 41.4777320388349 9.72926190476191  44.4599067961164 14.0758057142857  44.4599067961164 14.0758057142857  C 44.4599067961164 14.0758057142857  45.9957203883494 14.1216895238096  45.9957203883494 14.1216895238096  C 45.9957203883494 14.1216895238096  47.3831300970874 11.6458580952381  47.3831300970874 11.6458580952381  C 47.3831300970874 11.6458580952381  50.0413281553399 12.0337657142857  50.0413281553399 12.0337657142857  C 50.0413281553399 12.0337657142857  54.3824621359223 17.0643571428572  54.3824621359223 17.0643571428572  C 54.3824621359223 17.0643571428572  55.6668349514563 17.0643571428572  55.6668349514563 17.0643571428572  C 55.6668349514563 17.0643571428572  58.1174213592233 14.6003123809524  58.1174213592233 14.6003123809524  C 58.1174213592233 14.6003123809524  68.5118446601942 15.0909323809523  68.5118446601942 15.0909323809523  C 68.5118446601942 15.0909323809523  74.2701203883496 11.9198980952381  74.2701203883496 11.9198980952381  C 74.2701203883496 11.9198980952381  76.7801708737864 8.36116666666672  76.7801708737864 8.36116666666672  C 76.7801708737864 8.36116666666672  78.9211339805825 8.10985809523806  78.9211339805825 8.10985809523806  C 78.9211339805825 8.10985809523806  80.5894601941747 9.20475523809518  80.5894601941747 9.20475523809518  C 80.5894601941747 9.20475523809518  80.8701203883495 12.6957133333333  80.8701203883495 12.6957133333333  C 80.8701203883495 12.6957133333333  83.9561009708738 13.6531695238096  83.9561009708738 13.6531695238096  C 83.9561009708738 13.6531695238096  86.2739184466019 11.7824571428572  86.2739184466019 11.7824571428572  C 86.2739184466019 11.7824571428572  89.5964737864078 11.2350085714286  89.5964737864078 11.2350085714286  C 89.5964737864078 11.2350085714286  96.5212194174757 12.4105180952382  96.5212194174757 12.4105180952382  C 96.5212194174757 12.4105180952382  100.994866019417 10.254820952381  100.994866019417 10.254820952381  C 100.994866019417 10.254820952381  111.226532038835 12.7866390476191  111.226532038835 12.7866390476191  C 111.226532038835 12.7866390476191  113.042749514563 13.9842485714285  113.042749514563 13.9842485714285  C 113.042749514563 13.9842485714285  117.516396116505 14.6912380952381  117.516396116505 14.6912380952381  C 117.516396116505 14.6912380952381  121.370027184466 17.7713466666667  121.370027184466 17.7713466666667  C 121.370027184466 17.7713466666667  126.065382524272 19.7336161904762  126.065382524272 19.7336161904762  C 126.065382524272 19.7336161904762  128.043588349514 19.174380952381  128.043588349514 19.174380952381  C 128.043588349514 19.174380952381  130.731262135922 16.8250457142858  130.731262135922 16.8250457142858  C 130.731262135922 16.8250457142858  136.202726213592 12.8664095238095  136.202726213592 12.8664095238095  C 136.202726213592 12.8664095238095  139.746221359223 11.4751619047619  139.746221359223 11.4751619047619  C 139.746221359223 11.4751619047619  141.724427184466 11.4751619047619  141.724427184466 11.4751619047619  C 141.724427184466 11.4751619047619  142.477980582524 13.9960352380952  142.477980582524 13.9960352380952  C 142.477980582524 13.9960352380952  147.498081553398 10.6197866666666  147.498081553398 10.6197866666666  C 147.498081553398 10.6197866666666  148.428489320388 7.9044333333333  148.428489320388 7.9044333333333  C 148.428489320388 7.9044333333333  150.03760776699 8.36116666666672  150.03760776699 8.36116666666672  C 150.03760776699 8.36116666666672  152.104240776699 10.8022695238095  152.104240776699 10.8022695238095  C 152.104240776699 10.8022695238095  154.777304854369 12.2621323809524  154.777304854369 12.2621323809524  C 154.777304854369 12.2621323809524  152.78346407767 15.4220114285714  152.78346407767 15.4220114285714  C 152.78346407767 15.4220114285714  153.034648543689 16.6655047619048  153.034648543689 16.6655047619048  C 153.034648543689 16.6655047619048  156.740644660194 22.0610619047619  156.740644660194 22.0610619047619  C 156.740644660194 22.0610619047619  158.025273786408 27.2749780952381  158.025273786408 27.2749780952381  C 158.025273786408 27.2749780952381  160.461763106796 29.9901209523809  160.461763106796 29.9901209523809  C 160.461763106796 29.9901209523809  162.750104854369 29.6590419047619  162.750104854369 29.6590419047619  C 162.750104854369 29.6590419047619  166.205172815534 27.4004219047619  166.205172815534 27.4004219047619  C 166.205172815534 27.4004219047619  168.5376 27.3656933333333  168.5376 27.3656933333333  C 168.5376 27.3656933333333  170.309732038835 29.772699047619  170.309732038835 29.772699047619  C 170.309732038835 29.772699047619  175.787347572816 30.8686485714285  175.787347572816 30.8686485714285  C 175.787347572816 30.8686485714285  177.633040776699 34.0632561904762  177.633040776699 34.0632561904762  C 177.633040776699 34.0632561904762  179.094267961165 41.3429961904762  179.094267961165 41.3429961904762  C 179.094267961165 41.3429961904762  178.607277669903 44.275560952381  178.607277669903 44.275560952381  C 178.607277669903 44.275560952381  174.812854368932 47.8132447619048  174.812854368932 47.8132447619048  C 174.812854368932 47.8132447619048  173.616652427185 49.513260952381  173.616652427185 49.513260952381  C 173.616652427185 49.513260952381  173.040722330097 56.1786209523809  173.040722330097 56.1786209523809  C 173.040722330097 56.1786209523809  170.870283495146 58.80368  170.870283495146 58.80368  C 170.870283495146 58.80368  167.681009708738 58.1646742857142  167.681009708738 58.1646742857142  C 167.681009708738 58.1646742857142  162.676287378641 58.1526771428571  162.676287378641 58.1526771428571  C 162.676287378641 58.1526771428571  159.590306796117 59.4081676190476  159.590306796117 59.4081676190476  C 159.590306796117 59.4081676190476  153.212015533981 59.1229723809524  153.212015533981 59.1229723809524  C 153.212015533981 59.1229723809524  151.676458252427 60.6184057142857  151.676458252427 60.6184057142857  C 151.676458252427 60.6184057142857  151.691067961165 62.2157095238096  151.691067961165 62.2157095238096  C 151.691067961165 62.2157095238096  153.536761165049 67.1242247619047  153.536761165049 67.1242247619047  C 153.536761165049 67.1242247619047  154.171642718447 70.4114419047619  154.171642718447 70.4114419047619  C 154.171642718447 70.4114419047619  156.51893592233 70.4800571428571  156.51893592233 70.4800571428571  C 156.51893592233 70.4800571428571  160.210578640777 67.5468609523809  160.210578640777 67.5468609523809  C 160.210578640777 67.5468609523809  161.214291262136 64.2817438095237  161.214291262136 64.2817438095237  C 161.214291262136 64.2817438095237  163.443937864078 64.5099  163.443937864078 64.5099  C 163.443937864078 64.5099  165.702803883495 69.13322  165.702803883495 69.13322  C 165.702803883495 69.13322  167.577972815534 71.5640095238095  167.577972815534 71.5640095238095  C 167.577972815534 71.5640095238095  167.873242718447 73.2648676190476  167.873242718447 73.2648676190476  C 167.873242718447 73.2648676190476  164.787262135922 78.24284  164.787262135922 78.24284  C 164.787262135922 78.24284  164.536077669903 80.7195133333334  164.536077669903 80.7195133333334  C 164.536077669903 80.7195133333334  167.370873786408 86.0176200000001  167.370873786408 86.0176200000001  C 167.370873786408 86.0176200000001  168.109817475728 89.2597952380953  168.109817475728 89.2597952380953  C 168.109817475728 89.2597952380953  169.999596116505 90.2875504761904  169.999596116505 90.2875504761904  C 169.999596116505 90.2875504761904  171.121467961165 92.61668  171.121467961165 92.61668  C 171.121467961165 92.61668  176.00905631068 94.7631161904761  176.00905631068 94.7631161904761  C 176.00905631068 94.7631161904761  176.968683495145 96.5327999999999  176.968683495145 96.5327999999999  C 176.968683495145 96.5327999999999  175.329833009709 99.1368114285714  175.329833009709 99.1368114285714  C 175.329833009709 99.1368114285714  175.580248543689 102.562311428571  175.580248543689 102.562311428571  C 175.580248543689 102.562311428571  172.036753398058 104.264221904762  172.036753398058 104.264221904762  C 172.036753398058 104.264221904762  171.343176699029 105.439731428571  171.343176699029 105.439731428571  C 171.343176699029 105.439731428571  172.170291262136 108.100571428571  172.170291262136 108.100571428571  C 172.170291262136 108.100571428571  173.911922330097 112.078571428571  173.911922330097 112.078571428571  C 173.911922330097 112.078571428571  177.189623300971 113.129268571429  177.189623300971 113.129268571429  C 177.189623300971 113.129268571429  182.992753398058 109.573904761905  182.992753398058 109.573904761905  C 182.992753398058 109.573904761905  184.985568932039 112.363766666667  184.985568932039 112.363766666667  C 184.985568932039 112.363766666667  191.157786407767 115.561741904762  191.157786407767 115.561741904762  C 191.157786407767 115.561741904762  193.903386407767 116.361340952381  193.903386407767 116.361340952381  C 193.903386407767 116.361340952381  197.816737864078 115.65350952381  197.816737864078 115.65350952381  C 197.816737864078 115.65350952381  200.606679611651 113.460347619048  200.606679611651 113.460347619048  C 200.606679611651 113.460347619048  202.895790291262 108.786302857143  202.895790291262 108.786302857143  C 202.895790291262 108.786302857143  204.652287378641 107.918088571429  204.652287378641 107.918088571429  C 204.652287378641 107.918088571429  210.041475728155 107.015777142857  210.041475728155 107.015777142857  C 210.041475728155 107.015777142857  213.614959223301 103.932300952381  213.614959223301 103.932300952381  C 213.614959223301 103.932300952381  214.529732038835 104.480591428571  214.529732038835 104.480591428571  C 214.529732038835 104.480591428571  213.068504854369 106.867391428571  213.068504854369 106.867391428571  C 213.068504854369 106.867391428571  207.856170873787 112.626861904762  207.856170873787 112.626861904762  C 207.856170873787 112.626861904762  206.690213592233 114.71646952381  206.690213592233 114.71646952381  C 206.690213592233 114.71646952381  209.303557281554 120.964244761905  209.303557281554 120.964244761905  C 209.303557281554 120.964244761905  211.44452038835 122.894311428571  211.44452038835 122.894311428571  C 211.44452038835 122.894311428571  214.05760776699 123.350834285714  214.05760776699 123.350834285714  C 214.05760776699 123.350834285714  216.479487378641 122.425791428571  216.479487378641 122.425791428571  C 216.479487378641 122.425791428571  219.358368932039 118.839698095238  219.358368932039 118.839698095238  C 219.358368932039 118.839698095238  221.041304854369 118.085982857143  221.041304854369 118.085982857143  C 221.041304854369 118.085982857143  222.842912621359 118.634273333333  222.842912621359 118.634273333333  C 222.842912621359 118.634273333333  227.124326213592 123.454388571429  227.124326213592 123.454388571429  C 227.124326213592 123.454388571429  229.132776699029 124.608008571429  229.132776699029 124.608008571429  C 229.132776699029 124.608008571429  230.712675728155 124.070662857143  230.712675728155 124.070662857143  C 230.712675728155 124.070662857143  238.478633009709 117.183881904762  238.478633009709 117.183881904762  C 238.478633009709 117.183881904762  241.357770873786 117.035285714286  241.357770873786 117.035285714286  C 241.357770873786 117.035285714286  245.890112621359 118.12008  245.890112621359 118.12008  C 245.890112621359 118.12008  247.706586407767 119.74200952381  247.706586407767 119.74200952381  C 247.706586407767 119.74200952381  248.62187184466 122.220366666667  248.62187184466 122.220366666667  C 248.62187184466 122.220366666667  248.356077669903 124.390586666667  248.356077669903 124.390586666667  C 248.356077669903 124.390586666667  246.93893592233 127.429231428571  246.93893592233 127.429231428571  C 246.93893592233 127.429231428571  246.850765048544 129.942317142857  246.850765048544 129.942317142857  C 246.850765048544 129.942317142857  248.150003883495 137.630380952381  248.150003883495 137.630380952381  C 248.150003883495 137.630380952381  248.326601941748 144.987576190476  248.326601941748 144.987576190476  C 248.326601941748 144.987576190476  249.581755339806 148.391818095238  249.581755339806 148.391818095238  C 249.581755339806 148.391818095238  251.280069902913 151.236824761905  251.280069902913 151.236824761905  C 251.280069902913 151.236824761905  248.164613592233 157.007660952381  248.164613592233 157.007660952381  C 248.164613592233 157.007660952381  243.247549514563 161.109631428571  243.247549514563 161.109631428571  C 243.247549514563 161.109631428571  242.45067961165 164.446941904762  242.45067961165 164.446941904762  C 242.45067961165 164.446941904762  242.907937864078 167.577985714286  242.907937864078 167.577985714286  C 242.907937864078 167.577985714286  244.295603883495 168.526180952381  244.295603883495 168.526180952381  C 244.295603883495 168.526180952381  249.788598058253 167.840239047619  249.788598058253 167.840239047619  C 249.788598058253 167.840239047619  253.139860194175 166.275138095238  253.139860194175 166.275138095238  C 253.139860194175 166.275138095238  253.583277669903 165.16677047619  253.583277669903 165.16677047619  C 253.583277669903 165.16677047619  251.708108737864 164.09228952381  251.708108737864 164.09228952381  C 251.708108737864 164.09228952381  251.280069902913 162.309766666667  251.280069902913 162.309766666667  C 251.280069902913 162.309766666667  254.35067184466 163.052537142857  254.35067184466 163.052537142857  C 254.35067184466 163.052537142857  257.584031067961 165.63529047619  257.584031067961 165.63529047619  C 257.584031067961 165.63529047619  257.924411650485 168.743392380952  257.924411650485 168.743392380952  C 257.924411650485 168.743392380952  254.645941747573 169.932582857143  254.645941747573 169.932582857143  C 254.645941747573 169.932582857143  256.152279611651 172.480397142857  256.152279611651 172.480397142857  C 256.152279611651 172.480397142857  257.569165048544 176.400937142857  257.569165048544 176.400937142857  C 257.569165048544 176.400937142857  257.363091262136 178.504225714286  257.363091262136 178.504225714286  C 257.363091262136 178.504225714286  255.915704854369 182.55020952381  255.915704854369 182.55020952381  C 255.915704854369 182.55020952381  251.427448543689 188.905748571429  251.427448543689 188.905748571429  C 251.427448543689 188.905748571429  251.087836893204 191.054710476191  251.087836893204 191.054710476191  C 251.087836893204 191.054710476191  256.963759223301 191.71771047619  256.963759223301 191.71771047619  C 256.963759223301 191.71771047619  260.818159223301 193.924342857143  260.818159223301 193.924342857143  C 260.818159223301 193.924342857143  262.678462135922 198.017052380952  262.678462135922 198.017052380952  C 262.678462135922 198.017052380952  261.068574757282 200.726301904762  261.068574757282 200.726301904762  C 261.068574757282 200.726301904762  255.118834951456 201.789838095238  255.118834951456 201.789838095238  C 255.118834951456 201.789838095238  254.203293203884 202.887260952381  254.203293203884 202.887260952381  C 254.203293203884 202.887260952381  253.154469902913 210.387790476191  253.154469902913 210.387790476191  C 253.154469902913 210.387790476191  255.517398058253 213.943996190476  255.517398058253 213.943996190476  C 255.517398058253 213.943996190476  254.380147572816 216.276493333333  254.380147572816 216.276493333333  C 254.380147572816 216.276493333333  250.187161165049 217.61406952381  250.187161165049 217.61406952381  C 250.187161165049 217.61406952381  243.926772815534 215.498994285714  243.926772815534 215.498994285714  C 243.926772815534 215.498994285714  234.964613592233 210.387790476191  234.964613592233 210.387790476191  C 234.964613592233 210.387790476191  230.357685436893 209.163871428571  230.357685436893 209.163871428571  C 230.357685436893 209.163871428571  226.459968932039 208.798063809524  226.459968932039 208.798063809524  C 226.459968932039 208.798063809524  231.258361165049 215.224954285714  231.258361165049 215.224954285714  C 231.258361165049 215.224954285714  230.697297087379 217.523354285714  230.697297087379 217.523354285714  C 230.697297087379 217.523354285714  233.326019417476 218.014816190476  233.326019417476 218.014816190476  C 233.326019417476 218.014816190476  233.975510679612 219.387120952381  233.975510679612 219.387120952381  C 233.975510679612 219.387120952381  229.619766990291 220.027179047619  229.619766990291 220.027179047619  C 229.619766990291 220.027179047619  226.69654368932 217.294145714286  226.69654368932 217.294145714286  C 226.69654368932 217.294145714286  225.618244660194 213.143765714286  225.618244660194 213.143765714286  C 225.618244660194 213.143765714286  220.642998058252 211.336617142857  220.642998058252 211.336617142857  C 220.642998058252 211.336617142857  220.008116504854 205.51674  220.008116504854 205.51674  C 220.008116504854 205.51674  217.79333592233 201.81278  217.79333592233 201.81278  C 217.79333592233 201.81278  212.25625631068 198.085878095238  212.25625631068 198.085878095238  C 212.25625631068 198.085878095238  208.240636893204 196.564977142857  208.240636893204 196.564977142857  C 208.240636893204 196.564977142857  203.855417475728 196.91962952381  203.855417475728 196.91962952381  C 203.855417475728 196.91962952381  202.895790291262 198.680052380952  202.895790291262 198.680052380952  C 202.895790291262 198.680052380952  201.802625242719 205.619452380952  201.802625242719 205.619452380952  C 201.802625242719 205.619452380952  200.503386407767 207.906907619048  200.503386407767 207.906907619048  C 200.503386407767 207.906907619048  187.71732815534 202.270355238095  187.71732815534 202.270355238095  C 187.71732815534 202.270355238095  185.945452427185 200.532032380952  185.945452427185 200.532032380952  C 185.945452427185 200.532032380952  185.295704854369 198.096822857143  185.295704854369 198.096822857143  C 185.295704854369 198.096822857143  185.708877669903 191.512285714286  185.708877669903 191.512285714286  C 185.708877669903 191.512285714286  185.133716504854 188.780094285714  185.133716504854 188.780094285714  C 185.133716504854 188.780094285714  182.800520388349 187.362747619048  182.800520388349 187.362747619048  C 182.800520388349 187.362747619048  170.501196116505 185.179688571429  170.501196116505 185.179688571429  C 170.501196116505 185.179688571429  167.681009708738 186.27626952381  167.681009708738 186.27626952381  C 167.681009708738 186.27626952381  143.00905631068 175.794976190476  143.00905631068 175.794976190476  C 143.00905631068 175.794976190476  140.986508737864 174.366474285714  140.986508737864 174.366474285714  C 140.986508737864 174.366474285714  133.633724271845 166.697984761905  133.633724271845 166.697984761905  C 133.633724271845 166.697984761905  130.553638834951 160.973032380952  130.553638834951 160.973032380952  C 130.553638834951 160.973032380952  128.69307961165 153.865461904762  128.69307961165 153.865461904762  C 128.69307961165 153.865461904762  130.701786407767 151.065497142857  130.701786407767 151.065497142857  C 130.701786407767 151.065497142857  128.221211650485 150.642860952381  128.221211650485 150.642860952381  C 128.221211650485 150.642860952381  126.641312621359 148.14072  126.641312621359 148.14072  C 126.641312621359 148.14072  124.810229126214 147.889411428571  124.810229126214 147.889411428571  C 124.810229126214 147.889411428571  124.426532038835 145.330441904762  124.426532038835 145.330441904762  C 124.426532038835 145.330441904762  123.407953398058 145.021462857143  123.407953398058 145.021462857143  C 123.407953398058 145.021462857143  118.151277669903 149.912087619048  118.151277669903 149.912087619048  C 118.151277669903 149.912087619048  116.305584466019 149.660779047619  116.305584466019 149.660779047619  C 116.305584466019 149.660779047619  113.869095145631 146.975313333333  113.869095145631 146.975313333333  C 113.869095145631 146.975313333333  111.50719223301 145.741080952381  111.50719223301 145.741080952381  C 111.50719223301 145.741080952381  107.919611650485 145.478827619048  107.919611650485 145.478827619048  C 107.919611650485 145.478827619048  102.825693203883 145.753078095238  102.825693203883 145.753078095238  C 102.825693203883 145.753078095238  100.301033009709 148.368876190476  100.301033009709 148.368876190476  C 100.301033009709 148.368876190476  100.580924271845 151.054341904762  100.580924271845 151.054341904762  C 100.580924271845 151.054341904762  98.6319378640777 152.596711428571  98.6319378640777 152.596711428571  C 98.6319378640777 152.596711428571  96.4171572815534 151.911611428571  96.4171572815534 151.911611428571  C 96.4171572815534 151.911611428571  94.1142058252427 152.608498095238  94.1142058252427 152.608498095238  C 94.1142058252427 152.608498095238  93.7745941747573 153.705079047619  93.7745941747573 153.705079047619  C 93.7745941747573 153.705079047619  90.0537320388349 150.220014285714  90.0537320388349 150.220014285714  C 90.0537320388349 150.220014285714  83.7195262135922 147.112754285714  83.7195262135922 147.112754285714  C 83.7195262135922 147.112754285714  80.2352388349514 143.547919047619  80.2352388349514 143.547919047619  C 80.2352388349514 143.547919047619  78.3157281553398 140.635139047619  78.3157281553398 140.635139047619  C 78.3157281553398 140.635139047619  77.9615067961166 138.589520952381  77.9615067961166 138.589520952381  C 77.9615067961166 138.589520952381  78.6109980582525 135.67653047619  78.6109980582525 135.67653047619  C 78.6109980582525 135.67653047619  82.804240776699 132.95802  82.804240776699 132.95802  C 82.804240776699 132.95802  85.4032310679612 126.33265047619  85.4032310679612 126.33265047619  C 85.4032310679612 126.33265047619  85.5065242718447 124.367644761905  85.5065242718447 124.367644761905  C 85.5065242718447 124.367644761905  84.4282252427184 122.917253333333  84.4282252427184 122.917253333333  C 84.4282252427184 122.917253333333  81.3135378640777 120.907416190476  81.3135378640777 120.907416190476  C 81.3135378640777 120.907416190476  80.0289087378641 119.101951428571  80.0289087378641 119.101951428571  C 80.0289087378641 119.101951428571  78.1978252427185 112.923843809524  78.1978252427185 112.923843809524  C 78.1978252427185 112.923843809524  75.377895145631 108.363666666667  75.377895145631 108.363666666667  C 75.377895145631 108.363666666667  75.067759223301 106.285003809524  75.067759223301 106.285003809524  C 75.067759223301 106.285003809524  76.6033165048544 104.743686666667  76.6033165048544 104.743686666667  C 76.6033165048544 104.743686666667  74.0343145631067 101.237574285714  74.0343145631067 101.237574285714  C 74.0343145631067 101.237574285714  72.5133669902913 95.608599047619  72.5133669902913 95.608599047619  C 72.5133669902913 95.608599047619  70.2839766990291 94.1689419047619  70.2839766990291 94.1689419047619  C 70.2839766990291 94.1689419047619  64.2893825242719 94.2268228571428  64.2893825242719 94.2268228571428  C 64.2893825242719 94.2268228571428  63.4181825242719 92.7193923809524  63.4181825242719 92.7193923809524  C 63.4181825242719 92.7193923809524  64.0971495145632 90.3902628571429  64.0971495145632 90.3902628571429  C 64.0971495145632 90.3902628571429  62.1189436893203 86.7593380952381  62.1189436893203 86.7593380952381  C 62.1189436893203 86.7593380952381  57.586345631068 82.3408114285714  57.586345631068 82.3408114285714  C 57.586345631068 82.3408114285714  56.3460582524272 79.7035447619048  56.3460582524272 79.7035447619048  C 56.3460582524272 79.7035447619048  56.7592310679612 76.1302904761905  56.7592310679612 76.1302904761905  C 56.7592310679612 76.1302904761905  59.594027184466 70.3775552380952  59.594027184466 70.3775552380952  C 59.594027184466 70.3775552380952  61.1739262135922 69.156161904762  61.1739262135922 69.156161904762  C 61.1739262135922 69.156161904762  65.2933514563107 71.9637038095238  65.2933514563107 71.9637038095238  C 65.2933514563107 71.9637038095238  68.1135378640776 71.5757961904762  68.1135378640776 71.5757961904762  C 68.1135378640776 71.5757961904762  66.2088932038835 67.5468609523809  66.2088932038835 67.5468609523809  C 66.2088932038835 67.5468609523809  68.8660660194175 66.72432  68.8660660194175 66.72432  C 68.8660660194175 66.72432  68.8219805825243 65.2067866666666  68.8219805825243 65.2067866666666  C 68.8219805825243 65.2067866666666  66.5925902912621 63.9277228571429  66.5925902912621 63.9277228571429  C 66.5925902912621 63.9277228571429  64.7761165048543 60.789101904762  64.7761165048543 60.789101904762  C 64.7761165048543 60.789101904762  62.5762019417476 61.4060076190476  62.5762019417476 61.4060076190476  C 62.5762019417476 61.4060076190476  62.2514563106797 59.9335161904761  62.2514563106797 59.9335161904761  C 62.2514563106797 59.9335161904761  63.3887067961165 57.5595552380953  63.3887067961165 57.5595552380953  C 63.3887067961165 57.5595552380953  63.1669980582524 55.3569219047619  63.1669980582524 55.3569219047619  C 63.1669980582524 55.3569219047619  58.4273009708738 49.7075304761904  58.4273009708738 49.7075304761904  C 58.4273009708738 49.7075304761904  56.3311922330098 48.2468257142858  56.3311922330098 48.2468257142858  C 56.3311922330098 48.2468257142858  47.9887922330097 44.0591914285715  47.9887922330097 44.0591914285715  C 47.9887922330097 44.0591914285715  43.973172815534 43.6024580952381  43.973172815534 43.6024580952381  C 43.973172815534 43.6024580952381  40.1638834951457 45.7472104761905  40.1638834951457 45.7472104761905  C 40.1638834951457 45.7472104761905  38.3033242718446 42.506719047619  38.3033242718446 42.506719047619  C 38.3033242718446 42.506719047619  36.6344854368932 41.7650009523809  36.6344854368932 41.7650009523809  C 36.6344854368932 41.7650009523809  32.2941203883495 46.7175057142857  32.2941203883495 46.7175057142857  C 32.2941203883495 46.7175057142857  30.035254368932 48.0186695238095  30.035254368932 48.0186695238095  C 30.035254368932 48.0186695238095  27.8058640776699 47.8471314285714  27.8058640776699 47.8471314285714  C 27.8058640776699 47.8471314285714  24.2762097087379 44.3094476190477  24.2762097087379 44.3094476190477  C 24.2762097087379 44.3094476190477  20.1716504854369 42.6433180952381  20.1716504854369 42.6433180952381  C 20.1716504854369 42.6433180952381  14.2073009708738 42.9634523809524  14.2073009708738 42.9634523809524  C 14.2073009708738 42.9634523809524  12.0219961165049 43.956479047619  12.0219961165049 43.956479047619  C 12.0219961165049 43.956479047619  11.6972504854369 45.3713000000001  11.6972504854369 45.3713000000001  C 11.6972504854369 45.3713000000001  8.5669281553398 50.6778257142857  8.5669281553398 50.6778257142857  C 8.5669281553398 50.6778257142857  6.8245281553398 49.8900133333333  6.8245281553398 49.8900133333333  C 6.8245281553398 49.8900133333333  5.33382524271849 46.7292923809524  5.33382524271849 46.7292923809524  C 5.33382524271849 46.7292923809524  6.41109902912625 44.6864104761905  6.41109902912625 44.6864104761905  C 6.41109902912625 44.6864104761905  1.67165825242717 40.6012780952382  1.67165825242717 40.6012780952382  C 1.67165825242717 40.6012780952382  2.11430679611654 38.11366  2.11430679611654 38.11366  C 2.11430679611654 38.11366  3.5322174757282 37.3037476190476  3.5322174757282 37.3037476190476  C 3.5322174757282 37.3037476190476  7.65164271844659 36.6876838095238  7.65164271844659 36.6876838095238  C 7.65164271844659 36.6876838095238  9.49733592233009 32.6484352380953  9.49733592233009 32.6484352380953  C 9.49733592233009 32.6484352380953  9.55628737864083 28.8943819047619  9.55628737864083 28.8943819047619  C 9.55628737864083 28.8943819047619  9.02444271844656 24.6623371428571  9.02444271844656 24.6623371428571  C 9.02444271844656 24.6623371428571  14.5615223300971 22.4260276190476  14.5615223300971 22.4260276190476  C 14.5615223300971 22.4260276190476  18.2229203883495 19.3798057142857  18.2229203883495 19.3798057142857  C 18.2229203883495 19.3798057142857  22.0616854368932 12.0226104761905  22.0616854368932 12.0226104761905  Z " stroke-width="2" stroke="#666666" fill="none" transform="matrix(1 0 0 1 636 318 )" mask="url(#clip86)" />
  </g>
</svg>