<?xml version="1.0" encoding="utf-8"?>
<svg version="1.1" xmlns:xlink="http://www.w3.org/1999/xlink" width="334px" height="250px" xmlns="http://www.w3.org/2000/svg">
  <g transform="matrix(1 0 0 1 -333 -246 )">
    <path d="M 187.881883969466 193.522478991597  C 187.881883969466 193.522478991597  186.927051908397 191.081722689076  186.927051908397 191.081722689076  C 186.927051908397 191.081722689076  187.088442748092 186.861974789916  187.088442748092 186.861974789916  C 187.088442748092 186.861974789916  186.427581679389 178.994117647059  186.427581679389 178.994117647059  C 186.427581679389 178.994117647059  185.061751145038 175.209033613445  185.061751145038 175.209033613445  C 185.061751145038 175.209033613445  181.301829007634 172.802941176471  181.301829007634 172.802941176471  C 181.301829007634 172.802941176471  173.400306870229 172.723319327731  173.400306870229 172.723319327731  C 173.400306870229 172.723319327731  170.124557251908 170.875630252101  170.124557251908 170.875630252101  C 170.124557251908 170.875630252101  169.963421374046 167.957142857143  169.963421374046 167.957142857143  C 169.963421374046 167.957142857143  174.707241221374 164.457352941176  174.707241221374 164.457352941176  C 174.707241221374 164.457352941176  176.160778625954 162.747058823529  176.160778625954 162.747058823529  C 176.160778625954 162.747058823529  176.190864122137 160.878151260504  176.190864122137 160.878151260504  C 176.190864122137 160.878151260504  174.105021374046 157.400420168067  174.105021374046 157.400420168067  C 174.105021374046 157.400420168067  171.270355725191 155.736554621849  171.270355725191 155.736554621849  C 171.270355725191 155.736554621849  162.228899236641 154.619117647059  162.228899236641 154.619117647059  C 162.228899236641 154.619117647059  159.570922137405 153.661764705882  159.570922137405 153.661764705882  C 159.570922137405 153.661764705882  156.04607480916 151.256722689076  156.04607480916 151.256722689076  C 156.04607480916 151.256722689076  154.812314503817 148.487394957983  154.812314503817 148.487394957983  C 154.812314503817 148.487394957983  152.609189312977 147.233403361345  152.609189312977 147.233403361345  C 152.609189312977 147.233403361345  147.600719083969 149.171008403361  147.600719083969 149.171008403361  C 147.600719083969 149.171008403361  146.616821374046 147.780672268908  146.616821374046 147.780672268908  C 146.616821374046 147.780672268908  149.128450381679 144.907983193277  149.128450381679 144.907983193277  C 149.128450381679 144.907983193277  148.540763358779 142.320588235294  148.540763358779 142.320588235294  C 148.540763358779 142.320588235294  147.174422900763 141.898739495798  147.174422900763 141.898739495798  C 147.174422900763 141.898739495798  145.662244274809 144.383613445378  145.662244274809 144.383613445378  C 145.662244274809 144.383613445378  143.576401526718 144.976680672269  143.576401526718 144.976680672269  C 143.576401526718 144.976680672269  143.282685496183 143.756722689076  143.282685496183 143.756722689076  C 143.282685496183 143.756722689076  145.911341984733 140.90756302521  145.911341984733 140.90756302521  C 145.911341984733 140.90756302521  143.958079389313 137.956092436975  143.958079389313 137.956092436975  C 143.958079389313 137.956092436975  142.122099236641 137.967016806723  142.122099236641 137.967016806723  C 142.122099236641 137.967016806723  141.329422900763 139.722478991597  141.329422900763 139.722478991597  C 141.329422900763 139.722478991597  139.302221374046 139.414915966387  139.302221374046 139.414915966387  C 139.302221374046 139.414915966387  135.087192366412 141.728571428571  135.087192366412 141.728571428571  C 135.087192366412 141.728571428571  132.692845801527 141.65987394958  132.692845801527 141.65987394958  C 132.692845801527 141.65987394958  132.061305343511 145.9  132.061305343511 145.9  C 132.061305343511 145.9  130.416546564886 147.062394957983  130.416546564886 147.062394957983  C 130.416546564886 147.062394957983  127.567348091603 146.709033613445  127.567348091603 146.709033613445  C 127.567348091603 146.709033613445  125.422864122137 144.338655462185  125.422864122137 144.338655462185  C 125.422864122137 144.338655462185  123.866067175573 145.683193277311  123.866067175573 145.683193277311  C 123.866067175573 145.683193277311  124.424178625954 148.555042016807  124.424178625954 148.555042016807  C 124.424178625954 148.555042016807  124.057288549618 150.584033613445  124.057288549618 150.584033613445  C 124.057288549618 150.584033613445  120.782303816794 153.901680672269  120.782303816794 153.901680672269  C 120.782303816794 153.901680672269  120.4738 156.990336134454  120.4738 156.990336134454  C 120.4738 156.990336134454  125.099827480916 160.387605042017  125.099827480916 160.387605042017  C 125.099827480916 160.387605042017  126.950340458015 160.113865546219  126.950340458015 160.113865546219  C 126.950340458015 160.113865546219  127.420745038168 157.30987394958  127.420745038168 157.30987394958  C 127.420745038168 157.30987394958  128.492604580153 157.218277310924  128.492604580153 157.218277310924  C 128.492604580153 157.218277310924  131.708948091603 159.236344537815  131.708948091603 159.236344537815  C 131.708948091603 159.236344537815  133.090076335878 162.017647058824  133.090076335878 162.017647058824  C 133.090076335878 162.017647058824  132.252526717557 166.383823529412  132.252526717557 166.383823529412  C 132.252526717557 166.383823529412  130.122830534351 171.081512605042  130.122830534351 171.081512605042  C 130.122830534351 171.081512605042  131.606453435115 171.058613445378  131.606453435115 171.058613445378  C 131.606453435115 171.058613445378  132.634204580153 172.746218487395  132.634204580153 172.746218487395  C 132.634204580153 172.746218487395  130.04965648855 174.045798319328  130.04965648855 174.045798319328  C 130.04965648855 174.045798319328  130.901738931298 175.459663865546  130.901738931298 175.459663865546  C 130.901738931298 175.459663865546  133.295065648855 176.348529411765  133.295065648855 176.348529411765  C 133.295065648855 176.348529411765  134.955377099237 174.36512605042  134.955377099237 174.36512605042  C 134.955377099237 174.36512605042  135.028551145038 176.439915966387  135.028551145038 176.439915966387  C 135.028551145038 176.439915966387  138.730087022901 176.178151260504  138.730087022901 176.178151260504  C 138.730087022901 176.178151260504  139.405480916031 173.338445378151  139.405480916031 173.338445378151  C 139.405480916031 173.338445378151  142.122099236641 171.081512605042  142.122099236641 171.081512605042  C 142.122099236641 171.081512605042  145.412381679389 170.488445378151  145.412381679389 170.488445378151  C 145.412381679389 170.488445378151  145.838167938931 173.007983193277  145.838167938931 173.007983193277  C 145.838167938931 173.007983193277  149.21641221374 173.076680672269  149.21641221374 173.076680672269  C 149.21641221374 173.076680672269  150.729355725191 172.278571428571  150.729355725191 172.278571428571  C 150.729355725191 172.278571428571  151.360896183206 173.623949579832  151.360896183206 173.623949579832  C 151.360896183206 173.623949579832  149.759990839695 174.900630252101  149.759990839695 174.900630252101  C 149.759990839695 174.900630252101  151.198740458015 176.918487394958  151.198740458015 176.918487394958  C 151.198740458015 176.918487394958  150.273483969466 178.423949579832  150.273483969466 178.423949579832  C 150.273483969466 178.423949579832  147.115781679389 180.773319327731  147.115781679389 180.773319327731  C 147.115781679389 180.773319327731  143.092229007634 182.631932773109  143.092229007634 182.631932773109  C 143.092229007634 182.631932773109  139.904441221374 182.950420168067  139.904441221374 182.950420168067  C 139.904441221374 182.950420168067  137.628141984733 184.182352941176  137.628141984733 184.182352941176  C 137.628141984733 184.182352941176  136.277099236641 186.702731092437  136.277099236641 186.702731092437  C 136.277099236641 186.702731092437  134.720047328244 193.202941176471  134.720047328244 193.202941176471  C 134.720047328244 193.202941176471  132.781572519084 194.856722689076  132.781572519084 194.856722689076  C 132.781572519084 194.856722689076  128.566033587786 194.023949579832  128.566033587786 194.023949579832  C 128.566033587786 194.023949579832  118.96085648855 186.120588235294  118.96085648855 186.120588235294  C 118.96085648855 186.120588235294  115.332749618321 184.923529411765  115.332749618321 184.923529411765  C 115.332749618321 184.923529411765  114.173183206107 183.86281512605  114.173183206107 183.86281512605  C 114.173183206107 183.86281512605  113.923320610687 182.083823529412  113.923320610687 182.083823529412  C 113.923320610687 182.083823529412  109.443896183206 181.035084033613  109.443896183206 181.035084033613  C 109.443896183206 181.035084033613  101.865410687023 175.915546218487  101.865410687023 175.915546218487  C 101.865410687023 175.915546218487  102.011758778626 171.480462184874  102.011758778626 171.480462184874  C 102.011758778626 171.480462184874  101.424326717557 168.128361344538  101.424326717557 168.128361344538  C 101.424326717557 168.128361344538  99.265054961832 163.876260504202  99.265054961832 163.876260504202  C 99.265054961832 163.876260504202  99.7354595419847 160.93487394958  99.7354595419847 160.93487394958  C 99.7354595419847 160.93487394958  103.59813129771 161.173739495798  103.59813129771 161.173739495798  C 103.59813129771 161.173739495798  107.945485496183 163.36281512605  107.945485496183 163.36281512605  C 107.945485496183 163.36281512605  110.574396946565 163.043487394958  110.574396946565 163.043487394958  C 110.574396946565 163.043487394958  112.278561832061 159.999579831933  112.278561832061 159.999579831933  C 112.278561832061 159.999579831933  110.970607633588 155.656932773109  110.970607633588 155.656932773109  C 110.970607633588 155.656932773109  109.590244274809 154.254831932773  109.590244274809 154.254831932773  C 109.590244274809 154.254831932773  106.374155725191 155.531512605042  106.374155725191 155.531512605042  C 106.374155725191 155.531512605042  103.113703816794 155.611134453781  103.113703816794 155.611134453781  C 103.113703816794 155.611134453781  101.586227480916 154.699579831933  101.586227480916 154.699579831933  C 101.586227480916 154.699579831933  100.61686259542 152.054831932773  100.61686259542 152.054831932773  C 100.61686259542 152.054831932773  102.863841221374 150.185084033613  102.863841221374 150.185084033613  C 102.863841221374 150.185084033613  103.656772519084 148.008613445378  103.656772519084 148.008613445378  C 103.656772519084 148.008613445378  100.528135877863 144.748739495798  100.528135877863 144.748739495798  C 100.528135877863 144.748739495798  98.5310198473282 144.098949579832  98.5310198473282 144.098949579832  C 98.5310198473282 144.098949579832  97.6644045801527 141.65987394958  97.6644045801527 141.65987394958  C 97.6644045801527 141.65987394958  95.5344534351145 139.186974789916  95.5344534351145 139.186974789916  C 95.5344534351145 139.186974789916  91.6572488549619 137.385924369748  91.6572488549619 137.385924369748  C 91.6572488549619 137.385924369748  91.2462503816794 135.688025210084  91.2462503816794 135.688025210084  C 91.2462503816794 135.688025210084  92.1717618320611 131.722478991597  92.1717618320611 131.722478991597  C 92.1717618320611 131.722478991597  89.7774152671756 129.101260504202  89.7774152671756 129.101260504202  C 89.7774152671756 129.101260504202  87.1194381679389 127.403571428571  87.1194381679389 127.403571428571  C 87.1194381679389 127.403571428571  82.9184320610687 123.479621848739  82.9184320610687 123.479621848739  C 82.9184320610687 123.479621848739  80.2163465648856 121.678571428571  80.2163465648856 121.678571428571  C 80.2163465648856 121.678571428571  75.4725267175572 123.148319327731  75.4725267175572 123.148319327731  C 75.4725267175572 123.148319327731  71.8589526717557 121.052521008403  71.8589526717557 121.052521008403  C 71.8589526717557 121.052521008403  69.450838167939 121.66743697479  69.450838167939 121.66743697479  C 69.450838167939 121.66743697479  68.2170778625955 118.100840336134  68.2170778625955 118.100840336134  C 68.2170778625955 118.100840336134  67.188306870229 117.576470588235  67.188306870229 117.576470588235  C 67.188306870229 117.576470588235  63.4138519083969 118.477100840336  63.4138519083969 118.477100840336  C 63.4138519083969 118.477100840336  61.8723526717557 117.622268907563  61.8723526717557 117.622268907563  C 61.8723526717557 117.622268907563  58.9196396946565 113.931092436975  58.9196396946565 113.931092436975  C 58.9196396946565 113.931092436975  57.260348091603 112.927941176471  57.260348091603 112.927941176471  C 57.260348091603 112.927941176471  53.6615618320611 112.905042016807  53.6615618320611 112.905042016807  C 53.6615618320611 112.905042016807  50.4745389312977 110.877731092437  50.4745389312977 110.877731092437  C 50.4745389312977 110.877731092437  51.7082992366412 107.573739495798  51.7082992366412 107.573739495798  C 51.7082992366412 107.573739495798  50.1660351145038 103.734453781513  50.1660351145038 103.734453781513  C 50.1660351145038 103.734453781513  48.5651297709924 102.549159663866  48.5651297709924 102.549159663866  C 48.5651297709924 102.549159663866  43.5569145038168 102.833823529412  43.5569145038168 102.833823529412  C 43.5569145038168 102.833823529412  37.6825938931297 101.524159663865  37.6825938931297 101.524159663865  C 37.6825938931297 101.524159663865  33.9519923664123 97.6508403361345  33.9519923664123 97.6508403361345  C 33.9519923664123 97.6508403361345  33.5409938931298 93.038025210084  33.5409938931298 93.038025210084  C 33.5409938931298 93.038025210084  32.1012244274809 91.9781512605042  32.1012244274809 91.9781512605042  C 32.1012244274809 91.9781512605042  28.5618442748092 86.6367647058824  28.5618442748092 86.6367647058824  C 28.5618442748092 86.6367647058824  28.0034778625955 83.9485294117647  28.0034778625955 83.9485294117647  C 28.0034778625955 83.9485294117647  35.2443938931298 76.8415966386554  35.2443938931298 76.8415966386554  C 35.2443938931298 76.8415966386554  35.2296061068703 75.3497899159663  35.2296061068703 75.3497899159663  C 35.2296061068703 75.3497899159663  32.3656198473282 73.4705882352941  32.3656198473282 73.4705882352941  C 32.3656198473282 73.4705882352941  32.3949404580153 71.9111344537815  32.3949404580153 71.9111344537815  C 32.3949404580153 71.9111344537815  36.1841832061069 67.8573529411764  36.1841832061069 67.8573529411764  C 36.1841832061069 67.8573529411764  34.9797435114504 65.5453781512605  34.9797435114504 65.5453781512605  C 34.9797435114504 65.5453781512605  27.8415770992366 60.8546218487394  27.8415770992366 60.8546218487394  C 27.8415770992366 60.8546218487394  26.6965435114504 59.1575630252101  26.6965435114504 59.1575630252101  C 26.6965435114504 59.1575630252101  26.9170854961832 54.8768907563025  26.9170854961832 54.8768907563025  C 26.9170854961832 54.8768907563025  30.8819969465648 51.8371848739496  30.8819969465648 51.8371848739496  C 30.8819969465648 51.8371848739496  26.7258641221374 50.4596638655462  26.7258641221374 50.4596638655462  C 26.7258641221374 50.4596638655462  23.2448702290077 48.1138655462185  23.2448702290077 48.1138655462185  C 23.2448702290077 48.1138655462185  17.8549770992366 45.7689075630252  17.8549770992366 45.7689075630252  C 17.8549770992366 45.7689075630252  13.1988641221374 42.9342436974789  13.1988641221374 42.9342436974789  C 13.1988641221374 42.9342436974789  7.79418320610691 41.0449579831933  7.79418320610691 41.0449579831933  C 7.79418320610691 41.0449579831933  5.81083511450389 39.6216386554621  5.81083511450389 39.6216386554621  C 5.81083511450389 39.6216386554621  2.15417251908396 35.0113445378151  2.15417251908396 35.0113445378151  C 2.15417251908396 35.0113445378151  2.00705954198469 33.9422268907563  2.00705954198469 33.9422268907563  C 2.00705954198469 33.9422268907563  4.32797709923662 34.8409663865546  4.32797709923662 34.8409663865546  C 4.32797709923662 34.8409663865546  6.48724885496182 36.6852941176471  6.48724885496182 36.6852941176471  C 6.48724885496182 36.6852941176471  9.39508854961839 38.0968487394958  9.39508854961839 38.0968487394958  C 9.39508854961839 38.0968487394958  12.9931099236641 38.1306722689076  12.9931099236641 38.1306722689076  C 12.9931099236641 38.1306722689076  20.1019557251908 37.425  20.1019557251908 37.425  C 20.1019557251908 37.425  31.8075083969465 38.7109243697479  31.8075083969465 38.7109243697479  C 31.8075083969465 38.7109243697479  37.1390152671756 42.8088235294118  37.1390152671756 42.8088235294118  C 37.1390152671756 42.8088235294118  39.929572519084 43.5949579831932  39.929572519084 43.5949579831932  C 39.929572519084 43.5949579831932  41.8535145038168 40.0426470588235  41.8535145038168 40.0426470588235  C 41.8535145038168 40.0426470588235  45.4074274809161 42.4563025210084  45.4074274809161 42.4563025210084  C 45.4074274809161 42.4563025210084  47.1850213740459 42.5021008403361  47.1850213740459 42.5021008403361  C 47.1850213740459 42.5021008403361  49.2553114503816 39.8495798319327  49.2553114503816 39.8495798319327  C 49.2553114503816 39.8495798319327  48.9916809160306 34.5453781512605  48.9916809160306 34.5453781512605  C 48.9916809160306 34.5453781512605  50.826896183206 31.5514705882353  50.826896183206 31.5514705882353  C 50.826896183206 31.5514705882353  54.3818290076336 29.696218487395  54.3818290076336 29.696218487395  C 54.3818290076336 29.696218487395  58.3760610687023 26.0659663865546  58.3760610687023 26.0659663865546  C 58.3760610687023 26.0659663865546  59.9476458015268 25.2915966386555  59.9476458015268 25.2915966386555  C 59.9476458015268 25.2915966386555  66.1750885496183 24.8476890756302  66.1750885496183 24.8476890756302  C 66.1750885496183 24.8476890756302  69.3914320610688 23.4930672268908  69.3914320610688 23.4930672268908  C 69.3914320610688 23.4930672268908  73.709720610687 25.1552521008403  73.709720610687 25.1552521008403  C 73.709720610687 25.1552521008403  78.0718625954198 24.2336134453782  78.0718625954198 24.2336134453782  C 78.0718625954198 24.2336134453782  77.9400473282443 21.9233193277311  77.9400473282443 21.9233193277311  C 77.9400473282443 21.9233193277311  81.8172519083969 22.3554621848739  81.8172519083969 22.3554621848739  C 81.8172519083969 22.3554621848739  85.650348091603 21.0235294117647  85.650348091603 21.0235294117647  C 85.650348091603 21.0235294117647  87.6775496183207 17.3823529411765  87.6775496183207 17.3823529411765  C 87.6775496183207 17.3823529411765  90.4969175572519 15.9142857142857  90.4969175572519 15.9142857142857  C 90.4969175572519 15.9142857142857  94.6979236641221 12.8415966386554  94.6979236641221 12.8415966386554  C 94.6979236641221 12.8415966386554  98.325265648855 8.58613445378149  98.325265648855 8.58613445378149  C 98.325265648855 8.58613445378149  101.438859541985 7.3002100840336  101.438859541985 7.3002100840336  C 101.438859541985 7.3002100840336  105.052433587786 7.61869747899158  105.052433587786 7.61869747899158  C 105.052433587786 7.61869747899158  108.400592366412 5.91155462184872  108.400592366412 5.91155462184872  C 108.400592366412 5.91155462184872  111.734728244275 1.85021008403359  111.734728244275 1.85021008403359  C 111.734728244275 1.85021008403359  115.171613740458 2.43067226890759  115.171613740458 2.43067226890759  C 115.171613740458 2.43067226890759  116.243473282443 7.24348739495799  116.243473282443 7.24348739495799  C 116.243473282443 7.24348739495799  117.78573740458 8.75651260504204  117.78573740458 8.75651260504204  C 117.78573740458 8.75651260504204  123.719464122137 12.5915966386554  123.719464122137 12.5915966386554  C 123.719464122137 12.5915966386554  125.217619847328 14.184243697479  125.217619847328 14.184243697479  C 125.217619847328 14.184243697479  125.716580152672 20.2728991596639  125.716580152672 20.2728991596639  C 125.716580152672 20.2728991596639  128.448751145038 24.8247899159664  128.448751145038 24.8247899159664  C 128.448751145038 24.8247899159664  129.182786259542 29.2182773109244  129.182786259542 29.2182773109244  C 129.182786259542 29.2182773109244  128.360789312977 33.7142857142857  128.360789312977 33.7142857142857  C 128.360789312977 33.7142857142857  129.903053435114 37.3792016806722  129.903053435114 37.3792016806722  C 129.903053435114 37.3792016806722  135.087192366412 41.7159663865547  135.087192366412 41.7159663865547  C 135.087192366412 41.7159663865547  139.684664122137 43.4348739495799  139.684664122137 43.4348739495799  C 139.684664122137 43.4348739495799  147.130569465649 44.1863445378151  147.130569465649 44.1863445378151  C 147.130569465649 44.1863445378151  152.623977099237 45.7806722689076  152.623977099237 45.7806722689076  C 152.623977099237 45.7806722689076  154.987983206107 45.9170168067227  154.987983206107 45.9170168067227  C 154.987983206107 45.9170168067227  164.681887022901 44.3455882352941  164.681887022901 44.3455882352941  C 164.681887022901 44.3455882352941  172.606865648855 47.0327731092437  172.606865648855 47.0327731092437  C 172.606865648855 47.0327731092437  175.338781679389 47.0327731092437  175.338781679389 47.0327731092437  C 175.338781679389 47.0327731092437  180.714396946565 44.5165966386555  180.714396946565 44.5165966386555  C 180.714396946565 44.5165966386555  185.604819847328 44.3344537815126  185.604819847328 44.3344537815126  C 185.604819847328 44.3344537815126  190.65714351145 43.4466386554622  190.65714351145 43.4466386554622  C 190.65714351145 43.4466386554622  194.94585648855 45.7119747899159  194.94585648855 45.7119747899159  C 194.94585648855 45.7119747899159  200.100929770992 46.1787815126051  200.100929770992 46.1787815126051  C 200.100929770992 46.1787815126051  201.364775572519 45.393487394958  201.364775572519 45.393487394958  C 201.364775572519 45.393487394958  202.950893129771 42.0691176470588  202.950893129771 42.0691176470588  C 202.950893129771 42.0691176470588  209.442221374046 41.1355042016806  209.442221374046 41.1355042016806  C 209.442221374046 41.1355042016806  212.555815267176 46.269537815126  212.555815267176 46.269537815126  C 212.555815267176 46.269537815126  216.022021374046 46.6117647058824  216.022021374046 46.6117647058824  C 216.022021374046 46.6117647058824  218.049222900763 45.3705882352942  218.049222900763 45.3705882352942  C 218.049222900763 45.3705882352942  219.723302290076 45.6552521008403  219.723302290076 45.6552521008403  C 219.723302290076 45.6552521008403  221.574070229008 47.4308823529411  221.574070229008 47.4308823529411  C 221.574070229008 47.4308823529411  224.657833587786 48.2163865546219  224.657833587786 48.2163865546219  C 224.657833587786 48.2163865546219  223.365432061069 56.1178571428572  223.365432061069 56.1178571428572  C 223.365432061069 56.1178571428572  219.54686870229 63.4613445378152  219.54686870229 63.4613445378152  C 219.54686870229 63.4613445378152  215.904738931298 66.5018907563025  215.904738931298 66.5018907563025  C 215.904738931298 66.5018907563025  210.396798473282 68.7340336134454  210.396798473282 68.7340336134454  C 210.396798473282 68.7340336134454  210.925844274809 72.9581932773109  210.925844274809 72.9581932773109  C 210.925844274809 72.9581932773109  210.867203053435 76.7052521008404  210.867203053435 76.7052521008404  C 210.867203053435 76.7052521008404  209.031222900763 80.7369747899159  209.031222900763 80.7369747899159  C 209.031222900763 80.7369747899159  204.933476335878 81.3518907563025  204.933476335878 81.3518907563025  C 204.933476335878 81.3518907563025  203.523027480916 82.160294117647  203.523027480916 82.160294117647  C 203.523027480916 82.160294117647  203.082708396947 84.6432773109244  203.082708396947 84.6432773109244  C 203.082708396947 84.6432773109244  207.797207633588 88.7207983193278  207.797207633588 88.7207983193278  C 207.797207633588 88.7207983193278  206.725603053435 90.7598739495799  206.725603053435 90.7598739495799  C 206.725603053435 90.7598739495799  208.208461068702 93.9147058823529  208.208461068702 93.9147058823529  C 208.208461068702 93.9147058823529  209.941691603053 94.701050420168  209.941691603053 94.701050420168  C 209.941691603053 94.701050420168  213.055540458015 89.4044117647059  213.055540458015 89.4044117647059  C 213.055540458015 89.4044117647059  213.378577099237 87.9922268907563  213.378577099237 87.9922268907563  C 213.378577099237 87.9922268907563  215.552381679389 87.0010504201681  215.552381679389 87.0010504201681  C 215.552381679389 87.0010504201681  221.48534351145 86.681512605042  221.48534351145 86.681512605042  C 221.48534351145 86.681512605042  225.568302290076 88.3445378151261  225.568302290076 88.3445378151261  C 225.568302290076 88.3445378151261  229.079381679389 91.8756302521008  229.079381679389 91.8756302521008  C 229.079381679389 91.8756302521008  231.297039694656 92.0468487394958  231.297039694656 92.0468487394958  C 231.297039694656 92.0468487394958  233.544018320611 90.7481092436975  233.544018320611 90.7481092436975  C 233.544018320611 90.7481092436975  237.861541984733 85.8048319327731  237.861541984733 85.8048319327731  C 237.861541984733 85.8048319327731  239.521598473282 86.5451680672269  239.521598473282 86.5451680672269  C 239.521598473282 86.5451680672269  241.372366412214 89.7796218487395  241.372366412214 89.7796218487395  C 241.372366412214 89.7796218487395  245.161609160305 87.6388655462185  245.161609160305 87.6388655462185  C 245.161609160305 87.6388655462185  249.156096183206 88.0947478991597  249.156096183206 88.0947478991597  C 249.156096183206 88.0947478991597  257.45459389313 92.2745798319328  257.45459389313 92.2745798319328  C 257.45459389313 92.2745798319328  259.539671755725 93.73256302521  259.539671755725 93.73256302521  C 259.539671755725 93.73256302521  264.254425954198 99.3714285714285  264.254425954198 99.3714285714285  C 264.254425954198 99.3714285714285  264.474967938931 101.569957983193  264.474967938931 101.569957983193  C 264.474967938931 101.569957983193  263.343702290076 103.939495798319  263.343702290076 103.939495798319  C 263.343702290076 103.939495798319  263.666738931298 105.409243697479  263.666738931298 105.409243697479  C 263.666738931298 105.409243697479  265.855076335878 104.793487394958  265.855076335878 104.793487394958  C 265.855076335878 104.793487394958  267.661990839695 107.926260504202  267.661990839695 107.926260504202  C 267.661990839695 107.926260504202  269.879648854962 109.202941176471  269.879648854962 109.202941176471  C 269.879648854962 109.202941176471  269.923502290076 110.717647058824  269.923502290076 110.717647058824  C 269.923502290076 110.717647058824  267.280312977099 111.538655462185  267.280312977099 111.538655462185  C 267.280312977099 111.538655462185  269.174934351145 115.560084033613  269.174934351145 115.560084033613  C 269.174934351145 115.560084033613  266.369589312977 115.947268907563  266.369589312977 115.947268907563  C 266.369589312977 115.947268907563  262.271842748092 113.144957983193  262.271842748092 113.144957983193  C 262.271842748092 113.144957983193  260.700258015267 114.364075630252  260.700258015267 114.364075630252  C 260.700258015267 114.364075630252  257.880380152672 120.106092436975  257.880380152672 120.106092436975  C 257.880380152672 120.106092436975  257.469381679389 123.67268907563  257.469381679389 123.67268907563  C 257.469381679389 123.67268907563  258.703141984733 128.405882352941  258.703141984733 128.405882352941  C 258.703141984733 128.405882352941  263.211887022901 132.816176470588  263.211887022901 132.816176470588  C 263.211887022901 132.816176470588  265.179682442748 136.440336134454  265.179682442748 136.440336134454  C 265.179682442748 136.440336134454  264.504288549618 138.76512605042  264.504288549618 138.76512605042  C 264.504288549618 138.76512605042  265.370903816794 140.26974789916  265.370903816794 140.26974789916  C 265.370903816794 140.26974789916  271.333951145038 140.211974789916  271.333951145038 140.211974789916  C 271.333951145038 140.211974789916  273.551609160305 141.648949579832  273.551609160305 141.648949579832  C 273.551609160305 141.648949579832  275.064552671756 147.26743697479  275.064552671756 147.26743697479  C 275.064552671756 147.26743697479  277.620035114504 150.767016806723  277.620035114504 150.767016806723  C 277.620035114504 150.767016806723  276.092558778626 152.305462184874  276.092558778626 152.305462184874  C 276.092558778626 152.305462184874  276.40106259542 154.38025210084  276.40106259542 154.38025210084  C 276.40106259542 154.38025210084  279.206152671756 156.831092436975  279.206152671756 156.831092436975  C 279.206152671756 156.831092436975  281.0276 162.99768907563  281.0276 162.99768907563  C 281.0276 162.99768907563  282.30546870229 164.799789915966  282.30546870229 164.799789915966  C 282.30546870229 164.799789915966  285.403764885496 166.805882352941  285.403764885496 166.805882352941  C 285.403764885496 166.805882352941  286.476389312977 168.253571428571  286.476389312977 168.253571428571  C 286.476389312977 168.253571428571  286.373639694657 170.214915966386  286.373639694657 170.214915966386  C 286.373639694657 170.214915966386  283.788326717557 176.827941176471  283.788326717557 176.827941176471  C 283.788326717557 176.827941176471  279.617151145038 179.541386554622  279.617151145038 179.541386554622  C 279.617151145038 179.541386554622  278.971077862596 182.448949579832  278.971077862596 182.448949579832  C 278.971077862596 182.448949579832  279.323435114504 184.490756302521  279.323435114504 184.490756302521  C 279.323435114504 184.490756302521  281.232844274809 187.398109243698  281.232844274809 187.398109243698  C 281.232844274809 187.398109243698  284.698795419847 190.956302521008  284.698795419847 190.956302521008  C 284.698795419847 190.956302521008  290.999667175572 194.057773109244  290.999667175572 194.057773109244  C 290.999667175572 194.057773109244  294.700948091603 197.536344537815  294.700948091603 197.536344537815  C 294.700948091603 197.536344537815  295.038772519084 196.441806722689  295.038772519084 196.441806722689  C 295.038772519084 196.441806722689  297.329604580153 195.746218487395  297.329604580153 195.746218487395  C 297.329604580153 195.746218487395  299.532729770992 196.430042016807  299.532729770992 196.430042016807  C 299.532729770992 196.430042016807  301.471459541985 194.890546218487  301.471459541985 194.890546218487  C 301.471459541985 194.890546218487  301.193041221374 192.210084033613  301.193041221374 192.210084033613  C 301.193041221374 192.210084033613  303.704415267176 189.599159663865  303.704415267176 189.599159663865  C 303.704415267176 189.599159663865  308.771526717557 189.325420168067  308.771526717557 189.325420168067  C 308.771526717557 189.325420168067  312.340227480916 189.58718487395  312.340227480916 189.58718487395  C 312.340227480916 189.58718487395  314.689700763359 190.819117647059  314.689700763359 190.819117647059  C 314.689700763359 190.819117647059  317.113367938931 193.499579831933  317.113367938931 193.499579831933  C 317.113367938931 193.499579831933  318.949348091603 193.750420168067  318.949348091603 193.750420168067  C 318.949348091603 193.750420168067  324.178360305344 188.868907563025  324.178360305344 188.868907563025  C 324.178360305344 188.868907563025  325.191578625954 189.17731092437  325.191578625954 189.17731092437  C 325.191578625954 189.17731092437  325.57325648855 191.731512605042  325.57325648855 191.731512605042  C 325.57325648855 191.731512605042  327.394703816794 191.982352941176  327.394703816794 191.982352941176  C 327.394703816794 191.982352941176  328.966288549618 194.479831932773  328.966288549618 194.479831932773  C 328.966288549618 194.479831932773  331.433809160305 194.901680672269  331.433809160305 194.901680672269  C 331.433809160305 194.901680672269  329.435673282443 197.696428571429  329.435673282443 197.696428571429  C 329.435673282443 197.696428571429  331.286441221374 204.790756302521  331.286441221374 204.790756302521  C 331.286441221374 204.790756302521  331.800699236641 210.505042016807  331.800699236641 210.505042016807  C 331.800699236641 210.505042016807  329.260004580153 209.216386554622  329.260004580153 209.216386554622  C 329.260004580153 209.216386554622  327.306741984733 209.638235294118  327.306741984733 209.638235294118  C 327.306741984733 209.638235294118  326.542621374046 211.360504201681  326.542621374046 211.360504201681  C 326.542621374046 211.360504201681  326.763163358779 215.695588235294  326.763163358779 215.695588235294  C 326.763163358779 215.695588235294  325.57325648855 216.014915966387  325.57325648855 216.014915966387  C 325.57325648855 216.014915966387  315.248067175572 213.105882352941  315.248067175572 213.105882352941  C 315.248067175572 213.105882352941  311.414970992366 212.59243697479  311.414970992366 212.59243697479  C 311.414970992366 212.59243697479  308.139986259542 214.851050420168  308.139986259542 214.851050420168  C 308.139986259542 214.851050420168  305.568951145038 215.147478991597  305.568951145038 215.147478991597  C 305.568951145038 215.147478991597  301.398030534351 213.847058823529  301.398030534351 213.847058823529  C 301.398030534351 213.847058823529  299.077877862595 217.805882352941  299.077877862595 217.805882352941  C 299.077877862595 217.805882352941  296.066523664122 216.436974789916  296.066523664122 216.436974789916  C 296.066523664122 216.436974789916  293.129363358779 216.11743697479  293.129363358779 216.11743697479  C 293.129363358779 216.11743697479  291.36681221374 213.721638655462  291.36681221374 213.721638655462  C 291.36681221374 213.721638655462  290.08894351145 213.208403361344  290.08894351145 213.208403361344  C 290.08894351145 213.208403361344  287.798111450382 214.372268907563  287.798111450382 214.372268907563  C 287.798111450382 214.372268907563  285.976664122137 218.010924369748  285.976664122137 218.010924369748  C 285.976664122137 218.010924369748  287.107929770992 218.764075630252  287.107929770992 218.764075630252  C 287.107929770992 218.764075630252  285.301015267176 219.665546218487  285.301015267176 219.665546218487  C 285.301015267176 219.665546218487  283.597615267176 223.00756302521  283.597615267176 223.00756302521  C 283.597615267176 223.00756302521  283.920906870229 224.513865546219  283.920906870229 224.513865546219  C 283.920906870229 224.513865546219  280.131664122137 227.251890756303  280.131664122137 227.251890756303  C 280.131664122137 227.251890756303  281.747102290076 229.875630252101  281.747102290076 229.875630252101  C 281.747102290076 229.875630252101  283.568549618321 230.526260504202  283.568549618321 230.526260504202  C 283.568549618321 230.526260504202  282.98086259542 234.142857142857  282.98086259542 234.142857142857  C 282.98086259542 234.142857142857  277.590714503817 232.03256302521  277.590714503817 232.03256302521  C 277.590714503817 232.03256302521  277.07645648855 234.497058823529  277.07645648855 234.497058823529  C 277.07645648855 234.497058823529  274.491653435114 236.448109243698  274.491653435114 236.448109243698  C 274.491653435114 236.448109243698  276.503557251908 238.593067226891  276.503557251908 238.593067226891  C 276.503557251908 238.593067226891  275.636687022901 240.053781512605  275.636687022901 240.053781512605  C 275.636687022901 240.053781512605  274.109975572519 238.947268907563  274.109975572519 238.947268907563  C 274.109975572519 238.947268907563  273.066671755725 239.94012605042  273.066671755725 239.94012605042  C 273.066671755725 239.94012605042  274.124508396947 241.19474789916  274.124508396947 241.19474789916  C 274.124508396947 241.19474789916  274.168616793893 244.436134453782  274.168616793893 244.436134453782  C 274.168616793893 244.436134453782  270.849013740458 244.481932773109  270.849013740458 244.481932773109  C 270.849013740458 244.481932773109  270.261326717557 246.877731092437  270.261326717557 246.877731092437  C 270.261326717557 246.877731092437  272.024132824427 246.489705882353  272.024132824427 246.489705882353  C 272.024132824427 246.489705882353  269.116293129771 248.35  269.116293129771 248.35  C 269.116293129771 248.35  267.412128244275 248.395798319328  267.412128244275 248.395798319328  C 267.412128244275 248.395798319328  265.444077862596 245.907773109244  265.444077862596 245.907773109244  C 265.444077862596 245.907773109244  260.729578625954 244.960504201681  260.729578625954 244.960504201681  C 260.729578625954 244.960504201681  260.377221374046 243.716806722689  260.377221374046 243.716806722689  C 260.377221374046 243.716806722689  261.449080916031 239.392016806723  261.449080916031 239.392016806723  C 261.449080916031 239.392016806723  261.449080916031 237.338445378151  261.449080916031 237.338445378151  C 261.449080916031 237.338445378151  259.598312977099 235.364495798319  259.598312977099 235.364495798319  C 259.598312977099 235.364495798319  256.264941984733 233.458403361344  256.264941984733 233.458403361344  C 256.264941984733 233.458403361344  255.118888549618 231.849579831933  255.118888549618 231.849579831933  C 255.118888549618 231.849579831933  255.545439694656 226.761554621849  255.545439694656 226.761554621849  C 255.545439694656 226.761554621849  252.916018320611 225.209453781513  252.916018320611 225.209453781513  C 252.916018320611 225.209453781513  251.462480916031 222.996638655462  251.462480916031 222.996638655462  C 251.462480916031 222.996638655462  251.535654961832 221.513235294118  251.535654961832 221.513235294118  C 251.535654961832 221.513235294118  253.327781679389 220.098319327731  253.327781679389 220.098319327731  C 253.327781679389 220.098319327731  255.839155725191 219.413865546218  255.839155725191 219.413865546218  C 255.839155725191 219.413865546218  256.02961221374 218.022899159664  256.02961221374 218.022899159664  C 256.02961221374 218.022899159664  252.342864122137 215.798109243697  252.342864122137 215.798109243697  C 252.342864122137 215.798109243697  249.288676335878 215.866806722689  249.288676335878 215.866806722689  C 249.288676335878 215.866806722689  245.352065648855 216.779201680672  245.352065648855 216.779201680672  C 245.352065648855 216.779201680672  243.516085496183 218.022899159664  243.516085496183 218.022899159664  C 243.516085496183 218.022899159664  241.460328244275 222.665336134454  241.460328244275 222.665336134454  C 241.460328244275 222.665336134454  239.521598473282 222.368907563025  239.521598473282 222.368907563025  C 239.521598473282 222.368907563025  234.968235114504 218.718277310924  234.968235114504 218.718277310924  C 234.968235114504 218.718277310924  230.724140458015 219.311344537815  230.724140458015 219.311344537815  C 230.724140458015 219.311344537815  228.13933740458 217.862605042017  228.13933740458 217.862605042017  C 228.13933740458 217.862605042017  225.054809160305 217.26974789916  225.054809160305 217.26974789916  C 225.054809160305 217.26974789916  224.819734351145 215.569327731092  224.819734351145 215.569327731092  C 224.819734351145 215.569327731092  227.008071755725 208.166806722689  227.008071755725 208.166806722689  C 227.008071755725 208.166806722689  224.540551145038 206.455462184874  224.540551145038 206.455462184874  C 224.540551145038 206.455462184874  222.939645801527 206.763865546219  222.939645801527 206.763865546219  C 222.939645801527 206.763865546219  220.501445801527 209.889075630252  220.501445801527 209.889075630252  C 220.501445801527 209.889075630252  219.165190839695 209.523949579832  219.165190839695 209.523949579832  C 219.165190839695 209.523949579832  219.79673129771 203.957983193277  219.79673129771 203.957983193277  C 219.79673129771 203.957983193277  215.463654961832 202.703361344538  215.463654961832 202.703361344538  C 215.463654961832 202.703361344538  211.615770992366 204.744957983193  211.615770992366 204.744957983193  C 211.615770992366 204.744957983193  209.368792366412 207.356932773109  209.368792366412 207.356932773109  C 209.368792366412 207.356932773109  207.107280916031 207.995588235294  207.107280916031 207.995588235294  C 207.107280916031 207.995588235294  204.948009160305 202.943067226891  204.948009160305 202.943067226891  C 204.948009160305 202.943067226891  204.786108396947 200.467647058824  204.786108396947 200.467647058824  C 204.786108396947 200.467647058824  206.446419847328 199.24768907563  206.446419847328 199.24768907563  C 206.446419847328 199.24768907563  205.800091603053 197.205882352941  205.800091603053 197.205882352941  C 205.800091603053 197.205882352941  200.894370992366 195.426890756302  200.894370992366 195.426890756302  C 200.894370992366 195.426890756302  192.449015267176 195.255672268908  192.449015267176 195.255672268908  C 192.449015267176 195.255672268908  189.39406259542 195.665756302521  189.39406259542 195.665756302521  C 189.39406259542 195.665756302521  185.943154198473 198.049789915966  185.943154198473 198.049789915966  C 185.943154198473 198.049789915966  184.855996946565 198.049789915966  184.855996946565 198.049789915966  C 184.855996946565 198.049789915966  182.138613740458 195.88256302521  182.138613740458 195.88256302521  C 182.138613740458 195.88256302521  187.881883969466 193.522478991597  187.881883969466 193.522478991597  Z " fill-rule="nonzero" fill="#169bd5" stroke="none" transform="matrix(1 0 0 1 333 246 )" />
  </g>
</svg>