<?xml version="1.0" encoding="utf-8"?>
<svg version="1.1" xmlns:xlink="http://www.w3.org/1999/xlink" width="205px" height="233px" xmlns="http://www.w3.org/2000/svg">
  <g transform="matrix(1 0 0 1 -125 -379 )">
    <path d="M 22.9740937500001 18.796172972973  C 22.9740937500001 18.796172972973  23.4320125 20.2987081081082  23.4320125 20.2987081081082  C 23.4320125 20.2987081081082  25.7936125000001 24.3728495495496  25.7936125000001 24.3728495495496  C 25.7936125000001 24.3728495495496  28.6277375 27.9127702702703  28.6277375 27.9127702702703  C 28.6277375 27.9127702702703  28.4952562499999 30.5876522522522  28.4952562499999 30.5876522522522  C 28.4952562499999 30.5876522522522  29.39571875 34.1386981981982  29.39571875 34.1386981981982  C 29.39571875 34.1386981981982  31.4767249999999 36.9964117117118  31.4767249999999 36.9964117117118  C 31.4767249999999 36.9964117117118  33.4398562499999 37.7699297297297  33.4398562499999 37.7699297297297  C 33.4398562499999 37.7699297297297  35.683325 41.2422594594595  35.683325 41.2422594594595  C 35.683325 41.2422594594595  39.8166375 41.1507387387387  39.8166375 41.1507387387387  C 39.8166375 41.1507387387387  41.5734875 42.7785900900901  41.5734875 42.7785900900901  C 41.5734875 42.7785900900901  46.5483250000001 45.4085513513514  46.5483250000001 45.4085513513514  C 46.5483250000001 45.4085513513514  48.9391375000001 45.5109873873874  48.9391375000001 45.5109873873874  C 48.9391375000001 45.5109873873874  54.8293 48.561818018018  54.8293 48.561818018018  C 54.8293 48.561818018018  57.64881875 52.3420855855856  57.64881875 52.3420855855856  C 57.64881875 52.3420855855856  58.25408125 54.8696108108108  58.25408125 54.8696108108108  C 58.25408125 54.8696108108108  57.69289375 56.4974621621622  57.69289375 56.4974621621622  C 57.69289375 56.4974621621622  59.39029375 60.3801657657657  59.39029375 60.3801657657657  C 59.39029375 60.3801657657657  62.6382625000001 62.2137288288289  62.6382625000001 62.2137288288289  C 62.6382625000001 62.2137288288289  63.73014375 64.923245945946  63.73014375 64.923245945946  C 63.73014375 64.923245945946  65.0144687500001 65.5953774774775  65.0144687500001 65.5953774774775  C 65.0144687500001 65.5953774774775  69.22106875 64.1835234234235  69.22106875 64.1835234234235  C 69.22106875 64.1835234234235  72.601775 64.3881855855855  72.601775 64.3881855855855  C 72.601775 64.3881855855855  75.8638374999999 63.1931684684684  75.8638374999999 63.1931684684684  C 75.8638374999999 63.1931684684684  79.3326937499999 66.6881684684685  79.3326937499999 66.6881684684685  C 79.3326937499999 66.6881684684685  79.8938812499999 72.6668225225226  79.8938812499999 72.6668225225226  C 79.8938812499999 72.6668225225226  82.27085625 74.8194486486486  82.27085625 74.8194486486486  C 82.27085625 74.8194486486486  82.41794375 77.4960099099099  82.41794375 77.4960099099099  C 82.41794375 77.4960099099099  84.2632 78.8621036036036  84.2632 78.8621036036036  C 84.2632 78.8621036036036  87.0091749999999 83.2131162162162  87.0091749999999 83.2131162162162  C 87.0091749999999 83.2131162162162  87.20059375 84.4091828828829  87.20059375 84.4091828828829  C 87.20059375 84.4091828828829  85.7397125 86.4474081081082  85.7397125 86.4474081081082  C 85.7397125 86.4474081081082  86.049775 87.7230306306306  86.049775 87.7230306306306  C 86.049775 87.7230306306306  87.86479375 88.2927261261262  87.86479375 88.2927261261262  C 87.86479375 88.2927261261262  90.8321687500001 87.4726081081081  90.8321687500001 87.4726081081081  C 90.8321687500001 87.4726081081081  105.55783125 91.5051873873874  105.55783125 91.5051873873874  C 105.55783125 91.5051873873874  107.12249375 93.0312324324324  107.12249375 93.0312324324324  C 107.12249375 93.0312324324324  108.64308125 96.0041864864865  108.64308125 96.0041864864865  C 108.64308125 96.0041864864865  111.72833125 99.0913315315315  111.72833125 99.0913315315315  C 111.72833125 99.0913315315315  114.8579125 101.461424324324  114.8579125 101.461424324324  C 114.8579125 101.461424324324  118.53305 104.958103603604  118.53305 104.958103603604  C 118.53305 104.958103603604  122.72504375 105.68775045045  122.72504375 105.68775045045  C 122.72504375 105.68775045045  132.17246875 111.725809009009  132.17246875 111.725809009009  C 132.17246875 111.725809009009  135.095 114.756908108108  135.095 114.756908108108  C 135.095 114.756908108108  137.01456875 117.494343243243  137.01456875 117.494343243243  C 137.01456875 117.494343243243  144.14395625 118.22315045045  144.14395625 118.22315045045  C 144.14395625 118.22315045045  149.53186875 119.955117117117  149.53186875 119.955117117117  C 149.53186875 119.955117117117  153.84250625 119.704484684685  153.84250625 119.704484684685  C 153.84250625 119.704484684685  154.078 117.551018918919  154.078 117.551018918919  C 154.078 117.551018918919  149.7386625 110.506862162162  149.7386625 110.506862162162  C 149.7386625 110.506862162162  151.879375 109.618103603604  151.879375 109.618103603604  C 151.879375 109.618103603604  162.56576875 114.266978378378  162.56576875 114.266978378378  C 162.56576875 114.266978378378  166.28600625 119.988912612613  166.28600625 119.988912612613  C 166.28600625 119.988912612613  172.16130625 124.46755045045  172.16130625 124.46755045045  C 172.16130625 124.46755045045  175.733175 125.721132432432  175.733175 125.721132432432  C 175.733175 125.721132432432  178.46454375 125.778018018018  178.46454375 125.778018018018  C 178.46454375 125.778018018018  179.68890625 124.39911981982  179.68890625 124.39911981982  C 179.68890625 124.39911981982  178.5821625 122.188138738739  178.5821625 122.188138738739  C 178.5821625 122.188138738739  181.018075 121.367810810811  181.018075 121.367810810811  C 181.018075 121.367810810811  184.08795 122.655188288288  184.08795 122.655188288288  C 184.08795 122.655188288288  188.62024375 126.700572072072  188.62024375 126.700572072072  C 188.62024375 126.700572072072  191.55738125 128.535814414414  191.55738125 128.535814414414  C 191.55738125 128.535814414414  193.166375 131.544033333333  193.166375 131.544033333333  C 193.166375 131.544033333333  195.0262375 132.398996396396  195.0262375 132.398996396396  C 195.0262375 132.398996396396  198.67190625 131.931736936937  198.67190625 131.931736936937  C 198.67190625 131.931736936937  199.0114375 134.108082882883  199.0114375 134.108082882883  C 199.0114375 134.108082882883  202.92360625 134.996841441441  202.92360625 134.996841441441  C 202.92360625 134.996841441441  202.7168125 137.071590990991  202.7168125 137.071590990991  C 202.7168125 137.071590990991  204.05981875 137.036955855856  204.05981875 137.036955855856  C 204.05981875 137.036955855856  202.953075 138.724001801802  202.953075 138.724001801802  C 202.953075 138.724001801802  200.29653125 139.282572072072  200.29653125 139.282572072072  C 200.29653125 139.282572072072  198.12635 140.934982882883  198.12635 140.934982882883  C 198.12635 140.934982882883  199.54315625 143.840975675676  199.54315625 143.840975675676  C 199.54315625 143.840975675676  197.31429375 144.593502702703  197.31429375 144.593502702703  C 197.31429375 144.593502702703  193.12204375 141.527558558559  193.12204375 141.527558558559  C 193.12204375 141.527558558559  192.4432375 144.330905405405  192.4432375 144.330905405405  C 192.4432375 144.330905405405  194.923225 149.335367567568  194.923225 149.335367567568  C 194.923225 149.335367567568  193.0485 152.150679279279  193.0485 152.150679279279  C 193.0485 152.150679279279  189.5353125 151.535433333333  189.5353125 151.535433333333  C 189.5353125 151.535433333333  187.30568125 156.219782882883  187.30568125 156.219782882883  C 187.30568125 156.219782882883  183.52753125 157.918583783784  183.52753125 157.918583783784  C 183.52753125 157.918583783784  183.14315625 162.751969369369  183.14315625 162.751969369369  C 183.14315625 162.751969369369  179.4534125 166.560364864865  179.4534125 166.560364864865  C 179.4534125 166.560364864865  176.98803125 170.128203603604  176.98803125 170.128203603604  C 176.98803125 170.128203603604  173.59271875 170.892485585586  173.59271875 170.892485585586  C 173.59271875 170.892485585586  172.67739375 173.606410810811  172.67739375 173.606410810811  C 172.67739375 173.606410810811  170.74373125 174.51804954955  170.74373125 174.51804954955  C 170.74373125 174.51804954955  166.7136875 174.267417117117  166.7136875 174.267417117117  C 166.7136875 174.267417117117  165.81399375 175.909542342342  165.81399375 175.909542342342  C 165.81399375 175.909542342342  168.2932125 179.751733333333  168.2932125 179.751733333333  C 168.2932125 179.751733333333  171.46686875 179.705972972973  171.46686875 179.705972972973  C 171.46686875 179.705972972973  171.55604375 181.051915315315  171.55604375 181.051915315315  C 171.55604375 181.051915315315  174.59645 182.57984954955  174.59645 182.57984954955  C 174.59645 182.57984954955  187.4684 185.978500900901  187.4684 185.978500900901  C 187.4684 185.978500900901  189.32851875 188.156526126126  189.32851875 188.156526126126  C 189.32851875 188.156526126126  186.760125 187.654421621622  186.760125 187.654421621622  C 186.760125 187.654421621622  184.64888125 188.54401981982  184.64888125 188.54401981982  C 184.64888125 188.54401981982  182.52303125 187.141611711712  182.52303125 187.141611711712  C 182.52303125 187.141611711712  180.29416875 189.342307207207  180.29416875 189.342307207207  C 180.29416875 189.342307207207  176.14625 188.703341441441  176.14625 188.703341441441  C 176.14625 188.703341441441  171.57065 188.965728828829  171.57065 188.965728828829  C 171.57065 188.965728828829  167.0088875 188.315637837838  167.0088875 188.315637837838  C 167.0088875 188.315637837838  164.14529375 189.547179279279  164.14529375 189.547179279279  C 164.14529375 189.547179279279  163.48109375 191.189304504504  163.48109375 191.189304504504  C 163.48109375 191.189304504504  164.1306875 195.0443  164.1306875 195.0443  C 164.1306875 195.0443  163.61434375 196.948812612613  163.61434375 196.948812612613  C 163.61434375 196.948812612613  161.07541875 197.667334234234  161.07541875 197.667334234234  C 161.07541875 197.667334234234  160.02684375 199.252783783784  160.02684375 199.252783783784  C 160.02684375 199.252783783784  162.04968125 201.203266666667  162.04968125 201.203266666667  C 162.04968125 201.203266666667  160.73614375 203.359041441441  160.73614375 203.359041441441  C 160.73614375 203.359041441441  158.2266875 203.17620990991  158.2266875 203.17620990991  C 158.2266875 203.17620990991  154.2701875 201.169261261261  154.2701875 201.169261261261  C 154.2701875 201.169261261261  152.24811875 201.853357657658  152.24811875 201.853357657658  C 152.24811875 201.853357657658  151.672325 203.107779279279  151.672325 203.107779279279  C 151.672325 203.107779279279  150.12226875 201.374133333333  150.12226875 201.374133333333  C 150.12226875 201.374133333333  152.01185625 195.260927027027  152.01185625 195.260927027027  C 152.01185625 195.260927027027  152.0264625 192.980465765766  152.0264625 192.980465765766  C 152.0264625 192.980465765766  149.22180625 189.752890990991  149.22180625 189.752890990991  C 149.22180625 189.752890990991  148.10045625 189.707130630631  148.10045625 189.707130630631  C 148.10045625 189.707130630631  147.6866125 191.85136036036  147.6866125 191.85136036036  C 147.6866125 191.85136036036  145.635075 196.892136936937  145.635075 196.892136936937  C 145.635075 196.892136936937  142.845025 201.317457657658  142.845025 201.317457657658  C 142.845025 201.317457657658  138.18025 204.192173873874  138.18025 204.192173873874  C 138.18025 204.192173873874  135.095 207.282467567567  135.095 207.282467567567  C 135.095 207.282467567567  135.80404375 218.142786486486  135.80404375 218.142786486486  C 135.80404375 218.142786486486  133.30919375 219.215426126126  133.30919375 219.215426126126  C 133.30919375 219.215426126126  128.71821875 214.868611711712  128.71821875 214.868611711712  C 128.71821875 214.868611711712  124.90983125 213.636230630631  124.90983125 213.636230630631  C 124.90983125 213.636230630631  123.8471625 215.678654054054  123.8471625 215.678654054054  C 123.8471625 215.678654054054  125.91330625 221.30277027027  125.91330625 221.30277027027  C 125.91330625 221.30277027027  126.8581 226.665128828829  126.8581 226.665128828829  C 126.8581 226.665128828829  126.40095 227.783318918919  126.40095 227.783318918919  C 126.40095 227.783318918919  123.27136875 228.570481081081  123.27136875 228.570481081081  C 123.27136875 228.570481081081  119.30103125 231.559388288288  119.30103125 231.559388288288  C 119.30103125 231.559388288288  115.4329375 231.240325225225  115.4329375 231.240325225225  C 115.4329375 231.240325225225  111.32935 229.985063963964  111.32935 229.985063963964  C 111.32935 229.985063963964  106.22203125 230.441198198198  106.22203125 230.441198198198  C 106.22203125 230.441198198198  99.2310187500001 230.190775675676  99.2310187500001 230.190775675676  C 99.2310187500001 230.190775675676  93.2673125 228.92354954955  93.2673125 228.92354954955  C 93.2673125 228.92354954955  91.1127625 227.3381  91.1127625 227.3381  C 91.1127625 227.3381  88.78011875 224.223036936937  88.78011875 224.223036936937  C 88.78011875 224.223036936937  85.9016625 223.687346846847  85.9016625 223.687346846847  C 85.9016625 223.687346846847  82.7720812500001 225.181275675676  82.7720812500001 225.181275675676  C 82.7720812500001 225.181275675676  79.17074375 222.35231981982  79.17074375 222.35231981982  C 79.17074375 222.35231981982  79.7465375000001 221.028418018018  79.7465375000001 221.028418018018  C 79.7465375000001 221.028418018018  79.0972000000001 217.275228828829  79.0972000000001 217.275228828829  C 79.0972000000001 217.275228828829  78.181875 215.75841981982  78.181875 215.75841981982  C 78.181875 215.75841981982  76.6907562499999 215.666899099099  76.6907562499999 215.666899099099  C 76.6907562499999 215.666899099099  73.399225 209.997232432432  73.399225 209.997232432432  C 73.399225 209.997232432432  71.3174500000001 208.388902702703  71.3174500000001 208.388902702703  C 71.3174500000001 208.388902702703  71.3469187499999 206.95164954955  71.3469187499999 206.95164954955  C 71.3469187499999 206.95164954955  67.568 204.773624324324  67.568 204.773624324324  C 67.568 204.773624324324  66.16605625 201.944668468468  66.16605625 201.944668468468  C 66.16605625 201.944668468468  66.4317875 200.461654954955  66.4317875 200.461654954955  C 66.4317875 200.461654954955  64.3797375 199.252783783784  64.3797375 199.252783783784  C 64.3797375 199.252783783784  63.907725 195.739941441441  63.907725 195.739941441441  C 63.907725 195.739941441441  60.58595625 191.85136036036  60.58595625 191.85136036036  C 60.58595625 191.85136036036  61.1766125 187.335358558559  61.1766125 187.335358558559  C 61.1766125 187.335358558559  59.1097 186.639507207207  59.1097 186.639507207207  C 59.1097 186.639507207207  60.29075625 183.549003603604  60.29075625 183.549003603604  C 60.29075625 183.549003603604  61.91435625 182.169265765766  61.91435625 182.169265765766  C 61.91435625 182.169265765766  61.54535625 179.136487387387  61.54535625 179.136487387387  C 61.54535625 179.136487387387  59.81874375 176.570758558559  59.81874375 176.570758558559  C 59.81874375 176.570758558559  57.1760374999999 170.869605405405  57.1760374999999 170.869605405405  C 57.1760374999999 170.869605405405  53.63338125 164.223227927928  53.63338125 164.223227927928  C 53.63338125 164.223227927928  52.083325 156.345938738739  52.083325 156.345938738739  C 52.083325 156.345938738739  51.8470625 146.998230630631  51.8470625 146.998230630631  C 51.8470625 146.998230630631  52.33445 145.140318018018  52.33445 145.140318018018  C 52.33445 145.140318018018  51.1974687499999 144.479101801802  51.1974687499999 144.479101801802  C 51.1974687499999 144.479101801802  50.03204375 140.855427027027  50.03204375 140.855427027027  C 50.03204375 140.855427027027  47.49311875 140.205336036036  47.49311875 140.205336036036  C 47.49311875 140.205336036036  45.97253125 138.815312612613  45.97253125 138.815312612613  C 45.97253125 138.815312612613  45.9282 136.661007207207  45.9282 136.661007207207  C 45.9282 136.661007207207  41.23395625 132.968691891892  41.23395625 132.968691891892  C 41.23395625 132.968691891892  38.76883125 132.091058558559  38.76883125 132.091058558559  C 38.76883125 132.091058558559  38.2371125 126.814972972973  38.2371125 126.814972972973  C 38.2371125 126.814972972973  35.9933875 124.774858558559  35.9933875 124.774858558559  C 35.9933875 124.774858558559  35.34405 122.678068468468  35.34405 122.678068468468  C 35.34405 122.678068468468  35.9344499999999 120.103103603604  35.9344499999999 120.103103603604  C 35.9344499999999 120.103103603604  34.44333125 114.847589189189  34.44333125 114.847589189189  C 34.44333125 114.847589189189  33.5877125 110.097118018018  33.5877125 110.097118018018  C 33.5877125 110.097118018018  31.4913312500001 105.174940540541  31.4913312500001 105.174940540541  C 31.4913312500001 105.174940540541  29.80879375 102.304422522523  29.80879375 102.304422522523  C 29.80879375 102.304422522523  30.2808062499999 99.661027027027  30.2808062499999 99.661027027027  C 30.2808062499999 99.661027027027  28.2146625 97.9299  28.2146625 97.9299  C 28.2146625 97.9299  28.14111875 95.5606468468469  28.14111875 95.5606468468469  C 28.14111875 95.5606468468469  29.4251875 94.831  29.4251875 94.831  C 29.4251875 94.831  29.73525 89.2383702702703  29.73525 89.2383702702703  C 29.73525 89.2383702702703  25.4686875000001 77.7237621621621  25.4686875000001 77.7237621621621  C 25.4686875000001 77.7237621621621  25.0115375 74.1135216216216  25.0115375 74.1135216216216  C 25.0115375 74.1135216216216  25.4246125 71.0381315315315  25.4246125 71.0381315315315  C 25.4246125 71.0381315315315  23.93349375 68.1119873873874  23.93349375 68.1119873873874  C 23.93349375 68.1119873873874  22.6786374999999 62.7714594594595  22.6786374999999 62.7714594594595  C 22.6786374999999 62.7714594594595  23.03303125 59.1503036036036  23.03303125 59.1503036036036  C 23.03303125 59.1503036036036  19.56391875 56.5661027027026  19.56391875 56.5661027027026  C 19.56391875 56.5661027027026  19.87398125 54.2661198198198  19.87398125 54.2661198198198  C 19.87398125 54.2661198198198  17.5421062500001 52.3074504504504  17.5421062500001 52.3074504504504  C 17.5421062500001 52.3074504504504  13.11359375 45.1919243243243  13.11359375 45.1919243243243  C 13.11359375 45.1919243243243  11.53406875 40.9003162162162  11.53406875 40.9003162162162  C 11.53406875 40.9003162162162  11.3124125 31.7033234234234  11.3124125 31.7033234234234  C 11.3124125 31.7033234234234  9.80745624999995 27.3210342342342  9.80745624999995 27.3210342342342  C 9.80745624999995 27.3210342342342  9.08355000000002 23.6906423423423  9.08355000000002 23.6906423423423  C 9.08355000000002 23.6906423423423  7.54835624999997 21.9714801801802  7.54835624999997 21.9714801801802  C 7.54835624999997 21.9714801801802  6.6035625 17.0323  6.6035625 17.0323  C 6.6035625 17.0323  4.86208750000001 15.5872801801802  4.86208750000001 15.5872801801802  C 4.86208750000001 15.5872801801802  5.17214999999996 12.1961855855856  5.17214999999996 12.1961855855856  C 5.17214999999996 12.1961855855856  3.09037500000004 9.40795225225224  3.09037500000004 9.40795225225224  C 3.09037500000004 9.40795225225224  3.11984374999993 6.15413873873876  3.11984374999993 6.15413873873876  C 3.11984374999993 6.15413873873876  1.67356874999999 2.29683423423424  1.67356874999999 2.29683423423424  C 1.67356874999999 2.29683423423424  3.57801874999999 0.714743243243285  3.57801874999999 0.714743243243285  C 3.57801874999999 0.714743243243285  6.48568750000002 0.851814414414413  6.48568750000002 0.851814414414413  C 6.48568750000002 0.851814414414413  8.93620625000001 4.70827927927927  8.93620625000001 4.70827927927927  C 8.93620625000001 4.70827927927927  11.96200625 6.51812252252257  11.96200625 6.51812252252257  C 11.96200625 6.51812252252257  12.39045625 9.63570450450448  12.39045625 9.63570450450448  C 12.39045625 9.63570450450448  16.36079375 12.2301909909909  16.36079375 12.2301909909909  C 16.36079375 12.2301909909909  18.79670625 15.3366477477478  18.79670625 15.3366477477478  C 18.79670625 15.3366477477478  20.3467625 16.065454954955  20.3467625 16.065454954955  C 20.3467625 16.065454954955  22.9740937500001 18.796172972973  22.9740937500001 18.796172972973  Z " fill-rule="nonzero" fill="#169bd5" stroke="none" transform="matrix(1 0 0 1 125 379 )" />
  </g>
</svg>