<?xml version="1.0" encoding="utf-8"?>
<svg version="1.1" xmlns:xlink="http://www.w3.org/1999/xlink" width="373px" height="376px" xmlns="http://www.w3.org/2000/svg">
  <g transform="matrix(1 0 0 1 -214 -621 )">
    <path d="M 121.419675342466 5.69650502793299  C 121.419675342466 5.69650502793299  122.434950684932 7.12299441340786  122.434950684932 7.12299441340786  C 122.434950684932 7.12299441340786  123.818116438356 11.4829139664805  123.818116438356 11.4829139664805  C 123.818116438356 11.4829139664805  123.141351369863 13.5717094972067  123.141351369863 13.5717094972067  C 123.141351369863 13.5717094972067  120.918935616438 16.071374301676  120.918935616438 16.071374301676  C 120.918935616438 16.071374301676  122.199398630137 19.0157273743017  122.199398630137 19.0157273743017  C 122.199398630137 19.0157273743017  124.406996575342 18.8676379888268  124.406996575342 18.8676379888268  C 124.406996575342 18.8676379888268  124.62798630137 22.2346234636872  124.62798630137 22.2346234636872  C 124.62798630137 22.2346234636872  123.71541369863 24.6317810055866  123.71541369863 24.6317810055866  C 123.71541369863 24.6317810055866  125.59906369863 25.785617877095  125.59906369863 25.785617877095  C 125.59906369863 25.785617877095  124.98105890411 28.7417340782123  124.98105890411 28.7417340782123  C 124.98105890411 28.7417340782123  127.439026712329 30.7967106145252  127.439026712329 30.7967106145252  C 127.439026712329 30.7967106145252  127.880239726027 32.3832625698324  127.880239726027 32.3832625698324  C 127.880239726027 32.3832625698324  131.589034931507 35.5683396648044  131.589034931507 35.5683396648044  C 131.589034931507 35.5683396648044  131.544836986301 36.6186189944134  131.544836986301 36.6186189944134  C 131.544836986301 36.6186189944134  129.248587671233 36.0705832402234  129.248587671233 36.0705832402234  C 129.248587671233 36.0705832402234  129.18982739726 38.7082547486033  129.18982739726 38.7082547486033  C 129.18982739726 38.7082547486033  126.952849315069 40.5922458100559  126.952849315069 40.5922458100559  C 126.952849315069 40.5922458100559  127.556291780822 42.3846525139665  127.556291780822 42.3846525139665  C 127.556291780822 42.3846525139665  127.394828767123 47.5795441340782  127.394828767123 47.5795441340782  C 127.394828767123 47.5795441340782  128.498244520548 50.3316960893854  128.498244520548 50.3316960893854  C 128.498244520548 50.3316960893854  131.824586986301 50.0691262569832  131.824586986301 50.0691262569832  C 131.824586986301 50.0691262569832  133.325273287671 52.3528536312849  133.325273287671 52.3528536312849  C 133.325273287671 52.3528536312849  135.50349109589 51.1880938547486  135.50349109589 51.1880938547486  C 135.50349109589 51.1880938547486  135.474110958904 55.9036379888268  135.474110958904 55.9036379888268  C 135.474110958904 55.9036379888268  134.517340410959 57.3091217877095  134.517340410959 57.3091217877095  C 134.517340410959 57.3091217877095  135.164980821918 59.6951463687151  135.164980821918 59.6951463687151  C 135.164980821918 59.6951463687151  134.35587739726 61.6595888268157  134.35587739726 61.6595888268157  C 134.35587739726 61.6595888268157  135.518053424658 65.6567418994413  135.518053424658 65.6567418994413  C 135.518053424658 65.6567418994413  134.400075342466 67.518677094972  134.400075342466 67.518677094972  C 134.400075342466 67.518677094972  134.590918493151 70.5909541899441  134.590918493151 70.5909541899441  C 134.590918493151 70.5909541899441  132.368502739726 68.9689027932961  132.368502739726 68.9689027932961  C 132.368502739726 68.9689027932961  132.530987671233 66.5480089385475  132.530987671233 66.5480089385475  C 132.530987671233 66.5480089385475  129.145884931507 65.4628603351955  129.145884931507 65.4628603351955  C 129.145884931507 65.4628603351955  127.998271232877 67.3586145251397  127.998271232877 67.3586145251397  C 127.998271232877 67.3586145251397  129.042926712329 69.014694972067  129.042926712329 69.014694972067  C 129.042926712329 69.014694972067  131.956669863014 71.3786636871508  131.956669863014 71.3786636871508  C 131.956669863014 71.3786636871508  133.781815068493 71.2990525139665  133.781815068493 71.2990525139665  C 133.781815068493 71.2990525139665  134.944757534247 73.3321832402234  134.944757534247 73.3321832402234  C 134.944757534247 73.3321832402234  134.753147945206 75.1821452513966  134.753147945206 75.1821452513966  C 134.753147945206 75.1821452513966  136.651615753425 75.7648402234637  136.651615753425 75.7648402234637  C 136.651615753425 75.7648402234637  135.164980821918 77.9697966480447  135.164980821918 77.9697966480447  C 135.164980821918 77.9697966480447  138.564645890411 80.3568715083799  138.564645890411 80.3568715083799  C 138.564645890411 80.3568715083799  143.906976712329 80.2543642458101  143.906976712329 80.2543642458101  C 143.906976712329 80.2543642458101  144.848929452055 78.0374346368715  144.848929452055 78.0374346368715  C 144.848929452055 78.0374346368715  145.172621917808 74.2799553072626  145.172621917808 74.2799553072626  C 145.172621917808 74.2799553072626  147.806615068493 71.4244558659217  147.806615068493 71.4244558659217  C 147.806615068493 71.4244558659217  150.779884931507 69.6770011173185  150.779884931507 69.6770011173185  C 150.779884931507 69.6770011173185  154.311888356164 69.6202860335196  154.311888356164 69.6202860335196  C 154.311888356164 69.6202860335196  160.287041780822 72.635007821229  160.287041780822 72.635007821229  C 160.287041780822 72.635007821229  164.127919863014 72.8746815642458  164.127919863014 72.8746815642458  C 164.127919863014 72.8746815642458  163.80422739726 75.890243575419  163.80422739726 75.890243575419  C 163.80422739726 75.890243575419  165.511085616438 76.0503061452513  165.511085616438 76.0503061452513  C 165.511085616438 76.0503061452513  165.614554794521 74.0054122905027  165.614554794521 74.0054122905027  C 165.614554794521 74.0054122905027  168.336688356164 70.8875530726257  168.336688356164 70.8875530726257  C 168.336688356164 70.8875530726257  166.732788356164 69.1398882681565  166.732788356164 69.1398882681565  C 166.732788356164 69.1398882681565  168.66063630137 68.1582972067039  168.66063630137 68.1582972067039  C 168.66063630137 68.1582972067039  173.708399315069 69.4482502793296  173.708399315069 69.4482502793296  C 173.708399315069 69.4482502793296  175.710591780822 70.4079955307263  175.710591780822 70.4079955307263  C 175.710591780822 70.4079955307263  179.257157534247 75.3422078212291  179.257157534247 75.3422078212291  C 179.257157534247 75.3422078212291  181.405995205479 76.5069675977653  181.405995205479 76.5069675977653  C 181.405995205479 76.5069675977653  184.246160273973 75.4447150837989  184.246160273973 75.4447150837989  C 184.246160273973 75.4447150837989  187.99327739726 75.8564245810056  187.99327739726 75.8564245810056  C 187.99327739726 75.8564245810056  190.450478767123 79.4996335195531  190.450478767123 79.4996335195531  C 190.450478767123 79.4996335195531  190.244817808219 84.1151910614525  190.244817808219 84.1151910614525  C 190.244817808219 84.1151910614525  188.875703424657 87.4849072625698  188.875703424657 87.4849072625698  C 188.875703424657 87.4849072625698  181.641547260274 88.432679329609  181.641547260274 88.432679329609  C 181.641547260274 88.432679329609  181.332417123288 90.3521698324022  181.332417123288 90.3521698324022  C 181.332417123288 90.3521698324022  178.477434246575 95.2989854748603  178.477434246575 95.2989854748603  C 178.477434246575 95.2989854748603  177.623621917808 99.8002726256983  177.623621917808 99.8002726256983  C 177.623621917808 99.8002726256983  174.988862328767 102.79377877095  174.988862328767 102.79377877095  C 174.988862328767 102.79377877095  175.092331506849 104.919124022346  175.092331506849 104.919124022346  C 175.092331506849 104.919124022346  172.457571917808 105.490896089385  172.457571917808 105.490896089385  C 172.457571917808 105.490896089385  169.63171369863 107.376357541899  169.63171369863 107.376357541899  C 169.63171369863 107.376357541899  170.26453630137 109.935468156425  170.26453630137 109.935468156425  C 170.26453630137 109.935468156425  173.384706849315 108.850319553073  173.384706849315 108.850319553073  C 173.384706849315 108.850319553073  175.592304794521 109.650002234637  175.592304794521 109.650002234637  C 175.592304794521 109.650002234637  174.17975890411 111.992965363129  174.17975890411 111.992965363129  C 174.17975890411 111.992965363129  176.314034246575 113.112773184358  176.314034246575 113.112773184358  C 176.314034246575 113.112773184358  176.917476712329 115.797917318436  176.917476712329 115.797917318436  C 176.917476712329 115.797917318436  184.746133561644 116.803454748603  184.746133561644 116.803454748603  C 184.746133561644 116.803454748603  197.617699315069 115.637854748603  197.617699315069 115.637854748603  C 197.617699315069 115.637854748603  197.750548630137 111.284026815642  197.750548630137 111.284026815642  C 197.750548630137 111.284026815642  199.795917123288 110.586851396648  199.795917123288 110.586851396648  C 199.795917123288 110.586851396648  204.417284931507 110.575718435754  204.417284931507 110.575718435754  C 204.417284931507 110.575718435754  204.446665068493 113.123696089386  204.446665068493 113.123696089386  C 204.446665068493 113.123696089386  208.081371232877 113.340683798883  208.081371232877 113.340683798883  C 208.081371232877 113.340683798883  208.140131506849 112.507182122905  208.140131506849 112.507182122905  C 208.140131506849 112.507182122905  213.129389726027 112.63258547486  213.129389726027 112.63258547486  C 213.129389726027 112.63258547486  213.114571917808 116.197863687151  213.114571917808 116.197863687151  C 213.114571917808 116.197863687151  216.984830136986 114.16389273743  216.984830136986 114.16389273743  C 216.984830136986 114.16389273743  220.075620547945 111.158623463687  220.075620547945 111.158623463687  C 220.075620547945 111.158623463687  221.900765753425 110.415655865922  221.900765753425 110.415655865922  C 221.900765753425 110.415655865922  225.65375890411 110.095530726257  225.65375890411 110.095530726257  C 225.65375890411 110.095530726257  226.492753424658 107.616241340782  226.492753424658 107.616241340782  C 226.492753424658 107.616241340782  223.166410958904 106.381953072626  223.166410958904 106.381953072626  C 223.166410958904 106.381953072626  221.474115068493 101.034560893855  221.474115068493 101.034560893855  C 221.474115068493 101.034560893855  222.974801369863 98.8525005586592  222.974801369863 98.8525005586592  C 222.974801369863 98.8525005586592  226.919404109589 98.3153877094972  226.919404109589 98.3153877094972  C 226.919404109589 98.3153877094972  229.156126712329 96.5103776536313  229.156126712329 96.5103776536313  C 229.156126712329 96.5103776536313  229.377116438356 94.2020737430168  229.377116438356 94.2020737430168  C 229.377116438356 94.2020737430168  228.552684246575 92.2258681564246  228.552684246575 92.2258681564246  C 228.552684246575 92.2258681564246  225.35919109589 89.2212290502794  225.35919109589 89.2212290502794  C 225.35919109589 89.2212290502794  227.773216438356 84.0465027932961  227.773216438356 84.0465027932961  C 227.773216438356 84.0465027932961  230.127459589041 82.8470837988827  230.127459589041 82.8470837988827  C 230.127459589041 82.8470837988827  234.483895205479 83.3495374301676  234.483895205479 83.3495374301676  C 234.483895205479 83.3495374301676  236.382363013699 82.1272223463687  236.382363013699 82.1272223463687  C 236.382363013699 82.1272223463687  240.282001369863 81.0311508379889  240.282001369863 81.0311508379889  C 240.282001369863 81.0311508379889  245.241879452055 81.0649698324023  245.241879452055 81.0649698324023  C 245.241879452055 81.0649698324023  248.317852054795 82.6294659217877  248.317852054795 82.6294659217877  C 248.317852054795 82.6294659217877  249.730397945206 84.3888938547486  249.730397945206 84.3888938547486  C 249.730397945206 84.3888938547486  250.981225342466 90.0667039106145  250.981225342466 90.0667039106145  C 250.981225342466 90.0667039106145  248.582784246575 90.8892826815642  248.582784246575 90.8892826815642  C 248.582784246575 90.8892826815642  246.066311643836 95.4819441340782  246.066311643836 95.4819441340782  C 246.066311643836 95.4819441340782  246.448764383562 99.5038837988827  246.448764383562 99.5038837988827  C 246.448764383562 99.5038837988827  249.097575342466 102.108576536313  249.097575342466 102.108576536313  C 249.097575342466 102.108576536313  252.614760958904 101.046324022346  252.614760958904 101.046324022346  C 252.614760958904 101.046324022346  252.68885 99.8689608938547  252.68885 99.8689608938547  C 252.68885 99.8689608938547  255.322843150685 100.417836871508  255.322843150685 100.417836871508  C 255.322843150685 100.417836871508  259.296826027397 100.360281564246  259.296826027397 100.360281564246  C 259.296826027397 100.360281564246  261.739209589041 100.97763575419  261.739209589041 100.97763575419  C 261.739209589041 100.97763575419  263.049052739726 97.9494703910615  263.049052739726 97.9494703910615  C 263.049052739726 97.9494703910615  258.72276369863 94.8305608938547  258.72276369863 94.8305608938547  C 258.72276369863 94.8305608938547  260.679991780822 89.2781541899441  260.679991780822 89.2781541899441  C 260.679991780822 89.2781541899441  262.519699315068 87.7363441340782  262.519699315068 87.7363441340782  C 262.519699315068 87.7363441340782  264.800619863014 87.2679195530726  264.800619863014 87.2679195530726  C 264.800619863014 87.2679195530726  270.702450684931 84.7319150837989  270.702450684931 84.7319150837989  C 270.702450684931 84.7319150837989  272.350548630137 84.3888938547486  272.350548630137 84.3888938547486  C 272.350548630137 84.3888938547486  274.940599315069 85.7145564245811  274.940599315069 85.7145564245811  C 274.940599315069 85.7145564245811  276.765489041096 89.0273474860335  276.765489041096 89.0273474860335  C 276.765489041096 89.0273474860335  278.722717123288 89.7921608938548  278.722717123288 89.7921608938548  C 278.722717123288 89.7921608938548  281.136486986301 87.7703731843575  281.136486986301 87.7703731843575  C 281.136486986301 87.7703731843575  282.813965068493 89.1985430167598  282.813965068493 89.1985430167598  C 282.813965068493 89.1985430167598  283.800115753425 91.711651396648  283.800115753425 91.711651396648  C 283.800115753425 91.711651396648  282.578413013699 95.7216178770949  282.578413013699 95.7216178770949  C 282.578413013699 95.7216178770949  282.813965068493 99.137966480447  282.813965068493 99.137966480447  C 282.813965068493 99.137966480447  284.315417808219 100.851602234637  284.315417808219 100.851602234637  C 284.315417808219 100.851602234637  289.230331506849 104.268581005587  289.230331506849 104.268581005587  C 289.230331506849 104.268581005587  291.305846575342 105.136741899441  291.305846575342 105.136741899441  C 291.305846575342 105.136741899441  295.912396575342 105.936424581006  295.912396575342 105.936424581006  C 295.912396575342 105.936424581006  298.576025342466 108.484402234637  298.576025342466 108.484402234637  C 298.576025342466 108.484402234637  299.79747260274 112.015861452514  299.79747260274 112.015861452514  C 299.79747260274 112.015861452514  301.298925342466 113.660808938548  301.298925342466 113.660808938548  C 301.298925342466 113.660808938548  303.064543835617 112.826467039106  303.064543835617 112.826467039106  C 303.064543835617 112.826467039106  305.699303424658 115.283700558659  305.699303424658 115.283700558659  C 305.699303424658 115.283700558659  307.376781506849 118.871874860335  307.376781506849 118.871874860335  C 307.376781506849 118.871874860335  309.083639726027 126.061036871508  309.083639726027 126.061036871508  C 309.083639726027 126.061036871508  313.558106849315 133.466976536313  313.558106849315 133.466976536313  C 313.558106849315 133.466976536313  315.530152739726 138.622167597765  315.530152739726 138.622167597765  C 315.530152739726 138.622167597765  317.280953424658 138.896500558659  317.280953424658 138.896500558659  C 317.280953424658 138.896500558659  318.88510890411 143.011705027933  318.88510890411 143.011705027933  C 318.88510890411 143.011705027933  318.988578082192 146.166954189944  318.988578082192 146.166954189944  C 318.988578082192 146.166954189944  319.856952739726 148.019436871508  319.856952739726 148.019436871508  C 319.856952739726 148.019436871508  318.650067808219 149.962663687151  318.650067808219 149.962663687151  C 318.650067808219 149.962663687151  320.239405479452 151.586395530726  320.239405479452 151.586395530726  C 320.239405479452 151.586395530726  321.475926027397 154.627374301676  321.475926027397 154.627374301676  C 321.475926027397 154.627374301676  322.85883630137 153.678762011173  322.85883630137 153.678762011173  C 322.85883630137 153.678762011173  324.31609109589 155.507508379888  324.31609109589 155.507508379888  C 324.31609109589 155.507508379888  322.108748630137 156.364746368715  322.108748630137 156.364746368715  C 322.108748630137 156.364746368715  323.918309589041 157.954659217877  323.918309589041 157.954659217877  C 323.918309589041 157.954659217877  325.478267123288 157.565845810056  325.478267123288 157.565845810056  C 325.478267123288 157.565845810056  329.496192465753 158.148540782123  329.496192465753 158.148540782123  C 329.496192465753 158.148540782123  331.556889726027 160.641483798883  331.556889726027 160.641483798883  C 331.556889726027 160.641483798883  332.925493150685 160.41294301676  332.925493150685 160.41294301676  C 332.925493150685 160.41294301676  334.249643150685 162.345036871508  334.249643150685 162.345036871508  C 334.249643150685 162.345036871508  335.809856164384 162.345036871508  335.809856164384 162.345036871508  C 335.809856164384 162.345036871508  336.17749109589 166.587115083799  336.17749109589 166.587115083799  C 336.17749109589 166.587115083799  339.636171917808 168.416701675978  339.636171917808 168.416701675978  C 339.636171917808 168.416701675978  355.251076027397 171.972737430168  355.251076027397 171.972737430168  C 355.251076027397 171.972737430168  353.676300684932 175.049215642458  353.676300684932 175.049215642458  C 353.676300684932 175.049215642458  354.898003424657 177.050837988827  354.898003424657 177.050837988827  C 354.898003424657 177.050837988827  357.193741780822 177.908075977654  357.193741780822 177.908075977654  C 357.193741780822 177.908075977654  359.812917123288 177.805568715084  359.812917123288 177.805568715084  C 359.812917123288 177.805568715084  364.919695890411 176.181836871508  364.919695890411 176.181836871508  C 364.919695890411 176.181836871508  371.675083561644 177.508339664804  371.675083561644 177.508339664804  C 371.675083561644 177.508339664804  371.159781506849 180.287588826816  371.159781506849 180.287588826816  C 371.159781506849 180.287588826816  367.421606164384 188.998605586592  367.421606164384 188.998605586592  C 367.421606164384 188.998605586592  364.993784931507 192.075083798883  364.993784931507 192.075083798883  C 364.993784931507 192.075083798883  363.15407739726 196.261287150838  363.15407739726 196.261287150838  C 363.15407739726 196.261287150838  356.015981506849 204.051839106145  356.015981506849 204.051839106145  C 356.015981506849 204.051839106145  355.324654109589 206.236420111732  355.324654109589 206.236420111732  C 355.324654109589 206.236420111732  356.752528767123 210.61818547486  356.752528767123 210.61818547486  C 356.752528767123 210.61818547486  353.411368493151 211.648299441341  353.411368493151 211.648299441341  C 353.411368493151 211.648299441341  346.700689726027 211.77349273743  346.700689726027 211.77349273743  C 346.700689726027 211.77349273743  344.169399315069 212.998538547486  344.169399315069 212.998538547486  C 344.169399315069 212.998538547486  340.79885890411 217.563262569832  340.79885890411 217.563262569832  C 340.79885890411 217.563262569832  340.16603630137 219.759606703911  340.16603630137 219.759606703911  C 340.16603630137 219.759606703911  340.489984246575 225.916134078212  340.489984246575 225.916134078212  C 340.489984246575 225.916134078212  340.136656164384 229.497586592179  340.136656164384 229.497586592179  C 340.136656164384 229.497586592179  339.224339041096 231.511812290503  339.224339041096 231.511812290503  C 339.224339041096 231.511812290503  333.366450684932 233.502511731844  333.366450684932 233.502511731844  C 333.366450684932 233.502511731844  332.189712328767 236.237649162011  332.189712328767 236.237649162011  C 332.189712328767 236.237649162011  332.940055479452 238.114708379888  332.940055479452 238.114708379888  C 332.940055479452 238.114708379888  333.161045205479 241.994230167598  333.161045205479 241.994230167598  C 333.161045205479 241.994230167598  332.336613013699 249.182551955307  332.336613013699 249.182551955307  C 332.336613013699 249.182551955307  326.332079452055 255.683781005587  326.332079452055 255.683781005587  C 326.332079452055 255.683781005587  323.727466438356 260.102096089386  323.727466438356 260.102096089386  C 323.727466438356 260.102096089386  316.559990410959 267.646882681564  316.559990410959 267.646882681564  C 316.559990410959 267.646882681564  315.427194520548 271.573877094972  315.427194520548 271.573877094972  C 315.427194520548 271.573877094972  316.957260958904 276.668782122905  316.957260958904 276.668782122905  C 316.957260958904 276.668782122905  317.001969863014 279.301622346369  317.001969863014 279.301622346369  C 317.001969863014 279.301622346369  315.22102260274 281.557202234637  315.22102260274 281.557202234637  C 315.22102260274 281.557202234637  311.850482191781 287.569841340782  311.850482191781 287.569841340782  C 311.850482191781 287.569841340782  308.892796575343 288.553953072626  308.892796575343 288.553953072626  C 308.892796575343 288.553953072626  306.72914109589 292.929206703911  306.72914109589 292.929206703911  C 306.72914109589 292.929206703911  304.801293150685 295.413537430168  304.801293150685 295.413537430168  C 304.801293150685 295.413537430168  301.710758219178 297.533001117318  301.710758219178 297.533001117318  C 301.710758219178 297.533001117318  301.474950684932 299.685233519553  301.474950684932 299.685233519553  C 301.474950684932 299.685233519553  302.299382876712 301.781801117318  302.299382876712 301.781801117318  C 302.299382876712 301.781801117318  299.532540410959 311.356987709497  299.532540410959 311.356987709497  C 299.532540410959 311.356987709497  298.208134931507 314.140437988827  298.208134931507 314.140437988827  C 298.208134931507 314.140437988827  295.735604794521 315.801559776536  295.735604794521 315.801559776536  C 295.735604794521 315.801559776536  294.175647260274 318.172460335195  294.175647260274 318.172460335195  C 294.175647260274 318.172460335195  293.734434246575 323.224303910615  293.734434246575 323.224303910615  C 293.734434246575 323.224303910615  292.468789041096 326.684554189944  292.468789041096 326.684554189944  C 292.468789041096 326.684554189944  290.658206164384 329.307941899441  290.658206164384 329.307941899441  C 290.658206164384 329.307941899441  287.082260273973 331.622127374302  287.082260273973 331.622127374302  C 287.082260273973 331.622127374302  285.683765753425 333.810909497207  285.683765753425 333.810909497207  C 285.683765753425 333.810909497207  284.418120547945 339.311012290503  284.418120547945 339.311012290503  C 284.418120547945 339.311012290503  281.386856849315 342.347789944134  281.386856849315 342.347789944134  C 281.386856849315 342.347789944134  280.621184931507 345.934283798883  280.621184931507 345.934283798883  C 280.621184931507 345.934283798883  280.430341780822 351.435016759777  280.430341780822 351.435016759777  C 280.430341780822 351.435016759777  279.944419863014 354.105036871508  279.944419863014 354.105036871508  C 279.944419863014 354.105036871508  280.04712260274 359.033157541899  280.04712260274 359.033157541899  C 280.04712260274 359.033157541899  277.339551369863 362.678046927374  277.339551369863 362.678046927374  C 277.339551369863 362.678046927374  272.659423287671 366.677930726257  272.659423287671 366.677930726257  C 272.659423287671 366.677930726257  268.524232876712 369.142096089385  268.524232876712 369.142096089385  C 268.524232876712 369.142096089385  264.932702739726 370.03651396648  264.932702739726 370.03651396648  C 264.932702739726 370.03651396648  262.681162328767 371.76716424581  262.681162328767 371.76716424581  C 262.681162328767 371.76716424581  260.959741780822 374.174404469274  260.959741780822 374.174404469274  C 260.959741780822 374.174404469274  253.836208219178 374.667405586592  253.836208219178 374.667405586592  C 253.836208219178 374.667405586592  251.114074657534 373.200375418994  251.114074657534 373.200375418994  C 251.114074657534 373.200375418994  249.201044520548 367.537689385475  249.201044520548 367.537689385475  C 249.201044520548 367.537689385475  245.962842465753 365.463177653631  245.962842465753 365.463177653631  C 245.962842465753 365.463177653631  239.782028082192 364.270690502793  239.782028082192 364.270690502793  C 239.782028082192 364.270690502793  237.294935616438 362.678046927374  237.294935616438 362.678046927374  C 237.294935616438 362.678046927374  234.527837671233 356.374270391061  234.527837671233 356.374270391061  C 234.527837671233 356.374270391061  232.09925 355.033273743017  232.09925 355.033273743017  C 232.09925 355.033273743017  227.389741780822 356.511436871508  227.389741780822 356.511436871508  C 227.389741780822 356.511436871508  225.521420547945 355.526274860335  225.521420547945 355.526274860335  C 225.521420547945 355.526274860335  225.050060958904 354.001689385475  225.050060958904 354.001689385475  C 225.050060958904 354.001689385475  225.977451369863 351.411280446927  225.977451369863 351.411280446927  C 225.977451369863 351.411280446927  222.901478767123 349.864639106145  222.901478767123 349.864639106145  C 222.901478767123 349.864639106145  220.105000684932 351.617975418994  220.105000684932 351.617975418994  C 220.105000684932 351.617975418994  218.545043150685 351.64087150838  218.545043150685 351.64087150838  C 218.545043150685 351.64087150838  216.411534246575 350.173841340782  216.411534246575 350.173841340782  C 216.411534246575 350.173841340782  212.290906164384 341.911503910615  212.290906164384 341.911503910615  C 212.290906164384 341.911503910615  210.995114383562 341.83189273743  210.995114383562 341.83189273743  C 210.995114383562 341.83189273743  208.05199109589 344.639079329609  208.05199109589 344.639079329609  C 208.05199109589 344.639079329609  204.666888356164 344.3408  204.666888356164 344.3408  C 204.666888356164 344.3408  203.695555479452 342.67967821229  203.695555479452 342.67967821229  C 203.695555479452 342.67967821229  202.753858219178 338.623079329609  202.753858219178 338.623079329609  C 202.753858219178 338.623079329609  200.369979452055 338.084496089385  200.369979452055 338.084496089385  C 200.369979452055 338.084496089385  191.554660958904 341.969059217877  191.554660958904 341.969059217877  C 191.554660958904 341.969059217877  187.639438356164 343.115124022346  187.639438356164 343.115124022346  C 187.639438356164 343.115124022346  183.818998630137 337.82108603352  183.818998630137 337.82108603352  C 183.818998630137 337.82108603352  182.288932191781 336.698547486033  182.288932191781 336.698547486033  C 182.288932191781 336.698547486033  177.550299315068 340.055660335196  177.550299315068 340.055660335196  C 177.550299315068 340.055660335196  174.812581506849 339.093394413408  174.812581506849 339.093394413408  C 174.812581506849 339.093394413408  172.413373972603 340.124138547486  172.413373972603 340.124138547486  C 172.413373972603 340.124138547486  168.454975342466 342.897506145251  168.454975342466 342.897506145251  C 168.454975342466 342.897506145251  163.981274657534 343.813979888268  163.981274657534 343.813979888268  C 163.981274657534 343.813979888268  161.214176712329 343.470118435754  161.214176712329 343.470118435754  C 161.214176712329 343.470118435754  158.918693835616 342.358712849162  158.918693835616 342.358712849162  C 158.918693835616 342.358712849162  155.076793835617 336.629229050279  155.076793835617 336.629229050279  C 155.076793835617 336.629229050279  150.544332876712 332.859776536313  150.544332876712 332.859776536313  C 150.544332876712 332.859776536313  149.396208219178 328.964080446927  149.396208219178 328.964080446927  C 149.396208219178 328.964080446927  147.557267123288 326.833693854749  147.557267123288 326.833693854749  C 147.557267123288 326.833693854749  143.804273972603 324.118091620112  143.804273972603 324.118091620112  C 143.804273972603 324.118091620112  141.640873972603 320.795848044693  141.640873972603 320.795848044693  C 141.640873972603 320.795848044693  141.316926027397 318.940004469274  141.316926027397 318.940004469274  C 141.316926027397 318.940004469274  143.023784246575 308.974324022346  143.023784246575 308.974324022346  C 143.023784246575 308.974324022346  141.93518630137 307.221617877095  141.93518630137 307.221617877095  C 141.93518630137 307.221617877095  138.800453424658 305.309059217877  138.800453424658 305.309059217877  C 138.800453424658 305.309059217877  136.651615753425 302.94992178771  136.651615753425 302.94992178771  C 136.651615753425 302.94992178771  134.782528082192 298.7696  134.782528082192 298.7696  C 134.782528082192 298.7696  132.692450684932 296.215740782123  132.692450684932 296.215740782123  C 132.692450684932 296.215740782123  125.716584246575 293.821944134078  125.716584246575 293.821944134078  C 125.716584246575 293.821944134078  117.357807534247 285.370766480447  117.357807534247 285.370766480447  C 117.357807534247 285.370766480447  116.106724657534 281.706341899441  116.106724657534 281.706341899441  C 116.106724657534 281.706341899441  111.426596575343 273.828616759776  111.426596575343 273.828616759776  C 111.426596575343 273.828616759776  111.000201369863 272.306551955307  111.000201369863 272.306551955307  C 111.000201369863 272.306551955307  111.633023972603 269.089336312849  111.633023972603 269.089336312849  C 111.633023972603 269.089336312849  114.237636986301 267.383262569832  114.237636986301 267.383262569832  C 114.237636986301 267.383262569832  116.606697945205 264.921827932961  116.606697945205 264.921827932961  C 116.606697945205 264.921827932961  114.664287671233 263.353970949721  114.664287671233 263.353970949721  C 114.664287671233 263.353970949721  112.604356849315 263.628303910614  112.604356849315 263.628303910614  C 112.604356849315 263.628303910614  108.689134246575 262.505975418994  108.689134246575 262.505975418994  C 108.689134246575 262.505975418994  103.567793150685 261.785063687151  103.567793150685 261.785063687151  C 103.567793150685 261.785063687151  98.6227328767123 263.250623463687  98.6227328767123 263.250623463687  C 98.6227328767123 263.250623463687  100.756752739726 256.313108379888  100.756752739726 256.313108379888  C 100.756752739726 256.313108379888  104.686537671233 246.229586592179  104.686537671233 246.229586592179  C 104.686537671233 246.229586592179  105.525021232877 241.753716201117  105.525021232877 241.753716201117  C 105.525021232877 241.753716201117  107.761999315068 236.512192178771  107.761999315068 236.512192178771  C 107.761999315068 236.512192178771  110.073066438356 228.696223463687  110.073066438356 228.696223463687  C 110.073066438356 228.696223463687  109.292576712329 221.201430167598  109.292576712329 221.201430167598  C 109.292576712329 221.201430167598  110.499461643836 217.220241340782  110.499461643836 217.220241340782  C 110.499461643836 217.220241340782  109.13111369863 212.506377653631  109.13111369863 212.506377653631  C 109.13111369863 212.506377653631  108.630373972603 208.215986592179  108.630373972603 208.215986592179  C 108.630373972603 208.215986592179  106.83460890411 205.984773184358  106.83460890411 205.984773184358  C 106.83460890411 205.984773184358  104.553688356164 204.623611173184  104.553688356164 204.623611173184  C 104.553688356164 204.623611173184  102.846830136986 200.390775418994  102.846830136986 200.390775418994  C 102.846830136986 200.390775418994  102.508319863014 198.057894972067  102.508319863014 198.057894972067  C 102.508319863014 198.057894972067  101.124643150685 195.449841340782  101.124643150685 195.449841340782  C 101.124643150685 195.449841340782  93.7223815068494 185.788321787709  93.7223815068494 185.788321787709  C 93.7223815068494 185.788321787709  91.0288616438357 184.050109497207  91.0288616438357 184.050109497207  C 91.0288616438357 184.050109497207  91.7503356164384 180.641532960894  91.7503356164384 180.641532960894  C 91.7503356164384 180.641532960894  93.5895321917808 177.153345251397  93.5895321917808 177.153345251397  C 93.5895321917808 177.153345251397  96.326994520548 169.834788826816  96.326994520548 169.834788826816  C 96.326994520548 169.834788826816  95.2971568493151 166.587115083799  95.2971568493151 166.587115083799  C 95.2971568493151 166.587115083799  92.1769863013698 162.287481564246  92.1769863013698 162.287481564246  C 92.1769863013698 162.287481564246  90.8232006849315 155.313416759777  90.8232006849315 155.313416759777  C 90.8232006849315 155.313416759777  88.615602739726 151.254297206704  88.615602739726 151.254297206704  C 88.615602739726 151.254297206704  82.0076267123287 146.361675977654  82.0076267123287 146.361675977654  C 82.0076267123287 146.361675977654  78.8583315068494 145.02425027933  78.8583315068494 145.02425027933  C 78.8583315068494 145.02425027933  75.3705260273973 145.19523575419  75.3705260273973 145.19523575419  C 75.3705260273973 145.19523575419  72.735510958904 146.624245810056  72.735510958904 146.624245810056  C 72.735510958904 146.624245810056  71.0728506849314 146.418391061452  71.0728506849314 146.418391061452  C 71.0728506849314 146.418391061452  69.4541328767123 141.548665921788  69.4541328767123 141.548665921788  C 69.4541328767123 141.548665921788  67.3052952054794 138.633930726257  67.3052952054794 138.633930726257  C 67.3052952054794 138.633930726257  64.8327650684931 136.599329608938  64.8327650684931 136.599329608938  C 64.8327650684931 136.599329608938  61.6832143835616 135.044916201117  61.6832143835616 135.044916201117  C 61.6832143835616 135.044916201117  52.1469328767124 134.335977653631  52.1469328767124 134.335977653631  C 52.1469328767124 134.335977653631  44.7592335616438 136.861899441341  44.7592335616438 136.861899441341  C 44.7592335616438 136.861899441341  40.844010958904 136.736496089385  40.844010958904 136.736496089385  C 40.844010958904 136.736496089385  36.6500602739726 135.798806703911  36.6500602739726 135.798806703911  C 36.6500602739726 135.798806703911  34.0306294520547 137.525255865922  34.0306294520547 137.525255865922  C 34.0306294520547 137.525255865922  29.0855691780822 138.416312849162  29.0855691780822 138.416312849162  C 29.0855691780822 138.416312849162  26.4066116438356 131.775396648045  26.4066116438356 131.775396648045  C 26.4066116438356 131.775396648045  26.1570082191781 127.318011173184  26.1570082191781 127.318011173184  C 26.1570082191781 127.318011173184  23.5368109589041 123.30636424581  23.5368109589041 123.30636424581  C 23.5368109589041 123.30636424581  22.3600726027398 119.203132960894  22.3600726027398 119.203132960894  C 22.3600726027398 119.203132960894  18.901647260274 115.032263687151  18.901647260274 115.032263687151  C 18.901647260274 115.032263687151  17.694506849315 110.347177653631  17.694506849315 110.347177653631  C 17.694506849315 110.347177653631  18.1799178082191 104.862408938547  18.1799178082191 104.862408938547  C 18.1799178082191 104.862408938547  22.7425253424658 94.3392402234637  22.7425253424658 94.3392402234637  C 22.7425253424658 94.3392402234637  23.3899102739726 90.0328849162011  23.3899102739726 90.0328849162011  C 23.3899102739726 90.0328849162011  22.6096760273972 81.1107620111732  22.6096760273972 81.1107620111732  C 22.6096760273972 81.1107620111732  22.7864678082192 79.0429720670391  22.7864678082192 79.0429720670391  C 22.7864678082192 79.0429720670391  19.4013650684932 74.2908782122906  19.4013650684932 74.2908782122906  C 19.4013650684932 74.2908782122906  15.5750493150685 67.9184134078213  15.5750493150685 67.9184134078213  C 15.5750493150685 67.9184134078213  10.4979061643836 62.0931441340782  10.4979061643836 62.0931441340782  C 10.4979061643836 62.0931441340782  7.77500616438353 54.9905251396647  7.77500616438353 54.9905251396647  C 7.77500616438353 54.9905251396647  5.30324246575346 51.7701586592178  5.30324246575346 51.7701586592178  C 5.30324246575346 51.7701586592178  5.42050753424651 47.9219351955307  5.42050753424651 47.9219351955307  C 5.42050753424651 47.9219351955307  4.96473219178088 44.6335106145252  4.96473219178088 44.6335106145252  C 4.96473219178088 44.6335106145252  0.769759589041163 38.3881296089385  0.769759589041163 38.3881296089385  C 0.769759589041163 38.3881296089385  3.88993013698633 36.8931620111731  3.88993013698633 36.8931620111731  C 3.88993013698633 36.8931620111731  6.75973082191777 37.4292245810055  6.75973082191777 37.4292245810055  C 6.75973082191777 37.4292245810055  9.08536027397258 40.546453631285  9.08536027397258 40.546453631285  C 9.08536027397258 40.546453631285  11.2334315068493 42.1330055865922  11.2334315068493 42.1330055865922  C 11.2334315068493 42.1330055865922  17.1792047945206 43.401112849162  17.1792047945206 43.401112849162  C 17.1792047945206 43.401112849162  21.5944006849315 43.6517094972067  21.5944006849315 43.6517094972067  C 21.5944006849315 43.6517094972067  26.6863616438356 43.1952581005586  26.6863616438356 43.1952581005586  C 26.6863616438356 43.1952581005586  30.7776095890412 44.4513921787709  30.7776095890412 44.4513921787709  C 30.7776095890412 44.4513921787709  34.6340719178083 44.770677094972  34.6340719178083 44.770677094972  C 34.6340719178083 44.770677094972  38.5924705479453 41.7796916201117  38.5924705479453 41.7796916201117  C 38.5924705479453 41.7796916201117  41.7126410958904 40.991982122905  41.7126410958904 40.991982122905  C 41.7126410958904 40.991982122905  42.1684164383562 39.8730145251397  42.1684164383562 39.8730145251397  C 42.1684164383562 39.8730145251397  41.2264636986302 34.5069273743017  41.2264636986302 34.5069273743017  C 41.2264636986302 34.5069273743017  39.1665328767123 28.8789005586592  39.1665328767123 28.8789005586592  C 39.1665328767123 28.8789005586592  40.2260061643835 26.8350569832402  40.2260061643835 26.8350569832402  C 40.2260061643835 26.8350569832402  44.0229417808219 28.0682949720671  44.0229417808219 28.0682949720671  C 44.0229417808219 28.0682949720671  48.6001116438356 32.4181318435755  48.6001116438356 32.4181318435755  C 48.6001116438356 32.4181318435755  51.087459589041 31.3447463687151  51.087459589041 31.3447463687151  C 51.087459589041 31.3447463687151  50.3805479452055 20.4768759776536  50.3805479452055 20.4768759776536  C 50.3805479452055 20.4768759776536  53.4565205479452 17.384433519553  53.4565205479452 17.384433519553  C 53.4565205479452 17.384433519553  58.1072684931506 14.5077184357542  58.1072684931506 14.5077184357542  C 58.1072684931506 14.5077184357542  60.8889287671232 10.0793206703911  60.8889287671232 10.0793206703911  C 60.8889287671232 10.0793206703911  62.934297260274 5.03503910614523  62.934297260274 5.03503910614523  C 62.934297260274 5.03503910614523  63.3468965753425 2.88931843575417  63.3468965753425 2.88931843575417  C 63.3468965753425 2.88931843575417  64.4648746575342 2.93511061452508  64.4648746575342 2.93511061452508  C 64.4648746575342 2.93511061452508  67.261097260274 6.1649296089386  67.261097260274 6.1649296089386  C 67.261097260274 6.1649296089386  67.2465349315069 8.44697653631284  67.2465349315069 8.44697653631284  C 67.2465349315069 8.44697653631284  65.3626294520548 14.5644335195531  65.3626294520548 14.5644335195531  C 65.3626294520548 14.5644335195531  66.9080246575343 16.2992849162011  66.9080246575343 16.2992849162011  C 66.9080246575343 16.2992849162011  67.4820869863014 15.0439910614525  67.4820869863014 15.0439910614525  C 67.4820869863014 15.0439910614525  69.4980753424657 14.3594189944134  69.4980753424657 14.3594189944134  C 69.4980753424657 14.3594189944134  73.4426780821918 16.3677631284916  73.4426780821918 16.3677631284916  C 73.4426780821918 16.3677631284916  75.9445883561643 16.5507217877095  75.9445883561643 16.5507217877095  C 75.9445883561643 16.5507217877095  77.2541760273973 14.3934480446927  77.2541760273973 14.3934480446927  C 77.2541760273973 14.3934480446927  75.2374212328767 12.4416089385475  75.2374212328767 12.4416089385475  C 75.2374212328767 12.4416089385475  76.2828431506849 10.8550569832403  76.2828431506849 10.8550569832403  C 76.2828431506849 10.8550569832403  78.8141335616438 10.1360357541899  78.8141335616438 10.1360357541899  C 78.8141335616438 10.1360357541899  79.3289246575342 8.23019888268152  79.3289246575342 8.23019888268152  C 79.3289246575342 8.23019888268152  78.6812842465754 4.37252290502789  78.6812842465754 4.37252290502789  C 78.6812842465754 4.37252290502789  79.3434869863013 2.72925586592182  79.3434869863013 2.72925586592182  C 79.3434869863013 2.72925586592182  82.1984698630137 1.49685810055868  82.1984698630137 1.49685810055868  C 82.1984698630137 1.49685810055868  86.7465150684932 2.14740111731838  86.7465150684932 2.14740111731838  C 86.7465150684932 2.14740111731838  91.3083561643836 1.88483128491614  91.3083561643836 1.88483128491614  C 91.3083561643836 1.88483128491614  95.4438020547945 2.52424134078216  95.4438020547945 2.52424134078216  C 95.4438020547945 2.52424134078216  97.6659623287671 0.322015642458104  97.6659623287671 0.322015642458104  C 97.6659623287671 0.322015642458104  99.7854198630138 1.72539888268153  99.7854198630138 1.72539888268153  C 99.7854198630138 1.72539888268153  101.890315068493 0.835182122905052  101.890315068493 0.835182122905052  C 101.890315068493 0.835182122905052  104.450985616438 1.33763575418993  104.450985616438 1.33763575418993  C 104.450985616438 1.33763575418993  106.40821369863 3.53986145251399  106.40821369863 3.53986145251399  C 106.40821369863 3.53986145251399  105.937620547945 6.67830614525142  105.937620547945 6.67830614525142  C 105.937620547945 6.67830614525142  109.321956849315 6.89508379888274  109.321956849315 6.89508379888274  C 109.321956849315 6.89508379888274  111.058961643836 5.47972737430167  111.058961643836 5.47972737430167  C 111.058961643836 5.47972737430167  116.386474657534 5.52551955307259  116.386474657534 5.52551955307259  C 116.386474657534 5.52551955307259  117.122 7.67103016759779  117.122 7.67103016759779  C 117.122 7.67103016759779  119.521207534247 7.29418994413413  119.521207534247 7.29418994413413  C 119.521207534247 7.29418994413413  119.770810958904 5.94815195530729  119.770810958904 5.94815195530729  C 119.770810958904 5.94815195530729  121.419675342466 5.69650502793299  121.419675342466 5.69650502793299  Z M 125.87881369863 299.63545027933  C 125.87881369863 299.63545027933  132.686574657534 301.066981005587  132.686574657534 301.066981005587  C 132.686574657534 301.066981005587  132.745334931507 302.32668603352  132.745334931507 302.32668603352  C 132.745334931507 302.32668603352  134.717891780822 305.985018994413  134.717891780822 305.985018994413  C 134.717891780822 305.985018994413  129.802211643836 307.634167597765  129.802211643836 307.634167597765  C 129.802211643836 307.634167597765  123.332960958904 309.68494301676  123.332960958904 309.68494301676  C 123.332960958904 309.68494301676  121.169305479452 303.013568715084  121.169305479452 303.013568715084  C 121.169305479452 303.013568715084  123.832934246575 300.32254301676  123.832934246575 300.32254301676  C 123.832934246575 300.32254301676  125.87881369863 299.63545027933  125.87881369863 299.63545027933  Z " fill-rule="nonzero" fill="#169bd5" stroke="none" transform="matrix(1 0 0 1 214 621 )" />
  </g>
</svg>