<?xml version="1.0" encoding="utf-8"?>
<svg version="1.1" xmlns:xlink="http://www.w3.org/1999/xlink" width="261px" height="209px" xmlns="http://www.w3.org/2000/svg">
  <g transform="matrix(1 0 0 1 -169 -287 )">
    <path d="M 192.957555882353 159.882255555556  C 192.957555882353 159.882255555556  221.037573529412 178.981688888889  221.037573529412 178.981688888889  C 221.037573529412 178.981688888889  220.241267647059 182.098322222222  220.241267647059 182.098322222222  C 220.241267647059 182.098322222222  220.565470588235 187.735833333333  220.565470588235 187.735833333333  C 220.565470588235 187.735833333333  223.970752941176 191.564122222222  223.970752941176 191.564122222222  C 223.970752941176 191.564122222222  223.882473529412 193.374822222222  223.882473529412 193.374822222222  C 223.882473529412 193.374822222222  222.113302941177 195.013677777778  222.113302941177 195.013677777778  C 222.113302941177 195.013677777778  222.821329411765 195.861711111111  222.821329411765 195.861711111111  C 222.821329411765 195.861711111111  218.575729411765 201.683733333333  218.575729411765 201.683733333333  C 218.575729411765 201.683733333333  219.740505882353 202.818666666667  219.740505882353 202.818666666667  C 219.740505882353 202.818666666667  219.033247058824 204.205455555556  219.033247058824 204.205455555556  C 219.033247058824 204.205455555556  216.9693 203.128577777778  216.9693 203.128577777778  C 216.9693 203.128577777778  214.891279411765 203.185577777778  214.891279411765 203.185577777778  C 214.891279411765 203.185577777778  211.191220588235 199.1162  211.191220588235 199.1162  C 211.191220588235 199.1162  209.628802941176 198.165355555556  209.628802941176 198.165355555556  C 209.628802941176 198.165355555556  207.786194117647 199.816033333333  207.786194117647 199.816033333333  C 207.786194117647 199.816033333333  205.014732352941 199.643977777778  205.014732352941 199.643977777778  C 205.014732352941 199.643977777778  204.867855882353 201.087766666667  204.867855882353 201.087766666667  C 204.867855882353 201.087766666667  202.288305882353 201.993644444444  202.288305882353 201.993644444444  C 202.288305882353 201.993644444444  207.550014705882 207.644666666667  207.550014705882 207.644666666667  C 207.550014705882 207.644666666667  202.936967647059 208.905633333333  202.936967647059 208.905633333333  C 202.936967647059 208.905633333333  200.577988235294 208.710566666667  200.577988235294 208.710566666667  C 200.577988235294 208.710566666667  196.716211764706 205.902155555556  196.716211764706 205.902155555556  C 196.716211764706 205.902155555556  196.5243 204.240288888889  196.5243 204.240288888889  C 196.5243 204.240288888889  194.417108823529 202.8535  194.417108823529 202.8535  C 194.417108823529 202.8535  192.869276470588 204.778411111111  192.869276470588 204.778411111111  C 192.869276470588 204.778411111111  192.825264705882 206.589955555556  192.825264705882 206.589955555556  C 192.825264705882 206.589955555556  190.731891176471 206.349077777778  190.731891176471 206.349077777778  C 190.731891176471 206.349077777778  187.901576470588 207.460788888889  187.901576470588 207.460788888889  C 187.901576470588 207.460788888889  186.531070588235 206.726966666667  186.531070588235 206.726966666667  C 186.531070588235 206.726966666667  181.961267647059 207.735866666667  181.961267647059 207.735866666667  C 181.961267647059 207.735866666667  179.632482352941 204.962288888889  179.632482352941 204.962288888889  C 179.632482352941 204.962288888889  180.737638235294 203.265588888889  180.737638235294 203.265588888889  C 180.737638235294 203.265588888889  179.396558823529 203.300422222222  179.396558823529 203.300422222222  C 179.396558823529 203.300422222222  179.603055882353 201.2138  179.603055882353 201.2138  C 179.603055882353 201.2138  175.6965 200.319955555556  175.6965 200.319955555556  C 175.6965 200.319955555556  175.357455882353 198.131155555556  175.357455882353 198.131155555556  C 175.357455882353 198.131155555556  171.717017647059 198.601088888889  171.717017647059 198.601088888889  C 171.717017647059 198.601088888889  169.859823529412 197.741233333333  169.859823529412 197.741233333333  C 169.859823529412 197.741233333333  168.253138235294 194.7158  168.253138235294 194.7158  C 168.253138235294 194.7158  165.320214705882 192.870055555556  165.320214705882 192.870055555556  C 165.320214705882 192.870055555556  160.794423529412 188.801522222222  160.794423529412 188.801522222222  C 160.794423529412 188.801522222222  157.728952941177 187.506777777778  157.728952941177 187.506777777778  C 157.728952941177 187.506777777778  155.296535294118 188.3318  155.296535294118 188.3318  C 155.296535294118 188.3318  156.401691176471 190.555433333333  156.401691176471 190.555433333333  C 156.401691176471 190.555433333333  155.179085294118 191.942222222222  155.179085294118 191.942222222222  C 155.179085294118 191.942222222222  152.451635294118 191.885011111111  152.451635294118 191.885011111111  C 152.451635294118 191.885011111111  148.884891176471 190.624255555556  148.884891176471 190.624255555556  C 148.884891176471 190.624255555556  143.018020588235 186.119988888889  143.018020588235 186.119988888889  C 143.018020588235 186.119988888889  139.303120588235 182.476422222222  139.303120588235 182.476422222222  C 139.303120588235 182.476422222222  128.632058823529 177.800944444444  128.632058823529 177.800944444444  C 128.632058823529 177.800944444444  126.494417647059 178.694788888889  126.494417647059 178.694788888889  C 126.494417647059 178.694788888889  130.827529411765 183.668144444444  130.827529411765 183.668144444444  C 130.827529411765 183.668144444444  130.592373529412 185.833933333333  130.592373529412 185.833933333333  C 130.592373529412 185.833933333333  126.287920588235 186.086  126.287920588235 186.086  C 126.287920588235 186.086  120.907738235294 184.344122222222  120.907738235294 184.344122222222  C 120.907738235294 184.344122222222  113.788579411765 183.611144444444  113.788579411765 183.611144444444  C 113.788579411765 183.611144444444  109.312941176471 182.969155555556  109.312941176471 182.969155555556  C 109.312941176471 182.969155555556  106.394602941176 179.920711111111  106.394602941176 179.920711111111  C 106.394602941176 179.920711111111  96.9607323529412 173.8481  96.9607323529412 173.8481  C 96.9607323529412 173.8481  92.7747529411765 173.114277777778  92.7747529411765 173.114277777778  C 92.7747529411765 173.114277777778  89.1048882352942 169.597588888889  89.1048882352942 169.597588888889  C 89.1048882352942 169.597588888889  85.9797970588235 167.213933333333  85.9797970588235 167.213933333333  C 85.9797970588235 167.213933333333  82.8989735294117 164.109122222222  82.8989735294117 164.109122222222  C 82.8989735294117 164.109122222222  81.3805676470588 161.119155555556  81.3805676470588 161.119155555556  C 81.3805676470588 161.119155555556  79.8181500000001 159.584377777778  79.8181500000001 159.584377777778  C 79.8181500000001 159.584377777778  67.6724382352942 155.528722222222  67.6724382352942 155.528722222222  C 67.6724382352942 155.528722222222  64.7093205882353 156.353533333333  64.7093205882353 156.353533333333  C 64.7093205882353 156.353533333333  62.8969058823529 155.780577777778  62.8969058823529 155.780577777778  C 62.8969058823529 155.780577777778  62.5872882352942 154.497655555556  62.5872882352942 154.497655555556  C 62.5872882352942 154.497655555556  64.0460735294117 152.447766666667  64.0460735294117 152.447766666667  C 64.0460735294117 152.447766666667  63.8549294117647 151.244855555556  63.8549294117647 151.244855555556  C 63.8549294117647 151.244855555556  61.112894117647 146.868944444444  61.112894117647 146.868944444444  C 61.112894117647 146.868944444444  59.2702852941176 145.495033333333  59.2702852941176 145.495033333333  C 59.2702852941176 145.495033333333  59.1234088235294 142.803155555556  59.1234088235294 142.803155555556  C 59.1234088235294 142.803155555556  56.749844117647 140.638211111111  56.749844117647 140.638211111111  C 56.749844117647 140.638211111111  56.1894617647058 134.625344444444  56.1894617647058 134.625344444444  C 56.1894617647058 134.625344444444  52.7255823529411 131.110344444444  52.7255823529411 131.110344444444  C 52.7255823529411 131.110344444444  49.4682 132.3122  49.4682 132.3122  C 49.4682 132.3122  46.0923441176471 132.106366666667  46.0923441176471 132.106366666667  C 46.0923441176471 132.106366666667  41.8917794117648 133.5263  41.8917794117648 133.5263  C 41.8917794117648 133.5263  40.6092970588235 132.850322222222  40.6092970588235 132.850322222222  C 40.6092970588235 132.850322222222  39.5189823529412 130.1253  39.5189823529412 130.1253  C 39.5189823529412 130.1253  36.2756735294117 128.281244444444  36.2756735294117 128.281244444444  C 36.2756735294117 128.281244444444  34.5807088235294 124.376322222222  34.5807088235294 124.376322222222  C 34.5807088235294 124.376322222222  35.1410911764705 122.739155555555  35.1410911764705 122.739155555555  C 35.1410911764705 122.739155555555  34.5366970588235 120.197166666667  34.5366970588235 120.197166666667  C 34.5366970588235 120.197166666667  31.7212235294117 116.395266666667  31.7212235294117 116.395266666667  C 31.7212235294117 116.395266666667  25.8395117647059 113.326977777778  25.8395117647059 113.326977777778  C 25.8395117647059 113.326977777778  23.4521294117648 113.223955555556  23.4521294117648 113.223955555556  C 23.4521294117648 113.223955555556  18.4844294117647 110.578944444444  18.4844294117647 110.578944444444  C 18.4844294117647 110.578944444444  16.7301 108.941777777778  16.7301 108.941777777778  C 16.7301 108.941777777778  12.6027176470589 109.033822222222  12.6027176470589 109.033822222222  C 12.6027176470589 109.033822222222  10.3624676470588 103.430511111111  10.3624676470588 103.430511111111  C 10.3624676470588 103.430511111111  8.40215294117642 102.652566666667  8.40215294117642 102.652566666667  C 8.40215294117642 102.652566666667  6.32413235294116 99.7785  6.32413235294116 99.7785  C 6.32413235294116 99.7785  5.42496176470583 96.2071333333333  5.42496176470583 96.2071333333333  C 5.42496176470583 96.2071333333333  5.55725294117652 93.5169444444445  5.55725294117652 93.5169444444445  C 5.55725294117652 93.5169444444445  2.72719411764712 89.9567666666667  2.72719411764712 89.9567666666667  C 2.72719411764712 89.9567666666667  0.368982352941207 85.8593111111112  0.368982352941207 85.8593111111112  C 0.368982352941207 85.8593111111112  8.35788529411765 84.1423444444444  8.35788529411765 84.1423444444444  C 8.35788529411765 84.1423444444444  11.7925941176471 81.2809444444445  11.7925941176471 81.2809444444445  C 11.7925941176471 81.2809444444445  15.4624588235294 73.8880444444444  15.4624588235294 73.8880444444444  C 15.4624588235294 73.8880444444444  15.624944117647 71.5877777777778  15.624944117647 71.5877777777778  C 15.624944117647 71.5877777777778  22.5969705882353 69.9056444444445  22.5969705882353 69.9056444444445  C 22.5969705882353 69.9056444444445  25.8983647058823 70.5917555555556  25.8983647058823 70.5917555555556  C 25.8983647058823 70.5917555555556  28.3159411764705 70.3177333333333  28.3159411764705 70.3177333333333  C 28.3159411764705 70.3177333333333  30.424155882353 68.2805111111111  30.424155882353 68.2805111111111  C 30.424155882353 68.2805111111111  34.3153588235294 67.6513999999999  34.3153588235294 67.6513999999999  C 34.3153588235294 67.6513999999999  34.3005176470589 65.7290222222222  34.3005176470589 65.7290222222222  C 34.3005176470589 65.7290222222222  31.8829411764705 59.9963  31.8829411764705 59.9963  C 31.8829411764705 59.9963  28.1542235294117 58.0281111111112  28.1542235294117 58.0281111111112  C 28.1542235294117 58.0281111111112  25.2798970588235 54.3435888888889  25.2798970588235 54.3435888888889  C 25.2798970588235 54.3435888888889  26.2527617647059 52.0441666666666  26.2527617647059 52.0441666666666  C 26.2527617647059 52.0441666666666  30.2174029411765 53.4284222222222  30.2174029411765 53.4284222222222  C 30.2174029411765 53.4284222222222  34.6835735294118 47.3762888888889  34.6835735294118 47.3762888888889  C 34.6835735294118 47.3762888888889  36.0100676470588 40.0549555555556  36.0100676470588 40.0549555555556  C 36.0100676470588 40.0549555555556  38.2953529411765 37.9837444444444  38.2953529411765 37.9837444444444  C 38.2953529411765 37.9837444444444  40.1673882352942 33.2367  40.1673882352942 33.2367  C 40.1673882352942 33.2367  39.8431852941176 22.1423888888889  39.8431852941176 22.1423888888889  C 39.8431852941176 22.1423888888889  40.7415882352942 16.7670777777778  40.7415882352942 16.7670777777778  C 40.7415882352942 16.7670777777778  39.5335676470589 10.7407  39.5335676470589 10.7407  C 39.5335676470589 10.7407  40.0049029411764 6.96666666666669  40.0049029411764 6.96666666666669  C 40.0049029411764 6.96666666666669  44.3682088235294 1.86727777777778  44.3682088235294 1.86727777777778  C 44.3682088235294 1.86727777777778  47.876355882353 2.29034444444445  47.876355882353 2.29034444444445  C 47.876355882353 2.29034444444445  49.3064823529412 3.61675555555556  49.3064823529412 3.61675555555556  C 49.3064823529412 3.61675555555556  50.6475617647059 4.79412222222225  50.6475617647059 4.79412222222225  C 50.6475617647059 4.79412222222225  53.948955882353 5.6753  53.948955882353 5.6753  C 53.948955882353 5.6753  57.3688235294118 10.0434  57.3688235294118 10.0434  C 57.3688235294118 10.0434  61.1277352941177 11.9189111111111  61.1277352941177 11.9189111111111  C 61.1277352941177 11.9189111111111  62.1151852941177 14.1594333333333  62.1151852941177 14.1594333333333  C 62.1151852941177 14.1594333333333  65.0040970588236 16.1149555555555  65.0040970588236 16.1149555555555  C 65.0040970588236 16.1149555555555  66.6402088235294 16.2409888888889  66.6402088235294 16.2409888888889  C 66.6402088235294 16.2409888888889  68.3505264705883 14.9375888888889  68.3505264705883 14.9375888888889  C 68.3505264705883 14.9375888888889  75.1012147058823 14.6055111111111  75.1012147058823 14.6055111111111  C 75.1012147058823 14.6055111111111  77.4305117647059 15.3488333333333  77.4305117647059 15.3488333333333  C 77.4305117647059 15.3488333333333  79.6415911764706 17.3043555555555  79.6415911764706 17.3043555555555  C 79.6415911764706 17.3043555555555  82.2651529411765 18.2765222222222  82.2651529411765 18.2765222222222  C 82.2651529411765 18.2765222222222  84.7710088235294 20.2778555555556  84.7710088235294 20.2778555555556  C 84.7710088235294 20.2778555555556  85.8615794117647 23.4346  85.8615794117647 23.4346  C 85.8615794117647 23.4346  87.0703676470588 24.6818444444444  87.0703676470588 24.6818444444444  C 87.0703676470588 24.6818444444444  87.7336147058823 27.8495666666667  87.7336147058823 27.8495666666667  C 87.7336147058823 27.8495666666667  91.7578764705882 29.1989888888889  91.7578764705882 29.1989888888889  C 91.7578764705882 29.1989888888889  94.9564058823529 28.9937888888889  94.9564058823529 28.9937888888889  C 94.9564058823529 28.9937888888889  96.5922617647058 29.6568888888889  96.5922617647058 29.6568888888889  C 96.5922617647058 29.6568888888889  98.7444882352942 28.0326  98.7444882352942 28.0326  C 98.7444882352942 28.0326  100.070982352941 22.4742555555556  100.070982352941 22.4742555555556  C 100.070982352941 22.4742555555556  104.611358823529 21.4560666666667  104.611358823529 21.4560666666667  C 104.611358823529 21.4560666666667  107.58855 22.5194333333333  107.58855 22.5194333333333  C 107.58855 22.5194333333333  115.321058823529 20.5759444444444  115.321058823529 20.5759444444444  C 115.321058823529 20.5759444444444  118.165702941177 21.4450888888889  118.165702941177 21.4450888888889  C 118.165702941177 21.4450888888889  122.897479411765 25.7910222222222  122.897479411765 25.7910222222222  C 122.897479411765 25.7910222222222  125.432761764706 26.6483444444444  125.432761764706 26.6483444444444  C 125.432761764706 26.6483444444444  129.471608823529 26.3853  129.471608823529 26.3853  C 129.471608823529 26.3853  135.589244117647 27.8725777777778  135.589244117647 27.8725777777778  C 135.589244117647 27.8725777777778  137.284208823529 29.8169111111111  137.284208823529 29.8169111111111  C 137.284208823529 29.8169111111111  139.480447058823 30.6632555555555  139.480447058823 30.6632555555555  C 139.480447058823 30.6632555555555  147.867247058823 29.8859444444444  147.867247058823 29.8859444444444  C 147.867247058823 29.8859444444444  148.014891176471 30.9602888888889  148.014891176471 30.9602888888889  C 148.014891176471 30.9602888888889  151.684755882353 35.5931222222222  151.684755882353 35.5931222222222  C 151.684755882353 35.5931222222222  153.675264705882 37.0234  153.675264705882 37.0234  C 153.675264705882 37.0234  159.099458823529 38.9219222222222  159.099458823529 38.9219222222222  C 159.099458823529 38.9219222222222  163.772382352941 41.7704444444445  163.772382352941 41.7704444444445  C 163.772382352941 41.7704444444445  169.181735294118 44.1268666666667  169.181735294118 44.1268666666667  C 169.181735294118 44.1268666666667  172.675297058824 46.4841333333333  172.675297058824 46.4841333333333  C 172.675297058824 46.4841333333333  176.846435294118 47.8683888888889  176.846435294118 47.8683888888889  C 176.846435294118 47.8683888888889  172.867208823529 50.9229555555555  172.867208823529 50.9229555555555  C 172.867208823529 50.9229555555555  172.645870588235 55.2245555555555  172.645870588235 55.2245555555555  C 172.645870588235 55.2245555555555  173.795038235294 56.9299111111111  173.795038235294 56.9299111111111  C 173.795038235294 56.9299111111111  180.958976470588 61.6436  180.958976470588 61.6436  C 180.958976470588 61.6436  182.167764705882 63.9668777777778  182.167764705882 63.9668777777778  C 182.167764705882 63.9668777777778  178.364841176471 68.0404777777777  178.364841176471 68.0404777777777  C 178.364841176471 68.0404777777777  178.335414705882 69.6075555555555  178.335414705882 69.6075555555555  C 178.335414705882 69.6075555555555  181.209741176471 71.4959444444444  181.209741176471 71.4959444444444  C 181.209741176471 71.4959444444444  181.224582352941 72.9950444444444  181.224582352941 72.9950444444444  C 181.224582352941 72.9950444444444  173.957523529412 80.1367222222222  173.957523529412 80.1367222222222  C 173.957523529412 80.1367222222222  174.517905882353 82.8381  174.517905882353 82.8381  C 174.517905882353 82.8381  178.070064705882 88.2056  178.070064705882 88.2056  C 178.070064705882 88.2056  179.515032352941 89.2706555555555  179.515032352941 89.2706555555555  C 179.515032352941 89.2706555555555  179.927514705882 93.9060222222223  179.927514705882 93.9060222222223  C 179.927514705882 93.9060222222223  183.671585294118 97.7982777777777  183.671585294118 97.7982777777777  C 183.671585294118 97.7982777777777  189.567114705882 99.1143444444444  189.567114705882 99.1143444444444  C 189.567114705882 99.1143444444444  194.593411764706 98.8282888888889  194.593411764706 98.8282888888889  C 194.593411764706 98.8282888888889  196.200097058824 100.019377777778  196.200097058824 100.019377777778  C 196.200097058824 100.019377777778  197.747929411765 103.877433333333  197.747929411765 103.877433333333  C 197.747929411765 103.877433333333  196.509714705882 109.308688888889  196.509714705882 109.308688888889  C 196.509714705882 109.308688888889  199.708244117647 111.345911111111  199.708244117647 111.345911111111  C 199.708244117647 111.345911111111  203.320023529412 111.368922222222  203.320023529412 111.368922222222  C 203.320023529412 111.368922222222  204.985305882353 112.376977777778  204.985305882353 112.376977777778  C 204.985305882353 112.376977777778  207.948679411765 116.0862  207.948679411765 116.0862  C 207.948679411765 116.0862  209.495744117647 116.945211111111  209.495744117647 116.945211111111  C 209.495744117647 116.945211111111  191.792779411765 154.028566666667  191.792779411765 154.028566666667  C 191.792779411765 154.028566666667  188.314058823529 152.733822222222  188.314058823529 152.733822222222  C 188.314058823529 152.733822222222  182.978911764706 157.224577777778  182.978911764706 157.224577777778  C 182.978911764706 157.224577777778  185.970688235294 159.664388888889  185.970688235294 159.664388888889  C 185.970688235294 159.664388888889  183.420820588235 159.893444444444  183.420820588235 159.893444444444  C 183.420820588235 159.893444444444  181.711270588235 158.679344444444  181.711270588235 158.679344444444  C 181.711270588235 158.679344444444  180.192864705882 160.959133333333  180.192864705882 160.959133333333  C 180.192864705882 160.959133333333  183.155214705882 162.952233333333  183.155214705882 162.952233333333  C 183.155214705882 162.952233333333  183.184641176471 166.297922222222  183.184641176471 166.297922222222  C 183.184641176471 166.297922222222  185.911835294118 166.583977777778  185.911835294118 166.583977777778  C 185.911835294118 166.583977777778  186.309732352941 163.857055555555  186.309732352941 163.857055555555  C 186.309732352941 163.857055555555  189.980364705882 163.364955555556  189.980364705882 163.364955555556  C 189.980364705882 163.364955555556  191.8524 159.733211111111  191.8524 159.733211111111  C 191.8524 159.733211111111  192.957555882353 159.882255555556  192.957555882353 159.882255555556  Z M 192.241341176471 153.085533333333  C 192.241341176471 153.085533333333  189.233955882353 151.917455555556  189.233955882353 151.917455555556  C 189.233955882353 151.917455555556  206.936920588235 114.8341  206.936920588235 114.8341  C 206.936920588235 114.8341  210.725002941177 113.929066666667  210.725002941177 113.929066666667  C 210.725002941177 113.929066666667  211.757488235294 114.456  211.757488235294 114.456  C 211.757488235294 114.456  212.995702941177 118.040033333333  212.995702941177 118.040033333333  C 212.995702941177 118.040033333333  215.412511764706 117.422111111111  215.412511764706 117.422111111111  C 215.412511764706 117.422111111111  219.039132352941 119.528155555556  219.039132352941 119.528155555556  C 219.039132352941 119.528155555556  226.358902941177 118.051222222222  226.358902941177 118.051222222222  C 226.358902941177 118.051222222222  229.070744117647 119.861077777778  229.070744117647 119.861077777778  C 229.070744117647 119.861077777778  233.286917647059 121.6931  233.286917647059 121.6931  C 233.286917647059 121.6931  235.954491176471 123.399088888889  235.954491176471 123.399088888889  C 235.954491176471 123.399088888889  238.357482352941 126.033122222222  238.357482352941 126.033122222222  C 238.357482352941 126.033122222222  237.428629411765 130.018055555555  237.428629411765 130.018055555555  C 237.428629411765 130.018055555555  237.841111764706 131.724255555555  237.841111764706 131.724255555555  C 237.841111764706 131.724255555555  241.732314705882 133.534111111111  241.732314705882 133.534111111111  C 241.732314705882 133.534111111111  243.869955882353 136.0191  243.869955882353 136.0191  C 243.869955882353 136.0191  244.7397 138.4701  244.7397 138.4701  C 244.7397 138.4701  246.744026470588 139.123066666667  246.744026470588 139.123066666667  C 246.744026470588 139.123066666667  249.883958823529 142.398877777778  249.883958823529 142.398877777778  C 249.883958823529 142.398877777778  249.088164705882 144.585988888889  249.088164705882 144.585988888889  C 249.088164705882 144.585988888889  246.833073529412 146.464877777778  246.833073529412 146.464877777778  C 246.833073529412 146.464877777778  247.805938235294 149.122555555556  247.805938235294 149.122555555556  C 247.805938235294 149.122555555556  249.338929411765 150.038566666667  249.338929411765 150.038566666667  C 249.338929411765 150.038566666667  252.611152941177 149.958555555556  252.611152941177 149.958555555556  C 252.611152941177 149.958555555556  255.838852941176 148.675633333333  255.838852941176 148.675633333333  C 255.838852941176 148.675633333333  257.2242 150.084588888889  257.2242 150.084588888889  C 257.2242 150.084588888889  258.536876470588 154.448466666667  258.536876470588 154.448466666667  C 258.536876470588 154.448466666667  256.826558823529 159.618366666667  256.826558823529 159.618366666667  C 256.826558823529 159.618366666667  254.188155882353 159.939255555556  254.188155882353 159.939255555556  C 254.188155882353 159.939255555556  249.825105882353 155.628366666667  249.825105882353 155.628366666667  C 249.825105882353 155.628366666667  245.948488235294 155.388333333333  245.948488235294 155.388333333333  C 245.948488235294 155.388333333333  245.476385294118 160.455211111111  245.476385294118 160.455211111111  C 245.476385294118 160.455211111111  247.643452941176 164.7281  247.643452941176 164.7281  C 247.643452941176 164.7281  248.233005882353 168.096588888889  248.233005882353 168.096588888889  C 248.233005882353 168.096588888889  248.086129411765 172.553355555556  248.086129411765 172.553355555556  C 248.086129411765 172.553355555556  255.691976470588 177.697922222222  255.691976470588 177.697922222222  C 255.691976470588 177.697922222222  260.187573529412 178.751788888889  260.187573529412 178.751788888889  C 260.187573529412 178.751788888889  260.438338235294 180.539477777778  260.438338235294 180.539477777778  C 260.438338235294 180.539477777778  255.941973529412 182.258344444444  255.941973529412 182.258344444444  C 255.941973529412 182.258344444444  251.284658823529 186.143  251.284658823529 186.143  C 251.284658823529 186.143  247.172117647059 186.876822222222  247.172117647059 186.876822222222  C 247.172117647059 186.876822222222  248.247847058823 189.672566666667  248.247847058823 189.672566666667  C 248.247847058823 189.672566666667  250.871408823529 192.125255555556  250.871408823529 192.125255555556  C 250.871408823529 192.125255555556  253.244973529412 195.666644444444  253.244973529412 195.666644444444  C 253.244973529412 195.666644444444  251.667714705882 199.919055555556  251.667714705882 199.919055555556  C 251.667714705882 199.919055555556  245.019891176471 196.6405  245.019891176471 196.6405  C 245.019891176471 196.6405  242.587473529412 192.939088888889  242.587473529412 192.939088888889  C 242.587473529412 192.939088888889  244.415497058824 192.400122222222  244.415497058824 192.400122222222  C 244.415497058824 192.400122222222  242.440597058823 189.913444444444  242.440597058823 189.913444444444  C 242.440597058823 189.913444444444  240.302955882353 190.635444444444  240.302955882353 190.635444444444  C 240.302955882353 190.635444444444  238.917608823529 189.993455555555  238.917608823529 189.993455555555  C 238.917608823529 189.993455555555  239.359517647059 184.6762  239.359517647059 184.6762  C 239.359517647059 184.6762  238.165570588235 183.760188888889  238.165570588235 183.760188888889  C 238.165570588235 183.760188888889  235.718311764706 185.340988888889  235.718311764706 185.340988888889  C 235.718311764706 185.340988888889  232.770547058824 184.023233333333  232.770547058824 184.023233333333  C 232.770547058824 184.023233333333  232.947873529412 182.522233333333  232.947873529412 182.522233333333  C 232.947873529412 182.522233333333  234.672008823529 181.892277777778  234.672008823529 181.892277777778  C 234.672008823529 181.892277777778  235.910479411765 179.428611111111  235.910479411765 179.428611111111  C 235.910479411765 179.428611111111  231.900802941176 175.452122222222  231.900802941176 175.452122222222  C 231.900802941176 175.452122222222  229.528005882353 175.074022222222  229.528005882353 175.074022222222  C 229.528005882353 175.074022222222  223.327976470588 175.498144444444  223.327976470588 175.498144444444  C 223.327976470588 175.498144444444  219.805244117647 176.8729  219.805244117647 176.8729  C 219.805244117647 176.8729  218.47875 178.981688888889  218.47875 178.981688888889  C 218.47875 178.981688888889  190.398732352941 159.882255555556  190.398732352941 159.882255555556  C 190.398732352941 159.882255555556  192.182488235294 154.895388888889  192.182488235294 154.895388888889  C 192.182488235294 154.895388888889  192.241341176471 153.085533333333  192.241341176471 153.085533333333  Z " fill-rule="nonzero" fill="#169bd5" stroke="none" transform="matrix(1 0 0 1 169 287 )" />
  </g>
</svg>