<?xml version="1.0" encoding="utf-8"?>
<svg version="1.1" xmlns:xlink="http://www.w3.org/1999/xlink" width="264px" height="258px" xmlns="http://www.w3.org/2000/svg">
  <g transform="matrix(1 0 0 1 -611 -750 )">
    <path d="M 15.322928372093 168.913517333333  C 15.322928372093 168.913517333333  14.8560781395349 168.769725333333  14.8560781395349 168.769725333333  C 14.8560781395349 168.769725333333  16.1361711627907 167.024613333333  16.1361711627907 167.024613333333  C 16.1361711627907 167.024613333333  14.3607404651162 164.960957333333  14.3607404651162 164.960957333333  C 14.3607404651162 164.960957333333  15.0540167441861 163.922765333333  15.0540167441861 163.922765333333  C 15.0540167441861 163.922765333333  15.1814734883721 161.371317333333  15.1814734883721 161.371317333333  C 15.1814734883721 161.371317333333  14.7781060465116 158.595008  14.7781060465116 158.595008  C 14.7781060465116 158.595008  16.0585674418604 156.175312  16.0585674418604 156.175312  C 16.0585674418604 156.175312  15.1602306976744 154.161994666667  15.1602306976744 154.161994666667  C 15.1602306976744 154.161994666667  12.0477320930233 152.736917333333  12.0477320930233 152.736917333333  C 12.0477320930233 152.736917333333  10.4847293023256 152.311504  10.4847293023256 152.311504  C 10.4847293023256 152.311504  8.02326697674422 151.055101333333  8.02326697674422 151.055101333333  C 8.02326697674422 151.055101333333  7.03983627906978 151.136056  7.03983627906978 151.136056  C 7.03983627906978 151.136056  5.18667906976743 152.842754666667  5.18667906976743 152.842754666667  C 5.18667906976743 152.842754666667  3.75764093023257 152.874173333333  3.75764093023257 152.874173333333  C 3.75764093023257 152.874173333333  2.85967255813951 150.179736  2.85967255813951 150.179736  C 2.85967255813951 150.179736  1.31742139534884 148.716704  1.31742139534884 148.716704  C 1.31742139534884 148.716704  0.744725581395328 146.941549333333  0.744725581395328 146.941549333333  C 0.744725581395328 146.941549333333  0.0795683720930123 146.660501333333  0.0795683720930123 146.660501333333  C 0.0795683720930123 146.660501333333  1.69954604651162 143.378282666667  1.69954604651162 143.378282666667  C 1.69954604651162 143.378282666667  2.55552000000003 142.146992  2.55552000000003 142.146992  C 2.55552000000003 142.146992  2.53403162790696 140.70976  2.53403162790696 140.70976  C 2.53403162790696 140.70976  1.79863813953491 137.92852  1.79863813953491 137.92852  C 1.79863813953491 137.92852  2.34309209302328 135.784826666667  2.34309209302328 135.784826666667  C 2.34309209302328 135.784826666667  5.78798511627909 131.666229333333  5.78798511627909 131.666229333333  C 5.78798511627909 131.666229333333  7.03983627906978 128.107664  7.03983627906978 128.107664  C 7.03983627906978 128.107664  9.92578604651164 124.558730666667  9.92578604651164 124.558730666667  C 9.92578604651164 124.558730666667  10.322031627907 120.634722666667  10.322031627907 120.634722666667  C 10.322031627907 120.634722666667  10.2158176744186 118.516944  10.2158176744186 118.516944  C 10.2158176744186 118.516944  9.85518139534885 117.492282666667  9.85518139534885 117.492282666667  C 9.85518139534885 117.492282666667  10.4207553488372 115.999208  10.4207553488372 115.999208  C 10.4207553488372 115.999208  13.2362232558139 114.912512  13.2362232558139 114.912512  C 13.2362232558139 114.912512  13.6747088372093 113.812973333333  13.6747088372093 113.812973333333  C 13.6747088372093 113.812973333333  13.844528372093 111.857906666667  13.844528372093 111.857906666667  C 13.844528372093 111.857906666667  13.6888297674419 108.497141333333  13.6888297674419 108.497141333333  C 13.6888297674419 108.497141333333  13.9929823255814 107.298186666667  13.9929823255814 107.298186666667  C 13.9929823255814 107.298186666667  15.61296 104.806365333333  15.61296 104.806365333333  C 15.61296 104.806365333333  16.8295702325581 104.137629333333  16.8295702325581 104.137629333333  C 16.8295702325581 104.137629333333  20.0549134883721 104.069288  20.0549134883721 104.069288  C 20.0549134883721 104.069288  21.6607702325581 103.506962666667  21.6607702325581 103.506962666667  C 21.6607702325581 103.506962666667  20.9744930232558 101.115016  20.9744930232558 101.115016  C 20.9744930232558 101.115016  21.3067646511628 99.9224826666667  21.3067646511628 99.9224826666667  C 21.3067646511628 99.9224826666667  24.737536744186 95.6697253333334  24.737536744186 95.6697253333334  C 24.737536744186 95.6697253333334  25.6217525581395 93.3845333333333  25.6217525581395 93.3845333333333  C 25.6217525581395 93.3845333333333  26.7886325581396 91.7051253333333  26.7886325581396 91.7051253333333  C 26.7886325581396 91.7051253333333  28.5853060465116 88.0965653333333  28.5853060465116 88.0965653333333  C 28.5853060465116 88.0965653333333  28.8329748837209 86.5794106666666  28.8329748837209 86.5794106666666  C 28.8329748837209 86.5794106666666  25.5861432558139 85.8552906666667  25.5861432558139 85.8552906666667  C 25.5861432558139 85.8552906666667  23.13168 86.741664  23.13168 86.741664  C 23.13168 86.741664  21.8728297674419 86.7976213333334  21.8728297674419 86.7976213333334  C 21.8728297674419 86.7976213333334  20.7694325581395 86.3296666666667  20.7694325581395 86.3296666666667  C 20.7694325581395 86.3296666666667  20.1822474418605 85.237008  20.1822474418605 85.237008  C 20.1822474418605 85.237008  20.9391293023256 83.5576  20.9391293023256 83.5576  C 20.9391293023256 83.5576  21.6818902325581 82.765024  21.6818902325581 82.765024  C 21.6818902325581 82.765024  23.4499534883721 82.0284053333334  23.4499534883721 82.0284053333334  C 23.4499534883721 82.0284053333334  25.2326288372093 81.634984  25.2326288372093 81.634984  C 25.2326288372093 81.634984  25.5085395348837 80.3929146666667  25.5085395348837 80.3929146666667  C 25.5085395348837 80.3929146666667  23.5561674418605 78.545176  23.5561674418605 78.545176  C 23.5561674418605 78.545176  23.3014995348837 77.6402266666667  23.3014995348837 77.6402266666667  C 23.3014995348837 77.6402266666667  23.6906232558139 76.3792373333333  23.6906232558139 76.3792373333333  C 23.6906232558139 76.3792373333333  24.9072334883721 74.6443306666666  24.9072334883721 74.6443306666666  C 24.9072334883721 74.6443306666666  27.1778790697675 73.3773786666667  27.1778790697675 73.3773786666667  C 27.1778790697675 73.3773786666667  30.5235572093023 72.871928  30.5235572093023 72.871928  C 30.5235572093023 72.871928  33.961328372093 70.1696933333333  33.961328372093 70.1696933333333  C 33.961328372093 70.1696933333333  36.3663069767442 68.5531226666667  36.3663069767442 68.5531226666667  C 36.3663069767442 68.5531226666667  37.4837023255814 67.2366346666667  37.4837023255814 67.2366346666667  C 37.4837023255814 67.2366346666667  37.9223106976744 65.083768  37.9223106976744 65.083768  C 37.9223106976744 65.083768  38.4032818604651 64.621776  38.4032818604651 64.621776  C 38.4032818604651 64.621776  40.0796204651163 65.0212746666667  40.0796204651163 65.0212746666667  C 40.0796204651163 65.0212746666667  40.7658976744186 66.612504  40.7658976744186 66.612504  C 40.7658976744186 66.612504  42.1593265116279 67.336624  42.1593265116279 67.336624  C 42.1593265116279 67.336624  45.0381544186047 70.1507733333333  45.0381544186047 70.1507733333333  C 45.0381544186047 70.1507733333333  45.7667944186047 70.5627706666667  45.7667944186047 70.5627706666667  C 45.7667944186047 70.5627706666667  47.959345116279 70.182192  47.959345116279 70.182192  C 47.959345116279 70.182192  50.5200223255814 70.1382746666667  50.5200223255814 70.1382746666667  C 50.5200223255814 70.1382746666667  51.4112372093024 70.5941893333334  51.4112372093024 70.5941893333334  C 51.4112372093024 70.5941893333334  52.6773320930233 68.896664  52.6773320930233 68.896664  C 52.6773320930233 68.896664  51.283903255814 66.30084  51.283903255814 66.30084  C 51.283903255814 66.30084  52.4014213953489 64.0354853333333  52.4014213953489 64.0354853333333  C 52.4014213953489 64.0354853333333  52.1253879069767 62.9622053333334  52.1253879069767 62.9622053333334  C 52.1253879069767 62.9622053333334  51.3403869767442 62.6691173333333  51.3403869767442 62.6691173333333  C 51.3403869767442 62.6691173333333  49.6569265116279 62.8063733333334  49.6569265116279 62.8063733333334  C 49.6569265116279 62.8063733333334  48.9851386046511 62.2321226666667  48.9851386046511 62.2321226666667  C 48.9851386046511 62.2321226666667  49.4021358139535 59.867352  49.4021358139535 59.867352  C 49.4021358139535 59.867352  50.4208074418605 59.206184  50.4208074418605 59.206184  C 50.4208074418605 59.206184  52.0055441860465 60.0047226666667  52.0055441860465 60.0047226666667  C 52.0055441860465 60.0047226666667  53.9789134883721 62.1072506666667  53.9789134883721 62.1072506666667  C 53.9789134883721 62.1072506666667  56.1715869767442 67.3990026666667  56.1715869767442 67.3990026666667  C 56.1715869767442 67.3990026666667  57.0558027906977 70.8373973333333  57.0558027906977 70.8373973333333  C 57.0558027906977 70.8373973333333  56.7798920930233 72.4039733333333  56.7798920930233 72.4039733333333  C 56.7798920930233 72.4039733333333  55.2661283720931 74.0141226666666  55.2661283720931 74.0141226666666  C 55.2661283720931 74.0141226666666  55.1744037209303 75.3245333333333  55.1744037209303 75.3245333333333  C 55.1744037209303 75.3245333333333  56.0158883720931 75.7490293333333  56.0158883720931 75.7490293333333  C 56.0158883720931 75.7490293333333  58.4279888372093 75.1497813333333  58.4279888372093 75.1497813333333  C 58.4279888372093 75.1497813333333  59.2342325581395 75.5557013333333  59.2342325581395 75.5557013333333  C 59.2342325581395 75.5557013333333  59.9557506976744 74.388624  59.9557506976744 74.388624  C 59.9557506976744 74.388624  62.9902772093023 74.8690773333333  62.9902772093023 74.8690773333333  C 62.9902772093023 74.8690773333333  63.7330381395349 74.251368  63.7330381395349 74.251368  C 63.7330381395349 74.251368  65.0558623255814 71.6674693333333  65.0558623255814 71.6674693333333  C 65.0558623255814 71.6674693333333  67.5455665116279 71.6174746666667  67.5455665116279 71.6174746666667  C 67.5455665116279 71.6174746666667  71.3016111627907 72.59088  71.3016111627907 72.59088  C 71.3016111627907 72.59088  71.8886734883721 72.416472  71.8886734883721 72.416472  C 71.8886734883721 72.416472  73.763073488372 73.2340453333333  73.763073488372 73.2340453333333  C 73.763073488372 73.2340453333333  74.6614102325582 72.9968  74.6614102325582 72.9968  C 74.6614102325582 72.9968  76.2812651162791 71.2243973333333  76.2812651162791 71.2243973333333  C 76.2812651162791 71.2243973333333  76.4580837209303 68.4347866666667  76.4580837209303 68.4347866666667  C 76.4580837209303 68.4347866666667  75.7932948837209 66.575008  75.7932948837209 66.575008  C 75.7932948837209 66.575008  75.8708986046512 64.909016  75.8708986046512 64.909016  C 75.8708986046512 64.909016  76.8185972093024 64.1103626666666  76.8185972093024 64.1103626666666  C 76.8185972093024 64.1103626666666  79.0045172093023 63.0681573333334  79.0045172093023 63.0681573333334  C 79.0045172093023 63.0681573333334  81.6286772093023 61.4145493333333  81.6286772093023 61.4145493333333  C 81.6286772093023 61.4145493333333  82.9302586046512 59.7175973333333  82.9302586046512 59.7175973333333  C 82.9302586046512 59.7175973333333  83.298016744186 58.0769466666667  83.298016744186 58.0769466666667  C 83.298016744186 58.0769466666667  82.880528372093 56.573208  82.880528372093 56.573208  C 82.880528372093 56.573208  81.9045879069767 55.9554986666667  81.9045879069767 55.9554986666667  C 81.9045879069767 55.9554986666667  80.2706120930232 56.105368  80.2706120930232 56.105368  C 80.2706120930232 56.105368  78.9975181395349 55.456584  78.9975181395349 55.456584  C 78.9975181395349 55.456584  77.8020279069767 54.1216346666667  77.8020279069767 54.1216346666667  C 77.8020279069767 54.1216346666667  77.0592669767442 52.8116826666666  77.0592669767442 52.8116826666666  C 77.0592669767442 52.8116826666666  76.9108130232559 51.7634  76.9108130232559 51.7634  C 76.9108130232559 51.7634  78.2265153488371 49.6738293333333  78.2265153488371 49.6738293333333  C 78.2265153488371 49.6738293333333  78.1344223255814 47.0538106666667  78.1344223255814 47.0538106666667  C 78.1344223255814 47.0538106666667  78.4103330232558 41.633976  78.4103330232558 41.633976  C 78.4103330232558 41.633976  78.6721227906977 40.7360213333333  78.6721227906977 40.7360213333333  C 78.6721227906977 40.7360213333333  80.2352483720931 38.0606186666667  80.2352483720931 38.0606186666667  C 80.2352483720931 38.0606186666667  80.1783962790697 37.2994613333333  80.1783962790697 37.2994613333333  C 80.1783962790697 37.2994613333333  78.5730306976745 34.0321493333333  78.5730306976745 34.0321493333333  C 78.5730306976745 34.0321493333333  78.2406362790698 30.7523386666666  78.2406362790698 30.7523386666666  C 78.2406362790698 30.7523386666666  78.3750920930233 28.5947706666667  78.3750920930233 28.5947706666667  C 78.3750920930233 28.5947706666667  79.336911627907 26.4626586666667  79.336911627907 26.4626586666667  C 79.336911627907 26.4626586666667  79.4642455813953 24.623176  79.4642455813953 24.623176  C 79.4642455813953 24.623176  81.2892837209302 22.4101093333333  81.2892837209302 22.4101093333333  C 81.2892837209302 22.4101093333333  83.3332576744185 21.4502346666666  83.3332576744185 21.4502346666666  C 83.3332576744185 21.4502346666666  85.2926288372094 21.3567813333333  85.2926288372094 21.3567813333333  C 85.2926288372094 21.3567813333333  86.3606623255814 22.1423626666667  86.3606623255814 22.1423626666667  C 86.3606623255814 22.1423626666667  88.171456744186 22.2293946666667  88.171456744186 22.2293946666667  C 88.171456744186 22.2293946666667  89.0910362790698 22.672352  89.0910362790698 22.672352  C 89.0910362790698 22.672352  90.3926176744186 24.1806773333334  90.3926176744186 24.1806773333334  C 90.3926176744186 24.1806773333334  92.1184409302326 24.5797173333333  92.1184409302326 24.5797173333333  C 92.1184409302326 24.5797173333333  94.0072074418605 23.5573493333333  94.0072074418605 23.5573493333333  C 94.0072074418605 23.5573493333333  95.4076353488372 23.519968  95.4076353488372 23.519968  C 95.4076353488372 23.519968  96.1997581395349 24.785544  96.1997581395349 24.785544  C 96.1997581395349 24.785544  97.0980948837209 25.2030453333333  97.0980948837209 25.2030453333333  C 97.0980948837209 25.2030453333333  100.352048372093 25.184584  100.352048372093 25.184584  C 100.352048372093 25.184584  102.643813953488 24.2741306666667  102.643813953488 24.2741306666667  C 102.643813953488 24.2741306666667  105.239732093023 22.7283093333333  105.239732093023 22.7283093333333  C 105.239732093023 22.7283093333333  106.456342325581 22.460104  106.456342325581 22.460104  C 106.456342325581 22.460104  108.938924651163 23.881512  108.938924651163 23.881512  C 108.938924651163 23.881512  111.067992558139 22.828184  111.067992558139 22.828184  C 111.067992558139 22.828184  111.860115348837 23.3825973333333  111.860115348837 23.3825973333333  C 111.860115348837 23.3825973333333  112.567635348837 22.821648  112.567635348837 22.821648  C 112.567635348837 22.821648  112.58175627907 20.5587013333333  112.58175627907 20.5587013333333  C 112.58175627907 20.5587013333333  112.857666976744 20.3719093333334  112.857666976744 20.3719093333334  C 112.857666976744 20.3719093333334  115.014976744186 21.5810693333333  115.014976744186 21.5810693333333  C 115.014976744186 21.5810693333333  115.892070697674 21.593568  115.892070697674 21.593568  C 115.892070697674 21.593568  116.535739534884 20.9642773333333  116.535739534884 20.9642773333333  C 116.535739534884 20.9642773333333  116.570980465116 19.5363333333334  116.570980465116 19.5363333333334  C 116.570980465116 19.5363333333334  119.442809302326 17.1739706666667  119.442809302326 17.1739706666667  C 119.442809302326 17.1739706666667  120.560573023256 14.8679093333333  120.560573023256 14.8679093333333  C 120.560573023256 14.8679093333333  121.529514418605 14.1572053333334  121.529514418605 14.1572053333334  C 121.529514418605 14.1572053333334  123.022035348837 14.2820773333334  123.022035348837 14.2820773333334  C 123.022035348837 14.2820773333334  124.415464186047 13.8080453333333  124.415464186047 13.8080453333333  C 124.415464186047 13.8080453333333  124.726615813953 13.197216  124.726615813953 13.197216  C 124.726615813953 13.197216  124.12543255814 12.025552  124.12543255814 12.025552  C 124.12543255814 12.025552  125.023769302326 11.246392  125.023769302326 11.246392  C 125.023769302326 11.246392  123.920372093023 9.81294399999998  123.920372093023 9.81294399999998  C 123.920372093023 9.81294399999998  124.578161860465 10.087112  124.578161860465 10.087112  C 124.578161860465 10.087112  125.158225116279 9.42032533333332  125.158225116279 9.42032533333332  C 125.158225116279 9.42032533333332  126.75696 9.65114933333332  126.75696 9.65114933333332  C 126.75696 9.65114933333332  125.589711627907 8.06829066666665  125.589711627907 8.06829066666665  C 125.589711627907 8.06829066666665  125.575590697674 6.72176000000003  125.575590697674 6.72176000000003  C 125.575590697674 6.72176000000003  127.322533953488 7.40758133333335  127.322533953488 7.40758133333335  C 127.322533953488 7.40758133333335  127.725901395349 8.39199466666667  127.725901395349 8.39199466666667  C 127.725901395349 8.39199466666667  129.09808744186 9.02782133333336  129.09808744186 9.02782133333336  C 129.09808744186 9.02782133333336  128.963631627907 8.19912533333332  128.963631627907 8.19912533333332  C 128.963631627907 8.19912533333332  129.854969302326 7.65675199999997  129.854969302326 7.65675199999997  C 129.854969302326 7.65675199999997  130.201484651163 8.33603733333331  130.201484651163 8.33603733333331  C 130.201484651163 8.33603733333331  132.610638139535 8.06186933333336  132.610638139535 8.06186933333336  C 132.610638139535 8.06186933333336  133.190701395349 6.79067466666667  133.190701395349 6.79067466666667  C 133.190701395349 6.79067466666667  131.050336744186 6.06150933333334  131.050336744186 6.06150933333334  C 131.050336744186 6.06150933333334  132.433942325581 5.33234400000002  132.433942325581 5.33234400000002  C 132.433942325581 5.33234400000002  133.615188837209 4.553184  133.615188837209 4.553184  C 133.615188837209 4.553184  133.728524651163 5.43221866666664  133.728524651163 5.43221866666664  C 133.728524651163 5.43221866666664  134.386191627907 5.18293333333331  134.386191627907 5.18293333333331  C 134.386191627907 5.18293333333331  139.245633488372 7.61937066666664  139.245633488372 7.61937066666664  C 139.245633488372 7.61937066666664  140.695423255814 7.37008533333331  140.695423255814 7.37008533333331  C 140.695423255814 7.37008533333331  141.169640930233 6.06150933333334  141.169640930233 6.06150933333334  C 141.169640930233 6.06150933333334  141.332338604651 2.83352799999998  141.332338604651 2.83352799999998  C 141.332338604651 2.83352799999998  141.96176372093 2.004832  141.96176372093 2.004832  C 141.96176372093 2.004832  144.246530232558 0.509463999999998  144.246530232558 0.509463999999998  C 144.246530232558 0.509463999999998  145.158987906977 0.957925333333325  145.158987906977 0.957925333333325  C 145.158987906977 0.957925333333325  145.208349767442 2.45340799999997  145.208349767442 2.45340799999997  C 145.208349767442 2.45340799999997  147.408267906977 6.45412800000001  147.408267906977 6.45412800000001  C 147.408267906977 6.45412800000001  148.356089302326 6.8092506666667  148.356089302326 6.8092506666667  C 148.356089302326 6.8092506666667  151.079341395349 5.12651733333333  151.079341395349 5.12651733333333  C 151.079341395349 5.12651733333333  151.998798139535 5.13305333333332  151.998798139535 5.13305333333332  C 151.998798139535 5.13305333333332  153.371106976744 6.69079999999998  153.371106976744 6.69079999999998  C 153.371106976744 6.69079999999998  155.733722790698 10.4112746666667  155.733722790698 10.4112746666667  C 155.733722790698 10.4112746666667  157.233365581395 11.1405546666667  157.233365581395 11.1405546666667  C 157.233365581395 11.1405546666667  157.289726511628 12.2623386666667  157.289726511628 12.2623386666667  C 157.289726511628 12.2623386666667  157.876911627907 11.43972  157.876911627907 11.43972  C 157.876911627907 11.43972  157.983125581395 12.3311386666667  157.983125581395 12.3311386666667  C 157.983125581395 12.3311386666667  159.461157209302 12.773752  159.461157209302 12.773752  C 159.461157209302 12.773752  159.963616744186 11.2713893333333  159.963616744186 11.2713893333333  C 159.963616744186 11.2713893333333  161.795653953488 11.4461413333333  161.795653953488 11.4461413333333  C 161.795653953488 11.4461413333333  161.986470697674 12.044472  161.986470697674 12.044472  C 161.986470697674 12.044472  163.203080930233 12.5055466666667  163.203080930233 12.5055466666667  C 163.203080930233 12.5055466666667  162.686868837209 13.496496  162.686868837209 13.496496  C 162.686868837209 13.496496  163.323415813953 14.412912  163.323415813953 14.412912  C 163.323415813953 14.412912  164.235873488372 13.9954106666667  164.235873488372 13.9954106666667  C 164.235873488372 13.9954106666667  164.080297674419 13.0354213333334  164.080297674419 13.0354213333334  C 164.080297674419 13.0354213333334  165.601060465116 12.2623386666667  165.601060465116 12.2623386666667  C 165.601060465116 12.2623386666667  165.905213023256 13.0040026666667  165.905213023256 13.0040026666667  C 165.905213023256 13.0040026666667  166.831791627907 12.1878053333333  166.831791627907 12.1878053333333  C 166.831791627907 12.1878053333333  168.416037209302 13.4405386666667  168.416037209302 13.4405386666667  C 168.416037209302 13.4405386666667  168.706068837209 14.2320826666667  168.706068837209 14.2320826666667  C 168.706068837209 14.2320826666667  169.760104186047 13.8765013333334  169.760104186047 13.8765013333334  C 169.760104186047 13.8765013333334  170.050135813953 14.724576  170.050135813953 14.724576  C 170.050135813953 14.724576  171.988264186047 15.603152  171.988264186047 15.603152  C 171.988264186047 15.603152  173.2896 15.808864  173.2896 15.808864  C 173.2896 15.808864  172.893722790698 16.9621813333333  172.893722790698 16.9621813333333  C 172.893722790698 16.9621813333333  173.742206511628 18.0339706666667  173.742206511628 18.0339706666667  C 173.742206511628 18.0339706666667  174.874213953488 16.6689786666667  174.874213953488 16.6689786666667  C 174.874213953488 16.6689786666667  175.928126511628 17.0989786666667  175.928126511628 17.0989786666667  C 175.928126511628 17.0989786666667  175.998731162791 15.8523226666667  175.998731162791 15.8523226666667  C 175.998731162791 15.8523226666667  176.833585116279 15.6470693333333  176.833585116279 15.6470693333333  C 176.833585116279 15.6470693333333  177.972223255814 16.039688  177.972223255814 16.039688  C 177.972223255814 16.039688  177.859255813953 16.9246853333334  177.859255813953 16.9246853333334  C 177.859255813953 16.9246853333334  178.623136744186 17.7912213333333  178.623136744186 17.7912213333333  C 178.623136744186 17.7912213333333  179.648561860465 16.3887333333334  179.648561860465 16.3887333333334  C 179.648561860465 16.3887333333334  180.844052093023 16.7189733333333  180.844052093023 16.7189733333333  C 180.844052093023 16.7189733333333  180.511657674419 17.3421866666667  180.511657674419 17.3421866666667  C 180.511657674419 17.3421866666667  181.084599069767 18.2521813333333  181.084599069767 18.2521813333333  C 181.084599069767 18.2521813333333  181.544450232558 17.3796826666667  181.544450232558 17.3796826666667  C 181.544450232558 17.3796826666667  182.336573023256 17.4795573333334  182.336573023256 17.4795573333334  C 182.336573023256 17.4795573333334  183.149815813954 18.370632  183.149815813954 18.370632  C 183.149815813954 18.370632  183.885577674419 19.9228746666667  183.885577674419 19.9228746666667  C 183.885577674419 19.9228746666667  184.932368372093 20.327992  184.932368372093 20.327992  C 184.932368372093 20.327992  187.217134883721 20.6401146666666  187.217134883721 20.6401146666666  C 187.217134883721 20.6401146666666  189.233235348837 22.061064  189.233235348837 22.061064  C 189.233235348837 22.061064  190.251538604651 22.030104  190.251538604651 22.030104  C 190.251538604651 22.030104  190.669026976744 22.57844  190.669026976744 22.57844  C 190.669026976744 22.57844  190.378995348837 24.4113866666667  190.378995348837 24.4113866666667  C 190.378995348837 24.4113866666667  189.134143255814 26.3567066666667  189.134143255814 26.3567066666667  C 189.134143255814 26.3567066666667  187.797198139535 28.9064346666666  187.797198139535 28.9064346666666  C 187.797198139535 28.9064346666666  185.307493953488 30.459136  185.307493953488 30.459136  C 185.307493953488 30.459136  185.066824186047 32.965864  185.066824186047 32.965864  C 185.066824186047 32.965864  184.338184186047 36.9254186666667  184.338184186047 36.9254186666667  C 184.338184186047 36.9254186666667  184.281823255814 38.9770346666667  184.281823255814 38.9770346666667  C 184.281823255814 38.9770346666667  185.491311627907 41.6400533333334  185.491311627907 41.6400533333334  C 185.491311627907 41.6400533333334  186.615828837209 42.625384  186.615828837209 42.625384  C 186.615828837209 42.625384  191.015542325581 44.7959093333333  191.015542325581 44.7959093333333  C 191.015542325581 44.7959093333333  192.225030697674 45.0830346666667  192.225030697674 45.0830346666667  C 192.225030697674 45.0830346666667  193.752915348837 46.1119386666667  193.752915348837 46.1119386666667  C 193.752915348837 46.1119386666667  197.558690232558 47.4533093333333  197.558690232558 47.4533093333333  C 197.558690232558 47.4533093333333  199.765361860465 48.41972  199.765361860465 48.41972  C 199.765361860465 48.41972  200.74879255814 49.729672  200.74879255814 49.729672  C 200.74879255814 49.729672  201.307244651163 51.4017413333333  201.307244651163 51.4017413333333  C 201.307244651163 51.4017413333333  201.646760930233 53.9033093333333  201.646760930233 53.9033093333333  C 201.646760930233 53.9033093333333  202.191583255814 55.051008  202.191583255814 55.051008  C 202.191583255814 55.051008  201.965402790698 56.773072  201.965402790698 56.773072  C 201.965402790698 56.773072  201.97952372093 60.235432  201.97952372093 60.235432  C 201.97952372093 60.235432  203.231374883721 60.9281333333333  203.231374883721 60.9281333333333  C 203.231374883721 60.9281333333333  208.854697674419 62.6691173333333  208.854697674419 62.6691173333333  C 208.854697674419 62.6691173333333  212.151013953488 64.5219013333333  212.151013953488 64.5219013333333  C 212.151013953488 64.5219013333333  211.804130232558 65.838848  211.804130232558 65.838848  C 211.804130232558 65.838848  212.617741395349 66.593928  212.617741395349 66.593928  C 212.617741395349 66.593928  212.822801860465 68.3408746666667  212.822801860465 68.3408746666667  C 212.822801860465 68.3408746666667  214.421536744186 67.785544  214.421536744186 67.785544  C 214.421536744186 67.785544  214.499140465116 68.57812  214.499140465116 68.57812  C 214.499140465116 68.57812  213.629413953488 69.863648  213.629413953488 69.863648  C 213.629413953488 69.863648  215.199538604651 70.3319466666667  215.199538604651 70.3319466666667  C 215.199538604651 70.3319466666667  215.977540465116 70.968232  215.977540465116 70.968232  C 215.977540465116 70.968232  213.756379534884 72.7781306666666  213.756379534884 72.7781306666666  C 213.756379534884 72.7781306666666  213.572561860465 73.4397573333333  213.572561860465 73.4397573333333  C 213.572561860465 73.4397573333333  214.810414883721 74.3137466666666  214.810414883721 74.3137466666666  C 214.810414883721 74.3137466666666  218.750277209302 74.1074613333333  218.750277209302 74.1074613333333  C 218.750277209302 74.1074613333333  219.188885581395 73.121672  219.188885581395 73.121672  C 219.188885581395 73.121672  219.775947906977 73.159168  219.775947906977 73.159168  C 219.775947906977 73.159168  220.872223255814 71.8606826666666  220.872223255814 71.8606826666666  C 220.872223255814 71.8606826666666  221.812922790698 71.4177253333333  221.812922790698 71.4177253333333  C 221.812922790698 71.4177253333333  221.947378604651 72.066968  221.947378604651 72.066968  C 221.947378604651 72.066968  224.614146976744 71.5985546666667  224.614146976744 71.5985546666667  C 224.614146976744 71.5985546666667  225.278935813953 72.1603066666667  225.278935813953 72.1603066666667  C 225.278935813953 72.1603066666667  227.471854883721 71.0121493333333  227.471854883721 71.0121493333333  C 227.471854883721 71.0121493333333  228.186373953488 71.4177253333333  228.186373953488 71.4177253333333  C 228.186373953488 71.4177253333333  228.688465116279 70.76252  228.688465116279 70.76252  C 228.688465116279 70.76252  229.869834418605 70.9247733333333  229.869834418605 70.9247733333333  C 229.869834418605 70.9247733333333  230.40016744186 69.8016133333333  230.40016744186 69.8016133333333  C 230.40016744186 69.8016133333333  229.714258604651 67.4049653333333  229.714258604651 67.4049653333333  C 229.714258604651 67.4049653333333  229.664528372093 64.5843946666667  229.664528372093 64.5843946666667  C 229.664528372093 64.5843946666667  231.574414883721 62.8124506666667  231.574414883721 62.8124506666667  C 231.574414883721 62.8124506666667  233.583147906977 62.4942506666667  233.583147906977 62.4942506666667  C 233.583147906977 62.4942506666667  234.523847441861 62.8748293333333  234.523847441861 62.8748293333333  C 234.523847441861 62.8748293333333  237.155374883721 62.1386693333333  237.155374883721 62.1386693333333  C 237.155374883721 62.1386693333333  240.606898604651 61.8265466666667  240.606898604651 61.8265466666667  C 240.606898604651 61.8265466666667  242.021815813953 62.101288  242.021815813953 62.101288  C 242.021815813953 62.101288  244.044669767442 62.9307866666667  244.044669767442 62.9307866666667  C 244.044669767442 62.9307866666667  246.279951627907 64.6906906666666  246.279951627907 64.6906906666666  C 246.279951627907 64.6906906666666  250.03599627907 62.681616  250.03599627907 62.681616  C 250.03599627907 62.681616  252.688398139535 62.2696186666666  252.688398139535 62.2696186666666  C 252.688398139535 62.2696186666666  254.237402790698 62.8063733333334  254.237402790698 62.8063733333334  C 254.237402790698 62.8063733333334  255.326924651163 62.731496  255.326924651163 62.731496  C 255.326924651163 62.731496  255.72992372093 64.4410613333333  255.72992372093 64.4410613333333  C 255.72992372093 64.4410613333333  255.538984186047 66.3377626666667  255.538984186047 66.3377626666667  C 255.538984186047 66.3377626666667  254.21616 68.9091626666666  254.21616 68.9091626666666  C 254.21616 68.9091626666666  254.025343255814 71.2243973333333  254.025343255814 71.2243973333333  C 254.025343255814 71.2243973333333  255.192591627907 73.9766266666667  255.192591627907 73.9766266666667  C 255.192591627907 73.9766266666667  254.605406511628 76.2983973333334  254.605406511628 76.2983973333334  C 254.605406511628 76.2983973333334  254.548554418605 79.7936666666666  254.548554418605 79.7936666666666  C 254.548554418605 79.7936666666666  255.312435348837 83.8387626666667  255.312435348837 83.8387626666667  C 255.312435348837 83.8387626666667  255.220710697674 86.0610026666667  255.220710697674 86.0610026666667  C 255.220710697674 86.0610026666667  254.775103255814 89.7070586666666  254.775103255814 89.7070586666666  C 254.775103255814 89.7070586666666  255.093376744186 95.9882693333333  255.093376744186 95.9882693333333  C 255.093376744186 95.9882693333333  254.626526511628 97.6742133333333  254.626526511628 97.6742133333333  C 254.626526511628 97.6742133333333  253.565614883721 99.566328  253.565614883721 99.566328  C 253.565614883721 99.566328  253.268461395349 101.227848  253.268461395349 101.227848  C 253.268461395349 101.227848  254.180919069767 103.575877333333  254.180919069767 103.575877333333  C 254.180919069767 103.575877333333  255.015404651163 104.468786666667  255.015404651163 104.468786666667  C 255.015404651163 104.468786666667  256.649380465116 104.668536  256.649380465116 104.668536  C 256.649380465116 104.668536  256.875929302326 109.259216  256.875929302326 109.259216  C 256.875929302326 109.259216  256.536167441861 112.582485333333  256.536167441861 112.582485333333  C 256.536167441861 112.582485333333  255.439892093023 114.231392  255.439892093023 114.231392  C 255.439892093023 114.231392  254.746861395349 115.961712  254.746861395349 115.961712  C 254.746861395349 115.961712  254.937800930233 118.892018666667  254.937800930233 118.892018666667  C 254.937800930233 118.892018666667  255.659319069767 119.610061333333  255.659319069767 119.610061333333  C 255.659319069767 119.610061333333  256.769715348837 119.341397333333  256.769715348837 119.341397333333  C 256.769715348837 119.341397333333  256.670623255814 118.123408  256.670623255814 118.123408  C 256.670623255814 118.123408  257.554839069767 116.111581333333  257.554839069767 116.111581333333  C 257.554839069767 116.111581333333  260.391304186047 118.598357333333  260.391304186047 118.598357333333  C 260.391304186047 118.598357333333  262.831646511628 121.315842666667  262.831646511628 121.315842666667  C 262.831646511628 121.315842666667  263.383467906977 123.727741333333  263.383467906977 123.727741333333  C 263.383467906977 123.727741333333  262.711311627907 124.07736  262.711311627907 124.07736  C 262.711311627907 124.07736  261.522943255814 123.215410666667  261.522943255814 123.215410666667  C 261.522943255814 123.215410666667  260.837034418605 123.671325333333  260.837034418605 123.671325333333  C 260.837034418605 123.671325333333  260.476029767442 125.214394666667  260.476029767442 125.214394666667  C 260.476029767442 125.214394666667  258.608751627907 126.108221333333  258.608751627907 126.108221333333  C 258.608751627907 126.108221333333  257.986325581395 127.907914666667  257.986325581395 127.907914666667  C 257.986325581395 127.907914666667  257.95808372093 131.097941333333  257.95808372093 131.097941333333  C 257.95808372093 131.097941333333  257.293049302326 132.385189333333  257.293049302326 132.385189333333  C 257.293049302326 132.385189333333  256.769715348837 132.403650666667  256.769715348837 132.403650666667  C 256.769715348837 132.403650666667  255.503743255814 131.178781333333  255.503743255814 131.178781333333  C 255.503743255814 131.178781333333  252.172186046512 130.148157333333  252.172186046512 130.148157333333  C 252.172186046512 130.148157333333  250.594571162791 130.216498666667  250.594571162791 130.216498666667  C 250.594571162791 130.216498666667  249.519415813953 131.453981333333  249.519415813953 131.453981333333  C 249.519415813953 131.453981333333  248.911110697674 133.672552  248.911110697674 133.672552  C 248.911110697674 133.672552  247.878318139535 136.028493333333  247.878318139535 136.028493333333  C 247.878318139535 136.028493333333  247.80783627907 138.709514666667  247.80783627907 138.709514666667  C 247.80783627907 138.709514666667  247.312744186046 139.565845333333  247.312744186046 139.565845333333  C 247.312744186046 139.565845333333  245.650526511628 139.590842666667  245.650526511628 139.590842666667  C 245.650526511628 139.590842666667  245.21904 136.92232  245.21904 136.92232  C 245.21904 136.92232  244.575371162791 135.434749333333  244.575371162791 135.434749333333  C 244.575371162791 135.434749333333  242.764576744186 133.166184  242.764576744186 133.166184  C 242.764576744186 133.166184  240.982024186046 131.847402666667  240.982024186046 131.847402666667  C 240.982024186046 131.847402666667  239.899869767442 132.053688  239.899869767442 132.053688  C 239.899869767442 132.053688  239.567475348837 132.759805333333  239.567475348837 132.759805333333  C 239.567475348837 132.759805333333  240.232264186046 134.90992  240.232264186046 134.90992  C 240.232264186046 134.90992  241.809387906977 136.722112  241.809387906977 136.722112  C 241.809387906977 136.722112  243.03312 139.7156  243.03312 139.7156  C 243.03312 139.7156  244.81567255814 140.590965333333  244.81567255814 140.590965333333  C 244.81567255814 140.590965333333  245.947557209302 142.534909333333  245.947557209302 142.534909333333  C 245.947557209302 142.534909333333  245.756372093023 148.729202666667  245.756372093023 148.729202666667  C 245.756372093023 148.729202666667  246.357555348837 151.998922666667  246.357555348837 151.998922666667  C 246.357555348837 151.998922666667  246.02528372093 155.093776  246.02528372093 155.093776  C 246.02528372093 155.093776  245.325253953488 157.36968  245.325253953488 157.36968  C 245.325253953488 157.36968  244.341823255814 157.944848  244.341823255814 157.944848  C 244.341823255814 157.944848  241.84512 158.170053333333  241.84512 158.170053333333  C 241.84512 158.170053333333  239.220591627907 159.864368  239.220591627907 159.864368  C 239.220591627907 159.864368  238.032223255814 158.964005333333  238.032223255814 158.964005333333  C 238.032223255814 158.964005333333  236.957067906977 158.851632  236.957067906977 158.851632  C 236.957067906977 158.851632  235.486035348837 160.364658666667  235.486035348837 160.364658666667  C 235.486035348837 160.364658666667  235.323460465116 161.065157333333  235.323460465116 161.065157333333  C 235.323460465116 161.065157333333  235.988126511628 162.603066666667  235.988126511628 162.603066666667  C 235.988126511628 162.603066666667  235.698094883721 163.516386666667  235.698094883721 163.516386666667  C 235.698094883721 163.516386666667  234.523847441861 163.084896  234.523847441861 163.084896  C 234.523847441861 163.084896  232.479873488372 163.3226  232.479873488372 163.3226  C 232.479873488372 163.3226  232.147479069767 164.047637333333  232.147479069767 164.047637333333  C 232.147479069767 164.047637333333  230.845774883721 163.891346666667  230.845774883721 163.891346666667  C 230.845774883721 163.891346666667  230.640837209302 162.478309333333  230.640837209302 162.478309333333  C 230.640837209302 162.478309333333  229.912197209302 161.977904  229.912197209302 161.977904  C 229.912197209302 161.977904  228.391434418605 163.622682666667  228.391434418605 163.622682666667  C 228.391434418605 163.622682666667  228.433797209302 165.611002666667  228.433797209302 165.611002666667  C 228.433797209302 165.611002666667  227.542459534884 167.230784  227.542459534884 167.230784  C 227.542459534884 167.230784  226.62288 169.813765333333  226.62288 169.813765333333  C 226.62288 169.813765333333  225.42751255814 170.033008  225.42751255814 170.033008  C 225.42751255814 170.033008  224.500933953488 169.032312  224.500933953488 169.032312  C 224.500933953488 169.032312  223.885506976744 167.412530666667  223.885506976744 167.412530666667  C 223.885506976744 167.412530666667  223.220840930233 164.154048  223.220840930233 164.154048  C 223.220840930233 164.154048  222.095955348837 162.3594  222.095955348837 162.3594  C 222.095955348837 162.3594  219.613250232558 161.884106666667  219.613250232558 161.884106666667  C 219.613250232558 161.884106666667  217.887549767442 159.808410666667  217.887549767442 159.808410666667  C 217.887549767442 159.808410666667  216.889998139535 159.564170666667  216.889998139535 159.564170666667  C 216.889998139535 159.564170666667  214.739810232558 160.227288  214.739810232558 160.227288  C 214.739810232558 160.227288  212.016558139535 159.514290666667  212.016558139535 159.514290666667  C 212.016558139535 159.514290666667  210.099549767442 159.795912  210.099549767442 159.795912  C 210.099549767442 159.795912  209.010273488372 161.04016  209.010273488372 161.04016  C 209.010273488372 161.04016  208.380848372093 163.735056  208.380848372093 163.735056  C 208.380848372093 163.735056  207.001540465116 164.710754666667  207.001540465116 164.710754666667  C 207.001540465116 164.710754666667  204.398623255814 165.017258666667  204.398623255814 165.017258666667  C 204.398623255814 165.017258666667  201.965402790698 163.729093333333  201.965402790698 163.729093333333  C 201.965402790698 163.729093333333  200.401908837209 163.159888  200.401908837209 163.159888  C 200.401908837209 163.159888  200.104755348837 161.746736  200.104755348837 161.746736  C 200.104755348837 161.746736  200.18272744186 158.732837333333  200.18272744186 158.732837333333  C 200.18272744186 158.732837333333  199.496450232558 157.138512  199.496450232558 157.138512  C 199.496450232558 157.138512  198.371933023256 156.7006  198.371933023256 156.7006  C 198.371933023256 156.7006  197.339140465116 157.950925333333  197.339140465116 157.950925333333  C 197.339140465116 157.950925333333  196.462046511628 158.282426666667  196.462046511628 158.282426666667  C 196.462046511628 158.282426666667  195.436621395349 157.625845333333  195.436621395349 157.625845333333  C 195.436621395349 157.625845333333  194.339977674419 157.71368  194.339977674419 157.71368  C 194.339977674419 157.71368  191.553242790698 159.764493333333  191.553242790698 159.764493333333  C 191.553242790698 159.764493333333  190.159813953488 163.459970666667  190.159813953488 163.459970666667  C 190.159813953488 163.459970666667  189.30384 166.436832  189.30384 166.436832  C 189.30384 166.436832  187.118288372093 171.908954666667  187.118288372093 171.908954666667  C 187.118288372093 171.908954666667  185.901678139535 172.246992  185.901678139535 172.246992  C 185.901678139535 172.246992  184.600096744186 171.496498666667  184.600096744186 171.496498666667  C 184.600096744186 171.496498666667  183.446969302326 170.145381333333  183.446969302326 170.145381333333  C 183.446969302326 170.145381333333  182.746939534884 170.033008  182.746939534884 170.033008  C 182.746939534884 170.033008  181.600811162791 171.071085333333  181.600811162791 171.071085333333  C 181.600811162791 171.071085333333  179.613320930233 171.640290666667  179.613320930233 171.640290666667  C 179.613320930233 171.640290666667  178.283374883721 171.658752  178.283374883721 171.658752  C 178.283374883721 171.658752  175.355185116279 170.89576  175.355185116279 170.89576  C 175.355185116279 170.89576  174.350511627907 170.145381333333  174.350511627907 170.145381333333  C 174.350511627907 170.145381333333  172.334779534884 167.2872  172.334779534884 167.2872  C 172.334779534884 167.2872  170.785774883721 166.987117333333  170.785774883721 166.987117333333  C 170.785774883721 166.987117333333  169.137678139535 168.387770666667  169.137678139535 168.387770666667  C 169.137678139535 168.387770666667  168.267460465116 169.970056  168.267460465116 169.970056  C 168.267460465116 169.970056  166.90239627907 173.554192  166.90239627907 173.554192  C 166.90239627907 173.554192  167.128945116279 175.242888  167.128945116279 175.242888  C 167.128945116279 175.242888  169.010221395349 177.64504  169.010221395349 177.64504  C 169.010221395349 177.64504  171.790325581395 181.492221333333  171.790325581395 181.492221333333  C 171.790325581395 181.492221333333  172.54720744186 183.056045333333  172.54720744186 183.056045333333  C 172.54720744186 183.056045333333  172.98544744186 186.778813333333  172.98544744186 186.778813333333  C 172.98544744186 186.778813333333  172.674173023256 188.167885333333  172.674173023256 188.167885333333  C 172.674173023256 188.167885333333  169.661257674419 188.749589333333  169.661257674419 188.749589333333  C 169.661257674419 188.749589333333  166.286969302326 188.705672  166.286969302326 188.705672  C 166.286969302326 188.705672  163.691051162791 188.474504  163.691051162791 188.474504  C 163.691051162791 188.474504  160.196919069767 188.5808  160.196919069767 188.5808  C 160.196919069767 188.5808  159.036669767442 188.186346666667  159.036669767442 188.186346666667  C 159.036669767442 188.186346666667  156.370269767442 185.884069333333  156.370269767442 185.884069333333  C 156.370269767442 185.884069333333  155.32335627907 185.621482666667  155.32335627907 185.621482666667  C 155.32335627907 185.621482666667  152.805041860465 186.209149333333  152.805041860465 186.209149333333  C 152.805041860465 186.209149333333  151.70176744186 187.110314666667  151.70176744186 187.110314666667  C 151.70176744186 187.110314666667  151.305521860465 188.56188  151.305521860465 188.56188  C 151.305521860465 188.56188  151.850344186047 189.544  151.850344186047 189.544  C 151.850344186047 189.544  153.639895813953 190.313872  153.639895813953 190.313872  C 153.639895813953 190.313872  153.760230697674 190.8082  153.760230697674 190.8082  C 153.760230697674 190.8082  153.321622325581 193.667642666667  153.321622325581 193.667642666667  C 153.321622325581 193.667642666667  153.335743255814 195.476165333333  153.335743255814 195.476165333333  C 153.335743255814 195.476165333333  152.989350697674 197.322528  152.989350697674 197.322528  C 152.989350697674 197.322528  151.730009302326 198.661605333333  151.730009302326 198.661605333333  C 151.730009302326 198.661605333333  150.081789767442 199.393637333333  150.081789767442 199.393637333333  C 150.081789767442 199.393637333333  147.280933953488 201.746712  147.280933953488 201.746712  C 147.280933953488 201.746712  145.236591627907 202.973530666667  145.236591627907 202.973530666667  C 145.236591627907 202.973530666667  142.958946976744 203.918613333333  142.958946976744 203.918613333333  C 142.958946976744 203.918613333333  142.633551627907 204.381981333333  142.633551627907 204.381981333333  C 142.633551627907 204.381981333333  141.544398139535 208.150042666667  141.544398139535 208.150042666667  C 141.544398139535 208.150042666667  139.429451162791 209.821194666667  139.429451162791 209.821194666667  C 139.429451162791 209.821194666667  135.588680930233 211.448888  135.588680930233 211.448888  C 135.588680930233 211.448888  133.282794418605 212.575717333333  133.282794418605 212.575717333333  C 133.282794418605 212.575717333333  130.010545116279 214.059618666667  130.010545116279 214.059618666667  C 130.010545116279 214.059618666667  128.581875348837 213.1768  128.581875348837 213.1768  C 128.581875348837 213.1768  127.754143255814 210.3474  127.754143255814 210.3474  C 127.754143255814 210.3474  126.325473488372 209.307946666667  126.325473488372 209.307946666667  C 126.325473488372 209.307946666667  125.24319627907 209.645984  125.24319627907 209.645984  C 125.24319627907 209.645984  123.488885581395 213.302130666667  123.488885581395 213.302130666667  C 123.488885581395 213.302130666667  122.321637209302 213.940709333333  122.321637209302 213.940709333333  C 122.321637209302 213.940709333333  120.107966511628 214.629282666667  120.107966511628 214.629282666667  C 120.107966511628 214.629282666667  117.709986976744 215.004701333333  117.709986976744 215.004701333333  C 117.709986976744 215.004701333333  116.762288372093 214.572866666667  116.762288372093 214.572866666667  C 116.762288372093 214.572866666667  115.114068837209 210.785312  115.114068837209 210.785312  C 115.114068837209 210.785312  110.480807441861 213.214296  110.480807441861 213.214296  C 110.480807441861 213.214296  109.250199069767 214.284709333333  109.250199069767 214.284709333333  C 109.250199069767 214.284709333333  108.769227906977 215.317741333333  108.769227906977 215.317741333333  C 108.769227906977 215.317741333333  109.349291162791 217.283472  109.349291162791 217.283472  C 109.349291162791 217.283472  109.391653953488 218.504672  109.391653953488 218.504672  C 109.391653953488 218.504672  108.54304744186 220.313997333333  108.54304744186 220.313997333333  C 108.54304744186 220.313997333333  108.931925581395 222.511813333333  108.931925581395 222.511813333333  C 108.931925581395 222.511813333333  110.473808372093 224.089512  110.473808372093 224.089512  C 110.473808372093 224.089512  110.296989767442 225.611253333333  110.296989767442 225.611253333333  C 110.296989767442 225.611253333333  109.094500465116 227.108112  109.094500465116 227.108112  C 109.094500465116 227.108112  108.153800930233 227.339738666667  108.153800930233 227.339738666667  C 108.153800930233 227.339738666667  107.163371162791 226.857450666667  107.163371162791 226.857450666667  C 107.163371162791 226.857450666667  106.35712744186 225.467461333333  106.35712744186 225.467461333333  C 106.35712744186 225.467461333333  105.515642790698 224.797464  105.515642790698 224.797464  C 105.515642790698 224.797464  104.341395348837 225.279293333333  104.341395348837 225.279293333333  C 104.341395348837 225.279293333333  102.431386046512 227.120496  102.431386046512 227.120496  C 102.431386046512 227.120496  101.604022325581 228.598434666667  101.604022325581 228.598434666667  C 101.604022325581 228.598434666667  102.014020465116 230.464634666667  102.014020465116 230.464634666667  C 102.014020465116 230.464634666667  101.80896 231.491589333333  101.80896 231.491589333333  C 101.80896 231.491589333333  98.8384074418604 231.265925333333  98.8384074418604 231.265925333333  C 98.8384074418604 231.265925333333  98.0600372093024 232.675408  98.0600372093024 232.675408  C 98.0600372093024 232.675408  98.2724651162791 234.804768  98.2724651162791 234.804768  C 98.2724651162791 234.804768  97.8973395348837 235.343472  97.8973395348837 235.343472  C 97.8973395348837 235.343472  95.8673637209302 235.800762666667  95.8673637209302 235.800762666667  C 95.8673637209302 235.800762666667  95.789391627907 237.792293333333  95.789391627907 237.792293333333  C 95.789391627907 237.792293333333  97.6287962790697 240.767893333333  97.6287962790697 240.767893333333  C 97.6287962790697 240.767893333333  98.8877693023256 243.467834666667  98.8877693023256 243.467834666667  C 98.8877693023256 243.467834666667  97.1690679069768 245.071448  97.1690679069768 245.071448  C 97.1690679069768 245.071448  95.4569972093023 245.572656  95.4569972093023 245.572656  C 95.4569972093023 245.572656  93.58272 246.643528  93.58272 246.643528  C 93.58272 246.643528  92.9320520930233 248.022050666667  92.9320520930233 248.022050666667  C 92.9320520930233 248.022050666667  90.8735888372093 248.285096  90.8735888372093 248.285096  C 90.8735888372093 248.285096  91.2201041860465 249.525674666667  91.2201041860465 249.525674666667  C 91.2201041860465 249.525674666667  95.0043906976744 250.283621333333  95.0043906976744 250.283621333333  C 95.0043906976744 250.283621333333  96.2491199999999 251.041912  96.2491199999999 251.041912  C 96.2491199999999 251.041912  96.0794232558139 252.489234666667  96.0794232558139 252.489234666667  C 96.0794232558139 252.489234666667  93.9151144186046 253.191224  93.9151144186046 253.191224  C 93.9151144186046 253.191224  91.6233488372092 252.282605333333  91.6233488372092 252.282605333333  C 91.6233488372092 252.282605333333  91.0926474418604 253.253602666667  91.0926474418604 253.253602666667  C 91.0926474418604 253.253602666667  91.1353786046512 254.262554666667  91.1353786046512 254.262554666667  C 91.1353786046512 254.262554666667  90.3856186046512 255.515632  90.3856186046512 255.515632  C 90.3856186046512 255.515632  90.7602530232558 257.050789333333  90.7602530232558 257.050789333333  C 90.7602530232558 257.050789333333  89.4377972093023 257.809194666667  89.4377972093023 257.809194666667  C 89.4377972093023 257.809194666667  88.00176 257.74028  88.00176 257.74028  C 88.00176 257.74028  85.8938120930233 256.223584  85.8938120930233 256.223584  C 85.8938120930233 256.223584  83.2274120930232 253.065893333333  83.2274120930232 253.065893333333  C 83.2274120930232 253.065893333333  83.1353190697674 252.395437333333  83.1353190697674 252.395437333333  C 83.1353190697674 252.395437333333  84.9813544186047 250.948114666667  84.9813544186047 250.948114666667  C 84.9813544186047 250.948114666667  84.0406548837209 248.930669333333  84.0406548837209 248.930669333333  C 84.0406548837209 248.930669333333  83.9842939534884 247.32052  83.9842939534884 247.32052  C 83.9842939534884 247.32052  83.3901097674419 245.716448  83.3901097674419 245.716448  C 83.3901097674419 245.716448  81.7277693023255 243.69304  81.7277693023255 243.69304  C 81.7277693023255 243.69304  81.3880074418604 241.494306666667  81.3880074418604 241.494306666667  C 81.3880074418604 241.494306666667  81.0486139534884 241.162232  81.0486139534884 241.162232  C 81.0486139534884 241.162232  76.9954158139535 241.563221333333  76.9954158139535 241.563221333333  C 76.9954158139535 241.563221333333  75.3546865116279 240.780392  75.3546865116279 240.780392  C 75.3546865116279 240.780392  72.9920706976744 237.592085333333  72.9920706976744 237.592085333333  C 72.9920706976744 237.592085333333  74.1521972093023 235.243138666667  74.1521972093023 235.243138666667  C 74.1521972093023 235.243138666667  73.0203125581396 226.813533333333  73.0203125581396 226.813533333333  C 73.0203125581396 226.813533333333  72.3766437209302 224.421472  72.3766437209302 224.421472  C 72.3766437209302 224.421472  70.7709097674419 222.699522666667  70.7709097674419 222.699522666667  C 70.7709097674419 222.699522666667  66.5625041860465 221.791821333333  66.5625041860465 221.791821333333  C 66.5625041860465 221.791821333333  64.9144074418605 220.257581333333  64.9144074418605 220.257581333333  C 64.9144074418605 220.257581333333  63.3367925581395 219.769330666667  63.3367925581395 219.769330666667  C 63.3367925581395 219.769330666667  61.9151218604652 218.942928  61.9151218604652 218.942928  C 61.9151218604652 218.942928  60.2457823255814 216.369693333333  60.2457823255814 216.369693333333  C 60.2457823255814 216.369693333333  60.4297227906977 215.029698666667  60.4297227906977 215.029698666667  C 60.4297227906977 215.029698666667  63.4782474418604 215.64328  63.4782474418604 215.64328  C 63.4782474418604 215.64328  64.4899200000001 215.474490666667  64.4899200000001 215.474490666667  C 64.4899200000001 215.474490666667  64.9284055813953 214.284709333333  64.9284055813953 214.284709333333  C 64.9284055813953 214.284709333333  64.2707386046511 213.239293333333  64.2707386046511 213.239293333333  C 64.2707386046511 213.239293333333  61.9363646511628 211.492805333333  61.9363646511628 211.492805333333  C 61.9363646511628 211.492805333333  59.800174883721 209.577069333333  59.800174883721 209.577069333333  C 59.800174883721 209.577069333333  53.8022176744186 208.087664  53.8022176744186 208.087664  C 53.8022176744186 208.087664  52.8187869767442 206.748128  52.8187869767442 206.748128  C 52.8187869767442 206.748128  51.9204502325581 206.447472  51.9204502325581 206.447472  C 51.9204502325581 206.447472  51.4394790697674 205.214346666667  51.4394790697674 205.214346666667  C 51.4394790697674 205.214346666667  50.3996874418605 204.794896  50.3996874418605 204.794896  C 50.3996874418605 204.794896  48.518288372093 205.333141333333  48.518288372093 205.333141333333  C 48.518288372093 205.333141333333  46.0282158139535 206.416053333333  46.0282158139535 206.416053333333  C 46.0282158139535 206.416053333333  44.0900874418605 206.209882666667  44.0900874418605 206.209882666667  C 44.0900874418605 206.209882666667  42.9020874418605 203.831237333333  42.9020874418605 203.831237333333  C 42.9020874418605 203.831237333333  42.2937823255814 203.342986666667  42.2937823255814 203.342986666667  C 42.2937823255814 203.342986666667  41.0771720930232 203.468317333333  41.0771720930232 203.468317333333  C 41.0771720930232 203.468317333333  39.2236465116279 202.86712  39.2236465116279 202.86712  C 39.2236465116279 202.86712  37.4625823255814 201.652914666667  37.4625823255814 201.652914666667  C 37.4625823255814 201.652914666667  34.6824781395349 198.448898666667  34.6824781395349 198.448898666667  C 34.6824781395349 198.448898666667  33.9895702325581 197.297072  33.9895702325581 197.297072  C 33.9895702325581 197.297072  32.9708986046511 197.20316  32.9708986046511 197.20316  C 32.9708986046511 197.20316  30.6438920930233 198.573770666667  30.6438920930233 198.573770666667  C 30.6438920930233 198.573770666667  30.1131906976744 198.517813333333  30.1131906976744 198.517813333333  C 30.1131906976744 198.517813333333  29.0948874418605 196.796781333333  29.0948874418605 196.796781333333  C 29.0948874418605 196.796781333333  29.5474939534884 194.512506666667  29.5474939534884 194.512506666667  C 29.5474939534884 194.512506666667  29.5757358139535 192.622685333333  29.5757358139535 192.622685333333  C 29.5757358139535 192.622685333333  28.231791627907 189.569456  28.231791627907 189.569456  C 28.231791627907 189.569456  27.1355162790698 187.535728  27.1355162790698 187.535728  C 27.1355162790698 187.535728  26.5200893023256 187.204226666667  26.5200893023256 187.204226666667  C 26.5200893023256 187.204226666667  24.8719925581396 187.686056  24.8719925581396 187.686056  C 24.8719925581396 187.686056  23.9026827906977 187.548226666667  23.9026827906977 187.548226666667  C 23.9026827906977 187.548226666667  21.5474344186046 186.121773333333  21.5474344186046 186.121773333333  C 21.5474344186046 186.121773333333  19.4959702325582 186.434813333333  19.4959702325582 186.434813333333  C 19.4959702325582 186.434813333333  17.5652093023256 183.938290666667  17.5652093023256 183.938290666667  C 17.5652093023256 183.938290666667  15.4502623255814 183.031048  15.4502623255814 183.031048  C 15.4502623255814 183.031048  14.7005023255814 181.692429333333  14.7005023255814 181.692429333333  C 14.7005023255814 181.692429333333  14.6718920930232 180.804106666667  14.6718920930232 180.804106666667  C 14.6718920930232 180.804106666667  16.9142958139535 177.788832  16.9142958139535 177.788832  C 16.9142958139535 177.788832  18.1026641860465 177.507210666667  18.1026641860465 177.507210666667  C 18.1026641860465 177.507210666667  19.276911627907 175.586888  19.276911627907 175.586888  C 19.276911627907 175.586888  19.1495776744186 174.917808  19.1495776744186 174.917808  C 19.1495776744186 174.917808  17.5652093023256 172.872613333333  17.5652093023256 172.872613333333  C 17.5652093023256 172.872613333333  17.2536893023256 171.583874666667  17.2536893023256 171.583874666667  C 17.2536893023256 171.583874666667  16.0798102325582 172.359365333333  16.0798102325582 172.359365333333  C 16.0798102325582 172.359365333333  15.4502623255814 169.851261333333  15.4502623255814 169.851261333333  C 15.4502623255814 169.851261333333  15.0046548837209 169.563677333333  15.0046548837209 169.563677333333  C 15.0046548837209 169.563677333333  15.4997469767442 169.282514666667  15.4997469767442 169.282514666667  C 15.4997469767442 169.282514666667  15.322928372093 168.913517333333  15.322928372093 168.913517333333  Z M 15.0046548837209 169.563677333333  C 15.0046548837209 169.563677333333  14.8560781395349 167.623058666667  14.8560781395349 167.623058666667  C 14.8560781395349 167.623058666667  16.5508353488372 167.766850666667  16.5508353488372 167.766850666667  C 16.5508353488372 167.766850666667  16.7276539534884 169.282514666667  16.7276539534884 169.282514666667  C 16.7276539534884 169.282514666667  15.0046548837209 169.563677333333  15.0046548837209 169.563677333333  Z " fill-rule="nonzero" fill="#169bd5" stroke="none" transform="matrix(1 0 0 1 611 750 )" />
  </g>
</svg>