<?xml version="1.0" encoding="utf-8"?>
<svg version="1.1" xmlns:xlink="http://www.w3.org/1999/xlink" width="126px" height="161px" xmlns="http://www.w3.org/2000/svg">
  <defs>
    <mask fill="white" id="clip39">
      <path d="M 82.3691 123.2478  C 82.3691 123.2478  82.0001 123.9838  82.0001 123.9838  C 82.0001 123.9838  80.9519 122.9631  80.9519 122.9631  C 80.9519 122.9631  80.6005 122.0553  80.6005 122.0553  C 80.6005 122.0553  79.7279 121.3569  79.7279 121.3569  C 79.7279 121.3569  79.4761999999999 119.8154  79.4761999999999 119.8154  C 79.4761999999999 119.8154  78.2991 119.6544  78.2991 119.6544  C 78.2991 119.6544  77.2742 120.2344  77.2742 120.2344  C 77.2742 120.2344  76.4544 121.3248  76.4544 121.3248  C 76.4544 121.3248  75.8864 120.9111  75.8864 120.9111  C 75.8864 120.9111  74.5688 121.5127  74.5688 121.5127  C 74.5688 121.5127  74.598 122.6193  74.598 122.6193  C 74.598 122.6193  71.6583000000001 125.4989  71.6583000000001 125.4989  C 71.6583000000001 125.4989  71.951 124.5372  71.951 124.5372  C 71.951 124.5372  71.2424 124.4137  71.2424 124.4137  C 71.2424 124.4137  70.2059 125.4183  70.2059 125.4183  C 70.2059 125.4183  70.2234999999999 127.0894  70.2234999999999 127.0894  C 70.2234999999999 127.0894  68.8122 128.7984  68.8122 128.7984  C 68.8122 128.7984  67.682 128.8253  67.682 128.8253  C 67.682 128.8253  67.8284 129.954  67.8284 129.954  C 67.8284 129.954  67.4184 131.7009  67.4184 131.7009  C 67.4184 131.7009  68.1622 132.2062  68.1622 132.2062  C 68.1622 132.2062  68.4666999999999 133.3244  68.4666999999999 133.3244  C 68.4666999999999 133.3244  67.5941 133.7546  67.5941 133.7546  C 67.5941 133.7546  67.436 134.6632  67.436 134.6632  C 67.436 134.6632  66.4873 135.8999  66.4873 135.8999  C 66.4873 135.8999  65.3570999999999 135.8837  65.3570999999999 135.8837  C 65.3570999999999 135.8837  64.0453 135.0718  64.0453 135.0718  C 64.0453 135.0718  61.8097 135.4106  61.8097 135.4106  C 61.8097 135.4106  60.9547 134.6471  60.9547 134.6471  C 60.9547 134.6471  60.3925 135.2385  60.3925 135.2385  C 60.3925 135.2385  59.5083 134.8461  59.5083 134.8461  C 59.5083 134.8461  58.5186 133.8406  58.5186 133.8406  C 58.5186 133.8406  58.378 133.1793  58.378 133.1793  C 58.378 133.1793  57.1599 132.8137  57.1599 132.8137  C 57.1599 132.8137  57.1072 133.5126  57.1072 133.5126  C 57.1072 133.5126  55.854 132.6309  55.854 132.6309  C 55.854 132.6309  54.4662 132.9858  54.4662 132.9858  C 54.4662 132.9858  53.7049 132.0127  53.7049 132.0127  C 53.7049 132.0127  54.1792 131.2279  54.1792 131.2279  C 54.1792 131.2279  53.3476000000001 129.8465  53.3476000000001 129.8465  C 53.3476000000001 129.8465  51.7606 129.696  51.7606 129.696  C 51.7606 129.696  50.73 131.0075  50.73 131.0075  C 50.73 131.0075  49.6817 131.8461  49.6817 131.8461  C 49.6817 131.8461  49.3655 132.9374  49.3655 132.9374  C 49.3655 132.9374  47.0113 134.6686  47.0113 134.6686  C 47.0113 134.6686  46.3261 134.3944  46.3261 134.3944  C 46.3261 134.3944  45.0377999999999 135.4913  45.0377999999999 135.4913  C 45.0377999999999 135.4913  44.9149 134.9052  44.9149 134.9052  C 44.9149 134.9052  43.3806 134.0771  43.3806 134.0771  C 43.3806 134.0771  42.426 132.846  42.426 132.846  C 42.426 132.846  42.1742 131.674  42.1742 131.674  C 42.1742 131.674  40.2065 131.3353  40.2065 131.3353  C 40.2065 131.3353  38.9709 132.9912  38.9709 132.9912  C 38.9709 132.9912  37.5655 135.959  37.5655 135.959  C 37.5655 135.959  38.1921 136.8571  38.1921 136.8571  C 38.1921 136.8571  38.1569 137.6638  38.1569 137.6638  C 38.1569 137.6638  37.4191 137.8305  37.4191 137.8305  C 37.4191 137.8305  38.5024 139.6806  38.5024 139.6806  C 38.5024 139.6806  37.7236 141.9023  37.7236 141.9023  C 37.7236 141.9023  38.1686 142.209  38.1686 142.209  C 38.1686 142.209  37.665 143.3334  37.665 143.3334  C 37.665 143.3334  36.6753 143.7261  36.6753 143.7261  C 36.6753 143.7261  37.0501 145.109  37.0501 145.109  C 37.0501 145.109  36.5055 145.9484  36.5055 145.9484  C 36.5055 145.9484  35.7325 145.2166  35.7325 145.2166  C 35.7325 145.2166  34.4851 145.3942  34.4851 145.3942  C 34.4851 145.3942  33.8644 144.926  33.8644 144.926  C 33.8644 144.926  32.7048 145.0821  32.7048 145.0821  C 32.7048 145.0821  32.4999 146.0722  32.4999 146.0722  C 32.4999 146.0722  31.6917999999999 146.2336  31.6917999999999 146.2336  C 31.6917999999999 146.2336  30.9773 145.7817  30.9773 145.7817  C 30.9773 145.7817  30.0696 144.2534  30.0696 144.2534  C 30.0696 144.2534  29.5133 142.6233  29.5133 142.6233  C 29.5133 142.6233  28.9569 141.8646  28.9569 141.8646  C 28.9569 141.8646  27.6042 142.7953  27.6042 142.7953  C 27.6042 142.7953  26.8253 144.4041  26.8253 144.4041  C 26.8253 144.4041  25.3203 144.7968  25.3203 144.7968  C 25.3203 144.7968  25.496 146.3144  25.496 146.3144  C 25.496 146.3144  25.1154 146.2014  25.1154 146.2014  C 25.1154 146.2014  23.9675999999999 147.0032  23.9675999999999 147.0032  C 23.9675999999999 147.0032  24.0496000000001 148.7524  24.0496000000001 148.7524  C 24.0496000000001 148.7524  23.5108 150.2704  23.5108 150.2704  C 23.5108 150.2704  22.7788 150.5933  22.7788 150.5933  C 22.7788 150.5933  21.8945 150.841  21.8945 150.841  C 21.8945 150.841  22.0351000000001 151.3093  22.0351000000001 151.3093  C 22.0351000000001 151.3093  20.9049 152.9567  20.9049 152.9567  C 20.9049 152.9567  19.3178 154.3944  19.3178 154.3944  C 19.3178 154.3944  17.9417 154.1521  17.9417 154.1521  C 17.9417 154.1521  16.7236 154.9868  16.7236 154.9868  C 16.7236 154.9868  16.6767 155.676  16.6767 155.676  C 16.6767 155.676  16.0442 155.6222  16.0442 155.6222  C 16.0442 155.6222  15.2361 156.78  15.2361 156.78  C 15.2361 156.78  15.6812 157.184  15.6812 157.184  C 15.6812 157.184  15.3532 157.9218  15.3532 157.9218  C 15.3532 157.9218  15.4645 159.0745  15.4645 159.0745  C 15.4645 159.0745  15.0253 160.0819  15.0253 160.0819  C 15.0253 160.0819  12.7648 160.599  12.7648 160.599  C 12.7648 160.599  11.8806 160.4158  11.8806 160.4158  C 11.8806 160.4158  11.3536 159.5647  11.3536 159.5647  C 11.3536 159.5647  11.5878 157.8895  11.5878 157.8895  C 11.5878 157.8895  11.1544 157.4156  11.1544 157.4156  C 11.1544 157.4156  11.1896 156.0692  11.1896 156.0692  C 11.1896 156.0692  9.71379999999999 154.6906  9.71379999999999 154.6906  C 9.71379999999999 154.6906  10.1061999999999 153.0267  10.1061999999999 153.0267  C 10.1061999999999 153.0267  9.50890000000004 150.8948  9.50890000000004 150.8948  C 9.50890000000004 150.8948  8.99940000000004 150.9432  8.99940000000004 150.9432  C 8.99940000000004 150.9432  9.01689999999996 149.4467  9.01689999999996 149.4467  C 9.01689999999996 149.4467  8.28489999999999 149.3445  8.28489999999999 149.3445  C 8.28489999999999 149.3445  8.40790000000004 148.1388  8.40790000000004 148.1388  C 8.40790000000004 148.1388  9.48540000000003 148.1442  9.48540000000003 148.1442  C 9.48540000000003 148.1442  10.1002999999999 147.6275  10.1002999999999 147.6275  C 10.1002999999999 147.6275  9.48540000000003 146.083  9.48540000000003 146.083  C 9.48540000000003 146.083  9.69619999999998 144.2265  9.69619999999998 144.2265  C 9.69619999999998 144.2265  10.8440000000001 142.026  10.8440000000001 142.026  C 10.8440000000001 142.026  9.80169999999998 141.4343  9.80169999999998 141.4343  C 9.80169999999998 141.4343  9.88369999999998 140.423  9.88369999999998 140.423  C 9.88369999999998 140.423  9.19259999999997 139.4602  9.19259999999997 139.4602  C 9.19259999999997 139.4602  9.39760000000001 137.5186  9.39760000000001 137.5186  C 9.39760000000001 137.5186  9.49710000000005 133.6954  9.49710000000005 133.6954  C 9.49710000000005 133.6954  10.1999 133.147  10.1999 133.147  C 10.1999 133.147  10.7328 131.1312  10.7328 131.1312  C 10.7328 131.1312  11.0196999999999 131.0828  11.0196999999999 131.0828  C 11.0196999999999 131.0828  10.9435999999999 129.3359  10.9435999999999 129.3359  C 10.9435999999999 129.3359  11.3594000000001 127.729  11.3594000000001 127.729  C 11.3594000000001 127.729  11.1251999999999 126.6703  11.1251999999999 126.6703  C 11.1251999999999 126.6703  10.5103 126.3748  10.5103 126.3748  C 10.5103 126.3748  10.3228 127.0088  10.3228 127.0088  C 10.3228 127.0088  8.54259999999999 127.7451  8.54259999999999 127.7451  C 8.54259999999999 127.7451  7.56460000000004 127.0088  7.56460000000004 127.0088  C 7.56460000000004 127.0088  7.89260000000002 126.579  7.89260000000002 126.579  C 7.89260000000002 126.579  7.95699999999999 125.0046  7.95699999999999 125.0046  C 7.95699999999999 125.0046  7.27769999999998 124.8649  7.27769999999998 124.8649  C 7.27769999999998 124.8649  6.1182 123.8334  6.1182 123.8334  C 6.1182 123.8334  5.69659999999999 122.442  5.69659999999999 122.442  C 5.69659999999999 122.442  6.94970000000001 120.3472  6.94970000000001 120.3472  C 6.94970000000001 120.3472  6.02449999999999 119.3804  6.02449999999999 119.3804  C 6.02449999999999 119.3804  4.36720000000003 121.212  4.36720000000003 121.212  C 4.36720000000003 121.212  3.02030000000002 121.8565  3.02030000000002 121.8565  C 3.02030000000002 121.8565  1.33960000000002 121.4805  1.33960000000002 121.4805  C 1.33960000000002 121.4805  0.666200000000003 121.0723  0.666200000000003 121.0723  C 0.666200000000003 121.0723  3.11980000000005 118.9401  3.11980000000005 118.9401  C 3.11980000000005 118.9401  3.82259999999997 117.9304  3.82259999999997 117.9304  C 3.82259999999997 117.9304  3.23109999999997 117.0927  3.23109999999997 117.0927  C 3.23109999999997 117.0927  4.1798 116.7277  4.1798 116.7277  C 4.1798 116.7277  3.16089999999997 115.2779  3.16089999999997 115.2779  C 3.16089999999997 115.2779  3.65859999999998 114.2042  3.65859999999998 114.2042  C 3.65859999999998 114.2042  3.51220000000001 112.8407  3.51220000000001 112.8407  C 3.51220000000001 112.8407  5.19870000000003 111.9603  5.19870000000003 111.9603  C 5.19870000000003 111.9603  4.84739999999999 110.5165  4.84739999999999 110.5165  C 4.84739999999999 110.5165  5.38030000000003 110.2696  5.38030000000003 110.2696  C 5.38030000000003 110.2696  5.6087 108.9763  5.6087 108.9763  C 5.6087 108.9763  6.3759 108.8153  6.3759 108.8153  C 6.3759 108.8153  6.34649999999999 107.3075  6.34649999999999 107.3075  C 6.34649999999999 107.3075  7.26599999999996 105.9876  7.26599999999996 105.9876  C 7.26599999999996 105.9876  7.04930000000002 104.1206  7.04930000000002 104.1206  C 7.04930000000002 104.1206  7.90430000000003 102.9083  7.90430000000003 102.9083  C 7.90430000000003 102.9083  7.64660000000003 101.8195  7.64660000000003 101.8195  C 7.64660000000003 101.8195  8.92330000000004 101.4924  8.92330000000004 101.4924  C 8.92330000000004 101.4924  11.0666 100.1462  11.0666 100.1462  C 11.0666 100.1462  11.008 98.4195  11.008 98.4195  C 11.008 98.4195  10.5512 97.4329  10.5512 97.4329  C 10.5512 97.4329  10.8089 95.5082  10.8089 95.5082  C 10.8089 95.5082  10.4517 95.1437  10.4517 95.1437  C 10.4517 95.1437  10.481 92.8816  10.481 92.8816  C 10.481 92.8816  8.99360000000001 91.2899  8.99360000000001 91.2899  C 8.99360000000001 91.2899  8.35519999999997 89.8323  8.35519999999997 89.8323  C 8.35519999999997 89.8323  9.21019999999999 88.9696  9.21019999999999 88.9696  C 9.21019999999999 88.9696  9.86609999999996 86.189  9.86609999999996 86.189  C 9.86609999999996 86.189  10.7211 85.2944  10.7211 85.2944  C 10.7211 85.2944  10.2292 84.1053  10.2292 84.1053  C 10.2292 84.1053  10.5747 83.4893  10.5747 83.4893  C 10.5747 83.4893  11.0666 83.9981  11.0666 83.9981  C 11.0666 83.9981  11.8337 83.5322  11.8337 83.5322  C 11.8337 83.5322  12.6126 82.3003  12.6126 82.3003  C 12.6126 82.3003  13.2157 82.1985  13.2157 82.1985  C 13.2157 82.1985  13.1162 83.4625  13.1162 83.4625  C 13.1162 83.4625  13.3973 84.2016  13.3973 84.2016  C 13.3973 84.2016  14.2054000000001 84.3248  14.2054000000001 84.3248  C 14.2054000000001 84.3248  14.668 83.7035  14.668 83.7035  C 14.668 83.7035  15.2771 86.0711  15.2771 86.0711  C 15.2771 86.0711  15.6461 86.6925  15.6461 86.6925  C 15.6461 86.6925  16.8992 86.7515  16.8992 86.7515  C 16.8992 86.7515  17.4965 85.6961  17.4965 85.6961  C 17.4965 85.6961  17.1276 84.298  17.1276 84.298  C 17.1276 84.298  16.3371 83.6553  16.3371 83.6553  C 16.3371 83.6553  16.3137 82.8144  16.3137 82.8144  C 16.3137 82.8144  15.3943 82.4824  15.3943 82.4824  C 15.3943 82.4824  16.2317 82.1825  16.2317 82.1825  C 16.2317 82.1825  15.1776 78.8745  15.1776 78.8745  C 15.1776 78.8745  15.4294 77.9  15.4294 77.9  C 15.4294 77.9  14.914 76.6741  14.914 76.6741  C 14.914 76.6741  15.7983 76.3528  15.7983 76.3528  C 15.7983 76.3528  16.2141 77.1719  16.2141 77.1719  C 16.2141 77.1719  18.0998 78.4408  18.0998 78.4408  C 18.0998 78.4408  17.602 77.4878  17.602 77.4878  C 17.602 77.4878  17.5493 76.1441  17.5493 76.1441  C 17.5493 76.1441  18.5507 75.5606  18.5507 75.5606  C 18.5507 75.5606  19.0484 74.7629  19.0484 74.7629  C 19.0484 74.7629  19.5404 75.325  19.5404 75.325  C 19.5404 75.325  20.0967000000001 74.9771  20.0967000000001 74.9771  C 20.0967000000001 74.9771  20.2372 72.6434  20.2372 72.6434  C 20.2372 72.6434  20.0498 71.7657  20.0498 71.7657  C 20.0498 71.7657  20.5886 71.1021  20.5886 71.1021  C 20.5886 71.1021  21.5783 71.0379  21.5783 71.0379  C 21.5783 71.0379  21.6837 69.7751  21.6837 69.7751  C 21.6837 69.7751  20.5008 68.2663  20.5008 68.2663  C 20.5008 68.2663  20.817 67.5067  20.817 67.5067  C 20.817 67.5067  20.5769 66.2067  20.5769 66.2067  C 20.5769 66.2067  19.8156 65.7038  19.8156 65.7038  C 19.8156 65.7038  20.1201 64.2062  20.1201 64.2062  C 20.1201 64.2062  19.4992999999999 63.896  19.4992999999999 63.896  C 19.4992999999999 63.896  19.2592 62.2649  19.2592 62.2649  C 19.2592 62.2649  18.6678000000001 61.821  18.6678000000001 61.821  C 18.6678000000001 61.821  18.5273 59.1155  18.5273 59.1155  C 18.5273 59.1155  19.066 56.4373  19.066 56.4373  C 19.066 56.4373  20.4481 55.4592  20.4481 55.4592  C 20.4481 55.4592  21.0454 53.8825  21.0454 53.8825  C 21.0454 53.8825  20.9166 52.7176  20.9166 52.7176  C 20.9166 52.7176  20.2782 52.1939  20.2782 52.1939  C 20.2782 52.1939  20.4305000000001 50.778  20.4305000000001 50.778  C 20.4305000000001 50.778  21.4319 49.875  21.4319 49.875  C 21.4319 49.875  21.7481 48.9456  21.7481 48.9456  C 21.7481 48.9456  20.4246000000001 48.812  20.4246000000001 48.812  C 20.4246000000001 48.812  20.4832 47.8024  20.4832 47.8024  C 20.4832 47.8024  20.0381 47.0439  20.0381 47.0439  C 20.0381 47.0439  19.2534000000001 47.1828  19.2534000000001 47.1828  C 19.2534000000001 47.1828  18.5741 47.9573  18.5741 47.9573  C 18.5741 47.9573  18.7732 46.4296  18.7732 46.4296  C 18.7732 46.4296  17.5961 46.6433  17.5961 46.6433  C 17.5961 46.6433  16.9403 45.6926  16.9403 45.6926  C 16.9403 45.6926  15.8569 45.3455  15.8569 45.3455  C 15.8569 45.3455  15.0546000000001 45.5377  15.0546000000001 45.5377  C 15.0546000000001 45.5377  14.1235 45.0464  14.1235 45.0464  C 14.1235 45.0464  13.6433 43.1774  13.6433 43.1774  C 13.6433 43.1774  13.9829 42.5153  13.9829 42.5153  C 13.9829 42.5153  13.5436999999999 40.6146  13.5436999999999 40.6146  C 13.5436999999999 40.6146  13.7252999999999 39.958  13.7252999999999 39.958  C 13.7252999999999 39.958  13.3563 38.4526  13.3563 38.4526  C 13.3563 38.4526  14.6564 38.5167  14.6564 38.5167  C 14.6564 38.5167  14.1527 37.7961  14.1527 37.7961  C 14.1527 37.7961  15.6988 37.0809  15.6988 37.0809  C 15.6988 37.0809  15.1015 34.5033  15.1015 34.5033  C 15.1015 34.5033  16.2199000000001 32.7906  16.2199000000001 32.7906  C 16.2199000000001 32.7906  16.2258 31.7502  16.2258 31.7502  C 16.2258 31.7502  16.8583 31.1421  16.8583 31.1421  C 16.8583 31.1421  19.1831 30.2726  19.1831 30.2726  C 19.1831 30.2726  19.8097 31.3981  19.8097 31.3981  C 19.8097 31.3981  20.044 32.6893  20.044 32.6893  C 20.044 32.6893  20.6121000000001 33.1054  20.6121000000001 33.1054  C 20.6121000000001 33.1054  21.836 33.1054  21.836 33.1054  C 21.836 33.1054  22.9426999999999 31.9904  22.9426999999999 31.9904  C 22.9426999999999 31.9904  24.5005 32.6412  24.5005 32.6412  C 24.5005 32.6412  24.9982 33.4149  24.9982 33.4149  C 24.9982 33.4149  26.0699 33.1534  26.0699 33.1534  C 26.0699 33.1534  26.9073 33.9645  26.9073 33.9645  C 26.9073 33.9645  27.7565 34.1725  27.7565 34.1725  C 27.7565 34.1725  28.7872 36.147  28.7872 36.147  C 28.7872 36.147  28.9336 37.6466  28.9336 37.6466  C 28.9336 37.6466  28.2601 38.2338  28.2601 38.2338  C 28.2601 38.2338  28.8574 40.0541  28.8574 40.0541  C 28.8574 40.0541  30.5732 40.2729  30.5732 40.2729  C 30.5732 40.2729  31.2936 40.7961  31.2936 40.7961  C 31.2936 40.7961  33.2788 40.3957  33.2788 40.3957  C 33.2788 40.3957  34.4617 39.7284  34.4617 39.7284  C 34.4617 39.7284  36.4235 37.9883  36.4235 37.9883  C 36.4235 37.9883  38.0281 38.4312  38.0281 38.4312  C 38.0281 38.4312  40.9327 38.4526  40.9327 38.4526  C 40.9327 38.4526  41.3016 37.716  41.3016 37.716  C 41.3016 37.716  40.6926 37.0756  40.6926 37.0756  C 40.6926 37.0756  40.6926 36.2804  40.6926 36.2804  C 40.6926 36.2804  38.9416 34.3273  38.9416 34.3273  C 38.9416 34.3273  37.3194999999999 31.6382  37.3194999999999 31.6382  C 37.3194999999999 31.6382  36.5465 31.1741  36.5465 31.1741  C 36.5465 31.1741  36.7573 30.0805  36.7573 30.0805  C 36.7573 30.0805  36.0487000000001 28.219  36.0487000000001 28.219  C 36.0487000000001 28.219  34.6432 27.7124  34.6432 27.7124  C 34.6432 27.7124  36.0018 26.7791  36.0018 26.7791  C 36.0018 26.7791  37.4308 27.019  37.4308 27.019  C 37.4308 27.019  37.3896999999999 26.2885  37.3896999999999 26.2885  C 37.3896999999999 26.2885  37.9929 25.9045  37.9929 25.9045  C 37.9929 25.9045  38.1745 24.7101  38.1745 24.7101  C 38.1745 24.7101  37.6532999999999 23.8891  37.6532999999999 23.8891  C 37.6532999999999 23.8891  37.1789 24.289  37.1789 24.289  C 37.1789 24.289  36.1014 24.257  36.1014 24.257  C 36.1014 24.257  35.2055 23.4572  35.2055 23.4572  C 35.2055 23.4572  35.3928 21.7885  35.3928 21.7885  C 35.3928 21.7885  34.3036 20.7811  34.3036 20.7811  C 34.3036 20.7811  34.2859999999999 19.3793  34.2859999999999 19.3793  C 34.2859999999999 19.3793  34.9185 18.015  34.9185 18.015  C 34.9185 18.015  35.7793 16.88  35.7793 16.88  C 35.7793 16.88  34.9185 14.9085  34.9185 14.9085  C 34.9185 14.9085  35.5861 13.8163  35.5861 13.8163  C 35.5861 13.8163  35.4865 12.8468  35.4865 12.8468  C 35.4865 12.8468  35.9785000000001 12.2609  35.9785000000001 12.2609  C 35.9785000000001 12.2609  36.0955 10.7002  36.0955 10.7002  C 36.0955 10.7002  36.9388 10.338  36.9388 10.338  C 36.9388 10.338  36.4586 9.57640000000001  36.4586 9.57640000000001  C 36.4586 9.57640000000001  36.8803 8.6658  36.8803 8.6658  C 36.8803 8.6658  36.2302 7.86709999999999  36.2302 7.86709999999999  C 36.2302 7.86709999999999  37.3077 8.3091  37.3077 8.3091  C 37.3077 8.3091  38.1159 7.883  38.1159 7.883  C 38.1159 7.883  37.952 6.8181  37.952 6.8181  C 37.952 6.8181  38.2682 4.8163  38.2682 4.8163  C 38.2682 4.8163  39.0646 3.395  39.0646 3.395  C 39.0646 3.395  39.9781 3.25660000000001  39.9781 3.25660000000001  C 39.9781 3.25660000000001  41.4186999999999 4.05500000000001  41.4186999999999 4.05500000000001  C 41.4186999999999 4.05500000000001  41.8521 4.9281  41.8521 4.9281  C 41.8521 4.9281  42.5724 5.0665  42.5724 5.0665  C 42.5724 5.0665  42.508 6.52  42.508 6.52  C 42.508 6.52  42.139 7.6754  42.139 7.6754  C 42.139 7.6754  43.0467 7.28140000000001  43.0467 7.28140000000001  C 43.0467 7.28140000000001  44.7098 7.0365  44.7098 7.0365  C 44.7098 7.0365  45.7406 6.11  45.7406 6.11  C 45.7406 6.11  45.5122 5.31140000000001  45.5122 5.31140000000001  C 45.5122 5.31140000000001  44.0891 4.2094  44.0891 4.2094  C 44.0891 4.2094  43.8315 1.65989999999999  43.8315 1.65989999999999  C 43.8315 1.65989999999999  43.5562 0.771000000000001  43.5562 0.771000000000001  C 43.5562 0.771000000000001  44.9969 0.308099999999996  44.9969 0.308099999999996  C 44.9969 0.308099999999996  45.846 1.7184  45.846 1.7184  C 45.846 1.7184  49.3772 2.20269999999999  49.3772 2.20269999999999  C 49.3772 2.20269999999999  49.9979 2.7456  49.9979 2.7456  C 49.9979 2.7456  51.0637 2.4635  51.0637 2.4635  C 51.0637 2.4635  51.7430000000001 4.12430000000001  51.7430000000001 4.12430000000001  C 51.7430000000001 4.12430000000001  53.0783 4.449  53.0783 4.449  C 53.0783 4.449  54.0094 3.5068  54.0094 3.5068  C 54.0094 3.5068  54.6301 3.86879999999999  54.6301 3.86879999999999  C 54.6301 3.86879999999999  55.7721 5.42319999999999  55.7721 5.42319999999999  C 55.7721 5.42319999999999  56.1994999999999 6.97790000000001  56.1994999999999 6.97790000000001  C 56.1994999999999 6.97790000000001  56.7910000000001 7.9576  56.7910000000001 7.9576  C 56.7910000000001 7.9576  57.6401 8.1759  57.6401 8.1759  C 57.6401 8.1759  58.1086 9.18770000000001  58.1086 9.18770000000001  C 58.1086 9.18770000000001  59.2037 8.82550000000001  59.2037 8.82550000000001  C 59.2037 8.82550000000001  59.7659 10.386  59.7659 10.386  C 59.7659 10.386  60.0938 9.26220000000001  60.0938 9.26220000000001  C 60.0938 9.26220000000001  61.7101 9.0386  61.7101 9.0386  C 61.7101 9.0386  64.5079 9.7256  64.5079 9.7256  C 64.5079 9.7256  65.5562 9.5232  65.5562 9.5232  C 65.5562 9.5232  67.6761 6.62649999999999  67.6761 6.62649999999999  C 67.6761 6.62649999999999  68.4959 6.4188  68.4959 6.4188  C 68.4959 6.4188  69.1987 8.3676  69.1987 8.3676  C 69.1987 8.3676  69.96 8.7298  69.96 8.7298  C 69.96 8.7298  70.692 9.9333  70.692 9.9333  C 70.692 9.9333  70.7447 11.137  70.7447 11.137  C 70.7447 11.137  71.3655 11.6269  71.3655 11.6269  C 71.3655 11.6269  72.1033 11.1796  72.1033 11.1796  C 72.1033 11.1796  72.9525 11.4352  72.9525 11.4352  C 72.9525 11.4352  73.0169 11.9572  73.0169 11.9572  C 73.0169 11.9572  72.1033 12.9267  72.1033 12.9267  C 72.1033 12.9267  71.6523999999999 14.2106  71.6523999999999 14.2106  C 71.6523999999999 14.2106  73.0462 14.9511  73.0462 14.9511  C 73.0462 14.9511  74.0885 14.2905  74.0885 14.2905  C 74.0885 14.2905  76.1088999999999 14.2532  76.1088999999999 14.2532  C 76.1088999999999 14.2532  76.7648 13.9815  76.7648 13.9815  C 76.7648 13.9815  78.1585 12.426  78.1585 12.426  C 78.1585 12.426  79.2361 11.5631  79.2361 11.5631  C 79.2361 11.5631  80.2667 11.3127  80.2667 11.3127  C 80.2667 11.3127  80.6708 9.33150000000001  80.6708 9.33150000000001  C 80.6708 9.33150000000001  80.5712 8.50069999999999  80.5712 8.50069999999999  C 80.5712 8.50069999999999  81.4906 7.1589  81.4906 7.1589  C 81.4906 7.1589  82.4686 7.30800000000001  82.4686 7.30800000000001  C 82.4686 7.30800000000001  82.8259 6.38160000000001  82.8259 6.38160000000001  C 82.8259 6.38160000000001  84.0087 6.3443  84.0087 6.3443  C 84.0087 6.3443  83.9443 8.4794  83.9443 8.4794  C 83.9443 8.4794  84.9692 8.8522  84.9692 8.8522  C 84.9692 8.8522  85.7714 10.1357  85.7714 10.1357  C 85.7714 10.1357  82.7204 12.0531  82.7204 12.0531  C 82.7204 12.0531  82.492 13.5446  82.492 13.5446  C 82.492 13.5446  83.5989 15.2601  83.5989 15.2601  C 83.5989 15.2601  84.3835 14.8872  84.3835 14.8872  C 84.3835 14.8872  84.9575 16.5389  84.9575 16.5389  C 84.9575 16.5389  85.871 17.61  85.871 17.61  C 85.871 17.61  85.5841 18.7132  85.5841 18.7132  C 85.5841 18.7132  85.7246 20.0775  85.7246 20.0775  C 85.7246 20.0775  87.2648 21.0423  87.2648 21.0423  C 87.2648 21.0423  87.9324 22.9934  87.9324 22.9934  C 87.9324 22.9934  88.6819 23.068  88.6819 23.068  C 88.6819 23.068  89.736 22.4975  89.736 22.4975  C 89.736 22.4975  91.0536 22.5722  91.0536 22.5722  C 91.0536 22.5722  92.1663 24.6355  92.1663 24.6355  C 92.1663 24.6355  92.4298 27.8243  92.4298 27.8243  C 92.4298 27.8243  93.4019 29.4031  93.4019 29.4031  C 93.4019 29.4031  93.0799 30.0646  93.0799 30.0646  C 93.0799 30.0646  92.8515 33.0681  92.8515 33.0681  C 92.8515 33.0681  94.3506 34.1512  94.3506 34.1512  C 94.3506 34.1512  96.1251 33.3241  96.1251 33.3241  C 96.1251 33.3241  97.4367999999999 32.4384  97.4367999999999 32.4384  C 97.4367999999999 32.4384  97.5656 31.7022  97.5656 31.7022  C 97.5656 31.7022  98.6549 30.9127  98.6549 30.9127  C 98.6549 30.9127  99.4221 29.1471  99.4221 29.1471  C 99.4221 29.1471  101.5361 30.438  101.5361 30.438  C 101.5361 30.438  102.1451 30.5713  102.1451 30.5713  C 102.1451 30.5713  102.3794 29.7925  102.3794 29.7925  C 102.3794 29.7925  103.5857 29.4191  103.5857 29.4191  C 103.5857 29.4191  104.8155 28.6831  104.8155 28.6831  C 104.8155 28.6831  106.5782 28.5924  106.5782 28.5924  C 106.5782 28.5924  107.3688 28.9764  107.3688 28.9764  C 107.3688 28.9764  107.8899 28.0217  107.8899 28.0217  C 107.8899 28.0217  110.5369 27.8724  110.5369 27.8724  C 110.5369 27.8724  111.4446 29.0991  111.4446 29.0991  C 111.4446 29.0991  113.26 26.5498  113.26 26.5498  C 113.26 26.5498  115.0695 26.6778  115.0695 26.6778  C 115.0695 26.6778  116.1471 29.0938  116.1471 29.0938  C 116.1471 29.0938  115.8893 30.0805  115.8893 30.0805  C 115.8893 30.0805  114.8646 30.87  114.8646 30.87  C 114.8646 30.87  114.8879 32.2091  114.8879 32.2091  C 114.8879 32.2091  114.0213 33.1534  114.0213 33.1534  C 114.0213 33.1534  113.5704 34.3433  113.5704 34.3433  C 113.5704 34.3433  112.0068 36.3925  112.0068 36.3925  C 112.0068 36.3925  112.5162 38.3032  112.5162 38.3032  C 112.5162 38.3032  111.714 38.9864  111.714 38.9864  C 111.714 38.9864  111.7901 40.0914  111.7901 40.0914  C 111.7901 40.0914  112.8618 41.3033  112.8618 41.3033  C 112.8618 41.3033  113.5294 41.4047  113.5294 41.4047  C 113.5294 41.4047  113.6992 42.9745  113.6992 42.9745  C 113.6992 42.9745  114.7298 44.6352  114.7298 44.6352  C 114.7298 44.6352  116.2583 45.8208  116.2583 45.8208  C 116.2583 45.8208  116.0651 46.4937  116.0651 46.4937  C 116.0651 46.4937  117.4412 45.2386  117.4412 45.2386  C 117.4412 45.2386  118.7472 46.9744  118.7472 46.9744  C 118.7472 46.9744  119.6197 48.6891  119.6197 48.6891  C 119.6197 48.6891  119.0575 49.6186  119.0575 49.6186  C 119.0575 49.6186  118.144 49.5919  118.144 49.5919  C 118.144 49.5919  117.9507 50.6926  117.9507 50.6926  C 117.9507 50.6926  118.6593 52.2901  118.6593 52.2901  C 118.6593 52.2901  119.2157 52.6053  119.2157 52.6053  C 119.2157 52.6053  119.8306 54.0322  119.8306 54.0322  C 119.8306 54.0322  120.2815 54.2941  120.2815 54.2941  C 120.2815 54.2941  120.5743 55.9349  120.5743 55.9349  C 120.5743 55.9349  121.4878 55.4164  121.4878 55.4164  C 121.4878 55.4164  122.9167 58.0998  122.9167 58.0998  C 122.9167 58.0998  122.3838 59.0995  122.3838 59.0995  C 122.3838 59.0995  122.3194 60.0512  122.3194 60.0512  C 122.3194 60.0512  123.2446 60.9655  123.2446 60.9655  C 123.2446 60.9655  123.3266 62.2435  123.3266 62.2435  C 123.3266 62.2435  124.1114 63.0831  124.1114 63.0831  C 124.1114 63.0831  123.6077 64.0512  123.6077 64.0512  C 123.6077 64.0512  123.7073 66.4688  123.7073 66.4688  C 123.7073 66.4688  124.0059 66.9128  124.0059 66.9128  C 124.0059 66.9128  125.3586 66.7737  125.3586 66.7737  C 125.3586 66.7737  125.6281 67.8116  125.6281 67.8116  C 125.6281 67.8116  125.306 70.3263  125.306 70.3263  C 125.306 70.3263  125.6105 71.3751  125.6105 71.3751  C 125.6105 71.3751  125.1654 73.1411  125.1654 73.1411  C 125.1654 73.1411  123.9239 72.0654  123.9239 72.0654  C 123.9239 72.0654  122.3545 73.4944  122.3545 73.4944  C 122.3545 73.4944  122.9636 75.1215  122.9636 75.1215  C 122.9636 75.1215  122.6415 75.7371  122.6415 75.7371  C 122.6415 75.7371  121.4175 76.053  121.4175 76.053  C 121.4175 76.053  121.3824 77.2789  121.3824 77.2789  C 121.3824 77.2789  120.9783 78.6871  120.9783 78.6871  C 120.9783 78.6871  120.0999 79.1048  120.0999 79.1048  C 120.0999 79.1048  119.5202 77.7234  119.5202 77.7234  C 119.5202 77.7234  118.63 77.1719  118.63 77.1719  C 118.63 77.1719  117.7282 78.1196  117.7282 78.1196  C 117.7282 78.1196  117.4061 79.2922  117.4061 79.2922  C 117.4061 79.2922  115.7078 78.5479  115.7078 78.5479  C 115.7078 78.5479  114.7357 79.7848  114.7357 79.7848  C 114.7357 79.7848  114.1911 79.7795  114.1911 79.7795  C 114.1911 79.7795  113.4649 81.7755  113.4649 81.7755  C 113.4649 81.7755  112.405 84.1481  112.405 84.1481  C 112.405 84.1481  112.4109 85.8301  112.4109 85.8301  C 112.4109 85.8301  112.8501 87.2068  112.8501 87.2068  C 112.8501 87.2068  112.4929 89.1786  112.4929 89.1786  C 112.4929 89.1786  111.7257 88.4177  111.7257 88.4177  C 111.7257 88.4177  110.7009 90.4699  110.7009 90.4699  C 110.7009 90.4699  109.9806 91.322  109.9806 91.322  C 109.9806 91.322  108.294 90.4218  108.294 90.4218  C 108.294 90.4218  107.3453 91.6811  107.3453 91.6811  C 107.3453 91.6811  107.9953 93.3748  107.9953 93.3748  C 107.9953 93.3748  108.007 94.8327  108.007 94.8327  C 108.007 94.8327  107.1169 96.5214  107.1169 96.5214  C 107.1169 96.5214  106.6016 96.2373  106.6016 96.2373  C 106.6016 96.2373  106.9881 97.6099  106.9881 97.6099  C 106.9881 97.6099  106.4142 98.7144  106.4142 98.7144  C 106.4142 98.7144  106.1682 97.8457  106.1682 97.8457  C 106.1682 97.8457  104.1069 97.9476  104.1069 97.9476  C 104.1069 97.9476  103.2812 97.3525  103.2812 97.3525  C 103.2812 97.3525  102.8361 97.8457  102.8361 97.8457  C 102.8361 97.8457  102.5433 99.9585  102.5433 99.9585  C 102.5433 99.9585  101.8816 99.4652  101.8816 99.4652  C 101.8816 99.4652  100.5171 99.996  100.5171 99.996  C 100.5171 99.996  100.3356 100.7415  100.3356 100.7415  C 100.3356 100.7415  101.659 101.8785  101.659 101.8785  C 101.659 101.8785  101.4892 102.1573  101.4892 102.1573  C 101.4892 102.1573  100.0135 101.8463  100.0135 101.8463  C 100.0135 101.8463  100.3297 102.7421  100.3297 102.7421  C 100.3297 102.7421  100.0135 103.9704  100.0135 103.9704  C 100.0135 103.9704  100.0544 105.8749  100.0544 105.8749  C 100.0544 105.8749  98.9653 106.8782  98.9653 106.8782  C 98.9653 106.8782  97.7882 106.0412  97.7882 106.0412  C 97.7882 106.0412  96.4822 106.2343  96.4822 106.2343  C 96.4822 106.2343  96.5349 107.0714  96.5349 107.0714  C 96.5349 107.0714  94.825 108.3377  94.825 108.3377  C 94.825 108.3377  94.7547 108.8367  94.7547 108.8367  C 94.7547 108.8367  93.7533 108.7939  93.7533 108.7939  C 93.7533 108.7939  93.1502 110.3662  93.1502 110.3662  C 93.1502 110.3662  91.8208 110.1087  91.8208 110.1087  C 91.8208 110.1087  91.973 111.2035  91.973 111.2035  C 91.973 111.2035  93.3199 112.4756  93.3199 112.4756  C 93.3199 112.4756  94.0285 113.8606  94.0285 113.8606  C 94.0285 113.8606  93.4547 114.7732  93.4547 114.7732  C 93.4547 114.7732  92.8046000000001 114.333  92.8046000000001 114.333  C 92.8046000000001 114.333  93.074 115.5464  93.074 115.5464  C 93.074 115.5464  92.8398 116.2658  92.8398 116.2658  C 92.8398 116.2658  93.3316 116.8887  93.3316 116.8887  C 93.3316 116.8887  92.5059 117.8123  92.5059 117.8123  C 92.5059 117.8123  92.4122 120.8628  92.4122 120.8628  C 92.4122 120.8628  91.7564 122.0016  91.7564 122.0016  C 91.7564 122.0016  90.919 122.0983  90.919 122.0983  C 90.919 122.0983  89.3729 121.7222  89.3729 121.7222  C 89.3729 121.7222  88.3715 120.315  88.3715 120.315  C 88.3715 120.315  87.417 119.853  87.417 119.853  C 87.417 119.853  87.1769 119.1656  87.1769 119.1656  C 87.1769 119.1656  85.7012 119.418  85.7012 119.418  C 85.7012 119.418  84.6354 120.2935  84.6354 120.2935  C 84.6354 120.2935  84.5592 121.0078  84.5592 121.0078  C 84.5592 121.0078  82.9488 123.5433  82.9488 123.5433  C 82.9488 123.5433  82.3691 123.2478  82.3691 123.2478  Z " fill-rule="evenodd" />
    </mask>
  </defs>
  <g transform="matrix(1 0 0 1 -608 -159 )">
    <path d="M 82.3691 123.2478  C 82.3691 123.2478  82.0001 123.9838  82.0001 123.9838  C 82.0001 123.9838  80.9519 122.9631  80.9519 122.9631  C 80.9519 122.9631  80.6005 122.0553  80.6005 122.0553  C 80.6005 122.0553  79.7279 121.3569  79.7279 121.3569  C 79.7279 121.3569  79.4761999999999 119.8154  79.4761999999999 119.8154  C 79.4761999999999 119.8154  78.2991 119.6544  78.2991 119.6544  C 78.2991 119.6544  77.2742 120.2344  77.2742 120.2344  C 77.2742 120.2344  76.4544 121.3248  76.4544 121.3248  C 76.4544 121.3248  75.8864 120.9111  75.8864 120.9111  C 75.8864 120.9111  74.5688 121.5127  74.5688 121.5127  C 74.5688 121.5127  74.598 122.6193  74.598 122.6193  C 74.598 122.6193  71.6583000000001 125.4989  71.6583000000001 125.4989  C 71.6583000000001 125.4989  71.951 124.5372  71.951 124.5372  C 71.951 124.5372  71.2424 124.4137  71.2424 124.4137  C 71.2424 124.4137  70.2059 125.4183  70.2059 125.4183  C 70.2059 125.4183  70.2234999999999 127.0894  70.2234999999999 127.0894  C 70.2234999999999 127.0894  68.8122 128.7984  68.8122 128.7984  C 68.8122 128.7984  67.682 128.8253  67.682 128.8253  C 67.682 128.8253  67.8284 129.954  67.8284 129.954  C 67.8284 129.954  67.4184 131.7009  67.4184 131.7009  C 67.4184 131.7009  68.1622 132.2062  68.1622 132.2062  C 68.1622 132.2062  68.4666999999999 133.3244  68.4666999999999 133.3244  C 68.4666999999999 133.3244  67.5941 133.7546  67.5941 133.7546  C 67.5941 133.7546  67.436 134.6632  67.436 134.6632  C 67.436 134.6632  66.4873 135.8999  66.4873 135.8999  C 66.4873 135.8999  65.3570999999999 135.8837  65.3570999999999 135.8837  C 65.3570999999999 135.8837  64.0453 135.0718  64.0453 135.0718  C 64.0453 135.0718  61.8097 135.4106  61.8097 135.4106  C 61.8097 135.4106  60.9547 134.6471  60.9547 134.6471  C 60.9547 134.6471  60.3925 135.2385  60.3925 135.2385  C 60.3925 135.2385  59.5083 134.8461  59.5083 134.8461  C 59.5083 134.8461  58.5186 133.8406  58.5186 133.8406  C 58.5186 133.8406  58.378 133.1793  58.378 133.1793  C 58.378 133.1793  57.1599 132.8137  57.1599 132.8137  C 57.1599 132.8137  57.1072 133.5126  57.1072 133.5126  C 57.1072 133.5126  55.854 132.6309  55.854 132.6309  C 55.854 132.6309  54.4662 132.9858  54.4662 132.9858  C 54.4662 132.9858  53.7049 132.0127  53.7049 132.0127  C 53.7049 132.0127  54.1792 131.2279  54.1792 131.2279  C 54.1792 131.2279  53.3476000000001 129.8465  53.3476000000001 129.8465  C 53.3476000000001 129.8465  51.7606 129.696  51.7606 129.696  C 51.7606 129.696  50.73 131.0075  50.73 131.0075  C 50.73 131.0075  49.6817 131.8461  49.6817 131.8461  C 49.6817 131.8461  49.3655 132.9374  49.3655 132.9374  C 49.3655 132.9374  47.0113 134.6686  47.0113 134.6686  C 47.0113 134.6686  46.3261 134.3944  46.3261 134.3944  C 46.3261 134.3944  45.0377999999999 135.4913  45.0377999999999 135.4913  C 45.0377999999999 135.4913  44.9149 134.9052  44.9149 134.9052  C 44.9149 134.9052  43.3806 134.0771  43.3806 134.0771  C 43.3806 134.0771  42.426 132.846  42.426 132.846  C 42.426 132.846  42.1742 131.674  42.1742 131.674  C 42.1742 131.674  40.2065 131.3353  40.2065 131.3353  C 40.2065 131.3353  38.9709 132.9912  38.9709 132.9912  C 38.9709 132.9912  37.5655 135.959  37.5655 135.959  C 37.5655 135.959  38.1921 136.8571  38.1921 136.8571  C 38.1921 136.8571  38.1569 137.6638  38.1569 137.6638  C 38.1569 137.6638  37.4191 137.8305  37.4191 137.8305  C 37.4191 137.8305  38.5024 139.6806  38.5024 139.6806  C 38.5024 139.6806  37.7236 141.9023  37.7236 141.9023  C 37.7236 141.9023  38.1686 142.209  38.1686 142.209  C 38.1686 142.209  37.665 143.3334  37.665 143.3334  C 37.665 143.3334  36.6753 143.7261  36.6753 143.7261  C 36.6753 143.7261  37.0501 145.109  37.0501 145.109  C 37.0501 145.109  36.5055 145.9484  36.5055 145.9484  C 36.5055 145.9484  35.7325 145.2166  35.7325 145.2166  C 35.7325 145.2166  34.4851 145.3942  34.4851 145.3942  C 34.4851 145.3942  33.8644 144.926  33.8644 144.926  C 33.8644 144.926  32.7048 145.0821  32.7048 145.0821  C 32.7048 145.0821  32.4999 146.0722  32.4999 146.0722  C 32.4999 146.0722  31.6917999999999 146.2336  31.6917999999999 146.2336  C 31.6917999999999 146.2336  30.9773 145.7817  30.9773 145.7817  C 30.9773 145.7817  30.0696 144.2534  30.0696 144.2534  C 30.0696 144.2534  29.5133 142.6233  29.5133 142.6233  C 29.5133 142.6233  28.9569 141.8646  28.9569 141.8646  C 28.9569 141.8646  27.6042 142.7953  27.6042 142.7953  C 27.6042 142.7953  26.8253 144.4041  26.8253 144.4041  C 26.8253 144.4041  25.3203 144.7968  25.3203 144.7968  C 25.3203 144.7968  25.496 146.3144  25.496 146.3144  C 25.496 146.3144  25.1154 146.2014  25.1154 146.2014  C 25.1154 146.2014  23.9675999999999 147.0032  23.9675999999999 147.0032  C 23.9675999999999 147.0032  24.0496000000001 148.7524  24.0496000000001 148.7524  C 24.0496000000001 148.7524  23.5108 150.2704  23.5108 150.2704  C 23.5108 150.2704  22.7788 150.5933  22.7788 150.5933  C 22.7788 150.5933  21.8945 150.841  21.8945 150.841  C 21.8945 150.841  22.0351000000001 151.3093  22.0351000000001 151.3093  C 22.0351000000001 151.3093  20.9049 152.9567  20.9049 152.9567  C 20.9049 152.9567  19.3178 154.3944  19.3178 154.3944  C 19.3178 154.3944  17.9417 154.1521  17.9417 154.1521  C 17.9417 154.1521  16.7236 154.9868  16.7236 154.9868  C 16.7236 154.9868  16.6767 155.676  16.6767 155.676  C 16.6767 155.676  16.0442 155.6222  16.0442 155.6222  C 16.0442 155.6222  15.2361 156.78  15.2361 156.78  C 15.2361 156.78  15.6812 157.184  15.6812 157.184  C 15.6812 157.184  15.3532 157.9218  15.3532 157.9218  C 15.3532 157.9218  15.4645 159.0745  15.4645 159.0745  C 15.4645 159.0745  15.0253 160.0819  15.0253 160.0819  C 15.0253 160.0819  12.7648 160.599  12.7648 160.599  C 12.7648 160.599  11.8806 160.4158  11.8806 160.4158  C 11.8806 160.4158  11.3536 159.5647  11.3536 159.5647  C 11.3536 159.5647  11.5878 157.8895  11.5878 157.8895  C 11.5878 157.8895  11.1544 157.4156  11.1544 157.4156  C 11.1544 157.4156  11.1896 156.0692  11.1896 156.0692  C 11.1896 156.0692  9.71379999999999 154.6906  9.71379999999999 154.6906  C 9.71379999999999 154.6906  10.1061999999999 153.0267  10.1061999999999 153.0267  C 10.1061999999999 153.0267  9.50890000000004 150.8948  9.50890000000004 150.8948  C 9.50890000000004 150.8948  8.99940000000004 150.9432  8.99940000000004 150.9432  C 8.99940000000004 150.9432  9.01689999999996 149.4467  9.01689999999996 149.4467  C 9.01689999999996 149.4467  8.28489999999999 149.3445  8.28489999999999 149.3445  C 8.28489999999999 149.3445  8.40790000000004 148.1388  8.40790000000004 148.1388  C 8.40790000000004 148.1388  9.48540000000003 148.1442  9.48540000000003 148.1442  C 9.48540000000003 148.1442  10.1002999999999 147.6275  10.1002999999999 147.6275  C 10.1002999999999 147.6275  9.48540000000003 146.083  9.48540000000003 146.083  C 9.48540000000003 146.083  9.69619999999998 144.2265  9.69619999999998 144.2265  C 9.69619999999998 144.2265  10.8440000000001 142.026  10.8440000000001 142.026  C 10.8440000000001 142.026  9.80169999999998 141.4343  9.80169999999998 141.4343  C 9.80169999999998 141.4343  9.88369999999998 140.423  9.88369999999998 140.423  C 9.88369999999998 140.423  9.19259999999997 139.4602  9.19259999999997 139.4602  C 9.19259999999997 139.4602  9.39760000000001 137.5186  9.39760000000001 137.5186  C 9.39760000000001 137.5186  9.49710000000005 133.6954  9.49710000000005 133.6954  C 9.49710000000005 133.6954  10.1999 133.147  10.1999 133.147  C 10.1999 133.147  10.7328 131.1312  10.7328 131.1312  C 10.7328 131.1312  11.0196999999999 131.0828  11.0196999999999 131.0828  C 11.0196999999999 131.0828  10.9435999999999 129.3359  10.9435999999999 129.3359  C 10.9435999999999 129.3359  11.3594000000001 127.729  11.3594000000001 127.729  C 11.3594000000001 127.729  11.1251999999999 126.6703  11.1251999999999 126.6703  C 11.1251999999999 126.6703  10.5103 126.3748  10.5103 126.3748  C 10.5103 126.3748  10.3228 127.0088  10.3228 127.0088  C 10.3228 127.0088  8.54259999999999 127.7451  8.54259999999999 127.7451  C 8.54259999999999 127.7451  7.56460000000004 127.0088  7.56460000000004 127.0088  C 7.56460000000004 127.0088  7.89260000000002 126.579  7.89260000000002 126.579  C 7.89260000000002 126.579  7.95699999999999 125.0046  7.95699999999999 125.0046  C 7.95699999999999 125.0046  7.27769999999998 124.8649  7.27769999999998 124.8649  C 7.27769999999998 124.8649  6.1182 123.8334  6.1182 123.8334  C 6.1182 123.8334  5.69659999999999 122.442  5.69659999999999 122.442  C 5.69659999999999 122.442  6.94970000000001 120.3472  6.94970000000001 120.3472  C 6.94970000000001 120.3472  6.02449999999999 119.3804  6.02449999999999 119.3804  C 6.02449999999999 119.3804  4.36720000000003 121.212  4.36720000000003 121.212  C 4.36720000000003 121.212  3.02030000000002 121.8565  3.02030000000002 121.8565  C 3.02030000000002 121.8565  1.33960000000002 121.4805  1.33960000000002 121.4805  C 1.33960000000002 121.4805  0.666200000000003 121.0723  0.666200000000003 121.0723  C 0.666200000000003 121.0723  3.11980000000005 118.9401  3.11980000000005 118.9401  C 3.11980000000005 118.9401  3.82259999999997 117.9304  3.82259999999997 117.9304  C 3.82259999999997 117.9304  3.23109999999997 117.0927  3.23109999999997 117.0927  C 3.23109999999997 117.0927  4.1798 116.7277  4.1798 116.7277  C 4.1798 116.7277  3.16089999999997 115.2779  3.16089999999997 115.2779  C 3.16089999999997 115.2779  3.65859999999998 114.2042  3.65859999999998 114.2042  C 3.65859999999998 114.2042  3.51220000000001 112.8407  3.51220000000001 112.8407  C 3.51220000000001 112.8407  5.19870000000003 111.9603  5.19870000000003 111.9603  C 5.19870000000003 111.9603  4.84739999999999 110.5165  4.84739999999999 110.5165  C 4.84739999999999 110.5165  5.38030000000003 110.2696  5.38030000000003 110.2696  C 5.38030000000003 110.2696  5.6087 108.9763  5.6087 108.9763  C 5.6087 108.9763  6.3759 108.8153  6.3759 108.8153  C 6.3759 108.8153  6.34649999999999 107.3075  6.34649999999999 107.3075  C 6.34649999999999 107.3075  7.26599999999996 105.9876  7.26599999999996 105.9876  C 7.26599999999996 105.9876  7.04930000000002 104.1206  7.04930000000002 104.1206  C 7.04930000000002 104.1206  7.90430000000003 102.9083  7.90430000000003 102.9083  C 7.90430000000003 102.9083  7.64660000000003 101.8195  7.64660000000003 101.8195  C 7.64660000000003 101.8195  8.92330000000004 101.4924  8.92330000000004 101.4924  C 8.92330000000004 101.4924  11.0666 100.1462  11.0666 100.1462  C 11.0666 100.1462  11.008 98.4195  11.008 98.4195  C 11.008 98.4195  10.5512 97.4329  10.5512 97.4329  C 10.5512 97.4329  10.8089 95.5082  10.8089 95.5082  C 10.8089 95.5082  10.4517 95.1437  10.4517 95.1437  C 10.4517 95.1437  10.481 92.8816  10.481 92.8816  C 10.481 92.8816  8.99360000000001 91.2899  8.99360000000001 91.2899  C 8.99360000000001 91.2899  8.35519999999997 89.8323  8.35519999999997 89.8323  C 8.35519999999997 89.8323  9.21019999999999 88.9696  9.21019999999999 88.9696  C 9.21019999999999 88.9696  9.86609999999996 86.189  9.86609999999996 86.189  C 9.86609999999996 86.189  10.7211 85.2944  10.7211 85.2944  C 10.7211 85.2944  10.2292 84.1053  10.2292 84.1053  C 10.2292 84.1053  10.5747 83.4893  10.5747 83.4893  C 10.5747 83.4893  11.0666 83.9981  11.0666 83.9981  C 11.0666 83.9981  11.8337 83.5322  11.8337 83.5322  C 11.8337 83.5322  12.6126 82.3003  12.6126 82.3003  C 12.6126 82.3003  13.2157 82.1985  13.2157 82.1985  C 13.2157 82.1985  13.1162 83.4625  13.1162 83.4625  C 13.1162 83.4625  13.3973 84.2016  13.3973 84.2016  C 13.3973 84.2016  14.2054000000001 84.3248  14.2054000000001 84.3248  C 14.2054000000001 84.3248  14.668 83.7035  14.668 83.7035  C 14.668 83.7035  15.2771 86.0711  15.2771 86.0711  C 15.2771 86.0711  15.6461 86.6925  15.6461 86.6925  C 15.6461 86.6925  16.8992 86.7515  16.8992 86.7515  C 16.8992 86.7515  17.4965 85.6961  17.4965 85.6961  C 17.4965 85.6961  17.1276 84.298  17.1276 84.298  C 17.1276 84.298  16.3371 83.6553  16.3371 83.6553  C 16.3371 83.6553  16.3137 82.8144  16.3137 82.8144  C 16.3137 82.8144  15.3943 82.4824  15.3943 82.4824  C 15.3943 82.4824  16.2317 82.1825  16.2317 82.1825  C 16.2317 82.1825  15.1776 78.8745  15.1776 78.8745  C 15.1776 78.8745  15.4294 77.9  15.4294 77.9  C 15.4294 77.9  14.914 76.6741  14.914 76.6741  C 14.914 76.6741  15.7983 76.3528  15.7983 76.3528  C 15.7983 76.3528  16.2141 77.1719  16.2141 77.1719  C 16.2141 77.1719  18.0998 78.4408  18.0998 78.4408  C 18.0998 78.4408  17.602 77.4878  17.602 77.4878  C 17.602 77.4878  17.5493 76.1441  17.5493 76.1441  C 17.5493 76.1441  18.5507 75.5606  18.5507 75.5606  C 18.5507 75.5606  19.0484 74.7629  19.0484 74.7629  C 19.0484 74.7629  19.5404 75.325  19.5404 75.325  C 19.5404 75.325  20.0967000000001 74.9771  20.0967000000001 74.9771  C 20.0967000000001 74.9771  20.2372 72.6434  20.2372 72.6434  C 20.2372 72.6434  20.0498 71.7657  20.0498 71.7657  C 20.0498 71.7657  20.5886 71.1021  20.5886 71.1021  C 20.5886 71.1021  21.5783 71.0379  21.5783 71.0379  C 21.5783 71.0379  21.6837 69.7751  21.6837 69.7751  C 21.6837 69.7751  20.5008 68.2663  20.5008 68.2663  C 20.5008 68.2663  20.817 67.5067  20.817 67.5067  C 20.817 67.5067  20.5769 66.2067  20.5769 66.2067  C 20.5769 66.2067  19.8156 65.7038  19.8156 65.7038  C 19.8156 65.7038  20.1201 64.2062  20.1201 64.2062  C 20.1201 64.2062  19.4992999999999 63.896  19.4992999999999 63.896  C 19.4992999999999 63.896  19.2592 62.2649  19.2592 62.2649  C 19.2592 62.2649  18.6678000000001 61.821  18.6678000000001 61.821  C 18.6678000000001 61.821  18.5273 59.1155  18.5273 59.1155  C 18.5273 59.1155  19.066 56.4373  19.066 56.4373  C 19.066 56.4373  20.4481 55.4592  20.4481 55.4592  C 20.4481 55.4592  21.0454 53.8825  21.0454 53.8825  C 21.0454 53.8825  20.9166 52.7176  20.9166 52.7176  C 20.9166 52.7176  20.2782 52.1939  20.2782 52.1939  C 20.2782 52.1939  20.4305000000001 50.778  20.4305000000001 50.778  C 20.4305000000001 50.778  21.4319 49.875  21.4319 49.875  C 21.4319 49.875  21.7481 48.9456  21.7481 48.9456  C 21.7481 48.9456  20.4246000000001 48.812  20.4246000000001 48.812  C 20.4246000000001 48.812  20.4832 47.8024  20.4832 47.8024  C 20.4832 47.8024  20.0381 47.0439  20.0381 47.0439  C 20.0381 47.0439  19.2534000000001 47.1828  19.2534000000001 47.1828  C 19.2534000000001 47.1828  18.5741 47.9573  18.5741 47.9573  C 18.5741 47.9573  18.7732 46.4296  18.7732 46.4296  C 18.7732 46.4296  17.5961 46.6433  17.5961 46.6433  C 17.5961 46.6433  16.9403 45.6926  16.9403 45.6926  C 16.9403 45.6926  15.8569 45.3455  15.8569 45.3455  C 15.8569 45.3455  15.0546000000001 45.5377  15.0546000000001 45.5377  C 15.0546000000001 45.5377  14.1235 45.0464  14.1235 45.0464  C 14.1235 45.0464  13.6433 43.1774  13.6433 43.1774  C 13.6433 43.1774  13.9829 42.5153  13.9829 42.5153  C 13.9829 42.5153  13.5436999999999 40.6146  13.5436999999999 40.6146  C 13.5436999999999 40.6146  13.7252999999999 39.958  13.7252999999999 39.958  C 13.7252999999999 39.958  13.3563 38.4526  13.3563 38.4526  C 13.3563 38.4526  14.6564 38.5167  14.6564 38.5167  C 14.6564 38.5167  14.1527 37.7961  14.1527 37.7961  C 14.1527 37.7961  15.6988 37.0809  15.6988 37.0809  C 15.6988 37.0809  15.1015 34.5033  15.1015 34.5033  C 15.1015 34.5033  16.2199000000001 32.7906  16.2199000000001 32.7906  C 16.2199000000001 32.7906  16.2258 31.7502  16.2258 31.7502  C 16.2258 31.7502  16.8583 31.1421  16.8583 31.1421  C 16.8583 31.1421  19.1831 30.2726  19.1831 30.2726  C 19.1831 30.2726  19.8097 31.3981  19.8097 31.3981  C 19.8097 31.3981  20.044 32.6893  20.044 32.6893  C 20.044 32.6893  20.6121000000001 33.1054  20.6121000000001 33.1054  C 20.6121000000001 33.1054  21.836 33.1054  21.836 33.1054  C 21.836 33.1054  22.9426999999999 31.9904  22.9426999999999 31.9904  C 22.9426999999999 31.9904  24.5005 32.6412  24.5005 32.6412  C 24.5005 32.6412  24.9982 33.4149  24.9982 33.4149  C 24.9982 33.4149  26.0699 33.1534  26.0699 33.1534  C 26.0699 33.1534  26.9073 33.9645  26.9073 33.9645  C 26.9073 33.9645  27.7565 34.1725  27.7565 34.1725  C 27.7565 34.1725  28.7872 36.147  28.7872 36.147  C 28.7872 36.147  28.9336 37.6466  28.9336 37.6466  C 28.9336 37.6466  28.2601 38.2338  28.2601 38.2338  C 28.2601 38.2338  28.8574 40.0541  28.8574 40.0541  C 28.8574 40.0541  30.5732 40.2729  30.5732 40.2729  C 30.5732 40.2729  31.2936 40.7961  31.2936 40.7961  C 31.2936 40.7961  33.2788 40.3957  33.2788 40.3957  C 33.2788 40.3957  34.4617 39.7284  34.4617 39.7284  C 34.4617 39.7284  36.4235 37.9883  36.4235 37.9883  C 36.4235 37.9883  38.0281 38.4312  38.0281 38.4312  C 38.0281 38.4312  40.9327 38.4526  40.9327 38.4526  C 40.9327 38.4526  41.3016 37.716  41.3016 37.716  C 41.3016 37.716  40.6926 37.0756  40.6926 37.0756  C 40.6926 37.0756  40.6926 36.2804  40.6926 36.2804  C 40.6926 36.2804  38.9416 34.3273  38.9416 34.3273  C 38.9416 34.3273  37.3194999999999 31.6382  37.3194999999999 31.6382  C 37.3194999999999 31.6382  36.5465 31.1741  36.5465 31.1741  C 36.5465 31.1741  36.7573 30.0805  36.7573 30.0805  C 36.7573 30.0805  36.0487000000001 28.219  36.0487000000001 28.219  C 36.0487000000001 28.219  34.6432 27.7124  34.6432 27.7124  C 34.6432 27.7124  36.0018 26.7791  36.0018 26.7791  C 36.0018 26.7791  37.4308 27.019  37.4308 27.019  C 37.4308 27.019  37.3896999999999 26.2885  37.3896999999999 26.2885  C 37.3896999999999 26.2885  37.9929 25.9045  37.9929 25.9045  C 37.9929 25.9045  38.1745 24.7101  38.1745 24.7101  C 38.1745 24.7101  37.6532999999999 23.8891  37.6532999999999 23.8891  C 37.6532999999999 23.8891  37.1789 24.289  37.1789 24.289  C 37.1789 24.289  36.1014 24.257  36.1014 24.257  C 36.1014 24.257  35.2055 23.4572  35.2055 23.4572  C 35.2055 23.4572  35.3928 21.7885  35.3928 21.7885  C 35.3928 21.7885  34.3036 20.7811  34.3036 20.7811  C 34.3036 20.7811  34.2859999999999 19.3793  34.2859999999999 19.3793  C 34.2859999999999 19.3793  34.9185 18.015  34.9185 18.015  C 34.9185 18.015  35.7793 16.88  35.7793 16.88  C 35.7793 16.88  34.9185 14.9085  34.9185 14.9085  C 34.9185 14.9085  35.5861 13.8163  35.5861 13.8163  C 35.5861 13.8163  35.4865 12.8468  35.4865 12.8468  C 35.4865 12.8468  35.9785000000001 12.2609  35.9785000000001 12.2609  C 35.9785000000001 12.2609  36.0955 10.7002  36.0955 10.7002  C 36.0955 10.7002  36.9388 10.338  36.9388 10.338  C 36.9388 10.338  36.4586 9.57640000000001  36.4586 9.57640000000001  C 36.4586 9.57640000000001  36.8803 8.6658  36.8803 8.6658  C 36.8803 8.6658  36.2302 7.86709999999999  36.2302 7.86709999999999  C 36.2302 7.86709999999999  37.3077 8.3091  37.3077 8.3091  C 37.3077 8.3091  38.1159 7.883  38.1159 7.883  C 38.1159 7.883  37.952 6.8181  37.952 6.8181  C 37.952 6.8181  38.2682 4.8163  38.2682 4.8163  C 38.2682 4.8163  39.0646 3.395  39.0646 3.395  C 39.0646 3.395  39.9781 3.25660000000001  39.9781 3.25660000000001  C 39.9781 3.25660000000001  41.4186999999999 4.05500000000001  41.4186999999999 4.05500000000001  C 41.4186999999999 4.05500000000001  41.8521 4.9281  41.8521 4.9281  C 41.8521 4.9281  42.5724 5.0665  42.5724 5.0665  C 42.5724 5.0665  42.508 6.52  42.508 6.52  C 42.508 6.52  42.139 7.6754  42.139 7.6754  C 42.139 7.6754  43.0467 7.28140000000001  43.0467 7.28140000000001  C 43.0467 7.28140000000001  44.7098 7.0365  44.7098 7.0365  C 44.7098 7.0365  45.7406 6.11  45.7406 6.11  C 45.7406 6.11  45.5122 5.31140000000001  45.5122 5.31140000000001  C 45.5122 5.31140000000001  44.0891 4.2094  44.0891 4.2094  C 44.0891 4.2094  43.8315 1.65989999999999  43.8315 1.65989999999999  C 43.8315 1.65989999999999  43.5562 0.771000000000001  43.5562 0.771000000000001  C 43.5562 0.771000000000001  44.9969 0.308099999999996  44.9969 0.308099999999996  C 44.9969 0.308099999999996  45.846 1.7184  45.846 1.7184  C 45.846 1.7184  49.3772 2.20269999999999  49.3772 2.20269999999999  C 49.3772 2.20269999999999  49.9979 2.7456  49.9979 2.7456  C 49.9979 2.7456  51.0637 2.4635  51.0637 2.4635  C 51.0637 2.4635  51.7430000000001 4.12430000000001  51.7430000000001 4.12430000000001  C 51.7430000000001 4.12430000000001  53.0783 4.449  53.0783 4.449  C 53.0783 4.449  54.0094 3.5068  54.0094 3.5068  C 54.0094 3.5068  54.6301 3.86879999999999  54.6301 3.86879999999999  C 54.6301 3.86879999999999  55.7721 5.42319999999999  55.7721 5.42319999999999  C 55.7721 5.42319999999999  56.1994999999999 6.97790000000001  56.1994999999999 6.97790000000001  C 56.1994999999999 6.97790000000001  56.7910000000001 7.9576  56.7910000000001 7.9576  C 56.7910000000001 7.9576  57.6401 8.1759  57.6401 8.1759  C 57.6401 8.1759  58.1086 9.18770000000001  58.1086 9.18770000000001  C 58.1086 9.18770000000001  59.2037 8.82550000000001  59.2037 8.82550000000001  C 59.2037 8.82550000000001  59.7659 10.386  59.7659 10.386  C 59.7659 10.386  60.0938 9.26220000000001  60.0938 9.26220000000001  C 60.0938 9.26220000000001  61.7101 9.0386  61.7101 9.0386  C 61.7101 9.0386  64.5079 9.7256  64.5079 9.7256  C 64.5079 9.7256  65.5562 9.5232  65.5562 9.5232  C 65.5562 9.5232  67.6761 6.62649999999999  67.6761 6.62649999999999  C 67.6761 6.62649999999999  68.4959 6.4188  68.4959 6.4188  C 68.4959 6.4188  69.1987 8.3676  69.1987 8.3676  C 69.1987 8.3676  69.96 8.7298  69.96 8.7298  C 69.96 8.7298  70.692 9.9333  70.692 9.9333  C 70.692 9.9333  70.7447 11.137  70.7447 11.137  C 70.7447 11.137  71.3655 11.6269  71.3655 11.6269  C 71.3655 11.6269  72.1033 11.1796  72.1033 11.1796  C 72.1033 11.1796  72.9525 11.4352  72.9525 11.4352  C 72.9525 11.4352  73.0169 11.9572  73.0169 11.9572  C 73.0169 11.9572  72.1033 12.9267  72.1033 12.9267  C 72.1033 12.9267  71.6523999999999 14.2106  71.6523999999999 14.2106  C 71.6523999999999 14.2106  73.0462 14.9511  73.0462 14.9511  C 73.0462 14.9511  74.0885 14.2905  74.0885 14.2905  C 74.0885 14.2905  76.1088999999999 14.2532  76.1088999999999 14.2532  C 76.1088999999999 14.2532  76.7648 13.9815  76.7648 13.9815  C 76.7648 13.9815  78.1585 12.426  78.1585 12.426  C 78.1585 12.426  79.2361 11.5631  79.2361 11.5631  C 79.2361 11.5631  80.2667 11.3127  80.2667 11.3127  C 80.2667 11.3127  80.6708 9.33150000000001  80.6708 9.33150000000001  C 80.6708 9.33150000000001  80.5712 8.50069999999999  80.5712 8.50069999999999  C 80.5712 8.50069999999999  81.4906 7.1589  81.4906 7.1589  C 81.4906 7.1589  82.4686 7.30800000000001  82.4686 7.30800000000001  C 82.4686 7.30800000000001  82.8259 6.38160000000001  82.8259 6.38160000000001  C 82.8259 6.38160000000001  84.0087 6.3443  84.0087 6.3443  C 84.0087 6.3443  83.9443 8.4794  83.9443 8.4794  C 83.9443 8.4794  84.9692 8.8522  84.9692 8.8522  C 84.9692 8.8522  85.7714 10.1357  85.7714 10.1357  C 85.7714 10.1357  82.7204 12.0531  82.7204 12.0531  C 82.7204 12.0531  82.492 13.5446  82.492 13.5446  C 82.492 13.5446  83.5989 15.2601  83.5989 15.2601  C 83.5989 15.2601  84.3835 14.8872  84.3835 14.8872  C 84.3835 14.8872  84.9575 16.5389  84.9575 16.5389  C 84.9575 16.5389  85.871 17.61  85.871 17.61  C 85.871 17.61  85.5841 18.7132  85.5841 18.7132  C 85.5841 18.7132  85.7246 20.0775  85.7246 20.0775  C 85.7246 20.0775  87.2648 21.0423  87.2648 21.0423  C 87.2648 21.0423  87.9324 22.9934  87.9324 22.9934  C 87.9324 22.9934  88.6819 23.068  88.6819 23.068  C 88.6819 23.068  89.736 22.4975  89.736 22.4975  C 89.736 22.4975  91.0536 22.5722  91.0536 22.5722  C 91.0536 22.5722  92.1663 24.6355  92.1663 24.6355  C 92.1663 24.6355  92.4298 27.8243  92.4298 27.8243  C 92.4298 27.8243  93.4019 29.4031  93.4019 29.4031  C 93.4019 29.4031  93.0799 30.0646  93.0799 30.0646  C 93.0799 30.0646  92.8515 33.0681  92.8515 33.0681  C 92.8515 33.0681  94.3506 34.1512  94.3506 34.1512  C 94.3506 34.1512  96.1251 33.3241  96.1251 33.3241  C 96.1251 33.3241  97.4367999999999 32.4384  97.4367999999999 32.4384  C 97.4367999999999 32.4384  97.5656 31.7022  97.5656 31.7022  C 97.5656 31.7022  98.6549 30.9127  98.6549 30.9127  C 98.6549 30.9127  99.4221 29.1471  99.4221 29.1471  C 99.4221 29.1471  101.5361 30.438  101.5361 30.438  C 101.5361 30.438  102.1451 30.5713  102.1451 30.5713  C 102.1451 30.5713  102.3794 29.7925  102.3794 29.7925  C 102.3794 29.7925  103.5857 29.4191  103.5857 29.4191  C 103.5857 29.4191  104.8155 28.6831  104.8155 28.6831  C 104.8155 28.6831  106.5782 28.5924  106.5782 28.5924  C 106.5782 28.5924  107.3688 28.9764  107.3688 28.9764  C 107.3688 28.9764  107.8899 28.0217  107.8899 28.0217  C 107.8899 28.0217  110.5369 27.8724  110.5369 27.8724  C 110.5369 27.8724  111.4446 29.0991  111.4446 29.0991  C 111.4446 29.0991  113.26 26.5498  113.26 26.5498  C 113.26 26.5498  115.0695 26.6778  115.0695 26.6778  C 115.0695 26.6778  116.1471 29.0938  116.1471 29.0938  C 116.1471 29.0938  115.8893 30.0805  115.8893 30.0805  C 115.8893 30.0805  114.8646 30.87  114.8646 30.87  C 114.8646 30.87  114.8879 32.2091  114.8879 32.2091  C 114.8879 32.2091  114.0213 33.1534  114.0213 33.1534  C 114.0213 33.1534  113.5704 34.3433  113.5704 34.3433  C 113.5704 34.3433  112.0068 36.3925  112.0068 36.3925  C 112.0068 36.3925  112.5162 38.3032  112.5162 38.3032  C 112.5162 38.3032  111.714 38.9864  111.714 38.9864  C 111.714 38.9864  111.7901 40.0914  111.7901 40.0914  C 111.7901 40.0914  112.8618 41.3033  112.8618 41.3033  C 112.8618 41.3033  113.5294 41.4047  113.5294 41.4047  C 113.5294 41.4047  113.6992 42.9745  113.6992 42.9745  C 113.6992 42.9745  114.7298 44.6352  114.7298 44.6352  C 114.7298 44.6352  116.2583 45.8208  116.2583 45.8208  C 116.2583 45.8208  116.0651 46.4937  116.0651 46.4937  C 116.0651 46.4937  117.4412 45.2386  117.4412 45.2386  C 117.4412 45.2386  118.7472 46.9744  118.7472 46.9744  C 118.7472 46.9744  119.6197 48.6891  119.6197 48.6891  C 119.6197 48.6891  119.0575 49.6186  119.0575 49.6186  C 119.0575 49.6186  118.144 49.5919  118.144 49.5919  C 118.144 49.5919  117.9507 50.6926  117.9507 50.6926  C 117.9507 50.6926  118.6593 52.2901  118.6593 52.2901  C 118.6593 52.2901  119.2157 52.6053  119.2157 52.6053  C 119.2157 52.6053  119.8306 54.0322  119.8306 54.0322  C 119.8306 54.0322  120.2815 54.2941  120.2815 54.2941  C 120.2815 54.2941  120.5743 55.9349  120.5743 55.9349  C 120.5743 55.9349  121.4878 55.4164  121.4878 55.4164  C 121.4878 55.4164  122.9167 58.0998  122.9167 58.0998  C 122.9167 58.0998  122.3838 59.0995  122.3838 59.0995  C 122.3838 59.0995  122.3194 60.0512  122.3194 60.0512  C 122.3194 60.0512  123.2446 60.9655  123.2446 60.9655  C 123.2446 60.9655  123.3266 62.2435  123.3266 62.2435  C 123.3266 62.2435  124.1114 63.0831  124.1114 63.0831  C 124.1114 63.0831  123.6077 64.0512  123.6077 64.0512  C 123.6077 64.0512  123.7073 66.4688  123.7073 66.4688  C 123.7073 66.4688  124.0059 66.9128  124.0059 66.9128  C 124.0059 66.9128  125.3586 66.7737  125.3586 66.7737  C 125.3586 66.7737  125.6281 67.8116  125.6281 67.8116  C 125.6281 67.8116  125.306 70.3263  125.306 70.3263  C 125.306 70.3263  125.6105 71.3751  125.6105 71.3751  C 125.6105 71.3751  125.1654 73.1411  125.1654 73.1411  C 125.1654 73.1411  123.9239 72.0654  123.9239 72.0654  C 123.9239 72.0654  122.3545 73.4944  122.3545 73.4944  C 122.3545 73.4944  122.9636 75.1215  122.9636 75.1215  C 122.9636 75.1215  122.6415 75.7371  122.6415 75.7371  C 122.6415 75.7371  121.4175 76.053  121.4175 76.053  C 121.4175 76.053  121.3824 77.2789  121.3824 77.2789  C 121.3824 77.2789  120.9783 78.6871  120.9783 78.6871  C 120.9783 78.6871  120.0999 79.1048  120.0999 79.1048  C 120.0999 79.1048  119.5202 77.7234  119.5202 77.7234  C 119.5202 77.7234  118.63 77.1719  118.63 77.1719  C 118.63 77.1719  117.7282 78.1196  117.7282 78.1196  C 117.7282 78.1196  117.4061 79.2922  117.4061 79.2922  C 117.4061 79.2922  115.7078 78.5479  115.7078 78.5479  C 115.7078 78.5479  114.7357 79.7848  114.7357 79.7848  C 114.7357 79.7848  114.1911 79.7795  114.1911 79.7795  C 114.1911 79.7795  113.4649 81.7755  113.4649 81.7755  C 113.4649 81.7755  112.405 84.1481  112.405 84.1481  C 112.405 84.1481  112.4109 85.8301  112.4109 85.8301  C 112.4109 85.8301  112.8501 87.2068  112.8501 87.2068  C 112.8501 87.2068  112.4929 89.1786  112.4929 89.1786  C 112.4929 89.1786  111.7257 88.4177  111.7257 88.4177  C 111.7257 88.4177  110.7009 90.4699  110.7009 90.4699  C 110.7009 90.4699  109.9806 91.322  109.9806 91.322  C 109.9806 91.322  108.294 90.4218  108.294 90.4218  C 108.294 90.4218  107.3453 91.6811  107.3453 91.6811  C 107.3453 91.6811  107.9953 93.3748  107.9953 93.3748  C 107.9953 93.3748  108.007 94.8327  108.007 94.8327  C 108.007 94.8327  107.1169 96.5214  107.1169 96.5214  C 107.1169 96.5214  106.6016 96.2373  106.6016 96.2373  C 106.6016 96.2373  106.9881 97.6099  106.9881 97.6099  C 106.9881 97.6099  106.4142 98.7144  106.4142 98.7144  C 106.4142 98.7144  106.1682 97.8457  106.1682 97.8457  C 106.1682 97.8457  104.1069 97.9476  104.1069 97.9476  C 104.1069 97.9476  103.2812 97.3525  103.2812 97.3525  C 103.2812 97.3525  102.8361 97.8457  102.8361 97.8457  C 102.8361 97.8457  102.5433 99.9585  102.5433 99.9585  C 102.5433 99.9585  101.8816 99.4652  101.8816 99.4652  C 101.8816 99.4652  100.5171 99.996  100.5171 99.996  C 100.5171 99.996  100.3356 100.7415  100.3356 100.7415  C 100.3356 100.7415  101.659 101.8785  101.659 101.8785  C 101.659 101.8785  101.4892 102.1573  101.4892 102.1573  C 101.4892 102.1573  100.0135 101.8463  100.0135 101.8463  C 100.0135 101.8463  100.3297 102.7421  100.3297 102.7421  C 100.3297 102.7421  100.0135 103.9704  100.0135 103.9704  C 100.0135 103.9704  100.0544 105.8749  100.0544 105.8749  C 100.0544 105.8749  98.9653 106.8782  98.9653 106.8782  C 98.9653 106.8782  97.7882 106.0412  97.7882 106.0412  C 97.7882 106.0412  96.4822 106.2343  96.4822 106.2343  C 96.4822 106.2343  96.5349 107.0714  96.5349 107.0714  C 96.5349 107.0714  94.825 108.3377  94.825 108.3377  C 94.825 108.3377  94.7547 108.8367  94.7547 108.8367  C 94.7547 108.8367  93.7533 108.7939  93.7533 108.7939  C 93.7533 108.7939  93.1502 110.3662  93.1502 110.3662  C 93.1502 110.3662  91.8208 110.1087  91.8208 110.1087  C 91.8208 110.1087  91.973 111.2035  91.973 111.2035  C 91.973 111.2035  93.3199 112.4756  93.3199 112.4756  C 93.3199 112.4756  94.0285 113.8606  94.0285 113.8606  C 94.0285 113.8606  93.4547 114.7732  93.4547 114.7732  C 93.4547 114.7732  92.8046000000001 114.333  92.8046000000001 114.333  C 92.8046000000001 114.333  93.074 115.5464  93.074 115.5464  C 93.074 115.5464  92.8398 116.2658  92.8398 116.2658  C 92.8398 116.2658  93.3316 116.8887  93.3316 116.8887  C 93.3316 116.8887  92.5059 117.8123  92.5059 117.8123  C 92.5059 117.8123  92.4122 120.8628  92.4122 120.8628  C 92.4122 120.8628  91.7564 122.0016  91.7564 122.0016  C 91.7564 122.0016  90.919 122.0983  90.919 122.0983  C 90.919 122.0983  89.3729 121.7222  89.3729 121.7222  C 89.3729 121.7222  88.3715 120.315  88.3715 120.315  C 88.3715 120.315  87.417 119.853  87.417 119.853  C 87.417 119.853  87.1769 119.1656  87.1769 119.1656  C 87.1769 119.1656  85.7012 119.418  85.7012 119.418  C 85.7012 119.418  84.6354 120.2935  84.6354 120.2935  C 84.6354 120.2935  84.5592 121.0078  84.5592 121.0078  C 84.5592 121.0078  82.9488 123.5433  82.9488 123.5433  C 82.9488 123.5433  82.3691 123.2478  82.3691 123.2478  Z " fill-rule="nonzero" fill="#ffffff" stroke="none" transform="matrix(1 0 0 1 608 159 )" />
    <path d="M 82.3691 123.2478  C 82.3691 123.2478  82.0001 123.9838  82.0001 123.9838  C 82.0001 123.9838  80.9519 122.9631  80.9519 122.9631  C 80.9519 122.9631  80.6005 122.0553  80.6005 122.0553  C 80.6005 122.0553  79.7279 121.3569  79.7279 121.3569  C 79.7279 121.3569  79.4761999999999 119.8154  79.4761999999999 119.8154  C 79.4761999999999 119.8154  78.2991 119.6544  78.2991 119.6544  C 78.2991 119.6544  77.2742 120.2344  77.2742 120.2344  C 77.2742 120.2344  76.4544 121.3248  76.4544 121.3248  C 76.4544 121.3248  75.8864 120.9111  75.8864 120.9111  C 75.8864 120.9111  74.5688 121.5127  74.5688 121.5127  C 74.5688 121.5127  74.598 122.6193  74.598 122.6193  C 74.598 122.6193  71.6583000000001 125.4989  71.6583000000001 125.4989  C 71.6583000000001 125.4989  71.951 124.5372  71.951 124.5372  C 71.951 124.5372  71.2424 124.4137  71.2424 124.4137  C 71.2424 124.4137  70.2059 125.4183  70.2059 125.4183  C 70.2059 125.4183  70.2234999999999 127.0894  70.2234999999999 127.0894  C 70.2234999999999 127.0894  68.8122 128.7984  68.8122 128.7984  C 68.8122 128.7984  67.682 128.8253  67.682 128.8253  C 67.682 128.8253  67.8284 129.954  67.8284 129.954  C 67.8284 129.954  67.4184 131.7009  67.4184 131.7009  C 67.4184 131.7009  68.1622 132.2062  68.1622 132.2062  C 68.1622 132.2062  68.4666999999999 133.3244  68.4666999999999 133.3244  C 68.4666999999999 133.3244  67.5941 133.7546  67.5941 133.7546  C 67.5941 133.7546  67.436 134.6632  67.436 134.6632  C 67.436 134.6632  66.4873 135.8999  66.4873 135.8999  C 66.4873 135.8999  65.3570999999999 135.8837  65.3570999999999 135.8837  C 65.3570999999999 135.8837  64.0453 135.0718  64.0453 135.0718  C 64.0453 135.0718  61.8097 135.4106  61.8097 135.4106  C 61.8097 135.4106  60.9547 134.6471  60.9547 134.6471  C 60.9547 134.6471  60.3925 135.2385  60.3925 135.2385  C 60.3925 135.2385  59.5083 134.8461  59.5083 134.8461  C 59.5083 134.8461  58.5186 133.8406  58.5186 133.8406  C 58.5186 133.8406  58.378 133.1793  58.378 133.1793  C 58.378 133.1793  57.1599 132.8137  57.1599 132.8137  C 57.1599 132.8137  57.1072 133.5126  57.1072 133.5126  C 57.1072 133.5126  55.854 132.6309  55.854 132.6309  C 55.854 132.6309  54.4662 132.9858  54.4662 132.9858  C 54.4662 132.9858  53.7049 132.0127  53.7049 132.0127  C 53.7049 132.0127  54.1792 131.2279  54.1792 131.2279  C 54.1792 131.2279  53.3476000000001 129.8465  53.3476000000001 129.8465  C 53.3476000000001 129.8465  51.7606 129.696  51.7606 129.696  C 51.7606 129.696  50.73 131.0075  50.73 131.0075  C 50.73 131.0075  49.6817 131.8461  49.6817 131.8461  C 49.6817 131.8461  49.3655 132.9374  49.3655 132.9374  C 49.3655 132.9374  47.0113 134.6686  47.0113 134.6686  C 47.0113 134.6686  46.3261 134.3944  46.3261 134.3944  C 46.3261 134.3944  45.0377999999999 135.4913  45.0377999999999 135.4913  C 45.0377999999999 135.4913  44.9149 134.9052  44.9149 134.9052  C 44.9149 134.9052  43.3806 134.0771  43.3806 134.0771  C 43.3806 134.0771  42.426 132.846  42.426 132.846  C 42.426 132.846  42.1742 131.674  42.1742 131.674  C 42.1742 131.674  40.2065 131.3353  40.2065 131.3353  C 40.2065 131.3353  38.9709 132.9912  38.9709 132.9912  C 38.9709 132.9912  37.5655 135.959  37.5655 135.959  C 37.5655 135.959  38.1921 136.8571  38.1921 136.8571  C 38.1921 136.8571  38.1569 137.6638  38.1569 137.6638  C 38.1569 137.6638  37.4191 137.8305  37.4191 137.8305  C 37.4191 137.8305  38.5024 139.6806  38.5024 139.6806  C 38.5024 139.6806  37.7236 141.9023  37.7236 141.9023  C 37.7236 141.9023  38.1686 142.209  38.1686 142.209  C 38.1686 142.209  37.665 143.3334  37.665 143.3334  C 37.665 143.3334  36.6753 143.7261  36.6753 143.7261  C 36.6753 143.7261  37.0501 145.109  37.0501 145.109  C 37.0501 145.109  36.5055 145.9484  36.5055 145.9484  C 36.5055 145.9484  35.7325 145.2166  35.7325 145.2166  C 35.7325 145.2166  34.4851 145.3942  34.4851 145.3942  C 34.4851 145.3942  33.8644 144.926  33.8644 144.926  C 33.8644 144.926  32.7048 145.0821  32.7048 145.0821  C 32.7048 145.0821  32.4999 146.0722  32.4999 146.0722  C 32.4999 146.0722  31.6917999999999 146.2336  31.6917999999999 146.2336  C 31.6917999999999 146.2336  30.9773 145.7817  30.9773 145.7817  C 30.9773 145.7817  30.0696 144.2534  30.0696 144.2534  C 30.0696 144.2534  29.5133 142.6233  29.5133 142.6233  C 29.5133 142.6233  28.9569 141.8646  28.9569 141.8646  C 28.9569 141.8646  27.6042 142.7953  27.6042 142.7953  C 27.6042 142.7953  26.8253 144.4041  26.8253 144.4041  C 26.8253 144.4041  25.3203 144.7968  25.3203 144.7968  C 25.3203 144.7968  25.496 146.3144  25.496 146.3144  C 25.496 146.3144  25.1154 146.2014  25.1154 146.2014  C 25.1154 146.2014  23.9675999999999 147.0032  23.9675999999999 147.0032  C 23.9675999999999 147.0032  24.0496000000001 148.7524  24.0496000000001 148.7524  C 24.0496000000001 148.7524  23.5108 150.2704  23.5108 150.2704  C 23.5108 150.2704  22.7788 150.5933  22.7788 150.5933  C 22.7788 150.5933  21.8945 150.841  21.8945 150.841  C 21.8945 150.841  22.0351000000001 151.3093  22.0351000000001 151.3093  C 22.0351000000001 151.3093  20.9049 152.9567  20.9049 152.9567  C 20.9049 152.9567  19.3178 154.3944  19.3178 154.3944  C 19.3178 154.3944  17.9417 154.1521  17.9417 154.1521  C 17.9417 154.1521  16.7236 154.9868  16.7236 154.9868  C 16.7236 154.9868  16.6767 155.676  16.6767 155.676  C 16.6767 155.676  16.0442 155.6222  16.0442 155.6222  C 16.0442 155.6222  15.2361 156.78  15.2361 156.78  C 15.2361 156.78  15.6812 157.184  15.6812 157.184  C 15.6812 157.184  15.3532 157.9218  15.3532 157.9218  C 15.3532 157.9218  15.4645 159.0745  15.4645 159.0745  C 15.4645 159.0745  15.0253 160.0819  15.0253 160.0819  C 15.0253 160.0819  12.7648 160.599  12.7648 160.599  C 12.7648 160.599  11.8806 160.4158  11.8806 160.4158  C 11.8806 160.4158  11.3536 159.5647  11.3536 159.5647  C 11.3536 159.5647  11.5878 157.8895  11.5878 157.8895  C 11.5878 157.8895  11.1544 157.4156  11.1544 157.4156  C 11.1544 157.4156  11.1896 156.0692  11.1896 156.0692  C 11.1896 156.0692  9.71379999999999 154.6906  9.71379999999999 154.6906  C 9.71379999999999 154.6906  10.1061999999999 153.0267  10.1061999999999 153.0267  C 10.1061999999999 153.0267  9.50890000000004 150.8948  9.50890000000004 150.8948  C 9.50890000000004 150.8948  8.99940000000004 150.9432  8.99940000000004 150.9432  C 8.99940000000004 150.9432  9.01689999999996 149.4467  9.01689999999996 149.4467  C 9.01689999999996 149.4467  8.28489999999999 149.3445  8.28489999999999 149.3445  C 8.28489999999999 149.3445  8.40790000000004 148.1388  8.40790000000004 148.1388  C 8.40790000000004 148.1388  9.48540000000003 148.1442  9.48540000000003 148.1442  C 9.48540000000003 148.1442  10.1002999999999 147.6275  10.1002999999999 147.6275  C 10.1002999999999 147.6275  9.48540000000003 146.083  9.48540000000003 146.083  C 9.48540000000003 146.083  9.69619999999998 144.2265  9.69619999999998 144.2265  C 9.69619999999998 144.2265  10.8440000000001 142.026  10.8440000000001 142.026  C 10.8440000000001 142.026  9.80169999999998 141.4343  9.80169999999998 141.4343  C 9.80169999999998 141.4343  9.88369999999998 140.423  9.88369999999998 140.423  C 9.88369999999998 140.423  9.19259999999997 139.4602  9.19259999999997 139.4602  C 9.19259999999997 139.4602  9.39760000000001 137.5186  9.39760000000001 137.5186  C 9.39760000000001 137.5186  9.49710000000005 133.6954  9.49710000000005 133.6954  C 9.49710000000005 133.6954  10.1999 133.147  10.1999 133.147  C 10.1999 133.147  10.7328 131.1312  10.7328 131.1312  C 10.7328 131.1312  11.0196999999999 131.0828  11.0196999999999 131.0828  C 11.0196999999999 131.0828  10.9435999999999 129.3359  10.9435999999999 129.3359  C 10.9435999999999 129.3359  11.3594000000001 127.729  11.3594000000001 127.729  C 11.3594000000001 127.729  11.1251999999999 126.6703  11.1251999999999 126.6703  C 11.1251999999999 126.6703  10.5103 126.3748  10.5103 126.3748  C 10.5103 126.3748  10.3228 127.0088  10.3228 127.0088  C 10.3228 127.0088  8.54259999999999 127.7451  8.54259999999999 127.7451  C 8.54259999999999 127.7451  7.56460000000004 127.0088  7.56460000000004 127.0088  C 7.56460000000004 127.0088  7.89260000000002 126.579  7.89260000000002 126.579  C 7.89260000000002 126.579  7.95699999999999 125.0046  7.95699999999999 125.0046  C 7.95699999999999 125.0046  7.27769999999998 124.8649  7.27769999999998 124.8649  C 7.27769999999998 124.8649  6.1182 123.8334  6.1182 123.8334  C 6.1182 123.8334  5.69659999999999 122.442  5.69659999999999 122.442  C 5.69659999999999 122.442  6.94970000000001 120.3472  6.94970000000001 120.3472  C 6.94970000000001 120.3472  6.02449999999999 119.3804  6.02449999999999 119.3804  C 6.02449999999999 119.3804  4.36720000000003 121.212  4.36720000000003 121.212  C 4.36720000000003 121.212  3.02030000000002 121.8565  3.02030000000002 121.8565  C 3.02030000000002 121.8565  1.33960000000002 121.4805  1.33960000000002 121.4805  C 1.33960000000002 121.4805  0.666200000000003 121.0723  0.666200000000003 121.0723  C 0.666200000000003 121.0723  3.11980000000005 118.9401  3.11980000000005 118.9401  C 3.11980000000005 118.9401  3.82259999999997 117.9304  3.82259999999997 117.9304  C 3.82259999999997 117.9304  3.23109999999997 117.0927  3.23109999999997 117.0927  C 3.23109999999997 117.0927  4.1798 116.7277  4.1798 116.7277  C 4.1798 116.7277  3.16089999999997 115.2779  3.16089999999997 115.2779  C 3.16089999999997 115.2779  3.65859999999998 114.2042  3.65859999999998 114.2042  C 3.65859999999998 114.2042  3.51220000000001 112.8407  3.51220000000001 112.8407  C 3.51220000000001 112.8407  5.19870000000003 111.9603  5.19870000000003 111.9603  C 5.19870000000003 111.9603  4.84739999999999 110.5165  4.84739999999999 110.5165  C 4.84739999999999 110.5165  5.38030000000003 110.2696  5.38030000000003 110.2696  C 5.38030000000003 110.2696  5.6087 108.9763  5.6087 108.9763  C 5.6087 108.9763  6.3759 108.8153  6.3759 108.8153  C 6.3759 108.8153  6.34649999999999 107.3075  6.34649999999999 107.3075  C 6.34649999999999 107.3075  7.26599999999996 105.9876  7.26599999999996 105.9876  C 7.26599999999996 105.9876  7.04930000000002 104.1206  7.04930000000002 104.1206  C 7.04930000000002 104.1206  7.90430000000003 102.9083  7.90430000000003 102.9083  C 7.90430000000003 102.9083  7.64660000000003 101.8195  7.64660000000003 101.8195  C 7.64660000000003 101.8195  8.92330000000004 101.4924  8.92330000000004 101.4924  C 8.92330000000004 101.4924  11.0666 100.1462  11.0666 100.1462  C 11.0666 100.1462  11.008 98.4195  11.008 98.4195  C 11.008 98.4195  10.5512 97.4329  10.5512 97.4329  C 10.5512 97.4329  10.8089 95.5082  10.8089 95.5082  C 10.8089 95.5082  10.4517 95.1437  10.4517 95.1437  C 10.4517 95.1437  10.481 92.8816  10.481 92.8816  C 10.481 92.8816  8.99360000000001 91.2899  8.99360000000001 91.2899  C 8.99360000000001 91.2899  8.35519999999997 89.8323  8.35519999999997 89.8323  C 8.35519999999997 89.8323  9.21019999999999 88.9696  9.21019999999999 88.9696  C 9.21019999999999 88.9696  9.86609999999996 86.189  9.86609999999996 86.189  C 9.86609999999996 86.189  10.7211 85.2944  10.7211 85.2944  C 10.7211 85.2944  10.2292 84.1053  10.2292 84.1053  C 10.2292 84.1053  10.5747 83.4893  10.5747 83.4893  C 10.5747 83.4893  11.0666 83.9981  11.0666 83.9981  C 11.0666 83.9981  11.8337 83.5322  11.8337 83.5322  C 11.8337 83.5322  12.6126 82.3003  12.6126 82.3003  C 12.6126 82.3003  13.2157 82.1985  13.2157 82.1985  C 13.2157 82.1985  13.1162 83.4625  13.1162 83.4625  C 13.1162 83.4625  13.3973 84.2016  13.3973 84.2016  C 13.3973 84.2016  14.2054000000001 84.3248  14.2054000000001 84.3248  C 14.2054000000001 84.3248  14.668 83.7035  14.668 83.7035  C 14.668 83.7035  15.2771 86.0711  15.2771 86.0711  C 15.2771 86.0711  15.6461 86.6925  15.6461 86.6925  C 15.6461 86.6925  16.8992 86.7515  16.8992 86.7515  C 16.8992 86.7515  17.4965 85.6961  17.4965 85.6961  C 17.4965 85.6961  17.1276 84.298  17.1276 84.298  C 17.1276 84.298  16.3371 83.6553  16.3371 83.6553  C 16.3371 83.6553  16.3137 82.8144  16.3137 82.8144  C 16.3137 82.8144  15.3943 82.4824  15.3943 82.4824  C 15.3943 82.4824  16.2317 82.1825  16.2317 82.1825  C 16.2317 82.1825  15.1776 78.8745  15.1776 78.8745  C 15.1776 78.8745  15.4294 77.9  15.4294 77.9  C 15.4294 77.9  14.914 76.6741  14.914 76.6741  C 14.914 76.6741  15.7983 76.3528  15.7983 76.3528  C 15.7983 76.3528  16.2141 77.1719  16.2141 77.1719  C 16.2141 77.1719  18.0998 78.4408  18.0998 78.4408  C 18.0998 78.4408  17.602 77.4878  17.602 77.4878  C 17.602 77.4878  17.5493 76.1441  17.5493 76.1441  C 17.5493 76.1441  18.5507 75.5606  18.5507 75.5606  C 18.5507 75.5606  19.0484 74.7629  19.0484 74.7629  C 19.0484 74.7629  19.5404 75.325  19.5404 75.325  C 19.5404 75.325  20.0967000000001 74.9771  20.0967000000001 74.9771  C 20.0967000000001 74.9771  20.2372 72.6434  20.2372 72.6434  C 20.2372 72.6434  20.0498 71.7657  20.0498 71.7657  C 20.0498 71.7657  20.5886 71.1021  20.5886 71.1021  C 20.5886 71.1021  21.5783 71.0379  21.5783 71.0379  C 21.5783 71.0379  21.6837 69.7751  21.6837 69.7751  C 21.6837 69.7751  20.5008 68.2663  20.5008 68.2663  C 20.5008 68.2663  20.817 67.5067  20.817 67.5067  C 20.817 67.5067  20.5769 66.2067  20.5769 66.2067  C 20.5769 66.2067  19.8156 65.7038  19.8156 65.7038  C 19.8156 65.7038  20.1201 64.2062  20.1201 64.2062  C 20.1201 64.2062  19.4992999999999 63.896  19.4992999999999 63.896  C 19.4992999999999 63.896  19.2592 62.2649  19.2592 62.2649  C 19.2592 62.2649  18.6678000000001 61.821  18.6678000000001 61.821  C 18.6678000000001 61.821  18.5273 59.1155  18.5273 59.1155  C 18.5273 59.1155  19.066 56.4373  19.066 56.4373  C 19.066 56.4373  20.4481 55.4592  20.4481 55.4592  C 20.4481 55.4592  21.0454 53.8825  21.0454 53.8825  C 21.0454 53.8825  20.9166 52.7176  20.9166 52.7176  C 20.9166 52.7176  20.2782 52.1939  20.2782 52.1939  C 20.2782 52.1939  20.4305000000001 50.778  20.4305000000001 50.778  C 20.4305000000001 50.778  21.4319 49.875  21.4319 49.875  C 21.4319 49.875  21.7481 48.9456  21.7481 48.9456  C 21.7481 48.9456  20.4246000000001 48.812  20.4246000000001 48.812  C 20.4246000000001 48.812  20.4832 47.8024  20.4832 47.8024  C 20.4832 47.8024  20.0381 47.0439  20.0381 47.0439  C 20.0381 47.0439  19.2534000000001 47.1828  19.2534000000001 47.1828  C 19.2534000000001 47.1828  18.5741 47.9573  18.5741 47.9573  C 18.5741 47.9573  18.7732 46.4296  18.7732 46.4296  C 18.7732 46.4296  17.5961 46.6433  17.5961 46.6433  C 17.5961 46.6433  16.9403 45.6926  16.9403 45.6926  C 16.9403 45.6926  15.8569 45.3455  15.8569 45.3455  C 15.8569 45.3455  15.0546000000001 45.5377  15.0546000000001 45.5377  C 15.0546000000001 45.5377  14.1235 45.0464  14.1235 45.0464  C 14.1235 45.0464  13.6433 43.1774  13.6433 43.1774  C 13.6433 43.1774  13.9829 42.5153  13.9829 42.5153  C 13.9829 42.5153  13.5436999999999 40.6146  13.5436999999999 40.6146  C 13.5436999999999 40.6146  13.7252999999999 39.958  13.7252999999999 39.958  C 13.7252999999999 39.958  13.3563 38.4526  13.3563 38.4526  C 13.3563 38.4526  14.6564 38.5167  14.6564 38.5167  C 14.6564 38.5167  14.1527 37.7961  14.1527 37.7961  C 14.1527 37.7961  15.6988 37.0809  15.6988 37.0809  C 15.6988 37.0809  15.1015 34.5033  15.1015 34.5033  C 15.1015 34.5033  16.2199000000001 32.7906  16.2199000000001 32.7906  C 16.2199000000001 32.7906  16.2258 31.7502  16.2258 31.7502  C 16.2258 31.7502  16.8583 31.1421  16.8583 31.1421  C 16.8583 31.1421  19.1831 30.2726  19.1831 30.2726  C 19.1831 30.2726  19.8097 31.3981  19.8097 31.3981  C 19.8097 31.3981  20.044 32.6893  20.044 32.6893  C 20.044 32.6893  20.6121000000001 33.1054  20.6121000000001 33.1054  C 20.6121000000001 33.1054  21.836 33.1054  21.836 33.1054  C 21.836 33.1054  22.9426999999999 31.9904  22.9426999999999 31.9904  C 22.9426999999999 31.9904  24.5005 32.6412  24.5005 32.6412  C 24.5005 32.6412  24.9982 33.4149  24.9982 33.4149  C 24.9982 33.4149  26.0699 33.1534  26.0699 33.1534  C 26.0699 33.1534  26.9073 33.9645  26.9073 33.9645  C 26.9073 33.9645  27.7565 34.1725  27.7565 34.1725  C 27.7565 34.1725  28.7872 36.147  28.7872 36.147  C 28.7872 36.147  28.9336 37.6466  28.9336 37.6466  C 28.9336 37.6466  28.2601 38.2338  28.2601 38.2338  C 28.2601 38.2338  28.8574 40.0541  28.8574 40.0541  C 28.8574 40.0541  30.5732 40.2729  30.5732 40.2729  C 30.5732 40.2729  31.2936 40.7961  31.2936 40.7961  C 31.2936 40.7961  33.2788 40.3957  33.2788 40.3957  C 33.2788 40.3957  34.4617 39.7284  34.4617 39.7284  C 34.4617 39.7284  36.4235 37.9883  36.4235 37.9883  C 36.4235 37.9883  38.0281 38.4312  38.0281 38.4312  C 38.0281 38.4312  40.9327 38.4526  40.9327 38.4526  C 40.9327 38.4526  41.3016 37.716  41.3016 37.716  C 41.3016 37.716  40.6926 37.0756  40.6926 37.0756  C 40.6926 37.0756  40.6926 36.2804  40.6926 36.2804  C 40.6926 36.2804  38.9416 34.3273  38.9416 34.3273  C 38.9416 34.3273  37.3194999999999 31.6382  37.3194999999999 31.6382  C 37.3194999999999 31.6382  36.5465 31.1741  36.5465 31.1741  C 36.5465 31.1741  36.7573 30.0805  36.7573 30.0805  C 36.7573 30.0805  36.0487000000001 28.219  36.0487000000001 28.219  C 36.0487000000001 28.219  34.6432 27.7124  34.6432 27.7124  C 34.6432 27.7124  36.0018 26.7791  36.0018 26.7791  C 36.0018 26.7791  37.4308 27.019  37.4308 27.019  C 37.4308 27.019  37.3896999999999 26.2885  37.3896999999999 26.2885  C 37.3896999999999 26.2885  37.9929 25.9045  37.9929 25.9045  C 37.9929 25.9045  38.1745 24.7101  38.1745 24.7101  C 38.1745 24.7101  37.6532999999999 23.8891  37.6532999999999 23.8891  C 37.6532999999999 23.8891  37.1789 24.289  37.1789 24.289  C 37.1789 24.289  36.1014 24.257  36.1014 24.257  C 36.1014 24.257  35.2055 23.4572  35.2055 23.4572  C 35.2055 23.4572  35.3928 21.7885  35.3928 21.7885  C 35.3928 21.7885  34.3036 20.7811  34.3036 20.7811  C 34.3036 20.7811  34.2859999999999 19.3793  34.2859999999999 19.3793  C 34.2859999999999 19.3793  34.9185 18.015  34.9185 18.015  C 34.9185 18.015  35.7793 16.88  35.7793 16.88  C 35.7793 16.88  34.9185 14.9085  34.9185 14.9085  C 34.9185 14.9085  35.5861 13.8163  35.5861 13.8163  C 35.5861 13.8163  35.4865 12.8468  35.4865 12.8468  C 35.4865 12.8468  35.9785000000001 12.2609  35.9785000000001 12.2609  C 35.9785000000001 12.2609  36.0955 10.7002  36.0955 10.7002  C 36.0955 10.7002  36.9388 10.338  36.9388 10.338  C 36.9388 10.338  36.4586 9.57640000000001  36.4586 9.57640000000001  C 36.4586 9.57640000000001  36.8803 8.6658  36.8803 8.6658  C 36.8803 8.6658  36.2302 7.86709999999999  36.2302 7.86709999999999  C 36.2302 7.86709999999999  37.3077 8.3091  37.3077 8.3091  C 37.3077 8.3091  38.1159 7.883  38.1159 7.883  C 38.1159 7.883  37.952 6.8181  37.952 6.8181  C 37.952 6.8181  38.2682 4.8163  38.2682 4.8163  C 38.2682 4.8163  39.0646 3.395  39.0646 3.395  C 39.0646 3.395  39.9781 3.25660000000001  39.9781 3.25660000000001  C 39.9781 3.25660000000001  41.4186999999999 4.05500000000001  41.4186999999999 4.05500000000001  C 41.4186999999999 4.05500000000001  41.8521 4.9281  41.8521 4.9281  C 41.8521 4.9281  42.5724 5.0665  42.5724 5.0665  C 42.5724 5.0665  42.508 6.52  42.508 6.52  C 42.508 6.52  42.139 7.6754  42.139 7.6754  C 42.139 7.6754  43.0467 7.28140000000001  43.0467 7.28140000000001  C 43.0467 7.28140000000001  44.7098 7.0365  44.7098 7.0365  C 44.7098 7.0365  45.7406 6.11  45.7406 6.11  C 45.7406 6.11  45.5122 5.31140000000001  45.5122 5.31140000000001  C 45.5122 5.31140000000001  44.0891 4.2094  44.0891 4.2094  C 44.0891 4.2094  43.8315 1.65989999999999  43.8315 1.65989999999999  C 43.8315 1.65989999999999  43.5562 0.771000000000001  43.5562 0.771000000000001  C 43.5562 0.771000000000001  44.9969 0.308099999999996  44.9969 0.308099999999996  C 44.9969 0.308099999999996  45.846 1.7184  45.846 1.7184  C 45.846 1.7184  49.3772 2.20269999999999  49.3772 2.20269999999999  C 49.3772 2.20269999999999  49.9979 2.7456  49.9979 2.7456  C 49.9979 2.7456  51.0637 2.4635  51.0637 2.4635  C 51.0637 2.4635  51.7430000000001 4.12430000000001  51.7430000000001 4.12430000000001  C 51.7430000000001 4.12430000000001  53.0783 4.449  53.0783 4.449  C 53.0783 4.449  54.0094 3.5068  54.0094 3.5068  C 54.0094 3.5068  54.6301 3.86879999999999  54.6301 3.86879999999999  C 54.6301 3.86879999999999  55.7721 5.42319999999999  55.7721 5.42319999999999  C 55.7721 5.42319999999999  56.1994999999999 6.97790000000001  56.1994999999999 6.97790000000001  C 56.1994999999999 6.97790000000001  56.7910000000001 7.9576  56.7910000000001 7.9576  C 56.7910000000001 7.9576  57.6401 8.1759  57.6401 8.1759  C 57.6401 8.1759  58.1086 9.18770000000001  58.1086 9.18770000000001  C 58.1086 9.18770000000001  59.2037 8.82550000000001  59.2037 8.82550000000001  C 59.2037 8.82550000000001  59.7659 10.386  59.7659 10.386  C 59.7659 10.386  60.0938 9.26220000000001  60.0938 9.26220000000001  C 60.0938 9.26220000000001  61.7101 9.0386  61.7101 9.0386  C 61.7101 9.0386  64.5079 9.7256  64.5079 9.7256  C 64.5079 9.7256  65.5562 9.5232  65.5562 9.5232  C 65.5562 9.5232  67.6761 6.62649999999999  67.6761 6.62649999999999  C 67.6761 6.62649999999999  68.4959 6.4188  68.4959 6.4188  C 68.4959 6.4188  69.1987 8.3676  69.1987 8.3676  C 69.1987 8.3676  69.96 8.7298  69.96 8.7298  C 69.96 8.7298  70.692 9.9333  70.692 9.9333  C 70.692 9.9333  70.7447 11.137  70.7447 11.137  C 70.7447 11.137  71.3655 11.6269  71.3655 11.6269  C 71.3655 11.6269  72.1033 11.1796  72.1033 11.1796  C 72.1033 11.1796  72.9525 11.4352  72.9525 11.4352  C 72.9525 11.4352  73.0169 11.9572  73.0169 11.9572  C 73.0169 11.9572  72.1033 12.9267  72.1033 12.9267  C 72.1033 12.9267  71.6523999999999 14.2106  71.6523999999999 14.2106  C 71.6523999999999 14.2106  73.0462 14.9511  73.0462 14.9511  C 73.0462 14.9511  74.0885 14.2905  74.0885 14.2905  C 74.0885 14.2905  76.1088999999999 14.2532  76.1088999999999 14.2532  C 76.1088999999999 14.2532  76.7648 13.9815  76.7648 13.9815  C 76.7648 13.9815  78.1585 12.426  78.1585 12.426  C 78.1585 12.426  79.2361 11.5631  79.2361 11.5631  C 79.2361 11.5631  80.2667 11.3127  80.2667 11.3127  C 80.2667 11.3127  80.6708 9.33150000000001  80.6708 9.33150000000001  C 80.6708 9.33150000000001  80.5712 8.50069999999999  80.5712 8.50069999999999  C 80.5712 8.50069999999999  81.4906 7.1589  81.4906 7.1589  C 81.4906 7.1589  82.4686 7.30800000000001  82.4686 7.30800000000001  C 82.4686 7.30800000000001  82.8259 6.38160000000001  82.8259 6.38160000000001  C 82.8259 6.38160000000001  84.0087 6.3443  84.0087 6.3443  C 84.0087 6.3443  83.9443 8.4794  83.9443 8.4794  C 83.9443 8.4794  84.9692 8.8522  84.9692 8.8522  C 84.9692 8.8522  85.7714 10.1357  85.7714 10.1357  C 85.7714 10.1357  82.7204 12.0531  82.7204 12.0531  C 82.7204 12.0531  82.492 13.5446  82.492 13.5446  C 82.492 13.5446  83.5989 15.2601  83.5989 15.2601  C 83.5989 15.2601  84.3835 14.8872  84.3835 14.8872  C 84.3835 14.8872  84.9575 16.5389  84.9575 16.5389  C 84.9575 16.5389  85.871 17.61  85.871 17.61  C 85.871 17.61  85.5841 18.7132  85.5841 18.7132  C 85.5841 18.7132  85.7246 20.0775  85.7246 20.0775  C 85.7246 20.0775  87.2648 21.0423  87.2648 21.0423  C 87.2648 21.0423  87.9324 22.9934  87.9324 22.9934  C 87.9324 22.9934  88.6819 23.068  88.6819 23.068  C 88.6819 23.068  89.736 22.4975  89.736 22.4975  C 89.736 22.4975  91.0536 22.5722  91.0536 22.5722  C 91.0536 22.5722  92.1663 24.6355  92.1663 24.6355  C 92.1663 24.6355  92.4298 27.8243  92.4298 27.8243  C 92.4298 27.8243  93.4019 29.4031  93.4019 29.4031  C 93.4019 29.4031  93.0799 30.0646  93.0799 30.0646  C 93.0799 30.0646  92.8515 33.0681  92.8515 33.0681  C 92.8515 33.0681  94.3506 34.1512  94.3506 34.1512  C 94.3506 34.1512  96.1251 33.3241  96.1251 33.3241  C 96.1251 33.3241  97.4367999999999 32.4384  97.4367999999999 32.4384  C 97.4367999999999 32.4384  97.5656 31.7022  97.5656 31.7022  C 97.5656 31.7022  98.6549 30.9127  98.6549 30.9127  C 98.6549 30.9127  99.4221 29.1471  99.4221 29.1471  C 99.4221 29.1471  101.5361 30.438  101.5361 30.438  C 101.5361 30.438  102.1451 30.5713  102.1451 30.5713  C 102.1451 30.5713  102.3794 29.7925  102.3794 29.7925  C 102.3794 29.7925  103.5857 29.4191  103.5857 29.4191  C 103.5857 29.4191  104.8155 28.6831  104.8155 28.6831  C 104.8155 28.6831  106.5782 28.5924  106.5782 28.5924  C 106.5782 28.5924  107.3688 28.9764  107.3688 28.9764  C 107.3688 28.9764  107.8899 28.0217  107.8899 28.0217  C 107.8899 28.0217  110.5369 27.8724  110.5369 27.8724  C 110.5369 27.8724  111.4446 29.0991  111.4446 29.0991  C 111.4446 29.0991  113.26 26.5498  113.26 26.5498  C 113.26 26.5498  115.0695 26.6778  115.0695 26.6778  C 115.0695 26.6778  116.1471 29.0938  116.1471 29.0938  C 116.1471 29.0938  115.8893 30.0805  115.8893 30.0805  C 115.8893 30.0805  114.8646 30.87  114.8646 30.87  C 114.8646 30.87  114.8879 32.2091  114.8879 32.2091  C 114.8879 32.2091  114.0213 33.1534  114.0213 33.1534  C 114.0213 33.1534  113.5704 34.3433  113.5704 34.3433  C 113.5704 34.3433  112.0068 36.3925  112.0068 36.3925  C 112.0068 36.3925  112.5162 38.3032  112.5162 38.3032  C 112.5162 38.3032  111.714 38.9864  111.714 38.9864  C 111.714 38.9864  111.7901 40.0914  111.7901 40.0914  C 111.7901 40.0914  112.8618 41.3033  112.8618 41.3033  C 112.8618 41.3033  113.5294 41.4047  113.5294 41.4047  C 113.5294 41.4047  113.6992 42.9745  113.6992 42.9745  C 113.6992 42.9745  114.7298 44.6352  114.7298 44.6352  C 114.7298 44.6352  116.2583 45.8208  116.2583 45.8208  C 116.2583 45.8208  116.0651 46.4937  116.0651 46.4937  C 116.0651 46.4937  117.4412 45.2386  117.4412 45.2386  C 117.4412 45.2386  118.7472 46.9744  118.7472 46.9744  C 118.7472 46.9744  119.6197 48.6891  119.6197 48.6891  C 119.6197 48.6891  119.0575 49.6186  119.0575 49.6186  C 119.0575 49.6186  118.144 49.5919  118.144 49.5919  C 118.144 49.5919  117.9507 50.6926  117.9507 50.6926  C 117.9507 50.6926  118.6593 52.2901  118.6593 52.2901  C 118.6593 52.2901  119.2157 52.6053  119.2157 52.6053  C 119.2157 52.6053  119.8306 54.0322  119.8306 54.0322  C 119.8306 54.0322  120.2815 54.2941  120.2815 54.2941  C 120.2815 54.2941  120.5743 55.9349  120.5743 55.9349  C 120.5743 55.9349  121.4878 55.4164  121.4878 55.4164  C 121.4878 55.4164  122.9167 58.0998  122.9167 58.0998  C 122.9167 58.0998  122.3838 59.0995  122.3838 59.0995  C 122.3838 59.0995  122.3194 60.0512  122.3194 60.0512  C 122.3194 60.0512  123.2446 60.9655  123.2446 60.9655  C 123.2446 60.9655  123.3266 62.2435  123.3266 62.2435  C 123.3266 62.2435  124.1114 63.0831  124.1114 63.0831  C 124.1114 63.0831  123.6077 64.0512  123.6077 64.0512  C 123.6077 64.0512  123.7073 66.4688  123.7073 66.4688  C 123.7073 66.4688  124.0059 66.9128  124.0059 66.9128  C 124.0059 66.9128  125.3586 66.7737  125.3586 66.7737  C 125.3586 66.7737  125.6281 67.8116  125.6281 67.8116  C 125.6281 67.8116  125.306 70.3263  125.306 70.3263  C 125.306 70.3263  125.6105 71.3751  125.6105 71.3751  C 125.6105 71.3751  125.1654 73.1411  125.1654 73.1411  C 125.1654 73.1411  123.9239 72.0654  123.9239 72.0654  C 123.9239 72.0654  122.3545 73.4944  122.3545 73.4944  C 122.3545 73.4944  122.9636 75.1215  122.9636 75.1215  C 122.9636 75.1215  122.6415 75.7371  122.6415 75.7371  C 122.6415 75.7371  121.4175 76.053  121.4175 76.053  C 121.4175 76.053  121.3824 77.2789  121.3824 77.2789  C 121.3824 77.2789  120.9783 78.6871  120.9783 78.6871  C 120.9783 78.6871  120.0999 79.1048  120.0999 79.1048  C 120.0999 79.1048  119.5202 77.7234  119.5202 77.7234  C 119.5202 77.7234  118.63 77.1719  118.63 77.1719  C 118.63 77.1719  117.7282 78.1196  117.7282 78.1196  C 117.7282 78.1196  117.4061 79.2922  117.4061 79.2922  C 117.4061 79.2922  115.7078 78.5479  115.7078 78.5479  C 115.7078 78.5479  114.7357 79.7848  114.7357 79.7848  C 114.7357 79.7848  114.1911 79.7795  114.1911 79.7795  C 114.1911 79.7795  113.4649 81.7755  113.4649 81.7755  C 113.4649 81.7755  112.405 84.1481  112.405 84.1481  C 112.405 84.1481  112.4109 85.8301  112.4109 85.8301  C 112.4109 85.8301  112.8501 87.2068  112.8501 87.2068  C 112.8501 87.2068  112.4929 89.1786  112.4929 89.1786  C 112.4929 89.1786  111.7257 88.4177  111.7257 88.4177  C 111.7257 88.4177  110.7009 90.4699  110.7009 90.4699  C 110.7009 90.4699  109.9806 91.322  109.9806 91.322  C 109.9806 91.322  108.294 90.4218  108.294 90.4218  C 108.294 90.4218  107.3453 91.6811  107.3453 91.6811  C 107.3453 91.6811  107.9953 93.3748  107.9953 93.3748  C 107.9953 93.3748  108.007 94.8327  108.007 94.8327  C 108.007 94.8327  107.1169 96.5214  107.1169 96.5214  C 107.1169 96.5214  106.6016 96.2373  106.6016 96.2373  C 106.6016 96.2373  106.9881 97.6099  106.9881 97.6099  C 106.9881 97.6099  106.4142 98.7144  106.4142 98.7144  C 106.4142 98.7144  106.1682 97.8457  106.1682 97.8457  C 106.1682 97.8457  104.1069 97.9476  104.1069 97.9476  C 104.1069 97.9476  103.2812 97.3525  103.2812 97.3525  C 103.2812 97.3525  102.8361 97.8457  102.8361 97.8457  C 102.8361 97.8457  102.5433 99.9585  102.5433 99.9585  C 102.5433 99.9585  101.8816 99.4652  101.8816 99.4652  C 101.8816 99.4652  100.5171 99.996  100.5171 99.996  C 100.5171 99.996  100.3356 100.7415  100.3356 100.7415  C 100.3356 100.7415  101.659 101.8785  101.659 101.8785  C 101.659 101.8785  101.4892 102.1573  101.4892 102.1573  C 101.4892 102.1573  100.0135 101.8463  100.0135 101.8463  C 100.0135 101.8463  100.3297 102.7421  100.3297 102.7421  C 100.3297 102.7421  100.0135 103.9704  100.0135 103.9704  C 100.0135 103.9704  100.0544 105.8749  100.0544 105.8749  C 100.0544 105.8749  98.9653 106.8782  98.9653 106.8782  C 98.9653 106.8782  97.7882 106.0412  97.7882 106.0412  C 97.7882 106.0412  96.4822 106.2343  96.4822 106.2343  C 96.4822 106.2343  96.5349 107.0714  96.5349 107.0714  C 96.5349 107.0714  94.825 108.3377  94.825 108.3377  C 94.825 108.3377  94.7547 108.8367  94.7547 108.8367  C 94.7547 108.8367  93.7533 108.7939  93.7533 108.7939  C 93.7533 108.7939  93.1502 110.3662  93.1502 110.3662  C 93.1502 110.3662  91.8208 110.1087  91.8208 110.1087  C 91.8208 110.1087  91.973 111.2035  91.973 111.2035  C 91.973 111.2035  93.3199 112.4756  93.3199 112.4756  C 93.3199 112.4756  94.0285 113.8606  94.0285 113.8606  C 94.0285 113.8606  93.4547 114.7732  93.4547 114.7732  C 93.4547 114.7732  92.8046000000001 114.333  92.8046000000001 114.333  C 92.8046000000001 114.333  93.074 115.5464  93.074 115.5464  C 93.074 115.5464  92.8398 116.2658  92.8398 116.2658  C 92.8398 116.2658  93.3316 116.8887  93.3316 116.8887  C 93.3316 116.8887  92.5059 117.8123  92.5059 117.8123  C 92.5059 117.8123  92.4122 120.8628  92.4122 120.8628  C 92.4122 120.8628  91.7564 122.0016  91.7564 122.0016  C 91.7564 122.0016  90.919 122.0983  90.919 122.0983  C 90.919 122.0983  89.3729 121.7222  89.3729 121.7222  C 89.3729 121.7222  88.3715 120.315  88.3715 120.315  C 88.3715 120.315  87.417 119.853  87.417 119.853  C 87.417 119.853  87.1769 119.1656  87.1769 119.1656  C 87.1769 119.1656  85.7012 119.418  85.7012 119.418  C 85.7012 119.418  84.6354 120.2935  84.6354 120.2935  C 84.6354 120.2935  84.5592 121.0078  84.5592 121.0078  C 84.5592 121.0078  82.9488 123.5433  82.9488 123.5433  C 82.9488 123.5433  82.3691 123.2478  82.3691 123.2478  Z " stroke-width="2" stroke="#666666" fill="none" transform="matrix(1 0 0 1 608 159 )" mask="url(#clip39)" />
  </g>
</svg>