<?xml version="1.0" encoding="utf-8"?>
<svg version="1.1" xmlns:xlink="http://www.w3.org/1999/xlink" width="156px" height="296px" xmlns="http://www.w3.org/2000/svg">
  <defs>
    <mask fill="white" id="clip40">
      <path d="M 52.8945 0.841000000000008  C 52.8945 0.841000000000008  53.7788 0.593299999999999  53.7788 0.593299999999999  C 53.7788 0.593299999999999  54.3819 0.808699999999988  54.3819 0.808699999999988  C 54.3819 0.808699999999988  55.2077 2.64980000000003  55.2077 2.64980000000003  C 55.2077 2.64980000000003  56.8123000000001 3.87200000000001  56.8123000000001 3.87200000000001  C 56.8123000000001 3.87200000000001  56.9704 4.8252  56.9704 4.8252  C 56.9704 4.8252  57.7024 5.8322  57.7024 5.8322  C 57.7024 5.8322  59.6115 7.12470000000002  59.6115 7.12470000000002  C 59.6115 7.12470000000002  58.8619 8.41739999999999  58.8619 8.41739999999999  C 58.8619 8.41739999999999  58.7506 9.60239999999999  58.7506 9.60239999999999  C 58.7506 9.60239999999999  59.1488000000001 12.5008  59.1488000000001 12.5008  C 59.1488000000001 12.5008  60.4665 12.5331  60.4665 12.5331  C 60.4665 12.5331  61.1516 11.1485  61.1516 11.1485  C 61.1516 11.1485  62.9026 11.0354  62.9026 11.0354  C 62.9026 11.0354  63.9684 10.028  63.9684 10.028  C 63.9684 10.028  66.8554 9.58089999999999  66.8554 9.58089999999999  C 66.8554 9.58089999999999  67.5992 11.0785  67.5992 11.0785  C 67.5992 11.0785  69.4204999999999 13.3467  69.4204999999999 13.3467  C 69.4204999999999 13.3467  70.0646 14.4622  70.0646 14.4622  C 70.0646 14.4622  69.5434 15.3837  69.5434 15.3837  C 69.5434 15.3837  68.7177 15.6154  68.7177 15.6154  C 68.7177 15.6154  68.3546 17.173  68.3546 17.173  C 68.3546 17.173  68.3839 19.4692  68.3839 19.4692  C 68.3839 19.4692  70.4394 20.9139  70.4394 20.9139  C 70.4394 20.9139  70.9781 22.3697  70.9781 22.3697  C 70.9781 22.3697  69.397 23.3241  69.397 23.3241  C 69.397 23.3241  68.3546 23.2809  68.3546 23.2809  C 68.3546 23.2809  66.1235 23.7663  66.1235 23.7663  C 66.1235 23.7663  65.3622 23.7124  65.3622 23.7124  C 65.3622 23.7124  64.6829 24.5859  64.6829 24.5859  C 64.6829 24.5859  64.7473 25.6753  64.7473 25.6753  C 64.7473 25.6753  65.3329 26.6677  65.3329 26.6677  C 65.3329 26.6677  64.9054 28.9439  64.9054 28.9439  C 64.9054 28.9439  63.8747 27.1585  63.8747 27.1585  C 63.8747 27.1585  63.2598 28.383  63.2598 28.383  C 63.2598 28.383  63.4823 29.0249  63.4823 29.0249  C 63.4823 29.0249  62.8791 29.942  62.8791 29.942  C 62.8791 29.942  64.9698 31.5713  64.9698 31.5713  C 64.9698 31.5713  65.772 32.4455  65.772 32.4455  C 65.772 32.4455  67.0838 32.5426  67.0838 32.5426  C 67.0838 32.5426  67.9037 34.4529  67.9037 34.4529  C 67.9037 34.4529  68.5244 35.1167  68.5244 35.1167  C 68.5244 35.1167  71.0953 36.1475  71.0953 36.1475  C 71.0953 36.1475  71.0777000000001 37.2378  71.0777000000001 37.2378  C 71.0777000000001 37.2378  72.4948000000001 38.6035  72.4948000000001 38.6035  C 72.4948000000001 38.6035  73.4787 36.6602  73.4787 36.6602  C 73.4787 36.6602  74.9426999999999 36.4875  74.9426999999999 36.4875  C 74.9426999999999 36.4875  76.1138999999999 35.4782  76.1138999999999 35.4782  C 76.1138999999999 35.4782  76.8752 35.8668  76.8752 35.8668  C 76.8752 35.8668  77.4725 37.227  77.4725 37.227  C 77.4725 37.227  77.9703 37.362  77.9703 37.362  C 77.9703 37.362  77.7888 38.4685  77.7888 38.4685  C 77.7888 38.4685  79.2469 40.2933  79.2469 40.2933  C 79.2469 40.2933  79.083 41.8266  79.083 41.8266  C 79.083 41.8266  80.0493 41.9454  80.0493 41.9454  C 80.0493 41.9454  80.1078 42.426  80.1078 42.426  C 80.1078 42.426  81.1502 44.2738  81.1502 44.2738  C 81.1502 44.2738  81.3200000000001 44.8517  81.3200000000001 44.8517  C 81.3200000000001 44.8517  80.4299 45.7643  80.4299 45.7643  C 80.4299 45.7643  80.0785 47.1902  80.0785 47.1902  C 80.0785 47.1902  79.083 46.569  79.083 46.569  C 79.083 46.569  78.0054 47.8762  78.0054 47.8762  C 78.0054 47.8762  79.4285 49.0376  79.4285 49.0376  C 79.4285 49.0376  80.3655 47.471  80.3655 47.471  C 80.3655 47.471  80.7871 47.8924  80.7871 47.8924  C 80.7871 47.8924  79.6803 50.0747  79.6803 50.0747  C 79.6803 50.0747  79.9848 50.6852  79.9848 50.6852  C 79.9848 50.6852  79.3524 50.9878  79.3524 50.9878  C 79.3524 50.9878  79.9321 52.452  79.9321 52.452  C 79.9321 52.452  79.5515 54.1218  79.5515 54.1218  C 79.5515 54.1218  80.711 54.0461  80.711 54.0461  C 80.711 54.0461  81.0565 54.8027  81.0565 54.8027  C 81.0565 54.8027  81.8002 52.7438  81.8002 52.7438  C 81.8002 52.7438  82.1516 54.5757  82.1516 54.5757  C 82.1516 54.5757  81.3317 55.3971  81.3317 55.3971  C 81.3317 55.3971  82.2569999999999 55.9214  82.2569999999999 55.9214  C 82.2569999999999 55.9214  82.5674 57.2186  82.5674 57.2186  C 82.5674 57.2186  84.0431 56.0457  84.0431 56.0457  C 84.0431 56.0457  84.2773 55.208  84.2773 55.208  C 84.2773 55.208  85.1967 56.3862  85.1967 56.3862  C 85.1967 56.3862  85.8995 55.8727  85.8995 55.8727  C 85.8995 55.8727  88.0955 57.7753  88.0955 57.7753  C 88.0955 57.7753  89.9754 58.251  89.9754 58.251  C 89.9754 58.251  90.4614 59.7052  90.4614 59.7052  C 90.4614 59.7052  92.2474999999999 60.7595  92.2474999999999 60.7595  C 92.2474999999999 60.7595  93.3543 60.6189  93.3543 60.6189  C 93.3543 60.6189  94.1683 59.7971  94.1683 59.7971  C 94.1683 59.7971  94.8359 60.846  94.8359 60.846  C 94.8359 60.846  95.7729000000001 61.2623  95.7729000000001 61.2623  C 95.7729000000001 61.2623  97.0261 60.527  97.0261 60.527  C 97.0261 60.527  96.6864 58.4618  96.6864 58.4618  C 96.6864 58.4618  97.7171 57.1969  97.7171 57.1969  C 97.7171 57.1969  98.9938 56.6294  98.9938 56.6294  C 98.9938 56.6294  100.0185 57.2077  100.0185 57.2077  C 100.0185 57.2077  100.9555 57.1213  100.9555 57.1213  C 100.9555 57.1213  101.1839 58.3807  101.1839 58.3807  C 101.1839 58.3807  100.1884 59.9323  100.1884 59.9323  C 100.1884 59.9323  99.4388 60.581  99.4388 60.581  C 99.4388 60.581  98.5662 62.3004  98.5662 62.3004  C 98.5662 62.3004  97.3481 63.874  97.3481 63.874  C 97.3481 63.874  95.7085 65.5235  95.7085 65.5235  C 95.7085 65.5235  95.1287 65.6641  95.1287 65.6641  C 95.1287 65.6641  94.3908 66.6215  94.3908 66.6215  C 94.3908 66.6215  93.2079 67.0542  93.2079 67.0542  C 93.2079 67.0542  92.0132 68.2226  92.0132 68.2226  C 92.0132 68.2226  91.2637 68.3362  91.2637 68.3362  C 91.2637 68.3362  90.5844 67.8439  90.5844 67.8439  C 90.5844 67.8439  90.0398 66.4916  90.0398 66.4916  C 90.0398 66.4916  89.2316 65.6046  89.2316 65.6046  C 89.2316 65.6046  88.1307 65.491  88.1307 65.491  C 88.1307 65.491  86.8189 65.8913  86.8189 65.8913  C 86.8189 65.8913  84.658 67.184  84.658 67.184  C 84.658 67.184  83.6391 67.3084  83.6391 67.3084  C 83.6391 67.3084  82.0169 68.7581  82.0169 68.7581  C 82.0169 68.7581  80.7519 70.4352  80.7519 70.4352  C 80.7519 70.4352  80.0667999999999 70.4893  80.0667999999999 70.4893  C 80.0667999999999 70.4893  79.4344 69.7644  79.4344 69.7644  C 79.4344 69.7644  78.4564 69.878  78.4564 69.878  C 78.4564 69.878  76.9279 71.355  76.9279 71.355  C 76.9279 71.355  74.931 71.539  74.931 71.539  C 74.931 71.539  73.3323 73.0216  73.3323 73.0216  C 73.3323 73.0216  71.9913 75.2296  71.9913 75.2296  C 71.9913 75.2296  70.8025 76.6965  70.8025 76.6965  C 70.8025 76.6965  69.9943 77.0375  69.9943 77.0375  C 69.9943 77.0375  68.952 76.7993  68.952 76.7993  C 68.952 76.7993  68.1204 75.6735  68.1204 75.6735  C 68.1204 75.6735  68.0501 73.8766  68.0501 73.8766  C 68.0501 73.8766  68.2551 71.7175  68.2551 71.7175  C 68.2551 71.7175  68.1614 70.1593  68.1614 70.1593  C 68.1614 70.1593  67.6753 69.0286  67.6753 69.0286  C 67.6753 69.0286  65.1923 66.2428  65.1923 66.2428  C 65.1923 66.2428  63.986 65.8859  63.986 65.8859  C 63.986 65.8859  60.6363 65.6858  60.6363 65.6858  C 60.6363 65.6858  60.1795 64.2309  60.1795 64.2309  C 60.1795 64.2309  59.588 63.5333  59.588 63.5333  C 59.588 63.5333  57.4213 63.3765  57.4213 63.3765  C 57.4213 63.3765  55.7581 63.9281  55.7581 63.9281  C 55.7581 63.9281  53.199 65.7128  53.199 65.7128  C 53.199 65.7128  52.0337 67.1353  52.0337 67.1353  C 52.0337 67.1353  51.7643 69.5534  51.7643 69.5534  C 51.7643 69.5534  50.0146999999999 71.4199  50.0146999999999 71.4199  C 50.0146999999999 71.4199  48.1817 73.4329  48.1817 73.4329  C 48.1817 73.4329  47.8244999999999 74.5801  47.8244999999999 74.5801  C 47.8244999999999 74.5801  48.4277 75.2296  48.4277 75.2296  C 48.4277 75.2296  51.2489 74.8237  51.2489 74.8237  C 51.2489 74.8237  52.3675 75.6518  52.3675 75.6518  C 52.3675 75.6518  53.4742 74.7425  53.4742 74.7425  C 53.4742 74.7425  53.9779 74.8562  53.9779 74.8562  C 53.9779 74.8562  53.8607 77.0212  53.8607 77.0212  C 53.8607 77.0212  52.4436 77.7574  52.4436 77.7574  C 52.4436 77.7574  49.8156 80.6158  49.8156 80.6158  C 49.8156 80.6158  49.634 81.715  49.634 81.715  C 49.634 81.715  51.899 82.9659  51.899 82.9659  C 51.899 82.9659  51.3075 85.2783  51.3075 85.2783  C 51.3075 85.2783  49.1598 84.4605  49.1598 84.4605  C 49.1598 84.4605  48.9723 83.7782  48.9723 83.7782  C 48.9723 83.7782  47.5259 84.011  47.5259 84.011  C 47.5259 84.011  45.2361 82.0074  45.2361 82.0074  C 45.2361 82.0074  44.1645 81.9858  44.1645 81.9858  C 44.1645 81.9858  42.4779 80.4534  42.4779 80.4534  C 42.4779 80.4534  40.1706 80.8161  40.1706 80.8161  C 40.1706 80.8161  39.2219 81.8829  39.2219 81.8829  C 39.2219 81.8829  36.7624 81.7367  36.7624 81.7367  C 36.7624 81.7367  35.5735 81.8667  35.5735 81.8667  C 35.5735 81.8667  35.3862 80.8757  35.3862 80.8757  C 35.3862 80.8757  34.3789 80.4317  34.3789 80.4317  C 34.3789 80.4317  33.2663 79.1595  33.2663 79.1595  C 33.2663 79.1595  32.5518 77.6654  32.5518 77.6654  C 32.5518 77.6654  32.909 75.8521  32.909 75.8521  C 32.909 75.8521  32.6748 73.2543  32.6748 73.2543  C 32.6748 73.2543  32.259 72.421  32.259 72.421  C 32.259 72.421  31.4099 71.9123  31.4099 71.9123  C 31.4099 71.9123  30.1391 71.6634  30.1391 71.6634  C 30.1391 71.6634  28.1656 71.7716  28.1656 71.7716  C 28.1656 71.7716  24.447 72.5346  24.447 72.5346  C 24.447 72.5346  23.9317 71.8582  23.9317 71.8582  C 23.9317 71.8582  24.2595 69.8672  24.2595 69.8672  C 24.2595 69.8672  26.2623 68.2713  26.2623 68.2713  C 26.2623 68.2713  25.1028 67.6059  25.1028 67.6059  C 25.1028 67.6059  23.8497 67.4707  23.8497 67.4707  C 23.8497 67.4707  21.6068 67.8169  21.6068 67.8169  C 21.6068 67.8169  20.9684 68.1468  20.9684 68.1468  C 20.9684 68.1468  20.5 69.9808  20.5 69.9808  C 20.5 69.9808  21.2027 70.9222  21.2027 70.9222  C 21.2027 70.9222  21.2788 72.5454  21.2788 72.5454  C 21.2788 72.5454  20.8279 72.8268  20.8279 72.8268  C 20.8279 72.8268  19.7211 72.5562  19.7211 72.5562  C 19.7211 72.5562  18.749 71.3767  18.749 71.3767  C 18.749 71.3767  18.2395 69.878  18.2395 69.878  C 18.2395 69.878  16.6232 70.0511  16.6232 70.0511  C 16.6232 70.0511  14.5501 71.0466  14.5501 71.0466  C 14.5501 71.0466  12.6821 71.1656  12.6821 71.1656  C 12.6821 71.1656  11.5460000000001 71.5119  11.5460000000001 71.5119  C 11.5460000000001 71.5119  10.6442 72.2478  10.6442 72.2478  C 10.6442 72.2478  10.328 73.6493  10.328 73.6493  C 10.328 73.6493  10.5212 75.3921  10.5212 75.3921  C 10.5212 75.3921  9.03380000000004 75.706  9.03380000000004 75.706  C 9.03380000000004 75.706  8.24900000000002 76.5124  8.24900000000002 76.5124  C 8.24900000000002 76.5124  8.2432 77.5679  8.2432 77.5679  C 8.2432 77.5679  9.06880000000001 78.001  9.06880000000001 78.001  C 9.06880000000001 78.001  9.42020000000002 79.1324  9.42020000000002 79.1324  C 9.42020000000002 79.1324  8.43050000000005 80.0149  8.43050000000005 80.0149  C 8.43050000000005 80.0149  8.19629999999995 78.4449  8.19629999999995 78.4449  C 8.19629999999995 78.4449  7.18320000000006 77.254  7.18320000000006 77.254  C 7.18320000000006 77.254  6.97820000000002 76.0848  6.97820000000002 76.0848  C 6.97820000000002 76.0848  6.00609999999995 74.6938  6.00609999999995 74.6938  C 6.00609999999995 74.6938  6.41610000000003 72.7402  6.41610000000003 72.7402  C 6.41610000000003 72.7402  5.84209999999996 72.9945  5.84209999999996 72.9945  C 5.84209999999996 72.9945  4.72950000000003 72.4264  4.72950000000003 72.4264  C 4.72950000000003 72.4264  4.46590000000003 71.263  4.46590000000003 71.263  C 4.46590000000003 71.263  2.82039999999995 70.5975  2.82039999999995 70.5975  C 2.82039999999995 70.5975  2.18209999999999 69.0881  2.18209999999999 69.0881  C 2.18209999999999 69.0881  2.65639999999996 68.4011  2.65639999999996 68.4011  C 2.65639999999996 68.4011  2.62130000000002 66.5079  2.62130000000002 66.5079  C 2.62130000000002 66.5079  1.88930000000005 65.7182  1.88930000000005 65.7182  C 1.88930000000005 65.7182  1.21000000000004 65.9237  1.21000000000004 65.9237  C 1.21000000000004 65.9237  0.928899999999999 64.9773  0.928899999999999 64.9773  C 0.928899999999999 64.9773  1.2627 64.0308  1.2627 64.0308  C 1.2627 64.0308  0.706400000000031 63.0845  0.706400000000031 63.0845  C 0.706400000000031 63.0845  1.7722 62.906  1.7722 62.906  C 1.7722 62.906  1.94190000000003 62.1544  1.94190000000003 62.1544  C 1.94190000000003 62.1544  0.782500000000027 60.8297  0.782500000000027 60.8297  C 0.782500000000027 60.8297  0.794200000000046 59.7701  0.794200000000046 59.7701  C 0.794200000000046 59.7701  0.149999999999977 59.143  0.149999999999977 59.143  C 0.149999999999977 59.143  1.11040000000003 57.7483  1.11040000000003 57.7483  C 1.11040000000003 57.7483  2.32849999999996 57.8834  2.32849999999996 57.8834  C 2.32849999999996 57.8834  2.87890000000004 56.9375  2.87890000000004 56.9375  C 2.87890000000004 56.9375  3.82770000000005 57.1375  3.82770000000005 57.1375  C 3.82770000000005 57.1375  4.59479999999996 55.916  4.59479999999996 55.916  C 4.59479999999996 55.916  5.38530000000003 56.2835  5.38530000000003 56.2835  C 5.38530000000003 56.2835  6.26379999999995 55.916  6.26379999999995 55.916  C 6.26379999999995 55.916  6.42780000000005 54.8135  6.42780000000005 54.8135  C 6.42780000000005 54.8135  7.20079999999996 54.1596  7.20079999999996 54.1596  C 7.20079999999996 54.1596  7.96209999999996 54.2028  7.96209999999996 54.2028  C 7.96209999999996 54.2028  9.75990000000002 52.733  9.75990000000002 52.733  C 9.75990000000002 52.733  10.0937 53.0464  10.0937 53.0464  C 10.0937 53.0464  11.1946 50.2692  11.1946 50.2692  C 11.1946 50.2692  12.237 50.1558  12.237 50.1558  C 12.237 50.1558  12.155 49.6965  12.155 49.6965  C 12.155 49.6965  12.9983 48.8809  12.9983 48.8809  C 12.9983 48.8809  14.0231 50.0531  14.0231 50.0531  C 14.0231 50.0531  14.9133 48.6918  14.9133 48.6918  C 14.9133 48.6918  16.3244999999999 49.3347  16.3244999999999 49.3347  C 16.3244999999999 49.3347  17.6539 50.5718  17.6539 50.5718  C 17.6539 50.5718  17.8003 49.6317  17.8003 49.6317  C 17.8003 49.6317  18.9129 48.3893  18.9129 48.3893  C 18.9129 48.3893  19.1121000000001 46.9093  19.1121000000001 46.9093  C 19.1121000000001 46.9093  20.2188 45.559  20.2188 45.559  C 20.2188 45.559  21.273 45.0191  21.273 45.0191  C 21.273 45.0191  21.8937 45.2027  21.8937 45.2027  C 21.8937 45.2027  23.2992 44.0902  23.2992 44.0902  C 23.2992 44.0902  23.7735 44.1874  23.7735 44.1874  C 23.7735 44.1874  25.22 42.372  25.22 42.372  C 25.22 42.372  25.6532999999999 41.1733  25.6532999999999 41.1733  C 25.6532999999999 41.1733  26.7483999999999 40.0989  26.7483999999999 40.0989  C 26.7483999999999 40.0989  26.5025000000001 39.3539  26.5025000000001 39.3539  C 26.5025000000001 39.3539  28.6107 38.9328  28.6107 38.9328  C 28.6107 38.9328  28.4174 36.6602  28.4174 36.6602  C 28.4174 36.6602  27.9313 35.9316  27.9313 35.9316  C 27.9313 35.9316  28.2358 34.863  28.2358 34.863  C 28.2358 34.863  27.9548 33.8808  27.9548 33.8808  C 27.9548 33.8808  28.0953 32.6289  28.0953 32.6289  C 28.0953 32.6289  28.9327 32.2674  28.9327 32.2674  C 28.9327 32.2674  30.2445 32.6073  30.2445 32.6073  C 30.2445 32.6073  30.6603 32.0084  30.6603 32.0084  C 30.6603 32.0084  31.2868999999999 32.4293  31.2868999999999 32.4293  C 31.2868999999999 32.4293  32.177 31.3177  32.177 31.3177  C 32.177 31.3177  32.5928 28.89  32.5928 28.89  C 32.5928 28.89  35.1812 27.768  35.1812 27.768  C 35.1812 27.768  36.0889 26.2309  36.0889 26.2309  C 36.0889 26.2309  37.3362 26.2686  37.3362 26.2686  C 37.3362 26.2686  37.2367 25.1684  37.2367 25.1684  C 37.2367 25.1684  37.7345 24.4242  37.7345 24.4242  C 37.7345 24.4242  38.9290999999999 24.5913  38.9290999999999 24.5913  C 38.9290999999999 24.5913  38.4723 23.831  38.4723 23.831  C 38.4723 23.831  38.3845 22.6608  38.3845 22.6608  C 38.3845 22.6608  39.3566 21.0972  39.3566 21.0972  C 39.3566 21.0972  38.8237 20.4288  38.8237 20.4288  C 38.8237 20.4288  39.8954 19.9382  39.8954 19.9382  C 39.8954 19.9382  40.4868 20.17  40.4868 20.17  C 40.4868 20.17  41.5058 19.2697  41.5058 19.2697  C 41.5058 19.2697  40.9963 18.7954  40.9963 18.7954  C 40.9963 18.7954  41.5995 18.0353  41.5995 18.0353  C 41.5995 18.0353  41.4589 16.8388  41.4589 16.8388  C 41.4589 16.8388  42.2202 16.9412  42.2202 16.9412  C 42.2202 16.9412  43.5496000000001 16.5531  43.5496000000001 16.5531  C 43.5496000000001 16.5531  44.4338 15.8148  44.4338 15.8148  C 44.4338 15.8148  42.4486000000001 15.2974  42.4486000000001 15.2974  C 42.4486000000001 15.2974  42.7766 14.6938  42.7766 14.6938  C 42.7766 14.6938  42.4135 12.3553  42.4135 12.3553  C 42.4135 12.3553  42.7648 10.599  42.7648 10.599  C 42.7648 10.599  45.0253 10.0819  45.0253 10.0819  C 45.0253 10.0819  45.4645 9.0745  45.4645 9.0745  C 45.4645 9.0745  45.3532 7.92180000000002  45.3532 7.92180000000002  C 45.3532 7.92180000000002  45.6812 7.18400000000003  45.6812 7.18400000000003  C 45.6812 7.18400000000003  45.2361 6.77999999999997  45.2361 6.77999999999997  C 45.2361 6.77999999999997  46.0442 5.62220000000002  46.0442 5.62220000000002  C 46.0442 5.62220000000002  46.6767 5.67599999999999  46.6767 5.67599999999999  C 46.6767 5.67599999999999  46.7236 4.98680000000002  46.7236 4.98680000000002  C 46.7236 4.98680000000002  47.9417 4.15210000000002  47.9417 4.15210000000002  C 47.9417 4.15210000000002  49.3178 4.39440000000002  49.3178 4.39440000000002  C 49.3178 4.39440000000002  51.9049 2.95670000000001  51.9049 2.95670000000001  C 51.9049 2.95670000000001  53.0351000000001 1.30930000000001  53.0351000000001 1.30930000000001  C 53.0351000000001 1.30930000000001  52.8945 0.841000000000008  52.8945 0.841000000000008  Z M 141.6626 277.0749  C 141.6626 277.0749  141.651 275.6921  141.651 275.6921  C 141.651 275.6921  145.5101 274.8086  145.5101 274.8086  C 145.5101 274.8086  148.4368 275.0007  148.4368 275.0007  C 148.4368 275.0007  149.5846 274.8634  149.5846 274.8634  C 149.5846 274.8634  151.5463 275.3079  151.5463 275.3079  C 151.5463 275.3079  153.1333 276.6797  153.1333 276.6797  C 153.1333 276.6797  153.5316 277.3054  153.5316 277.3054  C 153.5316 277.3054  154.5798 280.2746  154.5798 280.2746  C 154.5798 280.2746  155.1947 286.4131  155.1947 286.4131  C 155.1947 286.4131  155.0483 287.4454  155.0483 287.4454  C 155.0483 287.4454  153.9708 290.4164  153.9708 290.4164  C 153.9708 290.4164  152.9928 292.2234  152.9928 292.2234  C 152.9928 292.2234  151.6342 293.778  151.6342 293.778  C 151.6342 293.778  149.7836 295.3217  149.7836 295.3217  C 149.7836 295.3217  145.9318 295.8492  145.9318 295.8492  C 145.9318 295.8492  143.6713 295.959  143.6713 295.959  C 143.6713 295.959  141.7095 295.4207  141.7095 295.4207  C 141.7095 295.4207  140.1225 294.0967  140.1225 294.0967  C 140.1225 294.0967  140.0522 292.9375  140.0522 292.9375  C 140.0522 292.9375  140.8018 292.3114  140.8018 292.3114  C 140.8018 292.3114  143.3433 292.8496  143.3433 292.8496  C 143.3433 292.8496  146.1074 292.1795  146.1074 292.1795  C 146.1074 292.1795  148.7061 291.3062  148.7061 291.3062  C 148.7061 291.3062  150.668 289.0324  150.668 289.0324  C 150.668 289.0324  151.845 284.7268  151.845 284.7268  C 151.845 284.7268  151.7221 281.5756  151.7221 281.5756  C 151.7221 281.5756  151.1598 279.5885  151.1598 279.5885  C 151.1598 279.5885  150.5157 279.1  150.5157 279.1  C 150.5157 279.1  146.3534 278.7707  146.3534 278.7707  C 146.3534 278.7707  144.7195 279.0891  144.7195 279.0891  C 144.7195 279.0891  143.7943 278.3701  143.7943 278.3701  C 143.7943 278.3701  141.6041 278.5292  141.6041 278.5292  C 141.6041 278.5292  140.995 277.8761  140.995 277.8761  C 140.995 277.8761  141.6626 277.0749  141.6626 277.0749  Z M 16.3817 71.1125  C 16.3817 71.1125  14.6614 72.9675  14.6614 72.9675  C 14.6614 72.9675  14.7317 70.7554  14.7317 70.7554  C 14.7317 70.7554  16.3817 71.1125  16.3817 71.1125  Z M 140.1445 282.8876  C 140.1445 282.8876  140.0509 284.5574  140.0509 284.5574  C 140.0509 284.5574  137.4346 283.9754  137.4346 283.9754  C 137.4346 283.9754  138.0436 282.2398  138.0436 282.2398  C 138.0436 282.2398  140.1445 282.8876  140.1445 282.8876  Z M 22.4486000000001 76.5774  C 22.4486000000001 76.5774  20.6288 76.3934  20.6288 76.3934  C 20.6288 76.3934  22.3433 74.9604  22.3433 74.9604  C 22.3433 74.9604  22.4486000000001 76.5774  22.4486000000001 76.5774  Z M 78.5749 244.0136  C 78.5749 244.0136  78.5164 242.5078  78.5164 242.5078  C 78.5164 242.5078  79.0258 241.1664  79.0258 241.1664  C 79.0258 241.1664  80.1736 239.8415  80.1736 239.8415  C 80.1736 239.8415  82.8675 239.5021  82.8675 239.5021  C 82.8675 239.5021  85.7121 239.7813  85.7121 239.7813  C 85.7121 239.7813  87.1937 241.2102  87.1937 241.2102  C 87.1937 241.2102  88.2419 243.5208  88.2419 243.5208  C 88.2419 243.5208  88.8685 246.8263  88.8685 246.8263  C 88.8685 246.8263  88.9915 249.3183  88.9915 249.3183  C 88.9915 249.3183  88.0545 250.6439  88.0545 250.6439  C 88.0545 250.6439  86.9067 251.3506  86.9067 251.3506  C 86.9067 251.3506  85.1382 251.0712  85.1382 251.0712  C 85.1382 251.0712  82.0183 249.8222  82.0183 249.8222  C 82.0183 249.8222  79.2777 246.8865  79.2777 246.8865  C 79.2777 246.8865  78.5749 244.0136  78.5749 244.0136  Z M 77.5852 256.0984  C 77.5852 256.0984  77.2455 254.3173  77.2455 254.3173  C 77.2455 254.3173  77.6145 253.1503  77.6145 253.1503  C 77.6145 253.1503  79.3362 252.4544  79.3362 252.4544  C 79.3362 252.4544  82.8661 255.8298  82.8661 255.8298  C 82.8661 255.8298  83.9143 258.6932  83.9143 258.6932  C 83.9143 258.6932  83.7560999999999 261.2859  83.7560999999999 261.2859  C 83.7560999999999 261.2859  81.5425 261.6367  81.5425 261.6367  C 81.5425 261.6367  79.2659 260.7377  79.2659 260.7377  C 79.2659 260.7377  78.2118 258.9563  78.2118 258.9563  C 78.2118 258.9563  77.5852 256.0984  77.5852 256.0984  Z " fill-rule="evenodd" />
    </mask>
  </defs>
  <g transform="matrix(1 0 0 1 -578 -308 )">
    <path d="M 52.8945 0.841000000000008  C 52.8945 0.841000000000008  53.7788 0.593299999999999  53.7788 0.593299999999999  C 53.7788 0.593299999999999  54.3819 0.808699999999988  54.3819 0.808699999999988  C 54.3819 0.808699999999988  55.2077 2.64980000000003  55.2077 2.64980000000003  C 55.2077 2.64980000000003  56.8123000000001 3.87200000000001  56.8123000000001 3.87200000000001  C 56.8123000000001 3.87200000000001  56.9704 4.8252  56.9704 4.8252  C 56.9704 4.8252  57.7024 5.8322  57.7024 5.8322  C 57.7024 5.8322  59.6115 7.12470000000002  59.6115 7.12470000000002  C 59.6115 7.12470000000002  58.8619 8.41739999999999  58.8619 8.41739999999999  C 58.8619 8.41739999999999  58.7506 9.60239999999999  58.7506 9.60239999999999  C 58.7506 9.60239999999999  59.1488000000001 12.5008  59.1488000000001 12.5008  C 59.1488000000001 12.5008  60.4665 12.5331  60.4665 12.5331  C 60.4665 12.5331  61.1516 11.1485  61.1516 11.1485  C 61.1516 11.1485  62.9026 11.0354  62.9026 11.0354  C 62.9026 11.0354  63.9684 10.028  63.9684 10.028  C 63.9684 10.028  66.8554 9.58089999999999  66.8554 9.58089999999999  C 66.8554 9.58089999999999  67.5992 11.0785  67.5992 11.0785  C 67.5992 11.0785  69.4204999999999 13.3467  69.4204999999999 13.3467  C 69.4204999999999 13.3467  70.0646 14.4622  70.0646 14.4622  C 70.0646 14.4622  69.5434 15.3837  69.5434 15.3837  C 69.5434 15.3837  68.7177 15.6154  68.7177 15.6154  C 68.7177 15.6154  68.3546 17.173  68.3546 17.173  C 68.3546 17.173  68.3839 19.4692  68.3839 19.4692  C 68.3839 19.4692  70.4394 20.9139  70.4394 20.9139  C 70.4394 20.9139  70.9781 22.3697  70.9781 22.3697  C 70.9781 22.3697  69.397 23.3241  69.397 23.3241  C 69.397 23.3241  68.3546 23.2809  68.3546 23.2809  C 68.3546 23.2809  66.1235 23.7663  66.1235 23.7663  C 66.1235 23.7663  65.3622 23.7124  65.3622 23.7124  C 65.3622 23.7124  64.6829 24.5859  64.6829 24.5859  C 64.6829 24.5859  64.7473 25.6753  64.7473 25.6753  C 64.7473 25.6753  65.3329 26.6677  65.3329 26.6677  C 65.3329 26.6677  64.9054 28.9439  64.9054 28.9439  C 64.9054 28.9439  63.8747 27.1585  63.8747 27.1585  C 63.8747 27.1585  63.2598 28.383  63.2598 28.383  C 63.2598 28.383  63.4823 29.0249  63.4823 29.0249  C 63.4823 29.0249  62.8791 29.942  62.8791 29.942  C 62.8791 29.942  64.9698 31.5713  64.9698 31.5713  C 64.9698 31.5713  65.772 32.4455  65.772 32.4455  C 65.772 32.4455  67.0838 32.5426  67.0838 32.5426  C 67.0838 32.5426  67.9037 34.4529  67.9037 34.4529  C 67.9037 34.4529  68.5244 35.1167  68.5244 35.1167  C 68.5244 35.1167  71.0953 36.1475  71.0953 36.1475  C 71.0953 36.1475  71.0777000000001 37.2378  71.0777000000001 37.2378  C 71.0777000000001 37.2378  72.4948000000001 38.6035  72.4948000000001 38.6035  C 72.4948000000001 38.6035  73.4787 36.6602  73.4787 36.6602  C 73.4787 36.6602  74.9426999999999 36.4875  74.9426999999999 36.4875  C 74.9426999999999 36.4875  76.1138999999999 35.4782  76.1138999999999 35.4782  C 76.1138999999999 35.4782  76.8752 35.8668  76.8752 35.8668  C 76.8752 35.8668  77.4725 37.227  77.4725 37.227  C 77.4725 37.227  77.9703 37.362  77.9703 37.362  C 77.9703 37.362  77.7888 38.4685  77.7888 38.4685  C 77.7888 38.4685  79.2469 40.2933  79.2469 40.2933  C 79.2469 40.2933  79.083 41.8266  79.083 41.8266  C 79.083 41.8266  80.0493 41.9454  80.0493 41.9454  C 80.0493 41.9454  80.1078 42.426  80.1078 42.426  C 80.1078 42.426  81.1502 44.2738  81.1502 44.2738  C 81.1502 44.2738  81.3200000000001 44.8517  81.3200000000001 44.8517  C 81.3200000000001 44.8517  80.4299 45.7643  80.4299 45.7643  C 80.4299 45.7643  80.0785 47.1902  80.0785 47.1902  C 80.0785 47.1902  79.083 46.569  79.083 46.569  C 79.083 46.569  78.0054 47.8762  78.0054 47.8762  C 78.0054 47.8762  79.4285 49.0376  79.4285 49.0376  C 79.4285 49.0376  80.3655 47.471  80.3655 47.471  C 80.3655 47.471  80.7871 47.8924  80.7871 47.8924  C 80.7871 47.8924  79.6803 50.0747  79.6803 50.0747  C 79.6803 50.0747  79.9848 50.6852  79.9848 50.6852  C 79.9848 50.6852  79.3524 50.9878  79.3524 50.9878  C 79.3524 50.9878  79.9321 52.452  79.9321 52.452  C 79.9321 52.452  79.5515 54.1218  79.5515 54.1218  C 79.5515 54.1218  80.711 54.0461  80.711 54.0461  C 80.711 54.0461  81.0565 54.8027  81.0565 54.8027  C 81.0565 54.8027  81.8002 52.7438  81.8002 52.7438  C 81.8002 52.7438  82.1516 54.5757  82.1516 54.5757  C 82.1516 54.5757  81.3317 55.3971  81.3317 55.3971  C 81.3317 55.3971  82.2569999999999 55.9214  82.2569999999999 55.9214  C 82.2569999999999 55.9214  82.5674 57.2186  82.5674 57.2186  C 82.5674 57.2186  84.0431 56.0457  84.0431 56.0457  C 84.0431 56.0457  84.2773 55.208  84.2773 55.208  C 84.2773 55.208  85.1967 56.3862  85.1967 56.3862  C 85.1967 56.3862  85.8995 55.8727  85.8995 55.8727  C 85.8995 55.8727  88.0955 57.7753  88.0955 57.7753  C 88.0955 57.7753  89.9754 58.251  89.9754 58.251  C 89.9754 58.251  90.4614 59.7052  90.4614 59.7052  C 90.4614 59.7052  92.2474999999999 60.7595  92.2474999999999 60.7595  C 92.2474999999999 60.7595  93.3543 60.6189  93.3543 60.6189  C 93.3543 60.6189  94.1683 59.7971  94.1683 59.7971  C 94.1683 59.7971  94.8359 60.846  94.8359 60.846  C 94.8359 60.846  95.7729000000001 61.2623  95.7729000000001 61.2623  C 95.7729000000001 61.2623  97.0261 60.527  97.0261 60.527  C 97.0261 60.527  96.6864 58.4618  96.6864 58.4618  C 96.6864 58.4618  97.7171 57.1969  97.7171 57.1969  C 97.7171 57.1969  98.9938 56.6294  98.9938 56.6294  C 98.9938 56.6294  100.0185 57.2077  100.0185 57.2077  C 100.0185 57.2077  100.9555 57.1213  100.9555 57.1213  C 100.9555 57.1213  101.1839 58.3807  101.1839 58.3807  C 101.1839 58.3807  100.1884 59.9323  100.1884 59.9323  C 100.1884 59.9323  99.4388 60.581  99.4388 60.581  C 99.4388 60.581  98.5662 62.3004  98.5662 62.3004  C 98.5662 62.3004  97.3481 63.874  97.3481 63.874  C 97.3481 63.874  95.7085 65.5235  95.7085 65.5235  C 95.7085 65.5235  95.1287 65.6641  95.1287 65.6641  C 95.1287 65.6641  94.3908 66.6215  94.3908 66.6215  C 94.3908 66.6215  93.2079 67.0542  93.2079 67.0542  C 93.2079 67.0542  92.0132 68.2226  92.0132 68.2226  C 92.0132 68.2226  91.2637 68.3362  91.2637 68.3362  C 91.2637 68.3362  90.5844 67.8439  90.5844 67.8439  C 90.5844 67.8439  90.0398 66.4916  90.0398 66.4916  C 90.0398 66.4916  89.2316 65.6046  89.2316 65.6046  C 89.2316 65.6046  88.1307 65.491  88.1307 65.491  C 88.1307 65.491  86.8189 65.8913  86.8189 65.8913  C 86.8189 65.8913  84.658 67.184  84.658 67.184  C 84.658 67.184  83.6391 67.3084  83.6391 67.3084  C 83.6391 67.3084  82.0169 68.7581  82.0169 68.7581  C 82.0169 68.7581  80.7519 70.4352  80.7519 70.4352  C 80.7519 70.4352  80.0667999999999 70.4893  80.0667999999999 70.4893  C 80.0667999999999 70.4893  79.4344 69.7644  79.4344 69.7644  C 79.4344 69.7644  78.4564 69.878  78.4564 69.878  C 78.4564 69.878  76.9279 71.355  76.9279 71.355  C 76.9279 71.355  74.931 71.539  74.931 71.539  C 74.931 71.539  73.3323 73.0216  73.3323 73.0216  C 73.3323 73.0216  71.9913 75.2296  71.9913 75.2296  C 71.9913 75.2296  70.8025 76.6965  70.8025 76.6965  C 70.8025 76.6965  69.9943 77.0375  69.9943 77.0375  C 69.9943 77.0375  68.952 76.7993  68.952 76.7993  C 68.952 76.7993  68.1204 75.6735  68.1204 75.6735  C 68.1204 75.6735  68.0501 73.8766  68.0501 73.8766  C 68.0501 73.8766  68.2551 71.7175  68.2551 71.7175  C 68.2551 71.7175  68.1614 70.1593  68.1614 70.1593  C 68.1614 70.1593  67.6753 69.0286  67.6753 69.0286  C 67.6753 69.0286  65.1923 66.2428  65.1923 66.2428  C 65.1923 66.2428  63.986 65.8859  63.986 65.8859  C 63.986 65.8859  60.6363 65.6858  60.6363 65.6858  C 60.6363 65.6858  60.1795 64.2309  60.1795 64.2309  C 60.1795 64.2309  59.588 63.5333  59.588 63.5333  C 59.588 63.5333  57.4213 63.3765  57.4213 63.3765  C 57.4213 63.3765  55.7581 63.9281  55.7581 63.9281  C 55.7581 63.9281  53.199 65.7128  53.199 65.7128  C 53.199 65.7128  52.0337 67.1353  52.0337 67.1353  C 52.0337 67.1353  51.7643 69.5534  51.7643 69.5534  C 51.7643 69.5534  50.0146999999999 71.4199  50.0146999999999 71.4199  C 50.0146999999999 71.4199  48.1817 73.4329  48.1817 73.4329  C 48.1817 73.4329  47.8244999999999 74.5801  47.8244999999999 74.5801  C 47.8244999999999 74.5801  48.4277 75.2296  48.4277 75.2296  C 48.4277 75.2296  51.2489 74.8237  51.2489 74.8237  C 51.2489 74.8237  52.3675 75.6518  52.3675 75.6518  C 52.3675 75.6518  53.4742 74.7425  53.4742 74.7425  C 53.4742 74.7425  53.9779 74.8562  53.9779 74.8562  C 53.9779 74.8562  53.8607 77.0212  53.8607 77.0212  C 53.8607 77.0212  52.4436 77.7574  52.4436 77.7574  C 52.4436 77.7574  49.8156 80.6158  49.8156 80.6158  C 49.8156 80.6158  49.634 81.715  49.634 81.715  C 49.634 81.715  51.899 82.9659  51.899 82.9659  C 51.899 82.9659  51.3075 85.2783  51.3075 85.2783  C 51.3075 85.2783  49.1598 84.4605  49.1598 84.4605  C 49.1598 84.4605  48.9723 83.7782  48.9723 83.7782  C 48.9723 83.7782  47.5259 84.011  47.5259 84.011  C 47.5259 84.011  45.2361 82.0074  45.2361 82.0074  C 45.2361 82.0074  44.1645 81.9858  44.1645 81.9858  C 44.1645 81.9858  42.4779 80.4534  42.4779 80.4534  C 42.4779 80.4534  40.1706 80.8161  40.1706 80.8161  C 40.1706 80.8161  39.2219 81.8829  39.2219 81.8829  C 39.2219 81.8829  36.7624 81.7367  36.7624 81.7367  C 36.7624 81.7367  35.5735 81.8667  35.5735 81.8667  C 35.5735 81.8667  35.3862 80.8757  35.3862 80.8757  C 35.3862 80.8757  34.3789 80.4317  34.3789 80.4317  C 34.3789 80.4317  33.2663 79.1595  33.2663 79.1595  C 33.2663 79.1595  32.5518 77.6654  32.5518 77.6654  C 32.5518 77.6654  32.909 75.8521  32.909 75.8521  C 32.909 75.8521  32.6748 73.2543  32.6748 73.2543  C 32.6748 73.2543  32.259 72.421  32.259 72.421  C 32.259 72.421  31.4099 71.9123  31.4099 71.9123  C 31.4099 71.9123  30.1391 71.6634  30.1391 71.6634  C 30.1391 71.6634  28.1656 71.7716  28.1656 71.7716  C 28.1656 71.7716  24.447 72.5346  24.447 72.5346  C 24.447 72.5346  23.9317 71.8582  23.9317 71.8582  C 23.9317 71.8582  24.2595 69.8672  24.2595 69.8672  C 24.2595 69.8672  26.2623 68.2713  26.2623 68.2713  C 26.2623 68.2713  25.1028 67.6059  25.1028 67.6059  C 25.1028 67.6059  23.8497 67.4707  23.8497 67.4707  C 23.8497 67.4707  21.6068 67.8169  21.6068 67.8169  C 21.6068 67.8169  20.9684 68.1468  20.9684 68.1468  C 20.9684 68.1468  20.5 69.9808  20.5 69.9808  C 20.5 69.9808  21.2027 70.9222  21.2027 70.9222  C 21.2027 70.9222  21.2788 72.5454  21.2788 72.5454  C 21.2788 72.5454  20.8279 72.8268  20.8279 72.8268  C 20.8279 72.8268  19.7211 72.5562  19.7211 72.5562  C 19.7211 72.5562  18.749 71.3767  18.749 71.3767  C 18.749 71.3767  18.2395 69.878  18.2395 69.878  C 18.2395 69.878  16.6232 70.0511  16.6232 70.0511  C 16.6232 70.0511  14.5501 71.0466  14.5501 71.0466  C 14.5501 71.0466  12.6821 71.1656  12.6821 71.1656  C 12.6821 71.1656  11.5460000000001 71.5119  11.5460000000001 71.5119  C 11.5460000000001 71.5119  10.6442 72.2478  10.6442 72.2478  C 10.6442 72.2478  10.328 73.6493  10.328 73.6493  C 10.328 73.6493  10.5212 75.3921  10.5212 75.3921  C 10.5212 75.3921  9.03380000000004 75.706  9.03380000000004 75.706  C 9.03380000000004 75.706  8.24900000000002 76.5124  8.24900000000002 76.5124  C 8.24900000000002 76.5124  8.2432 77.5679  8.2432 77.5679  C 8.2432 77.5679  9.06880000000001 78.001  9.06880000000001 78.001  C 9.06880000000001 78.001  9.42020000000002 79.1324  9.42020000000002 79.1324  C 9.42020000000002 79.1324  8.43050000000005 80.0149  8.43050000000005 80.0149  C 8.43050000000005 80.0149  8.19629999999995 78.4449  8.19629999999995 78.4449  C 8.19629999999995 78.4449  7.18320000000006 77.254  7.18320000000006 77.254  C 7.18320000000006 77.254  6.97820000000002 76.0848  6.97820000000002 76.0848  C 6.97820000000002 76.0848  6.00609999999995 74.6938  6.00609999999995 74.6938  C 6.00609999999995 74.6938  6.41610000000003 72.7402  6.41610000000003 72.7402  C 6.41610000000003 72.7402  5.84209999999996 72.9945  5.84209999999996 72.9945  C 5.84209999999996 72.9945  4.72950000000003 72.4264  4.72950000000003 72.4264  C 4.72950000000003 72.4264  4.46590000000003 71.263  4.46590000000003 71.263  C 4.46590000000003 71.263  2.82039999999995 70.5975  2.82039999999995 70.5975  C 2.82039999999995 70.5975  2.18209999999999 69.0881  2.18209999999999 69.0881  C 2.18209999999999 69.0881  2.65639999999996 68.4011  2.65639999999996 68.4011  C 2.65639999999996 68.4011  2.62130000000002 66.5079  2.62130000000002 66.5079  C 2.62130000000002 66.5079  1.88930000000005 65.7182  1.88930000000005 65.7182  C 1.88930000000005 65.7182  1.21000000000004 65.9237  1.21000000000004 65.9237  C 1.21000000000004 65.9237  0.928899999999999 64.9773  0.928899999999999 64.9773  C 0.928899999999999 64.9773  1.2627 64.0308  1.2627 64.0308  C 1.2627 64.0308  0.706400000000031 63.0845  0.706400000000031 63.0845  C 0.706400000000031 63.0845  1.7722 62.906  1.7722 62.906  C 1.7722 62.906  1.94190000000003 62.1544  1.94190000000003 62.1544  C 1.94190000000003 62.1544  0.782500000000027 60.8297  0.782500000000027 60.8297  C 0.782500000000027 60.8297  0.794200000000046 59.7701  0.794200000000046 59.7701  C 0.794200000000046 59.7701  0.149999999999977 59.143  0.149999999999977 59.143  C 0.149999999999977 59.143  1.11040000000003 57.7483  1.11040000000003 57.7483  C 1.11040000000003 57.7483  2.32849999999996 57.8834  2.32849999999996 57.8834  C 2.32849999999996 57.8834  2.87890000000004 56.9375  2.87890000000004 56.9375  C 2.87890000000004 56.9375  3.82770000000005 57.1375  3.82770000000005 57.1375  C 3.82770000000005 57.1375  4.59479999999996 55.916  4.59479999999996 55.916  C 4.59479999999996 55.916  5.38530000000003 56.2835  5.38530000000003 56.2835  C 5.38530000000003 56.2835  6.26379999999995 55.916  6.26379999999995 55.916  C 6.26379999999995 55.916  6.42780000000005 54.8135  6.42780000000005 54.8135  C 6.42780000000005 54.8135  7.20079999999996 54.1596  7.20079999999996 54.1596  C 7.20079999999996 54.1596  7.96209999999996 54.2028  7.96209999999996 54.2028  C 7.96209999999996 54.2028  9.75990000000002 52.733  9.75990000000002 52.733  C 9.75990000000002 52.733  10.0937 53.0464  10.0937 53.0464  C 10.0937 53.0464  11.1946 50.2692  11.1946 50.2692  C 11.1946 50.2692  12.237 50.1558  12.237 50.1558  C 12.237 50.1558  12.155 49.6965  12.155 49.6965  C 12.155 49.6965  12.9983 48.8809  12.9983 48.8809  C 12.9983 48.8809  14.0231 50.0531  14.0231 50.0531  C 14.0231 50.0531  14.9133 48.6918  14.9133 48.6918  C 14.9133 48.6918  16.3244999999999 49.3347  16.3244999999999 49.3347  C 16.3244999999999 49.3347  17.6539 50.5718  17.6539 50.5718  C 17.6539 50.5718  17.8003 49.6317  17.8003 49.6317  C 17.8003 49.6317  18.9129 48.3893  18.9129 48.3893  C 18.9129 48.3893  19.1121000000001 46.9093  19.1121000000001 46.9093  C 19.1121000000001 46.9093  20.2188 45.559  20.2188 45.559  C 20.2188 45.559  21.273 45.0191  21.273 45.0191  C 21.273 45.0191  21.8937 45.2027  21.8937 45.2027  C 21.8937 45.2027  23.2992 44.0902  23.2992 44.0902  C 23.2992 44.0902  23.7735 44.1874  23.7735 44.1874  C 23.7735 44.1874  25.22 42.372  25.22 42.372  C 25.22 42.372  25.6532999999999 41.1733  25.6532999999999 41.1733  C 25.6532999999999 41.1733  26.7483999999999 40.0989  26.7483999999999 40.0989  C 26.7483999999999 40.0989  26.5025000000001 39.3539  26.5025000000001 39.3539  C 26.5025000000001 39.3539  28.6107 38.9328  28.6107 38.9328  C 28.6107 38.9328  28.4174 36.6602  28.4174 36.6602  C 28.4174 36.6602  27.9313 35.9316  27.9313 35.9316  C 27.9313 35.9316  28.2358 34.863  28.2358 34.863  C 28.2358 34.863  27.9548 33.8808  27.9548 33.8808  C 27.9548 33.8808  28.0953 32.6289  28.0953 32.6289  C 28.0953 32.6289  28.9327 32.2674  28.9327 32.2674  C 28.9327 32.2674  30.2445 32.6073  30.2445 32.6073  C 30.2445 32.6073  30.6603 32.0084  30.6603 32.0084  C 30.6603 32.0084  31.2868999999999 32.4293  31.2868999999999 32.4293  C 31.2868999999999 32.4293  32.177 31.3177  32.177 31.3177  C 32.177 31.3177  32.5928 28.89  32.5928 28.89  C 32.5928 28.89  35.1812 27.768  35.1812 27.768  C 35.1812 27.768  36.0889 26.2309  36.0889 26.2309  C 36.0889 26.2309  37.3362 26.2686  37.3362 26.2686  C 37.3362 26.2686  37.2367 25.1684  37.2367 25.1684  C 37.2367 25.1684  37.7345 24.4242  37.7345 24.4242  C 37.7345 24.4242  38.9290999999999 24.5913  38.9290999999999 24.5913  C 38.9290999999999 24.5913  38.4723 23.831  38.4723 23.831  C 38.4723 23.831  38.3845 22.6608  38.3845 22.6608  C 38.3845 22.6608  39.3566 21.0972  39.3566 21.0972  C 39.3566 21.0972  38.8237 20.4288  38.8237 20.4288  C 38.8237 20.4288  39.8954 19.9382  39.8954 19.9382  C 39.8954 19.9382  40.4868 20.17  40.4868 20.17  C 40.4868 20.17  41.5058 19.2697  41.5058 19.2697  C 41.5058 19.2697  40.9963 18.7954  40.9963 18.7954  C 40.9963 18.7954  41.5995 18.0353  41.5995 18.0353  C 41.5995 18.0353  41.4589 16.8388  41.4589 16.8388  C 41.4589 16.8388  42.2202 16.9412  42.2202 16.9412  C 42.2202 16.9412  43.5496000000001 16.5531  43.5496000000001 16.5531  C 43.5496000000001 16.5531  44.4338 15.8148  44.4338 15.8148  C 44.4338 15.8148  42.4486000000001 15.2974  42.4486000000001 15.2974  C 42.4486000000001 15.2974  42.7766 14.6938  42.7766 14.6938  C 42.7766 14.6938  42.4135 12.3553  42.4135 12.3553  C 42.4135 12.3553  42.7648 10.599  42.7648 10.599  C 42.7648 10.599  45.0253 10.0819  45.0253 10.0819  C 45.0253 10.0819  45.4645 9.0745  45.4645 9.0745  C 45.4645 9.0745  45.3532 7.92180000000002  45.3532 7.92180000000002  C 45.3532 7.92180000000002  45.6812 7.18400000000003  45.6812 7.18400000000003  C 45.6812 7.18400000000003  45.2361 6.77999999999997  45.2361 6.77999999999997  C 45.2361 6.77999999999997  46.0442 5.62220000000002  46.0442 5.62220000000002  C 46.0442 5.62220000000002  46.6767 5.67599999999999  46.6767 5.67599999999999  C 46.6767 5.67599999999999  46.7236 4.98680000000002  46.7236 4.98680000000002  C 46.7236 4.98680000000002  47.9417 4.15210000000002  47.9417 4.15210000000002  C 47.9417 4.15210000000002  49.3178 4.39440000000002  49.3178 4.39440000000002  C 49.3178 4.39440000000002  51.9049 2.95670000000001  51.9049 2.95670000000001  C 51.9049 2.95670000000001  53.0351000000001 1.30930000000001  53.0351000000001 1.30930000000001  C 53.0351000000001 1.30930000000001  52.8945 0.841000000000008  52.8945 0.841000000000008  Z M 141.6626 277.0749  C 141.6626 277.0749  141.651 275.6921  141.651 275.6921  C 141.651 275.6921  145.5101 274.8086  145.5101 274.8086  C 145.5101 274.8086  148.4368 275.0007  148.4368 275.0007  C 148.4368 275.0007  149.5846 274.8634  149.5846 274.8634  C 149.5846 274.8634  151.5463 275.3079  151.5463 275.3079  C 151.5463 275.3079  153.1333 276.6797  153.1333 276.6797  C 153.1333 276.6797  153.5316 277.3054  153.5316 277.3054  C 153.5316 277.3054  154.5798 280.2746  154.5798 280.2746  C 154.5798 280.2746  155.1947 286.4131  155.1947 286.4131  C 155.1947 286.4131  155.0483 287.4454  155.0483 287.4454  C 155.0483 287.4454  153.9708 290.4164  153.9708 290.4164  C 153.9708 290.4164  152.9928 292.2234  152.9928 292.2234  C 152.9928 292.2234  151.6342 293.778  151.6342 293.778  C 151.6342 293.778  149.7836 295.3217  149.7836 295.3217  C 149.7836 295.3217  145.9318 295.8492  145.9318 295.8492  C 145.9318 295.8492  143.6713 295.959  143.6713 295.959  C 143.6713 295.959  141.7095 295.4207  141.7095 295.4207  C 141.7095 295.4207  140.1225 294.0967  140.1225 294.0967  C 140.1225 294.0967  140.0522 292.9375  140.0522 292.9375  C 140.0522 292.9375  140.8018 292.3114  140.8018 292.3114  C 140.8018 292.3114  143.3433 292.8496  143.3433 292.8496  C 143.3433 292.8496  146.1074 292.1795  146.1074 292.1795  C 146.1074 292.1795  148.7061 291.3062  148.7061 291.3062  C 148.7061 291.3062  150.668 289.0324  150.668 289.0324  C 150.668 289.0324  151.845 284.7268  151.845 284.7268  C 151.845 284.7268  151.7221 281.5756  151.7221 281.5756  C 151.7221 281.5756  151.1598 279.5885  151.1598 279.5885  C 151.1598 279.5885  150.5157 279.1  150.5157 279.1  C 150.5157 279.1  146.3534 278.7707  146.3534 278.7707  C 146.3534 278.7707  144.7195 279.0891  144.7195 279.0891  C 144.7195 279.0891  143.7943 278.3701  143.7943 278.3701  C 143.7943 278.3701  141.6041 278.5292  141.6041 278.5292  C 141.6041 278.5292  140.995 277.8761  140.995 277.8761  C 140.995 277.8761  141.6626 277.0749  141.6626 277.0749  Z M 16.3817 71.1125  C 16.3817 71.1125  14.6614 72.9675  14.6614 72.9675  C 14.6614 72.9675  14.7317 70.7554  14.7317 70.7554  C 14.7317 70.7554  16.3817 71.1125  16.3817 71.1125  Z M 140.1445 282.8876  C 140.1445 282.8876  140.0509 284.5574  140.0509 284.5574  C 140.0509 284.5574  137.4346 283.9754  137.4346 283.9754  C 137.4346 283.9754  138.0436 282.2398  138.0436 282.2398  C 138.0436 282.2398  140.1445 282.8876  140.1445 282.8876  Z M 22.4486000000001 76.5774  C 22.4486000000001 76.5774  20.6288 76.3934  20.6288 76.3934  C 20.6288 76.3934  22.3433 74.9604  22.3433 74.9604  C 22.3433 74.9604  22.4486000000001 76.5774  22.4486000000001 76.5774  Z M 78.5749 244.0136  C 78.5749 244.0136  78.5164 242.5078  78.5164 242.5078  C 78.5164 242.5078  79.0258 241.1664  79.0258 241.1664  C 79.0258 241.1664  80.1736 239.8415  80.1736 239.8415  C 80.1736 239.8415  82.8675 239.5021  82.8675 239.5021  C 82.8675 239.5021  85.7121 239.7813  85.7121 239.7813  C 85.7121 239.7813  87.1937 241.2102  87.1937 241.2102  C 87.1937 241.2102  88.2419 243.5208  88.2419 243.5208  C 88.2419 243.5208  88.8685 246.8263  88.8685 246.8263  C 88.8685 246.8263  88.9915 249.3183  88.9915 249.3183  C 88.9915 249.3183  88.0545 250.6439  88.0545 250.6439  C 88.0545 250.6439  86.9067 251.3506  86.9067 251.3506  C 86.9067 251.3506  85.1382 251.0712  85.1382 251.0712  C 85.1382 251.0712  82.0183 249.8222  82.0183 249.8222  C 82.0183 249.8222  79.2777 246.8865  79.2777 246.8865  C 79.2777 246.8865  78.5749 244.0136  78.5749 244.0136  Z M 77.5852 256.0984  C 77.5852 256.0984  77.2455 254.3173  77.2455 254.3173  C 77.2455 254.3173  77.6145 253.1503  77.6145 253.1503  C 77.6145 253.1503  79.3362 252.4544  79.3362 252.4544  C 79.3362 252.4544  82.8661 255.8298  82.8661 255.8298  C 82.8661 255.8298  83.9143 258.6932  83.9143 258.6932  C 83.9143 258.6932  83.7560999999999 261.2859  83.7560999999999 261.2859  C 83.7560999999999 261.2859  81.5425 261.6367  81.5425 261.6367  C 81.5425 261.6367  79.2659 260.7377  79.2659 260.7377  C 79.2659 260.7377  78.2118 258.9563  78.2118 258.9563  C 78.2118 258.9563  77.5852 256.0984  77.5852 256.0984  Z " fill-rule="nonzero" fill="#ffffff" stroke="none" transform="matrix(1 0 0 1 578 308 )" />
    <path d="M 52.8945 0.841000000000008  C 52.8945 0.841000000000008  53.7788 0.593299999999999  53.7788 0.593299999999999  C 53.7788 0.593299999999999  54.3819 0.808699999999988  54.3819 0.808699999999988  C 54.3819 0.808699999999988  55.2077 2.64980000000003  55.2077 2.64980000000003  C 55.2077 2.64980000000003  56.8123000000001 3.87200000000001  56.8123000000001 3.87200000000001  C 56.8123000000001 3.87200000000001  56.9704 4.8252  56.9704 4.8252  C 56.9704 4.8252  57.7024 5.8322  57.7024 5.8322  C 57.7024 5.8322  59.6115 7.12470000000002  59.6115 7.12470000000002  C 59.6115 7.12470000000002  58.8619 8.41739999999999  58.8619 8.41739999999999  C 58.8619 8.41739999999999  58.7506 9.60239999999999  58.7506 9.60239999999999  C 58.7506 9.60239999999999  59.1488000000001 12.5008  59.1488000000001 12.5008  C 59.1488000000001 12.5008  60.4665 12.5331  60.4665 12.5331  C 60.4665 12.5331  61.1516 11.1485  61.1516 11.1485  C 61.1516 11.1485  62.9026 11.0354  62.9026 11.0354  C 62.9026 11.0354  63.9684 10.028  63.9684 10.028  C 63.9684 10.028  66.8554 9.58089999999999  66.8554 9.58089999999999  C 66.8554 9.58089999999999  67.5992 11.0785  67.5992 11.0785  C 67.5992 11.0785  69.4204999999999 13.3467  69.4204999999999 13.3467  C 69.4204999999999 13.3467  70.0646 14.4622  70.0646 14.4622  C 70.0646 14.4622  69.5434 15.3837  69.5434 15.3837  C 69.5434 15.3837  68.7177 15.6154  68.7177 15.6154  C 68.7177 15.6154  68.3546 17.173  68.3546 17.173  C 68.3546 17.173  68.3839 19.4692  68.3839 19.4692  C 68.3839 19.4692  70.4394 20.9139  70.4394 20.9139  C 70.4394 20.9139  70.9781 22.3697  70.9781 22.3697  C 70.9781 22.3697  69.397 23.3241  69.397 23.3241  C 69.397 23.3241  68.3546 23.2809  68.3546 23.2809  C 68.3546 23.2809  66.1235 23.7663  66.1235 23.7663  C 66.1235 23.7663  65.3622 23.7124  65.3622 23.7124  C 65.3622 23.7124  64.6829 24.5859  64.6829 24.5859  C 64.6829 24.5859  64.7473 25.6753  64.7473 25.6753  C 64.7473 25.6753  65.3329 26.6677  65.3329 26.6677  C 65.3329 26.6677  64.9054 28.9439  64.9054 28.9439  C 64.9054 28.9439  63.8747 27.1585  63.8747 27.1585  C 63.8747 27.1585  63.2598 28.383  63.2598 28.383  C 63.2598 28.383  63.4823 29.0249  63.4823 29.0249  C 63.4823 29.0249  62.8791 29.942  62.8791 29.942  C 62.8791 29.942  64.9698 31.5713  64.9698 31.5713  C 64.9698 31.5713  65.772 32.4455  65.772 32.4455  C 65.772 32.4455  67.0838 32.5426  67.0838 32.5426  C 67.0838 32.5426  67.9037 34.4529  67.9037 34.4529  C 67.9037 34.4529  68.5244 35.1167  68.5244 35.1167  C 68.5244 35.1167  71.0953 36.1475  71.0953 36.1475  C 71.0953 36.1475  71.0777000000001 37.2378  71.0777000000001 37.2378  C 71.0777000000001 37.2378  72.4948000000001 38.6035  72.4948000000001 38.6035  C 72.4948000000001 38.6035  73.4787 36.6602  73.4787 36.6602  C 73.4787 36.6602  74.9426999999999 36.4875  74.9426999999999 36.4875  C 74.9426999999999 36.4875  76.1138999999999 35.4782  76.1138999999999 35.4782  C 76.1138999999999 35.4782  76.8752 35.8668  76.8752 35.8668  C 76.8752 35.8668  77.4725 37.227  77.4725 37.227  C 77.4725 37.227  77.9703 37.362  77.9703 37.362  C 77.9703 37.362  77.7888 38.4685  77.7888 38.4685  C 77.7888 38.4685  79.2469 40.2933  79.2469 40.2933  C 79.2469 40.2933  79.083 41.8266  79.083 41.8266  C 79.083 41.8266  80.0493 41.9454  80.0493 41.9454  C 80.0493 41.9454  80.1078 42.426  80.1078 42.426  C 80.1078 42.426  81.1502 44.2738  81.1502 44.2738  C 81.1502 44.2738  81.3200000000001 44.8517  81.3200000000001 44.8517  C 81.3200000000001 44.8517  80.4299 45.7643  80.4299 45.7643  C 80.4299 45.7643  80.0785 47.1902  80.0785 47.1902  C 80.0785 47.1902  79.083 46.569  79.083 46.569  C 79.083 46.569  78.0054 47.8762  78.0054 47.8762  C 78.0054 47.8762  79.4285 49.0376  79.4285 49.0376  C 79.4285 49.0376  80.3655 47.471  80.3655 47.471  C 80.3655 47.471  80.7871 47.8924  80.7871 47.8924  C 80.7871 47.8924  79.6803 50.0747  79.6803 50.0747  C 79.6803 50.0747  79.9848 50.6852  79.9848 50.6852  C 79.9848 50.6852  79.3524 50.9878  79.3524 50.9878  C 79.3524 50.9878  79.9321 52.452  79.9321 52.452  C 79.9321 52.452  79.5515 54.1218  79.5515 54.1218  C 79.5515 54.1218  80.711 54.0461  80.711 54.0461  C 80.711 54.0461  81.0565 54.8027  81.0565 54.8027  C 81.0565 54.8027  81.8002 52.7438  81.8002 52.7438  C 81.8002 52.7438  82.1516 54.5757  82.1516 54.5757  C 82.1516 54.5757  81.3317 55.3971  81.3317 55.3971  C 81.3317 55.3971  82.2569999999999 55.9214  82.2569999999999 55.9214  C 82.2569999999999 55.9214  82.5674 57.2186  82.5674 57.2186  C 82.5674 57.2186  84.0431 56.0457  84.0431 56.0457  C 84.0431 56.0457  84.2773 55.208  84.2773 55.208  C 84.2773 55.208  85.1967 56.3862  85.1967 56.3862  C 85.1967 56.3862  85.8995 55.8727  85.8995 55.8727  C 85.8995 55.8727  88.0955 57.7753  88.0955 57.7753  C 88.0955 57.7753  89.9754 58.251  89.9754 58.251  C 89.9754 58.251  90.4614 59.7052  90.4614 59.7052  C 90.4614 59.7052  92.2474999999999 60.7595  92.2474999999999 60.7595  C 92.2474999999999 60.7595  93.3543 60.6189  93.3543 60.6189  C 93.3543 60.6189  94.1683 59.7971  94.1683 59.7971  C 94.1683 59.7971  94.8359 60.846  94.8359 60.846  C 94.8359 60.846  95.7729000000001 61.2623  95.7729000000001 61.2623  C 95.7729000000001 61.2623  97.0261 60.527  97.0261 60.527  C 97.0261 60.527  96.6864 58.4618  96.6864 58.4618  C 96.6864 58.4618  97.7171 57.1969  97.7171 57.1969  C 97.7171 57.1969  98.9938 56.6294  98.9938 56.6294  C 98.9938 56.6294  100.0185 57.2077  100.0185 57.2077  C 100.0185 57.2077  100.9555 57.1213  100.9555 57.1213  C 100.9555 57.1213  101.1839 58.3807  101.1839 58.3807  C 101.1839 58.3807  100.1884 59.9323  100.1884 59.9323  C 100.1884 59.9323  99.4388 60.581  99.4388 60.581  C 99.4388 60.581  98.5662 62.3004  98.5662 62.3004  C 98.5662 62.3004  97.3481 63.874  97.3481 63.874  C 97.3481 63.874  95.7085 65.5235  95.7085 65.5235  C 95.7085 65.5235  95.1287 65.6641  95.1287 65.6641  C 95.1287 65.6641  94.3908 66.6215  94.3908 66.6215  C 94.3908 66.6215  93.2079 67.0542  93.2079 67.0542  C 93.2079 67.0542  92.0132 68.2226  92.0132 68.2226  C 92.0132 68.2226  91.2637 68.3362  91.2637 68.3362  C 91.2637 68.3362  90.5844 67.8439  90.5844 67.8439  C 90.5844 67.8439  90.0398 66.4916  90.0398 66.4916  C 90.0398 66.4916  89.2316 65.6046  89.2316 65.6046  C 89.2316 65.6046  88.1307 65.491  88.1307 65.491  C 88.1307 65.491  86.8189 65.8913  86.8189 65.8913  C 86.8189 65.8913  84.658 67.184  84.658 67.184  C 84.658 67.184  83.6391 67.3084  83.6391 67.3084  C 83.6391 67.3084  82.0169 68.7581  82.0169 68.7581  C 82.0169 68.7581  80.7519 70.4352  80.7519 70.4352  C 80.7519 70.4352  80.0667999999999 70.4893  80.0667999999999 70.4893  C 80.0667999999999 70.4893  79.4344 69.7644  79.4344 69.7644  C 79.4344 69.7644  78.4564 69.878  78.4564 69.878  C 78.4564 69.878  76.9279 71.355  76.9279 71.355  C 76.9279 71.355  74.931 71.539  74.931 71.539  C 74.931 71.539  73.3323 73.0216  73.3323 73.0216  C 73.3323 73.0216  71.9913 75.2296  71.9913 75.2296  C 71.9913 75.2296  70.8025 76.6965  70.8025 76.6965  C 70.8025 76.6965  69.9943 77.0375  69.9943 77.0375  C 69.9943 77.0375  68.952 76.7993  68.952 76.7993  C 68.952 76.7993  68.1204 75.6735  68.1204 75.6735  C 68.1204 75.6735  68.0501 73.8766  68.0501 73.8766  C 68.0501 73.8766  68.2551 71.7175  68.2551 71.7175  C 68.2551 71.7175  68.1614 70.1593  68.1614 70.1593  C 68.1614 70.1593  67.6753 69.0286  67.6753 69.0286  C 67.6753 69.0286  65.1923 66.2428  65.1923 66.2428  C 65.1923 66.2428  63.986 65.8859  63.986 65.8859  C 63.986 65.8859  60.6363 65.6858  60.6363 65.6858  C 60.6363 65.6858  60.1795 64.2309  60.1795 64.2309  C 60.1795 64.2309  59.588 63.5333  59.588 63.5333  C 59.588 63.5333  57.4213 63.3765  57.4213 63.3765  C 57.4213 63.3765  55.7581 63.9281  55.7581 63.9281  C 55.7581 63.9281  53.199 65.7128  53.199 65.7128  C 53.199 65.7128  52.0337 67.1353  52.0337 67.1353  C 52.0337 67.1353  51.7643 69.5534  51.7643 69.5534  C 51.7643 69.5534  50.0146999999999 71.4199  50.0146999999999 71.4199  C 50.0146999999999 71.4199  48.1817 73.4329  48.1817 73.4329  C 48.1817 73.4329  47.8244999999999 74.5801  47.8244999999999 74.5801  C 47.8244999999999 74.5801  48.4277 75.2296  48.4277 75.2296  C 48.4277 75.2296  51.2489 74.8237  51.2489 74.8237  C 51.2489 74.8237  52.3675 75.6518  52.3675 75.6518  C 52.3675 75.6518  53.4742 74.7425  53.4742 74.7425  C 53.4742 74.7425  53.9779 74.8562  53.9779 74.8562  C 53.9779 74.8562  53.8607 77.0212  53.8607 77.0212  C 53.8607 77.0212  52.4436 77.7574  52.4436 77.7574  C 52.4436 77.7574  49.8156 80.6158  49.8156 80.6158  C 49.8156 80.6158  49.634 81.715  49.634 81.715  C 49.634 81.715  51.899 82.9659  51.899 82.9659  C 51.899 82.9659  51.3075 85.2783  51.3075 85.2783  C 51.3075 85.2783  49.1598 84.4605  49.1598 84.4605  C 49.1598 84.4605  48.9723 83.7782  48.9723 83.7782  C 48.9723 83.7782  47.5259 84.011  47.5259 84.011  C 47.5259 84.011  45.2361 82.0074  45.2361 82.0074  C 45.2361 82.0074  44.1645 81.9858  44.1645 81.9858  C 44.1645 81.9858  42.4779 80.4534  42.4779 80.4534  C 42.4779 80.4534  40.1706 80.8161  40.1706 80.8161  C 40.1706 80.8161  39.2219 81.8829  39.2219 81.8829  C 39.2219 81.8829  36.7624 81.7367  36.7624 81.7367  C 36.7624 81.7367  35.5735 81.8667  35.5735 81.8667  C 35.5735 81.8667  35.3862 80.8757  35.3862 80.8757  C 35.3862 80.8757  34.3789 80.4317  34.3789 80.4317  C 34.3789 80.4317  33.2663 79.1595  33.2663 79.1595  C 33.2663 79.1595  32.5518 77.6654  32.5518 77.6654  C 32.5518 77.6654  32.909 75.8521  32.909 75.8521  C 32.909 75.8521  32.6748 73.2543  32.6748 73.2543  C 32.6748 73.2543  32.259 72.421  32.259 72.421  C 32.259 72.421  31.4099 71.9123  31.4099 71.9123  C 31.4099 71.9123  30.1391 71.6634  30.1391 71.6634  C 30.1391 71.6634  28.1656 71.7716  28.1656 71.7716  C 28.1656 71.7716  24.447 72.5346  24.447 72.5346  C 24.447 72.5346  23.9317 71.8582  23.9317 71.8582  C 23.9317 71.8582  24.2595 69.8672  24.2595 69.8672  C 24.2595 69.8672  26.2623 68.2713  26.2623 68.2713  C 26.2623 68.2713  25.1028 67.6059  25.1028 67.6059  C 25.1028 67.6059  23.8497 67.4707  23.8497 67.4707  C 23.8497 67.4707  21.6068 67.8169  21.6068 67.8169  C 21.6068 67.8169  20.9684 68.1468  20.9684 68.1468  C 20.9684 68.1468  20.5 69.9808  20.5 69.9808  C 20.5 69.9808  21.2027 70.9222  21.2027 70.9222  C 21.2027 70.9222  21.2788 72.5454  21.2788 72.5454  C 21.2788 72.5454  20.8279 72.8268  20.8279 72.8268  C 20.8279 72.8268  19.7211 72.5562  19.7211 72.5562  C 19.7211 72.5562  18.749 71.3767  18.749 71.3767  C 18.749 71.3767  18.2395 69.878  18.2395 69.878  C 18.2395 69.878  16.6232 70.0511  16.6232 70.0511  C 16.6232 70.0511  14.5501 71.0466  14.5501 71.0466  C 14.5501 71.0466  12.6821 71.1656  12.6821 71.1656  C 12.6821 71.1656  11.5460000000001 71.5119  11.5460000000001 71.5119  C 11.5460000000001 71.5119  10.6442 72.2478  10.6442 72.2478  C 10.6442 72.2478  10.328 73.6493  10.328 73.6493  C 10.328 73.6493  10.5212 75.3921  10.5212 75.3921  C 10.5212 75.3921  9.03380000000004 75.706  9.03380000000004 75.706  C 9.03380000000004 75.706  8.24900000000002 76.5124  8.24900000000002 76.5124  C 8.24900000000002 76.5124  8.2432 77.5679  8.2432 77.5679  C 8.2432 77.5679  9.06880000000001 78.001  9.06880000000001 78.001  C 9.06880000000001 78.001  9.42020000000002 79.1324  9.42020000000002 79.1324  C 9.42020000000002 79.1324  8.43050000000005 80.0149  8.43050000000005 80.0149  C 8.43050000000005 80.0149  8.19629999999995 78.4449  8.19629999999995 78.4449  C 8.19629999999995 78.4449  7.18320000000006 77.254  7.18320000000006 77.254  C 7.18320000000006 77.254  6.97820000000002 76.0848  6.97820000000002 76.0848  C 6.97820000000002 76.0848  6.00609999999995 74.6938  6.00609999999995 74.6938  C 6.00609999999995 74.6938  6.41610000000003 72.7402  6.41610000000003 72.7402  C 6.41610000000003 72.7402  5.84209999999996 72.9945  5.84209999999996 72.9945  C 5.84209999999996 72.9945  4.72950000000003 72.4264  4.72950000000003 72.4264  C 4.72950000000003 72.4264  4.46590000000003 71.263  4.46590000000003 71.263  C 4.46590000000003 71.263  2.82039999999995 70.5975  2.82039999999995 70.5975  C 2.82039999999995 70.5975  2.18209999999999 69.0881  2.18209999999999 69.0881  C 2.18209999999999 69.0881  2.65639999999996 68.4011  2.65639999999996 68.4011  C 2.65639999999996 68.4011  2.62130000000002 66.5079  2.62130000000002 66.5079  C 2.62130000000002 66.5079  1.88930000000005 65.7182  1.88930000000005 65.7182  C 1.88930000000005 65.7182  1.21000000000004 65.9237  1.21000000000004 65.9237  C 1.21000000000004 65.9237  0.928899999999999 64.9773  0.928899999999999 64.9773  C 0.928899999999999 64.9773  1.2627 64.0308  1.2627 64.0308  C 1.2627 64.0308  0.706400000000031 63.0845  0.706400000000031 63.0845  C 0.706400000000031 63.0845  1.7722 62.906  1.7722 62.906  C 1.7722 62.906  1.94190000000003 62.1544  1.94190000000003 62.1544  C 1.94190000000003 62.1544  0.782500000000027 60.8297  0.782500000000027 60.8297  C 0.782500000000027 60.8297  0.794200000000046 59.7701  0.794200000000046 59.7701  C 0.794200000000046 59.7701  0.149999999999977 59.143  0.149999999999977 59.143  C 0.149999999999977 59.143  1.11040000000003 57.7483  1.11040000000003 57.7483  C 1.11040000000003 57.7483  2.32849999999996 57.8834  2.32849999999996 57.8834  C 2.32849999999996 57.8834  2.87890000000004 56.9375  2.87890000000004 56.9375  C 2.87890000000004 56.9375  3.82770000000005 57.1375  3.82770000000005 57.1375  C 3.82770000000005 57.1375  4.59479999999996 55.916  4.59479999999996 55.916  C 4.59479999999996 55.916  5.38530000000003 56.2835  5.38530000000003 56.2835  C 5.38530000000003 56.2835  6.26379999999995 55.916  6.26379999999995 55.916  C 6.26379999999995 55.916  6.42780000000005 54.8135  6.42780000000005 54.8135  C 6.42780000000005 54.8135  7.20079999999996 54.1596  7.20079999999996 54.1596  C 7.20079999999996 54.1596  7.96209999999996 54.2028  7.96209999999996 54.2028  C 7.96209999999996 54.2028  9.75990000000002 52.733  9.75990000000002 52.733  C 9.75990000000002 52.733  10.0937 53.0464  10.0937 53.0464  C 10.0937 53.0464  11.1946 50.2692  11.1946 50.2692  C 11.1946 50.2692  12.237 50.1558  12.237 50.1558  C 12.237 50.1558  12.155 49.6965  12.155 49.6965  C 12.155 49.6965  12.9983 48.8809  12.9983 48.8809  C 12.9983 48.8809  14.0231 50.0531  14.0231 50.0531  C 14.0231 50.0531  14.9133 48.6918  14.9133 48.6918  C 14.9133 48.6918  16.3244999999999 49.3347  16.3244999999999 49.3347  C 16.3244999999999 49.3347  17.6539 50.5718  17.6539 50.5718  C 17.6539 50.5718  17.8003 49.6317  17.8003 49.6317  C 17.8003 49.6317  18.9129 48.3893  18.9129 48.3893  C 18.9129 48.3893  19.1121000000001 46.9093  19.1121000000001 46.9093  C 19.1121000000001 46.9093  20.2188 45.559  20.2188 45.559  C 20.2188 45.559  21.273 45.0191  21.273 45.0191  C 21.273 45.0191  21.8937 45.2027  21.8937 45.2027  C 21.8937 45.2027  23.2992 44.0902  23.2992 44.0902  C 23.2992 44.0902  23.7735 44.1874  23.7735 44.1874  C 23.7735 44.1874  25.22 42.372  25.22 42.372  C 25.22 42.372  25.6532999999999 41.1733  25.6532999999999 41.1733  C 25.6532999999999 41.1733  26.7483999999999 40.0989  26.7483999999999 40.0989  C 26.7483999999999 40.0989  26.5025000000001 39.3539  26.5025000000001 39.3539  C 26.5025000000001 39.3539  28.6107 38.9328  28.6107 38.9328  C 28.6107 38.9328  28.4174 36.6602  28.4174 36.6602  C 28.4174 36.6602  27.9313 35.9316  27.9313 35.9316  C 27.9313 35.9316  28.2358 34.863  28.2358 34.863  C 28.2358 34.863  27.9548 33.8808  27.9548 33.8808  C 27.9548 33.8808  28.0953 32.6289  28.0953 32.6289  C 28.0953 32.6289  28.9327 32.2674  28.9327 32.2674  C 28.9327 32.2674  30.2445 32.6073  30.2445 32.6073  C 30.2445 32.6073  30.6603 32.0084  30.6603 32.0084  C 30.6603 32.0084  31.2868999999999 32.4293  31.2868999999999 32.4293  C 31.2868999999999 32.4293  32.177 31.3177  32.177 31.3177  C 32.177 31.3177  32.5928 28.89  32.5928 28.89  C 32.5928 28.89  35.1812 27.768  35.1812 27.768  C 35.1812 27.768  36.0889 26.2309  36.0889 26.2309  C 36.0889 26.2309  37.3362 26.2686  37.3362 26.2686  C 37.3362 26.2686  37.2367 25.1684  37.2367 25.1684  C 37.2367 25.1684  37.7345 24.4242  37.7345 24.4242  C 37.7345 24.4242  38.9290999999999 24.5913  38.9290999999999 24.5913  C 38.9290999999999 24.5913  38.4723 23.831  38.4723 23.831  C 38.4723 23.831  38.3845 22.6608  38.3845 22.6608  C 38.3845 22.6608  39.3566 21.0972  39.3566 21.0972  C 39.3566 21.0972  38.8237 20.4288  38.8237 20.4288  C 38.8237 20.4288  39.8954 19.9382  39.8954 19.9382  C 39.8954 19.9382  40.4868 20.17  40.4868 20.17  C 40.4868 20.17  41.5058 19.2697  41.5058 19.2697  C 41.5058 19.2697  40.9963 18.7954  40.9963 18.7954  C 40.9963 18.7954  41.5995 18.0353  41.5995 18.0353  C 41.5995 18.0353  41.4589 16.8388  41.4589 16.8388  C 41.4589 16.8388  42.2202 16.9412  42.2202 16.9412  C 42.2202 16.9412  43.5496000000001 16.5531  43.5496000000001 16.5531  C 43.5496000000001 16.5531  44.4338 15.8148  44.4338 15.8148  C 44.4338 15.8148  42.4486000000001 15.2974  42.4486000000001 15.2974  C 42.4486000000001 15.2974  42.7766 14.6938  42.7766 14.6938  C 42.7766 14.6938  42.4135 12.3553  42.4135 12.3553  C 42.4135 12.3553  42.7648 10.599  42.7648 10.599  C 42.7648 10.599  45.0253 10.0819  45.0253 10.0819  C 45.0253 10.0819  45.4645 9.0745  45.4645 9.0745  C 45.4645 9.0745  45.3532 7.92180000000002  45.3532 7.92180000000002  C 45.3532 7.92180000000002  45.6812 7.18400000000003  45.6812 7.18400000000003  C 45.6812 7.18400000000003  45.2361 6.77999999999997  45.2361 6.77999999999997  C 45.2361 6.77999999999997  46.0442 5.62220000000002  46.0442 5.62220000000002  C 46.0442 5.62220000000002  46.6767 5.67599999999999  46.6767 5.67599999999999  C 46.6767 5.67599999999999  46.7236 4.98680000000002  46.7236 4.98680000000002  C 46.7236 4.98680000000002  47.9417 4.15210000000002  47.9417 4.15210000000002  C 47.9417 4.15210000000002  49.3178 4.39440000000002  49.3178 4.39440000000002  C 49.3178 4.39440000000002  51.9049 2.95670000000001  51.9049 2.95670000000001  C 51.9049 2.95670000000001  53.0351000000001 1.30930000000001  53.0351000000001 1.30930000000001  C 53.0351000000001 1.30930000000001  52.8945 0.841000000000008  52.8945 0.841000000000008  Z " stroke-width="2" stroke="#666666" fill="none" transform="matrix(1 0 0 1 578 308 )" mask="url(#clip40)" />
    <path d="M 141.6626 277.0749  C 141.6626 277.0749  141.651 275.6921  141.651 275.6921  C 141.651 275.6921  145.5101 274.8086  145.5101 274.8086  C 145.5101 274.8086  148.4368 275.0007  148.4368 275.0007  C 148.4368 275.0007  149.5846 274.8634  149.5846 274.8634  C 149.5846 274.8634  151.5463 275.3079  151.5463 275.3079  C 151.5463 275.3079  153.1333 276.6797  153.1333 276.6797  C 153.1333 276.6797  153.5316 277.3054  153.5316 277.3054  C 153.5316 277.3054  154.5798 280.2746  154.5798 280.2746  C 154.5798 280.2746  155.1947 286.4131  155.1947 286.4131  C 155.1947 286.4131  155.0483 287.4454  155.0483 287.4454  C 155.0483 287.4454  153.9708 290.4164  153.9708 290.4164  C 153.9708 290.4164  152.9928 292.2234  152.9928 292.2234  C 152.9928 292.2234  151.6342 293.778  151.6342 293.778  C 151.6342 293.778  149.7836 295.3217  149.7836 295.3217  C 149.7836 295.3217  145.9318 295.8492  145.9318 295.8492  C 145.9318 295.8492  143.6713 295.959  143.6713 295.959  C 143.6713 295.959  141.7095 295.4207  141.7095 295.4207  C 141.7095 295.4207  140.1225 294.0967  140.1225 294.0967  C 140.1225 294.0967  140.0522 292.9375  140.0522 292.9375  C 140.0522 292.9375  140.8018 292.3114  140.8018 292.3114  C 140.8018 292.3114  143.3433 292.8496  143.3433 292.8496  C 143.3433 292.8496  146.1074 292.1795  146.1074 292.1795  C 146.1074 292.1795  148.7061 291.3062  148.7061 291.3062  C 148.7061 291.3062  150.668 289.0324  150.668 289.0324  C 150.668 289.0324  151.845 284.7268  151.845 284.7268  C 151.845 284.7268  151.7221 281.5756  151.7221 281.5756  C 151.7221 281.5756  151.1598 279.5885  151.1598 279.5885  C 151.1598 279.5885  150.5157 279.1  150.5157 279.1  C 150.5157 279.1  146.3534 278.7707  146.3534 278.7707  C 146.3534 278.7707  144.7195 279.0891  144.7195 279.0891  C 144.7195 279.0891  143.7943 278.3701  143.7943 278.3701  C 143.7943 278.3701  141.6041 278.5292  141.6041 278.5292  C 141.6041 278.5292  140.995 277.8761  140.995 277.8761  C 140.995 277.8761  141.6626 277.0749  141.6626 277.0749  Z " stroke-width="2" stroke="#666666" fill="none" transform="matrix(1 0 0 1 578 308 )" mask="url(#clip40)" />
    <path d="M 16.3817 71.1125  C 16.3817 71.1125  14.6614 72.9675  14.6614 72.9675  C 14.6614 72.9675  14.7317 70.7554  14.7317 70.7554  C 14.7317 70.7554  16.3817 71.1125  16.3817 71.1125  Z " stroke-width="2" stroke="#666666" fill="none" transform="matrix(1 0 0 1 578 308 )" mask="url(#clip40)" />
    <path d="M 140.1445 282.8876  C 140.1445 282.8876  140.0509 284.5574  140.0509 284.5574  C 140.0509 284.5574  137.4346 283.9754  137.4346 283.9754  C 137.4346 283.9754  138.0436 282.2398  138.0436 282.2398  C 138.0436 282.2398  140.1445 282.8876  140.1445 282.8876  Z " stroke-width="2" stroke="#666666" fill="none" transform="matrix(1 0 0 1 578 308 )" mask="url(#clip40)" />
    <path d="M 22.4486000000001 76.5774  C 22.4486000000001 76.5774  20.6288 76.3934  20.6288 76.3934  C 20.6288 76.3934  22.3433 74.9604  22.3433 74.9604  C 22.3433 74.9604  22.4486000000001 76.5774  22.4486000000001 76.5774  Z " stroke-width="2" stroke="#666666" fill="none" transform="matrix(1 0 0 1 578 308 )" mask="url(#clip40)" />
    <path d="M 78.5749 244.0136  C 78.5749 244.0136  78.5164 242.5078  78.5164 242.5078  C 78.5164 242.5078  79.0258 241.1664  79.0258 241.1664  C 79.0258 241.1664  80.1736 239.8415  80.1736 239.8415  C 80.1736 239.8415  82.8675 239.5021  82.8675 239.5021  C 82.8675 239.5021  85.7121 239.7813  85.7121 239.7813  C 85.7121 239.7813  87.1937 241.2102  87.1937 241.2102  C 87.1937 241.2102  88.2419 243.5208  88.2419 243.5208  C 88.2419 243.5208  88.8685 246.8263  88.8685 246.8263  C 88.8685 246.8263  88.9915 249.3183  88.9915 249.3183  C 88.9915 249.3183  88.0545 250.6439  88.0545 250.6439  C 88.0545 250.6439  86.9067 251.3506  86.9067 251.3506  C 86.9067 251.3506  85.1382 251.0712  85.1382 251.0712  C 85.1382 251.0712  82.0183 249.8222  82.0183 249.8222  C 82.0183 249.8222  79.2777 246.8865  79.2777 246.8865  C 79.2777 246.8865  78.5749 244.0136  78.5749 244.0136  Z " stroke-width="2" stroke="#666666" fill="none" transform="matrix(1 0 0 1 578 308 )" mask="url(#clip40)" />
    <path d="M 77.5852 256.0984  C 77.5852 256.0984  77.2455 254.3173  77.2455 254.3173  C 77.2455 254.3173  77.6145 253.1503  77.6145 253.1503  C 77.6145 253.1503  79.3362 252.4544  79.3362 252.4544  C 79.3362 252.4544  82.8661 255.8298  82.8661 255.8298  C 82.8661 255.8298  83.9143 258.6932  83.9143 258.6932  C 83.9143 258.6932  83.7560999999999 261.2859  83.7560999999999 261.2859  C 83.7560999999999 261.2859  81.5425 261.6367  81.5425 261.6367  C 81.5425 261.6367  79.2659 260.7377  79.2659 260.7377  C 79.2659 260.7377  78.2118 258.9563  78.2118 258.9563  C 78.2118 258.9563  77.5852 256.0984  77.5852 256.0984  Z " stroke-width="2" stroke="#666666" fill="none" transform="matrix(1 0 0 1 578 308 )" mask="url(#clip40)" />
  </g>
</svg>