<?xml version="1.0" encoding="utf-8"?>
<svg version="1.1" xmlns:xlink="http://www.w3.org/1999/xlink" width="85px" height="123px" xmlns="http://www.w3.org/2000/svg">
  <defs>
    <mask fill="white" id="clip42">
      <path d="M 79.3809 100.6455  C 79.3809 100.6455  79.7147 101.6924  79.7147 101.6924  C 79.7147 101.6924  78.5493 102.1722  78.5493 102.1722  C 78.5493 102.1722  77.138 102.145  77.138 102.145  C 77.138 102.145  76.2948 102.783  76.2948 102.783  C 76.2948 102.783  76.0781 102.314  76.0781 102.314  C 76.0781 102.314  74.5379 101.9541  74.5379 101.9541  C 74.5379 101.9541  74.6141 100.5365  74.6141 100.5365  C 74.6141 100.5365  73.8937 99.1025  73.8937 99.1025  C 73.8937 99.1025  73.0329 99.3752  73.0329 99.3752  C 73.0329 99.3752  72.1486 98.3393  72.1486 98.3393  C 72.1486 98.3393  71.2468 98.3829  71.2468 98.3829  C 71.2468 98.3829  70.872 96.2406  70.872 96.2406  C 70.872 96.2406  71.1824 94.0278  71.1824 94.0278  C 71.1824 94.0278  70.8896 93.0143  70.8896 93.0143  C 70.8896 93.0143  70.2454 92.3004  70.2454 92.3004  C 70.2454 92.3004  69.3201 92.0878  69.3201 92.0878  C 69.3201 92.0878  66.6263 92.5565  66.6263 92.5565  C 66.6263 92.5565  61.0221 94.8508  61.0221 94.8508  C 61.0221 94.8508  58.9782 95.8592  58.9782 95.8592  C 58.9782 95.8592  56.2845 97.7561  56.2845 97.7561  C 56.2845 97.7561  52.8294 101.0435  52.8294 101.0435  C 52.8294 101.0435  52.3492 103.0501  52.3492 103.0501  C 52.3492 103.0501  52.396 104.6045  52.396 104.6045  C 52.396 104.6045  52.7181 105.4062  52.7181 105.4062  C 52.7181 105.4062  54.0709 106.8406  54.0709 106.8406  C 54.0709 106.8406  56.2903 106.6061  56.2903 106.6061  C 56.2903 106.6061  57.8891 107.6206  57.8891 107.6206  C 57.8891 107.6206  58.0999 109.2736  58.0999 109.2736  C 58.0999 109.2736  56.6651 110.8122  56.6651 110.8122  C 56.6651 110.8122  56.1322 110.4793  56.1322 110.4793  C 56.1322 110.4793  54.0884 111.9743  54.0884 111.9743  C 54.0884 111.9743  52.1618 112.2636  52.1618 112.2636  C 52.1618 112.2636  51.7401 111.6088  51.7401 111.6088  C 51.7401 111.6088  50.1941 112.3563  50.1941 112.3563  C 50.1941 112.3563  47.6057 114.4792  47.6057 114.4792  C 47.6057 114.4792  46.1593 116.4658  46.1593 116.4658  C 46.1593 116.4658  45.7083 116.6895  45.7083 116.6895  C 45.7083 116.6895  45.111 115.6417  45.111 115.6417  C 45.111 115.6417  44.4844 115.6307  44.4844 115.6307  C 44.4844 115.6307  43.155 116.5858  43.155 116.5858  C 43.155 116.5858  40.8902 116.8861  40.8902 116.8861  C 40.8902 116.8861  40.4743 116.4767  40.4743 116.4767  C 40.4743 116.4767  40.9546 115.2159  40.9546 115.2159  C 40.9546 115.2159  43.2781 114.0535  43.2781 114.0535  C 43.2781 114.0535  40.6969 111.8434  40.6969 111.8434  C 40.6969 111.8434  39.4847 111.1559  39.4847 111.1559  C 39.4847 111.1559  36.7558 110.8886  36.7558 110.8886  C 36.7558 110.8886  35.0692 111.2868  35.0692 111.2868  C 35.0692 111.2868  31.7898 113.2895  31.7898 113.2895  C 31.7898 113.2895  31.087 114.2008  31.087 114.2008  C 31.087 114.2008  30.4663 115.789  30.4663 115.789  C 30.4663 115.789  30.5424 119.4626  30.5424 119.4626  C 30.5424 119.4626  29.3946 119.8721  29.3946 119.8721  C 29.3946 119.8721  28.4811 121.2425  28.4811 121.2425  C 28.4811 121.2425  28.077 120.5273  28.077 120.5273  C 28.077 120.5273  25.84 119.479  25.84 119.479  C 25.84 119.479  25.0846 119.5008  25.0846 119.5008  C 25.0846 119.5008  23.0525 120.6364  23.0525 120.6364  C 23.0525 120.6364  21.6236 121.9413  21.6236 121.9413  C 21.6236 121.9413  20.6457 122.2253  20.6457 122.2253  C 20.6457 122.2253  20.1772 121.8431  20.1772 121.8431  C 20.1772 121.8431  20.0308 120.56  20.0308 120.56  C 20.0308 120.56  18.1978 120.9914  18.1978 120.9914  C 18.1978 120.9914  16.605 122.3345  16.605 122.3345  C 16.605 122.3345  15.1351 122.471  15.1351 122.471  C 15.1351 122.471  13.3489 120.9477  13.3489 120.9477  C 13.3489 120.9477  13.8643 119.954  13.8643 119.954  C 13.8643 119.954  13.8467 119.015  13.8467 119.015  C 13.8467 119.015  12.939 115.2705  12.939 115.2705  C 12.939 115.2705  12.3534 114.7793  12.3534 114.7793  C 12.3534 114.7793  11.557 115.3305  11.557 115.3305  C 11.557 115.3305  11.6975 114.359  11.6975 114.359  C 11.6975 114.359  10.9889 114.9812  10.9889 114.9812  C 10.9889 114.9812  10.7429 114.4792  10.7429 114.4792  C 10.7429 114.4792  11.1646 113.1421  11.1646 113.1421  C 11.1646 113.1421  10.6024 112.5036  10.6024 112.5036  C 10.6024 112.5036  11.4633 110.8559  11.4633 110.8559  C 11.4633 110.8559  10.9186 110.5339  10.9186 110.5339  C 10.9186 110.5339  10.5263 108.9682  10.5263 108.9682  C 10.5263 108.9682  10.5907 107.5279  10.5907 107.5279  C 10.5907 107.5279  10.9948 107.337  10.9948 107.337  C 10.9948 107.337  11.0944 106.0552  11.0944 106.0552  C 11.0944 106.0552  11.7561 105.1444  11.7561 105.1444  C 11.7561 105.1444  11.557 104.4627  11.557 104.4627  C 11.557 104.4627  12.453 102.783  12.453 102.783  C 12.453 102.783  11.7326 100.2257  11.7326 100.2257  C 11.7326 100.2257  9.57760000000002 99.2553  9.57760000000002 99.2553  C 9.57760000000002 99.2553  8.57040000000001 99.3534  8.57040000000001 99.3534  C 8.57040000000001 99.3534  7.9144 98.6065  7.9144 98.6065  C 7.9144 98.6065  8.096 96.9983  8.096 96.9983  C 8.096 96.9983  8.48840000000001 96.3879  8.48840000000001 96.3879  C 8.48840000000001 96.3879  7.38150000000002 94.5402  7.38150000000002 94.5402  C 7.38150000000002 94.5402  8.34789999999998 93.9407  8.34789999999998 93.9407  C 8.34789999999998 93.9407  9.46050000000002 92.0987  9.46050000000002 92.0987  C 9.46050000000002 92.0987  11.1412 90.5294  11.1412 90.5294  C 11.1412 90.5294  10.661 86.8194  10.661 86.8194  C 10.661 86.8194  9.5659 86.3402  9.5659 86.3402  C 9.5659 86.3402  9.5951 85.5939  9.5951 85.5939  C 9.5951 85.5939  7.40499999999997 85.7628  7.40499999999997 85.7628  C 7.40499999999997 85.7628  6.8897 85.5558  6.8897 85.5558  C 6.8897 85.5558  6.47969999999998 84.0798  6.47969999999998 84.0798  C 6.47969999999998 84.0798  4.76389999999998 84.3467  4.76389999999998 84.3467  C 4.76389999999998 84.3467  3.62779999999998 83.0668  3.62779999999998 83.0668  C 3.62779999999998 83.0668  3.24130000000002 81.9614  3.24130000000002 81.9614  C 3.24130000000002 81.9614  2.53859999999997 82.3535  2.53859999999997 82.3535  C 2.53859999999997 82.3535  0.945699999999988 80.9268  0.945699999999988 80.9268  C 0.945699999999988 80.9268  0.728999999999985 79.2826  0.728999999999985 79.2826  C 0.728999999999985 79.2826  1.2971 78.0848  1.2971 78.0848  C 1.2971 78.0848  0.436199999999985 76.4245  0.436199999999985 76.4245  C 0.436199999999985 76.4245  0.459699999999998 74.4215  0.459699999999998 74.4215  C 0.459699999999998 74.4215  0.75830000000002 73.7956  0.75830000000002 73.7956  C 0.75830000000002 73.7956  0.43040000000002 72.8977  0.43040000000002 72.8977  C 0.43040000000002 72.8977  0.75830000000002 71.5482  0.75830000000002 71.5482  C 0.75830000000002 71.5482  2.15800000000002 70.3456  2.15800000000002 70.3456  C 2.15800000000002 70.3456  2.05840000000001 68.5013  2.05840000000001 68.5013  C 2.05840000000001 68.5013  1.39080000000001 68.3544  1.39080000000001 68.3544  C 1.39080000000001 68.3544  0.582600000000014 66.6245  0.582600000000014 66.6245  C 0.582600000000014 66.6245  0.822699999999998 65.6128  0.822699999999998 65.6128  C 0.822699999999998 65.6128  1.75389999999999 65.0308  1.75389999999999 65.0308  C 1.75389999999999 65.0308  1.59570000000002 64.4216  1.59570000000002 64.4216  C 1.59570000000002 64.4216  2.05250000000001 62.9533  2.05250000000001 62.9533  C 2.05250000000001 62.9533  3.00119999999998 63.1328  3.00119999999998 63.1328  C 3.00119999999998 63.1328  2.67329999999998 62.5508  2.67329999999998 62.5508  C 2.67329999999998 62.5508  3.77999999999997 60.0555  3.77999999999997 60.0555  C 3.77999999999997 60.0555  3.56920000000002 59.0007  3.56920000000002 59.0007  C 3.56920000000002 59.0007  4.57060000000001 58.4841  4.57060000000001 58.4841  C 4.57060000000001 58.4841  4.8107 57.3642  4.8107 57.3642  C 4.8107 57.3642  4.10210000000001 56.0649  4.10210000000001 56.0649  C 4.10210000000001 56.0649  4.33640000000003 54.2494  4.33640000000003 54.2494  C 4.33640000000003 54.2494  3.77999999999997 53.0972  3.77999999999997 53.0972  C 3.77999999999997 53.0972  5.37880000000001 52.108  5.37880000000001 52.108  C 5.37880000000001 52.108  5.8356 50.8527  5.8356 50.8527  C 5.8356 50.8527  5.22649999999999 49.0053  5.22649999999999 49.0053  C 5.22649999999999 49.0053  6.32749999999999 46.7181  6.32749999999999 46.7181  C 6.32749999999999 46.7181  7.57479999999998 45.7783  7.57479999999998 45.7783  C 7.57479999999998 45.7783  7.9144 46.0119  7.9144 46.0119  C 7.9144 46.0119  8.4708 44.9472  8.4708 44.9472  C 8.4708 44.9472  9.44290000000001 44.7734  9.44290000000001 44.7734  C 9.44290000000001 44.7734  10.6317 43.7197  10.6317 43.7197  C 10.6317 43.7197  11.0768 42.7746  11.0768 42.7746  C 11.0768 42.7746  11.8966 42.5085  11.8966 42.5085  C 11.8966 42.5085  13.4309 43.0137  13.4309 43.0137  C 13.4309 43.0137  13.8877 40.3527  13.8877 40.3527  C 13.8877 40.3527  14.2976 39.7663  14.2976 39.7663  C 14.2976 39.7663  13.8818 38.9953  13.8818 38.9953  C 13.8818 38.9953  14.5553 37.2688  14.5553 37.2688  C 14.5553 37.2688  14.3738 36.9268  14.3738 36.9268  C 14.3738 36.9268  15.4278 36.5088  15.4278 36.5088  C 15.4278 36.5088  16.3941 36.5685  16.3941 36.5685  C 16.3941 36.5685  16.5405 35.9713  16.5405 35.9713  C 16.5405 35.9713  17.8406 34.9346  17.8406 34.9346  C 17.8406 34.9346  18.2857 33.3335  18.2857 33.3335  C 18.2857 33.3335  19.3632 34.039  19.3632 34.039  C 19.3632 34.039  20.2533 33.0513  20.2533 33.0513  C 20.2533 33.0513  21.0028 33.3932  21.0028 33.3932  C 21.0028 33.3932  22.4493 32.324  22.4493 32.324  C 22.4493 32.324  23.884 32.8775  23.884 32.8775  C 23.884 32.8775  24.6805 32.2914  24.6805 32.2914  C 24.6805 32.2914  25.1841 30.4898  25.1841 30.4898  C 25.1841 30.4898  25.9103 30.7665  25.9103 30.7665  C 25.9103 30.7665  26.9878 29.5077  26.9878 29.5077  C 26.9878 29.5077  28.4167 27.0771  28.4167 27.0771  C 28.4167 27.0771  29.219 26.2417  29.219 26.2417  C 29.219 26.2417  30.6713 24.0069  30.6713 24.0069  C 30.6713 24.0069  30.9992 22.7921  30.9992 22.7921  C 30.9992 22.7921  30.7649 21.4038  30.7649 21.4038  C 30.7649 21.4038  31.5965 21.4309  31.5965 21.4309  C 31.5965 21.4309  33.2889 19.1319  33.2889 19.1319  C 33.2889 19.1319  33.9038 16.9687  33.9038 16.9687  C 33.9038 16.9687  33.775 15.4996  33.775 15.4996  C 33.775 15.4996  35.1746 12.432  35.1746 12.432  C 35.1746 12.432  37.1599 11.1857  37.1599 11.1857  C 37.1599 11.1857  37.1657 10.6437  37.1657 10.6437  C 37.1657 10.6437  38.4071 9.83100000000002  38.4071 9.83100000000002  C 38.4071 9.83100000000002  38.7117 8.6499  38.7117 8.6499  C 38.7117 8.6499  40.0996 6.75369999999998  40.0996 6.75369999999998  C 40.0996 6.75369999999998  41.019 6.0333  41.019 6.0333  C 41.019 6.0333  40.451 4.79840000000002  40.451 4.79840000000002  C 40.451 4.79840000000002  40.6559 3.70420000000001  40.6559 3.70420000000001  C 40.6559 3.70420000000001  41.464 2.62650000000002  41.464 2.62650000000002  C 41.464 2.62650000000002  41.4465 1.63560000000001  41.4465 1.63560000000001  C 41.4465 1.63560000000001  43.4654 1.197  43.4654 1.197  C 43.4654 1.197  43.606 0.357700000000023  43.606 0.357700000000023  C 43.606 0.357700000000023  44.1564 0.476800000000026  44.1564 0.476800000000026  C 44.1564 0.476800000000026  44.0686 1.3648  44.0686 1.3648  C 44.0686 1.3648  44.7831 1.65179999999998  44.7831 1.65179999999998  C 44.7831 1.65179999999998  45.6908 3.41180000000003  45.6908 3.41180000000003  C 45.6908 3.41180000000003  46.3232 3.3306  46.3232 3.3306  C 46.3232 3.3306  46.3584 6.00619999999998  46.3584 6.00619999999998  C 46.3584 6.00619999999998  45.2984 6.08749999999998  45.2984 6.08749999999998  C 45.2984 6.08749999999998  44.9939 6.94330000000002  44.9939 6.94330000000002  C 44.9939 6.94330000000002  45.5326 7.68009999999998  45.5326 7.68009999999998  C 45.5326 7.68009999999998  45.4273 8.87200000000001  45.4273 8.87200000000001  C 45.4273 8.87200000000001  44.4961 8.17860000000002  44.4961 8.17860000000002  C 44.4961 8.17860000000002  44.0569 8.86660000000001  44.0569 8.86660000000001  C 44.0569 8.86660000000001  43.3483 8.5145  43.3483 8.5145  C 43.3483 8.5145  41.5753 9.6576  41.5753 9.6576  C 41.5753 9.6576  43.5123 9.84719999999999  43.5123 9.84719999999999  C 43.5123 9.84719999999999  43.6411 10.8551  43.6411 10.8551  C 43.6411 10.8551  45.4506 11.2995  45.4506 11.2995  C 45.4506 11.2995  46.3232 12.302  46.3232 12.302  C 46.3232 12.302  46.5516 11.5325  46.5516 11.5325  C 46.5516 11.5325  48.572 12.4266  48.572 12.4266  C 48.572 12.4266  48.7242 11.3103  48.7242 11.3103  C 48.7242 11.3103  49.6378 10.064  49.6378 10.064  C 49.6378 10.064  50.0009 10.2265  50.0009 10.2265  C 50.0009 10.2265  50.9379 8.80700000000002  50.9379 8.80700000000002  C 50.9379 8.80700000000002  51.5411 7.29539999999997  51.5411 7.29539999999997  C 51.5411 7.29539999999997  52.8703 5.97910000000002  52.8703 5.97910000000002  C 52.8703 5.97910000000002  53.5965 6.61829999999998  53.5965 6.61829999999998  C 53.5965 6.61829999999998  55.0606 10.0477  55.0606 10.0477  C 55.0606 10.0477  56.0678 10.5137  56.0678 10.5137  C 56.0678 10.5137  56.0853 11.9226  56.0853 11.9226  C 56.0853 11.9226  55.4236 12.9848  55.4236 12.9848  C 55.4236 12.9848  54.3871 13.1961  54.3871 13.1961  C 54.3871 13.1961  53.8659 14.8763  53.8659 14.8763  C 53.8659 14.8763  54.9727 18.0475  54.9727 18.0475  C 54.9727 18.0475  54.9493 19.0614  54.9493 19.0614  C 54.9493 19.0614  55.8394 20.3843  55.8394 20.3843  C 55.8394 20.3843  56.8701 20.52  56.8701 20.52  C 56.8701 20.52  57.2858 21.1598  57.2858 21.1598  C 57.2858 21.1598  57.1805 22.4883  57.1805 22.4883  C 57.1805 22.4883  58.8318 23.0416  58.8318 23.0416  C 58.8318 23.0416  59.6693 24.392  59.6693 24.392  C 59.6693 24.392  60.6882 24.5819  60.6882 24.5819  C 60.6882 24.5819  61.7716 26.2362  61.7716 26.2362  C 61.7716 26.2362  62.1054 27.6739  62.1054 27.6739  C 62.1054 27.6739  62.8199 28.1459  62.8199 28.1459  C 62.8199 28.1459  64.5181 28.4389  64.5181 28.4389  C 64.5181 28.4389  66.3452 29.2038  66.3452 29.2038  C 66.3452 29.2038  67.048 28.2219  67.048 28.2219  C 67.048 28.2219  68.5354 29.7301  68.5354 29.7301  C 68.5354 29.7301  68.834 31.3254  68.834 31.3254  C 68.834 31.3254  67.9615 32.2534  67.9615 32.2534  C 67.9615 32.2534  67.9088 33.0133  67.9088 33.0133  C 67.9088 33.0133  67.2295 34.0173  67.2295 34.0173  C 67.2295 34.0173  67.698 34.5601  67.698 34.5601  C 67.698 34.5601  67.4462 36.004  67.4462 36.004  C 67.4462 36.004  66.4682 36.194  66.4682 36.194  C 66.4682 36.194  66.4858 34.9726  66.4858 34.9726  C 66.4858 34.9726  65.988 34.9183  65.988 34.9183  C 65.988 34.9183  65.3497 36.1397  65.3497 36.1397  C 65.3497 36.1397  65.3614 34.2452  65.3614 34.2452  C 65.3614 34.2452  64.4362 35.1517  64.4362 35.1517  C 64.4362 35.1517  63.7393 34.7284  63.7393 34.7284  C 63.7393 34.7284  62.4509 34.7826  62.4509 34.7826  C 62.4509 34.7826  61.1626 37.5023  61.1626 37.5023  C 61.1626 37.5023  61.4613 38.1049  61.4613 38.1049  C 61.4613 38.1049  60.9459 39.5274  60.9459 39.5274  C 60.9459 39.5274  61.4144 40.3962  61.4144 40.3962  C 61.4144 40.3962  60.8932 41.6614  60.8932 41.6614  C 60.8932 41.6614  59.9738 42.9648  59.9738 42.9648  C 59.9738 42.9648  58.99 43.7794  58.99 43.7794  C 58.99 43.7794  57.7192 43.2201  57.7192 43.2201  C 57.7192 43.2201  56.9989 43.4318  56.9989 43.4318  C 56.9989 43.4318  56.5187 45.2514  56.5187 45.2514  C 56.5187 45.2514  57.8246 45.8109  57.8246 45.8109  C 57.8246 45.8109  58.0355 46.5877  58.0355 46.5877  C 58.0355 46.5877  59.0895 46.8974  59.0895 46.8974  C 59.0895 46.8974  59.0895 48.6413  59.0895 48.6413  C 59.0895 48.6413  60.1378 49.4074  60.1378 49.4074  C 60.1378 49.4074  60.1788 50.7115  60.1788 50.7115  C 60.1788 50.7115  59.3706 51.4505  59.3706 51.4505  C 59.3706 51.4505  58.9958 53.4341  58.9958 53.4341  C 58.9958 53.4341  60.1027 55.5919  60.1027 55.5919  C 60.1027 55.5919  59.1598 57.1685  59.1598 57.1685  C 59.1598 57.1685  58.2755 57.6088  58.2755 57.6088  C 58.2755 57.6088  58.8201 58.9952  58.8201 58.9952  C 58.8201 58.9952  61.754 57.799  61.754 57.799  C 61.754 57.799  61.7892 57.2881  61.7892 57.2881  C 61.7892 57.2881  62.7906 57.1739  62.7906 57.1739  C 62.7906 57.1739  63.06 56.5596  63.06 56.5596  C 63.06 56.5596  64.2839 56.7172  64.2839 56.7172  C 64.2839 56.7172  64.3483 57.7664  64.3483 57.7664  C 64.3483 57.7664  65.8826 59.7999  65.8826 59.7999  C 65.8826 59.7999  65.8299 60.7134  65.8299 60.7134  C 65.8299 60.7134  67.1358 60.8547  67.1358 60.8547  C 67.1358 60.8547  67.6336 62.2898  67.6336 62.2898  C 67.6336 62.2898  68.1547 60.8004  68.1547 60.8004  C 68.1547 60.8004  69.0097 62.8499  69.0097 62.8499  C 69.0097 62.8499  69.4724 62.8716  69.4724 62.8716  C 69.4724 62.8716  70.3333 64.7425  70.3333 64.7425  C 70.3333 64.7425  71.4049 64.9601  71.4049 64.9601  C 71.4049 64.9601  72.418 64.4978  72.418 64.4978  C 72.418 64.4978  73.5248 65.0743  73.5248 65.0743  C 73.5248 65.0743  73.8645 66.1731  73.8645 66.1731  C 73.8645 66.1731  72.7577 67.522  72.7577 67.522  C 72.7577 67.522  73.1266 69.7309  73.1266 69.7309  C 73.1266 69.7309  73.923 69.5567  73.923 69.5567  C 73.923 69.5567  73.437 70.3076  73.437 70.3076  C 73.437 70.3076  74.4852 70.9224  74.4852 70.9224  C 74.4852 70.9224  76.3474 71.4067  76.3474 71.4067  C 76.3474 71.4067  77.1029 72.2066  77.1029 72.2066  C 77.1029 72.2066  77.3547 73.3331  77.3547 73.3331  C 77.3547 73.3331  79.0413 73.0555  79.0413 73.0555  C 79.0413 73.0555  80.5287 73.9589  80.5287 73.9589  C 80.5287 73.9589  80.9386 75.3305  80.9386 75.3305  C 80.9386 75.3305  81.4891 75.6788  81.4891 75.6788  C 81.4891 75.6788  82.2094 77.3771  82.2094 77.3771  C 82.2094 77.3771  82.2563 79.7834  82.2563 79.7834  C 82.2563 79.7834  82.7013 79.6582  82.7013 79.6582  C 82.7013 79.6582  82.5667 81.1228  82.5667 81.1228  C 82.5667 81.1228  83 81.5748  83 81.5748  C 83 81.5748  82.8126 83.2411  82.8126 83.2411  C 82.8126 83.2411  82.4085 84.1125  82.4085 84.1125  C 82.4085 84.1125  83.4626 84.5917  83.4626 84.5917  C 83.4626 84.5917  84.4699 85.6702  84.4699 85.6702  C 84.4699 85.6702  83.0702 86.9066  83.0702 86.9066  C 83.0702 86.9066  83.5914 88.4647  83.5914 88.4647  C 83.5914 88.4647  82.3616 90.0446  82.3616 90.0446  C 82.3616 90.0446  82.6135 90.7257  82.6135 90.7257  C 82.6135 90.7257  81.2373 92.0115  81.2373 92.0115  C 81.2373 92.0115  81.6823 94.8998  81.6823 94.8998  C 81.6823 94.8998  81.1612 95.2378  81.1612 95.2378  C 81.1612 95.2378  80.1832 96.8948  80.1832 96.8948  C 80.1832 96.8948  79.4629 97.5925  79.4629 97.5925  C 79.4629 97.5925  79.8846 98.8082  79.8846 98.8082  C 79.8846 98.8082  79.3809 100.6455  79.3809 100.6455  Z M 69.4679 118.0815  C 69.4679 118.0815  69.0287 117.8195  69.0287 117.8195  C 69.0287 117.8195  69.0112 115.9134  69.0112 115.9134  C 69.0112 115.9134  69.7022 115.5531  69.7022 115.5531  C 69.7022 115.5531  69.7842 117.3391  69.7842 117.3391  C 69.7842 117.3391  71.8441 117.5848  71.8441 117.5848  C 71.8441 117.5848  69.4679 118.0815  69.4679 118.0815  Z M 67.6629 112.1163  C 67.6629 112.1163  65.9367 112.1108  65.9367 112.1108  C 65.9367 112.1108  66.2588 109.8886  66.2588 109.8886  C 66.2588 109.8886  67.6629 112.1163  67.6629 112.1163  Z M 66.07 107.1771  C 66.07 107.1771  64.2209 108.8973  64.2209 108.8973  C 64.2209 108.8973  64.2209 106.9425  64.2209 106.9425  C 64.2209 106.9425  66.07 107.1771  66.07 107.1771  Z " fill-rule="evenodd" />
    </mask>
  </defs>
  <g transform="matrix(1 0 0 1 -300 -388 )">
    <path d="M 79.3809 100.6455  C 79.3809 100.6455  79.7147 101.6924  79.7147 101.6924  C 79.7147 101.6924  78.5493 102.1722  78.5493 102.1722  C 78.5493 102.1722  77.138 102.145  77.138 102.145  C 77.138 102.145  76.2948 102.783  76.2948 102.783  C 76.2948 102.783  76.0781 102.314  76.0781 102.314  C 76.0781 102.314  74.5379 101.9541  74.5379 101.9541  C 74.5379 101.9541  74.6141 100.5365  74.6141 100.5365  C 74.6141 100.5365  73.8937 99.1025  73.8937 99.1025  C 73.8937 99.1025  73.0329 99.3752  73.0329 99.3752  C 73.0329 99.3752  72.1486 98.3393  72.1486 98.3393  C 72.1486 98.3393  71.2468 98.3829  71.2468 98.3829  C 71.2468 98.3829  70.872 96.2406  70.872 96.2406  C 70.872 96.2406  71.1824 94.0278  71.1824 94.0278  C 71.1824 94.0278  70.8896 93.0143  70.8896 93.0143  C 70.8896 93.0143  70.2454 92.3004  70.2454 92.3004  C 70.2454 92.3004  69.3201 92.0878  69.3201 92.0878  C 69.3201 92.0878  66.6263 92.5565  66.6263 92.5565  C 66.6263 92.5565  61.0221 94.8508  61.0221 94.8508  C 61.0221 94.8508  58.9782 95.8592  58.9782 95.8592  C 58.9782 95.8592  56.2845 97.7561  56.2845 97.7561  C 56.2845 97.7561  52.8294 101.0435  52.8294 101.0435  C 52.8294 101.0435  52.3492 103.0501  52.3492 103.0501  C 52.3492 103.0501  52.396 104.6045  52.396 104.6045  C 52.396 104.6045  52.7181 105.4062  52.7181 105.4062  C 52.7181 105.4062  54.0709 106.8406  54.0709 106.8406  C 54.0709 106.8406  56.2903 106.6061  56.2903 106.6061  C 56.2903 106.6061  57.8891 107.6206  57.8891 107.6206  C 57.8891 107.6206  58.0999 109.2736  58.0999 109.2736  C 58.0999 109.2736  56.6651 110.8122  56.6651 110.8122  C 56.6651 110.8122  56.1322 110.4793  56.1322 110.4793  C 56.1322 110.4793  54.0884 111.9743  54.0884 111.9743  C 54.0884 111.9743  52.1618 112.2636  52.1618 112.2636  C 52.1618 112.2636  51.7401 111.6088  51.7401 111.6088  C 51.7401 111.6088  50.1941 112.3563  50.1941 112.3563  C 50.1941 112.3563  47.6057 114.4792  47.6057 114.4792  C 47.6057 114.4792  46.1593 116.4658  46.1593 116.4658  C 46.1593 116.4658  45.7083 116.6895  45.7083 116.6895  C 45.7083 116.6895  45.111 115.6417  45.111 115.6417  C 45.111 115.6417  44.4844 115.6307  44.4844 115.6307  C 44.4844 115.6307  43.155 116.5858  43.155 116.5858  C 43.155 116.5858  40.8902 116.8861  40.8902 116.8861  C 40.8902 116.8861  40.4743 116.4767  40.4743 116.4767  C 40.4743 116.4767  40.9546 115.2159  40.9546 115.2159  C 40.9546 115.2159  43.2781 114.0535  43.2781 114.0535  C 43.2781 114.0535  40.6969 111.8434  40.6969 111.8434  C 40.6969 111.8434  39.4847 111.1559  39.4847 111.1559  C 39.4847 111.1559  36.7558 110.8886  36.7558 110.8886  C 36.7558 110.8886  35.0692 111.2868  35.0692 111.2868  C 35.0692 111.2868  31.7898 113.2895  31.7898 113.2895  C 31.7898 113.2895  31.087 114.2008  31.087 114.2008  C 31.087 114.2008  30.4663 115.789  30.4663 115.789  C 30.4663 115.789  30.5424 119.4626  30.5424 119.4626  C 30.5424 119.4626  29.3946 119.8721  29.3946 119.8721  C 29.3946 119.8721  28.4811 121.2425  28.4811 121.2425  C 28.4811 121.2425  28.077 120.5273  28.077 120.5273  C 28.077 120.5273  25.84 119.479  25.84 119.479  C 25.84 119.479  25.0846 119.5008  25.0846 119.5008  C 25.0846 119.5008  23.0525 120.6364  23.0525 120.6364  C 23.0525 120.6364  21.6236 121.9413  21.6236 121.9413  C 21.6236 121.9413  20.6457 122.2253  20.6457 122.2253  C 20.6457 122.2253  20.1772 121.8431  20.1772 121.8431  C 20.1772 121.8431  20.0308 120.56  20.0308 120.56  C 20.0308 120.56  18.1978 120.9914  18.1978 120.9914  C 18.1978 120.9914  16.605 122.3345  16.605 122.3345  C 16.605 122.3345  15.1351 122.471  15.1351 122.471  C 15.1351 122.471  13.3489 120.9477  13.3489 120.9477  C 13.3489 120.9477  13.8643 119.954  13.8643 119.954  C 13.8643 119.954  13.8467 119.015  13.8467 119.015  C 13.8467 119.015  12.939 115.2705  12.939 115.2705  C 12.939 115.2705  12.3534 114.7793  12.3534 114.7793  C 12.3534 114.7793  11.557 115.3305  11.557 115.3305  C 11.557 115.3305  11.6975 114.359  11.6975 114.359  C 11.6975 114.359  10.9889 114.9812  10.9889 114.9812  C 10.9889 114.9812  10.7429 114.4792  10.7429 114.4792  C 10.7429 114.4792  11.1646 113.1421  11.1646 113.1421  C 11.1646 113.1421  10.6024 112.5036  10.6024 112.5036  C 10.6024 112.5036  11.4633 110.8559  11.4633 110.8559  C 11.4633 110.8559  10.9186 110.5339  10.9186 110.5339  C 10.9186 110.5339  10.5263 108.9682  10.5263 108.9682  C 10.5263 108.9682  10.5907 107.5279  10.5907 107.5279  C 10.5907 107.5279  10.9948 107.337  10.9948 107.337  C 10.9948 107.337  11.0944 106.0552  11.0944 106.0552  C 11.0944 106.0552  11.7561 105.1444  11.7561 105.1444  C 11.7561 105.1444  11.557 104.4627  11.557 104.4627  C 11.557 104.4627  12.453 102.783  12.453 102.783  C 12.453 102.783  11.7326 100.2257  11.7326 100.2257  C 11.7326 100.2257  9.57760000000002 99.2553  9.57760000000002 99.2553  C 9.57760000000002 99.2553  8.57040000000001 99.3534  8.57040000000001 99.3534  C 8.57040000000001 99.3534  7.9144 98.6065  7.9144 98.6065  C 7.9144 98.6065  8.096 96.9983  8.096 96.9983  C 8.096 96.9983  8.48840000000001 96.3879  8.48840000000001 96.3879  C 8.48840000000001 96.3879  7.38150000000002 94.5402  7.38150000000002 94.5402  C 7.38150000000002 94.5402  8.34789999999998 93.9407  8.34789999999998 93.9407  C 8.34789999999998 93.9407  9.46050000000002 92.0987  9.46050000000002 92.0987  C 9.46050000000002 92.0987  11.1412 90.5294  11.1412 90.5294  C 11.1412 90.5294  10.661 86.8194  10.661 86.8194  C 10.661 86.8194  9.5659 86.3402  9.5659 86.3402  C 9.5659 86.3402  9.5951 85.5939  9.5951 85.5939  C 9.5951 85.5939  7.40499999999997 85.7628  7.40499999999997 85.7628  C 7.40499999999997 85.7628  6.8897 85.5558  6.8897 85.5558  C 6.8897 85.5558  6.47969999999998 84.0798  6.47969999999998 84.0798  C 6.47969999999998 84.0798  4.76389999999998 84.3467  4.76389999999998 84.3467  C 4.76389999999998 84.3467  3.62779999999998 83.0668  3.62779999999998 83.0668  C 3.62779999999998 83.0668  3.24130000000002 81.9614  3.24130000000002 81.9614  C 3.24130000000002 81.9614  2.53859999999997 82.3535  2.53859999999997 82.3535  C 2.53859999999997 82.3535  0.945699999999988 80.9268  0.945699999999988 80.9268  C 0.945699999999988 80.9268  0.728999999999985 79.2826  0.728999999999985 79.2826  C 0.728999999999985 79.2826  1.2971 78.0848  1.2971 78.0848  C 1.2971 78.0848  0.436199999999985 76.4245  0.436199999999985 76.4245  C 0.436199999999985 76.4245  0.459699999999998 74.4215  0.459699999999998 74.4215  C 0.459699999999998 74.4215  0.75830000000002 73.7956  0.75830000000002 73.7956  C 0.75830000000002 73.7956  0.43040000000002 72.8977  0.43040000000002 72.8977  C 0.43040000000002 72.8977  0.75830000000002 71.5482  0.75830000000002 71.5482  C 0.75830000000002 71.5482  2.15800000000002 70.3456  2.15800000000002 70.3456  C 2.15800000000002 70.3456  2.05840000000001 68.5013  2.05840000000001 68.5013  C 2.05840000000001 68.5013  1.39080000000001 68.3544  1.39080000000001 68.3544  C 1.39080000000001 68.3544  0.582600000000014 66.6245  0.582600000000014 66.6245  C 0.582600000000014 66.6245  0.822699999999998 65.6128  0.822699999999998 65.6128  C 0.822699999999998 65.6128  1.75389999999999 65.0308  1.75389999999999 65.0308  C 1.75389999999999 65.0308  1.59570000000002 64.4216  1.59570000000002 64.4216  C 1.59570000000002 64.4216  2.05250000000001 62.9533  2.05250000000001 62.9533  C 2.05250000000001 62.9533  3.00119999999998 63.1328  3.00119999999998 63.1328  C 3.00119999999998 63.1328  2.67329999999998 62.5508  2.67329999999998 62.5508  C 2.67329999999998 62.5508  3.77999999999997 60.0555  3.77999999999997 60.0555  C 3.77999999999997 60.0555  3.56920000000002 59.0007  3.56920000000002 59.0007  C 3.56920000000002 59.0007  4.57060000000001 58.4841  4.57060000000001 58.4841  C 4.57060000000001 58.4841  4.8107 57.3642  4.8107 57.3642  C 4.8107 57.3642  4.10210000000001 56.0649  4.10210000000001 56.0649  C 4.10210000000001 56.0649  4.33640000000003 54.2494  4.33640000000003 54.2494  C 4.33640000000003 54.2494  3.77999999999997 53.0972  3.77999999999997 53.0972  C 3.77999999999997 53.0972  5.37880000000001 52.108  5.37880000000001 52.108  C 5.37880000000001 52.108  5.8356 50.8527  5.8356 50.8527  C 5.8356 50.8527  5.22649999999999 49.0053  5.22649999999999 49.0053  C 5.22649999999999 49.0053  6.32749999999999 46.7181  6.32749999999999 46.7181  C 6.32749999999999 46.7181  7.57479999999998 45.7783  7.57479999999998 45.7783  C 7.57479999999998 45.7783  7.9144 46.0119  7.9144 46.0119  C 7.9144 46.0119  8.4708 44.9472  8.4708 44.9472  C 8.4708 44.9472  9.44290000000001 44.7734  9.44290000000001 44.7734  C 9.44290000000001 44.7734  10.6317 43.7197  10.6317 43.7197  C 10.6317 43.7197  11.0768 42.7746  11.0768 42.7746  C 11.0768 42.7746  11.8966 42.5085  11.8966 42.5085  C 11.8966 42.5085  13.4309 43.0137  13.4309 43.0137  C 13.4309 43.0137  13.8877 40.3527  13.8877 40.3527  C 13.8877 40.3527  14.2976 39.7663  14.2976 39.7663  C 14.2976 39.7663  13.8818 38.9953  13.8818 38.9953  C 13.8818 38.9953  14.5553 37.2688  14.5553 37.2688  C 14.5553 37.2688  14.3738 36.9268  14.3738 36.9268  C 14.3738 36.9268  15.4278 36.5088  15.4278 36.5088  C 15.4278 36.5088  16.3941 36.5685  16.3941 36.5685  C 16.3941 36.5685  16.5405 35.9713  16.5405 35.9713  C 16.5405 35.9713  17.8406 34.9346  17.8406 34.9346  C 17.8406 34.9346  18.2857 33.3335  18.2857 33.3335  C 18.2857 33.3335  19.3632 34.039  19.3632 34.039  C 19.3632 34.039  20.2533 33.0513  20.2533 33.0513  C 20.2533 33.0513  21.0028 33.3932  21.0028 33.3932  C 21.0028 33.3932  22.4493 32.324  22.4493 32.324  C 22.4493 32.324  23.884 32.8775  23.884 32.8775  C 23.884 32.8775  24.6805 32.2914  24.6805 32.2914  C 24.6805 32.2914  25.1841 30.4898  25.1841 30.4898  C 25.1841 30.4898  25.9103 30.7665  25.9103 30.7665  C 25.9103 30.7665  26.9878 29.5077  26.9878 29.5077  C 26.9878 29.5077  28.4167 27.0771  28.4167 27.0771  C 28.4167 27.0771  29.219 26.2417  29.219 26.2417  C 29.219 26.2417  30.6713 24.0069  30.6713 24.0069  C 30.6713 24.0069  30.9992 22.7921  30.9992 22.7921  C 30.9992 22.7921  30.7649 21.4038  30.7649 21.4038  C 30.7649 21.4038  31.5965 21.4309  31.5965 21.4309  C 31.5965 21.4309  33.2889 19.1319  33.2889 19.1319  C 33.2889 19.1319  33.9038 16.9687  33.9038 16.9687  C 33.9038 16.9687  33.775 15.4996  33.775 15.4996  C 33.775 15.4996  35.1746 12.432  35.1746 12.432  C 35.1746 12.432  37.1599 11.1857  37.1599 11.1857  C 37.1599 11.1857  37.1657 10.6437  37.1657 10.6437  C 37.1657 10.6437  38.4071 9.83100000000002  38.4071 9.83100000000002  C 38.4071 9.83100000000002  38.7117 8.6499  38.7117 8.6499  C 38.7117 8.6499  40.0996 6.75369999999998  40.0996 6.75369999999998  C 40.0996 6.75369999999998  41.019 6.0333  41.019 6.0333  C 41.019 6.0333  40.451 4.79840000000002  40.451 4.79840000000002  C 40.451 4.79840000000002  40.6559 3.70420000000001  40.6559 3.70420000000001  C 40.6559 3.70420000000001  41.464 2.62650000000002  41.464 2.62650000000002  C 41.464 2.62650000000002  41.4465 1.63560000000001  41.4465 1.63560000000001  C 41.4465 1.63560000000001  43.4654 1.197  43.4654 1.197  C 43.4654 1.197  43.606 0.357700000000023  43.606 0.357700000000023  C 43.606 0.357700000000023  44.1564 0.476800000000026  44.1564 0.476800000000026  C 44.1564 0.476800000000026  44.0686 1.3648  44.0686 1.3648  C 44.0686 1.3648  44.7831 1.65179999999998  44.7831 1.65179999999998  C 44.7831 1.65179999999998  45.6908 3.41180000000003  45.6908 3.41180000000003  C 45.6908 3.41180000000003  46.3232 3.3306  46.3232 3.3306  C 46.3232 3.3306  46.3584 6.00619999999998  46.3584 6.00619999999998  C 46.3584 6.00619999999998  45.2984 6.08749999999998  45.2984 6.08749999999998  C 45.2984 6.08749999999998  44.9939 6.94330000000002  44.9939 6.94330000000002  C 44.9939 6.94330000000002  45.5326 7.68009999999998  45.5326 7.68009999999998  C 45.5326 7.68009999999998  45.4273 8.87200000000001  45.4273 8.87200000000001  C 45.4273 8.87200000000001  44.4961 8.17860000000002  44.4961 8.17860000000002  C 44.4961 8.17860000000002  44.0569 8.86660000000001  44.0569 8.86660000000001  C 44.0569 8.86660000000001  43.3483 8.5145  43.3483 8.5145  C 43.3483 8.5145  41.5753 9.6576  41.5753 9.6576  C 41.5753 9.6576  43.5123 9.84719999999999  43.5123 9.84719999999999  C 43.5123 9.84719999999999  43.6411 10.8551  43.6411 10.8551  C 43.6411 10.8551  45.4506 11.2995  45.4506 11.2995  C 45.4506 11.2995  46.3232 12.302  46.3232 12.302  C 46.3232 12.302  46.5516 11.5325  46.5516 11.5325  C 46.5516 11.5325  48.572 12.4266  48.572 12.4266  C 48.572 12.4266  48.7242 11.3103  48.7242 11.3103  C 48.7242 11.3103  49.6378 10.064  49.6378 10.064  C 49.6378 10.064  50.0009 10.2265  50.0009 10.2265  C 50.0009 10.2265  50.9379 8.80700000000002  50.9379 8.80700000000002  C 50.9379 8.80700000000002  51.5411 7.29539999999997  51.5411 7.29539999999997  C 51.5411 7.29539999999997  52.8703 5.97910000000002  52.8703 5.97910000000002  C 52.8703 5.97910000000002  53.5965 6.61829999999998  53.5965 6.61829999999998  C 53.5965 6.61829999999998  55.0606 10.0477  55.0606 10.0477  C 55.0606 10.0477  56.0678 10.5137  56.0678 10.5137  C 56.0678 10.5137  56.0853 11.9226  56.0853 11.9226  C 56.0853 11.9226  55.4236 12.9848  55.4236 12.9848  C 55.4236 12.9848  54.3871 13.1961  54.3871 13.1961  C 54.3871 13.1961  53.8659 14.8763  53.8659 14.8763  C 53.8659 14.8763  54.9727 18.0475  54.9727 18.0475  C 54.9727 18.0475  54.9493 19.0614  54.9493 19.0614  C 54.9493 19.0614  55.8394 20.3843  55.8394 20.3843  C 55.8394 20.3843  56.8701 20.52  56.8701 20.52  C 56.8701 20.52  57.2858 21.1598  57.2858 21.1598  C 57.2858 21.1598  57.1805 22.4883  57.1805 22.4883  C 57.1805 22.4883  58.8318 23.0416  58.8318 23.0416  C 58.8318 23.0416  59.6693 24.392  59.6693 24.392  C 59.6693 24.392  60.6882 24.5819  60.6882 24.5819  C 60.6882 24.5819  61.7716 26.2362  61.7716 26.2362  C 61.7716 26.2362  62.1054 27.6739  62.1054 27.6739  C 62.1054 27.6739  62.8199 28.1459  62.8199 28.1459  C 62.8199 28.1459  64.5181 28.4389  64.5181 28.4389  C 64.5181 28.4389  66.3452 29.2038  66.3452 29.2038  C 66.3452 29.2038  67.048 28.2219  67.048 28.2219  C 67.048 28.2219  68.5354 29.7301  68.5354 29.7301  C 68.5354 29.7301  68.834 31.3254  68.834 31.3254  C 68.834 31.3254  67.9615 32.2534  67.9615 32.2534  C 67.9615 32.2534  67.9088 33.0133  67.9088 33.0133  C 67.9088 33.0133  67.2295 34.0173  67.2295 34.0173  C 67.2295 34.0173  67.698 34.5601  67.698 34.5601  C 67.698 34.5601  67.4462 36.004  67.4462 36.004  C 67.4462 36.004  66.4682 36.194  66.4682 36.194  C 66.4682 36.194  66.4858 34.9726  66.4858 34.9726  C 66.4858 34.9726  65.988 34.9183  65.988 34.9183  C 65.988 34.9183  65.3497 36.1397  65.3497 36.1397  C 65.3497 36.1397  65.3614 34.2452  65.3614 34.2452  C 65.3614 34.2452  64.4362 35.1517  64.4362 35.1517  C 64.4362 35.1517  63.7393 34.7284  63.7393 34.7284  C 63.7393 34.7284  62.4509 34.7826  62.4509 34.7826  C 62.4509 34.7826  61.1626 37.5023  61.1626 37.5023  C 61.1626 37.5023  61.4613 38.1049  61.4613 38.1049  C 61.4613 38.1049  60.9459 39.5274  60.9459 39.5274  C 60.9459 39.5274  61.4144 40.3962  61.4144 40.3962  C 61.4144 40.3962  60.8932 41.6614  60.8932 41.6614  C 60.8932 41.6614  59.9738 42.9648  59.9738 42.9648  C 59.9738 42.9648  58.99 43.7794  58.99 43.7794  C 58.99 43.7794  57.7192 43.2201  57.7192 43.2201  C 57.7192 43.2201  56.9989 43.4318  56.9989 43.4318  C 56.9989 43.4318  56.5187 45.2514  56.5187 45.2514  C 56.5187 45.2514  57.8246 45.8109  57.8246 45.8109  C 57.8246 45.8109  58.0355 46.5877  58.0355 46.5877  C 58.0355 46.5877  59.0895 46.8974  59.0895 46.8974  C 59.0895 46.8974  59.0895 48.6413  59.0895 48.6413  C 59.0895 48.6413  60.1378 49.4074  60.1378 49.4074  C 60.1378 49.4074  60.1788 50.7115  60.1788 50.7115  C 60.1788 50.7115  59.3706 51.4505  59.3706 51.4505  C 59.3706 51.4505  58.9958 53.4341  58.9958 53.4341  C 58.9958 53.4341  60.1027 55.5919  60.1027 55.5919  C 60.1027 55.5919  59.1598 57.1685  59.1598 57.1685  C 59.1598 57.1685  58.2755 57.6088  58.2755 57.6088  C 58.2755 57.6088  58.8201 58.9952  58.8201 58.9952  C 58.8201 58.9952  61.754 57.799  61.754 57.799  C 61.754 57.799  61.7892 57.2881  61.7892 57.2881  C 61.7892 57.2881  62.7906 57.1739  62.7906 57.1739  C 62.7906 57.1739  63.06 56.5596  63.06 56.5596  C 63.06 56.5596  64.2839 56.7172  64.2839 56.7172  C 64.2839 56.7172  64.3483 57.7664  64.3483 57.7664  C 64.3483 57.7664  65.8826 59.7999  65.8826 59.7999  C 65.8826 59.7999  65.8299 60.7134  65.8299 60.7134  C 65.8299 60.7134  67.1358 60.8547  67.1358 60.8547  C 67.1358 60.8547  67.6336 62.2898  67.6336 62.2898  C 67.6336 62.2898  68.1547 60.8004  68.1547 60.8004  C 68.1547 60.8004  69.0097 62.8499  69.0097 62.8499  C 69.0097 62.8499  69.4724 62.8716  69.4724 62.8716  C 69.4724 62.8716  70.3333 64.7425  70.3333 64.7425  C 70.3333 64.7425  71.4049 64.9601  71.4049 64.9601  C 71.4049 64.9601  72.418 64.4978  72.418 64.4978  C 72.418 64.4978  73.5248 65.0743  73.5248 65.0743  C 73.5248 65.0743  73.8645 66.1731  73.8645 66.1731  C 73.8645 66.1731  72.7577 67.522  72.7577 67.522  C 72.7577 67.522  73.1266 69.7309  73.1266 69.7309  C 73.1266 69.7309  73.923 69.5567  73.923 69.5567  C 73.923 69.5567  73.437 70.3076  73.437 70.3076  C 73.437 70.3076  74.4852 70.9224  74.4852 70.9224  C 74.4852 70.9224  76.3474 71.4067  76.3474 71.4067  C 76.3474 71.4067  77.1029 72.2066  77.1029 72.2066  C 77.1029 72.2066  77.3547 73.3331  77.3547 73.3331  C 77.3547 73.3331  79.0413 73.0555  79.0413 73.0555  C 79.0413 73.0555  80.5287 73.9589  80.5287 73.9589  C 80.5287 73.9589  80.9386 75.3305  80.9386 75.3305  C 80.9386 75.3305  81.4891 75.6788  81.4891 75.6788  C 81.4891 75.6788  82.2094 77.3771  82.2094 77.3771  C 82.2094 77.3771  82.2563 79.7834  82.2563 79.7834  C 82.2563 79.7834  82.7013 79.6582  82.7013 79.6582  C 82.7013 79.6582  82.5667 81.1228  82.5667 81.1228  C 82.5667 81.1228  83 81.5748  83 81.5748  C 83 81.5748  82.8126 83.2411  82.8126 83.2411  C 82.8126 83.2411  82.4085 84.1125  82.4085 84.1125  C 82.4085 84.1125  83.4626 84.5917  83.4626 84.5917  C 83.4626 84.5917  84.4699 85.6702  84.4699 85.6702  C 84.4699 85.6702  83.0702 86.9066  83.0702 86.9066  C 83.0702 86.9066  83.5914 88.4647  83.5914 88.4647  C 83.5914 88.4647  82.3616 90.0446  82.3616 90.0446  C 82.3616 90.0446  82.6135 90.7257  82.6135 90.7257  C 82.6135 90.7257  81.2373 92.0115  81.2373 92.0115  C 81.2373 92.0115  81.6823 94.8998  81.6823 94.8998  C 81.6823 94.8998  81.1612 95.2378  81.1612 95.2378  C 81.1612 95.2378  80.1832 96.8948  80.1832 96.8948  C 80.1832 96.8948  79.4629 97.5925  79.4629 97.5925  C 79.4629 97.5925  79.8846 98.8082  79.8846 98.8082  C 79.8846 98.8082  79.3809 100.6455  79.3809 100.6455  Z M 69.4679 118.0815  C 69.4679 118.0815  69.0287 117.8195  69.0287 117.8195  C 69.0287 117.8195  69.0112 115.9134  69.0112 115.9134  C 69.0112 115.9134  69.7022 115.5531  69.7022 115.5531  C 69.7022 115.5531  69.7842 117.3391  69.7842 117.3391  C 69.7842 117.3391  71.8441 117.5848  71.8441 117.5848  C 71.8441 117.5848  69.4679 118.0815  69.4679 118.0815  Z M 67.6629 112.1163  C 67.6629 112.1163  65.9367 112.1108  65.9367 112.1108  C 65.9367 112.1108  66.2588 109.8886  66.2588 109.8886  C 66.2588 109.8886  67.6629 112.1163  67.6629 112.1163  Z M 66.07 107.1771  C 66.07 107.1771  64.2209 108.8973  64.2209 108.8973  C 64.2209 108.8973  64.2209 106.9425  64.2209 106.9425  C 64.2209 106.9425  66.07 107.1771  66.07 107.1771  Z " fill-rule="nonzero" fill="#ffffff" stroke="none" transform="matrix(1 0 0 1 300 388 )" />
    <path d="M 79.3809 100.6455  C 79.3809 100.6455  79.7147 101.6924  79.7147 101.6924  C 79.7147 101.6924  78.5493 102.1722  78.5493 102.1722  C 78.5493 102.1722  77.138 102.145  77.138 102.145  C 77.138 102.145  76.2948 102.783  76.2948 102.783  C 76.2948 102.783  76.0781 102.314  76.0781 102.314  C 76.0781 102.314  74.5379 101.9541  74.5379 101.9541  C 74.5379 101.9541  74.6141 100.5365  74.6141 100.5365  C 74.6141 100.5365  73.8937 99.1025  73.8937 99.1025  C 73.8937 99.1025  73.0329 99.3752  73.0329 99.3752  C 73.0329 99.3752  72.1486 98.3393  72.1486 98.3393  C 72.1486 98.3393  71.2468 98.3829  71.2468 98.3829  C 71.2468 98.3829  70.872 96.2406  70.872 96.2406  C 70.872 96.2406  71.1824 94.0278  71.1824 94.0278  C 71.1824 94.0278  70.8896 93.0143  70.8896 93.0143  C 70.8896 93.0143  70.2454 92.3004  70.2454 92.3004  C 70.2454 92.3004  69.3201 92.0878  69.3201 92.0878  C 69.3201 92.0878  66.6263 92.5565  66.6263 92.5565  C 66.6263 92.5565  61.0221 94.8508  61.0221 94.8508  C 61.0221 94.8508  58.9782 95.8592  58.9782 95.8592  C 58.9782 95.8592  56.2845 97.7561  56.2845 97.7561  C 56.2845 97.7561  52.8294 101.0435  52.8294 101.0435  C 52.8294 101.0435  52.3492 103.0501  52.3492 103.0501  C 52.3492 103.0501  52.396 104.6045  52.396 104.6045  C 52.396 104.6045  52.7181 105.4062  52.7181 105.4062  C 52.7181 105.4062  54.0709 106.8406  54.0709 106.8406  C 54.0709 106.8406  56.2903 106.6061  56.2903 106.6061  C 56.2903 106.6061  57.8891 107.6206  57.8891 107.6206  C 57.8891 107.6206  58.0999 109.2736  58.0999 109.2736  C 58.0999 109.2736  56.6651 110.8122  56.6651 110.8122  C 56.6651 110.8122  56.1322 110.4793  56.1322 110.4793  C 56.1322 110.4793  54.0884 111.9743  54.0884 111.9743  C 54.0884 111.9743  52.1618 112.2636  52.1618 112.2636  C 52.1618 112.2636  51.7401 111.6088  51.7401 111.6088  C 51.7401 111.6088  50.1941 112.3563  50.1941 112.3563  C 50.1941 112.3563  47.6057 114.4792  47.6057 114.4792  C 47.6057 114.4792  46.1593 116.4658  46.1593 116.4658  C 46.1593 116.4658  45.7083 116.6895  45.7083 116.6895  C 45.7083 116.6895  45.111 115.6417  45.111 115.6417  C 45.111 115.6417  44.4844 115.6307  44.4844 115.6307  C 44.4844 115.6307  43.155 116.5858  43.155 116.5858  C 43.155 116.5858  40.8902 116.8861  40.8902 116.8861  C 40.8902 116.8861  40.4743 116.4767  40.4743 116.4767  C 40.4743 116.4767  40.9546 115.2159  40.9546 115.2159  C 40.9546 115.2159  43.2781 114.0535  43.2781 114.0535  C 43.2781 114.0535  40.6969 111.8434  40.6969 111.8434  C 40.6969 111.8434  39.4847 111.1559  39.4847 111.1559  C 39.4847 111.1559  36.7558 110.8886  36.7558 110.8886  C 36.7558 110.8886  35.0692 111.2868  35.0692 111.2868  C 35.0692 111.2868  31.7898 113.2895  31.7898 113.2895  C 31.7898 113.2895  31.087 114.2008  31.087 114.2008  C 31.087 114.2008  30.4663 115.789  30.4663 115.789  C 30.4663 115.789  30.5424 119.4626  30.5424 119.4626  C 30.5424 119.4626  29.3946 119.8721  29.3946 119.8721  C 29.3946 119.8721  28.4811 121.2425  28.4811 121.2425  C 28.4811 121.2425  28.077 120.5273  28.077 120.5273  C 28.077 120.5273  25.84 119.479  25.84 119.479  C 25.84 119.479  25.0846 119.5008  25.0846 119.5008  C 25.0846 119.5008  23.0525 120.6364  23.0525 120.6364  C 23.0525 120.6364  21.6236 121.9413  21.6236 121.9413  C 21.6236 121.9413  20.6457 122.2253  20.6457 122.2253  C 20.6457 122.2253  20.1772 121.8431  20.1772 121.8431  C 20.1772 121.8431  20.0308 120.56  20.0308 120.56  C 20.0308 120.56  18.1978 120.9914  18.1978 120.9914  C 18.1978 120.9914  16.605 122.3345  16.605 122.3345  C 16.605 122.3345  15.1351 122.471  15.1351 122.471  C 15.1351 122.471  13.3489 120.9477  13.3489 120.9477  C 13.3489 120.9477  13.8643 119.954  13.8643 119.954  C 13.8643 119.954  13.8467 119.015  13.8467 119.015  C 13.8467 119.015  12.939 115.2705  12.939 115.2705  C 12.939 115.2705  12.3534 114.7793  12.3534 114.7793  C 12.3534 114.7793  11.557 115.3305  11.557 115.3305  C 11.557 115.3305  11.6975 114.359  11.6975 114.359  C 11.6975 114.359  10.9889 114.9812  10.9889 114.9812  C 10.9889 114.9812  10.7429 114.4792  10.7429 114.4792  C 10.7429 114.4792  11.1646 113.1421  11.1646 113.1421  C 11.1646 113.1421  10.6024 112.5036  10.6024 112.5036  C 10.6024 112.5036  11.4633 110.8559  11.4633 110.8559  C 11.4633 110.8559  10.9186 110.5339  10.9186 110.5339  C 10.9186 110.5339  10.5263 108.9682  10.5263 108.9682  C 10.5263 108.9682  10.5907 107.5279  10.5907 107.5279  C 10.5907 107.5279  10.9948 107.337  10.9948 107.337  C 10.9948 107.337  11.0944 106.0552  11.0944 106.0552  C 11.0944 106.0552  11.7561 105.1444  11.7561 105.1444  C 11.7561 105.1444  11.557 104.4627  11.557 104.4627  C 11.557 104.4627  12.453 102.783  12.453 102.783  C 12.453 102.783  11.7326 100.2257  11.7326 100.2257  C 11.7326 100.2257  9.57760000000002 99.2553  9.57760000000002 99.2553  C 9.57760000000002 99.2553  8.57040000000001 99.3534  8.57040000000001 99.3534  C 8.57040000000001 99.3534  7.9144 98.6065  7.9144 98.6065  C 7.9144 98.6065  8.096 96.9983  8.096 96.9983  C 8.096 96.9983  8.48840000000001 96.3879  8.48840000000001 96.3879  C 8.48840000000001 96.3879  7.38150000000002 94.5402  7.38150000000002 94.5402  C 7.38150000000002 94.5402  8.34789999999998 93.9407  8.34789999999998 93.9407  C 8.34789999999998 93.9407  9.46050000000002 92.0987  9.46050000000002 92.0987  C 9.46050000000002 92.0987  11.1412 90.5294  11.1412 90.5294  C 11.1412 90.5294  10.661 86.8194  10.661 86.8194  C 10.661 86.8194  9.5659 86.3402  9.5659 86.3402  C 9.5659 86.3402  9.5951 85.5939  9.5951 85.5939  C 9.5951 85.5939  7.40499999999997 85.7628  7.40499999999997 85.7628  C 7.40499999999997 85.7628  6.8897 85.5558  6.8897 85.5558  C 6.8897 85.5558  6.47969999999998 84.0798  6.47969999999998 84.0798  C 6.47969999999998 84.0798  4.76389999999998 84.3467  4.76389999999998 84.3467  C 4.76389999999998 84.3467  3.62779999999998 83.0668  3.62779999999998 83.0668  C 3.62779999999998 83.0668  3.24130000000002 81.9614  3.24130000000002 81.9614  C 3.24130000000002 81.9614  2.53859999999997 82.3535  2.53859999999997 82.3535  C 2.53859999999997 82.3535  0.945699999999988 80.9268  0.945699999999988 80.9268  C 0.945699999999988 80.9268  0.728999999999985 79.2826  0.728999999999985 79.2826  C 0.728999999999985 79.2826  1.2971 78.0848  1.2971 78.0848  C 1.2971 78.0848  0.436199999999985 76.4245  0.436199999999985 76.4245  C 0.436199999999985 76.4245  0.459699999999998 74.4215  0.459699999999998 74.4215  C 0.459699999999998 74.4215  0.75830000000002 73.7956  0.75830000000002 73.7956  C 0.75830000000002 73.7956  0.43040000000002 72.8977  0.43040000000002 72.8977  C 0.43040000000002 72.8977  0.75830000000002 71.5482  0.75830000000002 71.5482  C 0.75830000000002 71.5482  2.15800000000002 70.3456  2.15800000000002 70.3456  C 2.15800000000002 70.3456  2.05840000000001 68.5013  2.05840000000001 68.5013  C 2.05840000000001 68.5013  1.39080000000001 68.3544  1.39080000000001 68.3544  C 1.39080000000001 68.3544  0.582600000000014 66.6245  0.582600000000014 66.6245  C 0.582600000000014 66.6245  0.822699999999998 65.6128  0.822699999999998 65.6128  C 0.822699999999998 65.6128  1.75389999999999 65.0308  1.75389999999999 65.0308  C 1.75389999999999 65.0308  1.59570000000002 64.4216  1.59570000000002 64.4216  C 1.59570000000002 64.4216  2.05250000000001 62.9533  2.05250000000001 62.9533  C 2.05250000000001 62.9533  3.00119999999998 63.1328  3.00119999999998 63.1328  C 3.00119999999998 63.1328  2.67329999999998 62.5508  2.67329999999998 62.5508  C 2.67329999999998 62.5508  3.77999999999997 60.0555  3.77999999999997 60.0555  C 3.77999999999997 60.0555  3.56920000000002 59.0007  3.56920000000002 59.0007  C 3.56920000000002 59.0007  4.57060000000001 58.4841  4.57060000000001 58.4841  C 4.57060000000001 58.4841  4.8107 57.3642  4.8107 57.3642  C 4.8107 57.3642  4.10210000000001 56.0649  4.10210000000001 56.0649  C 4.10210000000001 56.0649  4.33640000000003 54.2494  4.33640000000003 54.2494  C 4.33640000000003 54.2494  3.77999999999997 53.0972  3.77999999999997 53.0972  C 3.77999999999997 53.0972  5.37880000000001 52.108  5.37880000000001 52.108  C 5.37880000000001 52.108  5.8356 50.8527  5.8356 50.8527  C 5.8356 50.8527  5.22649999999999 49.0053  5.22649999999999 49.0053  C 5.22649999999999 49.0053  6.32749999999999 46.7181  6.32749999999999 46.7181  C 6.32749999999999 46.7181  7.57479999999998 45.7783  7.57479999999998 45.7783  C 7.57479999999998 45.7783  7.9144 46.0119  7.9144 46.0119  C 7.9144 46.0119  8.4708 44.9472  8.4708 44.9472  C 8.4708 44.9472  9.44290000000001 44.7734  9.44290000000001 44.7734  C 9.44290000000001 44.7734  10.6317 43.7197  10.6317 43.7197  C 10.6317 43.7197  11.0768 42.7746  11.0768 42.7746  C 11.0768 42.7746  11.8966 42.5085  11.8966 42.5085  C 11.8966 42.5085  13.4309 43.0137  13.4309 43.0137  C 13.4309 43.0137  13.8877 40.3527  13.8877 40.3527  C 13.8877 40.3527  14.2976 39.7663  14.2976 39.7663  C 14.2976 39.7663  13.8818 38.9953  13.8818 38.9953  C 13.8818 38.9953  14.5553 37.2688  14.5553 37.2688  C 14.5553 37.2688  14.3738 36.9268  14.3738 36.9268  C 14.3738 36.9268  15.4278 36.5088  15.4278 36.5088  C 15.4278 36.5088  16.3941 36.5685  16.3941 36.5685  C 16.3941 36.5685  16.5405 35.9713  16.5405 35.9713  C 16.5405 35.9713  17.8406 34.9346  17.8406 34.9346  C 17.8406 34.9346  18.2857 33.3335  18.2857 33.3335  C 18.2857 33.3335  19.3632 34.039  19.3632 34.039  C 19.3632 34.039  20.2533 33.0513  20.2533 33.0513  C 20.2533 33.0513  21.0028 33.3932  21.0028 33.3932  C 21.0028 33.3932  22.4493 32.324  22.4493 32.324  C 22.4493 32.324  23.884 32.8775  23.884 32.8775  C 23.884 32.8775  24.6805 32.2914  24.6805 32.2914  C 24.6805 32.2914  25.1841 30.4898  25.1841 30.4898  C 25.1841 30.4898  25.9103 30.7665  25.9103 30.7665  C 25.9103 30.7665  26.9878 29.5077  26.9878 29.5077  C 26.9878 29.5077  28.4167 27.0771  28.4167 27.0771  C 28.4167 27.0771  29.219 26.2417  29.219 26.2417  C 29.219 26.2417  30.6713 24.0069  30.6713 24.0069  C 30.6713 24.0069  30.9992 22.7921  30.9992 22.7921  C 30.9992 22.7921  30.7649 21.4038  30.7649 21.4038  C 30.7649 21.4038  31.5965 21.4309  31.5965 21.4309  C 31.5965 21.4309  33.2889 19.1319  33.2889 19.1319  C 33.2889 19.1319  33.9038 16.9687  33.9038 16.9687  C 33.9038 16.9687  33.775 15.4996  33.775 15.4996  C 33.775 15.4996  35.1746 12.432  35.1746 12.432  C 35.1746 12.432  37.1599 11.1857  37.1599 11.1857  C 37.1599 11.1857  37.1657 10.6437  37.1657 10.6437  C 37.1657 10.6437  38.4071 9.83100000000002  38.4071 9.83100000000002  C 38.4071 9.83100000000002  38.7117 8.6499  38.7117 8.6499  C 38.7117 8.6499  40.0996 6.75369999999998  40.0996 6.75369999999998  C 40.0996 6.75369999999998  41.019 6.0333  41.019 6.0333  C 41.019 6.0333  40.451 4.79840000000002  40.451 4.79840000000002  C 40.451 4.79840000000002  40.6559 3.70420000000001  40.6559 3.70420000000001  C 40.6559 3.70420000000001  41.464 2.62650000000002  41.464 2.62650000000002  C 41.464 2.62650000000002  41.4465 1.63560000000001  41.4465 1.63560000000001  C 41.4465 1.63560000000001  43.4654 1.197  43.4654 1.197  C 43.4654 1.197  43.606 0.357700000000023  43.606 0.357700000000023  C 43.606 0.357700000000023  44.1564 0.476800000000026  44.1564 0.476800000000026  C 44.1564 0.476800000000026  44.0686 1.3648  44.0686 1.3648  C 44.0686 1.3648  44.7831 1.65179999999998  44.7831 1.65179999999998  C 44.7831 1.65179999999998  45.6908 3.41180000000003  45.6908 3.41180000000003  C 45.6908 3.41180000000003  46.3232 3.3306  46.3232 3.3306  C 46.3232 3.3306  46.3584 6.00619999999998  46.3584 6.00619999999998  C 46.3584 6.00619999999998  45.2984 6.08749999999998  45.2984 6.08749999999998  C 45.2984 6.08749999999998  44.9939 6.94330000000002  44.9939 6.94330000000002  C 44.9939 6.94330000000002  45.5326 7.68009999999998  45.5326 7.68009999999998  C 45.5326 7.68009999999998  45.4273 8.87200000000001  45.4273 8.87200000000001  C 45.4273 8.87200000000001  44.4961 8.17860000000002  44.4961 8.17860000000002  C 44.4961 8.17860000000002  44.0569 8.86660000000001  44.0569 8.86660000000001  C 44.0569 8.86660000000001  43.3483 8.5145  43.3483 8.5145  C 43.3483 8.5145  41.5753 9.6576  41.5753 9.6576  C 41.5753 9.6576  43.5123 9.84719999999999  43.5123 9.84719999999999  C 43.5123 9.84719999999999  43.6411 10.8551  43.6411 10.8551  C 43.6411 10.8551  45.4506 11.2995  45.4506 11.2995  C 45.4506 11.2995  46.3232 12.302  46.3232 12.302  C 46.3232 12.302  46.5516 11.5325  46.5516 11.5325  C 46.5516 11.5325  48.572 12.4266  48.572 12.4266  C 48.572 12.4266  48.7242 11.3103  48.7242 11.3103  C 48.7242 11.3103  49.6378 10.064  49.6378 10.064  C 49.6378 10.064  50.0009 10.2265  50.0009 10.2265  C 50.0009 10.2265  50.9379 8.80700000000002  50.9379 8.80700000000002  C 50.9379 8.80700000000002  51.5411 7.29539999999997  51.5411 7.29539999999997  C 51.5411 7.29539999999997  52.8703 5.97910000000002  52.8703 5.97910000000002  C 52.8703 5.97910000000002  53.5965 6.61829999999998  53.5965 6.61829999999998  C 53.5965 6.61829999999998  55.0606 10.0477  55.0606 10.0477  C 55.0606 10.0477  56.0678 10.5137  56.0678 10.5137  C 56.0678 10.5137  56.0853 11.9226  56.0853 11.9226  C 56.0853 11.9226  55.4236 12.9848  55.4236 12.9848  C 55.4236 12.9848  54.3871 13.1961  54.3871 13.1961  C 54.3871 13.1961  53.8659 14.8763  53.8659 14.8763  C 53.8659 14.8763  54.9727 18.0475  54.9727 18.0475  C 54.9727 18.0475  54.9493 19.0614  54.9493 19.0614  C 54.9493 19.0614  55.8394 20.3843  55.8394 20.3843  C 55.8394 20.3843  56.8701 20.52  56.8701 20.52  C 56.8701 20.52  57.2858 21.1598  57.2858 21.1598  C 57.2858 21.1598  57.1805 22.4883  57.1805 22.4883  C 57.1805 22.4883  58.8318 23.0416  58.8318 23.0416  C 58.8318 23.0416  59.6693 24.392  59.6693 24.392  C 59.6693 24.392  60.6882 24.5819  60.6882 24.5819  C 60.6882 24.5819  61.7716 26.2362  61.7716 26.2362  C 61.7716 26.2362  62.1054 27.6739  62.1054 27.6739  C 62.1054 27.6739  62.8199 28.1459  62.8199 28.1459  C 62.8199 28.1459  64.5181 28.4389  64.5181 28.4389  C 64.5181 28.4389  66.3452 29.2038  66.3452 29.2038  C 66.3452 29.2038  67.048 28.2219  67.048 28.2219  C 67.048 28.2219  68.5354 29.7301  68.5354 29.7301  C 68.5354 29.7301  68.834 31.3254  68.834 31.3254  C 68.834 31.3254  67.9615 32.2534  67.9615 32.2534  C 67.9615 32.2534  67.9088 33.0133  67.9088 33.0133  C 67.9088 33.0133  67.2295 34.0173  67.2295 34.0173  C 67.2295 34.0173  67.698 34.5601  67.698 34.5601  C 67.698 34.5601  67.4462 36.004  67.4462 36.004  C 67.4462 36.004  66.4682 36.194  66.4682 36.194  C 66.4682 36.194  66.4858 34.9726  66.4858 34.9726  C 66.4858 34.9726  65.988 34.9183  65.988 34.9183  C 65.988 34.9183  65.3497 36.1397  65.3497 36.1397  C 65.3497 36.1397  65.3614 34.2452  65.3614 34.2452  C 65.3614 34.2452  64.4362 35.1517  64.4362 35.1517  C 64.4362 35.1517  63.7393 34.7284  63.7393 34.7284  C 63.7393 34.7284  62.4509 34.7826  62.4509 34.7826  C 62.4509 34.7826  61.1626 37.5023  61.1626 37.5023  C 61.1626 37.5023  61.4613 38.1049  61.4613 38.1049  C 61.4613 38.1049  60.9459 39.5274  60.9459 39.5274  C 60.9459 39.5274  61.4144 40.3962  61.4144 40.3962  C 61.4144 40.3962  60.8932 41.6614  60.8932 41.6614  C 60.8932 41.6614  59.9738 42.9648  59.9738 42.9648  C 59.9738 42.9648  58.99 43.7794  58.99 43.7794  C 58.99 43.7794  57.7192 43.2201  57.7192 43.2201  C 57.7192 43.2201  56.9989 43.4318  56.9989 43.4318  C 56.9989 43.4318  56.5187 45.2514  56.5187 45.2514  C 56.5187 45.2514  57.8246 45.8109  57.8246 45.8109  C 57.8246 45.8109  58.0355 46.5877  58.0355 46.5877  C 58.0355 46.5877  59.0895 46.8974  59.0895 46.8974  C 59.0895 46.8974  59.0895 48.6413  59.0895 48.6413  C 59.0895 48.6413  60.1378 49.4074  60.1378 49.4074  C 60.1378 49.4074  60.1788 50.7115  60.1788 50.7115  C 60.1788 50.7115  59.3706 51.4505  59.3706 51.4505  C 59.3706 51.4505  58.9958 53.4341  58.9958 53.4341  C 58.9958 53.4341  60.1027 55.5919  60.1027 55.5919  C 60.1027 55.5919  59.1598 57.1685  59.1598 57.1685  C 59.1598 57.1685  58.2755 57.6088  58.2755 57.6088  C 58.2755 57.6088  58.8201 58.9952  58.8201 58.9952  C 58.8201 58.9952  61.754 57.799  61.754 57.799  C 61.754 57.799  61.7892 57.2881  61.7892 57.2881  C 61.7892 57.2881  62.7906 57.1739  62.7906 57.1739  C 62.7906 57.1739  63.06 56.5596  63.06 56.5596  C 63.06 56.5596  64.2839 56.7172  64.2839 56.7172  C 64.2839 56.7172  64.3483 57.7664  64.3483 57.7664  C 64.3483 57.7664  65.8826 59.7999  65.8826 59.7999  C 65.8826 59.7999  65.8299 60.7134  65.8299 60.7134  C 65.8299 60.7134  67.1358 60.8547  67.1358 60.8547  C 67.1358 60.8547  67.6336 62.2898  67.6336 62.2898  C 67.6336 62.2898  68.1547 60.8004  68.1547 60.8004  C 68.1547 60.8004  69.0097 62.8499  69.0097 62.8499  C 69.0097 62.8499  69.4724 62.8716  69.4724 62.8716  C 69.4724 62.8716  70.3333 64.7425  70.3333 64.7425  C 70.3333 64.7425  71.4049 64.9601  71.4049 64.9601  C 71.4049 64.9601  72.418 64.4978  72.418 64.4978  C 72.418 64.4978  73.5248 65.0743  73.5248 65.0743  C 73.5248 65.0743  73.8645 66.1731  73.8645 66.1731  C 73.8645 66.1731  72.7577 67.522  72.7577 67.522  C 72.7577 67.522  73.1266 69.7309  73.1266 69.7309  C 73.1266 69.7309  73.923 69.5567  73.923 69.5567  C 73.923 69.5567  73.437 70.3076  73.437 70.3076  C 73.437 70.3076  74.4852 70.9224  74.4852 70.9224  C 74.4852 70.9224  76.3474 71.4067  76.3474 71.4067  C 76.3474 71.4067  77.1029 72.2066  77.1029 72.2066  C 77.1029 72.2066  77.3547 73.3331  77.3547 73.3331  C 77.3547 73.3331  79.0413 73.0555  79.0413 73.0555  C 79.0413 73.0555  80.5287 73.9589  80.5287 73.9589  C 80.5287 73.9589  80.9386 75.3305  80.9386 75.3305  C 80.9386 75.3305  81.4891 75.6788  81.4891 75.6788  C 81.4891 75.6788  82.2094 77.3771  82.2094 77.3771  C 82.2094 77.3771  82.2563 79.7834  82.2563 79.7834  C 82.2563 79.7834  82.7013 79.6582  82.7013 79.6582  C 82.7013 79.6582  82.5667 81.1228  82.5667 81.1228  C 82.5667 81.1228  83 81.5748  83 81.5748  C 83 81.5748  82.8126 83.2411  82.8126 83.2411  C 82.8126 83.2411  82.4085 84.1125  82.4085 84.1125  C 82.4085 84.1125  83.4626 84.5917  83.4626 84.5917  C 83.4626 84.5917  84.4699 85.6702  84.4699 85.6702  C 84.4699 85.6702  83.0702 86.9066  83.0702 86.9066  C 83.0702 86.9066  83.5914 88.4647  83.5914 88.4647  C 83.5914 88.4647  82.3616 90.0446  82.3616 90.0446  C 82.3616 90.0446  82.6135 90.7257  82.6135 90.7257  C 82.6135 90.7257  81.2373 92.0115  81.2373 92.0115  C 81.2373 92.0115  81.6823 94.8998  81.6823 94.8998  C 81.6823 94.8998  81.1612 95.2378  81.1612 95.2378  C 81.1612 95.2378  80.1832 96.8948  80.1832 96.8948  C 80.1832 96.8948  79.4629 97.5925  79.4629 97.5925  C 79.4629 97.5925  79.8846 98.8082  79.8846 98.8082  C 79.8846 98.8082  79.3809 100.6455  79.3809 100.6455  Z " stroke-width="2" stroke="#666666" fill="none" transform="matrix(1 0 0 1 300 388 )" mask="url(#clip42)" />
    <path d="M 69.4679 118.0815  C 69.4679 118.0815  69.0287 117.8195  69.0287 117.8195  C 69.0287 117.8195  69.0112 115.9134  69.0112 115.9134  C 69.0112 115.9134  69.7022 115.5531  69.7022 115.5531  C 69.7022 115.5531  69.7842 117.3391  69.7842 117.3391  C 69.7842 117.3391  71.8441 117.5848  71.8441 117.5848  C 71.8441 117.5848  69.4679 118.0815  69.4679 118.0815  Z " stroke-width="2" stroke="#666666" fill="none" transform="matrix(1 0 0 1 300 388 )" mask="url(#clip42)" />
    <path d="M 67.6629 112.1163  C 67.6629 112.1163  65.9367 112.1108  65.9367 112.1108  C 65.9367 112.1108  66.2588 109.8886  66.2588 109.8886  C 66.2588 109.8886  67.6629 112.1163  67.6629 112.1163  Z " stroke-width="2" stroke="#666666" fill="none" transform="matrix(1 0 0 1 300 388 )" mask="url(#clip42)" />
    <path d="M 66.07 107.1771  C 66.07 107.1771  64.2209 108.8973  64.2209 108.8973  C 64.2209 108.8973  64.2209 106.9425  64.2209 106.9425  C 64.2209 106.9425  66.07 107.1771  66.07 107.1771  Z " stroke-width="2" stroke="#666666" fill="none" transform="matrix(1 0 0 1 300 388 )" mask="url(#clip42)" />
  </g>
</svg>