<?xml version="1.0" encoding="utf-8"?>
<svg version="1.1" xmlns:xlink="http://www.w3.org/1999/xlink" width="155px" height="180px" xmlns="http://www.w3.org/2000/svg">
  <defs>
    <mask fill="white" id="clip43">
      <path d="M 82.4182 27.9313  C 82.4182 27.9313  83.2088 27.3033  83.2088 27.3033  C 83.2088 27.3033  83.9994 28.6552  83.9994 28.6552  C 83.9994 28.6552  83.97 30.0763  83.97 30.0763  C 83.97 30.0763  84.3624 30.4064  84.3624 30.4064  C 84.3624 30.4064  84.4444 31.8438  84.4444 31.8438  C 84.4444 31.8438  85.2994 33.0578  85.2994 33.0578  C 85.2994 33.0578  85.1003 34.5753  85.1003 34.5753  C 85.1003 34.5753  84.7313 35.028  84.7313 35.028  C 84.7313 35.028  83.525 35.1345  83.525 35.1345  C 83.525 35.1345  82.02 36.9612  82.02 36.9612  C 82.02 36.9612  80.5325 37.8081  80.5325 37.8081  C 80.5325 37.8081  79.9059 38.671  79.9059 38.671  C 79.9059 38.671  80.556 40.1786  80.556 40.1786  C 80.556 40.1786  79.8708 41.452  79.8708 41.452  C 79.8708 41.452  80.0992 42.0913  80.0992 42.0913  C 80.0992 42.0913  79.0334 44.6065  79.0334 44.6065  C 79.0334 44.6065  78.5356 44.825  78.5356 44.825  C 78.5356 44.825  78.9279 46.5733  78.9279 46.5733  C 78.9279 46.5733  78.2838 48.5615  78.2838 48.5615  C 78.2838 48.5615  75.0116 49.0627  75.0116 49.0627  C 75.0116 49.0627  76.0716 54.267  76.0716 54.267  C 76.0716 54.267  74.6896 55.4991  74.6896 55.4991  C 74.6896 55.4991  74.7949 57.3661  74.7949 57.3661  C 74.7949 57.3661  73.7877 58.988  73.7877 58.988  C 73.7877 58.988  74.0454 61.1331  74.0454 61.1331  C 74.0454 61.1331  74.8652 60.5994  74.8652 60.5994  C 74.8652 60.5994  75.1229 61.0957  75.1229 61.0957  C 75.1229 61.0957  76.2766 60.6047  76.2766 60.6047  C 76.2766 60.6047  76.9793 61.0156  76.9793 61.0156  C 76.9793 61.0156  79.824 61.1651  79.824 61.1651  C 79.824 61.1651  80.8839 62.0669  80.8839 62.0669  C 80.8839 62.0669  80.6556 63.684  80.6556 63.684  C 80.6556 63.684  81.2646 63.9029  81.2646 63.9029  C 81.2646 63.9029  82.2249 66.4705  82.2249 66.4705  C 82.2249 66.4705  82.9218 66.2836  82.9218 66.2836  C 82.9218 66.2836  83.5835 67.9173  83.5835 67.9173  C 83.5835 67.9173  85.1823 69.4497  85.1823 69.4497  C 85.1823 69.4497  85.5629 71.4683  85.5629 71.4683  C 85.5629 71.4683  87.2261 73.3376  87.2261 73.3376  C 87.2261 73.3376  88.4734 74.0214  88.4734 74.0214  C 88.4734 74.0214  90.2771 73.7382  90.2771 73.7382  C 90.2771 73.7382  91.0032 71.2066  91.0032 71.2066  C 91.0032 71.2066  92.3267 70.5391  92.3267 70.5391  C 92.3267 70.5391  94.0836 72.5845  94.0836 72.5845  C 94.0836 72.5845  95.1787 73.0118  95.1787 73.0118  C 95.1787 73.0118  95.3251 74.1335  95.3251 74.1335  C 95.3251 74.1335  95.9809 72.9798  95.9809 72.9798  C 95.9809 72.9798  96.9765 73.3002  96.9765 73.3002  C 96.9765 73.3002  97.8783 72.8089  97.8783 72.8089  C 97.8783 72.8089  98.663 73.4231  98.663 73.4231  C 98.663 73.4231  99.3599 73.2416  99.3599 73.2416  C 99.3599 73.2416  100.1505 71.2814  100.1505 71.2814  C 100.1505 71.2814  101.1929 70.9984  101.1929 70.9984  C 101.1929 70.9984  101.6262 70.2454  101.6262 70.2454  C 101.6262 70.2454  102.2997 70.6246  102.2997 70.6246  C 102.2997 70.6246  102.7916 69.8022  102.7916 69.8022  C 102.7916 69.8022  102.9204 71.0678  102.9204 71.0678  C 102.9204 71.0678  103.6114 72.654  103.6114 72.654  C 103.6114 72.654  104.2673 73.2149  104.2673 73.2149  C 104.2673 73.2149  104.402 74.2083  104.402 74.2083  C 104.402 74.2083  106.1471 75.2073  106.1471 75.2073  C 106.1471 75.2073  108.0152 74.3793  108.0152 74.3793  C 108.0152 74.3793  108.9171 73.6368  108.9171 73.6368  C 108.9171 73.6368  110.3987 73.6795  110.3987 73.6795  C 110.3987 73.6795  111.2712 72.9744  111.2712 72.9744  C 111.2712 72.9744  112.1965 71.4523  112.1965 71.4523  C 112.1965 71.4523  112.6239 72.3496  112.6239 72.3496  C 112.6239 72.3496  115.3588 72.3442  115.3588 72.3442  C 115.3588 72.3442  115.1011 73.6422  115.1011 73.6422  C 115.1011 73.6422  115.6399 74.9242  115.6399 74.9242  C 115.6399 74.9242  117.303 75.5599  117.303 75.5599  C 117.303 75.5599  119.3234 74.7425  119.3234 74.7425  C 119.3234 74.7425  120.1959 73.108  120.1959 73.108  C 120.1959 73.108  120.9923 73.797  120.9923 73.797  C 120.9923 73.797  121.7595 73.5139  121.7595 73.5139  C 121.7595 73.5139  122.4095 72.4724  122.4095 72.4724  C 122.4095 72.4724  123.2528 73.9146  123.2528 73.9146  C 123.2528 73.9146  124.1254 72.9264  124.1254 72.9264  C 124.1254 72.9264  124.2073 71.8796  124.2073 71.8796  C 124.2073 71.8796  124.9042 70.208  124.9042 70.208  C 124.9042 70.208  125.8295 69.7167  125.8295 69.7167  C 125.8295 69.7167  127.5922 69.9143  127.5922 69.9143  C 127.5922 69.9143  127.8908 70.79  127.8908 70.79  C 127.8908 70.79  128.6638 69.2895  128.6638 69.2895  C 128.6638 69.2895  129.4252 69.5191  129.4252 69.5191  C 129.4252 69.5191  129.2084 70.7527  129.2084 70.7527  C 129.2084 70.7527  130.1923 71.8636  130.1923 71.8636  C 130.1923 71.8636  131.422 71.6659  131.422 71.6659  C 131.422 71.6659  132.2946 72.2214  132.2946 72.2214  C 132.2946 72.2214  132.7572 73.1133  132.7572 73.1133  C 132.7572 73.1133  133.7938 74.0802  133.7938 74.0802  C 133.7938 74.0802  134.5023 74.1549  134.5023 74.1549  C 134.5023 74.1549  135.8083 75.5118  135.8083 75.5118  C 135.8083 75.5118  136.0542 77.1894  136.0542 77.1894  C 136.0542 77.1894  137.852 79.7704  137.852 79.7704  C 137.852 79.7704  138.7949 79.5405  138.7949 79.5405  C 138.7949 79.5405  138.9237 77.4726  138.9237 77.4726  C 138.9237 77.4726  139.1579 77.2588  139.1579 77.2588  C 139.1579 77.2588  141.1783 77.2428  141.1783 77.2428  C 141.1783 77.2428  141.8986 77.6702  141.8986 77.6702  C 141.8986 77.6702  142.086 79.2253  142.086 79.2253  C 142.086 79.2253  143.0757 79.9199  143.0757 79.9199  C 143.0757 79.9199  145.0316 80.8499  145.0316 80.8499  C 145.0316 80.8499  145.1605 82.6244  145.1605 82.6244  C 145.1605 82.6244  144.8091 83.3407  144.8091 83.3407  C 144.8091 83.3407  146.156 85.9014  146.156 85.9014  C 146.156 85.9014  146.0388 86.6768  146.0388 86.6768  C 146.0388 86.6768  147.1281 87.4949  147.1281 87.4949  C 147.1281 87.4949  147.8309 87.5269  147.8309 87.5269  C 147.8309 87.5269  148.5921 90.297  148.5921 90.297  C 148.5921 90.297  148.1588 91.7571  148.1588 91.7571  C 148.1588 91.7571  148.153 94.2873  148.153 94.2873  C 148.153 94.2873  148.557 94.8116  148.557 94.8116  C 148.557 94.8116  147.7957 95.7746  147.7957 95.7746  C 147.7957 95.7746  149.0021 97.0158  149.0021 97.0158  C 149.0021 97.0158  149.5408 96.3952  149.5408 96.3952  C 149.5408 96.3952  150.2435 96.9089  150.2435 96.9089  C 150.2435 96.9089  150.1264 98.1021  150.1264 98.1021  C 150.1264 98.1021  151.0868 97.7811  151.0868 97.7811  C 151.0868 97.7811  151.6725 98.1824  151.6725 98.1824  C 151.6725 98.1824  151.6432 99.3758  151.6432 99.3758  C 151.6432 99.3758  152.1117 101.3561  152.1117 101.3561  C 152.1117 101.3561  153.9973 102.3089  153.9973 102.3089  C 153.9973 102.3089  154.0676 103.1173  154.0676 103.1173  C 154.0676 103.1173  154.6942 102.8228  154.6942 102.8228  C 154.6942 102.8228  154.6883 103.5884  154.6883 103.5884  C 154.6883 103.5884  153.0779 104.0059  153.0779 104.0059  C 153.0779 104.0059  152.4571 103.5777  152.4571 103.5777  C 152.4571 103.5777  150.8526 105.0446  150.8526 105.0446  C 150.8526 105.0446  149.0957 106.3297  149.0957 106.3297  C 149.0957 106.3297  149.494 107.7755  149.494 107.7755  C 149.494 107.7755  150.1206 108.4021  150.1206 108.4021  C 150.1206 108.4021  149.6755 109.2322  149.6755 109.2322  C 149.6755 109.2322  148.8556 109.2536  148.8556 109.2536  C 148.8556 109.2536  148.6331 110.0517  148.6331 110.0517  C 148.6331 110.0517  147.7371 110.5659  147.7371 110.5659  C 147.7371 110.5659  147.5614 111.4015  147.5614 111.4015  C 147.5614 111.4015  147.9772 112.1836  147.9772 112.1836  C 147.9772 112.1836  147.5381 112.7354  147.5381 112.7354  C 147.5381 112.7354  147.5497 113.7854  147.5497 113.7854  C 147.5497 113.7854  148.2291 113.9408  148.2291 113.9408  C 148.2291 113.9408  147.5966 115.3714  147.5966 115.3714  C 147.5966 115.3714  146.9114 115.693  146.9114 115.693  C 146.9114 115.693  147.1164 116.3146  147.1164 116.3146  C 147.1164 116.3146  145.7343 117.4292  145.7343 117.4292  C 145.7343 117.4292  145.0141 117.3274  145.0141 117.3274  C 145.0141 117.3274  144.001 119.2729  144.001 119.2729  C 144.001 119.2729  144.0185 120.227  144.0185 120.227  C 144.0185 120.227  143.5266 120.5112  143.5266 120.5112  C 143.5266 120.5112  142.6716 120.0394  142.6716 120.0394  C 142.6716 120.0394  141.9513 120.6077  141.9513 120.6077  C 141.9513 120.6077  141.19 120.0501  141.19 120.0501  C 141.19 120.0501  140.6922 120.42  140.6922 120.42  C 140.6922 120.42  139.2458 123.0737  139.2458 123.0737  C 139.2458 123.0737  138.5197 123.4973  138.5197 123.4973  C 138.5197 123.4973  139.5679 124.7091  139.5679 124.7091  C 139.5679 124.7091  139.4215 125.3686  139.4215 125.3686  C 139.4215 125.3686  140.1067 125.8834  140.1067 125.8834  C 140.1067 125.8834  140.5107 126.956  140.5107 126.956  C 140.5107 126.956  142.1739 126.7737  142.1739 126.7737  C 142.1739 126.7737  142.7712 127.6049  142.7712 127.6049  C 142.7712 127.6049  142.8532 129.0585  142.8532 129.0585  C 142.8532 129.0585  144.1473 129.7612  144.1473 129.7612  C 144.1473 129.7612  144.6861 130.5766  144.6861 130.5766  C 144.6861 130.5766  144.7564 132.7119  144.7564 132.7119  C 144.7564 132.7119  144.0947 132.5778  144.0947 132.5778  C 144.0947 132.5778  143.2923 133.3504  143.2923 133.3504  C 143.2923 133.3504  142.8532 135.2231  142.8532 135.2231  C 142.8532 135.2231  142.2207 135.8832  142.2207 135.8832  C 142.2207 135.8832  141.5414 137.3055  141.5414 137.3055  C 141.5414 137.3055  140.8445 137.6222  140.8445 137.6222  C 140.8445 137.6222  140.3292 137.1337  140.3292 137.1337  C 140.3292 137.1337  139.6675 137.5578  139.6675 137.5578  C 139.6675 137.5578  138.1273 136.7956  138.1273 136.7956  C 138.1273 136.7956  137.8403 137.429  137.8403 137.429  C 137.8403 137.429  138.4728 138.6903  138.4728 138.6903  C 138.4728 138.6903  138.2268 139.5976  138.2268 139.5976  C 138.2268 139.5976  138.6367 140.6014  138.6367 140.6014  C 138.6367 140.6014  137.5827 141.6054  137.5827 141.6054  C 137.5827 141.6054  136.1304 140.5423  136.1304 140.5423  C 136.1304 140.5423  135.8961 141.8417  135.8961 141.8417  C 135.8961 141.8417  134.5258 141.7665  134.5258 141.7665  C 134.5258 141.7665  133.4014 141.1115  133.4014 141.1115  C 133.4014 141.1115  132.5288 141.7074  132.5288 141.7074  C 132.5288 141.7074  132.0311 143.4472  132.0311 143.4472  C 132.0311 143.4472  130.6139 145.2193  130.6139 145.2193  C 130.6139 145.2193  131.4513 146.4815  131.4513 146.4815  C 131.4513 146.4815  132.2361 148.2325  132.2361 148.2325  C 132.2361 148.2325  131.8027 149.3821  131.8027 149.3821  C 131.8027 149.3821  132.2419 150.0913  132.2419 150.0913  C 132.2419 150.0913  131.873 150.5104  131.873 150.5104  C 131.873 150.5104  131.6036 152.1599  131.6036 152.1599  C 131.6036 152.1599  132.3707 152.8853  132.3707 152.8853  C 132.3707 152.8853  131.182 153.4065  131.182 153.4065  C 131.182 153.4065  131.2756 153.8901  131.2756 153.8901  C 131.2756 153.8901  130.3446 154.7554  130.3446 154.7554  C 130.3446 154.7554  130.6549 155.3682  130.6549 155.3682  C 130.6549 155.3682  129.2436 156.9215  129.2436 156.9215  C 129.2436 156.9215  128.4764 156.5076  128.4764 156.5076  C 128.4764 156.5076  128.4823 155.8733  128.4823 155.8733  C 128.4823 155.8733  127.0124 155.4434  127.0124 155.4434  C 127.0124 155.4434  127.0124 154.347  127.0124 154.347  C 127.0124 154.347  126.3038 153.2775  126.3038 153.2775  C 126.3038 153.2775  125.3961 153.0894  125.3961 153.0894  C 125.3961 153.0894  125.2849 153.7182  125.2849 153.7182  C 125.2849 153.7182  123.8794 154.7608  123.8794 154.7608  C 123.8794 154.7608  122.5969 155.137  122.5969 155.137  C 122.5969 155.137  120.3657 154.9758  120.3657 154.9758  C 120.3657 154.9758  119.4229 154.2664  119.4229 154.2664  C 119.4229 154.2664  119.0833 152.536  119.0833 152.536  C 119.0833 152.536  117.5196 151.73  117.5196 151.73  C 117.5196 151.73  117.1098 150.5855  117.1098 150.5855  C 117.1098 150.5855  114.4979 150.9563  114.4979 150.9563  C 114.4979 150.9563  114.006 150.2363  114.006 150.2363  C 114.006 150.2363  112.5186 150.1396  112.5186 150.1396  C 112.5186 150.1396  112.0618 152.3586  112.0618 152.3586  C 112.0618 152.3586  111.5992 152.2995  111.5992 152.2995  C 111.5992 152.2995  110.1527 156.6903  110.1527 156.6903  C 110.1527 156.6903  109.4676 156.8409  109.4676 156.8409  C 109.4676 156.8409  109.1923 157.7923  109.1923 157.7923  C 109.1923 157.7923  108.6652 157.8837  108.6652 157.8837  C 108.6652 157.8837  108.6945 158.9159  108.6945 158.9159  C 108.6945 158.9159  107.371 159.1255  107.371 159.1255  C 107.371 159.1255  105.7079 159.0181  105.7079 159.0181  C 105.7079 159.0181  106.4868 159.7223  106.4868 159.7223  C 106.4868 159.7223  105.8075 161.7978  105.8075 161.7978  C 105.8075 161.7978  105.0052 162.6259  105.0052 162.6259  C 105.0052 162.6259  104.7417 161.9106  104.7417 161.9106  C 104.7417 161.9106  102.5925 163.3788  102.5925 163.3788  C 102.5925 163.3788  101.9717 162.9055  101.9717 162.9055  C 101.9717 162.9055  102.3933 164.734  102.3933 164.734  C 102.3933 164.734  101.0172 164.1048  101.0172 164.1048  C 101.0172 164.1048  100.9527 164.9922  100.9527 164.9922  C 100.9527 164.9922  99.9983 165.1428  99.9983 165.1428  C 99.9983 165.1428  99.0613 165.9335  99.0613 165.9335  C 99.0613 165.9335  98.9499 167.4289  98.9499 167.4289  C 98.9499 167.4289  99.6644 168.3273  99.6644 168.3273  C 99.6644 168.3273  99.7991 169.2527  99.7991 169.2527  C 99.7991 169.2527  98.2121 171.3619  98.2121 171.3619  C 98.2121 171.3619  98.2824 172.2229  98.2824 172.2229  C 98.2824 172.2229  96.7539 172.4651  96.7539 172.4651  C 96.7539 172.4651  95.3368 173.4392  95.3368 173.4392  C 95.3368 173.4392  93.4394 172.4435  93.4394 172.4435  C 93.4394 172.4435  91.9344 173.9343  91.9344 173.9343  C 91.9344 173.9343  90.0194 174.311  90.0194 174.311  C 90.0194 174.311  89.3753 175.3337  89.3753 175.3337  C 89.3753 175.3337  88.4851 175.506  88.4851 175.506  C 88.4851 175.506  87.8761 176.5825  87.8761 176.5825  C 87.8761 176.5825  86.8864 176.3618  86.8864 176.3618  C 86.8864 176.3618  84.9832 176.8786  84.9832 176.8786  C 84.9832 176.8786  83.9642 177.5946  83.9642 177.5946  C 83.9642 177.5946  83.0975 177.1048  83.0975 177.1048  C 83.0975 177.1048  81.7096 177.4332  81.7096 177.4332  C 81.7096 177.4332  81.0303 177.7346  81.0303 177.7346  C 81.0303 177.7346  80.9952 178.6015  80.9952 178.6015  C 80.9952 178.6015  80.3686 179.0698  80.3686 179.0698  C 80.3686 179.0698  79.1915 177.783  79.1915 177.783  C 79.1915 177.783  78.2721 177.4869  78.2721 177.4869  C 78.2721 177.4869  78.5239 176.7171  78.5239 176.7171  C 78.5239 176.7171  76.9324 176.5395  76.9324 176.5395  C 76.9324 176.5395  77.1374 175.4091  77.1374 175.4091  C 77.1374 175.4091  75.2166 174.887  75.2166 174.887  C 75.2166 174.887  74.0278 171.9538  74.0278 171.9538  C 74.0278 171.9538  74.4495 171.0336  74.4495 171.0336  C 74.4495 171.0336  75.8198 169.4841  75.8198 169.4841  C 75.8198 169.4841  76.136 168.3973  76.136 168.3973  C 76.136 168.3973  74.9882 166.9286  74.9882 166.9286  C 74.9882 166.9286  74.4612 168.3596  74.4612 168.3596  C 74.4612 168.3596  72.798 166.5037  72.798 166.5037  C 72.798 166.5037  72.1304 166.2455  72.1304 166.2455  C 72.1304 166.2455  71.0295 166.9071  71.0295 166.9071  C 71.0295 166.9071  69.4015 166.8963  69.4015 166.8963  C 69.4015 166.8963  69.6533 169.0644  69.6533 169.0644  C 69.6533 169.0644  67.4866 169.0859  67.4866 169.0859  C 67.4866 169.0859  67.0766 168.4457  67.0766 168.4457  C 67.0766 168.4457  66.819 166.423  66.819 166.423  C 66.819 166.423  67.3343 166.4069  67.3343 166.4069  C 67.3343 166.4069  67.305 164.6642  67.305 164.6642  C 67.305 164.6642  65.9347 164.7071  65.9347 164.7071  C 65.9347 164.7071  65.1968 163.2013  65.1968 163.2013  C 65.1968 163.2013  64.0256 163.2013  64.0256 163.2013  C 64.0256 163.2013  63.5395 162.513  63.5395 162.513  C 63.5395 162.513  63.6625 160.6202  63.6625 160.6202  C 63.6625 160.6202  65.6653 159.3352  65.6653 159.3352  C 65.6653 159.3352  66.1513 157.9052  66.1513 157.9052  C 66.1513 157.9052  65.8644 156.2819  65.8644 156.2819  C 65.8644 156.2819  64.9274 155.6529  64.9274 155.6529  C 64.9274 155.6529  64.2072 156.169  64.2072 156.169  C 64.2072 156.169  63.5981 155.868  63.5981 155.868  C 63.5981 155.868  63.1179 156.5613  63.1179 156.5613  C 63.1179 156.5613  62.7314 156.1421  62.7314 156.1421  C 62.7314 156.1421  63.1179 154.7231  63.1179 154.7231  C 63.1179 154.7231  61.8764 155.5402  61.8764 155.5402  C 61.8764 155.5402  60.834 154.2019  60.834 154.2019  C 60.834 154.2019  61.3318 153.4979  61.3318 153.4979  C 61.3318 153.4979  61.5602 152.3049  61.5602 152.3049  C 61.5602 152.3049  60.7111 152.6488  60.7111 152.6488  C 60.7111 152.6488  60.5471 152.1169  60.5471 152.1169  C 60.5471 152.1169  61.6597 150.7198  61.6597 150.7198  C 61.6597 150.7198  62.9774 148.0069  62.9774 148.0069  C 62.9774 148.0069  61.976 147.3891  61.976 147.3891  C 61.976 147.3891  60.143 147.9693  60.143 147.9693  C 60.143 147.9693  59.5047 146.6586  59.5047 146.6586  C 59.5047 146.6586  60.0025 144.1238  60.0025 144.1238  C 60.0025 144.1238  59.733 143.8553  59.733 143.8553  C 59.733 143.8553  60.1313 142.5128  60.1313 142.5128  C 60.1313 142.5128  58.8781 142.5128  58.8781 142.5128  C 58.8781 142.5128  57.8064 141.6162  57.8064 141.6162  C 57.8064 141.6162  56.2722 141.8793  56.2722 141.8793  C 56.2722 141.8793  56.7289 140.9558  56.7289 140.9558  C 56.7289 140.9558  57.7889 139.9787  57.7889 139.9787  C 57.7889 139.9787  57.5546 137.9174  57.5546 137.9174  C 57.5546 137.9174  58.1168 137.3323  58.1168 137.3323  C 58.1168 137.3323  57.5546 136.5595  57.5546 136.5595  C 57.5546 136.5595  59.0831 134.0319  59.0831 134.0319  C 59.0831 134.0319  58.5736 133.447  58.5736 133.447  C 58.5736 133.447  59.1651 132.5402  59.1651 132.5402  C 59.1651 132.5402  59.1826 131.6764  59.1826 131.6764  C 59.1826 131.6764  58.4038 130.523  58.4038 130.523  C 58.4038 130.523  58.351 128.9941  58.351 128.9941  C 58.351 128.9941  57.8357 128.9136  57.8357 128.9136  C 57.8357 128.9136  56.846 127.9214  56.846 127.9214  C 56.846 127.9214  55.4874 128.7956  55.4874 128.7956  C 55.4874 128.7956  53.7715 128.5275  53.7715 128.5275  C 53.7715 128.5275  52.6648 127.6156  52.6648 127.6156  C 52.6648 127.6156  51.1481 127.1973  51.1481 127.1973  C 51.1481 127.1973  50.1408 126.114  50.1408 126.114  C 50.1408 126.114  49.52 126.3607  49.52 126.3607  C 49.52 126.3607  49.3092 125.0951  49.3092 125.0951  C 49.3092 125.0951  47.1249 125.7654  47.1249 125.7654  C 47.1249 125.7654  45.6316 125.1273  45.6316 125.1273  C 45.6316 125.1273  45.2627 122.6447  45.2627 122.6447  C 45.2627 122.6447  44.8937 122.0443  44.8937 122.0443  C 44.8937 122.0443  45.8131 121.0901  45.8131 121.0901  C 45.8131 121.0901  44.9815 118.3724  44.9815 118.3724  C 44.9815 118.3724  44.9757 117.5096  44.9757 117.5096  C 44.9757 117.5096  44.2378 116.2235  44.2378 116.2235  C 44.2378 116.2235  44.4604 114.5517  44.4604 114.5517  C 44.4604 114.5517  43.5995 114.0105  43.5995 114.0105  C 43.5995 114.0105  43.9157 113.0675  43.9157 113.0675  C 43.9157 113.0675  43.3828 111.1551  43.3828 111.1551  C 43.3828 111.1551  41.6319 110.4802  41.6319 110.4802  C 41.6319 110.4802  40.771 110.9944  40.771 110.9944  C 40.771 110.9944  40.9877 110.0678  40.9877 110.0678  C 40.9877 110.0678  40.3435 110.3623  40.3435 110.3623  C 40.3435 110.3623  39.0376 109.8374  39.0376 109.8374  C 39.0376 109.8374  38.9322 108.5414  38.9322 108.5414  C 38.9322 108.5414  39.4065 107.7541  39.4065 107.7541  C 39.4065 107.7541  39.0142 106.426  39.0142 106.426  C 39.0142 106.426  39.4183 106.0298  39.4183 106.0298  C 39.4183 106.0298  39.1606 105.1196  39.1606 105.1196  C 39.1606 105.1196  39.7404 104.4128  39.7404 104.4128  C 39.7404 104.4128  39.7813 103.3689  39.7813 103.3689  C 39.7813 103.3689  40.812 101.4525  40.812 101.4525  C 40.812 101.4525  41.2453 98.4982  41.2453 98.4982  C 41.2453 98.4982  40.5778 94.1535  40.5778 94.1535  C 40.5778 94.1535  40.1386 93.4688  40.1386 93.4688  C 40.1386 93.4688  38.575 93.7523  38.575 93.7523  C 38.575 93.7523  37.6205 91.5004  37.6205 91.5004  C 37.6205 91.5004  36.9001 91.1794  36.9001 91.1794  C 36.9001 91.1794  36.2911 88.5055  36.2911 88.5055  C 36.2911 88.5055  35.6001 88.329  35.6001 88.329  C 35.6001 88.329  34.7509 86.3345  34.7509 86.3345  C 34.7509 86.3345  32.3265 85.7678  32.3265 85.7678  C 32.3265 85.7678  30.6224 83.052  30.6224 83.052  C 30.6224 83.052  29.6679 83.2124  29.6679 83.2124  C 29.6679 83.2124  28.2741 82.1861  28.2741 82.1861  C 28.2741 82.1861  27.9461 83.3407  27.9461 83.3407  C 27.9461 83.3407  28.6313 86.6821  28.6313 86.6821  C 28.6313 86.6821  28.6372 88.4093  28.6372 88.4093  C 28.6372 88.4093  27.1614 89.1206  27.1614 89.1206  C 27.1614 89.1206  25.9317 88.7461  25.9317 88.7461  C 25.9317 88.7461  25.8263 89.1045  25.8263 89.1045  C 25.8263 89.1045  26.2128 93.1799  26.2128 93.1799  C 26.2128 93.1799  25.7208 94.3408  25.7208 94.3408  C 25.7208 94.3408  25.7794 96.3257  25.7794 96.3257  C 25.7794 96.3257  25.2582 97.9898  25.2582 97.9898  C 25.2582 97.9898  24.2041 97.7008  24.2041 97.7008  C 24.2041 97.7008  22.8748 97.8881  22.8748 97.8881  C 22.8748 97.8881  22.6289 100.0181  22.6289 100.0181  C 22.6289 100.0181  21.2409 101.9931  21.2409 101.9931  C 21.2409 101.9931  19.1737 102.6675  19.1737 102.6675  C 19.1737 102.6675  18.9278 103.6366  18.9278 103.6366  C 18.9278 103.6366  18.2309 103.8507  18.2309 103.8507  C 18.2309 103.8507  17.5282 103.417  17.5282 103.417  C 17.5282 103.417  17.2295 102.2661  17.2295 102.2661  C 17.2295 102.2661  16.07 101.6451  16.07 101.6451  C 16.07 101.6451  15.5605 100.0662  15.5605 100.0662  C 15.5605 100.0662  14.9866 99.4508  14.9866 99.4508  C 14.9866 99.4508  14.3015 99.4989  14.3015 99.4989  C 14.3015 99.4989  12.8316 96.6092  12.8316 96.6092  C 12.8316 96.6092  11.3793 96.224  11.3793 96.224  C 11.3793 96.224  10.6531 97.6152  10.6531 97.6152  C 10.6531 97.6152  10.2549 97.7276  10.2549 97.7276  C 10.2549 97.7276  10.044 99.9378  10.044 99.9378  C 10.044 99.9378  9.35300000000001 100.7085  9.35300000000001 100.7085  C 9.35300000000001 100.7085  9.71030000000002 102.6515  9.71030000000002 102.6515  C 9.71030000000002 102.6515  9.38819999999998 103.2725  9.38819999999998 103.2725  C 9.38819999999998 103.2725  8.09989999999999 103.5937  8.09989999999999 103.5937  C 8.09989999999999 103.5937  6.71780000000001 103.4117  6.71780000000001 103.4117  C 6.71780000000001 103.4117  6.01510000000002 103.7382  6.01510000000002 103.7382  C 6.01510000000002 103.7382  5.7516 102.5498  5.7516 102.5498  C 5.7516 102.5498  5.18939999999998 101.8861  5.18939999999998 101.8861  C 5.18939999999998 101.8861  4.51589999999999 100.0983  4.51589999999999 100.0983  C 4.51589999999999 100.0983  3.2568 98.8674  3.2568 98.8674  C 3.2568 98.8674  1.81040000000002 98.8567  1.81040000000002 98.8567  C 1.81040000000002 98.8567  1.66399999999999 97.8078  1.66399999999999 97.8078  C 1.66399999999999 97.8078  2.57749999999999 97.155  2.57749999999999 97.155  C 2.57749999999999 97.155  2.83519999999999 96.2615  2.83519999999999 96.2615  C 2.83519999999999 96.2615  3.82490000000001 95.9191  3.82490000000001 95.9191  C 3.82490000000001 95.9191  4.3578 96.7965  4.3578 96.7965  C 4.3578 96.7965  5.27719999999999 96.3952  5.27719999999999 96.3952  C 5.27719999999999 96.3952  5.45870000000002 94.2766  5.45870000000002 94.2766  C 5.45870000000002 94.2766  6.43090000000001 94.0893  6.43090000000001 94.0893  C 6.43090000000001 94.0893  7.40879999999999 92.8322  7.40879999999999 92.8322  C 7.40879999999999 92.8322  8.18770000000001 92.7199  8.18770000000001 92.7199  C 8.18770000000001 92.7199  8.73230000000001 90.8586  8.73230000000001 90.8586  C 8.73230000000001 90.8586  9.64589999999998 89.1045  9.64589999999998 89.1045  C 9.64589999999998 89.1045  10.0558 87.9012  10.0558 87.9012  C 10.0558 87.9012  10.7351 87.1741  10.7351 87.1741  C 10.7351 87.1741  10.9166 84.2762  10.9166 84.2762  C 10.9166 84.2762  10.6004 82.3464  10.6004 82.3464  C 10.6004 82.3464  9.52289999999999 81.7745  9.52289999999999 81.7745  C 9.52289999999999 81.7745  9.41160000000002 79.9841  9.41160000000002 79.9841  C 9.41160000000002 79.9841  7.96519999999998 76.7993  7.96519999999998 76.7993  C 7.96519999999998 76.7993  6.17320000000001 75.8911  6.17320000000001 75.8911  C 6.17320000000001 75.8911  5.92720000000003 74.9936  5.92720000000003 74.9936  C 5.92720000000003 74.9936  5.17180000000002 74.4594  5.17180000000002 74.4594  C 5.17180000000002 74.4594  5.20699999999999 72.7929  5.20699999999999 72.7929  C 5.20699999999999 72.7929  5.91550000000001 71.3615  5.91550000000001 71.3615  C 5.91550000000001 71.3615  6.93450000000001 70.5498  6.93450000000001 70.5498  C 6.93450000000001 70.5498  6.59480000000002 69.6152  6.59480000000002 69.6152  C 6.59480000000002 69.6152  6.75880000000001 67.3246  6.75880000000001 67.3246  C 6.75880000000001 67.3246  6.02679999999998 65.627  6.02679999999998 65.627  C 6.02679999999998 65.627  5.4178 65.6697  5.4178 65.6697  C 5.4178 65.6697  4.5335 64.5914  4.5335 64.5914  C 4.5335 64.5914  4.05329999999998 62.83  4.05329999999998 62.83  C 4.05329999999998 62.83  3.39150000000001 62.6006  3.39150000000001 62.6006  C 3.39150000000001 62.6006  2.26130000000001 61.3998  2.26130000000001 61.3998  C 2.26130000000001 61.3998  1.3888 61.0797  1.3888 61.0797  C 1.3888 61.0797  1.48829999999998 59.6869  1.48829999999998 59.6869  C 1.48829999999998 59.6869  0.650899999999979 57.6595  0.650899999999979 57.6595  C 0.650899999999979 57.6595  1.1721 56.3846  1.1721 56.3846  C 1.1721 56.3846  2.64190000000002 55.8458  2.64190000000002 55.8458  C 2.64190000000002 55.8458  2.18520000000001 53.9951  2.18520000000001 53.9951  C 2.18520000000001 53.9951  1.54689999999999 53.5737  1.54689999999999 53.5737  C 1.54689999999999 53.5737  1.92759999999998 52.8698  1.92759999999998 52.8698  C 1.92759999999998 52.8698  1.58199999999999 51.8299  1.58199999999999 51.8299  C 1.58199999999999 51.8299  2.58929999999998 50.8381  2.58929999999998 50.8381  C 2.58929999999998 50.8381  3.23930000000001 48.3057  3.23930000000001 48.3057  C 3.23930000000001 48.3057  4.10599999999999 47.6767  4.10599999999999 47.6767  C 4.10599999999999 47.6767  5.04880000000003 47.666  5.04880000000003 47.666  C 5.04880000000003 47.666  6.12639999999999 47.0903  6.12639999999999 47.0903  C 6.12639999999999 47.0903  7.25659999999999 47.2555  7.25659999999999 47.2555  C 7.25659999999999 47.2555  8.5215 45.8749  8.5215 45.8749  C 8.5215 45.8749  8.7792 43.2157  8.7792 43.2157  C 8.7792 43.2157  10.3369 41.4093  10.3369 41.4093  C 10.3369 41.4093  10.7176 40.3278  10.7176 40.3278  C 10.7176 40.3278  12.5973 39.7843  12.5973 39.7843  C 12.5973 39.7843  13.5636 38.5219  13.5636 38.5219  C 13.5636 38.5219  13.6222 37.5897  13.6222 37.5897  C 13.6222 37.5897  14.7992 37.0677  14.7992 37.0677  C 14.7992 37.0677  15.6718 36.0931  15.6718 36.0931  C 15.6718 36.0931  17.0011 35.7416  17.0011 35.7416  C 17.0011 35.7416  17.616 36.5138  17.616 36.5138  C 17.616 36.5138  18.5003 35.7735  18.5003 35.7735  C 18.5003 35.7735  19.2675 33.8884  19.2675 33.8884  C 19.2675 33.8884  18.8516 33.4304  18.8516 33.4304  C 18.8516 33.4304  19.0449 31.024  19.0449 31.024  C 19.0449 31.024  19.5778 27.2873  19.5778 27.2873  C 19.5778 27.2873  17.8444 26.787  17.8444 26.787  C 17.8444 26.787  17.0539 26.2229  17.0539 26.2229  C 17.0539 26.2229  15.3673 23.5997  15.3673 23.5997  C 15.3673 23.5997  15.5722 20.8705  15.5722 20.8705  C 15.5722 20.8705  16.4799 20.328  16.4799 20.328  C 16.4799 20.328  18.0903 17.1529  18.0903 17.1529  C 18.0903 17.1529  17.5692 16.2915  17.5692 16.2915  C 17.5692 16.2915  17.9264 15.2652  17.9264 15.2652  C 17.9264 15.2652  17.821 14.2018  17.821 14.2018  C 17.821 14.2018  18.6291 12.9259  18.6291 12.9259  C 18.6291 12.9259  18.8634 11.2409  18.8634 11.2409  C 18.8634 11.2409  19.7242 8.9609  19.7242 8.9609  C 19.7242 8.9609  19.5017 6.7079  19.5017 6.7079  C 19.5017 6.7079  20.2454 5.5283  20.2454 5.5283  C 20.2454 5.5283  20.1986 4.7367  20.1986 4.7367  C 20.1986 4.7367  20.954 2.357  20.954 2.357  C 20.954 2.357  20.5089 1.247  20.5089 1.247  C 20.5089 1.247  21.6099 0.970799999999997  21.6099 0.970799999999997  C 21.6099 0.970799999999997  25.0357 1.0557  25.0357 1.0557  C 25.0357 1.0557  25.7208 2.4208  25.7208 2.4208  C 25.7208 2.4208  25.7619 3.66370000000001  25.7619 3.66370000000001  C 25.7619 3.66370000000001  27.7412 3.1165  27.7412 3.1165  C 27.7412 3.1165  28.2331 3.74330000000001  28.2331 3.74330000000001  C 28.2331 3.74330000000001  29.3106 3.88679999999999  29.3106 3.88679999999999  C 29.3106 3.88679999999999  30.1597 2.1818  30.1597 2.1818  C 30.1597 2.1818  31.4013 2.19240000000001  31.4013 2.19240000000001  C 31.4013 2.19240000000001  33.0058 0.843299999999999  33.0058 0.843299999999999  C 33.0058 0.843299999999999  34.0716 0.370699999999999  34.0716 0.370699999999999  C 34.0716 0.370699999999999  34.7509 1.8099  34.7509 1.8099  C 34.7509 1.8099  36.2326 3.584  36.2326 3.584  C 36.2326 3.584  35.7934 4.3967  35.7934 4.3967  C 35.7934 4.3967  36.7186 5.57080000000001  36.7186 5.57080000000001  C 36.7186 5.57080000000001  37.7786 5.5018  37.7786 5.5018  C 37.7786 5.5018  38.7566 3.9824  38.7566 3.9824  C 38.7566 3.9824  39.102 2.0436  39.102 2.0436  C 39.102 2.0436  40.0449 0.992099999999994  40.0449 0.992099999999994  C 40.0449 0.992099999999994  40.9467 2.2242  40.9467 2.2242  C 40.9467 2.2242  40.7827 3.6159  40.7827 3.6159  C 40.7827 3.6159  41.2103 4.4074  41.2103 4.4074  C 41.2103 4.4074  42.6801 4.4765  42.6801 4.4765  C 42.6801 4.4765  43.7167 5.1831  43.7167 5.1831  C 43.7167 5.1831  44.6009 5.1671  44.6009 5.1671  C 44.6009 5.1671  44.9874 5.9693  44.9874 5.9693  C 44.9874 5.9693  47.2303 6.2243  47.2303 6.2243  C 47.2303 6.2243  49.1862 7.2179  49.1862 7.2179  C 49.1862 7.2179  51.7746 7.0372  51.7746 7.0372  C 51.7746 7.0372  53.0161 6.3306  53.0161 6.3306  C 53.0161 6.3306  53.9355 6.24030000000001  53.9355 6.24030000000001  C 53.9355 6.24030000000001  54.1932 5.5761  54.1932 5.5761  C 54.1932 5.5761  55.7099 6.2881  55.7099 6.2881  C 55.7099 6.2881  56.6118 6.37309999999999  56.6118 6.37309999999999  C 56.6118 6.37309999999999  57.2267 7.45699999999999  57.2267 7.45699999999999  C 57.2267 7.45699999999999  57.3028 8.29130000000001  57.3028 8.29130000000001  C 57.3028 8.29130000000001  58.1343 8.70050000000001  58.1343 8.70050000000001  C 58.1343 8.70050000000001  59.3173 10.1673  59.3173 10.1673  C 59.3173 10.1673  59.4754 10.7359  59.4754 10.7359  C 59.4754 10.7359  60.875 11.9159  60.875 11.9159  C 60.875 11.9159  61.1503 14.9834  61.1503 14.9834  C 61.1503 14.9834  60.8399 17.2485  60.8399 17.2485  C 60.8399 17.2485  61.6597 18.8759  61.6597 18.8759  C 61.6597 18.8759  62.8778 20.0461  62.8778 20.0461  C 62.8778 20.0461  63.1472 21.8014  63.1472 21.8014  C 63.1472 21.8014  62.9071 22.1951  62.9071 22.1951  C 62.9071 22.1951  63.2233 24.3339  63.2233 24.3339  C 63.2233 24.3339  65.2964 24.9991  65.2964 24.9991  C 65.2964 24.9991  66.1338 26.1591  66.1338 26.1591  C 66.1338 26.1591  65.964 27.7769  65.964 27.7769  C 65.964 27.7769  66.3094 28.8255  66.3094 28.8255  C 66.3094 28.8255  65.8527 30.3638  65.8527 30.3638  C 65.8527 30.3638  66.4325 30.8642  66.4325 30.8642  C 66.4325 30.8642  67.6623 31.0345  67.6623 31.0345  C 67.6623 31.0345  70.5376 30.3797  70.5376 30.3797  C 70.5376 30.3797  72.9386 30.4277  72.9386 30.4277  C 72.9386 30.4277  73.3837 29.2939  73.3837 29.2939  C 73.3837 29.2939  75.2986 27.8674  75.2986 27.8674  C 75.2986 27.8674  76.8387 28.1655  76.8387 28.1655  C 76.8387 28.1655  78.8226 28.0057  78.8226 28.0057  C 78.8226 28.0057  79.1563 28.4688  79.1563 28.4688  C 79.1563 28.4688  80.4916 27.6971  80.4916 27.6971  C 80.4916 27.6971  81.0713 28.1229  81.0713 28.1229  C 81.0713 28.1229  82.4182 27.9313  82.4182 27.9313  Z " fill-rule="evenodd" />
    </mask>
  </defs>
  <g transform="matrix(1 0 0 1 -349 -133 )">
    <path d="M 82.4182 27.9313  C 82.4182 27.9313  83.2088 27.3033  83.2088 27.3033  C 83.2088 27.3033  83.9994 28.6552  83.9994 28.6552  C 83.9994 28.6552  83.97 30.0763  83.97 30.0763  C 83.97 30.0763  84.3624 30.4064  84.3624 30.4064  C 84.3624 30.4064  84.4444 31.8438  84.4444 31.8438  C 84.4444 31.8438  85.2994 33.0578  85.2994 33.0578  C 85.2994 33.0578  85.1003 34.5753  85.1003 34.5753  C 85.1003 34.5753  84.7313 35.028  84.7313 35.028  C 84.7313 35.028  83.525 35.1345  83.525 35.1345  C 83.525 35.1345  82.02 36.9612  82.02 36.9612  C 82.02 36.9612  80.5325 37.8081  80.5325 37.8081  C 80.5325 37.8081  79.9059 38.671  79.9059 38.671  C 79.9059 38.671  80.556 40.1786  80.556 40.1786  C 80.556 40.1786  79.8708 41.452  79.8708 41.452  C 79.8708 41.452  80.0992 42.0913  80.0992 42.0913  C 80.0992 42.0913  79.0334 44.6065  79.0334 44.6065  C 79.0334 44.6065  78.5356 44.825  78.5356 44.825  C 78.5356 44.825  78.9279 46.5733  78.9279 46.5733  C 78.9279 46.5733  78.2838 48.5615  78.2838 48.5615  C 78.2838 48.5615  75.0116 49.0627  75.0116 49.0627  C 75.0116 49.0627  76.0716 54.267  76.0716 54.267  C 76.0716 54.267  74.6896 55.4991  74.6896 55.4991  C 74.6896 55.4991  74.7949 57.3661  74.7949 57.3661  C 74.7949 57.3661  73.7877 58.988  73.7877 58.988  C 73.7877 58.988  74.0454 61.1331  74.0454 61.1331  C 74.0454 61.1331  74.8652 60.5994  74.8652 60.5994  C 74.8652 60.5994  75.1229 61.0957  75.1229 61.0957  C 75.1229 61.0957  76.2766 60.6047  76.2766 60.6047  C 76.2766 60.6047  76.9793 61.0156  76.9793 61.0156  C 76.9793 61.0156  79.824 61.1651  79.824 61.1651  C 79.824 61.1651  80.8839 62.0669  80.8839 62.0669  C 80.8839 62.0669  80.6556 63.684  80.6556 63.684  C 80.6556 63.684  81.2646 63.9029  81.2646 63.9029  C 81.2646 63.9029  82.2249 66.4705  82.2249 66.4705  C 82.2249 66.4705  82.9218 66.2836  82.9218 66.2836  C 82.9218 66.2836  83.5835 67.9173  83.5835 67.9173  C 83.5835 67.9173  85.1823 69.4497  85.1823 69.4497  C 85.1823 69.4497  85.5629 71.4683  85.5629 71.4683  C 85.5629 71.4683  87.2261 73.3376  87.2261 73.3376  C 87.2261 73.3376  88.4734 74.0214  88.4734 74.0214  C 88.4734 74.0214  90.2771 73.7382  90.2771 73.7382  C 90.2771 73.7382  91.0032 71.2066  91.0032 71.2066  C 91.0032 71.2066  92.3267 70.5391  92.3267 70.5391  C 92.3267 70.5391  94.0836 72.5845  94.0836 72.5845  C 94.0836 72.5845  95.1787 73.0118  95.1787 73.0118  C 95.1787 73.0118  95.3251 74.1335  95.3251 74.1335  C 95.3251 74.1335  95.9809 72.9798  95.9809 72.9798  C 95.9809 72.9798  96.9765 73.3002  96.9765 73.3002  C 96.9765 73.3002  97.8783 72.8089  97.8783 72.8089  C 97.8783 72.8089  98.663 73.4231  98.663 73.4231  C 98.663 73.4231  99.3599 73.2416  99.3599 73.2416  C 99.3599 73.2416  100.1505 71.2814  100.1505 71.2814  C 100.1505 71.2814  101.1929 70.9984  101.1929 70.9984  C 101.1929 70.9984  101.6262 70.2454  101.6262 70.2454  C 101.6262 70.2454  102.2997 70.6246  102.2997 70.6246  C 102.2997 70.6246  102.7916 69.8022  102.7916 69.8022  C 102.7916 69.8022  102.9204 71.0678  102.9204 71.0678  C 102.9204 71.0678  103.6114 72.654  103.6114 72.654  C 103.6114 72.654  104.2673 73.2149  104.2673 73.2149  C 104.2673 73.2149  104.402 74.2083  104.402 74.2083  C 104.402 74.2083  106.1471 75.2073  106.1471 75.2073  C 106.1471 75.2073  108.0152 74.3793  108.0152 74.3793  C 108.0152 74.3793  108.9171 73.6368  108.9171 73.6368  C 108.9171 73.6368  110.3987 73.6795  110.3987 73.6795  C 110.3987 73.6795  111.2712 72.9744  111.2712 72.9744  C 111.2712 72.9744  112.1965 71.4523  112.1965 71.4523  C 112.1965 71.4523  112.6239 72.3496  112.6239 72.3496  C 112.6239 72.3496  115.3588 72.3442  115.3588 72.3442  C 115.3588 72.3442  115.1011 73.6422  115.1011 73.6422  C 115.1011 73.6422  115.6399 74.9242  115.6399 74.9242  C 115.6399 74.9242  117.303 75.5599  117.303 75.5599  C 117.303 75.5599  119.3234 74.7425  119.3234 74.7425  C 119.3234 74.7425  120.1959 73.108  120.1959 73.108  C 120.1959 73.108  120.9923 73.797  120.9923 73.797  C 120.9923 73.797  121.7595 73.5139  121.7595 73.5139  C 121.7595 73.5139  122.4095 72.4724  122.4095 72.4724  C 122.4095 72.4724  123.2528 73.9146  123.2528 73.9146  C 123.2528 73.9146  124.1254 72.9264  124.1254 72.9264  C 124.1254 72.9264  124.2073 71.8796  124.2073 71.8796  C 124.2073 71.8796  124.9042 70.208  124.9042 70.208  C 124.9042 70.208  125.8295 69.7167  125.8295 69.7167  C 125.8295 69.7167  127.5922 69.9143  127.5922 69.9143  C 127.5922 69.9143  127.8908 70.79  127.8908 70.79  C 127.8908 70.79  128.6638 69.2895  128.6638 69.2895  C 128.6638 69.2895  129.4252 69.5191  129.4252 69.5191  C 129.4252 69.5191  129.2084 70.7527  129.2084 70.7527  C 129.2084 70.7527  130.1923 71.8636  130.1923 71.8636  C 130.1923 71.8636  131.422 71.6659  131.422 71.6659  C 131.422 71.6659  132.2946 72.2214  132.2946 72.2214  C 132.2946 72.2214  132.7572 73.1133  132.7572 73.1133  C 132.7572 73.1133  133.7938 74.0802  133.7938 74.0802  C 133.7938 74.0802  134.5023 74.1549  134.5023 74.1549  C 134.5023 74.1549  135.8083 75.5118  135.8083 75.5118  C 135.8083 75.5118  136.0542 77.1894  136.0542 77.1894  C 136.0542 77.1894  137.852 79.7704  137.852 79.7704  C 137.852 79.7704  138.7949 79.5405  138.7949 79.5405  C 138.7949 79.5405  138.9237 77.4726  138.9237 77.4726  C 138.9237 77.4726  139.1579 77.2588  139.1579 77.2588  C 139.1579 77.2588  141.1783 77.2428  141.1783 77.2428  C 141.1783 77.2428  141.8986 77.6702  141.8986 77.6702  C 141.8986 77.6702  142.086 79.2253  142.086 79.2253  C 142.086 79.2253  143.0757 79.9199  143.0757 79.9199  C 143.0757 79.9199  145.0316 80.8499  145.0316 80.8499  C 145.0316 80.8499  145.1605 82.6244  145.1605 82.6244  C 145.1605 82.6244  144.8091 83.3407  144.8091 83.3407  C 144.8091 83.3407  146.156 85.9014  146.156 85.9014  C 146.156 85.9014  146.0388 86.6768  146.0388 86.6768  C 146.0388 86.6768  147.1281 87.4949  147.1281 87.4949  C 147.1281 87.4949  147.8309 87.5269  147.8309 87.5269  C 147.8309 87.5269  148.5921 90.297  148.5921 90.297  C 148.5921 90.297  148.1588 91.7571  148.1588 91.7571  C 148.1588 91.7571  148.153 94.2873  148.153 94.2873  C 148.153 94.2873  148.557 94.8116  148.557 94.8116  C 148.557 94.8116  147.7957 95.7746  147.7957 95.7746  C 147.7957 95.7746  149.0021 97.0158  149.0021 97.0158  C 149.0021 97.0158  149.5408 96.3952  149.5408 96.3952  C 149.5408 96.3952  150.2435 96.9089  150.2435 96.9089  C 150.2435 96.9089  150.1264 98.1021  150.1264 98.1021  C 150.1264 98.1021  151.0868 97.7811  151.0868 97.7811  C 151.0868 97.7811  151.6725 98.1824  151.6725 98.1824  C 151.6725 98.1824  151.6432 99.3758  151.6432 99.3758  C 151.6432 99.3758  152.1117 101.3561  152.1117 101.3561  C 152.1117 101.3561  153.9973 102.3089  153.9973 102.3089  C 153.9973 102.3089  154.0676 103.1173  154.0676 103.1173  C 154.0676 103.1173  154.6942 102.8228  154.6942 102.8228  C 154.6942 102.8228  154.6883 103.5884  154.6883 103.5884  C 154.6883 103.5884  153.0779 104.0059  153.0779 104.0059  C 153.0779 104.0059  152.4571 103.5777  152.4571 103.5777  C 152.4571 103.5777  150.8526 105.0446  150.8526 105.0446  C 150.8526 105.0446  149.0957 106.3297  149.0957 106.3297  C 149.0957 106.3297  149.494 107.7755  149.494 107.7755  C 149.494 107.7755  150.1206 108.4021  150.1206 108.4021  C 150.1206 108.4021  149.6755 109.2322  149.6755 109.2322  C 149.6755 109.2322  148.8556 109.2536  148.8556 109.2536  C 148.8556 109.2536  148.6331 110.0517  148.6331 110.0517  C 148.6331 110.0517  147.7371 110.5659  147.7371 110.5659  C 147.7371 110.5659  147.5614 111.4015  147.5614 111.4015  C 147.5614 111.4015  147.9772 112.1836  147.9772 112.1836  C 147.9772 112.1836  147.5381 112.7354  147.5381 112.7354  C 147.5381 112.7354  147.5497 113.7854  147.5497 113.7854  C 147.5497 113.7854  148.2291 113.9408  148.2291 113.9408  C 148.2291 113.9408  147.5966 115.3714  147.5966 115.3714  C 147.5966 115.3714  146.9114 115.693  146.9114 115.693  C 146.9114 115.693  147.1164 116.3146  147.1164 116.3146  C 147.1164 116.3146  145.7343 117.4292  145.7343 117.4292  C 145.7343 117.4292  145.0141 117.3274  145.0141 117.3274  C 145.0141 117.3274  144.001 119.2729  144.001 119.2729  C 144.001 119.2729  144.0185 120.227  144.0185 120.227  C 144.0185 120.227  143.5266 120.5112  143.5266 120.5112  C 143.5266 120.5112  142.6716 120.0394  142.6716 120.0394  C 142.6716 120.0394  141.9513 120.6077  141.9513 120.6077  C 141.9513 120.6077  141.19 120.0501  141.19 120.0501  C 141.19 120.0501  140.6922 120.42  140.6922 120.42  C 140.6922 120.42  139.2458 123.0737  139.2458 123.0737  C 139.2458 123.0737  138.5197 123.4973  138.5197 123.4973  C 138.5197 123.4973  139.5679 124.7091  139.5679 124.7091  C 139.5679 124.7091  139.4215 125.3686  139.4215 125.3686  C 139.4215 125.3686  140.1067 125.8834  140.1067 125.8834  C 140.1067 125.8834  140.5107 126.956  140.5107 126.956  C 140.5107 126.956  142.1739 126.7737  142.1739 126.7737  C 142.1739 126.7737  142.7712 127.6049  142.7712 127.6049  C 142.7712 127.6049  142.8532 129.0585  142.8532 129.0585  C 142.8532 129.0585  144.1473 129.7612  144.1473 129.7612  C 144.1473 129.7612  144.6861 130.5766  144.6861 130.5766  C 144.6861 130.5766  144.7564 132.7119  144.7564 132.7119  C 144.7564 132.7119  144.0947 132.5778  144.0947 132.5778  C 144.0947 132.5778  143.2923 133.3504  143.2923 133.3504  C 143.2923 133.3504  142.8532 135.2231  142.8532 135.2231  C 142.8532 135.2231  142.2207 135.8832  142.2207 135.8832  C 142.2207 135.8832  141.5414 137.3055  141.5414 137.3055  C 141.5414 137.3055  140.8445 137.6222  140.8445 137.6222  C 140.8445 137.6222  140.3292 137.1337  140.3292 137.1337  C 140.3292 137.1337  139.6675 137.5578  139.6675 137.5578  C 139.6675 137.5578  138.1273 136.7956  138.1273 136.7956  C 138.1273 136.7956  137.8403 137.429  137.8403 137.429  C 137.8403 137.429  138.4728 138.6903  138.4728 138.6903  C 138.4728 138.6903  138.2268 139.5976  138.2268 139.5976  C 138.2268 139.5976  138.6367 140.6014  138.6367 140.6014  C 138.6367 140.6014  137.5827 141.6054  137.5827 141.6054  C 137.5827 141.6054  136.1304 140.5423  136.1304 140.5423  C 136.1304 140.5423  135.8961 141.8417  135.8961 141.8417  C 135.8961 141.8417  134.5258 141.7665  134.5258 141.7665  C 134.5258 141.7665  133.4014 141.1115  133.4014 141.1115  C 133.4014 141.1115  132.5288 141.7074  132.5288 141.7074  C 132.5288 141.7074  132.0311 143.4472  132.0311 143.4472  C 132.0311 143.4472  130.6139 145.2193  130.6139 145.2193  C 130.6139 145.2193  131.4513 146.4815  131.4513 146.4815  C 131.4513 146.4815  132.2361 148.2325  132.2361 148.2325  C 132.2361 148.2325  131.8027 149.3821  131.8027 149.3821  C 131.8027 149.3821  132.2419 150.0913  132.2419 150.0913  C 132.2419 150.0913  131.873 150.5104  131.873 150.5104  C 131.873 150.5104  131.6036 152.1599  131.6036 152.1599  C 131.6036 152.1599  132.3707 152.8853  132.3707 152.8853  C 132.3707 152.8853  131.182 153.4065  131.182 153.4065  C 131.182 153.4065  131.2756 153.8901  131.2756 153.8901  C 131.2756 153.8901  130.3446 154.7554  130.3446 154.7554  C 130.3446 154.7554  130.6549 155.3682  130.6549 155.3682  C 130.6549 155.3682  129.2436 156.9215  129.2436 156.9215  C 129.2436 156.9215  128.4764 156.5076  128.4764 156.5076  C 128.4764 156.5076  128.4823 155.8733  128.4823 155.8733  C 128.4823 155.8733  127.0124 155.4434  127.0124 155.4434  C 127.0124 155.4434  127.0124 154.347  127.0124 154.347  C 127.0124 154.347  126.3038 153.2775  126.3038 153.2775  C 126.3038 153.2775  125.3961 153.0894  125.3961 153.0894  C 125.3961 153.0894  125.2849 153.7182  125.2849 153.7182  C 125.2849 153.7182  123.8794 154.7608  123.8794 154.7608  C 123.8794 154.7608  122.5969 155.137  122.5969 155.137  C 122.5969 155.137  120.3657 154.9758  120.3657 154.9758  C 120.3657 154.9758  119.4229 154.2664  119.4229 154.2664  C 119.4229 154.2664  119.0833 152.536  119.0833 152.536  C 119.0833 152.536  117.5196 151.73  117.5196 151.73  C 117.5196 151.73  117.1098 150.5855  117.1098 150.5855  C 117.1098 150.5855  114.4979 150.9563  114.4979 150.9563  C 114.4979 150.9563  114.006 150.2363  114.006 150.2363  C 114.006 150.2363  112.5186 150.1396  112.5186 150.1396  C 112.5186 150.1396  112.0618 152.3586  112.0618 152.3586  C 112.0618 152.3586  111.5992 152.2995  111.5992 152.2995  C 111.5992 152.2995  110.1527 156.6903  110.1527 156.6903  C 110.1527 156.6903  109.4676 156.8409  109.4676 156.8409  C 109.4676 156.8409  109.1923 157.7923  109.1923 157.7923  C 109.1923 157.7923  108.6652 157.8837  108.6652 157.8837  C 108.6652 157.8837  108.6945 158.9159  108.6945 158.9159  C 108.6945 158.9159  107.371 159.1255  107.371 159.1255  C 107.371 159.1255  105.7079 159.0181  105.7079 159.0181  C 105.7079 159.0181  106.4868 159.7223  106.4868 159.7223  C 106.4868 159.7223  105.8075 161.7978  105.8075 161.7978  C 105.8075 161.7978  105.0052 162.6259  105.0052 162.6259  C 105.0052 162.6259  104.7417 161.9106  104.7417 161.9106  C 104.7417 161.9106  102.5925 163.3788  102.5925 163.3788  C 102.5925 163.3788  101.9717 162.9055  101.9717 162.9055  C 101.9717 162.9055  102.3933 164.734  102.3933 164.734  C 102.3933 164.734  101.0172 164.1048  101.0172 164.1048  C 101.0172 164.1048  100.9527 164.9922  100.9527 164.9922  C 100.9527 164.9922  99.9983 165.1428  99.9983 165.1428  C 99.9983 165.1428  99.0613 165.9335  99.0613 165.9335  C 99.0613 165.9335  98.9499 167.4289  98.9499 167.4289  C 98.9499 167.4289  99.6644 168.3273  99.6644 168.3273  C 99.6644 168.3273  99.7991 169.2527  99.7991 169.2527  C 99.7991 169.2527  98.2121 171.3619  98.2121 171.3619  C 98.2121 171.3619  98.2824 172.2229  98.2824 172.2229  C 98.2824 172.2229  96.7539 172.4651  96.7539 172.4651  C 96.7539 172.4651  95.3368 173.4392  95.3368 173.4392  C 95.3368 173.4392  93.4394 172.4435  93.4394 172.4435  C 93.4394 172.4435  91.9344 173.9343  91.9344 173.9343  C 91.9344 173.9343  90.0194 174.311  90.0194 174.311  C 90.0194 174.311  89.3753 175.3337  89.3753 175.3337  C 89.3753 175.3337  88.4851 175.506  88.4851 175.506  C 88.4851 175.506  87.8761 176.5825  87.8761 176.5825  C 87.8761 176.5825  86.8864 176.3618  86.8864 176.3618  C 86.8864 176.3618  84.9832 176.8786  84.9832 176.8786  C 84.9832 176.8786  83.9642 177.5946  83.9642 177.5946  C 83.9642 177.5946  83.0975 177.1048  83.0975 177.1048  C 83.0975 177.1048  81.7096 177.4332  81.7096 177.4332  C 81.7096 177.4332  81.0303 177.7346  81.0303 177.7346  C 81.0303 177.7346  80.9952 178.6015  80.9952 178.6015  C 80.9952 178.6015  80.3686 179.0698  80.3686 179.0698  C 80.3686 179.0698  79.1915 177.783  79.1915 177.783  C 79.1915 177.783  78.2721 177.4869  78.2721 177.4869  C 78.2721 177.4869  78.5239 176.7171  78.5239 176.7171  C 78.5239 176.7171  76.9324 176.5395  76.9324 176.5395  C 76.9324 176.5395  77.1374 175.4091  77.1374 175.4091  C 77.1374 175.4091  75.2166 174.887  75.2166 174.887  C 75.2166 174.887  74.0278 171.9538  74.0278 171.9538  C 74.0278 171.9538  74.4495 171.0336  74.4495 171.0336  C 74.4495 171.0336  75.8198 169.4841  75.8198 169.4841  C 75.8198 169.4841  76.136 168.3973  76.136 168.3973  C 76.136 168.3973  74.9882 166.9286  74.9882 166.9286  C 74.9882 166.9286  74.4612 168.3596  74.4612 168.3596  C 74.4612 168.3596  72.798 166.5037  72.798 166.5037  C 72.798 166.5037  72.1304 166.2455  72.1304 166.2455  C 72.1304 166.2455  71.0295 166.9071  71.0295 166.9071  C 71.0295 166.9071  69.4015 166.8963  69.4015 166.8963  C 69.4015 166.8963  69.6533 169.0644  69.6533 169.0644  C 69.6533 169.0644  67.4866 169.0859  67.4866 169.0859  C 67.4866 169.0859  67.0766 168.4457  67.0766 168.4457  C 67.0766 168.4457  66.819 166.423  66.819 166.423  C 66.819 166.423  67.3343 166.4069  67.3343 166.4069  C 67.3343 166.4069  67.305 164.6642  67.305 164.6642  C 67.305 164.6642  65.9347 164.7071  65.9347 164.7071  C 65.9347 164.7071  65.1968 163.2013  65.1968 163.2013  C 65.1968 163.2013  64.0256 163.2013  64.0256 163.2013  C 64.0256 163.2013  63.5395 162.513  63.5395 162.513  C 63.5395 162.513  63.6625 160.6202  63.6625 160.6202  C 63.6625 160.6202  65.6653 159.3352  65.6653 159.3352  C 65.6653 159.3352  66.1513 157.9052  66.1513 157.9052  C 66.1513 157.9052  65.8644 156.2819  65.8644 156.2819  C 65.8644 156.2819  64.9274 155.6529  64.9274 155.6529  C 64.9274 155.6529  64.2072 156.169  64.2072 156.169  C 64.2072 156.169  63.5981 155.868  63.5981 155.868  C 63.5981 155.868  63.1179 156.5613  63.1179 156.5613  C 63.1179 156.5613  62.7314 156.1421  62.7314 156.1421  C 62.7314 156.1421  63.1179 154.7231  63.1179 154.7231  C 63.1179 154.7231  61.8764 155.5402  61.8764 155.5402  C 61.8764 155.5402  60.834 154.2019  60.834 154.2019  C 60.834 154.2019  61.3318 153.4979  61.3318 153.4979  C 61.3318 153.4979  61.5602 152.3049  61.5602 152.3049  C 61.5602 152.3049  60.7111 152.6488  60.7111 152.6488  C 60.7111 152.6488  60.5471 152.1169  60.5471 152.1169  C 60.5471 152.1169  61.6597 150.7198  61.6597 150.7198  C 61.6597 150.7198  62.9774 148.0069  62.9774 148.0069  C 62.9774 148.0069  61.976 147.3891  61.976 147.3891  C 61.976 147.3891  60.143 147.9693  60.143 147.9693  C 60.143 147.9693  59.5047 146.6586  59.5047 146.6586  C 59.5047 146.6586  60.0025 144.1238  60.0025 144.1238  C 60.0025 144.1238  59.733 143.8553  59.733 143.8553  C 59.733 143.8553  60.1313 142.5128  60.1313 142.5128  C 60.1313 142.5128  58.8781 142.5128  58.8781 142.5128  C 58.8781 142.5128  57.8064 141.6162  57.8064 141.6162  C 57.8064 141.6162  56.2722 141.8793  56.2722 141.8793  C 56.2722 141.8793  56.7289 140.9558  56.7289 140.9558  C 56.7289 140.9558  57.7889 139.9787  57.7889 139.9787  C 57.7889 139.9787  57.5546 137.9174  57.5546 137.9174  C 57.5546 137.9174  58.1168 137.3323  58.1168 137.3323  C 58.1168 137.3323  57.5546 136.5595  57.5546 136.5595  C 57.5546 136.5595  59.0831 134.0319  59.0831 134.0319  C 59.0831 134.0319  58.5736 133.447  58.5736 133.447  C 58.5736 133.447  59.1651 132.5402  59.1651 132.5402  C 59.1651 132.5402  59.1826 131.6764  59.1826 131.6764  C 59.1826 131.6764  58.4038 130.523  58.4038 130.523  C 58.4038 130.523  58.351 128.9941  58.351 128.9941  C 58.351 128.9941  57.8357 128.9136  57.8357 128.9136  C 57.8357 128.9136  56.846 127.9214  56.846 127.9214  C 56.846 127.9214  55.4874 128.7956  55.4874 128.7956  C 55.4874 128.7956  53.7715 128.5275  53.7715 128.5275  C 53.7715 128.5275  52.6648 127.6156  52.6648 127.6156  C 52.6648 127.6156  51.1481 127.1973  51.1481 127.1973  C 51.1481 127.1973  50.1408 126.114  50.1408 126.114  C 50.1408 126.114  49.52 126.3607  49.52 126.3607  C 49.52 126.3607  49.3092 125.0951  49.3092 125.0951  C 49.3092 125.0951  47.1249 125.7654  47.1249 125.7654  C 47.1249 125.7654  45.6316 125.1273  45.6316 125.1273  C 45.6316 125.1273  45.2627 122.6447  45.2627 122.6447  C 45.2627 122.6447  44.8937 122.0443  44.8937 122.0443  C 44.8937 122.0443  45.8131 121.0901  45.8131 121.0901  C 45.8131 121.0901  44.9815 118.3724  44.9815 118.3724  C 44.9815 118.3724  44.9757 117.5096  44.9757 117.5096  C 44.9757 117.5096  44.2378 116.2235  44.2378 116.2235  C 44.2378 116.2235  44.4604 114.5517  44.4604 114.5517  C 44.4604 114.5517  43.5995 114.0105  43.5995 114.0105  C 43.5995 114.0105  43.9157 113.0675  43.9157 113.0675  C 43.9157 113.0675  43.3828 111.1551  43.3828 111.1551  C 43.3828 111.1551  41.6319 110.4802  41.6319 110.4802  C 41.6319 110.4802  40.771 110.9944  40.771 110.9944  C 40.771 110.9944  40.9877 110.0678  40.9877 110.0678  C 40.9877 110.0678  40.3435 110.3623  40.3435 110.3623  C 40.3435 110.3623  39.0376 109.8374  39.0376 109.8374  C 39.0376 109.8374  38.9322 108.5414  38.9322 108.5414  C 38.9322 108.5414  39.4065 107.7541  39.4065 107.7541  C 39.4065 107.7541  39.0142 106.426  39.0142 106.426  C 39.0142 106.426  39.4183 106.0298  39.4183 106.0298  C 39.4183 106.0298  39.1606 105.1196  39.1606 105.1196  C 39.1606 105.1196  39.7404 104.4128  39.7404 104.4128  C 39.7404 104.4128  39.7813 103.3689  39.7813 103.3689  C 39.7813 103.3689  40.812 101.4525  40.812 101.4525  C 40.812 101.4525  41.2453 98.4982  41.2453 98.4982  C 41.2453 98.4982  40.5778 94.1535  40.5778 94.1535  C 40.5778 94.1535  40.1386 93.4688  40.1386 93.4688  C 40.1386 93.4688  38.575 93.7523  38.575 93.7523  C 38.575 93.7523  37.6205 91.5004  37.6205 91.5004  C 37.6205 91.5004  36.9001 91.1794  36.9001 91.1794  C 36.9001 91.1794  36.2911 88.5055  36.2911 88.5055  C 36.2911 88.5055  35.6001 88.329  35.6001 88.329  C 35.6001 88.329  34.7509 86.3345  34.7509 86.3345  C 34.7509 86.3345  32.3265 85.7678  32.3265 85.7678  C 32.3265 85.7678  30.6224 83.052  30.6224 83.052  C 30.6224 83.052  29.6679 83.2124  29.6679 83.2124  C 29.6679 83.2124  28.2741 82.1861  28.2741 82.1861  C 28.2741 82.1861  27.9461 83.3407  27.9461 83.3407  C 27.9461 83.3407  28.6313 86.6821  28.6313 86.6821  C 28.6313 86.6821  28.6372 88.4093  28.6372 88.4093  C 28.6372 88.4093  27.1614 89.1206  27.1614 89.1206  C 27.1614 89.1206  25.9317 88.7461  25.9317 88.7461  C 25.9317 88.7461  25.8263 89.1045  25.8263 89.1045  C 25.8263 89.1045  26.2128 93.1799  26.2128 93.1799  C 26.2128 93.1799  25.7208 94.3408  25.7208 94.3408  C 25.7208 94.3408  25.7794 96.3257  25.7794 96.3257  C 25.7794 96.3257  25.2582 97.9898  25.2582 97.9898  C 25.2582 97.9898  24.2041 97.7008  24.2041 97.7008  C 24.2041 97.7008  22.8748 97.8881  22.8748 97.8881  C 22.8748 97.8881  22.6289 100.0181  22.6289 100.0181  C 22.6289 100.0181  21.2409 101.9931  21.2409 101.9931  C 21.2409 101.9931  19.1737 102.6675  19.1737 102.6675  C 19.1737 102.6675  18.9278 103.6366  18.9278 103.6366  C 18.9278 103.6366  18.2309 103.8507  18.2309 103.8507  C 18.2309 103.8507  17.5282 103.417  17.5282 103.417  C 17.5282 103.417  17.2295 102.2661  17.2295 102.2661  C 17.2295 102.2661  16.07 101.6451  16.07 101.6451  C 16.07 101.6451  15.5605 100.0662  15.5605 100.0662  C 15.5605 100.0662  14.9866 99.4508  14.9866 99.4508  C 14.9866 99.4508  14.3015 99.4989  14.3015 99.4989  C 14.3015 99.4989  12.8316 96.6092  12.8316 96.6092  C 12.8316 96.6092  11.3793 96.224  11.3793 96.224  C 11.3793 96.224  10.6531 97.6152  10.6531 97.6152  C 10.6531 97.6152  10.2549 97.7276  10.2549 97.7276  C 10.2549 97.7276  10.044 99.9378  10.044 99.9378  C 10.044 99.9378  9.35300000000001 100.7085  9.35300000000001 100.7085  C 9.35300000000001 100.7085  9.71030000000002 102.6515  9.71030000000002 102.6515  C 9.71030000000002 102.6515  9.38819999999998 103.2725  9.38819999999998 103.2725  C 9.38819999999998 103.2725  8.09989999999999 103.5937  8.09989999999999 103.5937  C 8.09989999999999 103.5937  6.71780000000001 103.4117  6.71780000000001 103.4117  C 6.71780000000001 103.4117  6.01510000000002 103.7382  6.01510000000002 103.7382  C 6.01510000000002 103.7382  5.7516 102.5498  5.7516 102.5498  C 5.7516 102.5498  5.18939999999998 101.8861  5.18939999999998 101.8861  C 5.18939999999998 101.8861  4.51589999999999 100.0983  4.51589999999999 100.0983  C 4.51589999999999 100.0983  3.2568 98.8674  3.2568 98.8674  C 3.2568 98.8674  1.81040000000002 98.8567  1.81040000000002 98.8567  C 1.81040000000002 98.8567  1.66399999999999 97.8078  1.66399999999999 97.8078  C 1.66399999999999 97.8078  2.57749999999999 97.155  2.57749999999999 97.155  C 2.57749999999999 97.155  2.83519999999999 96.2615  2.83519999999999 96.2615  C 2.83519999999999 96.2615  3.82490000000001 95.9191  3.82490000000001 95.9191  C 3.82490000000001 95.9191  4.3578 96.7965  4.3578 96.7965  C 4.3578 96.7965  5.27719999999999 96.3952  5.27719999999999 96.3952  C 5.27719999999999 96.3952  5.45870000000002 94.2766  5.45870000000002 94.2766  C 5.45870000000002 94.2766  6.43090000000001 94.0893  6.43090000000001 94.0893  C 6.43090000000001 94.0893  7.40879999999999 92.8322  7.40879999999999 92.8322  C 7.40879999999999 92.8322  8.18770000000001 92.7199  8.18770000000001 92.7199  C 8.18770000000001 92.7199  8.73230000000001 90.8586  8.73230000000001 90.8586  C 8.73230000000001 90.8586  9.64589999999998 89.1045  9.64589999999998 89.1045  C 9.64589999999998 89.1045  10.0558 87.9012  10.0558 87.9012  C 10.0558 87.9012  10.7351 87.1741  10.7351 87.1741  C 10.7351 87.1741  10.9166 84.2762  10.9166 84.2762  C 10.9166 84.2762  10.6004 82.3464  10.6004 82.3464  C 10.6004 82.3464  9.52289999999999 81.7745  9.52289999999999 81.7745  C 9.52289999999999 81.7745  9.41160000000002 79.9841  9.41160000000002 79.9841  C 9.41160000000002 79.9841  7.96519999999998 76.7993  7.96519999999998 76.7993  C 7.96519999999998 76.7993  6.17320000000001 75.8911  6.17320000000001 75.8911  C 6.17320000000001 75.8911  5.92720000000003 74.9936  5.92720000000003 74.9936  C 5.92720000000003 74.9936  5.17180000000002 74.4594  5.17180000000002 74.4594  C 5.17180000000002 74.4594  5.20699999999999 72.7929  5.20699999999999 72.7929  C 5.20699999999999 72.7929  5.91550000000001 71.3615  5.91550000000001 71.3615  C 5.91550000000001 71.3615  6.93450000000001 70.5498  6.93450000000001 70.5498  C 6.93450000000001 70.5498  6.59480000000002 69.6152  6.59480000000002 69.6152  C 6.59480000000002 69.6152  6.75880000000001 67.3246  6.75880000000001 67.3246  C 6.75880000000001 67.3246  6.02679999999998 65.627  6.02679999999998 65.627  C 6.02679999999998 65.627  5.4178 65.6697  5.4178 65.6697  C 5.4178 65.6697  4.5335 64.5914  4.5335 64.5914  C 4.5335 64.5914  4.05329999999998 62.83  4.05329999999998 62.83  C 4.05329999999998 62.83  3.39150000000001 62.6006  3.39150000000001 62.6006  C 3.39150000000001 62.6006  2.26130000000001 61.3998  2.26130000000001 61.3998  C 2.26130000000001 61.3998  1.3888 61.0797  1.3888 61.0797  C 1.3888 61.0797  1.48829999999998 59.6869  1.48829999999998 59.6869  C 1.48829999999998 59.6869  0.650899999999979 57.6595  0.650899999999979 57.6595  C 0.650899999999979 57.6595  1.1721 56.3846  1.1721 56.3846  C 1.1721 56.3846  2.64190000000002 55.8458  2.64190000000002 55.8458  C 2.64190000000002 55.8458  2.18520000000001 53.9951  2.18520000000001 53.9951  C 2.18520000000001 53.9951  1.54689999999999 53.5737  1.54689999999999 53.5737  C 1.54689999999999 53.5737  1.92759999999998 52.8698  1.92759999999998 52.8698  C 1.92759999999998 52.8698  1.58199999999999 51.8299  1.58199999999999 51.8299  C 1.58199999999999 51.8299  2.58929999999998 50.8381  2.58929999999998 50.8381  C 2.58929999999998 50.8381  3.23930000000001 48.3057  3.23930000000001 48.3057  C 3.23930000000001 48.3057  4.10599999999999 47.6767  4.10599999999999 47.6767  C 4.10599999999999 47.6767  5.04880000000003 47.666  5.04880000000003 47.666  C 5.04880000000003 47.666  6.12639999999999 47.0903  6.12639999999999 47.0903  C 6.12639999999999 47.0903  7.25659999999999 47.2555  7.25659999999999 47.2555  C 7.25659999999999 47.2555  8.5215 45.8749  8.5215 45.8749  C 8.5215 45.8749  8.7792 43.2157  8.7792 43.2157  C 8.7792 43.2157  10.3369 41.4093  10.3369 41.4093  C 10.3369 41.4093  10.7176 40.3278  10.7176 40.3278  C 10.7176 40.3278  12.5973 39.7843  12.5973 39.7843  C 12.5973 39.7843  13.5636 38.5219  13.5636 38.5219  C 13.5636 38.5219  13.6222 37.5897  13.6222 37.5897  C 13.6222 37.5897  14.7992 37.0677  14.7992 37.0677  C 14.7992 37.0677  15.6718 36.0931  15.6718 36.0931  C 15.6718 36.0931  17.0011 35.7416  17.0011 35.7416  C 17.0011 35.7416  17.616 36.5138  17.616 36.5138  C 17.616 36.5138  18.5003 35.7735  18.5003 35.7735  C 18.5003 35.7735  19.2675 33.8884  19.2675 33.8884  C 19.2675 33.8884  18.8516 33.4304  18.8516 33.4304  C 18.8516 33.4304  19.0449 31.024  19.0449 31.024  C 19.0449 31.024  19.5778 27.2873  19.5778 27.2873  C 19.5778 27.2873  17.8444 26.787  17.8444 26.787  C 17.8444 26.787  17.0539 26.2229  17.0539 26.2229  C 17.0539 26.2229  15.3673 23.5997  15.3673 23.5997  C 15.3673 23.5997  15.5722 20.8705  15.5722 20.8705  C 15.5722 20.8705  16.4799 20.328  16.4799 20.328  C 16.4799 20.328  18.0903 17.1529  18.0903 17.1529  C 18.0903 17.1529  17.5692 16.2915  17.5692 16.2915  C 17.5692 16.2915  17.9264 15.2652  17.9264 15.2652  C 17.9264 15.2652  17.821 14.2018  17.821 14.2018  C 17.821 14.2018  18.6291 12.9259  18.6291 12.9259  C 18.6291 12.9259  18.8634 11.2409  18.8634 11.2409  C 18.8634 11.2409  19.7242 8.9609  19.7242 8.9609  C 19.7242 8.9609  19.5017 6.7079  19.5017 6.7079  C 19.5017 6.7079  20.2454 5.5283  20.2454 5.5283  C 20.2454 5.5283  20.1986 4.7367  20.1986 4.7367  C 20.1986 4.7367  20.954 2.357  20.954 2.357  C 20.954 2.357  20.5089 1.247  20.5089 1.247  C 20.5089 1.247  21.6099 0.970799999999997  21.6099 0.970799999999997  C 21.6099 0.970799999999997  25.0357 1.0557  25.0357 1.0557  C 25.0357 1.0557  25.7208 2.4208  25.7208 2.4208  C 25.7208 2.4208  25.7619 3.66370000000001  25.7619 3.66370000000001  C 25.7619 3.66370000000001  27.7412 3.1165  27.7412 3.1165  C 27.7412 3.1165  28.2331 3.74330000000001  28.2331 3.74330000000001  C 28.2331 3.74330000000001  29.3106 3.88679999999999  29.3106 3.88679999999999  C 29.3106 3.88679999999999  30.1597 2.1818  30.1597 2.1818  C 30.1597 2.1818  31.4013 2.19240000000001  31.4013 2.19240000000001  C 31.4013 2.19240000000001  33.0058 0.843299999999999  33.0058 0.843299999999999  C 33.0058 0.843299999999999  34.0716 0.370699999999999  34.0716 0.370699999999999  C 34.0716 0.370699999999999  34.7509 1.8099  34.7509 1.8099  C 34.7509 1.8099  36.2326 3.584  36.2326 3.584  C 36.2326 3.584  35.7934 4.3967  35.7934 4.3967  C 35.7934 4.3967  36.7186 5.57080000000001  36.7186 5.57080000000001  C 36.7186 5.57080000000001  37.7786 5.5018  37.7786 5.5018  C 37.7786 5.5018  38.7566 3.9824  38.7566 3.9824  C 38.7566 3.9824  39.102 2.0436  39.102 2.0436  C 39.102 2.0436  40.0449 0.992099999999994  40.0449 0.992099999999994  C 40.0449 0.992099999999994  40.9467 2.2242  40.9467 2.2242  C 40.9467 2.2242  40.7827 3.6159  40.7827 3.6159  C 40.7827 3.6159  41.2103 4.4074  41.2103 4.4074  C 41.2103 4.4074  42.6801 4.4765  42.6801 4.4765  C 42.6801 4.4765  43.7167 5.1831  43.7167 5.1831  C 43.7167 5.1831  44.6009 5.1671  44.6009 5.1671  C 44.6009 5.1671  44.9874 5.9693  44.9874 5.9693  C 44.9874 5.9693  47.2303 6.2243  47.2303 6.2243  C 47.2303 6.2243  49.1862 7.2179  49.1862 7.2179  C 49.1862 7.2179  51.7746 7.0372  51.7746 7.0372  C 51.7746 7.0372  53.0161 6.3306  53.0161 6.3306  C 53.0161 6.3306  53.9355 6.24030000000001  53.9355 6.24030000000001  C 53.9355 6.24030000000001  54.1932 5.5761  54.1932 5.5761  C 54.1932 5.5761  55.7099 6.2881  55.7099 6.2881  C 55.7099 6.2881  56.6118 6.37309999999999  56.6118 6.37309999999999  C 56.6118 6.37309999999999  57.2267 7.45699999999999  57.2267 7.45699999999999  C 57.2267 7.45699999999999  57.3028 8.29130000000001  57.3028 8.29130000000001  C 57.3028 8.29130000000001  58.1343 8.70050000000001  58.1343 8.70050000000001  C 58.1343 8.70050000000001  59.3173 10.1673  59.3173 10.1673  C 59.3173 10.1673  59.4754 10.7359  59.4754 10.7359  C 59.4754 10.7359  60.875 11.9159  60.875 11.9159  C 60.875 11.9159  61.1503 14.9834  61.1503 14.9834  C 61.1503 14.9834  60.8399 17.2485  60.8399 17.2485  C 60.8399 17.2485  61.6597 18.8759  61.6597 18.8759  C 61.6597 18.8759  62.8778 20.0461  62.8778 20.0461  C 62.8778 20.0461  63.1472 21.8014  63.1472 21.8014  C 63.1472 21.8014  62.9071 22.1951  62.9071 22.1951  C 62.9071 22.1951  63.2233 24.3339  63.2233 24.3339  C 63.2233 24.3339  65.2964 24.9991  65.2964 24.9991  C 65.2964 24.9991  66.1338 26.1591  66.1338 26.1591  C 66.1338 26.1591  65.964 27.7769  65.964 27.7769  C 65.964 27.7769  66.3094 28.8255  66.3094 28.8255  C 66.3094 28.8255  65.8527 30.3638  65.8527 30.3638  C 65.8527 30.3638  66.4325 30.8642  66.4325 30.8642  C 66.4325 30.8642  67.6623 31.0345  67.6623 31.0345  C 67.6623 31.0345  70.5376 30.3797  70.5376 30.3797  C 70.5376 30.3797  72.9386 30.4277  72.9386 30.4277  C 72.9386 30.4277  73.3837 29.2939  73.3837 29.2939  C 73.3837 29.2939  75.2986 27.8674  75.2986 27.8674  C 75.2986 27.8674  76.8387 28.1655  76.8387 28.1655  C 76.8387 28.1655  78.8226 28.0057  78.8226 28.0057  C 78.8226 28.0057  79.1563 28.4688  79.1563 28.4688  C 79.1563 28.4688  80.4916 27.6971  80.4916 27.6971  C 80.4916 27.6971  81.0713 28.1229  81.0713 28.1229  C 81.0713 28.1229  82.4182 27.9313  82.4182 27.9313  Z " fill-rule="nonzero" fill="#ffffff" stroke="none" transform="matrix(1 0 0 1 349 133 )" />
    <path d="M 82.4182 27.9313  C 82.4182 27.9313  83.2088 27.3033  83.2088 27.3033  C 83.2088 27.3033  83.9994 28.6552  83.9994 28.6552  C 83.9994 28.6552  83.97 30.0763  83.97 30.0763  C 83.97 30.0763  84.3624 30.4064  84.3624 30.4064  C 84.3624 30.4064  84.4444 31.8438  84.4444 31.8438  C 84.4444 31.8438  85.2994 33.0578  85.2994 33.0578  C 85.2994 33.0578  85.1003 34.5753  85.1003 34.5753  C 85.1003 34.5753  84.7313 35.028  84.7313 35.028  C 84.7313 35.028  83.525 35.1345  83.525 35.1345  C 83.525 35.1345  82.02 36.9612  82.02 36.9612  C 82.02 36.9612  80.5325 37.8081  80.5325 37.8081  C 80.5325 37.8081  79.9059 38.671  79.9059 38.671  C 79.9059 38.671  80.556 40.1786  80.556 40.1786  C 80.556 40.1786  79.8708 41.452  79.8708 41.452  C 79.8708 41.452  80.0992 42.0913  80.0992 42.0913  C 80.0992 42.0913  79.0334 44.6065  79.0334 44.6065  C 79.0334 44.6065  78.5356 44.825  78.5356 44.825  C 78.5356 44.825  78.9279 46.5733  78.9279 46.5733  C 78.9279 46.5733  78.2838 48.5615  78.2838 48.5615  C 78.2838 48.5615  75.0116 49.0627  75.0116 49.0627  C 75.0116 49.0627  76.0716 54.267  76.0716 54.267  C 76.0716 54.267  74.6896 55.4991  74.6896 55.4991  C 74.6896 55.4991  74.7949 57.3661  74.7949 57.3661  C 74.7949 57.3661  73.7877 58.988  73.7877 58.988  C 73.7877 58.988  74.0454 61.1331  74.0454 61.1331  C 74.0454 61.1331  74.8652 60.5994  74.8652 60.5994  C 74.8652 60.5994  75.1229 61.0957  75.1229 61.0957  C 75.1229 61.0957  76.2766 60.6047  76.2766 60.6047  C 76.2766 60.6047  76.9793 61.0156  76.9793 61.0156  C 76.9793 61.0156  79.824 61.1651  79.824 61.1651  C 79.824 61.1651  80.8839 62.0669  80.8839 62.0669  C 80.8839 62.0669  80.6556 63.684  80.6556 63.684  C 80.6556 63.684  81.2646 63.9029  81.2646 63.9029  C 81.2646 63.9029  82.2249 66.4705  82.2249 66.4705  C 82.2249 66.4705  82.9218 66.2836  82.9218 66.2836  C 82.9218 66.2836  83.5835 67.9173  83.5835 67.9173  C 83.5835 67.9173  85.1823 69.4497  85.1823 69.4497  C 85.1823 69.4497  85.5629 71.4683  85.5629 71.4683  C 85.5629 71.4683  87.2261 73.3376  87.2261 73.3376  C 87.2261 73.3376  88.4734 74.0214  88.4734 74.0214  C 88.4734 74.0214  90.2771 73.7382  90.2771 73.7382  C 90.2771 73.7382  91.0032 71.2066  91.0032 71.2066  C 91.0032 71.2066  92.3267 70.5391  92.3267 70.5391  C 92.3267 70.5391  94.0836 72.5845  94.0836 72.5845  C 94.0836 72.5845  95.1787 73.0118  95.1787 73.0118  C 95.1787 73.0118  95.3251 74.1335  95.3251 74.1335  C 95.3251 74.1335  95.9809 72.9798  95.9809 72.9798  C 95.9809 72.9798  96.9765 73.3002  96.9765 73.3002  C 96.9765 73.3002  97.8783 72.8089  97.8783 72.8089  C 97.8783 72.8089  98.663 73.4231  98.663 73.4231  C 98.663 73.4231  99.3599 73.2416  99.3599 73.2416  C 99.3599 73.2416  100.1505 71.2814  100.1505 71.2814  C 100.1505 71.2814  101.1929 70.9984  101.1929 70.9984  C 101.1929 70.9984  101.6262 70.2454  101.6262 70.2454  C 101.6262 70.2454  102.2997 70.6246  102.2997 70.6246  C 102.2997 70.6246  102.7916 69.8022  102.7916 69.8022  C 102.7916 69.8022  102.9204 71.0678  102.9204 71.0678  C 102.9204 71.0678  103.6114 72.654  103.6114 72.654  C 103.6114 72.654  104.2673 73.2149  104.2673 73.2149  C 104.2673 73.2149  104.402 74.2083  104.402 74.2083  C 104.402 74.2083  106.1471 75.2073  106.1471 75.2073  C 106.1471 75.2073  108.0152 74.3793  108.0152 74.3793  C 108.0152 74.3793  108.9171 73.6368  108.9171 73.6368  C 108.9171 73.6368  110.3987 73.6795  110.3987 73.6795  C 110.3987 73.6795  111.2712 72.9744  111.2712 72.9744  C 111.2712 72.9744  112.1965 71.4523  112.1965 71.4523  C 112.1965 71.4523  112.6239 72.3496  112.6239 72.3496  C 112.6239 72.3496  115.3588 72.3442  115.3588 72.3442  C 115.3588 72.3442  115.1011 73.6422  115.1011 73.6422  C 115.1011 73.6422  115.6399 74.9242  115.6399 74.9242  C 115.6399 74.9242  117.303 75.5599  117.303 75.5599  C 117.303 75.5599  119.3234 74.7425  119.3234 74.7425  C 119.3234 74.7425  120.1959 73.108  120.1959 73.108  C 120.1959 73.108  120.9923 73.797  120.9923 73.797  C 120.9923 73.797  121.7595 73.5139  121.7595 73.5139  C 121.7595 73.5139  122.4095 72.4724  122.4095 72.4724  C 122.4095 72.4724  123.2528 73.9146  123.2528 73.9146  C 123.2528 73.9146  124.1254 72.9264  124.1254 72.9264  C 124.1254 72.9264  124.2073 71.8796  124.2073 71.8796  C 124.2073 71.8796  124.9042 70.208  124.9042 70.208  C 124.9042 70.208  125.8295 69.7167  125.8295 69.7167  C 125.8295 69.7167  127.5922 69.9143  127.5922 69.9143  C 127.5922 69.9143  127.8908 70.79  127.8908 70.79  C 127.8908 70.79  128.6638 69.2895  128.6638 69.2895  C 128.6638 69.2895  129.4252 69.5191  129.4252 69.5191  C 129.4252 69.5191  129.2084 70.7527  129.2084 70.7527  C 129.2084 70.7527  130.1923 71.8636  130.1923 71.8636  C 130.1923 71.8636  131.422 71.6659  131.422 71.6659  C 131.422 71.6659  132.2946 72.2214  132.2946 72.2214  C 132.2946 72.2214  132.7572 73.1133  132.7572 73.1133  C 132.7572 73.1133  133.7938 74.0802  133.7938 74.0802  C 133.7938 74.0802  134.5023 74.1549  134.5023 74.1549  C 134.5023 74.1549  135.8083 75.5118  135.8083 75.5118  C 135.8083 75.5118  136.0542 77.1894  136.0542 77.1894  C 136.0542 77.1894  137.852 79.7704  137.852 79.7704  C 137.852 79.7704  138.7949 79.5405  138.7949 79.5405  C 138.7949 79.5405  138.9237 77.4726  138.9237 77.4726  C 138.9237 77.4726  139.1579 77.2588  139.1579 77.2588  C 139.1579 77.2588  141.1783 77.2428  141.1783 77.2428  C 141.1783 77.2428  141.8986 77.6702  141.8986 77.6702  C 141.8986 77.6702  142.086 79.2253  142.086 79.2253  C 142.086 79.2253  143.0757 79.9199  143.0757 79.9199  C 143.0757 79.9199  145.0316 80.8499  145.0316 80.8499  C 145.0316 80.8499  145.1605 82.6244  145.1605 82.6244  C 145.1605 82.6244  144.8091 83.3407  144.8091 83.3407  C 144.8091 83.3407  146.156 85.9014  146.156 85.9014  C 146.156 85.9014  146.0388 86.6768  146.0388 86.6768  C 146.0388 86.6768  147.1281 87.4949  147.1281 87.4949  C 147.1281 87.4949  147.8309 87.5269  147.8309 87.5269  C 147.8309 87.5269  148.5921 90.297  148.5921 90.297  C 148.5921 90.297  148.1588 91.7571  148.1588 91.7571  C 148.1588 91.7571  148.153 94.2873  148.153 94.2873  C 148.153 94.2873  148.557 94.8116  148.557 94.8116  C 148.557 94.8116  147.7957 95.7746  147.7957 95.7746  C 147.7957 95.7746  149.0021 97.0158  149.0021 97.0158  C 149.0021 97.0158  149.5408 96.3952  149.5408 96.3952  C 149.5408 96.3952  150.2435 96.9089  150.2435 96.9089  C 150.2435 96.9089  150.1264 98.1021  150.1264 98.1021  C 150.1264 98.1021  151.0868 97.7811  151.0868 97.7811  C 151.0868 97.7811  151.6725 98.1824  151.6725 98.1824  C 151.6725 98.1824  151.6432 99.3758  151.6432 99.3758  C 151.6432 99.3758  152.1117 101.3561  152.1117 101.3561  C 152.1117 101.3561  153.9973 102.3089  153.9973 102.3089  C 153.9973 102.3089  154.0676 103.1173  154.0676 103.1173  C 154.0676 103.1173  154.6942 102.8228  154.6942 102.8228  C 154.6942 102.8228  154.6883 103.5884  154.6883 103.5884  C 154.6883 103.5884  153.0779 104.0059  153.0779 104.0059  C 153.0779 104.0059  152.4571 103.5777  152.4571 103.5777  C 152.4571 103.5777  150.8526 105.0446  150.8526 105.0446  C 150.8526 105.0446  149.0957 106.3297  149.0957 106.3297  C 149.0957 106.3297  149.494 107.7755  149.494 107.7755  C 149.494 107.7755  150.1206 108.4021  150.1206 108.4021  C 150.1206 108.4021  149.6755 109.2322  149.6755 109.2322  C 149.6755 109.2322  148.8556 109.2536  148.8556 109.2536  C 148.8556 109.2536  148.6331 110.0517  148.6331 110.0517  C 148.6331 110.0517  147.7371 110.5659  147.7371 110.5659  C 147.7371 110.5659  147.5614 111.4015  147.5614 111.4015  C 147.5614 111.4015  147.9772 112.1836  147.9772 112.1836  C 147.9772 112.1836  147.5381 112.7354  147.5381 112.7354  C 147.5381 112.7354  147.5497 113.7854  147.5497 113.7854  C 147.5497 113.7854  148.2291 113.9408  148.2291 113.9408  C 148.2291 113.9408  147.5966 115.3714  147.5966 115.3714  C 147.5966 115.3714  146.9114 115.693  146.9114 115.693  C 146.9114 115.693  147.1164 116.3146  147.1164 116.3146  C 147.1164 116.3146  145.7343 117.4292  145.7343 117.4292  C 145.7343 117.4292  145.0141 117.3274  145.0141 117.3274  C 145.0141 117.3274  144.001 119.2729  144.001 119.2729  C 144.001 119.2729  144.0185 120.227  144.0185 120.227  C 144.0185 120.227  143.5266 120.5112  143.5266 120.5112  C 143.5266 120.5112  142.6716 120.0394  142.6716 120.0394  C 142.6716 120.0394  141.9513 120.6077  141.9513 120.6077  C 141.9513 120.6077  141.19 120.0501  141.19 120.0501  C 141.19 120.0501  140.6922 120.42  140.6922 120.42  C 140.6922 120.42  139.2458 123.0737  139.2458 123.0737  C 139.2458 123.0737  138.5197 123.4973  138.5197 123.4973  C 138.5197 123.4973  139.5679 124.7091  139.5679 124.7091  C 139.5679 124.7091  139.4215 125.3686  139.4215 125.3686  C 139.4215 125.3686  140.1067 125.8834  140.1067 125.8834  C 140.1067 125.8834  140.5107 126.956  140.5107 126.956  C 140.5107 126.956  142.1739 126.7737  142.1739 126.7737  C 142.1739 126.7737  142.7712 127.6049  142.7712 127.6049  C 142.7712 127.6049  142.8532 129.0585  142.8532 129.0585  C 142.8532 129.0585  144.1473 129.7612  144.1473 129.7612  C 144.1473 129.7612  144.6861 130.5766  144.6861 130.5766  C 144.6861 130.5766  144.7564 132.7119  144.7564 132.7119  C 144.7564 132.7119  144.0947 132.5778  144.0947 132.5778  C 144.0947 132.5778  143.2923 133.3504  143.2923 133.3504  C 143.2923 133.3504  142.8532 135.2231  142.8532 135.2231  C 142.8532 135.2231  142.2207 135.8832  142.2207 135.8832  C 142.2207 135.8832  141.5414 137.3055  141.5414 137.3055  C 141.5414 137.3055  140.8445 137.6222  140.8445 137.6222  C 140.8445 137.6222  140.3292 137.1337  140.3292 137.1337  C 140.3292 137.1337  139.6675 137.5578  139.6675 137.5578  C 139.6675 137.5578  138.1273 136.7956  138.1273 136.7956  C 138.1273 136.7956  137.8403 137.429  137.8403 137.429  C 137.8403 137.429  138.4728 138.6903  138.4728 138.6903  C 138.4728 138.6903  138.2268 139.5976  138.2268 139.5976  C 138.2268 139.5976  138.6367 140.6014  138.6367 140.6014  C 138.6367 140.6014  137.5827 141.6054  137.5827 141.6054  C 137.5827 141.6054  136.1304 140.5423  136.1304 140.5423  C 136.1304 140.5423  135.8961 141.8417  135.8961 141.8417  C 135.8961 141.8417  134.5258 141.7665  134.5258 141.7665  C 134.5258 141.7665  133.4014 141.1115  133.4014 141.1115  C 133.4014 141.1115  132.5288 141.7074  132.5288 141.7074  C 132.5288 141.7074  132.0311 143.4472  132.0311 143.4472  C 132.0311 143.4472  130.6139 145.2193  130.6139 145.2193  C 130.6139 145.2193  131.4513 146.4815  131.4513 146.4815  C 131.4513 146.4815  132.2361 148.2325  132.2361 148.2325  C 132.2361 148.2325  131.8027 149.3821  131.8027 149.3821  C 131.8027 149.3821  132.2419 150.0913  132.2419 150.0913  C 132.2419 150.0913  131.873 150.5104  131.873 150.5104  C 131.873 150.5104  131.6036 152.1599  131.6036 152.1599  C 131.6036 152.1599  132.3707 152.8853  132.3707 152.8853  C 132.3707 152.8853  131.182 153.4065  131.182 153.4065  C 131.182 153.4065  131.2756 153.8901  131.2756 153.8901  C 131.2756 153.8901  130.3446 154.7554  130.3446 154.7554  C 130.3446 154.7554  130.6549 155.3682  130.6549 155.3682  C 130.6549 155.3682  129.2436 156.9215  129.2436 156.9215  C 129.2436 156.9215  128.4764 156.5076  128.4764 156.5076  C 128.4764 156.5076  128.4823 155.8733  128.4823 155.8733  C 128.4823 155.8733  127.0124 155.4434  127.0124 155.4434  C 127.0124 155.4434  127.0124 154.347  127.0124 154.347  C 127.0124 154.347  126.3038 153.2775  126.3038 153.2775  C 126.3038 153.2775  125.3961 153.0894  125.3961 153.0894  C 125.3961 153.0894  125.2849 153.7182  125.2849 153.7182  C 125.2849 153.7182  123.8794 154.7608  123.8794 154.7608  C 123.8794 154.7608  122.5969 155.137  122.5969 155.137  C 122.5969 155.137  120.3657 154.9758  120.3657 154.9758  C 120.3657 154.9758  119.4229 154.2664  119.4229 154.2664  C 119.4229 154.2664  119.0833 152.536  119.0833 152.536  C 119.0833 152.536  117.5196 151.73  117.5196 151.73  C 117.5196 151.73  117.1098 150.5855  117.1098 150.5855  C 117.1098 150.5855  114.4979 150.9563  114.4979 150.9563  C 114.4979 150.9563  114.006 150.2363  114.006 150.2363  C 114.006 150.2363  112.5186 150.1396  112.5186 150.1396  C 112.5186 150.1396  112.0618 152.3586  112.0618 152.3586  C 112.0618 152.3586  111.5992 152.2995  111.5992 152.2995  C 111.5992 152.2995  110.1527 156.6903  110.1527 156.6903  C 110.1527 156.6903  109.4676 156.8409  109.4676 156.8409  C 109.4676 156.8409  109.1923 157.7923  109.1923 157.7923  C 109.1923 157.7923  108.6652 157.8837  108.6652 157.8837  C 108.6652 157.8837  108.6945 158.9159  108.6945 158.9159  C 108.6945 158.9159  107.371 159.1255  107.371 159.1255  C 107.371 159.1255  105.7079 159.0181  105.7079 159.0181  C 105.7079 159.0181  106.4868 159.7223  106.4868 159.7223  C 106.4868 159.7223  105.8075 161.7978  105.8075 161.7978  C 105.8075 161.7978  105.0052 162.6259  105.0052 162.6259  C 105.0052 162.6259  104.7417 161.9106  104.7417 161.9106  C 104.7417 161.9106  102.5925 163.3788  102.5925 163.3788  C 102.5925 163.3788  101.9717 162.9055  101.9717 162.9055  C 101.9717 162.9055  102.3933 164.734  102.3933 164.734  C 102.3933 164.734  101.0172 164.1048  101.0172 164.1048  C 101.0172 164.1048  100.9527 164.9922  100.9527 164.9922  C 100.9527 164.9922  99.9983 165.1428  99.9983 165.1428  C 99.9983 165.1428  99.0613 165.9335  99.0613 165.9335  C 99.0613 165.9335  98.9499 167.4289  98.9499 167.4289  C 98.9499 167.4289  99.6644 168.3273  99.6644 168.3273  C 99.6644 168.3273  99.7991 169.2527  99.7991 169.2527  C 99.7991 169.2527  98.2121 171.3619  98.2121 171.3619  C 98.2121 171.3619  98.2824 172.2229  98.2824 172.2229  C 98.2824 172.2229  96.7539 172.4651  96.7539 172.4651  C 96.7539 172.4651  95.3368 173.4392  95.3368 173.4392  C 95.3368 173.4392  93.4394 172.4435  93.4394 172.4435  C 93.4394 172.4435  91.9344 173.9343  91.9344 173.9343  C 91.9344 173.9343  90.0194 174.311  90.0194 174.311  C 90.0194 174.311  89.3753 175.3337  89.3753 175.3337  C 89.3753 175.3337  88.4851 175.506  88.4851 175.506  C 88.4851 175.506  87.8761 176.5825  87.8761 176.5825  C 87.8761 176.5825  86.8864 176.3618  86.8864 176.3618  C 86.8864 176.3618  84.9832 176.8786  84.9832 176.8786  C 84.9832 176.8786  83.9642 177.5946  83.9642 177.5946  C 83.9642 177.5946  83.0975 177.1048  83.0975 177.1048  C 83.0975 177.1048  81.7096 177.4332  81.7096 177.4332  C 81.7096 177.4332  81.0303 177.7346  81.0303 177.7346  C 81.0303 177.7346  80.9952 178.6015  80.9952 178.6015  C 80.9952 178.6015  80.3686 179.0698  80.3686 179.0698  C 80.3686 179.0698  79.1915 177.783  79.1915 177.783  C 79.1915 177.783  78.2721 177.4869  78.2721 177.4869  C 78.2721 177.4869  78.5239 176.7171  78.5239 176.7171  C 78.5239 176.7171  76.9324 176.5395  76.9324 176.5395  C 76.9324 176.5395  77.1374 175.4091  77.1374 175.4091  C 77.1374 175.4091  75.2166 174.887  75.2166 174.887  C 75.2166 174.887  74.0278 171.9538  74.0278 171.9538  C 74.0278 171.9538  74.4495 171.0336  74.4495 171.0336  C 74.4495 171.0336  75.8198 169.4841  75.8198 169.4841  C 75.8198 169.4841  76.136 168.3973  76.136 168.3973  C 76.136 168.3973  74.9882 166.9286  74.9882 166.9286  C 74.9882 166.9286  74.4612 168.3596  74.4612 168.3596  C 74.4612 168.3596  72.798 166.5037  72.798 166.5037  C 72.798 166.5037  72.1304 166.2455  72.1304 166.2455  C 72.1304 166.2455  71.0295 166.9071  71.0295 166.9071  C 71.0295 166.9071  69.4015 166.8963  69.4015 166.8963  C 69.4015 166.8963  69.6533 169.0644  69.6533 169.0644  C 69.6533 169.0644  67.4866 169.0859  67.4866 169.0859  C 67.4866 169.0859  67.0766 168.4457  67.0766 168.4457  C 67.0766 168.4457  66.819 166.423  66.819 166.423  C 66.819 166.423  67.3343 166.4069  67.3343 166.4069  C 67.3343 166.4069  67.305 164.6642  67.305 164.6642  C 67.305 164.6642  65.9347 164.7071  65.9347 164.7071  C 65.9347 164.7071  65.1968 163.2013  65.1968 163.2013  C 65.1968 163.2013  64.0256 163.2013  64.0256 163.2013  C 64.0256 163.2013  63.5395 162.513  63.5395 162.513  C 63.5395 162.513  63.6625 160.6202  63.6625 160.6202  C 63.6625 160.6202  65.6653 159.3352  65.6653 159.3352  C 65.6653 159.3352  66.1513 157.9052  66.1513 157.9052  C 66.1513 157.9052  65.8644 156.2819  65.8644 156.2819  C 65.8644 156.2819  64.9274 155.6529  64.9274 155.6529  C 64.9274 155.6529  64.2072 156.169  64.2072 156.169  C 64.2072 156.169  63.5981 155.868  63.5981 155.868  C 63.5981 155.868  63.1179 156.5613  63.1179 156.5613  C 63.1179 156.5613  62.7314 156.1421  62.7314 156.1421  C 62.7314 156.1421  63.1179 154.7231  63.1179 154.7231  C 63.1179 154.7231  61.8764 155.5402  61.8764 155.5402  C 61.8764 155.5402  60.834 154.2019  60.834 154.2019  C 60.834 154.2019  61.3318 153.4979  61.3318 153.4979  C 61.3318 153.4979  61.5602 152.3049  61.5602 152.3049  C 61.5602 152.3049  60.7111 152.6488  60.7111 152.6488  C 60.7111 152.6488  60.5471 152.1169  60.5471 152.1169  C 60.5471 152.1169  61.6597 150.7198  61.6597 150.7198  C 61.6597 150.7198  62.9774 148.0069  62.9774 148.0069  C 62.9774 148.0069  61.976 147.3891  61.976 147.3891  C 61.976 147.3891  60.143 147.9693  60.143 147.9693  C 60.143 147.9693  59.5047 146.6586  59.5047 146.6586  C 59.5047 146.6586  60.0025 144.1238  60.0025 144.1238  C 60.0025 144.1238  59.733 143.8553  59.733 143.8553  C 59.733 143.8553  60.1313 142.5128  60.1313 142.5128  C 60.1313 142.5128  58.8781 142.5128  58.8781 142.5128  C 58.8781 142.5128  57.8064 141.6162  57.8064 141.6162  C 57.8064 141.6162  56.2722 141.8793  56.2722 141.8793  C 56.2722 141.8793  56.7289 140.9558  56.7289 140.9558  C 56.7289 140.9558  57.7889 139.9787  57.7889 139.9787  C 57.7889 139.9787  57.5546 137.9174  57.5546 137.9174  C 57.5546 137.9174  58.1168 137.3323  58.1168 137.3323  C 58.1168 137.3323  57.5546 136.5595  57.5546 136.5595  C 57.5546 136.5595  59.0831 134.0319  59.0831 134.0319  C 59.0831 134.0319  58.5736 133.447  58.5736 133.447  C 58.5736 133.447  59.1651 132.5402  59.1651 132.5402  C 59.1651 132.5402  59.1826 131.6764  59.1826 131.6764  C 59.1826 131.6764  58.4038 130.523  58.4038 130.523  C 58.4038 130.523  58.351 128.9941  58.351 128.9941  C 58.351 128.9941  57.8357 128.9136  57.8357 128.9136  C 57.8357 128.9136  56.846 127.9214  56.846 127.9214  C 56.846 127.9214  55.4874 128.7956  55.4874 128.7956  C 55.4874 128.7956  53.7715 128.5275  53.7715 128.5275  C 53.7715 128.5275  52.6648 127.6156  52.6648 127.6156  C 52.6648 127.6156  51.1481 127.1973  51.1481 127.1973  C 51.1481 127.1973  50.1408 126.114  50.1408 126.114  C 50.1408 126.114  49.52 126.3607  49.52 126.3607  C 49.52 126.3607  49.3092 125.0951  49.3092 125.0951  C 49.3092 125.0951  47.1249 125.7654  47.1249 125.7654  C 47.1249 125.7654  45.6316 125.1273  45.6316 125.1273  C 45.6316 125.1273  45.2627 122.6447  45.2627 122.6447  C 45.2627 122.6447  44.8937 122.0443  44.8937 122.0443  C 44.8937 122.0443  45.8131 121.0901  45.8131 121.0901  C 45.8131 121.0901  44.9815 118.3724  44.9815 118.3724  C 44.9815 118.3724  44.9757 117.5096  44.9757 117.5096  C 44.9757 117.5096  44.2378 116.2235  44.2378 116.2235  C 44.2378 116.2235  44.4604 114.5517  44.4604 114.5517  C 44.4604 114.5517  43.5995 114.0105  43.5995 114.0105  C 43.5995 114.0105  43.9157 113.0675  43.9157 113.0675  C 43.9157 113.0675  43.3828 111.1551  43.3828 111.1551  C 43.3828 111.1551  41.6319 110.4802  41.6319 110.4802  C 41.6319 110.4802  40.771 110.9944  40.771 110.9944  C 40.771 110.9944  40.9877 110.0678  40.9877 110.0678  C 40.9877 110.0678  40.3435 110.3623  40.3435 110.3623  C 40.3435 110.3623  39.0376 109.8374  39.0376 109.8374  C 39.0376 109.8374  38.9322 108.5414  38.9322 108.5414  C 38.9322 108.5414  39.4065 107.7541  39.4065 107.7541  C 39.4065 107.7541  39.0142 106.426  39.0142 106.426  C 39.0142 106.426  39.4183 106.0298  39.4183 106.0298  C 39.4183 106.0298  39.1606 105.1196  39.1606 105.1196  C 39.1606 105.1196  39.7404 104.4128  39.7404 104.4128  C 39.7404 104.4128  39.7813 103.3689  39.7813 103.3689  C 39.7813 103.3689  40.812 101.4525  40.812 101.4525  C 40.812 101.4525  41.2453 98.4982  41.2453 98.4982  C 41.2453 98.4982  40.5778 94.1535  40.5778 94.1535  C 40.5778 94.1535  40.1386 93.4688  40.1386 93.4688  C 40.1386 93.4688  38.575 93.7523  38.575 93.7523  C 38.575 93.7523  37.6205 91.5004  37.6205 91.5004  C 37.6205 91.5004  36.9001 91.1794  36.9001 91.1794  C 36.9001 91.1794  36.2911 88.5055  36.2911 88.5055  C 36.2911 88.5055  35.6001 88.329  35.6001 88.329  C 35.6001 88.329  34.7509 86.3345  34.7509 86.3345  C 34.7509 86.3345  32.3265 85.7678  32.3265 85.7678  C 32.3265 85.7678  30.6224 83.052  30.6224 83.052  C 30.6224 83.052  29.6679 83.2124  29.6679 83.2124  C 29.6679 83.2124  28.2741 82.1861  28.2741 82.1861  C 28.2741 82.1861  27.9461 83.3407  27.9461 83.3407  C 27.9461 83.3407  28.6313 86.6821  28.6313 86.6821  C 28.6313 86.6821  28.6372 88.4093  28.6372 88.4093  C 28.6372 88.4093  27.1614 89.1206  27.1614 89.1206  C 27.1614 89.1206  25.9317 88.7461  25.9317 88.7461  C 25.9317 88.7461  25.8263 89.1045  25.8263 89.1045  C 25.8263 89.1045  26.2128 93.1799  26.2128 93.1799  C 26.2128 93.1799  25.7208 94.3408  25.7208 94.3408  C 25.7208 94.3408  25.7794 96.3257  25.7794 96.3257  C 25.7794 96.3257  25.2582 97.9898  25.2582 97.9898  C 25.2582 97.9898  24.2041 97.7008  24.2041 97.7008  C 24.2041 97.7008  22.8748 97.8881  22.8748 97.8881  C 22.8748 97.8881  22.6289 100.0181  22.6289 100.0181  C 22.6289 100.0181  21.2409 101.9931  21.2409 101.9931  C 21.2409 101.9931  19.1737 102.6675  19.1737 102.6675  C 19.1737 102.6675  18.9278 103.6366  18.9278 103.6366  C 18.9278 103.6366  18.2309 103.8507  18.2309 103.8507  C 18.2309 103.8507  17.5282 103.417  17.5282 103.417  C 17.5282 103.417  17.2295 102.2661  17.2295 102.2661  C 17.2295 102.2661  16.07 101.6451  16.07 101.6451  C 16.07 101.6451  15.5605 100.0662  15.5605 100.0662  C 15.5605 100.0662  14.9866 99.4508  14.9866 99.4508  C 14.9866 99.4508  14.3015 99.4989  14.3015 99.4989  C 14.3015 99.4989  12.8316 96.6092  12.8316 96.6092  C 12.8316 96.6092  11.3793 96.224  11.3793 96.224  C 11.3793 96.224  10.6531 97.6152  10.6531 97.6152  C 10.6531 97.6152  10.2549 97.7276  10.2549 97.7276  C 10.2549 97.7276  10.044 99.9378  10.044 99.9378  C 10.044 99.9378  9.35300000000001 100.7085  9.35300000000001 100.7085  C 9.35300000000001 100.7085  9.71030000000002 102.6515  9.71030000000002 102.6515  C 9.71030000000002 102.6515  9.38819999999998 103.2725  9.38819999999998 103.2725  C 9.38819999999998 103.2725  8.09989999999999 103.5937  8.09989999999999 103.5937  C 8.09989999999999 103.5937  6.71780000000001 103.4117  6.71780000000001 103.4117  C 6.71780000000001 103.4117  6.01510000000002 103.7382  6.01510000000002 103.7382  C 6.01510000000002 103.7382  5.7516 102.5498  5.7516 102.5498  C 5.7516 102.5498  5.18939999999998 101.8861  5.18939999999998 101.8861  C 5.18939999999998 101.8861  4.51589999999999 100.0983  4.51589999999999 100.0983  C 4.51589999999999 100.0983  3.2568 98.8674  3.2568 98.8674  C 3.2568 98.8674  1.81040000000002 98.8567  1.81040000000002 98.8567  C 1.81040000000002 98.8567  1.66399999999999 97.8078  1.66399999999999 97.8078  C 1.66399999999999 97.8078  2.57749999999999 97.155  2.57749999999999 97.155  C 2.57749999999999 97.155  2.83519999999999 96.2615  2.83519999999999 96.2615  C 2.83519999999999 96.2615  3.82490000000001 95.9191  3.82490000000001 95.9191  C 3.82490000000001 95.9191  4.3578 96.7965  4.3578 96.7965  C 4.3578 96.7965  5.27719999999999 96.3952  5.27719999999999 96.3952  C 5.27719999999999 96.3952  5.45870000000002 94.2766  5.45870000000002 94.2766  C 5.45870000000002 94.2766  6.43090000000001 94.0893  6.43090000000001 94.0893  C 6.43090000000001 94.0893  7.40879999999999 92.8322  7.40879999999999 92.8322  C 7.40879999999999 92.8322  8.18770000000001 92.7199  8.18770000000001 92.7199  C 8.18770000000001 92.7199  8.73230000000001 90.8586  8.73230000000001 90.8586  C 8.73230000000001 90.8586  9.64589999999998 89.1045  9.64589999999998 89.1045  C 9.64589999999998 89.1045  10.0558 87.9012  10.0558 87.9012  C 10.0558 87.9012  10.7351 87.1741  10.7351 87.1741  C 10.7351 87.1741  10.9166 84.2762  10.9166 84.2762  C 10.9166 84.2762  10.6004 82.3464  10.6004 82.3464  C 10.6004 82.3464  9.52289999999999 81.7745  9.52289999999999 81.7745  C 9.52289999999999 81.7745  9.41160000000002 79.9841  9.41160000000002 79.9841  C 9.41160000000002 79.9841  7.96519999999998 76.7993  7.96519999999998 76.7993  C 7.96519999999998 76.7993  6.17320000000001 75.8911  6.17320000000001 75.8911  C 6.17320000000001 75.8911  5.92720000000003 74.9936  5.92720000000003 74.9936  C 5.92720000000003 74.9936  5.17180000000002 74.4594  5.17180000000002 74.4594  C 5.17180000000002 74.4594  5.20699999999999 72.7929  5.20699999999999 72.7929  C 5.20699999999999 72.7929  5.91550000000001 71.3615  5.91550000000001 71.3615  C 5.91550000000001 71.3615  6.93450000000001 70.5498  6.93450000000001 70.5498  C 6.93450000000001 70.5498  6.59480000000002 69.6152  6.59480000000002 69.6152  C 6.59480000000002 69.6152  6.75880000000001 67.3246  6.75880000000001 67.3246  C 6.75880000000001 67.3246  6.02679999999998 65.627  6.02679999999998 65.627  C 6.02679999999998 65.627  5.4178 65.6697  5.4178 65.6697  C 5.4178 65.6697  4.5335 64.5914  4.5335 64.5914  C 4.5335 64.5914  4.05329999999998 62.83  4.05329999999998 62.83  C 4.05329999999998 62.83  3.39150000000001 62.6006  3.39150000000001 62.6006  C 3.39150000000001 62.6006  2.26130000000001 61.3998  2.26130000000001 61.3998  C 2.26130000000001 61.3998  1.3888 61.0797  1.3888 61.0797  C 1.3888 61.0797  1.48829999999998 59.6869  1.48829999999998 59.6869  C 1.48829999999998 59.6869  0.650899999999979 57.6595  0.650899999999979 57.6595  C 0.650899999999979 57.6595  1.1721 56.3846  1.1721 56.3846  C 1.1721 56.3846  2.64190000000002 55.8458  2.64190000000002 55.8458  C 2.64190000000002 55.8458  2.18520000000001 53.9951  2.18520000000001 53.9951  C 2.18520000000001 53.9951  1.54689999999999 53.5737  1.54689999999999 53.5737  C 1.54689999999999 53.5737  1.92759999999998 52.8698  1.92759999999998 52.8698  C 1.92759999999998 52.8698  1.58199999999999 51.8299  1.58199999999999 51.8299  C 1.58199999999999 51.8299  2.58929999999998 50.8381  2.58929999999998 50.8381  C 2.58929999999998 50.8381  3.23930000000001 48.3057  3.23930000000001 48.3057  C 3.23930000000001 48.3057  4.10599999999999 47.6767  4.10599999999999 47.6767  C 4.10599999999999 47.6767  5.04880000000003 47.666  5.04880000000003 47.666  C 5.04880000000003 47.666  6.12639999999999 47.0903  6.12639999999999 47.0903  C 6.12639999999999 47.0903  7.25659999999999 47.2555  7.25659999999999 47.2555  C 7.25659999999999 47.2555  8.5215 45.8749  8.5215 45.8749  C 8.5215 45.8749  8.7792 43.2157  8.7792 43.2157  C 8.7792 43.2157  10.3369 41.4093  10.3369 41.4093  C 10.3369 41.4093  10.7176 40.3278  10.7176 40.3278  C 10.7176 40.3278  12.5973 39.7843  12.5973 39.7843  C 12.5973 39.7843  13.5636 38.5219  13.5636 38.5219  C 13.5636 38.5219  13.6222 37.5897  13.6222 37.5897  C 13.6222 37.5897  14.7992 37.0677  14.7992 37.0677  C 14.7992 37.0677  15.6718 36.0931  15.6718 36.0931  C 15.6718 36.0931  17.0011 35.7416  17.0011 35.7416  C 17.0011 35.7416  17.616 36.5138  17.616 36.5138  C 17.616 36.5138  18.5003 35.7735  18.5003 35.7735  C 18.5003 35.7735  19.2675 33.8884  19.2675 33.8884  C 19.2675 33.8884  18.8516 33.4304  18.8516 33.4304  C 18.8516 33.4304  19.0449 31.024  19.0449 31.024  C 19.0449 31.024  19.5778 27.2873  19.5778 27.2873  C 19.5778 27.2873  17.8444 26.787  17.8444 26.787  C 17.8444 26.787  17.0539 26.2229  17.0539 26.2229  C 17.0539 26.2229  15.3673 23.5997  15.3673 23.5997  C 15.3673 23.5997  15.5722 20.8705  15.5722 20.8705  C 15.5722 20.8705  16.4799 20.328  16.4799 20.328  C 16.4799 20.328  18.0903 17.1529  18.0903 17.1529  C 18.0903 17.1529  17.5692 16.2915  17.5692 16.2915  C 17.5692 16.2915  17.9264 15.2652  17.9264 15.2652  C 17.9264 15.2652  17.821 14.2018  17.821 14.2018  C 17.821 14.2018  18.6291 12.9259  18.6291 12.9259  C 18.6291 12.9259  18.8634 11.2409  18.8634 11.2409  C 18.8634 11.2409  19.7242 8.9609  19.7242 8.9609  C 19.7242 8.9609  19.5017 6.7079  19.5017 6.7079  C 19.5017 6.7079  20.2454 5.5283  20.2454 5.5283  C 20.2454 5.5283  20.1986 4.7367  20.1986 4.7367  C 20.1986 4.7367  20.954 2.357  20.954 2.357  C 20.954 2.357  20.5089 1.247  20.5089 1.247  C 20.5089 1.247  21.6099 0.970799999999997  21.6099 0.970799999999997  C 21.6099 0.970799999999997  25.0357 1.0557  25.0357 1.0557  C 25.0357 1.0557  25.7208 2.4208  25.7208 2.4208  C 25.7208 2.4208  25.7619 3.66370000000001  25.7619 3.66370000000001  C 25.7619 3.66370000000001  27.7412 3.1165  27.7412 3.1165  C 27.7412 3.1165  28.2331 3.74330000000001  28.2331 3.74330000000001  C 28.2331 3.74330000000001  29.3106 3.88679999999999  29.3106 3.88679999999999  C 29.3106 3.88679999999999  30.1597 2.1818  30.1597 2.1818  C 30.1597 2.1818  31.4013 2.19240000000001  31.4013 2.19240000000001  C 31.4013 2.19240000000001  33.0058 0.843299999999999  33.0058 0.843299999999999  C 33.0058 0.843299999999999  34.0716 0.370699999999999  34.0716 0.370699999999999  C 34.0716 0.370699999999999  34.7509 1.8099  34.7509 1.8099  C 34.7509 1.8099  36.2326 3.584  36.2326 3.584  C 36.2326 3.584  35.7934 4.3967  35.7934 4.3967  C 35.7934 4.3967  36.7186 5.57080000000001  36.7186 5.57080000000001  C 36.7186 5.57080000000001  37.7786 5.5018  37.7786 5.5018  C 37.7786 5.5018  38.7566 3.9824  38.7566 3.9824  C 38.7566 3.9824  39.102 2.0436  39.102 2.0436  C 39.102 2.0436  40.0449 0.992099999999994  40.0449 0.992099999999994  C 40.0449 0.992099999999994  40.9467 2.2242  40.9467 2.2242  C 40.9467 2.2242  40.7827 3.6159  40.7827 3.6159  C 40.7827 3.6159  41.2103 4.4074  41.2103 4.4074  C 41.2103 4.4074  42.6801 4.4765  42.6801 4.4765  C 42.6801 4.4765  43.7167 5.1831  43.7167 5.1831  C 43.7167 5.1831  44.6009 5.1671  44.6009 5.1671  C 44.6009 5.1671  44.9874 5.9693  44.9874 5.9693  C 44.9874 5.9693  47.2303 6.2243  47.2303 6.2243  C 47.2303 6.2243  49.1862 7.2179  49.1862 7.2179  C 49.1862 7.2179  51.7746 7.0372  51.7746 7.0372  C 51.7746 7.0372  53.0161 6.3306  53.0161 6.3306  C 53.0161 6.3306  53.9355 6.24030000000001  53.9355 6.24030000000001  C 53.9355 6.24030000000001  54.1932 5.5761  54.1932 5.5761  C 54.1932 5.5761  55.7099 6.2881  55.7099 6.2881  C 55.7099 6.2881  56.6118 6.37309999999999  56.6118 6.37309999999999  C 56.6118 6.37309999999999  57.2267 7.45699999999999  57.2267 7.45699999999999  C 57.2267 7.45699999999999  57.3028 8.29130000000001  57.3028 8.29130000000001  C 57.3028 8.29130000000001  58.1343 8.70050000000001  58.1343 8.70050000000001  C 58.1343 8.70050000000001  59.3173 10.1673  59.3173 10.1673  C 59.3173 10.1673  59.4754 10.7359  59.4754 10.7359  C 59.4754 10.7359  60.875 11.9159  60.875 11.9159  C 60.875 11.9159  61.1503 14.9834  61.1503 14.9834  C 61.1503 14.9834  60.8399 17.2485  60.8399 17.2485  C 60.8399 17.2485  61.6597 18.8759  61.6597 18.8759  C 61.6597 18.8759  62.8778 20.0461  62.8778 20.0461  C 62.8778 20.0461  63.1472 21.8014  63.1472 21.8014  C 63.1472 21.8014  62.9071 22.1951  62.9071 22.1951  C 62.9071 22.1951  63.2233 24.3339  63.2233 24.3339  C 63.2233 24.3339  65.2964 24.9991  65.2964 24.9991  C 65.2964 24.9991  66.1338 26.1591  66.1338 26.1591  C 66.1338 26.1591  65.964 27.7769  65.964 27.7769  C 65.964 27.7769  66.3094 28.8255  66.3094 28.8255  C 66.3094 28.8255  65.8527 30.3638  65.8527 30.3638  C 65.8527 30.3638  66.4325 30.8642  66.4325 30.8642  C 66.4325 30.8642  67.6623 31.0345  67.6623 31.0345  C 67.6623 31.0345  70.5376 30.3797  70.5376 30.3797  C 70.5376 30.3797  72.9386 30.4277  72.9386 30.4277  C 72.9386 30.4277  73.3837 29.2939  73.3837 29.2939  C 73.3837 29.2939  75.2986 27.8674  75.2986 27.8674  C 75.2986 27.8674  76.8387 28.1655  76.8387 28.1655  C 76.8387 28.1655  78.8226 28.0057  78.8226 28.0057  C 78.8226 28.0057  79.1563 28.4688  79.1563 28.4688  C 79.1563 28.4688  80.4916 27.6971  80.4916 27.6971  C 80.4916 27.6971  81.0713 28.1229  81.0713 28.1229  C 81.0713 28.1229  82.4182 27.9313  82.4182 27.9313  Z " stroke-width="2" stroke="#666666" fill="none" transform="matrix(1 0 0 1 349 133 )" mask="url(#clip43)" />
  </g>
</svg>