<?xml version="1.0" encoding="utf-8"?>
<svg version="1.1" xmlns:xlink="http://www.w3.org/1999/xlink" width="58px" height="51px" xmlns="http://www.w3.org/2000/svg">
  <defs>
    <mask fill="white" id="clip44">
      <path d="M 55.8902 34.3199  C 55.8902 34.3199  55.5329 34.7689  55.5329 34.7689  C 55.5329 34.7689  54.4965 35.2558  54.4965 35.2558  C 54.4965 35.2558  53.8522 37.0845  53.8522 37.0845  C 53.8522 37.0845  52.5346 37.5011  52.5346 37.5011  C 52.5346 37.5011  51.8378 38.5184  51.8378 38.5184  C 51.8378 38.5184  52.3824 39.0649  52.3824 39.0649  C 52.3824 39.0649  51.9314 39.5844  51.9314 39.5844  C 51.9314 39.5844  53.3837 39.6331  53.3837 39.6331  C 53.3837 39.6331  53.5419 40.618  53.5419 40.618  C 53.5419 40.618  54.4965 42.6099  54.4965 42.6099  C 54.4965 42.6099  53.9518 43.254  53.9518 43.254  C 53.9518 43.254  53.9166 44.7372  53.9166 44.7372  C 53.9166 44.7372  53.05 45.1919  53.05 45.1919  C 53.05 45.1919  53.2608 46.0257  53.2608 46.0257  C 53.2608 46.0257  52.9446 48.2619  52.9446 48.2619  C 52.9446 48.2619  52.3473 48.928  52.3473 48.928  C 52.3473 48.928  52.3473 49.659  52.3473 49.659  C 52.3473 49.659  51.1995 50.883  51.1995 50.883  C 51.1995 50.883  49.8994 49.3991  49.8994 49.3991  C 49.8994 49.3991  50.5436 49.7619  50.5436 49.7619  C 50.5436 49.7619  50.813 48.2024  50.813 48.2024  C 50.813 48.2024  49.6183 47.2386  49.6183 47.2386  C 49.6183 47.2386  49.1029 46.1123  49.1029 46.1123  C 49.1029 46.1123  49.0737 44.7913  49.0737 44.7913  C 49.0737 44.7913  47.3403 44.5802  47.3403 44.5802  C 47.3403 44.5802  47.0065 43.8657  47.0065 43.8657  C 47.0065 43.8657  46.21 43.8927  46.21 43.8927  C 46.21 43.8927  45.5425 41.4245  45.5425 41.4245  C 45.5425 41.4245  44.4649 41.0835  44.4649 41.0835  C 44.4649 41.0835  43.733 42.0686  43.733 42.0686  C 43.733 42.0686  42.9541 40.5369  42.9541 40.5369  C 42.9541 40.5369  41.7946 40.4827  41.7946 40.4827  C 41.7946 40.4827  41.8239 38.9837  41.8239 38.9837  C 41.8239 38.9837  41.0684 39.6818  41.0684 39.6818  C 41.0684 39.6818  40.7112 39.4329  40.7112 39.4329  C 40.7112 39.4329  39.3877 40.0985  39.3877 40.0985  C 39.3877 40.0985  38.2457 39.7684  38.2457 39.7684  C 38.2457 39.7684  37.6602 38.9729  37.6602 38.9729  C 37.6602 38.9729  37.3205 36.024  37.3205 36.024  C 37.3205 36.024  36.8403 35.6724  36.8403 35.6724  C 36.8403 35.6724  36.1083 36.2026  36.1083 36.2026  C 36.1083 36.2026  36.366 35.3803  36.366 35.3803  C 36.366 35.3803  35.9092 34.7744  35.9092 34.7744  C 35.9092 34.7744  34.5798 34.5093  34.5798 34.5093  C 34.5798 34.5093  34.5506 33.9034  34.5506 33.9034  C 34.5506 33.9034  33.2681 32.7134  33.2681 32.7134  C 33.2681 32.7134  31.2126 32.9893  31.2126 32.9893  C 31.2126 32.9893  30.7499 31.9562  30.7499 31.9562  C 30.7499 31.9562  29.9125 31.3396  29.9125 31.3396  C 29.9125 31.3396  30.34 30.3932  30.34 30.3932  C 30.34 30.3932  28.4089 30.0849  28.4089 30.0849  C 28.4089 30.0849  28.0985 30.8961  28.0985 30.8961  C 28.0985 30.8961  27.6711 30.4959  27.6711 30.4959  C 27.6711 30.4959  27.2846 32.2482  27.2846 32.2482  C 27.2846 32.2482  26.0957 32.7242  26.0957 32.7242  C 26.0957 32.7242  25.6565 32.2266  25.6565 32.2266  C 25.6565 32.2266  24.907 32.5836  24.907 32.5836  C 24.907 32.5836  24.3858 33.7844  24.3858 33.7844  C 24.3858 33.7844  24.6962 34.0495  24.6962 34.0495  C 24.6962 34.0495  24.579 35.9537  24.579 35.9537  C 24.579 35.9537  23.642 36.7653  23.642 36.7653  C 23.642 36.7653  22.7636 37.0196  22.7636 37.0196  C 22.7636 37.0196  22.5821 37.8312  22.5821 37.8312  C 22.5821 37.8312  21.9086 37.5877  21.9086 37.5877  C 21.9086 37.5877  21.8793 38.3777  21.8793 38.3777  C 21.8793 38.3777  21.1122 39.3409  21.1122 39.3409  C 21.1122 39.3409  21.0361 40.7912  21.0361 40.7912  C 21.0361 40.7912  18.8635 42.4745  18.8635 42.4745  C 18.8635 42.4745  18.0261 44.6668  18.0261 44.6668  C 18.0261 44.6668  17.6102 43.5788  17.6102 43.5788  C 17.6102 43.5788  16.6733 42.5287  16.6733 42.5287  C 16.6733 42.5287  15.9237 42.3338  15.9237 42.3338  C 15.9237 42.3338  13.9209 42.4204  13.9209 42.4204  C 13.9209 42.4204  12.4276 43.5734  12.4276 43.5734  C 12.4276 43.5734  10.132 39.9416  10.132 39.9416  C 10.132 39.9416  7.37959999999998 35.8131  7.37959999999998 35.8131  C 7.37959999999998 35.8131  5.23630000000003 32.854  5.23630000000003 32.854  C 5.23630000000003 32.854  4.2525 30.6311  4.2525 30.6311  C 4.2525 30.6311  4.55119999999999 27.046  4.55119999999999 27.046  C 4.55119999999999 27.046  3.72550000000001 24.1538  3.72550000000001 24.1538  C 3.72550000000001 24.1538  2.67140000000001 21.17  2.67140000000001 21.17  C 2.67140000000001 21.17  2.00369999999998 18.8084  2.00369999999998 18.8084  C 2.00369999999998 18.8084  1.04340000000002 16.4416  1.04340000000002 16.4416  C 1.04340000000002 16.4416  0.569000000000017 13.5136  0.569000000000017 13.5136  C 0.569000000000017 13.5136  0.56310000000002 10.8723  0.56310000000002 10.8723  C 0.56310000000002 10.8723  1.25420000000003 9.47899999999999  1.25420000000003 9.47899999999999  C 1.25420000000003 9.47899999999999  2.15600000000001 8.32339999999999  2.15600000000001 8.32339999999999  C 2.15600000000001 8.32339999999999  2.55419999999998 6.92500000000001  2.55419999999998 6.92500000000001  C 2.55419999999998 6.92500000000001  3.1164 6.39049999999998  3.1164 6.39049999999998  C 3.1164 6.39049999999998  5.41789999999997 5.72640000000001  5.41789999999997 5.72640000000001  C 5.41789999999997 5.72640000000001  6.5598 4.94900000000001  6.5598 4.94900000000001  C 6.5598 4.94900000000001  7.25080000000003 4.096  7.25080000000003 4.096  C 7.25080000000003 4.096  9.52879999999999 4.08519999999999  9.52879999999999 4.08519999999999  C 9.52879999999999 4.08519999999999  9.71629999999999 3.10829999999999  9.71629999999999 3.10829999999999  C 9.71629999999999 3.10829999999999  10.3721 2.5145  10.3721 2.5145  C 10.3721 2.5145  11.1334 2.64940000000001  11.1334 2.64940000000001  C 11.1334 2.64940000000001  11.192 3.3134  11.192 3.3134  C 11.192 3.3134  11.8538 2.80599999999998  11.8538 2.80599999999998  C 11.8538 2.80599999999998  13.1655 2.46589999999998  13.1655 2.46589999999998  C 13.1655 2.46589999999998  15.3908 0.517600000000016  15.3908 0.517600000000016  C 15.3908 0.517600000000016  17.0423 0.269400000000019  17.0423 0.269400000000019  C 17.0423 0.269400000000019  18.2251 1.4674  18.2251 1.4674  C 18.2251 1.4674  20.0113 1.3109  20.0113 1.3109  C 20.0113 1.3109  21.0712 1.6617  21.0712 1.6617  C 21.0712 1.6617  22.8574 1.65089999999998  22.8574 1.65089999999998  C 22.8574 1.65089999999998  24.8777 2.83300000000003  24.8777 2.83300000000003  C 24.8777 2.83300000000003  25.153 1.87220000000002  25.153 1.87220000000002  C 25.153 1.87220000000002  25.4164 2.75740000000002  25.4164 2.75740000000002  C 25.4164 2.75740000000002  26.5701 2.98950000000002  26.5701 2.98950000000002  C 26.5701 2.98950000000002  27.5891 2.00709999999998  27.5891 2.00709999999998  C 27.5891 2.00709999999998  29.9828 3.32960000000003  29.9828 3.32960000000003  C 29.9828 3.32960000000003  30.8027 2.9409  30.8027 2.9409  C 30.8027 2.9409  33.3091 3.71280000000002  33.3091 3.71280000000002  C 33.3091 3.71280000000002  35.1713 3.03269999999998  35.1713 3.03269999999998  C 35.1713 3.03269999999998  35.7687 3.12450000000001  35.7687 3.12450000000001  C 35.7687 3.12450000000001  36.9809 4.27960000000002  36.9809 4.27960000000002  C 36.9809 4.27960000000002  37.5079 5.22969999999998  37.5079 5.22969999999998  C 37.5079 5.22969999999998  38.8021 6.16910000000001  38.8021 6.16910000000001  C 38.8021 6.16910000000001  40.3013 6.07190000000003  40.3013 6.07190000000003  C 40.3013 6.07190000000003  41.8239 4.73840000000001  41.8239 4.73840000000001  C 41.8239 4.73840000000001  43.0536 4.33350000000002  43.0536 4.33350000000002  C 43.0536 4.33350000000002  44.8163 5.07310000000001  44.8163 5.07310000000001  C 44.8163 5.07310000000001  45.0154 6.79000000000002  45.0154 6.79000000000002  C 45.0154 6.79000000000002  45.8294 8.69600000000003  45.8294 8.69600000000003  C 45.8294 8.69600000000003  47.2641 9.77609999999999  47.2641 9.77609999999999  C 47.2641 9.77609999999999  49.5012 12.1524  49.5012 12.1524  C 49.5012 12.1524  49.5597 12.7249  49.5597 12.7249  C 49.5597 12.7249  48.6579 12.2766  48.6579 12.2766  C 48.6579 12.2766  47.5277 15.28  47.5277 15.28  C 47.5277 15.28  48.1191 15.2368  48.1191 15.2368  C 48.1191 15.2368  48.5759 16.0526  48.5759 16.0526  C 48.5759 16.0526  49.917 16.3876  49.917 16.3876  C 49.917 16.3876  50.1337 16.8793  50.1337 16.8793  C 50.1337 16.8793  51.6738 15.7717  51.6738 15.7717  C 51.6738 15.7717  51.949 15.1341  51.949 15.1341  C 51.949 15.1341  53.3311 16.0256  53.3311 16.0256  C 53.3311 16.0256  54.2563 15.9121  54.2563 15.9121  C 54.2563 15.9121  55.0118 16.6307  55.0118 16.6307  C 55.0118 16.6307  55.1231 18.3652  55.1231 18.3652  C 55.1231 18.3652  54.1685 19.3596  54.1685 19.3596  C 54.1685 19.3596  54.2973 21.9591  54.2973 21.9591  C 54.2973 21.9591  55.574 23.3591  55.574 23.3591  C 55.574 23.3591  56.7627 23.6618  56.7627 23.6618  C 56.7627 23.6618  57.0614 24.3322  57.0614 24.3322  C 57.0614 24.3322  57.8227 24.2403  57.8227 24.2403  C 57.8227 24.2403  57.9105 24.8944  57.9105 24.8944  C 57.9105 24.8944  57.2547 27.4515  57.2547 27.4515  C 57.2547 27.4515  56.7276 27.8408  56.7276 27.8408  C 56.7276 27.8408  56.1244 27.2947  56.1244 27.2947  C 56.1244 27.2947  55.6852 27.8624  55.6852 27.8624  C 55.6852 27.8624  55.9605 29.6307  55.9605 29.6307  C 55.9605 29.6307  55.8316 31.7344  55.8316 31.7344  C 55.8316 31.7344  56.0249 31.9832  56.0249 31.9832  C 56.0249 31.9832  55.8902 34.3199  55.8902 34.3199  Z " fill-rule="evenodd" />
    </mask>
  </defs>
  <g transform="matrix(1 0 0 1 -471 -342 )">
    <path d="M 55.8902 34.3199  C 55.8902 34.3199  55.5329 34.7689  55.5329 34.7689  C 55.5329 34.7689  54.4965 35.2558  54.4965 35.2558  C 54.4965 35.2558  53.8522 37.0845  53.8522 37.0845  C 53.8522 37.0845  52.5346 37.5011  52.5346 37.5011  C 52.5346 37.5011  51.8378 38.5184  51.8378 38.5184  C 51.8378 38.5184  52.3824 39.0649  52.3824 39.0649  C 52.3824 39.0649  51.9314 39.5844  51.9314 39.5844  C 51.9314 39.5844  53.3837 39.6331  53.3837 39.6331  C 53.3837 39.6331  53.5419 40.618  53.5419 40.618  C 53.5419 40.618  54.4965 42.6099  54.4965 42.6099  C 54.4965 42.6099  53.9518 43.254  53.9518 43.254  C 53.9518 43.254  53.9166 44.7372  53.9166 44.7372  C 53.9166 44.7372  53.05 45.1919  53.05 45.1919  C 53.05 45.1919  53.2608 46.0257  53.2608 46.0257  C 53.2608 46.0257  52.9446 48.2619  52.9446 48.2619  C 52.9446 48.2619  52.3473 48.928  52.3473 48.928  C 52.3473 48.928  52.3473 49.659  52.3473 49.659  C 52.3473 49.659  51.1995 50.883  51.1995 50.883  C 51.1995 50.883  49.8994 49.3991  49.8994 49.3991  C 49.8994 49.3991  50.5436 49.7619  50.5436 49.7619  C 50.5436 49.7619  50.813 48.2024  50.813 48.2024  C 50.813 48.2024  49.6183 47.2386  49.6183 47.2386  C 49.6183 47.2386  49.1029 46.1123  49.1029 46.1123  C 49.1029 46.1123  49.0737 44.7913  49.0737 44.7913  C 49.0737 44.7913  47.3403 44.5802  47.3403 44.5802  C 47.3403 44.5802  47.0065 43.8657  47.0065 43.8657  C 47.0065 43.8657  46.21 43.8927  46.21 43.8927  C 46.21 43.8927  45.5425 41.4245  45.5425 41.4245  C 45.5425 41.4245  44.4649 41.0835  44.4649 41.0835  C 44.4649 41.0835  43.733 42.0686  43.733 42.0686  C 43.733 42.0686  42.9541 40.5369  42.9541 40.5369  C 42.9541 40.5369  41.7946 40.4827  41.7946 40.4827  C 41.7946 40.4827  41.8239 38.9837  41.8239 38.9837  C 41.8239 38.9837  41.0684 39.6818  41.0684 39.6818  C 41.0684 39.6818  40.7112 39.4329  40.7112 39.4329  C 40.7112 39.4329  39.3877 40.0985  39.3877 40.0985  C 39.3877 40.0985  38.2457 39.7684  38.2457 39.7684  C 38.2457 39.7684  37.6602 38.9729  37.6602 38.9729  C 37.6602 38.9729  37.3205 36.024  37.3205 36.024  C 37.3205 36.024  36.8403 35.6724  36.8403 35.6724  C 36.8403 35.6724  36.1083 36.2026  36.1083 36.2026  C 36.1083 36.2026  36.366 35.3803  36.366 35.3803  C 36.366 35.3803  35.9092 34.7744  35.9092 34.7744  C 35.9092 34.7744  34.5798 34.5093  34.5798 34.5093  C 34.5798 34.5093  34.5506 33.9034  34.5506 33.9034  C 34.5506 33.9034  33.2681 32.7134  33.2681 32.7134  C 33.2681 32.7134  31.2126 32.9893  31.2126 32.9893  C 31.2126 32.9893  30.7499 31.9562  30.7499 31.9562  C 30.7499 31.9562  29.9125 31.3396  29.9125 31.3396  C 29.9125 31.3396  30.34 30.3932  30.34 30.3932  C 30.34 30.3932  28.4089 30.0849  28.4089 30.0849  C 28.4089 30.0849  28.0985 30.8961  28.0985 30.8961  C 28.0985 30.8961  27.6711 30.4959  27.6711 30.4959  C 27.6711 30.4959  27.2846 32.2482  27.2846 32.2482  C 27.2846 32.2482  26.0957 32.7242  26.0957 32.7242  C 26.0957 32.7242  25.6565 32.2266  25.6565 32.2266  C 25.6565 32.2266  24.907 32.5836  24.907 32.5836  C 24.907 32.5836  24.3858 33.7844  24.3858 33.7844  C 24.3858 33.7844  24.6962 34.0495  24.6962 34.0495  C 24.6962 34.0495  24.579 35.9537  24.579 35.9537  C 24.579 35.9537  23.642 36.7653  23.642 36.7653  C 23.642 36.7653  22.7636 37.0196  22.7636 37.0196  C 22.7636 37.0196  22.5821 37.8312  22.5821 37.8312  C 22.5821 37.8312  21.9086 37.5877  21.9086 37.5877  C 21.9086 37.5877  21.8793 38.3777  21.8793 38.3777  C 21.8793 38.3777  21.1122 39.3409  21.1122 39.3409  C 21.1122 39.3409  21.0361 40.7912  21.0361 40.7912  C 21.0361 40.7912  18.8635 42.4745  18.8635 42.4745  C 18.8635 42.4745  18.0261 44.6668  18.0261 44.6668  C 18.0261 44.6668  17.6102 43.5788  17.6102 43.5788  C 17.6102 43.5788  16.6733 42.5287  16.6733 42.5287  C 16.6733 42.5287  15.9237 42.3338  15.9237 42.3338  C 15.9237 42.3338  13.9209 42.4204  13.9209 42.4204  C 13.9209 42.4204  12.4276 43.5734  12.4276 43.5734  C 12.4276 43.5734  10.132 39.9416  10.132 39.9416  C 10.132 39.9416  7.37959999999998 35.8131  7.37959999999998 35.8131  C 7.37959999999998 35.8131  5.23630000000003 32.854  5.23630000000003 32.854  C 5.23630000000003 32.854  4.2525 30.6311  4.2525 30.6311  C 4.2525 30.6311  4.55119999999999 27.046  4.55119999999999 27.046  C 4.55119999999999 27.046  3.72550000000001 24.1538  3.72550000000001 24.1538  C 3.72550000000001 24.1538  2.67140000000001 21.17  2.67140000000001 21.17  C 2.67140000000001 21.17  2.00369999999998 18.8084  2.00369999999998 18.8084  C 2.00369999999998 18.8084  1.04340000000002 16.4416  1.04340000000002 16.4416  C 1.04340000000002 16.4416  0.569000000000017 13.5136  0.569000000000017 13.5136  C 0.569000000000017 13.5136  0.56310000000002 10.8723  0.56310000000002 10.8723  C 0.56310000000002 10.8723  1.25420000000003 9.47899999999999  1.25420000000003 9.47899999999999  C 1.25420000000003 9.47899999999999  2.15600000000001 8.32339999999999  2.15600000000001 8.32339999999999  C 2.15600000000001 8.32339999999999  2.55419999999998 6.92500000000001  2.55419999999998 6.92500000000001  C 2.55419999999998 6.92500000000001  3.1164 6.39049999999998  3.1164 6.39049999999998  C 3.1164 6.39049999999998  5.41789999999997 5.72640000000001  5.41789999999997 5.72640000000001  C 5.41789999999997 5.72640000000001  6.5598 4.94900000000001  6.5598 4.94900000000001  C 6.5598 4.94900000000001  7.25080000000003 4.096  7.25080000000003 4.096  C 7.25080000000003 4.096  9.52879999999999 4.08519999999999  9.52879999999999 4.08519999999999  C 9.52879999999999 4.08519999999999  9.71629999999999 3.10829999999999  9.71629999999999 3.10829999999999  C 9.71629999999999 3.10829999999999  10.3721 2.5145  10.3721 2.5145  C 10.3721 2.5145  11.1334 2.64940000000001  11.1334 2.64940000000001  C 11.1334 2.64940000000001  11.192 3.3134  11.192 3.3134  C 11.192 3.3134  11.8538 2.80599999999998  11.8538 2.80599999999998  C 11.8538 2.80599999999998  13.1655 2.46589999999998  13.1655 2.46589999999998  C 13.1655 2.46589999999998  15.3908 0.517600000000016  15.3908 0.517600000000016  C 15.3908 0.517600000000016  17.0423 0.269400000000019  17.0423 0.269400000000019  C 17.0423 0.269400000000019  18.2251 1.4674  18.2251 1.4674  C 18.2251 1.4674  20.0113 1.3109  20.0113 1.3109  C 20.0113 1.3109  21.0712 1.6617  21.0712 1.6617  C 21.0712 1.6617  22.8574 1.65089999999998  22.8574 1.65089999999998  C 22.8574 1.65089999999998  24.8777 2.83300000000003  24.8777 2.83300000000003  C 24.8777 2.83300000000003  25.153 1.87220000000002  25.153 1.87220000000002  C 25.153 1.87220000000002  25.4164 2.75740000000002  25.4164 2.75740000000002  C 25.4164 2.75740000000002  26.5701 2.98950000000002  26.5701 2.98950000000002  C 26.5701 2.98950000000002  27.5891 2.00709999999998  27.5891 2.00709999999998  C 27.5891 2.00709999999998  29.9828 3.32960000000003  29.9828 3.32960000000003  C 29.9828 3.32960000000003  30.8027 2.9409  30.8027 2.9409  C 30.8027 2.9409  33.3091 3.71280000000002  33.3091 3.71280000000002  C 33.3091 3.71280000000002  35.1713 3.03269999999998  35.1713 3.03269999999998  C 35.1713 3.03269999999998  35.7687 3.12450000000001  35.7687 3.12450000000001  C 35.7687 3.12450000000001  36.9809 4.27960000000002  36.9809 4.27960000000002  C 36.9809 4.27960000000002  37.5079 5.22969999999998  37.5079 5.22969999999998  C 37.5079 5.22969999999998  38.8021 6.16910000000001  38.8021 6.16910000000001  C 38.8021 6.16910000000001  40.3013 6.07190000000003  40.3013 6.07190000000003  C 40.3013 6.07190000000003  41.8239 4.73840000000001  41.8239 4.73840000000001  C 41.8239 4.73840000000001  43.0536 4.33350000000002  43.0536 4.33350000000002  C 43.0536 4.33350000000002  44.8163 5.07310000000001  44.8163 5.07310000000001  C 44.8163 5.07310000000001  45.0154 6.79000000000002  45.0154 6.79000000000002  C 45.0154 6.79000000000002  45.8294 8.69600000000003  45.8294 8.69600000000003  C 45.8294 8.69600000000003  47.2641 9.77609999999999  47.2641 9.77609999999999  C 47.2641 9.77609999999999  49.5012 12.1524  49.5012 12.1524  C 49.5012 12.1524  49.5597 12.7249  49.5597 12.7249  C 49.5597 12.7249  48.6579 12.2766  48.6579 12.2766  C 48.6579 12.2766  47.5277 15.28  47.5277 15.28  C 47.5277 15.28  48.1191 15.2368  48.1191 15.2368  C 48.1191 15.2368  48.5759 16.0526  48.5759 16.0526  C 48.5759 16.0526  49.917 16.3876  49.917 16.3876  C 49.917 16.3876  50.1337 16.8793  50.1337 16.8793  C 50.1337 16.8793  51.6738 15.7717  51.6738 15.7717  C 51.6738 15.7717  51.949 15.1341  51.949 15.1341  C 51.949 15.1341  53.3311 16.0256  53.3311 16.0256  C 53.3311 16.0256  54.2563 15.9121  54.2563 15.9121  C 54.2563 15.9121  55.0118 16.6307  55.0118 16.6307  C 55.0118 16.6307  55.1231 18.3652  55.1231 18.3652  C 55.1231 18.3652  54.1685 19.3596  54.1685 19.3596  C 54.1685 19.3596  54.2973 21.9591  54.2973 21.9591  C 54.2973 21.9591  55.574 23.3591  55.574 23.3591  C 55.574 23.3591  56.7627 23.6618  56.7627 23.6618  C 56.7627 23.6618  57.0614 24.3322  57.0614 24.3322  C 57.0614 24.3322  57.8227 24.2403  57.8227 24.2403  C 57.8227 24.2403  57.9105 24.8944  57.9105 24.8944  C 57.9105 24.8944  57.2547 27.4515  57.2547 27.4515  C 57.2547 27.4515  56.7276 27.8408  56.7276 27.8408  C 56.7276 27.8408  56.1244 27.2947  56.1244 27.2947  C 56.1244 27.2947  55.6852 27.8624  55.6852 27.8624  C 55.6852 27.8624  55.9605 29.6307  55.9605 29.6307  C 55.9605 29.6307  55.8316 31.7344  55.8316 31.7344  C 55.8316 31.7344  56.0249 31.9832  56.0249 31.9832  C 56.0249 31.9832  55.8902 34.3199  55.8902 34.3199  Z " fill-rule="nonzero" fill="#ffffff" stroke="none" transform="matrix(1 0 0 1 471 342 )" />
    <path d="M 55.8902 34.3199  C 55.8902 34.3199  55.5329 34.7689  55.5329 34.7689  C 55.5329 34.7689  54.4965 35.2558  54.4965 35.2558  C 54.4965 35.2558  53.8522 37.0845  53.8522 37.0845  C 53.8522 37.0845  52.5346 37.5011  52.5346 37.5011  C 52.5346 37.5011  51.8378 38.5184  51.8378 38.5184  C 51.8378 38.5184  52.3824 39.0649  52.3824 39.0649  C 52.3824 39.0649  51.9314 39.5844  51.9314 39.5844  C 51.9314 39.5844  53.3837 39.6331  53.3837 39.6331  C 53.3837 39.6331  53.5419 40.618  53.5419 40.618  C 53.5419 40.618  54.4965 42.6099  54.4965 42.6099  C 54.4965 42.6099  53.9518 43.254  53.9518 43.254  C 53.9518 43.254  53.9166 44.7372  53.9166 44.7372  C 53.9166 44.7372  53.05 45.1919  53.05 45.1919  C 53.05 45.1919  53.2608 46.0257  53.2608 46.0257  C 53.2608 46.0257  52.9446 48.2619  52.9446 48.2619  C 52.9446 48.2619  52.3473 48.928  52.3473 48.928  C 52.3473 48.928  52.3473 49.659  52.3473 49.659  C 52.3473 49.659  51.1995 50.883  51.1995 50.883  C 51.1995 50.883  49.8994 49.3991  49.8994 49.3991  C 49.8994 49.3991  50.5436 49.7619  50.5436 49.7619  C 50.5436 49.7619  50.813 48.2024  50.813 48.2024  C 50.813 48.2024  49.6183 47.2386  49.6183 47.2386  C 49.6183 47.2386  49.1029 46.1123  49.1029 46.1123  C 49.1029 46.1123  49.0737 44.7913  49.0737 44.7913  C 49.0737 44.7913  47.3403 44.5802  47.3403 44.5802  C 47.3403 44.5802  47.0065 43.8657  47.0065 43.8657  C 47.0065 43.8657  46.21 43.8927  46.21 43.8927  C 46.21 43.8927  45.5425 41.4245  45.5425 41.4245  C 45.5425 41.4245  44.4649 41.0835  44.4649 41.0835  C 44.4649 41.0835  43.733 42.0686  43.733 42.0686  C 43.733 42.0686  42.9541 40.5369  42.9541 40.5369  C 42.9541 40.5369  41.7946 40.4827  41.7946 40.4827  C 41.7946 40.4827  41.8239 38.9837  41.8239 38.9837  C 41.8239 38.9837  41.0684 39.6818  41.0684 39.6818  C 41.0684 39.6818  40.7112 39.4329  40.7112 39.4329  C 40.7112 39.4329  39.3877 40.0985  39.3877 40.0985  C 39.3877 40.0985  38.2457 39.7684  38.2457 39.7684  C 38.2457 39.7684  37.6602 38.9729  37.6602 38.9729  C 37.6602 38.9729  37.3205 36.024  37.3205 36.024  C 37.3205 36.024  36.8403 35.6724  36.8403 35.6724  C 36.8403 35.6724  36.1083 36.2026  36.1083 36.2026  C 36.1083 36.2026  36.366 35.3803  36.366 35.3803  C 36.366 35.3803  35.9092 34.7744  35.9092 34.7744  C 35.9092 34.7744  34.5798 34.5093  34.5798 34.5093  C 34.5798 34.5093  34.5506 33.9034  34.5506 33.9034  C 34.5506 33.9034  33.2681 32.7134  33.2681 32.7134  C 33.2681 32.7134  31.2126 32.9893  31.2126 32.9893  C 31.2126 32.9893  30.7499 31.9562  30.7499 31.9562  C 30.7499 31.9562  29.9125 31.3396  29.9125 31.3396  C 29.9125 31.3396  30.34 30.3932  30.34 30.3932  C 30.34 30.3932  28.4089 30.0849  28.4089 30.0849  C 28.4089 30.0849  28.0985 30.8961  28.0985 30.8961  C 28.0985 30.8961  27.6711 30.4959  27.6711 30.4959  C 27.6711 30.4959  27.2846 32.2482  27.2846 32.2482  C 27.2846 32.2482  26.0957 32.7242  26.0957 32.7242  C 26.0957 32.7242  25.6565 32.2266  25.6565 32.2266  C 25.6565 32.2266  24.907 32.5836  24.907 32.5836  C 24.907 32.5836  24.3858 33.7844  24.3858 33.7844  C 24.3858 33.7844  24.6962 34.0495  24.6962 34.0495  C 24.6962 34.0495  24.579 35.9537  24.579 35.9537  C 24.579 35.9537  23.642 36.7653  23.642 36.7653  C 23.642 36.7653  22.7636 37.0196  22.7636 37.0196  C 22.7636 37.0196  22.5821 37.8312  22.5821 37.8312  C 22.5821 37.8312  21.9086 37.5877  21.9086 37.5877  C 21.9086 37.5877  21.8793 38.3777  21.8793 38.3777  C 21.8793 38.3777  21.1122 39.3409  21.1122 39.3409  C 21.1122 39.3409  21.0361 40.7912  21.0361 40.7912  C 21.0361 40.7912  18.8635 42.4745  18.8635 42.4745  C 18.8635 42.4745  18.0261 44.6668  18.0261 44.6668  C 18.0261 44.6668  17.6102 43.5788  17.6102 43.5788  C 17.6102 43.5788  16.6733 42.5287  16.6733 42.5287  C 16.6733 42.5287  15.9237 42.3338  15.9237 42.3338  C 15.9237 42.3338  13.9209 42.4204  13.9209 42.4204  C 13.9209 42.4204  12.4276 43.5734  12.4276 43.5734  C 12.4276 43.5734  10.132 39.9416  10.132 39.9416  C 10.132 39.9416  7.37959999999998 35.8131  7.37959999999998 35.8131  C 7.37959999999998 35.8131  5.23630000000003 32.854  5.23630000000003 32.854  C 5.23630000000003 32.854  4.2525 30.6311  4.2525 30.6311  C 4.2525 30.6311  4.55119999999999 27.046  4.55119999999999 27.046  C 4.55119999999999 27.046  3.72550000000001 24.1538  3.72550000000001 24.1538  C 3.72550000000001 24.1538  2.67140000000001 21.17  2.67140000000001 21.17  C 2.67140000000001 21.17  2.00369999999998 18.8084  2.00369999999998 18.8084  C 2.00369999999998 18.8084  1.04340000000002 16.4416  1.04340000000002 16.4416  C 1.04340000000002 16.4416  0.569000000000017 13.5136  0.569000000000017 13.5136  C 0.569000000000017 13.5136  0.56310000000002 10.8723  0.56310000000002 10.8723  C 0.56310000000002 10.8723  1.25420000000003 9.47899999999999  1.25420000000003 9.47899999999999  C 1.25420000000003 9.47899999999999  2.15600000000001 8.32339999999999  2.15600000000001 8.32339999999999  C 2.15600000000001 8.32339999999999  2.55419999999998 6.92500000000001  2.55419999999998 6.92500000000001  C 2.55419999999998 6.92500000000001  3.1164 6.39049999999998  3.1164 6.39049999999998  C 3.1164 6.39049999999998  5.41789999999997 5.72640000000001  5.41789999999997 5.72640000000001  C 5.41789999999997 5.72640000000001  6.5598 4.94900000000001  6.5598 4.94900000000001  C 6.5598 4.94900000000001  7.25080000000003 4.096  7.25080000000003 4.096  C 7.25080000000003 4.096  9.52879999999999 4.08519999999999  9.52879999999999 4.08519999999999  C 9.52879999999999 4.08519999999999  9.71629999999999 3.10829999999999  9.71629999999999 3.10829999999999  C 9.71629999999999 3.10829999999999  10.3721 2.5145  10.3721 2.5145  C 10.3721 2.5145  11.1334 2.64940000000001  11.1334 2.64940000000001  C 11.1334 2.64940000000001  11.192 3.3134  11.192 3.3134  C 11.192 3.3134  11.8538 2.80599999999998  11.8538 2.80599999999998  C 11.8538 2.80599999999998  13.1655 2.46589999999998  13.1655 2.46589999999998  C 13.1655 2.46589999999998  15.3908 0.517600000000016  15.3908 0.517600000000016  C 15.3908 0.517600000000016  17.0423 0.269400000000019  17.0423 0.269400000000019  C 17.0423 0.269400000000019  18.2251 1.4674  18.2251 1.4674  C 18.2251 1.4674  20.0113 1.3109  20.0113 1.3109  C 20.0113 1.3109  21.0712 1.6617  21.0712 1.6617  C 21.0712 1.6617  22.8574 1.65089999999998  22.8574 1.65089999999998  C 22.8574 1.65089999999998  24.8777 2.83300000000003  24.8777 2.83300000000003  C 24.8777 2.83300000000003  25.153 1.87220000000002  25.153 1.87220000000002  C 25.153 1.87220000000002  25.4164 2.75740000000002  25.4164 2.75740000000002  C 25.4164 2.75740000000002  26.5701 2.98950000000002  26.5701 2.98950000000002  C 26.5701 2.98950000000002  27.5891 2.00709999999998  27.5891 2.00709999999998  C 27.5891 2.00709999999998  29.9828 3.32960000000003  29.9828 3.32960000000003  C 29.9828 3.32960000000003  30.8027 2.9409  30.8027 2.9409  C 30.8027 2.9409  33.3091 3.71280000000002  33.3091 3.71280000000002  C 33.3091 3.71280000000002  35.1713 3.03269999999998  35.1713 3.03269999999998  C 35.1713 3.03269999999998  35.7687 3.12450000000001  35.7687 3.12450000000001  C 35.7687 3.12450000000001  36.9809 4.27960000000002  36.9809 4.27960000000002  C 36.9809 4.27960000000002  37.5079 5.22969999999998  37.5079 5.22969999999998  C 37.5079 5.22969999999998  38.8021 6.16910000000001  38.8021 6.16910000000001  C 38.8021 6.16910000000001  40.3013 6.07190000000003  40.3013 6.07190000000003  C 40.3013 6.07190000000003  41.8239 4.73840000000001  41.8239 4.73840000000001  C 41.8239 4.73840000000001  43.0536 4.33350000000002  43.0536 4.33350000000002  C 43.0536 4.33350000000002  44.8163 5.07310000000001  44.8163 5.07310000000001  C 44.8163 5.07310000000001  45.0154 6.79000000000002  45.0154 6.79000000000002  C 45.0154 6.79000000000002  45.8294 8.69600000000003  45.8294 8.69600000000003  C 45.8294 8.69600000000003  47.2641 9.77609999999999  47.2641 9.77609999999999  C 47.2641 9.77609999999999  49.5012 12.1524  49.5012 12.1524  C 49.5012 12.1524  49.5597 12.7249  49.5597 12.7249  C 49.5597 12.7249  48.6579 12.2766  48.6579 12.2766  C 48.6579 12.2766  47.5277 15.28  47.5277 15.28  C 47.5277 15.28  48.1191 15.2368  48.1191 15.2368  C 48.1191 15.2368  48.5759 16.0526  48.5759 16.0526  C 48.5759 16.0526  49.917 16.3876  49.917 16.3876  C 49.917 16.3876  50.1337 16.8793  50.1337 16.8793  C 50.1337 16.8793  51.6738 15.7717  51.6738 15.7717  C 51.6738 15.7717  51.949 15.1341  51.949 15.1341  C 51.949 15.1341  53.3311 16.0256  53.3311 16.0256  C 53.3311 16.0256  54.2563 15.9121  54.2563 15.9121  C 54.2563 15.9121  55.0118 16.6307  55.0118 16.6307  C 55.0118 16.6307  55.1231 18.3652  55.1231 18.3652  C 55.1231 18.3652  54.1685 19.3596  54.1685 19.3596  C 54.1685 19.3596  54.2973 21.9591  54.2973 21.9591  C 54.2973 21.9591  55.574 23.3591  55.574 23.3591  C 55.574 23.3591  56.7627 23.6618  56.7627 23.6618  C 56.7627 23.6618  57.0614 24.3322  57.0614 24.3322  C 57.0614 24.3322  57.8227 24.2403  57.8227 24.2403  C 57.8227 24.2403  57.9105 24.8944  57.9105 24.8944  C 57.9105 24.8944  57.2547 27.4515  57.2547 27.4515  C 57.2547 27.4515  56.7276 27.8408  56.7276 27.8408  C 56.7276 27.8408  56.1244 27.2947  56.1244 27.2947  C 56.1244 27.2947  55.6852 27.8624  55.6852 27.8624  C 55.6852 27.8624  55.9605 29.6307  55.9605 29.6307  C 55.9605 29.6307  55.8316 31.7344  55.8316 31.7344  C 55.8316 31.7344  56.0249 31.9832  56.0249 31.9832  C 56.0249 31.9832  55.8902 34.3199  55.8902 34.3199  Z " stroke-width="2" stroke="#666666" fill="none" transform="matrix(1 0 0 1 471 342 )" mask="url(#clip44)" />
  </g>
</svg>