<?xml version="1.0" encoding="utf-8"?>
<svg version="1.1" xmlns:xlink="http://www.w3.org/1999/xlink" width="43px" height="61px" xmlns="http://www.w3.org/2000/svg">
  <defs>
    <mask fill="white" id="clip45">
      <path d="M 33.4458 38.6071  C 33.4458 38.6071  33.0651 38.5854  33.0651 38.5854  C 33.0651 38.5854  30.6524 38.1351  30.6524 38.1351  C 30.6524 38.1351  28.9073 38.9109  28.9073 38.9109  C 28.9073 38.9109  28.4915 38.4335  28.4915 38.4335  C 28.4915 38.4335  27.4959 39.0302  27.4959 39.0302  C 27.4959 39.0302  27.4491 40.2674  27.4491 40.2674  C 27.4491 40.2674  26.8166 40.7991  26.8166 40.7991  C 26.8166 40.7991  27.1505 42.1503  27.1505 42.1503  C 27.1505 42.1503  26.9865 43.2792  26.9865 43.2792  C 26.9865 43.2792  27.2969 44.4786  27.2969 44.4786  C 27.2969 44.4786  27.0743 45.8356  27.0743 45.8356  C 27.0743 45.8356  27.4139 45.9442  27.4139 45.9442  C 27.4139 45.9442  28.1284 47.5131  28.1284 47.5131  C 28.1284 47.5131  27.3027 48.1537  27.3027 48.1537  C 27.3027 48.1537  26.5121 48.0723  26.5121 48.0723  C 26.5121 48.0723  25.5576 48.9302  25.5576 48.9302  C 25.5576 48.9302  26.3189 49.5925  26.3189 49.5925  C 26.3189 49.5925  27.537 51.7972  27.537 51.7972  C 27.537 51.7972  28.1753 53.3504  28.1753 53.3504  C 28.1753 53.3504  28.9132 53.9043  28.9132 53.9043  C 28.9132 53.9043  28.7901 55.083  28.7901 55.083  C 28.7901 55.083  26.1959 56.2726  26.1959 56.2726  C 26.1959 56.2726  26.7698 57.4134  26.7698 57.4134  C 26.7698 57.4134  24.9603 58.2556  24.9603 58.2556  C 24.9603 58.2556  24.6323 58.7717  24.6323 58.7717  C 24.6323 58.7717  22.5066 60.0431  22.5066 60.0431  C 22.5066 60.0431  20.3763 59.8801  20.3763 59.8801  C 20.3763 59.8801  18.4789 56.93  18.4789 56.93  C 18.4789 56.93  18.0456 57.0821  18.0456 57.0821  C 18.0456 57.0821  15.5334 55.1699  15.5334 55.1699  C 15.5334 55.1699  14.977 54.2086  14.977 54.2086  C 14.977 54.2086  14.327 52.0144  14.327 52.0144  C 14.327 52.0144  13.1558 48.7455  13.1558 48.7455  C 13.1558 48.7455  13.0855 46.9756  13.0855 46.9756  C 13.0855 46.9756  12.0782 45.2494  12.0782 45.2494  C 12.0782 45.2494  9.5308 41.3526  9.5308 41.3526  C 9.5308 41.3526  8.67579999999998 40.6092  8.67579999999998 40.6092  C 8.67579999999998 40.6092  8.19569999999999 38.6993  8.19569999999999 38.6993  C 8.19569999999999 38.6993  8.20150000000001 35.9488  8.20150000000001 35.9488  C 8.20150000000001 35.9488  7.34070000000003 33.9635  7.34070000000003 33.9635  C 7.34070000000003 33.9635  6.95420000000001 32.0383  6.95420000000001 32.0383  C 6.95420000000001 32.0383  5.8064 28.9018  5.8064 28.9018  C 5.8064 28.9018  5.06270000000001 27.2753  5.06270000000001 27.2753  C 5.06270000000001 27.2753  2.90170000000001 24.543  2.90170000000001 24.543  C 2.90170000000001 24.543  3.0247 23.2314  3.0247 23.2314  C 3.0247 23.2314  2.74950000000001 21.0418  2.74950000000001 21.0418  C 2.74950000000001 21.0418  2.08190000000002 19.4378  2.08190000000002 19.4378  C 2.08190000000002 19.4378  0.606100000000026 16.9727  0.606100000000026 16.9727  C 0.606100000000026 16.9727  0.61790000000002 15.1579  0.61790000000002 15.1579  C 0.61790000000002 15.1579  1.07459999999998 13.1862  1.07459999999998 13.1862  C 1.07459999999998 13.1862  1.64269999999999 13.1862  1.64269999999999 13.1862  C 1.64269999999999 13.1862  0.893100000000004 11.7565  0.893100000000004 11.7565  C 0.893100000000004 11.7565  0.939999999999998 10.9117  0.939999999999998 10.9117  C 0.939999999999998 10.9117  1.74810000000002 10.2024  1.74810000000002 10.2024  C 1.74810000000002 10.2024  3.07740000000001 10.8955  3.07740000000001 10.8955  C 3.07740000000001 10.8955  3.96749999999997 10.6843  3.96749999999997 10.6843  C 3.96749999999997 10.6843  3.8329 10.0129  3.8329 10.0129  C 3.8329 10.0129  4.21350000000001 8.50749999999999  4.21350000000001 8.50749999999999  C 4.21350000000001 8.50749999999999  5.58969999999999 6.9862  5.58969999999999 6.9862  C 5.58969999999999 6.9862  6.66140000000001 4.07940000000002  6.66140000000001 4.07940000000002  C 6.66140000000001 4.07940000000002  7.17669999999998 3.61399999999998  7.17669999999998 3.61399999999998  C 7.17669999999998 3.61399999999998  8.01999999999998 4.07400000000001  8.01999999999998 4.07400000000001  C 8.01999999999998 4.07400000000001  8.54109999999997 5.14569999999998  8.54109999999997 5.14569999999998  C 8.54109999999997 5.14569999999998  9.27910000000003 5.53550000000001  9.27910000000003 5.53550000000001  C 9.27910000000003 5.53550000000001  10.3741 4.27429999999998  10.3741 4.27429999999998  C 10.3741 4.27429999999998  11.6391 4.53949999999998  11.6391 4.53949999999998  C 11.6391 4.53949999999998  13.7531 4.03070000000002  13.7531 4.03070000000002  C 13.7531 4.03070000000002  13.7707 3.24040000000002  13.7707 3.24040000000002  C 13.7707 3.24040000000002  14.7721 2.2987  14.7721 2.2987  C 14.7721 2.2987  16.0194 1.6223  16.0194 1.6223  C 16.0194 1.6223  16.5054 0.837600000000009  16.5054 0.837600000000009  C 16.5054 0.837600000000009  20.1011 3.86829999999998  20.1011 3.86829999999998  C 20.1011 3.86829999999998  22.1669 4.36090000000002  22.1669 4.36090000000002  C 22.1669 4.36090000000002  23.8241 4.58280000000002  23.8241 4.58280000000002  C 23.8241 4.58280000000002  25.3643 5.32979999999998  25.3643 5.32979999999998  C 25.3643 5.32979999999998  25.1242 6.09840000000003  25.1242 6.09840000000003  C 25.1242 6.09840000000003  27.1914 8.25310000000002  27.1914 8.25310000000002  C 27.1914 8.25310000000002  29.5983 10.3432  29.5983 10.3432  C 29.5983 10.3432  30.9218 11.6753  30.9218 11.6753  C 30.9218 11.6753  30.342 12.6772  30.342 12.6772  C 30.342 12.6772  30.6289 13.5817  30.6289 13.5817  C 30.6289 13.5817  32.5205 17.6553  32.5205 17.6553  C 32.5205 17.6553  33.8147 17.9533  33.8147 17.9533  C 33.8147 17.9533  34.6872 18.9123  34.6872 18.9123  C 34.6872 18.9123  35.4252 18.9935  35.4252 18.9935  C 35.4252 18.9935  37.0414 20.5054  37.0414 20.5054  C 37.0414 20.5054  38.4586 23.6921  38.4586 23.6921  C 38.4586 23.6921  39.3956 27.0095  39.3956 27.0095  C 39.3956 27.0095  42.4875 27.0692  42.4875 27.0692  C 42.4875 27.0692  40.6839 31.6044  40.6839 31.6044  C 40.6839 31.6044  37.8613 32.0599  37.8613 32.0599  C 37.8613 32.0599  36.2274 35.1406  36.2274 35.1406  C 36.2274 35.1406  33.4458 38.6071  33.4458 38.6071  Z " fill-rule="evenodd" />
    </mask>
  </defs>
  <g transform="matrix(1 0 0 1 -443 -379 )">
    <path d="M 33.4458 38.6071  C 33.4458 38.6071  33.0651 38.5854  33.0651 38.5854  C 33.0651 38.5854  30.6524 38.1351  30.6524 38.1351  C 30.6524 38.1351  28.9073 38.9109  28.9073 38.9109  C 28.9073 38.9109  28.4915 38.4335  28.4915 38.4335  C 28.4915 38.4335  27.4959 39.0302  27.4959 39.0302  C 27.4959 39.0302  27.4491 40.2674  27.4491 40.2674  C 27.4491 40.2674  26.8166 40.7991  26.8166 40.7991  C 26.8166 40.7991  27.1505 42.1503  27.1505 42.1503  C 27.1505 42.1503  26.9865 43.2792  26.9865 43.2792  C 26.9865 43.2792  27.2969 44.4786  27.2969 44.4786  C 27.2969 44.4786  27.0743 45.8356  27.0743 45.8356  C 27.0743 45.8356  27.4139 45.9442  27.4139 45.9442  C 27.4139 45.9442  28.1284 47.5131  28.1284 47.5131  C 28.1284 47.5131  27.3027 48.1537  27.3027 48.1537  C 27.3027 48.1537  26.5121 48.0723  26.5121 48.0723  C 26.5121 48.0723  25.5576 48.9302  25.5576 48.9302  C 25.5576 48.9302  26.3189 49.5925  26.3189 49.5925  C 26.3189 49.5925  27.537 51.7972  27.537 51.7972  C 27.537 51.7972  28.1753 53.3504  28.1753 53.3504  C 28.1753 53.3504  28.9132 53.9043  28.9132 53.9043  C 28.9132 53.9043  28.7901 55.083  28.7901 55.083  C 28.7901 55.083  26.1959 56.2726  26.1959 56.2726  C 26.1959 56.2726  26.7698 57.4134  26.7698 57.4134  C 26.7698 57.4134  24.9603 58.2556  24.9603 58.2556  C 24.9603 58.2556  24.6323 58.7717  24.6323 58.7717  C 24.6323 58.7717  22.5066 60.0431  22.5066 60.0431  C 22.5066 60.0431  20.3763 59.8801  20.3763 59.8801  C 20.3763 59.8801  18.4789 56.93  18.4789 56.93  C 18.4789 56.93  18.0456 57.0821  18.0456 57.0821  C 18.0456 57.0821  15.5334 55.1699  15.5334 55.1699  C 15.5334 55.1699  14.977 54.2086  14.977 54.2086  C 14.977 54.2086  14.327 52.0144  14.327 52.0144  C 14.327 52.0144  13.1558 48.7455  13.1558 48.7455  C 13.1558 48.7455  13.0855 46.9756  13.0855 46.9756  C 13.0855 46.9756  12.0782 45.2494  12.0782 45.2494  C 12.0782 45.2494  9.5308 41.3526  9.5308 41.3526  C 9.5308 41.3526  8.67579999999998 40.6092  8.67579999999998 40.6092  C 8.67579999999998 40.6092  8.19569999999999 38.6993  8.19569999999999 38.6993  C 8.19569999999999 38.6993  8.20150000000001 35.9488  8.20150000000001 35.9488  C 8.20150000000001 35.9488  7.34070000000003 33.9635  7.34070000000003 33.9635  C 7.34070000000003 33.9635  6.95420000000001 32.0383  6.95420000000001 32.0383  C 6.95420000000001 32.0383  5.8064 28.9018  5.8064 28.9018  C 5.8064 28.9018  5.06270000000001 27.2753  5.06270000000001 27.2753  C 5.06270000000001 27.2753  2.90170000000001 24.543  2.90170000000001 24.543  C 2.90170000000001 24.543  3.0247 23.2314  3.0247 23.2314  C 3.0247 23.2314  2.74950000000001 21.0418  2.74950000000001 21.0418  C 2.74950000000001 21.0418  2.08190000000002 19.4378  2.08190000000002 19.4378  C 2.08190000000002 19.4378  0.606100000000026 16.9727  0.606100000000026 16.9727  C 0.606100000000026 16.9727  0.61790000000002 15.1579  0.61790000000002 15.1579  C 0.61790000000002 15.1579  1.07459999999998 13.1862  1.07459999999998 13.1862  C 1.07459999999998 13.1862  1.64269999999999 13.1862  1.64269999999999 13.1862  C 1.64269999999999 13.1862  0.893100000000004 11.7565  0.893100000000004 11.7565  C 0.893100000000004 11.7565  0.939999999999998 10.9117  0.939999999999998 10.9117  C 0.939999999999998 10.9117  1.74810000000002 10.2024  1.74810000000002 10.2024  C 1.74810000000002 10.2024  3.07740000000001 10.8955  3.07740000000001 10.8955  C 3.07740000000001 10.8955  3.96749999999997 10.6843  3.96749999999997 10.6843  C 3.96749999999997 10.6843  3.8329 10.0129  3.8329 10.0129  C 3.8329 10.0129  4.21350000000001 8.50749999999999  4.21350000000001 8.50749999999999  C 4.21350000000001 8.50749999999999  5.58969999999999 6.9862  5.58969999999999 6.9862  C 5.58969999999999 6.9862  6.66140000000001 4.07940000000002  6.66140000000001 4.07940000000002  C 6.66140000000001 4.07940000000002  7.17669999999998 3.61399999999998  7.17669999999998 3.61399999999998  C 7.17669999999998 3.61399999999998  8.01999999999998 4.07400000000001  8.01999999999998 4.07400000000001  C 8.01999999999998 4.07400000000001  8.54109999999997 5.14569999999998  8.54109999999997 5.14569999999998  C 8.54109999999997 5.14569999999998  9.27910000000003 5.53550000000001  9.27910000000003 5.53550000000001  C 9.27910000000003 5.53550000000001  10.3741 4.27429999999998  10.3741 4.27429999999998  C 10.3741 4.27429999999998  11.6391 4.53949999999998  11.6391 4.53949999999998  C 11.6391 4.53949999999998  13.7531 4.03070000000002  13.7531 4.03070000000002  C 13.7531 4.03070000000002  13.7707 3.24040000000002  13.7707 3.24040000000002  C 13.7707 3.24040000000002  14.7721 2.2987  14.7721 2.2987  C 14.7721 2.2987  16.0194 1.6223  16.0194 1.6223  C 16.0194 1.6223  16.5054 0.837600000000009  16.5054 0.837600000000009  C 16.5054 0.837600000000009  20.1011 3.86829999999998  20.1011 3.86829999999998  C 20.1011 3.86829999999998  22.1669 4.36090000000002  22.1669 4.36090000000002  C 22.1669 4.36090000000002  23.8241 4.58280000000002  23.8241 4.58280000000002  C 23.8241 4.58280000000002  25.3643 5.32979999999998  25.3643 5.32979999999998  C 25.3643 5.32979999999998  25.1242 6.09840000000003  25.1242 6.09840000000003  C 25.1242 6.09840000000003  27.1914 8.25310000000002  27.1914 8.25310000000002  C 27.1914 8.25310000000002  29.5983 10.3432  29.5983 10.3432  C 29.5983 10.3432  30.9218 11.6753  30.9218 11.6753  C 30.9218 11.6753  30.342 12.6772  30.342 12.6772  C 30.342 12.6772  30.6289 13.5817  30.6289 13.5817  C 30.6289 13.5817  32.5205 17.6553  32.5205 17.6553  C 32.5205 17.6553  33.8147 17.9533  33.8147 17.9533  C 33.8147 17.9533  34.6872 18.9123  34.6872 18.9123  C 34.6872 18.9123  35.4252 18.9935  35.4252 18.9935  C 35.4252 18.9935  37.0414 20.5054  37.0414 20.5054  C 37.0414 20.5054  38.4586 23.6921  38.4586 23.6921  C 38.4586 23.6921  39.3956 27.0095  39.3956 27.0095  C 39.3956 27.0095  42.4875 27.0692  42.4875 27.0692  C 42.4875 27.0692  40.6839 31.6044  40.6839 31.6044  C 40.6839 31.6044  37.8613 32.0599  37.8613 32.0599  C 37.8613 32.0599  36.2274 35.1406  36.2274 35.1406  C 36.2274 35.1406  33.4458 38.6071  33.4458 38.6071  Z " fill-rule="nonzero" fill="#ffffff" stroke="none" transform="matrix(1 0 0 1 443 379 )" />
    <path d="M 33.4458 38.6071  C 33.4458 38.6071  33.0651 38.5854  33.0651 38.5854  C 33.0651 38.5854  30.6524 38.1351  30.6524 38.1351  C 30.6524 38.1351  28.9073 38.9109  28.9073 38.9109  C 28.9073 38.9109  28.4915 38.4335  28.4915 38.4335  C 28.4915 38.4335  27.4959 39.0302  27.4959 39.0302  C 27.4959 39.0302  27.4491 40.2674  27.4491 40.2674  C 27.4491 40.2674  26.8166 40.7991  26.8166 40.7991  C 26.8166 40.7991  27.1505 42.1503  27.1505 42.1503  C 27.1505 42.1503  26.9865 43.2792  26.9865 43.2792  C 26.9865 43.2792  27.2969 44.4786  27.2969 44.4786  C 27.2969 44.4786  27.0743 45.8356  27.0743 45.8356  C 27.0743 45.8356  27.4139 45.9442  27.4139 45.9442  C 27.4139 45.9442  28.1284 47.5131  28.1284 47.5131  C 28.1284 47.5131  27.3027 48.1537  27.3027 48.1537  C 27.3027 48.1537  26.5121 48.0723  26.5121 48.0723  C 26.5121 48.0723  25.5576 48.9302  25.5576 48.9302  C 25.5576 48.9302  26.3189 49.5925  26.3189 49.5925  C 26.3189 49.5925  27.537 51.7972  27.537 51.7972  C 27.537 51.7972  28.1753 53.3504  28.1753 53.3504  C 28.1753 53.3504  28.9132 53.9043  28.9132 53.9043  C 28.9132 53.9043  28.7901 55.083  28.7901 55.083  C 28.7901 55.083  26.1959 56.2726  26.1959 56.2726  C 26.1959 56.2726  26.7698 57.4134  26.7698 57.4134  C 26.7698 57.4134  24.9603 58.2556  24.9603 58.2556  C 24.9603 58.2556  24.6323 58.7717  24.6323 58.7717  C 24.6323 58.7717  22.5066 60.0431  22.5066 60.0431  C 22.5066 60.0431  20.3763 59.8801  20.3763 59.8801  C 20.3763 59.8801  18.4789 56.93  18.4789 56.93  C 18.4789 56.93  18.0456 57.0821  18.0456 57.0821  C 18.0456 57.0821  15.5334 55.1699  15.5334 55.1699  C 15.5334 55.1699  14.977 54.2086  14.977 54.2086  C 14.977 54.2086  14.327 52.0144  14.327 52.0144  C 14.327 52.0144  13.1558 48.7455  13.1558 48.7455  C 13.1558 48.7455  13.0855 46.9756  13.0855 46.9756  C 13.0855 46.9756  12.0782 45.2494  12.0782 45.2494  C 12.0782 45.2494  9.5308 41.3526  9.5308 41.3526  C 9.5308 41.3526  8.67579999999998 40.6092  8.67579999999998 40.6092  C 8.67579999999998 40.6092  8.19569999999999 38.6993  8.19569999999999 38.6993  C 8.19569999999999 38.6993  8.20150000000001 35.9488  8.20150000000001 35.9488  C 8.20150000000001 35.9488  7.34070000000003 33.9635  7.34070000000003 33.9635  C 7.34070000000003 33.9635  6.95420000000001 32.0383  6.95420000000001 32.0383  C 6.95420000000001 32.0383  5.8064 28.9018  5.8064 28.9018  C 5.8064 28.9018  5.06270000000001 27.2753  5.06270000000001 27.2753  C 5.06270000000001 27.2753  2.90170000000001 24.543  2.90170000000001 24.543  C 2.90170000000001 24.543  3.0247 23.2314  3.0247 23.2314  C 3.0247 23.2314  2.74950000000001 21.0418  2.74950000000001 21.0418  C 2.74950000000001 21.0418  2.08190000000002 19.4378  2.08190000000002 19.4378  C 2.08190000000002 19.4378  0.606100000000026 16.9727  0.606100000000026 16.9727  C 0.606100000000026 16.9727  0.61790000000002 15.1579  0.61790000000002 15.1579  C 0.61790000000002 15.1579  1.07459999999998 13.1862  1.07459999999998 13.1862  C 1.07459999999998 13.1862  1.64269999999999 13.1862  1.64269999999999 13.1862  C 1.64269999999999 13.1862  0.893100000000004 11.7565  0.893100000000004 11.7565  C 0.893100000000004 11.7565  0.939999999999998 10.9117  0.939999999999998 10.9117  C 0.939999999999998 10.9117  1.74810000000002 10.2024  1.74810000000002 10.2024  C 1.74810000000002 10.2024  3.07740000000001 10.8955  3.07740000000001 10.8955  C 3.07740000000001 10.8955  3.96749999999997 10.6843  3.96749999999997 10.6843  C 3.96749999999997 10.6843  3.8329 10.0129  3.8329 10.0129  C 3.8329 10.0129  4.21350000000001 8.50749999999999  4.21350000000001 8.50749999999999  C 4.21350000000001 8.50749999999999  5.58969999999999 6.9862  5.58969999999999 6.9862  C 5.58969999999999 6.9862  6.66140000000001 4.07940000000002  6.66140000000001 4.07940000000002  C 6.66140000000001 4.07940000000002  7.17669999999998 3.61399999999998  7.17669999999998 3.61399999999998  C 7.17669999999998 3.61399999999998  8.01999999999998 4.07400000000001  8.01999999999998 4.07400000000001  C 8.01999999999998 4.07400000000001  8.54109999999997 5.14569999999998  8.54109999999997 5.14569999999998  C 8.54109999999997 5.14569999999998  9.27910000000003 5.53550000000001  9.27910000000003 5.53550000000001  C 9.27910000000003 5.53550000000001  10.3741 4.27429999999998  10.3741 4.27429999999998  C 10.3741 4.27429999999998  11.6391 4.53949999999998  11.6391 4.53949999999998  C 11.6391 4.53949999999998  13.7531 4.03070000000002  13.7531 4.03070000000002  C 13.7531 4.03070000000002  13.7707 3.24040000000002  13.7707 3.24040000000002  C 13.7707 3.24040000000002  14.7721 2.2987  14.7721 2.2987  C 14.7721 2.2987  16.0194 1.6223  16.0194 1.6223  C 16.0194 1.6223  16.5054 0.837600000000009  16.5054 0.837600000000009  C 16.5054 0.837600000000009  20.1011 3.86829999999998  20.1011 3.86829999999998  C 20.1011 3.86829999999998  22.1669 4.36090000000002  22.1669 4.36090000000002  C 22.1669 4.36090000000002  23.8241 4.58280000000002  23.8241 4.58280000000002  C 23.8241 4.58280000000002  25.3643 5.32979999999998  25.3643 5.32979999999998  C 25.3643 5.32979999999998  25.1242 6.09840000000003  25.1242 6.09840000000003  C 25.1242 6.09840000000003  27.1914 8.25310000000002  27.1914 8.25310000000002  C 27.1914 8.25310000000002  29.5983 10.3432  29.5983 10.3432  C 29.5983 10.3432  30.9218 11.6753  30.9218 11.6753  C 30.9218 11.6753  30.342 12.6772  30.342 12.6772  C 30.342 12.6772  30.6289 13.5817  30.6289 13.5817  C 30.6289 13.5817  32.5205 17.6553  32.5205 17.6553  C 32.5205 17.6553  33.8147 17.9533  33.8147 17.9533  C 33.8147 17.9533  34.6872 18.9123  34.6872 18.9123  C 34.6872 18.9123  35.4252 18.9935  35.4252 18.9935  C 35.4252 18.9935  37.0414 20.5054  37.0414 20.5054  C 37.0414 20.5054  38.4586 23.6921  38.4586 23.6921  C 38.4586 23.6921  39.3956 27.0095  39.3956 27.0095  C 39.3956 27.0095  42.4875 27.0692  42.4875 27.0692  C 42.4875 27.0692  40.6839 31.6044  40.6839 31.6044  C 40.6839 31.6044  37.8613 32.0599  37.8613 32.0599  C 37.8613 32.0599  36.2274 35.1406  36.2274 35.1406  C 36.2274 35.1406  33.4458 38.6071  33.4458 38.6071  Z " stroke-width="2" stroke="#666666" fill="none" transform="matrix(1 0 0 1 443 379 )" mask="url(#clip45)" />
  </g>
</svg>