<?xml version="1.0" encoding="utf-8"?>
<svg version="1.1" xmlns:xlink="http://www.w3.org/1999/xlink" width="64px" height="84px" xmlns="http://www.w3.org/2000/svg">
  <defs>
    <mask fill="white" id="clip46">
      <path d="M 43.9488 72.8668  C 43.9488 72.8668  42.9181 72.501  42.9181 72.501  C 42.9181 72.501  43.0176 69.4505  43.0176 69.4505  C 43.0176 69.4505  42.3149 67.3795  42.3149 67.3795  C 42.3149 67.3795  42.4613000000001 65.3142  42.4613000000001 65.3142  C 42.4613000000001 65.3142  41.6591 64.3194  41.6591 64.3194  C 41.6591 64.3194  41.6649 63.5558  41.6649 63.5558  C 41.6649 63.5558  40.9503999999999 63.217  40.9503999999999 63.217  C 40.9503999999999 63.217  39.6913 63.8999  39.6913 63.8999  C 39.6913 63.8999  38.7719 63.1471  38.7719 63.1471  C 38.7719 63.1471  38.7954 62.2169  38.7954 62.2169  C 38.7954 62.2169  36.8922 60.9912  36.8922 60.9912  C 36.8922 60.9912  36.3416999999999 60.8729  36.3416999999999 60.8729  C 36.3416999999999 60.8729  35.6038 61.9105  35.6038 61.9105  C 35.6038 61.9105  35.6975 62.7439  35.6975 62.7439  C 35.6975 62.7439  36.4118999999999 63.2815  36.4118999999999 63.2815  C 36.4118999999999 63.2815  36.0782 64.3355  36.0782 64.3355  C 36.0782 64.3355  35.1236 64.2656  35.1236 64.2656  C 35.1236 64.2656  34.3858 64.8463  34.3858 64.8463  C 34.3858 64.8463  33.6537 64.4699  33.6537 64.4699  C 33.6537 64.4699  33.3433 65.6047  33.3433 65.6047  C 33.3433 65.6047  33.5542 66.605  33.5542 66.605  C 33.5542 66.605  32.8456 67.6216  32.8456 67.6216  C 32.8456 67.6216  30.8794 67.1536  30.8794 67.1536  C 30.8794 67.1536  30.0244 68.1917  30.0244 68.1917  C 30.0244 68.1917  29.5968 68.0195  29.5968 68.0195  C 29.5968 68.0195  28.941 66.3199  28.941 66.3199  C 28.941 66.3199  28.3085 65.3734  28.3085 65.3734  C 28.3085 65.3734  26.3291 65.7498  26.3291 65.7498  C 26.3291 65.7498  26.4755 67.0944  26.4755 67.0944  C 26.4755 67.0944  25.562 68.1433  25.562 68.1433  C 25.562 68.1433  26.7625 69.2944  26.7625 69.2944  C 26.7625 69.2944  26.8152 70.3757  26.8152 70.3757  C 26.8152 70.3757  25.808 71.3926  25.808 71.3926  C 25.808 71.3926  25.7025 73.9376  25.7025 73.9376  C 25.7025 73.9376  26.3467000000001 76.4295  26.3467000000001 76.4295  C 26.3467000000001 76.4295  26.7039 78.6741  26.7039 78.6741  C 26.7039 78.6741  26.3115 79.88  26.3115 79.88  C 26.3115 79.88  25.5152000000001 80.1922  25.5152000000001 80.1922  C 25.5152000000001 80.1922  25.2165 81.129  25.2165 81.129  C 25.2165 81.129  25.5327 82.0228  25.5327 82.0228  C 25.5327 82.0228  24.3088 82.9114  24.3088 82.9114  C 24.3088 82.9114  23.9515 81.9797  23.9515 81.9797  C 23.9515 81.9797  22.9268 82.9975  22.9268 82.9975  C 22.9268 82.9975  21.8493 82.7498  21.8493 82.7498  C 21.8493 82.7498  21.533 83.2344  21.533 83.2344  C 21.533 83.2344  19.9928 82.9221  19.9928 82.9221  C 19.9928 82.9221  20.2564 80.7629  20.2564 80.7629  C 20.2564 80.7629  19.2021999999999 79.1478  19.2021999999999 79.1478  C 19.2021999999999 79.1478  18.3297 79.3147  18.3297 79.3147  C 18.3297 79.3147  16.6666 78.2166  16.6666 78.2166  C 16.6666 78.2166  16.2215 78.3887  16.2215 78.3887  C 16.2215 78.3887  14.6286 77.5167  14.6286 77.5167  C 14.6286 77.5167  14.2363 76.1765  14.2363 76.1765  C 14.2363 76.1765  13.3871 75.1539  13.3871 75.1539  C 13.3871 75.1539  13.475 72.8184  13.475 72.8184  C 13.475 72.8184  14.1777 72.2265  14.1777 72.2265  C 14.1777 72.2265  14.1484 71.4894  14.1484 71.4894  C 14.1484 71.4894  15.4485 70.7738  15.4485 70.7738  C 15.4485 70.7738  15.0151 69.913  15.0151 69.913  C 15.0151 69.913  15.1733 68.6757  15.1733 68.6757  C 15.1733 68.6757  13.9903 67.6269  13.9903 67.6269  C 13.9903 67.6269  13.2818 68.2186  13.2818 68.2186  C 13.2818 68.2186  12.5966 67.4225  12.5966 67.4225  C 12.5966 67.4225  12.6317 66.5458  12.6317 66.5458  C 12.6317 66.5458  12.0578 66.5405  12.0578 66.5405  C 12.0578 66.5405  12.134 65.2013  12.134 65.2013  C 12.134 65.2013  12.6258 64.9001  12.6258 64.9001  C 12.6258 64.9001  12.6142 63.7763  12.6142 63.7763  C 12.6142 63.7763  12.0461 62.8353  12.0461 62.8353  C 12.0461 62.8353  12.1281 62.0448  12.1281 62.0448  C 12.1281 62.0448  11.1326 59.8407  11.1326 59.8407  C 11.1326 59.8407  8.89549999999997 59.5396  8.89549999999997 59.5396  C 8.89549999999997 59.5396  8.10500000000002 59.8407  8.10500000000002 59.8407  C 8.10500000000002 59.8407  7.78290000000004 58.4484  7.78290000000004 58.4484  C 7.78290000000004 58.4484  6.11389999999994 57.6153  6.11389999999994 57.6153  C 6.11389999999994 57.6153  5.82690000000002 58.4269  5.82690000000002 58.4269  C 5.82690000000002 58.4269  5.03639999999996 57.4112  5.03639999999996 57.4112  C 5.03639999999996 57.4112  4.81970000000001 56.304  4.81970000000001 56.304  C 4.81970000000001 56.304  2.72320000000002 55.9224  2.72320000000002 55.9224  C 2.72320000000002 55.9224  1.30020000000002 53.8536  1.30020000000002 53.8536  C 1.30020000000002 53.8536  0.708700000000022 54.1062  0.708700000000022 54.1062  C 0.708700000000022 54.1062  0.240199999999959 53.5741  0.240199999999959 53.5741  C 0.240199999999959 53.5741  9.99999999748979E-05 51.9838  9.99999999748979E-05 51.9838  C 9.99999999748979E-05 51.9838  0.369100000000003 51.2478  0.369100000000003 51.2478  C 0.369100000000003 51.2478  0.948800000000006 51.5433  0.948800000000006 51.5433  C 0.948800000000006 51.5433  2.55920000000003 49.0078  2.55920000000003 49.0078  C 2.55920000000003 49.0078  2.6354 48.2935  2.6354 48.2935  C 2.6354 48.2935  3.70119999999997 47.418  3.70119999999997 47.418  C 3.70119999999997 47.418  5.17690000000005 47.1656  5.17690000000005 47.1656  C 5.17690000000005 47.1656  5.41700000000003 47.853  5.41700000000003 47.853  C 5.41700000000003 47.853  6.37149999999997 48.315  6.37149999999997 48.315  C 6.37149999999997 48.315  7.37289999999996 49.7222  7.37289999999996 49.7222  C 7.37289999999996 49.7222  8.91899999999998 50.0983  8.91899999999998 50.0983  C 8.91899999999998 50.0983  9.75639999999999 50.0016  9.75639999999999 50.0016  C 9.75639999999999 50.0016  10.4122 48.8628  10.4122 48.8628  C 10.4122 48.8628  10.5059 45.8123  10.5059 45.8123  C 10.5059 45.8123  11.3316 44.8887  11.3316 44.8887  C 11.3316 44.8887  10.8398 44.2658  10.8398 44.2658  C 10.8398 44.2658  11.074 43.5464  11.074 43.5464  C 11.074 43.5464  10.8046000000001 42.333  10.8046000000001 42.333  C 10.8046000000001 42.333  11.4547 42.7732  11.4547 42.7732  C 11.4547 42.7732  12.0285 40.8606  12.0285 40.8606  C 12.0285 40.8606  11.3199 39.4756  11.3199 39.4756  C 11.3199 39.4756  9.97299999999996 38.2035  9.97299999999996 38.2035  C 9.97299999999996 38.2035  9.82079999999996 37.1087  9.82079999999996 37.1087  C 9.82079999999996 37.1087  11.1502 37.3662  11.1502 37.3662  C 11.1502 37.3662  11.7533 35.7939  11.7533 35.7939  C 11.7533 35.7939  12.7547 35.8367  12.7547 35.8367  C 12.7547 35.8367  12.825 35.3377  12.825 35.3377  C 12.825 35.3377  14.5349 34.0714  14.5349 34.0714  C 14.5349 34.0714  14.4822 33.2343  14.4822 33.2343  C 14.4822 33.2343  15.7882 33.0412  15.7882 33.0412  C 15.7882 33.0412  16.9653 33.8782  16.9653 33.8782  C 16.9653 33.8782  18.0544 32.8749  18.0544 32.8749  C 18.0544 32.8749  18.0135 30.9704  18.0135 30.9704  C 18.0135 30.9704  18.3297 29.7421  18.3297 29.7421  C 18.3297 29.7421  18.0135 28.8463  18.0135 28.8463  C 18.0135 28.8463  19.4892 29.1573  19.4892 29.1573  C 19.4892 29.1573  19.659 28.8785  19.659 28.8785  C 19.659 28.8785  18.3356 27.7415  18.3356 27.7415  C 18.3356 27.7415  18.5171 26.996  18.5171 26.996  C 18.5171 26.996  19.8816 26.4652  19.8816 26.4652  C 19.8816 26.4652  20.5433 26.9585  20.5433 26.9585  C 20.5433 26.9585  20.8361 24.8457  20.8361 24.8457  C 20.8361 24.8457  21.2812 24.3525  21.2812 24.3525  C 21.2812 24.3525  22.1069 24.9476  22.1069 24.9476  C 22.1069 24.9476  24.1682 24.8457  24.1682 24.8457  C 24.1682 24.8457  24.4142000000001 25.7144  24.4142000000001 25.7144  C 24.4142000000001 25.7144  24.9881 24.6099  24.9881 24.6099  C 24.9881 24.6099  24.6016 23.2373  24.6016 23.2373  C 24.6016 23.2373  25.1169 23.5214  25.1169 23.5214  C 25.1169 23.5214  26.0069999999999 21.8327  26.0069999999999 21.8327  C 26.0069999999999 21.8327  25.9953 20.3748  25.9953 20.3748  C 25.9953 20.3748  25.3453 18.6811  25.3453 18.6811  C 25.3453 18.6811  26.294 17.4218  26.294 17.4218  C 26.294 17.4218  27.9806 18.322  27.9806 18.322  C 27.9806 18.322  28.7009 17.4699  28.7009 17.4699  C 28.7009 17.4699  29.7257 15.4177  29.7257 15.4177  C 29.7257 15.4177  30.4929 16.1786  30.4929 16.1786  C 30.4929 16.1786  30.8501 14.2068  30.8501 14.2068  C 30.8501 14.2068  30.4109 12.8301  30.4109 12.8301  C 30.4109 12.8301  30.405 11.1481  30.405 11.1481  C 30.405 11.1481  31.4648999999999 8.77549999999999  31.4648999999999 8.77549999999999  C 31.4648999999999 8.77549999999999  33.1911 7.77950000000001  33.1911 7.77950000000001  C 33.1911 7.77950000000001  33.7357 7.78479999999999  33.7357 7.78479999999999  C 33.7357 7.78479999999999  34.7078 6.5479  34.7078 6.5479  C 34.7078 6.5479  36.4061 7.29220000000001  36.4061 7.29220000000001  C 36.4061 7.29220000000001  36.7282 6.11959999999999  36.7282 6.11959999999999  C 36.7282 6.11959999999999  37.63 5.17189999999999  37.63 5.17189999999999  C 37.63 5.17189999999999  38.5202 5.7234  38.5202 5.7234  C 38.5202 5.7234  39.0999 7.10480000000001  39.0999 7.10480000000001  C 39.0999 7.10480000000001  39.9783 6.68709999999999  39.9783 6.68709999999999  C 39.9783 6.68709999999999  40.3824 5.27889999999999  40.3824 5.27889999999999  C 40.3824 5.27889999999999  40.4175 4.053  40.4175 4.053  C 40.4175 4.053  41.6415 3.7371  41.6415 3.7371  C 41.6415 3.7371  41.9636 3.1215  41.9636 3.1215  C 41.9636 3.1215  41.3545 1.49440000000001  41.3545 1.49440000000001  C 41.3545 1.49440000000001  42.9239 0.065400000000011  42.9239 0.065400000000011  C 42.9239 0.065400000000011  44.1654 1.14109999999999  44.1654 1.14109999999999  C 44.1654 1.14109999999999  44.9209 1.75129999999999  44.9209 1.75129999999999  C 44.9209 1.75129999999999  45.9047 1.6763  45.9047 1.6763  C 45.9047 1.6763  47.0642 3.60339999999999  47.0642 3.60339999999999  C 47.0642 3.60339999999999  47.4507 3.42670000000001  47.4507 3.42670000000001  C 47.4507 3.42670000000001  48.5809 4.4385  48.5809 4.4385  C 48.5809 4.4385  49.1548 5.54669999999999  49.1548 5.54669999999999  C 49.1548 5.54669999999999  48.5223999999999 6.6336  48.5223999999999 6.6336  C 48.5223999999999 6.6336  47.6381 7.27080000000001  47.6381 7.27080000000001  C 47.6381 7.27080000000001  47.1871 8.14359999999999  47.1871 8.14359999999999  C 47.1871 8.14359999999999  46.5664 8.15960000000001  46.5664 8.15960000000001  C 46.5664 8.15960000000001  45.2137 10.0394  45.2137 10.0394  C 45.2137 10.0394  44.2825 10.8535  44.2825 10.8535  C 44.2825 10.8535  43.6501 13.7407  43.6501 13.7407  C 43.6501 13.7407  43.8668 14.4747  43.8668 14.4747  C 43.8668 14.4747  43.8902000000001 17.1163  43.8902000000001 17.1163  C 43.8902000000001 17.1163  44.4406 18.2255  44.4406 18.2255  C 44.4406 18.2255  45.6236 18.2095  45.6236 18.2095  C 45.6236 18.2095  45.442 19.6244  45.442 19.6244  C 45.442 19.6244  44.6573 20.4177  44.6573 20.4177  C 44.6573 20.4177  45.8286000000001 21.7201  45.8286000000001 21.7201  C 45.8286000000001 21.7201  45.7759 23.1783  45.7759 23.1783  C 45.7759 23.1783  46.2092 23.5697  46.2092 23.5697  C 46.2092 23.5697  46.9588 23.0282  46.9588 23.0282  C 46.9588 23.0282  47.8314 24.1219  47.8314 24.1219  C 47.8314 24.1219  47.3746 24.7385  47.3746 24.7385  C 47.3746 24.7385  47.2047 26.4115  47.2047 26.4115  C 47.2047 26.4115  47.9309 27.9291  47.9309 27.9291  C 47.9309 27.9291  47.7435 29.7904  47.7435 29.7904  C 47.7435 29.7904  47.2165 31.2171  47.2165 31.2171  C 47.2165 31.2171  45.7993 31.8931  45.7993 31.8931  C 45.7993 31.8931  46.1448 32.4939  46.1448 32.4939  C 46.1448 32.4939  46.1096 33.905  46.1096 33.905  C 46.1096 33.905  47.193 34.5006  47.193 34.5006  C 47.193 34.5006  47.6732 35.5577  47.6732 35.5577  C 47.6732 35.5577  47.3863 36.7974  47.3863 36.7974  C 47.3863 36.7974  46.2033 37.216  46.2033 37.216  C 46.2033 37.216  46.3556 37.9084  46.3556 37.9084  C 46.3556 37.9084  47.8489 38.4988  47.8489 38.4988  C 47.8489 38.4988  48.4872 37.7634  48.4872 37.7634  C 48.4872 37.7634  50.1796000000001 38.531  50.1796000000001 38.531  C 50.1796000000001 38.531  50.9702 40.211  50.9702 40.211  C 50.9702 40.211  51.304 43.133  51.304 43.133  C 51.304 43.133  50.6657 43.9169  50.6657 43.9169  C 50.6657 43.9169  50.7886999999999 45.0874  50.7886999999999 45.0874  C 50.7886999999999 45.0874  51.6846 46.0432  51.6846 46.0432  C 51.6846 46.0432  52.2644 47.3589  52.2644 47.3589  C 52.2644 47.3589  52.5104 48.852  52.5104 48.852  C 52.5104 48.852  52.9086 49.373  52.9086 49.373  C 52.9086 49.373  53.1604 51.6078  53.1604 51.6078  C 53.1604 51.6078  53.0725 53.1444  53.0725 53.1444  C 53.0725 53.1444  53.3244 55.514  53.3244 55.514  C 53.3244 55.514  54.3492 56.4921  54.3492 56.4921  C 54.3492 56.4921  54.9172 56.2717  54.9172 56.2717  C 54.9172 56.2717  55.9771 58.4753  55.9771 58.4753  C 55.9771 58.4753  58.0795000000001 58.8892  58.0795000000001 58.8892  C 58.0795000000001 58.8892  58.7998 60.846  58.7998 60.846  C 58.7998 60.846  59.4147 60.2976  59.4147 60.2976  C 59.4147 60.2976  60.5273999999999 60.0558  60.5273999999999 60.0558  C 60.5273999999999 60.0558  61.4351 61.4535  61.4351 61.4535  C 61.4351 61.4535  62.5302 62.0072  62.5302 62.0072  C 62.5302 62.0072  63.4671 61.846  63.4671 61.846  C 63.4671 61.846  63.9708000000001 62.5234  63.9708000000001 62.5234  C 63.9708000000001 62.5234  64 69.4451  64 69.4451  C 64 69.4451  57.8921 71.4087  57.8921 71.4087  C 57.8921 71.4087  56.8673 71.8983  56.8673 71.8983  C 56.8673 71.8983  55.7957 71.9629  55.7957 71.9629  C 55.7957 71.9629  54.5717 71.4195  54.5717 71.4195  C 54.5717 71.4195  52.6802 71.6832  52.6802 71.6832  C 52.6802 71.6832  51.6846 72.5386  51.6846 72.5386  C 51.6846 72.5386  50.6423 75.1808  50.6423 75.1808  C 50.6423 75.1808  50.0391 75.4553  50.0391 75.4553  C 50.0391 75.4553  46.461 75.0139  46.461 75.0139  C 46.461 75.0139  44.7452 74.2336  44.7452 74.2336  C 44.7452 74.2336  43.9488 72.8668  43.9488 72.8668  Z " fill-rule="evenodd" />
    </mask>
  </defs>
  <g transform="matrix(1 0 0 1 -689 -231 )">
    <path d="M 43.9488 72.8668  C 43.9488 72.8668  42.9181 72.501  42.9181 72.501  C 42.9181 72.501  43.0176 69.4505  43.0176 69.4505  C 43.0176 69.4505  42.3149 67.3795  42.3149 67.3795  C 42.3149 67.3795  42.4613000000001 65.3142  42.4613000000001 65.3142  C 42.4613000000001 65.3142  41.6591 64.3194  41.6591 64.3194  C 41.6591 64.3194  41.6649 63.5558  41.6649 63.5558  C 41.6649 63.5558  40.9503999999999 63.217  40.9503999999999 63.217  C 40.9503999999999 63.217  39.6913 63.8999  39.6913 63.8999  C 39.6913 63.8999  38.7719 63.1471  38.7719 63.1471  C 38.7719 63.1471  38.7954 62.2169  38.7954 62.2169  C 38.7954 62.2169  36.8922 60.9912  36.8922 60.9912  C 36.8922 60.9912  36.3416999999999 60.8729  36.3416999999999 60.8729  C 36.3416999999999 60.8729  35.6038 61.9105  35.6038 61.9105  C 35.6038 61.9105  35.6975 62.7439  35.6975 62.7439  C 35.6975 62.7439  36.4118999999999 63.2815  36.4118999999999 63.2815  C 36.4118999999999 63.2815  36.0782 64.3355  36.0782 64.3355  C 36.0782 64.3355  35.1236 64.2656  35.1236 64.2656  C 35.1236 64.2656  34.3858 64.8463  34.3858 64.8463  C 34.3858 64.8463  33.6537 64.4699  33.6537 64.4699  C 33.6537 64.4699  33.3433 65.6047  33.3433 65.6047  C 33.3433 65.6047  33.5542 66.605  33.5542 66.605  C 33.5542 66.605  32.8456 67.6216  32.8456 67.6216  C 32.8456 67.6216  30.8794 67.1536  30.8794 67.1536  C 30.8794 67.1536  30.0244 68.1917  30.0244 68.1917  C 30.0244 68.1917  29.5968 68.0195  29.5968 68.0195  C 29.5968 68.0195  28.941 66.3199  28.941 66.3199  C 28.941 66.3199  28.3085 65.3734  28.3085 65.3734  C 28.3085 65.3734  26.3291 65.7498  26.3291 65.7498  C 26.3291 65.7498  26.4755 67.0944  26.4755 67.0944  C 26.4755 67.0944  25.562 68.1433  25.562 68.1433  C 25.562 68.1433  26.7625 69.2944  26.7625 69.2944  C 26.7625 69.2944  26.8152 70.3757  26.8152 70.3757  C 26.8152 70.3757  25.808 71.3926  25.808 71.3926  C 25.808 71.3926  25.7025 73.9376  25.7025 73.9376  C 25.7025 73.9376  26.3467000000001 76.4295  26.3467000000001 76.4295  C 26.3467000000001 76.4295  26.7039 78.6741  26.7039 78.6741  C 26.7039 78.6741  26.3115 79.88  26.3115 79.88  C 26.3115 79.88  25.5152000000001 80.1922  25.5152000000001 80.1922  C 25.5152000000001 80.1922  25.2165 81.129  25.2165 81.129  C 25.2165 81.129  25.5327 82.0228  25.5327 82.0228  C 25.5327 82.0228  24.3088 82.9114  24.3088 82.9114  C 24.3088 82.9114  23.9515 81.9797  23.9515 81.9797  C 23.9515 81.9797  22.9268 82.9975  22.9268 82.9975  C 22.9268 82.9975  21.8493 82.7498  21.8493 82.7498  C 21.8493 82.7498  21.533 83.2344  21.533 83.2344  C 21.533 83.2344  19.9928 82.9221  19.9928 82.9221  C 19.9928 82.9221  20.2564 80.7629  20.2564 80.7629  C 20.2564 80.7629  19.2021999999999 79.1478  19.2021999999999 79.1478  C 19.2021999999999 79.1478  18.3297 79.3147  18.3297 79.3147  C 18.3297 79.3147  16.6666 78.2166  16.6666 78.2166  C 16.6666 78.2166  16.2215 78.3887  16.2215 78.3887  C 16.2215 78.3887  14.6286 77.5167  14.6286 77.5167  C 14.6286 77.5167  14.2363 76.1765  14.2363 76.1765  C 14.2363 76.1765  13.3871 75.1539  13.3871 75.1539  C 13.3871 75.1539  13.475 72.8184  13.475 72.8184  C 13.475 72.8184  14.1777 72.2265  14.1777 72.2265  C 14.1777 72.2265  14.1484 71.4894  14.1484 71.4894  C 14.1484 71.4894  15.4485 70.7738  15.4485 70.7738  C 15.4485 70.7738  15.0151 69.913  15.0151 69.913  C 15.0151 69.913  15.1733 68.6757  15.1733 68.6757  C 15.1733 68.6757  13.9903 67.6269  13.9903 67.6269  C 13.9903 67.6269  13.2818 68.2186  13.2818 68.2186  C 13.2818 68.2186  12.5966 67.4225  12.5966 67.4225  C 12.5966 67.4225  12.6317 66.5458  12.6317 66.5458  C 12.6317 66.5458  12.0578 66.5405  12.0578 66.5405  C 12.0578 66.5405  12.134 65.2013  12.134 65.2013  C 12.134 65.2013  12.6258 64.9001  12.6258 64.9001  C 12.6258 64.9001  12.6142 63.7763  12.6142 63.7763  C 12.6142 63.7763  12.0461 62.8353  12.0461 62.8353  C 12.0461 62.8353  12.1281 62.0448  12.1281 62.0448  C 12.1281 62.0448  11.1326 59.8407  11.1326 59.8407  C 11.1326 59.8407  8.89549999999997 59.5396  8.89549999999997 59.5396  C 8.89549999999997 59.5396  8.10500000000002 59.8407  8.10500000000002 59.8407  C 8.10500000000002 59.8407  7.78290000000004 58.4484  7.78290000000004 58.4484  C 7.78290000000004 58.4484  6.11389999999994 57.6153  6.11389999999994 57.6153  C 6.11389999999994 57.6153  5.82690000000002 58.4269  5.82690000000002 58.4269  C 5.82690000000002 58.4269  5.03639999999996 57.4112  5.03639999999996 57.4112  C 5.03639999999996 57.4112  4.81970000000001 56.304  4.81970000000001 56.304  C 4.81970000000001 56.304  2.72320000000002 55.9224  2.72320000000002 55.9224  C 2.72320000000002 55.9224  1.30020000000002 53.8536  1.30020000000002 53.8536  C 1.30020000000002 53.8536  0.708700000000022 54.1062  0.708700000000022 54.1062  C 0.708700000000022 54.1062  0.240199999999959 53.5741  0.240199999999959 53.5741  C 0.240199999999959 53.5741  9.99999999748979E-05 51.9838  9.99999999748979E-05 51.9838  C 9.99999999748979E-05 51.9838  0.369100000000003 51.2478  0.369100000000003 51.2478  C 0.369100000000003 51.2478  0.948800000000006 51.5433  0.948800000000006 51.5433  C 0.948800000000006 51.5433  2.55920000000003 49.0078  2.55920000000003 49.0078  C 2.55920000000003 49.0078  2.6354 48.2935  2.6354 48.2935  C 2.6354 48.2935  3.70119999999997 47.418  3.70119999999997 47.418  C 3.70119999999997 47.418  5.17690000000005 47.1656  5.17690000000005 47.1656  C 5.17690000000005 47.1656  5.41700000000003 47.853  5.41700000000003 47.853  C 5.41700000000003 47.853  6.37149999999997 48.315  6.37149999999997 48.315  C 6.37149999999997 48.315  7.37289999999996 49.7222  7.37289999999996 49.7222  C 7.37289999999996 49.7222  8.91899999999998 50.0983  8.91899999999998 50.0983  C 8.91899999999998 50.0983  9.75639999999999 50.0016  9.75639999999999 50.0016  C 9.75639999999999 50.0016  10.4122 48.8628  10.4122 48.8628  C 10.4122 48.8628  10.5059 45.8123  10.5059 45.8123  C 10.5059 45.8123  11.3316 44.8887  11.3316 44.8887  C 11.3316 44.8887  10.8398 44.2658  10.8398 44.2658  C 10.8398 44.2658  11.074 43.5464  11.074 43.5464  C 11.074 43.5464  10.8046000000001 42.333  10.8046000000001 42.333  C 10.8046000000001 42.333  11.4547 42.7732  11.4547 42.7732  C 11.4547 42.7732  12.0285 40.8606  12.0285 40.8606  C 12.0285 40.8606  11.3199 39.4756  11.3199 39.4756  C 11.3199 39.4756  9.97299999999996 38.2035  9.97299999999996 38.2035  C 9.97299999999996 38.2035  9.82079999999996 37.1087  9.82079999999996 37.1087  C 9.82079999999996 37.1087  11.1502 37.3662  11.1502 37.3662  C 11.1502 37.3662  11.7533 35.7939  11.7533 35.7939  C 11.7533 35.7939  12.7547 35.8367  12.7547 35.8367  C 12.7547 35.8367  12.825 35.3377  12.825 35.3377  C 12.825 35.3377  14.5349 34.0714  14.5349 34.0714  C 14.5349 34.0714  14.4822 33.2343  14.4822 33.2343  C 14.4822 33.2343  15.7882 33.0412  15.7882 33.0412  C 15.7882 33.0412  16.9653 33.8782  16.9653 33.8782  C 16.9653 33.8782  18.0544 32.8749  18.0544 32.8749  C 18.0544 32.8749  18.0135 30.9704  18.0135 30.9704  C 18.0135 30.9704  18.3297 29.7421  18.3297 29.7421  C 18.3297 29.7421  18.0135 28.8463  18.0135 28.8463  C 18.0135 28.8463  19.4892 29.1573  19.4892 29.1573  C 19.4892 29.1573  19.659 28.8785  19.659 28.8785  C 19.659 28.8785  18.3356 27.7415  18.3356 27.7415  C 18.3356 27.7415  18.5171 26.996  18.5171 26.996  C 18.5171 26.996  19.8816 26.4652  19.8816 26.4652  C 19.8816 26.4652  20.5433 26.9585  20.5433 26.9585  C 20.5433 26.9585  20.8361 24.8457  20.8361 24.8457  C 20.8361 24.8457  21.2812 24.3525  21.2812 24.3525  C 21.2812 24.3525  22.1069 24.9476  22.1069 24.9476  C 22.1069 24.9476  24.1682 24.8457  24.1682 24.8457  C 24.1682 24.8457  24.4142000000001 25.7144  24.4142000000001 25.7144  C 24.4142000000001 25.7144  24.9881 24.6099  24.9881 24.6099  C 24.9881 24.6099  24.6016 23.2373  24.6016 23.2373  C 24.6016 23.2373  25.1169 23.5214  25.1169 23.5214  C 25.1169 23.5214  26.0069999999999 21.8327  26.0069999999999 21.8327  C 26.0069999999999 21.8327  25.9953 20.3748  25.9953 20.3748  C 25.9953 20.3748  25.3453 18.6811  25.3453 18.6811  C 25.3453 18.6811  26.294 17.4218  26.294 17.4218  C 26.294 17.4218  27.9806 18.322  27.9806 18.322  C 27.9806 18.322  28.7009 17.4699  28.7009 17.4699  C 28.7009 17.4699  29.7257 15.4177  29.7257 15.4177  C 29.7257 15.4177  30.4929 16.1786  30.4929 16.1786  C 30.4929 16.1786  30.8501 14.2068  30.8501 14.2068  C 30.8501 14.2068  30.4109 12.8301  30.4109 12.8301  C 30.4109 12.8301  30.405 11.1481  30.405 11.1481  C 30.405 11.1481  31.4648999999999 8.77549999999999  31.4648999999999 8.77549999999999  C 31.4648999999999 8.77549999999999  33.1911 7.77950000000001  33.1911 7.77950000000001  C 33.1911 7.77950000000001  33.7357 7.78479999999999  33.7357 7.78479999999999  C 33.7357 7.78479999999999  34.7078 6.5479  34.7078 6.5479  C 34.7078 6.5479  36.4061 7.29220000000001  36.4061 7.29220000000001  C 36.4061 7.29220000000001  36.7282 6.11959999999999  36.7282 6.11959999999999  C 36.7282 6.11959999999999  37.63 5.17189999999999  37.63 5.17189999999999  C 37.63 5.17189999999999  38.5202 5.7234  38.5202 5.7234  C 38.5202 5.7234  39.0999 7.10480000000001  39.0999 7.10480000000001  C 39.0999 7.10480000000001  39.9783 6.68709999999999  39.9783 6.68709999999999  C 39.9783 6.68709999999999  40.3824 5.27889999999999  40.3824 5.27889999999999  C 40.3824 5.27889999999999  40.4175 4.053  40.4175 4.053  C 40.4175 4.053  41.6415 3.7371  41.6415 3.7371  C 41.6415 3.7371  41.9636 3.1215  41.9636 3.1215  C 41.9636 3.1215  41.3545 1.49440000000001  41.3545 1.49440000000001  C 41.3545 1.49440000000001  42.9239 0.065400000000011  42.9239 0.065400000000011  C 42.9239 0.065400000000011  44.1654 1.14109999999999  44.1654 1.14109999999999  C 44.1654 1.14109999999999  44.9209 1.75129999999999  44.9209 1.75129999999999  C 44.9209 1.75129999999999  45.9047 1.6763  45.9047 1.6763  C 45.9047 1.6763  47.0642 3.60339999999999  47.0642 3.60339999999999  C 47.0642 3.60339999999999  47.4507 3.42670000000001  47.4507 3.42670000000001  C 47.4507 3.42670000000001  48.5809 4.4385  48.5809 4.4385  C 48.5809 4.4385  49.1548 5.54669999999999  49.1548 5.54669999999999  C 49.1548 5.54669999999999  48.5223999999999 6.6336  48.5223999999999 6.6336  C 48.5223999999999 6.6336  47.6381 7.27080000000001  47.6381 7.27080000000001  C 47.6381 7.27080000000001  47.1871 8.14359999999999  47.1871 8.14359999999999  C 47.1871 8.14359999999999  46.5664 8.15960000000001  46.5664 8.15960000000001  C 46.5664 8.15960000000001  45.2137 10.0394  45.2137 10.0394  C 45.2137 10.0394  44.2825 10.8535  44.2825 10.8535  C 44.2825 10.8535  43.6501 13.7407  43.6501 13.7407  C 43.6501 13.7407  43.8668 14.4747  43.8668 14.4747  C 43.8668 14.4747  43.8902000000001 17.1163  43.8902000000001 17.1163  C 43.8902000000001 17.1163  44.4406 18.2255  44.4406 18.2255  C 44.4406 18.2255  45.6236 18.2095  45.6236 18.2095  C 45.6236 18.2095  45.442 19.6244  45.442 19.6244  C 45.442 19.6244  44.6573 20.4177  44.6573 20.4177  C 44.6573 20.4177  45.8286000000001 21.7201  45.8286000000001 21.7201  C 45.8286000000001 21.7201  45.7759 23.1783  45.7759 23.1783  C 45.7759 23.1783  46.2092 23.5697  46.2092 23.5697  C 46.2092 23.5697  46.9588 23.0282  46.9588 23.0282  C 46.9588 23.0282  47.8314 24.1219  47.8314 24.1219  C 47.8314 24.1219  47.3746 24.7385  47.3746 24.7385  C 47.3746 24.7385  47.2047 26.4115  47.2047 26.4115  C 47.2047 26.4115  47.9309 27.9291  47.9309 27.9291  C 47.9309 27.9291  47.7435 29.7904  47.7435 29.7904  C 47.7435 29.7904  47.2165 31.2171  47.2165 31.2171  C 47.2165 31.2171  45.7993 31.8931  45.7993 31.8931  C 45.7993 31.8931  46.1448 32.4939  46.1448 32.4939  C 46.1448 32.4939  46.1096 33.905  46.1096 33.905  C 46.1096 33.905  47.193 34.5006  47.193 34.5006  C 47.193 34.5006  47.6732 35.5577  47.6732 35.5577  C 47.6732 35.5577  47.3863 36.7974  47.3863 36.7974  C 47.3863 36.7974  46.2033 37.216  46.2033 37.216  C 46.2033 37.216  46.3556 37.9084  46.3556 37.9084  C 46.3556 37.9084  47.8489 38.4988  47.8489 38.4988  C 47.8489 38.4988  48.4872 37.7634  48.4872 37.7634  C 48.4872 37.7634  50.1796000000001 38.531  50.1796000000001 38.531  C 50.1796000000001 38.531  50.9702 40.211  50.9702 40.211  C 50.9702 40.211  51.304 43.133  51.304 43.133  C 51.304 43.133  50.6657 43.9169  50.6657 43.9169  C 50.6657 43.9169  50.7886999999999 45.0874  50.7886999999999 45.0874  C 50.7886999999999 45.0874  51.6846 46.0432  51.6846 46.0432  C 51.6846 46.0432  52.2644 47.3589  52.2644 47.3589  C 52.2644 47.3589  52.5104 48.852  52.5104 48.852  C 52.5104 48.852  52.9086 49.373  52.9086 49.373  C 52.9086 49.373  53.1604 51.6078  53.1604 51.6078  C 53.1604 51.6078  53.0725 53.1444  53.0725 53.1444  C 53.0725 53.1444  53.3244 55.514  53.3244 55.514  C 53.3244 55.514  54.3492 56.4921  54.3492 56.4921  C 54.3492 56.4921  54.9172 56.2717  54.9172 56.2717  C 54.9172 56.2717  55.9771 58.4753  55.9771 58.4753  C 55.9771 58.4753  58.0795000000001 58.8892  58.0795000000001 58.8892  C 58.0795000000001 58.8892  58.7998 60.846  58.7998 60.846  C 58.7998 60.846  59.4147 60.2976  59.4147 60.2976  C 59.4147 60.2976  60.5273999999999 60.0558  60.5273999999999 60.0558  C 60.5273999999999 60.0558  61.4351 61.4535  61.4351 61.4535  C 61.4351 61.4535  62.5302 62.0072  62.5302 62.0072  C 62.5302 62.0072  63.4671 61.846  63.4671 61.846  C 63.4671 61.846  63.9708000000001 62.5234  63.9708000000001 62.5234  C 63.9708000000001 62.5234  64 69.4451  64 69.4451  C 64 69.4451  57.8921 71.4087  57.8921 71.4087  C 57.8921 71.4087  56.8673 71.8983  56.8673 71.8983  C 56.8673 71.8983  55.7957 71.9629  55.7957 71.9629  C 55.7957 71.9629  54.5717 71.4195  54.5717 71.4195  C 54.5717 71.4195  52.6802 71.6832  52.6802 71.6832  C 52.6802 71.6832  51.6846 72.5386  51.6846 72.5386  C 51.6846 72.5386  50.6423 75.1808  50.6423 75.1808  C 50.6423 75.1808  50.0391 75.4553  50.0391 75.4553  C 50.0391 75.4553  46.461 75.0139  46.461 75.0139  C 46.461 75.0139  44.7452 74.2336  44.7452 74.2336  C 44.7452 74.2336  43.9488 72.8668  43.9488 72.8668  Z " fill-rule="nonzero" fill="#ffffff" stroke="none" transform="matrix(1 0 0 1 689 231 )" />
    <path d="M 43.9488 72.8668  C 43.9488 72.8668  42.9181 72.501  42.9181 72.501  C 42.9181 72.501  43.0176 69.4505  43.0176 69.4505  C 43.0176 69.4505  42.3149 67.3795  42.3149 67.3795  C 42.3149 67.3795  42.4613000000001 65.3142  42.4613000000001 65.3142  C 42.4613000000001 65.3142  41.6591 64.3194  41.6591 64.3194  C 41.6591 64.3194  41.6649 63.5558  41.6649 63.5558  C 41.6649 63.5558  40.9503999999999 63.217  40.9503999999999 63.217  C 40.9503999999999 63.217  39.6913 63.8999  39.6913 63.8999  C 39.6913 63.8999  38.7719 63.1471  38.7719 63.1471  C 38.7719 63.1471  38.7954 62.2169  38.7954 62.2169  C 38.7954 62.2169  36.8922 60.9912  36.8922 60.9912  C 36.8922 60.9912  36.3416999999999 60.8729  36.3416999999999 60.8729  C 36.3416999999999 60.8729  35.6038 61.9105  35.6038 61.9105  C 35.6038 61.9105  35.6975 62.7439  35.6975 62.7439  C 35.6975 62.7439  36.4118999999999 63.2815  36.4118999999999 63.2815  C 36.4118999999999 63.2815  36.0782 64.3355  36.0782 64.3355  C 36.0782 64.3355  35.1236 64.2656  35.1236 64.2656  C 35.1236 64.2656  34.3858 64.8463  34.3858 64.8463  C 34.3858 64.8463  33.6537 64.4699  33.6537 64.4699  C 33.6537 64.4699  33.3433 65.6047  33.3433 65.6047  C 33.3433 65.6047  33.5542 66.605  33.5542 66.605  C 33.5542 66.605  32.8456 67.6216  32.8456 67.6216  C 32.8456 67.6216  30.8794 67.1536  30.8794 67.1536  C 30.8794 67.1536  30.0244 68.1917  30.0244 68.1917  C 30.0244 68.1917  29.5968 68.0195  29.5968 68.0195  C 29.5968 68.0195  28.941 66.3199  28.941 66.3199  C 28.941 66.3199  28.3085 65.3734  28.3085 65.3734  C 28.3085 65.3734  26.3291 65.7498  26.3291 65.7498  C 26.3291 65.7498  26.4755 67.0944  26.4755 67.0944  C 26.4755 67.0944  25.562 68.1433  25.562 68.1433  C 25.562 68.1433  26.7625 69.2944  26.7625 69.2944  C 26.7625 69.2944  26.8152 70.3757  26.8152 70.3757  C 26.8152 70.3757  25.808 71.3926  25.808 71.3926  C 25.808 71.3926  25.7025 73.9376  25.7025 73.9376  C 25.7025 73.9376  26.3467000000001 76.4295  26.3467000000001 76.4295  C 26.3467000000001 76.4295  26.7039 78.6741  26.7039 78.6741  C 26.7039 78.6741  26.3115 79.88  26.3115 79.88  C 26.3115 79.88  25.5152000000001 80.1922  25.5152000000001 80.1922  C 25.5152000000001 80.1922  25.2165 81.129  25.2165 81.129  C 25.2165 81.129  25.5327 82.0228  25.5327 82.0228  C 25.5327 82.0228  24.3088 82.9114  24.3088 82.9114  C 24.3088 82.9114  23.9515 81.9797  23.9515 81.9797  C 23.9515 81.9797  22.9268 82.9975  22.9268 82.9975  C 22.9268 82.9975  21.8493 82.7498  21.8493 82.7498  C 21.8493 82.7498  21.533 83.2344  21.533 83.2344  C 21.533 83.2344  19.9928 82.9221  19.9928 82.9221  C 19.9928 82.9221  20.2564 80.7629  20.2564 80.7629  C 20.2564 80.7629  19.2021999999999 79.1478  19.2021999999999 79.1478  C 19.2021999999999 79.1478  18.3297 79.3147  18.3297 79.3147  C 18.3297 79.3147  16.6666 78.2166  16.6666 78.2166  C 16.6666 78.2166  16.2215 78.3887  16.2215 78.3887  C 16.2215 78.3887  14.6286 77.5167  14.6286 77.5167  C 14.6286 77.5167  14.2363 76.1765  14.2363 76.1765  C 14.2363 76.1765  13.3871 75.1539  13.3871 75.1539  C 13.3871 75.1539  13.475 72.8184  13.475 72.8184  C 13.475 72.8184  14.1777 72.2265  14.1777 72.2265  C 14.1777 72.2265  14.1484 71.4894  14.1484 71.4894  C 14.1484 71.4894  15.4485 70.7738  15.4485 70.7738  C 15.4485 70.7738  15.0151 69.913  15.0151 69.913  C 15.0151 69.913  15.1733 68.6757  15.1733 68.6757  C 15.1733 68.6757  13.9903 67.6269  13.9903 67.6269  C 13.9903 67.6269  13.2818 68.2186  13.2818 68.2186  C 13.2818 68.2186  12.5966 67.4225  12.5966 67.4225  C 12.5966 67.4225  12.6317 66.5458  12.6317 66.5458  C 12.6317 66.5458  12.0578 66.5405  12.0578 66.5405  C 12.0578 66.5405  12.134 65.2013  12.134 65.2013  C 12.134 65.2013  12.6258 64.9001  12.6258 64.9001  C 12.6258 64.9001  12.6142 63.7763  12.6142 63.7763  C 12.6142 63.7763  12.0461 62.8353  12.0461 62.8353  C 12.0461 62.8353  12.1281 62.0448  12.1281 62.0448  C 12.1281 62.0448  11.1326 59.8407  11.1326 59.8407  C 11.1326 59.8407  8.89549999999997 59.5396  8.89549999999997 59.5396  C 8.89549999999997 59.5396  8.10500000000002 59.8407  8.10500000000002 59.8407  C 8.10500000000002 59.8407  7.78290000000004 58.4484  7.78290000000004 58.4484  C 7.78290000000004 58.4484  6.11389999999994 57.6153  6.11389999999994 57.6153  C 6.11389999999994 57.6153  5.82690000000002 58.4269  5.82690000000002 58.4269  C 5.82690000000002 58.4269  5.03639999999996 57.4112  5.03639999999996 57.4112  C 5.03639999999996 57.4112  4.81970000000001 56.304  4.81970000000001 56.304  C 4.81970000000001 56.304  2.72320000000002 55.9224  2.72320000000002 55.9224  C 2.72320000000002 55.9224  1.30020000000002 53.8536  1.30020000000002 53.8536  C 1.30020000000002 53.8536  0.708700000000022 54.1062  0.708700000000022 54.1062  C 0.708700000000022 54.1062  0.240199999999959 53.5741  0.240199999999959 53.5741  C 0.240199999999959 53.5741  9.99999999748979E-05 51.9838  9.99999999748979E-05 51.9838  C 9.99999999748979E-05 51.9838  0.369100000000003 51.2478  0.369100000000003 51.2478  C 0.369100000000003 51.2478  0.948800000000006 51.5433  0.948800000000006 51.5433  C 0.948800000000006 51.5433  2.55920000000003 49.0078  2.55920000000003 49.0078  C 2.55920000000003 49.0078  2.6354 48.2935  2.6354 48.2935  C 2.6354 48.2935  3.70119999999997 47.418  3.70119999999997 47.418  C 3.70119999999997 47.418  5.17690000000005 47.1656  5.17690000000005 47.1656  C 5.17690000000005 47.1656  5.41700000000003 47.853  5.41700000000003 47.853  C 5.41700000000003 47.853  6.37149999999997 48.315  6.37149999999997 48.315  C 6.37149999999997 48.315  7.37289999999996 49.7222  7.37289999999996 49.7222  C 7.37289999999996 49.7222  8.91899999999998 50.0983  8.91899999999998 50.0983  C 8.91899999999998 50.0983  9.75639999999999 50.0016  9.75639999999999 50.0016  C 9.75639999999999 50.0016  10.4122 48.8628  10.4122 48.8628  C 10.4122 48.8628  10.5059 45.8123  10.5059 45.8123  C 10.5059 45.8123  11.3316 44.8887  11.3316 44.8887  C 11.3316 44.8887  10.8398 44.2658  10.8398 44.2658  C 10.8398 44.2658  11.074 43.5464  11.074 43.5464  C 11.074 43.5464  10.8046000000001 42.333  10.8046000000001 42.333  C 10.8046000000001 42.333  11.4547 42.7732  11.4547 42.7732  C 11.4547 42.7732  12.0285 40.8606  12.0285 40.8606  C 12.0285 40.8606  11.3199 39.4756  11.3199 39.4756  C 11.3199 39.4756  9.97299999999996 38.2035  9.97299999999996 38.2035  C 9.97299999999996 38.2035  9.82079999999996 37.1087  9.82079999999996 37.1087  C 9.82079999999996 37.1087  11.1502 37.3662  11.1502 37.3662  C 11.1502 37.3662  11.7533 35.7939  11.7533 35.7939  C 11.7533 35.7939  12.7547 35.8367  12.7547 35.8367  C 12.7547 35.8367  12.825 35.3377  12.825 35.3377  C 12.825 35.3377  14.5349 34.0714  14.5349 34.0714  C 14.5349 34.0714  14.4822 33.2343  14.4822 33.2343  C 14.4822 33.2343  15.7882 33.0412  15.7882 33.0412  C 15.7882 33.0412  16.9653 33.8782  16.9653 33.8782  C 16.9653 33.8782  18.0544 32.8749  18.0544 32.8749  C 18.0544 32.8749  18.0135 30.9704  18.0135 30.9704  C 18.0135 30.9704  18.3297 29.7421  18.3297 29.7421  C 18.3297 29.7421  18.0135 28.8463  18.0135 28.8463  C 18.0135 28.8463  19.4892 29.1573  19.4892 29.1573  C 19.4892 29.1573  19.659 28.8785  19.659 28.8785  C 19.659 28.8785  18.3356 27.7415  18.3356 27.7415  C 18.3356 27.7415  18.5171 26.996  18.5171 26.996  C 18.5171 26.996  19.8816 26.4652  19.8816 26.4652  C 19.8816 26.4652  20.5433 26.9585  20.5433 26.9585  C 20.5433 26.9585  20.8361 24.8457  20.8361 24.8457  C 20.8361 24.8457  21.2812 24.3525  21.2812 24.3525  C 21.2812 24.3525  22.1069 24.9476  22.1069 24.9476  C 22.1069 24.9476  24.1682 24.8457  24.1682 24.8457  C 24.1682 24.8457  24.4142000000001 25.7144  24.4142000000001 25.7144  C 24.4142000000001 25.7144  24.9881 24.6099  24.9881 24.6099  C 24.9881 24.6099  24.6016 23.2373  24.6016 23.2373  C 24.6016 23.2373  25.1169 23.5214  25.1169 23.5214  C 25.1169 23.5214  26.0069999999999 21.8327  26.0069999999999 21.8327  C 26.0069999999999 21.8327  25.9953 20.3748  25.9953 20.3748  C 25.9953 20.3748  25.3453 18.6811  25.3453 18.6811  C 25.3453 18.6811  26.294 17.4218  26.294 17.4218  C 26.294 17.4218  27.9806 18.322  27.9806 18.322  C 27.9806 18.322  28.7009 17.4699  28.7009 17.4699  C 28.7009 17.4699  29.7257 15.4177  29.7257 15.4177  C 29.7257 15.4177  30.4929 16.1786  30.4929 16.1786  C 30.4929 16.1786  30.8501 14.2068  30.8501 14.2068  C 30.8501 14.2068  30.4109 12.8301  30.4109 12.8301  C 30.4109 12.8301  30.405 11.1481  30.405 11.1481  C 30.405 11.1481  31.4648999999999 8.77549999999999  31.4648999999999 8.77549999999999  C 31.4648999999999 8.77549999999999  33.1911 7.77950000000001  33.1911 7.77950000000001  C 33.1911 7.77950000000001  33.7357 7.78479999999999  33.7357 7.78479999999999  C 33.7357 7.78479999999999  34.7078 6.5479  34.7078 6.5479  C 34.7078 6.5479  36.4061 7.29220000000001  36.4061 7.29220000000001  C 36.4061 7.29220000000001  36.7282 6.11959999999999  36.7282 6.11959999999999  C 36.7282 6.11959999999999  37.63 5.17189999999999  37.63 5.17189999999999  C 37.63 5.17189999999999  38.5202 5.7234  38.5202 5.7234  C 38.5202 5.7234  39.0999 7.10480000000001  39.0999 7.10480000000001  C 39.0999 7.10480000000001  39.9783 6.68709999999999  39.9783 6.68709999999999  C 39.9783 6.68709999999999  40.3824 5.27889999999999  40.3824 5.27889999999999  C 40.3824 5.27889999999999  40.4175 4.053  40.4175 4.053  C 40.4175 4.053  41.6415 3.7371  41.6415 3.7371  C 41.6415 3.7371  41.9636 3.1215  41.9636 3.1215  C 41.9636 3.1215  41.3545 1.49440000000001  41.3545 1.49440000000001  C 41.3545 1.49440000000001  42.9239 0.065400000000011  42.9239 0.065400000000011  C 42.9239 0.065400000000011  44.1654 1.14109999999999  44.1654 1.14109999999999  C 44.1654 1.14109999999999  44.9209 1.75129999999999  44.9209 1.75129999999999  C 44.9209 1.75129999999999  45.9047 1.6763  45.9047 1.6763  C 45.9047 1.6763  47.0642 3.60339999999999  47.0642 3.60339999999999  C 47.0642 3.60339999999999  47.4507 3.42670000000001  47.4507 3.42670000000001  C 47.4507 3.42670000000001  48.5809 4.4385  48.5809 4.4385  C 48.5809 4.4385  49.1548 5.54669999999999  49.1548 5.54669999999999  C 49.1548 5.54669999999999  48.5223999999999 6.6336  48.5223999999999 6.6336  C 48.5223999999999 6.6336  47.6381 7.27080000000001  47.6381 7.27080000000001  C 47.6381 7.27080000000001  47.1871 8.14359999999999  47.1871 8.14359999999999  C 47.1871 8.14359999999999  46.5664 8.15960000000001  46.5664 8.15960000000001  C 46.5664 8.15960000000001  45.2137 10.0394  45.2137 10.0394  C 45.2137 10.0394  44.2825 10.8535  44.2825 10.8535  C 44.2825 10.8535  43.6501 13.7407  43.6501 13.7407  C 43.6501 13.7407  43.8668 14.4747  43.8668 14.4747  C 43.8668 14.4747  43.8902000000001 17.1163  43.8902000000001 17.1163  C 43.8902000000001 17.1163  44.4406 18.2255  44.4406 18.2255  C 44.4406 18.2255  45.6236 18.2095  45.6236 18.2095  C 45.6236 18.2095  45.442 19.6244  45.442 19.6244  C 45.442 19.6244  44.6573 20.4177  44.6573 20.4177  C 44.6573 20.4177  45.8286000000001 21.7201  45.8286000000001 21.7201  C 45.8286000000001 21.7201  45.7759 23.1783  45.7759 23.1783  C 45.7759 23.1783  46.2092 23.5697  46.2092 23.5697  C 46.2092 23.5697  46.9588 23.0282  46.9588 23.0282  C 46.9588 23.0282  47.8314 24.1219  47.8314 24.1219  C 47.8314 24.1219  47.3746 24.7385  47.3746 24.7385  C 47.3746 24.7385  47.2047 26.4115  47.2047 26.4115  C 47.2047 26.4115  47.9309 27.9291  47.9309 27.9291  C 47.9309 27.9291  47.7435 29.7904  47.7435 29.7904  C 47.7435 29.7904  47.2165 31.2171  47.2165 31.2171  C 47.2165 31.2171  45.7993 31.8931  45.7993 31.8931  C 45.7993 31.8931  46.1448 32.4939  46.1448 32.4939  C 46.1448 32.4939  46.1096 33.905  46.1096 33.905  C 46.1096 33.905  47.193 34.5006  47.193 34.5006  C 47.193 34.5006  47.6732 35.5577  47.6732 35.5577  C 47.6732 35.5577  47.3863 36.7974  47.3863 36.7974  C 47.3863 36.7974  46.2033 37.216  46.2033 37.216  C 46.2033 37.216  46.3556 37.9084  46.3556 37.9084  C 46.3556 37.9084  47.8489 38.4988  47.8489 38.4988  C 47.8489 38.4988  48.4872 37.7634  48.4872 37.7634  C 48.4872 37.7634  50.1796000000001 38.531  50.1796000000001 38.531  C 50.1796000000001 38.531  50.9702 40.211  50.9702 40.211  C 50.9702 40.211  51.304 43.133  51.304 43.133  C 51.304 43.133  50.6657 43.9169  50.6657 43.9169  C 50.6657 43.9169  50.7886999999999 45.0874  50.7886999999999 45.0874  C 50.7886999999999 45.0874  51.6846 46.0432  51.6846 46.0432  C 51.6846 46.0432  52.2644 47.3589  52.2644 47.3589  C 52.2644 47.3589  52.5104 48.852  52.5104 48.852  C 52.5104 48.852  52.9086 49.373  52.9086 49.373  C 52.9086 49.373  53.1604 51.6078  53.1604 51.6078  C 53.1604 51.6078  53.0725 53.1444  53.0725 53.1444  C 53.0725 53.1444  53.3244 55.514  53.3244 55.514  C 53.3244 55.514  54.3492 56.4921  54.3492 56.4921  C 54.3492 56.4921  54.9172 56.2717  54.9172 56.2717  C 54.9172 56.2717  55.9771 58.4753  55.9771 58.4753  C 55.9771 58.4753  58.0795000000001 58.8892  58.0795000000001 58.8892  C 58.0795000000001 58.8892  58.7998 60.846  58.7998 60.846  C 58.7998 60.846  59.4147 60.2976  59.4147 60.2976  C 59.4147 60.2976  60.5273999999999 60.0558  60.5273999999999 60.0558  C 60.5273999999999 60.0558  61.4351 61.4535  61.4351 61.4535  C 61.4351 61.4535  62.5302 62.0072  62.5302 62.0072  C 62.5302 62.0072  63.4671 61.846  63.4671 61.846  C 63.4671 61.846  63.9708000000001 62.5234  63.9708000000001 62.5234  C 63.9708000000001 62.5234  64 69.4451  64 69.4451  C 64 69.4451  57.8921 71.4087  57.8921 71.4087  C 57.8921 71.4087  56.8673 71.8983  56.8673 71.8983  C 56.8673 71.8983  55.7957 71.9629  55.7957 71.9629  C 55.7957 71.9629  54.5717 71.4195  54.5717 71.4195  C 54.5717 71.4195  52.6802 71.6832  52.6802 71.6832  C 52.6802 71.6832  51.6846 72.5386  51.6846 72.5386  C 51.6846 72.5386  50.6423 75.1808  50.6423 75.1808  C 50.6423 75.1808  50.0391 75.4553  50.0391 75.4553  C 50.0391 75.4553  46.461 75.0139  46.461 75.0139  C 46.461 75.0139  44.7452 74.2336  44.7452 74.2336  C 44.7452 74.2336  43.9488 72.8668  43.9488 72.8668  Z " stroke-width="2" stroke="#666666" fill="none" transform="matrix(1 0 0 1 689 231 )" mask="url(#clip46)" />
  </g>
</svg>