<?xml version="1.0" encoding="utf-8"?>
<svg version="1.1" xmlns:xlink="http://www.w3.org/1999/xlink" width="81px" height="93px" xmlns="http://www.w3.org/2000/svg">
  <defs>
    <mask fill="white" id="clip47">
      <path d="M 71.6011 71.0353  C 71.6011 71.0353  74.0665 69.8802  74.0665 69.8802  C 74.0665 69.8802  74.9213999999999 71.1973  74.9213999999999 71.1973  C 74.9213999999999 71.1973  75.0795000000001 72.1961  75.0795000000001 72.1961  C 75.0795000000001 72.1961  74.4354 74.939  74.4354 74.939  C 74.4354 74.939  74.8805 78.0389  74.8805 78.0389  C 74.8805 78.0389  75.8584 78.9248  75.8584 78.9248  C 75.8584 78.9248  74.7868 79.9565  74.7868 79.9565  C 74.7868 79.9565  74.8688 80.5939  74.8688 80.5939  C 74.8688 80.5939  73.9025 81.2908  73.9025 81.2908  C 73.9025 81.2908  73.1822 81.2206  73.1822 81.2206  C 73.1822 81.2206  72.5848999999999 82.2417  72.5848999999999 82.2417  C 72.5848999999999 82.2417  72.3096 84.2031  72.3096 84.2031  C 72.3096 84.2031  71.2731 86.8835  71.2731 86.8835  C 71.2731 86.8835  70.4767000000001 87.7105  70.4767000000001 87.7105  C 70.4767000000001 87.7105  69.0536 87.6834  69.0536 87.6834  C 69.0536 87.6834  68.0405 87.0132  68.0405 87.0132  C 68.0405 87.0132  66.2486 87.1105  66.2486 87.1105  C 66.2486 87.1105  61.0835 88.8996  61.0835 88.8996  C 61.0835 88.8996  57.441 86.9105  57.441 86.9105  C 57.441 86.9105  56.0941 85.4731  56.0941 85.4731  C 56.0941 85.4731  54.9814 85.6082  54.9814 85.6082  C 54.9814 85.6082  52.4340999999999 86.9484  52.4340999999999 86.9484  C 52.4340999999999 86.9484  50.7065 88.624  50.7065 88.624  C 50.7065 88.624  49.1839 89.3807  49.1839 89.3807  C 49.1839 89.3807  48.9555 88.1213  48.9555 88.1213  C 48.9555 88.1213  48.0185 88.2077  48.0185 88.2077  C 48.0185 88.2077  46.9938 87.6294  46.9938 87.6294  C 46.9938 87.6294  45.7171 88.1969  45.7171 88.1969  C 45.7171 88.1969  44.6864 89.4618  44.6864 89.4618  C 44.6864 89.4618  45.0261 91.527  45.0261 91.527  C 45.0261 91.527  43.7729000000001 92.2623  43.7729000000001 92.2623  C 43.7729000000001 92.2623  42.8359 91.846  42.8359 91.846  C 42.8359 91.846  42.1683 90.7971  42.1683 90.7971  C 42.1683 90.7971  41.3543 91.6189  41.3543 91.6189  C 41.3543 91.6189  39.2474999999999 91.7595  39.2474999999999 91.7595  C 39.2474999999999 91.7595  37.4614 90.7052  37.4614 90.7052  C 37.4614 90.7052  36.9754 89.251  36.9754 89.251  C 36.9754 89.251  35.0955 88.7753  35.0955 88.7753  C 35.0955 88.7753  32.8995 86.8727  32.8995 86.8727  C 32.8995 86.8727  32.1967 87.3862  32.1967 87.3862  C 32.1967 87.3862  31.2773 86.208  31.2773 86.208  C 31.2773 86.208  31.0431 87.0457  31.0431 87.0457  C 31.0431 87.0457  29.5674 88.2186  29.5674 88.2186  C 29.5674 88.2186  29.2569999999999 86.9214  29.2569999999999 86.9214  C 29.2569999999999 86.9214  28.3317 86.3971  28.3317 86.3971  C 28.3317 86.3971  29.1516 85.5757  29.1516 85.5757  C 29.1516 85.5757  28.8002 83.7438  28.8002 83.7438  C 28.8002 83.7438  28.0565 85.8027  28.0565 85.8027  C 28.0565 85.8027  27.711 85.0461  27.711 85.0461  C 27.711 85.0461  26.5515 85.1218  26.5515 85.1218  C 26.5515 85.1218  26.9321 83.452  26.9321 83.452  C 26.9321 83.452  26.3524 81.9878  26.3524 81.9878  C 26.3524 81.9878  26.9848 81.6852  26.9848 81.6852  C 26.9848 81.6852  26.6803 81.0747  26.6803 81.0747  C 26.6803 81.0747  27.7871 78.8924  27.7871 78.8924  C 27.7871 78.8924  27.3655 78.471  27.3655 78.471  C 27.3655 78.471  26.4285 80.0376  26.4285 80.0376  C 26.4285 80.0376  25.0054 78.8762  25.0054 78.8762  C 25.0054 78.8762  26.083 77.569  26.083 77.569  C 26.083 77.569  27.0785 78.1902  27.0785 78.1902  C 27.0785 78.1902  27.4299 76.7643  27.4299 76.7643  C 27.4299 76.7643  28.3200000000001 75.8517  28.3200000000001 75.8517  C 28.3200000000001 75.8517  28.1502 75.2738  28.1502 75.2738  C 28.1502 75.2738  27.1078 74.426  27.1078 74.426  C 27.1078 74.426  27.0493 73.9454  27.0493 73.9454  C 27.0493 73.9454  26.083 73.8266  26.083 73.8266  C 26.083 73.8266  26.2469 72.2933  26.2469 72.2933  C 26.2469 72.2933  24.7888 70.4685  24.7888 70.4685  C 24.7888 70.4685  24.9703 69.362  24.9703 69.362  C 24.9703 69.362  24.4725 69.227  24.4725 69.227  C 24.4725 69.227  23.8752 67.8668  23.8752 67.8668  C 23.8752 67.8668  23.1138999999999 67.4782  23.1138999999999 67.4782  C 23.1138999999999 67.4782  21.9426999999999 68.4875  21.9426999999999 68.4875  C 21.9426999999999 68.4875  20.4787 68.6602  20.4787 68.6602  C 20.4787 68.6602  19.4948000000001 70.6035  19.4948000000001 70.6035  C 19.4948000000001 70.6035  18.0777000000001 69.2378  18.0777000000001 69.2378  C 18.0777000000001 69.2378  18.0953 68.1475  18.0953 68.1475  C 18.0953 68.1475  15.5244 67.1167  15.5244 67.1167  C 15.5244 67.1167  14.9037 66.4529  14.9037 66.4529  C 14.9037 66.4529  14.0838 64.5426  14.0838 64.5426  C 14.0838 64.5426  12.772 64.4455  12.772 64.4455  C 12.772 64.4455  11.9698 63.5713  11.9698 63.5713  C 11.9698 63.5713  9.87909999999999 61.942  9.87909999999999 61.942  C 9.87909999999999 61.942  10.4823 61.0249  10.4823 61.0249  C 10.4823 61.0249  10.2598 60.383  10.2598 60.383  C 10.2598 60.383  10.8747 59.1585  10.8747 59.1585  C 10.8747 59.1585  11.9054 60.9439  11.9054 60.9439  C 11.9054 60.9439  12.3329 58.6677  12.3329 58.6677  C 12.3329 58.6677  11.7473 57.6753  11.7473 57.6753  C 11.7473 57.6753  11.6829 56.5859  11.6829 56.5859  C 11.6829 56.5859  12.3622 55.7124  12.3622 55.7124  C 12.3622 55.7124  13.1235 55.7663  13.1235 55.7663  C 13.1235 55.7663  15.3546 55.2809  15.3546 55.2809  C 15.3546 55.2809  16.397 55.3241  16.397 55.3241  C 16.397 55.3241  17.9781 54.3697  17.9781 54.3697  C 17.9781 54.3697  17.4394 52.9139  17.4394 52.9139  C 17.4394 52.9139  15.3839 51.4692  15.3839 51.4692  C 15.3839 51.4692  15.3546 49.173  15.3546 49.173  C 15.3546 49.173  15.7177 47.6154  15.7177 47.6154  C 15.7177 47.6154  16.5434 47.3837  16.5434 47.3837  C 16.5434 47.3837  17.0646 45.4622  17.0646 45.4622  C 17.0646 45.4622  16.4204999999999 44.3467  16.4204999999999 44.3467  C 16.4204999999999 44.3467  14.5992 42.0785  14.5992 42.0785  C 14.5992 42.0785  13.8554 40.5809  13.8554 40.5809  C 13.8554 40.5809  10.9684 41.028  10.9684 41.028  C 10.9684 41.028  9.90260000000001 42.0354  9.90260000000001 42.0354  C 9.90260000000001 42.0354  8.15160000000003 42.1485  8.15160000000003 42.1485  C 8.15160000000003 42.1485  7.4665 43.5331  7.4665 43.5331  C 7.4665 43.5331  6.14880000000005 43.5008  6.14880000000005 43.5008  C 6.14880000000005 43.5008  5.75059999999996 40.6024  5.75059999999996 40.6024  C 5.75059999999996 40.6024  5.86189999999999 39.4174  5.86189999999999 39.4174  C 5.86189999999999 39.4174  6.61149999999998 38.1247  6.61149999999998 38.1247  C 6.61149999999998 38.1247  4.70240000000001 36.8322  4.70240000000001 36.8322  C 4.70240000000001 36.8322  3.97040000000004 35.8252  3.97040000000004 35.8252  C 3.97040000000004 35.8252  3.81230000000005 34.872  3.81230000000005 34.872  C 3.81230000000005 34.872  2.20770000000005 33.6498  2.20770000000005 33.6498  C 2.20770000000005 33.6498  1.38189999999997 31.8087  1.38189999999997 31.8087  C 1.38189999999997 31.8087  0.778800000000047 31.5933  0.778800000000047 31.5933  C 0.778800000000047 31.5933  1.51080000000002 31.2704  1.51080000000002 31.2704  C 1.51080000000002 31.2704  2.04960000000005 29.7524  2.04960000000005 29.7524  C 2.04960000000005 29.7524  1.96759999999995 28.0032  1.96759999999995 28.0032  C 1.96759999999995 28.0032  3.11540000000002 27.2014  3.11540000000002 27.2014  C 3.11540000000002 27.2014  3.49599999999998 27.3144  3.49599999999998 27.3144  C 3.49599999999998 27.3144  3.32029999999997 25.7968  3.32029999999997 25.7968  C 3.32029999999997 25.7968  4.82529999999997 25.4041  4.82529999999997 25.4041  C 4.82529999999997 25.4041  5.60419999999999 23.7953  5.60419999999999 23.7953  C 5.60419999999999 23.7953  6.95690000000002 22.8646  6.95690000000002 22.8646  C 6.95690000000002 22.8646  7.51329999999996 23.6233  7.51329999999996 23.6233  C 7.51329999999996 23.6233  8.06960000000004 25.2534  8.06960000000004 25.2534  C 8.06960000000004 25.2534  8.97730000000001 26.7817  8.97730000000001 26.7817  C 8.97730000000001 26.7817  9.69179999999994 27.2336  9.69179999999994 27.2336  C 9.69179999999994 27.2336  10.4999 27.0722  10.4999 27.0722  C 10.4999 27.0722  10.7048 26.0821  10.7048 26.0821  C 10.7048 26.0821  11.8644 25.926  11.8644 25.926  C 11.8644 25.926  12.4851 26.3942  12.4851 26.3942  C 12.4851 26.3942  13.7325 26.2166  13.7325 26.2166  C 13.7325 26.2166  14.5055 26.9484  14.5055 26.9484  C 14.5055 26.9484  15.0501 26.109  15.0501 26.109  C 15.0501 26.109  14.6753 24.7261  14.6753 24.7261  C 14.6753 24.7261  15.665 24.3334  15.665 24.3334  C 15.665 24.3334  16.1686 23.209  16.1686 23.209  C 16.1686 23.209  15.7236 22.9023  15.7236 22.9023  C 15.7236 22.9023  16.5024 20.6806  16.5024 20.6806  C 16.5024 20.6806  15.4191 18.8305  15.4191 18.8305  C 15.4191 18.8305  16.1569 18.6638  16.1569 18.6638  C 16.1569 18.6638  16.1921 17.8571  16.1921 17.8571  C 16.1921 17.8571  15.5655 16.959  15.5655 16.959  C 15.5655 16.959  16.9709 13.9912  16.9709 13.9912  C 16.9709 13.9912  18.2065 12.3353  18.2065 12.3353  C 18.2065 12.3353  20.1742 12.674  20.1742 12.674  C 20.1742 12.674  20.426 13.846  20.426 13.846  C 20.426 13.846  21.3806 15.0771  21.3806 15.0771  C 21.3806 15.0771  22.9149 15.9052  22.9149 15.9052  C 22.9149 15.9052  23.0378 16.4913  23.0378 16.4913  C 23.0378 16.4913  24.3261 15.3944  24.3261 15.3944  C 24.3261 15.3944  25.0113 15.6686  25.0113 15.6686  C 25.0113 15.6686  27.3655 13.9374  27.3655 13.9374  C 27.3655 13.9374  27.6817 12.8461  27.6817 12.8461  C 27.6817 12.8461  28.73 12.0075  28.73 12.0075  C 28.73 12.0075  29.7606 10.696  29.7606 10.696  C 29.7606 10.696  31.3476000000001 10.8465  31.3476000000001 10.8465  C 31.3476000000001 10.8465  32.1792 12.2279  32.1792 12.2279  C 32.1792 12.2279  31.7049 13.0127  31.7049 13.0127  C 31.7049 13.0127  32.4662 13.9858  32.4662 13.9858  C 32.4662 13.9858  33.854 13.6309  33.854 13.6309  C 33.854 13.6309  35.1072 14.5126  35.1072 14.5126  C 35.1072 14.5126  35.1599 13.8137  35.1599 13.8137  C 35.1599 13.8137  36.378 14.1793  36.378 14.1793  C 36.378 14.1793  36.5186 14.8406  36.5186 14.8406  C 36.5186 14.8406  37.5083 15.8461  37.5083 15.8461  C 37.5083 15.8461  38.3925 16.2385  38.3925 16.2385  C 38.3925 16.2385  38.9547 15.6471  38.9547 15.6471  C 38.9547 15.6471  39.8097 16.4106  39.8097 16.4106  C 39.8097 16.4106  42.0453 16.0718  42.0453 16.0718  C 42.0453 16.0718  43.3571 16.8837  43.3571 16.8837  C 43.3571 16.8837  44.4873 16.8999  44.4873 16.8999  C 44.4873 16.8999  45.436 15.6632  45.436 15.6632  C 45.436 15.6632  45.5941 14.7546  45.5941 14.7546  C 45.5941 14.7546  46.4666999999999 14.3244  46.4666999999999 14.3244  C 46.4666999999999 14.3244  46.1622 13.2062  46.1622 13.2062  C 46.1622 13.2062  45.4184 12.7009  45.4184 12.7009  C 45.4184 12.7009  45.8284 10.954  45.8284 10.954  C 45.8284 10.954  45.682 9.8253  45.682 9.8253  C 45.682 9.8253  46.8122 9.79839999999999  46.8122 9.79839999999999  C 46.8122 9.79839999999999  48.2234999999999 8.08940000000001  48.2234999999999 8.08940000000001  C 48.2234999999999 8.08940000000001  48.2059 6.41829999999999  48.2059 6.41829999999999  C 48.2059 6.41829999999999  49.2424 5.41370000000001  49.2424 5.41370000000001  C 49.2424 5.41370000000001  49.951 5.53720000000001  49.951 5.53720000000001  C 49.951 5.53720000000001  49.6583000000001 6.49889999999999  49.6583000000001 6.49889999999999  C 49.6583000000001 6.49889999999999  52.598 3.61930000000001  52.598 3.61930000000001  C 52.598 3.61930000000001  52.5688 2.5127  52.5688 2.5127  C 52.5688 2.5127  53.8864 1.9111  53.8864 1.9111  C 53.8864 1.9111  54.4544 2.32480000000001  54.4544 2.32480000000001  C 54.4544 2.32480000000001  55.2742 1.23439999999999  55.2742 1.23439999999999  C 55.2742 1.23439999999999  56.2991 0.65440000000001  56.2991 0.65440000000001  C 56.2991 0.65440000000001  57.4761999999999 0.815400000000011  57.4761999999999 0.815400000000011  C 57.4761999999999 0.815400000000011  57.7279 2.3569  57.7279 2.3569  C 57.7279 2.3569  58.6005 3.05529999999999  58.6005 3.05529999999999  C 58.6005 3.05529999999999  58.9519 3.9631  58.9519 3.9631  C 58.9519 3.9631  60.0001 4.9838  60.0001 4.9838  C 60.0001 4.9838  60.2402 6.57409999999999  60.2402 6.57409999999999  C 60.2402 6.57409999999999  60.7087 7.1062  60.7087 7.1062  C 60.7087 7.1062  61.3002 6.8536  61.3002 6.8536  C 61.3002 6.8536  62.7232 8.92240000000001  62.7232 8.92240000000001  C 62.7232 8.92240000000001  64.8197 9.304  64.8197 9.304  C 64.8197 9.304  65.0364 10.4112  65.0364 10.4112  C 65.0364 10.4112  65.8269 11.4269  65.8269 11.4269  C 65.8269 11.4269  66.1138999999999 10.6153  66.1138999999999 10.6153  C 66.1138999999999 10.6153  67.7829 11.4484  67.7829 11.4484  C 67.7829 11.4484  68.105 12.8407  68.105 12.8407  C 68.105 12.8407  68.8955 12.5396  68.8955 12.5396  C 68.8955 12.5396  71.1326 12.8407  71.1326 12.8407  C 71.1326 12.8407  72.1281 15.0448  72.1281 15.0448  C 72.1281 15.0448  72.0461 15.8353  72.0461 15.8353  C 72.0461 15.8353  72.6142 16.7763  72.6142 16.7763  C 72.6142 16.7763  72.6258 17.9001  72.6258 17.9001  C 72.6258 17.9001  72.134 18.2013  72.134 18.2013  C 72.134 18.2013  72.0578 19.5405  72.0578 19.5405  C 72.0578 19.5405  72.6317 19.5458  72.6317 19.5458  C 72.6317 19.5458  72.5966 20.4225  72.5966 20.4225  C 72.5966 20.4225  73.2818 21.2186  73.2818 21.2186  C 73.2818 21.2186  73.9903 20.6269  73.9903 20.6269  C 73.9903 20.6269  75.1733 21.6757  75.1733 21.6757  C 75.1733 21.6757  75.0151 22.913  75.0151 22.913  C 75.0151 22.913  75.4485 23.7738  75.4485 23.7738  C 75.4485 23.7738  74.1484 24.4894  74.1484 24.4894  C 74.1484 24.4894  74.1777 25.2265  74.1777 25.2265  C 74.1777 25.2265  73.475 25.8184  73.475 25.8184  C 73.475 25.8184  73.3871 28.1539  73.3871 28.1539  C 73.3871 28.1539  74.2363 29.1765  74.2363 29.1765  C 74.2363 29.1765  74.6286 30.5167  74.6286 30.5167  C 74.6286 30.5167  76.2215 31.3887  76.2215 31.3887  C 76.2215 31.3887  76.6666 31.2166  76.6666 31.2166  C 76.6666 31.2166  78.3297 32.3147  78.3297 32.3147  C 78.3297 32.3147  79.2021999999999 32.1478  79.2021999999999 32.1478  C 79.2021999999999 32.1478  80.2564 33.7629  80.2564 33.7629  C 80.2564 33.7629  79.9928 35.9221  79.9928 35.9221  C 79.9928 35.9221  78.7631 35.5236  78.7631 35.5236  C 78.7631 35.5236  78.1072 34.5329  78.1072 34.5329  C 78.1072 34.5329  76.9242 33.4884  76.9242 33.4884  C 76.9242 33.4884  76.7837 32.6  76.7837 32.6  C 76.7837 32.6  76.1864 32.6861  76.1864 32.6861  C 76.1864 32.6861  76.1512 34.0267  76.1512 34.0267  C 76.1512 34.0267  76.8891 34.4952  76.8891 34.4952  C 76.8891 34.4952  77.018 36.2128  77.018 36.2128  C 77.018 36.2128  76.3152 36.5521  76.3152 36.5521  C 76.3152 36.5521  75.8058 38.1032  75.8058 38.1032  C 75.8058 38.1032  75.9756 38.6686  75.9756 38.6686  C 75.9756 38.6686  75.3314 40.1283  75.3314 40.1283  C 75.3314 40.1283  75.2729000000001 41.1304  75.2729000000001 41.1304  C 75.2729000000001 41.1304  74.7868 40.2468  74.7868 40.2468  C 74.7868 40.2468  74.1075 37.6615  74.1075 37.6615  C 74.1075 37.6615  73.4808 36.4337  73.4808 36.4337  C 73.4808 36.4337  71.8412 35.0928  71.8412 35.0928  C 71.8412 35.0928  70.992 34.8936  70.992 34.8936  C 70.992 34.8936  67.7243 35.0821  67.7243 35.0821  C 67.7243 35.0821  67.4315 34.5867  67.4315 34.5867  C 67.4315 34.5867  67.9117 33.2299  67.9117 33.2299  C 67.9117 33.2299  68.7257 32.2447  68.7257 32.2447  C 68.7257 32.2447  69.3757000000001 30.8935  69.3757000000001 30.8935  C 69.3757000000001 30.8935  69.4636 29.4564  69.4636 29.4564  C 69.4636 29.4564  68.7198 28.6706  68.7198 28.6706  C 68.7198 28.6706  67.4373000000001 28.9666  67.4373000000001 28.9666  C 67.4373000000001 28.9666  66.1314 29.9139  66.1314 29.9139  C 66.1314 29.9139  65.1476 31.4426  65.1476 31.4426  C 65.1476 31.4426  64.4332000000001 31.9217  64.4332000000001 31.9217  C 64.4332000000001 31.9217  63.6074 30.7913  63.6074 30.7913  C 63.6074 30.7913  63.5489 27.6804  63.5489 27.6804  C 63.5489 27.6804  63.0863000000001 27.4435  63.0863000000001 27.4435  C 63.0863000000001 27.4435  62.4948000000001 28.6867  62.4948000000001 28.6867  C 62.4948000000001 28.6867  60.6559999999999 28.6598  60.6559999999999 28.6598  C 60.6559999999999 28.6598  58.9988 31.5502  58.9988 31.5502  C 58.9988 31.5502  58.6473 33.8598  58.6473 33.8598  C 58.6473 33.8598  57.2419 34.4683  57.2419 34.4683  C 57.2419 34.4683  56.2697 33.9029  56.2697 33.9029  C 56.2697 33.9029  56.059 34.6083  56.059 34.6083  C 56.059 34.6083  56.5157 36.6975  56.5157 36.6975  C 56.5157 36.6975  57.1950000000001 36.4283  57.1950000000001 36.4283  C 57.1950000000001 36.4283  58.255 38.0816  58.255 38.0816  C 58.255 38.0816  58.2199000000001 38.9595  58.2199000000001 38.9595  C 58.2199000000001 38.9595  58.6649 40.2846  58.6649 40.2846  C 58.6649 40.2846  58.5712 43.1829  58.5712 43.1829  C 58.5712 43.1829  58.9636 44.282  58.9636 44.282  C 58.9636 44.282  58.5009 45.4568  58.5009 45.4568  C 58.5009 45.4568  57.0368999999999 45.3975  57.0368999999999 45.3975  C 57.0368999999999 45.3975  56.2639 45.8124  56.2639 45.8124  C 56.2639 45.8124  56.2464 47.4645  56.2464 47.4645  C 56.2464 47.4645  57.1248000000001 48.4238  57.1248000000001 48.4238  C 57.1248000000001 48.4238  56.9725 50.1485  56.9725 50.1485  C 56.9725 50.1485  56.5684 49.8143  56.5684 49.8143  C 56.5684 49.8143  55.4558 50.5043  55.4558 50.5043  C 55.4558 50.5043  55.7427 51.4638  55.7427 51.4638  C 55.7427 51.4638  54.9521999999999 52.2077  54.9521999999999 52.2077  C 54.9521999999999 52.2077  55.1922 52.8709  55.1922 52.8709  C 55.1922 52.8709  54.671 53.8197  54.671 53.8197  C 54.671 53.8197  54.3197 56.2355  54.3197 56.2355  C 54.3197 56.2355  53.1954 57.643  53.1954 57.643  C 53.1954 57.643  52.2291 57.4488  52.2291 57.4488  C 52.2291 57.4488  51.6903 58.576  51.6903 58.576  C 51.6903 58.576  51.8133 59.7519  51.8133 59.7519  C 51.8133 59.7519  52.4165 59.7842  52.4165 59.7842  C 52.4165 59.7842  52.0534 60.6257  52.0534 60.6257  C 52.0534 60.6257  51.1574000000001 61.1543  51.1574000000001 61.1543  C 51.1574000000001 61.1543  51.8895 62.8213  51.8895 62.8213  C 51.8895 62.8213  51.1282 62.708  51.1282 62.708  C 51.1282 62.708  51.3214 65.1307  51.3214 65.1307  C 51.3214 65.1307  50.5308 66.3611  50.5308 66.3611  C 50.5308 66.3611  51.8307999999999 68.1421  51.8307999999999 68.1421  C 51.8307999999999 68.1421  54.144 69.4105  54.144 69.4105  C 54.144 69.4105  54.1088999999999 70.5657  54.1088999999999 70.5657  C 54.1088999999999 70.5657  54.9873 70.8842  54.9873 70.8842  C 54.9873 70.8842  55.7486 70.204  55.7486 70.204  C 55.7486 70.204  56.873 70.841  56.873 70.841  C 56.873 70.841  57.8742999999999 71.856  57.8742999999999 71.856  C 57.8742999999999 71.856  58.337 74.7014  58.337 74.7014  C 58.337 74.7014  59.9884 74.8094  59.9884 74.8094  C 59.9884 74.8094  60.4979 75.533  60.4979 75.533  C 60.4979 75.533  60.1231 75.8949  60.1231 75.8949  C 60.1231 75.8949  60.9195 76.613  60.9195 76.613  C 60.9195 76.613  62.0966 76.1325  62.0966 76.1325  C 62.0966 76.1325  62.8286 75.1712  62.8286 75.1712  C 62.8286 75.1712  64.4624 74.21  64.4624 74.21  C 64.4624 74.21  65.2531 72.493  65.2531 72.493  C 65.2531 72.493  65.9675 71.9207  65.9675 71.9207  C 65.9675 71.9207  65.8855 71.1649  65.8855 71.1649  C 65.8855 71.1649  66.5297 71.3809  66.5297 71.3809  C 66.5297 71.3809  68.4329 70.0474  68.4329 70.0474  C 68.4329 70.0474  70.7987000000001 70.4145  70.7987000000001 70.4145  C 70.7987000000001 70.4145  71.6011 71.0353  71.6011 71.0353  Z " fill-rule="evenodd" />
    </mask>
  </defs>
  <g transform="matrix(1 0 0 1 -630 -277 )">
    <path d="M 71.6011 71.0353  C 71.6011 71.0353  74.0665 69.8802  74.0665 69.8802  C 74.0665 69.8802  74.9213999999999 71.1973  74.9213999999999 71.1973  C 74.9213999999999 71.1973  75.0795000000001 72.1961  75.0795000000001 72.1961  C 75.0795000000001 72.1961  74.4354 74.939  74.4354 74.939  C 74.4354 74.939  74.8805 78.0389  74.8805 78.0389  C 74.8805 78.0389  75.8584 78.9248  75.8584 78.9248  C 75.8584 78.9248  74.7868 79.9565  74.7868 79.9565  C 74.7868 79.9565  74.8688 80.5939  74.8688 80.5939  C 74.8688 80.5939  73.9025 81.2908  73.9025 81.2908  C 73.9025 81.2908  73.1822 81.2206  73.1822 81.2206  C 73.1822 81.2206  72.5848999999999 82.2417  72.5848999999999 82.2417  C 72.5848999999999 82.2417  72.3096 84.2031  72.3096 84.2031  C 72.3096 84.2031  71.2731 86.8835  71.2731 86.8835  C 71.2731 86.8835  70.4767000000001 87.7105  70.4767000000001 87.7105  C 70.4767000000001 87.7105  69.0536 87.6834  69.0536 87.6834  C 69.0536 87.6834  68.0405 87.0132  68.0405 87.0132  C 68.0405 87.0132  66.2486 87.1105  66.2486 87.1105  C 66.2486 87.1105  61.0835 88.8996  61.0835 88.8996  C 61.0835 88.8996  57.441 86.9105  57.441 86.9105  C 57.441 86.9105  56.0941 85.4731  56.0941 85.4731  C 56.0941 85.4731  54.9814 85.6082  54.9814 85.6082  C 54.9814 85.6082  52.4340999999999 86.9484  52.4340999999999 86.9484  C 52.4340999999999 86.9484  50.7065 88.624  50.7065 88.624  C 50.7065 88.624  49.1839 89.3807  49.1839 89.3807  C 49.1839 89.3807  48.9555 88.1213  48.9555 88.1213  C 48.9555 88.1213  48.0185 88.2077  48.0185 88.2077  C 48.0185 88.2077  46.9938 87.6294  46.9938 87.6294  C 46.9938 87.6294  45.7171 88.1969  45.7171 88.1969  C 45.7171 88.1969  44.6864 89.4618  44.6864 89.4618  C 44.6864 89.4618  45.0261 91.527  45.0261 91.527  C 45.0261 91.527  43.7729000000001 92.2623  43.7729000000001 92.2623  C 43.7729000000001 92.2623  42.8359 91.846  42.8359 91.846  C 42.8359 91.846  42.1683 90.7971  42.1683 90.7971  C 42.1683 90.7971  41.3543 91.6189  41.3543 91.6189  C 41.3543 91.6189  39.2474999999999 91.7595  39.2474999999999 91.7595  C 39.2474999999999 91.7595  37.4614 90.7052  37.4614 90.7052  C 37.4614 90.7052  36.9754 89.251  36.9754 89.251  C 36.9754 89.251  35.0955 88.7753  35.0955 88.7753  C 35.0955 88.7753  32.8995 86.8727  32.8995 86.8727  C 32.8995 86.8727  32.1967 87.3862  32.1967 87.3862  C 32.1967 87.3862  31.2773 86.208  31.2773 86.208  C 31.2773 86.208  31.0431 87.0457  31.0431 87.0457  C 31.0431 87.0457  29.5674 88.2186  29.5674 88.2186  C 29.5674 88.2186  29.2569999999999 86.9214  29.2569999999999 86.9214  C 29.2569999999999 86.9214  28.3317 86.3971  28.3317 86.3971  C 28.3317 86.3971  29.1516 85.5757  29.1516 85.5757  C 29.1516 85.5757  28.8002 83.7438  28.8002 83.7438  C 28.8002 83.7438  28.0565 85.8027  28.0565 85.8027  C 28.0565 85.8027  27.711 85.0461  27.711 85.0461  C 27.711 85.0461  26.5515 85.1218  26.5515 85.1218  C 26.5515 85.1218  26.9321 83.452  26.9321 83.452  C 26.9321 83.452  26.3524 81.9878  26.3524 81.9878  C 26.3524 81.9878  26.9848 81.6852  26.9848 81.6852  C 26.9848 81.6852  26.6803 81.0747  26.6803 81.0747  C 26.6803 81.0747  27.7871 78.8924  27.7871 78.8924  C 27.7871 78.8924  27.3655 78.471  27.3655 78.471  C 27.3655 78.471  26.4285 80.0376  26.4285 80.0376  C 26.4285 80.0376  25.0054 78.8762  25.0054 78.8762  C 25.0054 78.8762  26.083 77.569  26.083 77.569  C 26.083 77.569  27.0785 78.1902  27.0785 78.1902  C 27.0785 78.1902  27.4299 76.7643  27.4299 76.7643  C 27.4299 76.7643  28.3200000000001 75.8517  28.3200000000001 75.8517  C 28.3200000000001 75.8517  28.1502 75.2738  28.1502 75.2738  C 28.1502 75.2738  27.1078 74.426  27.1078 74.426  C 27.1078 74.426  27.0493 73.9454  27.0493 73.9454  C 27.0493 73.9454  26.083 73.8266  26.083 73.8266  C 26.083 73.8266  26.2469 72.2933  26.2469 72.2933  C 26.2469 72.2933  24.7888 70.4685  24.7888 70.4685  C 24.7888 70.4685  24.9703 69.362  24.9703 69.362  C 24.9703 69.362  24.4725 69.227  24.4725 69.227  C 24.4725 69.227  23.8752 67.8668  23.8752 67.8668  C 23.8752 67.8668  23.1138999999999 67.4782  23.1138999999999 67.4782  C 23.1138999999999 67.4782  21.9426999999999 68.4875  21.9426999999999 68.4875  C 21.9426999999999 68.4875  20.4787 68.6602  20.4787 68.6602  C 20.4787 68.6602  19.4948000000001 70.6035  19.4948000000001 70.6035  C 19.4948000000001 70.6035  18.0777000000001 69.2378  18.0777000000001 69.2378  C 18.0777000000001 69.2378  18.0953 68.1475  18.0953 68.1475  C 18.0953 68.1475  15.5244 67.1167  15.5244 67.1167  C 15.5244 67.1167  14.9037 66.4529  14.9037 66.4529  C 14.9037 66.4529  14.0838 64.5426  14.0838 64.5426  C 14.0838 64.5426  12.772 64.4455  12.772 64.4455  C 12.772 64.4455  11.9698 63.5713  11.9698 63.5713  C 11.9698 63.5713  9.87909999999999 61.942  9.87909999999999 61.942  C 9.87909999999999 61.942  10.4823 61.0249  10.4823 61.0249  C 10.4823 61.0249  10.2598 60.383  10.2598 60.383  C 10.2598 60.383  10.8747 59.1585  10.8747 59.1585  C 10.8747 59.1585  11.9054 60.9439  11.9054 60.9439  C 11.9054 60.9439  12.3329 58.6677  12.3329 58.6677  C 12.3329 58.6677  11.7473 57.6753  11.7473 57.6753  C 11.7473 57.6753  11.6829 56.5859  11.6829 56.5859  C 11.6829 56.5859  12.3622 55.7124  12.3622 55.7124  C 12.3622 55.7124  13.1235 55.7663  13.1235 55.7663  C 13.1235 55.7663  15.3546 55.2809  15.3546 55.2809  C 15.3546 55.2809  16.397 55.3241  16.397 55.3241  C 16.397 55.3241  17.9781 54.3697  17.9781 54.3697  C 17.9781 54.3697  17.4394 52.9139  17.4394 52.9139  C 17.4394 52.9139  15.3839 51.4692  15.3839 51.4692  C 15.3839 51.4692  15.3546 49.173  15.3546 49.173  C 15.3546 49.173  15.7177 47.6154  15.7177 47.6154  C 15.7177 47.6154  16.5434 47.3837  16.5434 47.3837  C 16.5434 47.3837  17.0646 45.4622  17.0646 45.4622  C 17.0646 45.4622  16.4204999999999 44.3467  16.4204999999999 44.3467  C 16.4204999999999 44.3467  14.5992 42.0785  14.5992 42.0785  C 14.5992 42.0785  13.8554 40.5809  13.8554 40.5809  C 13.8554 40.5809  10.9684 41.028  10.9684 41.028  C 10.9684 41.028  9.90260000000001 42.0354  9.90260000000001 42.0354  C 9.90260000000001 42.0354  8.15160000000003 42.1485  8.15160000000003 42.1485  C 8.15160000000003 42.1485  7.4665 43.5331  7.4665 43.5331  C 7.4665 43.5331  6.14880000000005 43.5008  6.14880000000005 43.5008  C 6.14880000000005 43.5008  5.75059999999996 40.6024  5.75059999999996 40.6024  C 5.75059999999996 40.6024  5.86189999999999 39.4174  5.86189999999999 39.4174  C 5.86189999999999 39.4174  6.61149999999998 38.1247  6.61149999999998 38.1247  C 6.61149999999998 38.1247  4.70240000000001 36.8322  4.70240000000001 36.8322  C 4.70240000000001 36.8322  3.97040000000004 35.8252  3.97040000000004 35.8252  C 3.97040000000004 35.8252  3.81230000000005 34.872  3.81230000000005 34.872  C 3.81230000000005 34.872  2.20770000000005 33.6498  2.20770000000005 33.6498  C 2.20770000000005 33.6498  1.38189999999997 31.8087  1.38189999999997 31.8087  C 1.38189999999997 31.8087  0.778800000000047 31.5933  0.778800000000047 31.5933  C 0.778800000000047 31.5933  1.51080000000002 31.2704  1.51080000000002 31.2704  C 1.51080000000002 31.2704  2.04960000000005 29.7524  2.04960000000005 29.7524  C 2.04960000000005 29.7524  1.96759999999995 28.0032  1.96759999999995 28.0032  C 1.96759999999995 28.0032  3.11540000000002 27.2014  3.11540000000002 27.2014  C 3.11540000000002 27.2014  3.49599999999998 27.3144  3.49599999999998 27.3144  C 3.49599999999998 27.3144  3.32029999999997 25.7968  3.32029999999997 25.7968  C 3.32029999999997 25.7968  4.82529999999997 25.4041  4.82529999999997 25.4041  C 4.82529999999997 25.4041  5.60419999999999 23.7953  5.60419999999999 23.7953  C 5.60419999999999 23.7953  6.95690000000002 22.8646  6.95690000000002 22.8646  C 6.95690000000002 22.8646  7.51329999999996 23.6233  7.51329999999996 23.6233  C 7.51329999999996 23.6233  8.06960000000004 25.2534  8.06960000000004 25.2534  C 8.06960000000004 25.2534  8.97730000000001 26.7817  8.97730000000001 26.7817  C 8.97730000000001 26.7817  9.69179999999994 27.2336  9.69179999999994 27.2336  C 9.69179999999994 27.2336  10.4999 27.0722  10.4999 27.0722  C 10.4999 27.0722  10.7048 26.0821  10.7048 26.0821  C 10.7048 26.0821  11.8644 25.926  11.8644 25.926  C 11.8644 25.926  12.4851 26.3942  12.4851 26.3942  C 12.4851 26.3942  13.7325 26.2166  13.7325 26.2166  C 13.7325 26.2166  14.5055 26.9484  14.5055 26.9484  C 14.5055 26.9484  15.0501 26.109  15.0501 26.109  C 15.0501 26.109  14.6753 24.7261  14.6753 24.7261  C 14.6753 24.7261  15.665 24.3334  15.665 24.3334  C 15.665 24.3334  16.1686 23.209  16.1686 23.209  C 16.1686 23.209  15.7236 22.9023  15.7236 22.9023  C 15.7236 22.9023  16.5024 20.6806  16.5024 20.6806  C 16.5024 20.6806  15.4191 18.8305  15.4191 18.8305  C 15.4191 18.8305  16.1569 18.6638  16.1569 18.6638  C 16.1569 18.6638  16.1921 17.8571  16.1921 17.8571  C 16.1921 17.8571  15.5655 16.959  15.5655 16.959  C 15.5655 16.959  16.9709 13.9912  16.9709 13.9912  C 16.9709 13.9912  18.2065 12.3353  18.2065 12.3353  C 18.2065 12.3353  20.1742 12.674  20.1742 12.674  C 20.1742 12.674  20.426 13.846  20.426 13.846  C 20.426 13.846  21.3806 15.0771  21.3806 15.0771  C 21.3806 15.0771  22.9149 15.9052  22.9149 15.9052  C 22.9149 15.9052  23.0378 16.4913  23.0378 16.4913  C 23.0378 16.4913  24.3261 15.3944  24.3261 15.3944  C 24.3261 15.3944  25.0113 15.6686  25.0113 15.6686  C 25.0113 15.6686  27.3655 13.9374  27.3655 13.9374  C 27.3655 13.9374  27.6817 12.8461  27.6817 12.8461  C 27.6817 12.8461  28.73 12.0075  28.73 12.0075  C 28.73 12.0075  29.7606 10.696  29.7606 10.696  C 29.7606 10.696  31.3476000000001 10.8465  31.3476000000001 10.8465  C 31.3476000000001 10.8465  32.1792 12.2279  32.1792 12.2279  C 32.1792 12.2279  31.7049 13.0127  31.7049 13.0127  C 31.7049 13.0127  32.4662 13.9858  32.4662 13.9858  C 32.4662 13.9858  33.854 13.6309  33.854 13.6309  C 33.854 13.6309  35.1072 14.5126  35.1072 14.5126  C 35.1072 14.5126  35.1599 13.8137  35.1599 13.8137  C 35.1599 13.8137  36.378 14.1793  36.378 14.1793  C 36.378 14.1793  36.5186 14.8406  36.5186 14.8406  C 36.5186 14.8406  37.5083 15.8461  37.5083 15.8461  C 37.5083 15.8461  38.3925 16.2385  38.3925 16.2385  C 38.3925 16.2385  38.9547 15.6471  38.9547 15.6471  C 38.9547 15.6471  39.8097 16.4106  39.8097 16.4106  C 39.8097 16.4106  42.0453 16.0718  42.0453 16.0718  C 42.0453 16.0718  43.3571 16.8837  43.3571 16.8837  C 43.3571 16.8837  44.4873 16.8999  44.4873 16.8999  C 44.4873 16.8999  45.436 15.6632  45.436 15.6632  C 45.436 15.6632  45.5941 14.7546  45.5941 14.7546  C 45.5941 14.7546  46.4666999999999 14.3244  46.4666999999999 14.3244  C 46.4666999999999 14.3244  46.1622 13.2062  46.1622 13.2062  C 46.1622 13.2062  45.4184 12.7009  45.4184 12.7009  C 45.4184 12.7009  45.8284 10.954  45.8284 10.954  C 45.8284 10.954  45.682 9.8253  45.682 9.8253  C 45.682 9.8253  46.8122 9.79839999999999  46.8122 9.79839999999999  C 46.8122 9.79839999999999  48.2234999999999 8.08940000000001  48.2234999999999 8.08940000000001  C 48.2234999999999 8.08940000000001  48.2059 6.41829999999999  48.2059 6.41829999999999  C 48.2059 6.41829999999999  49.2424 5.41370000000001  49.2424 5.41370000000001  C 49.2424 5.41370000000001  49.951 5.53720000000001  49.951 5.53720000000001  C 49.951 5.53720000000001  49.6583000000001 6.49889999999999  49.6583000000001 6.49889999999999  C 49.6583000000001 6.49889999999999  52.598 3.61930000000001  52.598 3.61930000000001  C 52.598 3.61930000000001  52.5688 2.5127  52.5688 2.5127  C 52.5688 2.5127  53.8864 1.9111  53.8864 1.9111  C 53.8864 1.9111  54.4544 2.32480000000001  54.4544 2.32480000000001  C 54.4544 2.32480000000001  55.2742 1.23439999999999  55.2742 1.23439999999999  C 55.2742 1.23439999999999  56.2991 0.65440000000001  56.2991 0.65440000000001  C 56.2991 0.65440000000001  57.4761999999999 0.815400000000011  57.4761999999999 0.815400000000011  C 57.4761999999999 0.815400000000011  57.7279 2.3569  57.7279 2.3569  C 57.7279 2.3569  58.6005 3.05529999999999  58.6005 3.05529999999999  C 58.6005 3.05529999999999  58.9519 3.9631  58.9519 3.9631  C 58.9519 3.9631  60.0001 4.9838  60.0001 4.9838  C 60.0001 4.9838  60.2402 6.57409999999999  60.2402 6.57409999999999  C 60.2402 6.57409999999999  60.7087 7.1062  60.7087 7.1062  C 60.7087 7.1062  61.3002 6.8536  61.3002 6.8536  C 61.3002 6.8536  62.7232 8.92240000000001  62.7232 8.92240000000001  C 62.7232 8.92240000000001  64.8197 9.304  64.8197 9.304  C 64.8197 9.304  65.0364 10.4112  65.0364 10.4112  C 65.0364 10.4112  65.8269 11.4269  65.8269 11.4269  C 65.8269 11.4269  66.1138999999999 10.6153  66.1138999999999 10.6153  C 66.1138999999999 10.6153  67.7829 11.4484  67.7829 11.4484  C 67.7829 11.4484  68.105 12.8407  68.105 12.8407  C 68.105 12.8407  68.8955 12.5396  68.8955 12.5396  C 68.8955 12.5396  71.1326 12.8407  71.1326 12.8407  C 71.1326 12.8407  72.1281 15.0448  72.1281 15.0448  C 72.1281 15.0448  72.0461 15.8353  72.0461 15.8353  C 72.0461 15.8353  72.6142 16.7763  72.6142 16.7763  C 72.6142 16.7763  72.6258 17.9001  72.6258 17.9001  C 72.6258 17.9001  72.134 18.2013  72.134 18.2013  C 72.134 18.2013  72.0578 19.5405  72.0578 19.5405  C 72.0578 19.5405  72.6317 19.5458  72.6317 19.5458  C 72.6317 19.5458  72.5966 20.4225  72.5966 20.4225  C 72.5966 20.4225  73.2818 21.2186  73.2818 21.2186  C 73.2818 21.2186  73.9903 20.6269  73.9903 20.6269  C 73.9903 20.6269  75.1733 21.6757  75.1733 21.6757  C 75.1733 21.6757  75.0151 22.913  75.0151 22.913  C 75.0151 22.913  75.4485 23.7738  75.4485 23.7738  C 75.4485 23.7738  74.1484 24.4894  74.1484 24.4894  C 74.1484 24.4894  74.1777 25.2265  74.1777 25.2265  C 74.1777 25.2265  73.475 25.8184  73.475 25.8184  C 73.475 25.8184  73.3871 28.1539  73.3871 28.1539  C 73.3871 28.1539  74.2363 29.1765  74.2363 29.1765  C 74.2363 29.1765  74.6286 30.5167  74.6286 30.5167  C 74.6286 30.5167  76.2215 31.3887  76.2215 31.3887  C 76.2215 31.3887  76.6666 31.2166  76.6666 31.2166  C 76.6666 31.2166  78.3297 32.3147  78.3297 32.3147  C 78.3297 32.3147  79.2021999999999 32.1478  79.2021999999999 32.1478  C 79.2021999999999 32.1478  80.2564 33.7629  80.2564 33.7629  C 80.2564 33.7629  79.9928 35.9221  79.9928 35.9221  C 79.9928 35.9221  78.7631 35.5236  78.7631 35.5236  C 78.7631 35.5236  78.1072 34.5329  78.1072 34.5329  C 78.1072 34.5329  76.9242 33.4884  76.9242 33.4884  C 76.9242 33.4884  76.7837 32.6  76.7837 32.6  C 76.7837 32.6  76.1864 32.6861  76.1864 32.6861  C 76.1864 32.6861  76.1512 34.0267  76.1512 34.0267  C 76.1512 34.0267  76.8891 34.4952  76.8891 34.4952  C 76.8891 34.4952  77.018 36.2128  77.018 36.2128  C 77.018 36.2128  76.3152 36.5521  76.3152 36.5521  C 76.3152 36.5521  75.8058 38.1032  75.8058 38.1032  C 75.8058 38.1032  75.9756 38.6686  75.9756 38.6686  C 75.9756 38.6686  75.3314 40.1283  75.3314 40.1283  C 75.3314 40.1283  75.2729000000001 41.1304  75.2729000000001 41.1304  C 75.2729000000001 41.1304  74.7868 40.2468  74.7868 40.2468  C 74.7868 40.2468  74.1075 37.6615  74.1075 37.6615  C 74.1075 37.6615  73.4808 36.4337  73.4808 36.4337  C 73.4808 36.4337  71.8412 35.0928  71.8412 35.0928  C 71.8412 35.0928  70.992 34.8936  70.992 34.8936  C 70.992 34.8936  67.7243 35.0821  67.7243 35.0821  C 67.7243 35.0821  67.4315 34.5867  67.4315 34.5867  C 67.4315 34.5867  67.9117 33.2299  67.9117 33.2299  C 67.9117 33.2299  68.7257 32.2447  68.7257 32.2447  C 68.7257 32.2447  69.3757000000001 30.8935  69.3757000000001 30.8935  C 69.3757000000001 30.8935  69.4636 29.4564  69.4636 29.4564  C 69.4636 29.4564  68.7198 28.6706  68.7198 28.6706  C 68.7198 28.6706  67.4373000000001 28.9666  67.4373000000001 28.9666  C 67.4373000000001 28.9666  66.1314 29.9139  66.1314 29.9139  C 66.1314 29.9139  65.1476 31.4426  65.1476 31.4426  C 65.1476 31.4426  64.4332000000001 31.9217  64.4332000000001 31.9217  C 64.4332000000001 31.9217  63.6074 30.7913  63.6074 30.7913  C 63.6074 30.7913  63.5489 27.6804  63.5489 27.6804  C 63.5489 27.6804  63.0863000000001 27.4435  63.0863000000001 27.4435  C 63.0863000000001 27.4435  62.4948000000001 28.6867  62.4948000000001 28.6867  C 62.4948000000001 28.6867  60.6559999999999 28.6598  60.6559999999999 28.6598  C 60.6559999999999 28.6598  58.9988 31.5502  58.9988 31.5502  C 58.9988 31.5502  58.6473 33.8598  58.6473 33.8598  C 58.6473 33.8598  57.2419 34.4683  57.2419 34.4683  C 57.2419 34.4683  56.2697 33.9029  56.2697 33.9029  C 56.2697 33.9029  56.059 34.6083  56.059 34.6083  C 56.059 34.6083  56.5157 36.6975  56.5157 36.6975  C 56.5157 36.6975  57.1950000000001 36.4283  57.1950000000001 36.4283  C 57.1950000000001 36.4283  58.255 38.0816  58.255 38.0816  C 58.255 38.0816  58.2199000000001 38.9595  58.2199000000001 38.9595  C 58.2199000000001 38.9595  58.6649 40.2846  58.6649 40.2846  C 58.6649 40.2846  58.5712 43.1829  58.5712 43.1829  C 58.5712 43.1829  58.9636 44.282  58.9636 44.282  C 58.9636 44.282  58.5009 45.4568  58.5009 45.4568  C 58.5009 45.4568  57.0368999999999 45.3975  57.0368999999999 45.3975  C 57.0368999999999 45.3975  56.2639 45.8124  56.2639 45.8124  C 56.2639 45.8124  56.2464 47.4645  56.2464 47.4645  C 56.2464 47.4645  57.1248000000001 48.4238  57.1248000000001 48.4238  C 57.1248000000001 48.4238  56.9725 50.1485  56.9725 50.1485  C 56.9725 50.1485  56.5684 49.8143  56.5684 49.8143  C 56.5684 49.8143  55.4558 50.5043  55.4558 50.5043  C 55.4558 50.5043  55.7427 51.4638  55.7427 51.4638  C 55.7427 51.4638  54.9521999999999 52.2077  54.9521999999999 52.2077  C 54.9521999999999 52.2077  55.1922 52.8709  55.1922 52.8709  C 55.1922 52.8709  54.671 53.8197  54.671 53.8197  C 54.671 53.8197  54.3197 56.2355  54.3197 56.2355  C 54.3197 56.2355  53.1954 57.643  53.1954 57.643  C 53.1954 57.643  52.2291 57.4488  52.2291 57.4488  C 52.2291 57.4488  51.6903 58.576  51.6903 58.576  C 51.6903 58.576  51.8133 59.7519  51.8133 59.7519  C 51.8133 59.7519  52.4165 59.7842  52.4165 59.7842  C 52.4165 59.7842  52.0534 60.6257  52.0534 60.6257  C 52.0534 60.6257  51.1574000000001 61.1543  51.1574000000001 61.1543  C 51.1574000000001 61.1543  51.8895 62.8213  51.8895 62.8213  C 51.8895 62.8213  51.1282 62.708  51.1282 62.708  C 51.1282 62.708  51.3214 65.1307  51.3214 65.1307  C 51.3214 65.1307  50.5308 66.3611  50.5308 66.3611  C 50.5308 66.3611  51.8307999999999 68.1421  51.8307999999999 68.1421  C 51.8307999999999 68.1421  54.144 69.4105  54.144 69.4105  C 54.144 69.4105  54.1088999999999 70.5657  54.1088999999999 70.5657  C 54.1088999999999 70.5657  54.9873 70.8842  54.9873 70.8842  C 54.9873 70.8842  55.7486 70.204  55.7486 70.204  C 55.7486 70.204  56.873 70.841  56.873 70.841  C 56.873 70.841  57.8742999999999 71.856  57.8742999999999 71.856  C 57.8742999999999 71.856  58.337 74.7014  58.337 74.7014  C 58.337 74.7014  59.9884 74.8094  59.9884 74.8094  C 59.9884 74.8094  60.4979 75.533  60.4979 75.533  C 60.4979 75.533  60.1231 75.8949  60.1231 75.8949  C 60.1231 75.8949  60.9195 76.613  60.9195 76.613  C 60.9195 76.613  62.0966 76.1325  62.0966 76.1325  C 62.0966 76.1325  62.8286 75.1712  62.8286 75.1712  C 62.8286 75.1712  64.4624 74.21  64.4624 74.21  C 64.4624 74.21  65.2531 72.493  65.2531 72.493  C 65.2531 72.493  65.9675 71.9207  65.9675 71.9207  C 65.9675 71.9207  65.8855 71.1649  65.8855 71.1649  C 65.8855 71.1649  66.5297 71.3809  66.5297 71.3809  C 66.5297 71.3809  68.4329 70.0474  68.4329 70.0474  C 68.4329 70.0474  70.7987000000001 70.4145  70.7987000000001 70.4145  C 70.7987000000001 70.4145  71.6011 71.0353  71.6011 71.0353  Z " fill-rule="nonzero" fill="#ffffff" stroke="none" transform="matrix(1 0 0 1 630 277 )" />
    <path d="M 71.6011 71.0353  C 71.6011 71.0353  74.0665 69.8802  74.0665 69.8802  C 74.0665 69.8802  74.9213999999999 71.1973  74.9213999999999 71.1973  C 74.9213999999999 71.1973  75.0795000000001 72.1961  75.0795000000001 72.1961  C 75.0795000000001 72.1961  74.4354 74.939  74.4354 74.939  C 74.4354 74.939  74.8805 78.0389  74.8805 78.0389  C 74.8805 78.0389  75.8584 78.9248  75.8584 78.9248  C 75.8584 78.9248  74.7868 79.9565  74.7868 79.9565  C 74.7868 79.9565  74.8688 80.5939  74.8688 80.5939  C 74.8688 80.5939  73.9025 81.2908  73.9025 81.2908  C 73.9025 81.2908  73.1822 81.2206  73.1822 81.2206  C 73.1822 81.2206  72.5848999999999 82.2417  72.5848999999999 82.2417  C 72.5848999999999 82.2417  72.3096 84.2031  72.3096 84.2031  C 72.3096 84.2031  71.2731 86.8835  71.2731 86.8835  C 71.2731 86.8835  70.4767000000001 87.7105  70.4767000000001 87.7105  C 70.4767000000001 87.7105  69.0536 87.6834  69.0536 87.6834  C 69.0536 87.6834  68.0405 87.0132  68.0405 87.0132  C 68.0405 87.0132  66.2486 87.1105  66.2486 87.1105  C 66.2486 87.1105  61.0835 88.8996  61.0835 88.8996  C 61.0835 88.8996  57.441 86.9105  57.441 86.9105  C 57.441 86.9105  56.0941 85.4731  56.0941 85.4731  C 56.0941 85.4731  54.9814 85.6082  54.9814 85.6082  C 54.9814 85.6082  52.4340999999999 86.9484  52.4340999999999 86.9484  C 52.4340999999999 86.9484  50.7065 88.624  50.7065 88.624  C 50.7065 88.624  49.1839 89.3807  49.1839 89.3807  C 49.1839 89.3807  48.9555 88.1213  48.9555 88.1213  C 48.9555 88.1213  48.0185 88.2077  48.0185 88.2077  C 48.0185 88.2077  46.9938 87.6294  46.9938 87.6294  C 46.9938 87.6294  45.7171 88.1969  45.7171 88.1969  C 45.7171 88.1969  44.6864 89.4618  44.6864 89.4618  C 44.6864 89.4618  45.0261 91.527  45.0261 91.527  C 45.0261 91.527  43.7729000000001 92.2623  43.7729000000001 92.2623  C 43.7729000000001 92.2623  42.8359 91.846  42.8359 91.846  C 42.8359 91.846  42.1683 90.7971  42.1683 90.7971  C 42.1683 90.7971  41.3543 91.6189  41.3543 91.6189  C 41.3543 91.6189  39.2474999999999 91.7595  39.2474999999999 91.7595  C 39.2474999999999 91.7595  37.4614 90.7052  37.4614 90.7052  C 37.4614 90.7052  36.9754 89.251  36.9754 89.251  C 36.9754 89.251  35.0955 88.7753  35.0955 88.7753  C 35.0955 88.7753  32.8995 86.8727  32.8995 86.8727  C 32.8995 86.8727  32.1967 87.3862  32.1967 87.3862  C 32.1967 87.3862  31.2773 86.208  31.2773 86.208  C 31.2773 86.208  31.0431 87.0457  31.0431 87.0457  C 31.0431 87.0457  29.5674 88.2186  29.5674 88.2186  C 29.5674 88.2186  29.2569999999999 86.9214  29.2569999999999 86.9214  C 29.2569999999999 86.9214  28.3317 86.3971  28.3317 86.3971  C 28.3317 86.3971  29.1516 85.5757  29.1516 85.5757  C 29.1516 85.5757  28.8002 83.7438  28.8002 83.7438  C 28.8002 83.7438  28.0565 85.8027  28.0565 85.8027  C 28.0565 85.8027  27.711 85.0461  27.711 85.0461  C 27.711 85.0461  26.5515 85.1218  26.5515 85.1218  C 26.5515 85.1218  26.9321 83.452  26.9321 83.452  C 26.9321 83.452  26.3524 81.9878  26.3524 81.9878  C 26.3524 81.9878  26.9848 81.6852  26.9848 81.6852  C 26.9848 81.6852  26.6803 81.0747  26.6803 81.0747  C 26.6803 81.0747  27.7871 78.8924  27.7871 78.8924  C 27.7871 78.8924  27.3655 78.471  27.3655 78.471  C 27.3655 78.471  26.4285 80.0376  26.4285 80.0376  C 26.4285 80.0376  25.0054 78.8762  25.0054 78.8762  C 25.0054 78.8762  26.083 77.569  26.083 77.569  C 26.083 77.569  27.0785 78.1902  27.0785 78.1902  C 27.0785 78.1902  27.4299 76.7643  27.4299 76.7643  C 27.4299 76.7643  28.3200000000001 75.8517  28.3200000000001 75.8517  C 28.3200000000001 75.8517  28.1502 75.2738  28.1502 75.2738  C 28.1502 75.2738  27.1078 74.426  27.1078 74.426  C 27.1078 74.426  27.0493 73.9454  27.0493 73.9454  C 27.0493 73.9454  26.083 73.8266  26.083 73.8266  C 26.083 73.8266  26.2469 72.2933  26.2469 72.2933  C 26.2469 72.2933  24.7888 70.4685  24.7888 70.4685  C 24.7888 70.4685  24.9703 69.362  24.9703 69.362  C 24.9703 69.362  24.4725 69.227  24.4725 69.227  C 24.4725 69.227  23.8752 67.8668  23.8752 67.8668  C 23.8752 67.8668  23.1138999999999 67.4782  23.1138999999999 67.4782  C 23.1138999999999 67.4782  21.9426999999999 68.4875  21.9426999999999 68.4875  C 21.9426999999999 68.4875  20.4787 68.6602  20.4787 68.6602  C 20.4787 68.6602  19.4948000000001 70.6035  19.4948000000001 70.6035  C 19.4948000000001 70.6035  18.0777000000001 69.2378  18.0777000000001 69.2378  C 18.0777000000001 69.2378  18.0953 68.1475  18.0953 68.1475  C 18.0953 68.1475  15.5244 67.1167  15.5244 67.1167  C 15.5244 67.1167  14.9037 66.4529  14.9037 66.4529  C 14.9037 66.4529  14.0838 64.5426  14.0838 64.5426  C 14.0838 64.5426  12.772 64.4455  12.772 64.4455  C 12.772 64.4455  11.9698 63.5713  11.9698 63.5713  C 11.9698 63.5713  9.87909999999999 61.942  9.87909999999999 61.942  C 9.87909999999999 61.942  10.4823 61.0249  10.4823 61.0249  C 10.4823 61.0249  10.2598 60.383  10.2598 60.383  C 10.2598 60.383  10.8747 59.1585  10.8747 59.1585  C 10.8747 59.1585  11.9054 60.9439  11.9054 60.9439  C 11.9054 60.9439  12.3329 58.6677  12.3329 58.6677  C 12.3329 58.6677  11.7473 57.6753  11.7473 57.6753  C 11.7473 57.6753  11.6829 56.5859  11.6829 56.5859  C 11.6829 56.5859  12.3622 55.7124  12.3622 55.7124  C 12.3622 55.7124  13.1235 55.7663  13.1235 55.7663  C 13.1235 55.7663  15.3546 55.2809  15.3546 55.2809  C 15.3546 55.2809  16.397 55.3241  16.397 55.3241  C 16.397 55.3241  17.9781 54.3697  17.9781 54.3697  C 17.9781 54.3697  17.4394 52.9139  17.4394 52.9139  C 17.4394 52.9139  15.3839 51.4692  15.3839 51.4692  C 15.3839 51.4692  15.3546 49.173  15.3546 49.173  C 15.3546 49.173  15.7177 47.6154  15.7177 47.6154  C 15.7177 47.6154  16.5434 47.3837  16.5434 47.3837  C 16.5434 47.3837  17.0646 45.4622  17.0646 45.4622  C 17.0646 45.4622  16.4204999999999 44.3467  16.4204999999999 44.3467  C 16.4204999999999 44.3467  14.5992 42.0785  14.5992 42.0785  C 14.5992 42.0785  13.8554 40.5809  13.8554 40.5809  C 13.8554 40.5809  10.9684 41.028  10.9684 41.028  C 10.9684 41.028  9.90260000000001 42.0354  9.90260000000001 42.0354  C 9.90260000000001 42.0354  8.15160000000003 42.1485  8.15160000000003 42.1485  C 8.15160000000003 42.1485  7.4665 43.5331  7.4665 43.5331  C 7.4665 43.5331  6.14880000000005 43.5008  6.14880000000005 43.5008  C 6.14880000000005 43.5008  5.75059999999996 40.6024  5.75059999999996 40.6024  C 5.75059999999996 40.6024  5.86189999999999 39.4174  5.86189999999999 39.4174  C 5.86189999999999 39.4174  6.61149999999998 38.1247  6.61149999999998 38.1247  C 6.61149999999998 38.1247  4.70240000000001 36.8322  4.70240000000001 36.8322  C 4.70240000000001 36.8322  3.97040000000004 35.8252  3.97040000000004 35.8252  C 3.97040000000004 35.8252  3.81230000000005 34.872  3.81230000000005 34.872  C 3.81230000000005 34.872  2.20770000000005 33.6498  2.20770000000005 33.6498  C 2.20770000000005 33.6498  1.38189999999997 31.8087  1.38189999999997 31.8087  C 1.38189999999997 31.8087  0.778800000000047 31.5933  0.778800000000047 31.5933  C 0.778800000000047 31.5933  1.51080000000002 31.2704  1.51080000000002 31.2704  C 1.51080000000002 31.2704  2.04960000000005 29.7524  2.04960000000005 29.7524  C 2.04960000000005 29.7524  1.96759999999995 28.0032  1.96759999999995 28.0032  C 1.96759999999995 28.0032  3.11540000000002 27.2014  3.11540000000002 27.2014  C 3.11540000000002 27.2014  3.49599999999998 27.3144  3.49599999999998 27.3144  C 3.49599999999998 27.3144  3.32029999999997 25.7968  3.32029999999997 25.7968  C 3.32029999999997 25.7968  4.82529999999997 25.4041  4.82529999999997 25.4041  C 4.82529999999997 25.4041  5.60419999999999 23.7953  5.60419999999999 23.7953  C 5.60419999999999 23.7953  6.95690000000002 22.8646  6.95690000000002 22.8646  C 6.95690000000002 22.8646  7.51329999999996 23.6233  7.51329999999996 23.6233  C 7.51329999999996 23.6233  8.06960000000004 25.2534  8.06960000000004 25.2534  C 8.06960000000004 25.2534  8.97730000000001 26.7817  8.97730000000001 26.7817  C 8.97730000000001 26.7817  9.69179999999994 27.2336  9.69179999999994 27.2336  C 9.69179999999994 27.2336  10.4999 27.0722  10.4999 27.0722  C 10.4999 27.0722  10.7048 26.0821  10.7048 26.0821  C 10.7048 26.0821  11.8644 25.926  11.8644 25.926  C 11.8644 25.926  12.4851 26.3942  12.4851 26.3942  C 12.4851 26.3942  13.7325 26.2166  13.7325 26.2166  C 13.7325 26.2166  14.5055 26.9484  14.5055 26.9484  C 14.5055 26.9484  15.0501 26.109  15.0501 26.109  C 15.0501 26.109  14.6753 24.7261  14.6753 24.7261  C 14.6753 24.7261  15.665 24.3334  15.665 24.3334  C 15.665 24.3334  16.1686 23.209  16.1686 23.209  C 16.1686 23.209  15.7236 22.9023  15.7236 22.9023  C 15.7236 22.9023  16.5024 20.6806  16.5024 20.6806  C 16.5024 20.6806  15.4191 18.8305  15.4191 18.8305  C 15.4191 18.8305  16.1569 18.6638  16.1569 18.6638  C 16.1569 18.6638  16.1921 17.8571  16.1921 17.8571  C 16.1921 17.8571  15.5655 16.959  15.5655 16.959  C 15.5655 16.959  16.9709 13.9912  16.9709 13.9912  C 16.9709 13.9912  18.2065 12.3353  18.2065 12.3353  C 18.2065 12.3353  20.1742 12.674  20.1742 12.674  C 20.1742 12.674  20.426 13.846  20.426 13.846  C 20.426 13.846  21.3806 15.0771  21.3806 15.0771  C 21.3806 15.0771  22.9149 15.9052  22.9149 15.9052  C 22.9149 15.9052  23.0378 16.4913  23.0378 16.4913  C 23.0378 16.4913  24.3261 15.3944  24.3261 15.3944  C 24.3261 15.3944  25.0113 15.6686  25.0113 15.6686  C 25.0113 15.6686  27.3655 13.9374  27.3655 13.9374  C 27.3655 13.9374  27.6817 12.8461  27.6817 12.8461  C 27.6817 12.8461  28.73 12.0075  28.73 12.0075  C 28.73 12.0075  29.7606 10.696  29.7606 10.696  C 29.7606 10.696  31.3476000000001 10.8465  31.3476000000001 10.8465  C 31.3476000000001 10.8465  32.1792 12.2279  32.1792 12.2279  C 32.1792 12.2279  31.7049 13.0127  31.7049 13.0127  C 31.7049 13.0127  32.4662 13.9858  32.4662 13.9858  C 32.4662 13.9858  33.854 13.6309  33.854 13.6309  C 33.854 13.6309  35.1072 14.5126  35.1072 14.5126  C 35.1072 14.5126  35.1599 13.8137  35.1599 13.8137  C 35.1599 13.8137  36.378 14.1793  36.378 14.1793  C 36.378 14.1793  36.5186 14.8406  36.5186 14.8406  C 36.5186 14.8406  37.5083 15.8461  37.5083 15.8461  C 37.5083 15.8461  38.3925 16.2385  38.3925 16.2385  C 38.3925 16.2385  38.9547 15.6471  38.9547 15.6471  C 38.9547 15.6471  39.8097 16.4106  39.8097 16.4106  C 39.8097 16.4106  42.0453 16.0718  42.0453 16.0718  C 42.0453 16.0718  43.3571 16.8837  43.3571 16.8837  C 43.3571 16.8837  44.4873 16.8999  44.4873 16.8999  C 44.4873 16.8999  45.436 15.6632  45.436 15.6632  C 45.436 15.6632  45.5941 14.7546  45.5941 14.7546  C 45.5941 14.7546  46.4666999999999 14.3244  46.4666999999999 14.3244  C 46.4666999999999 14.3244  46.1622 13.2062  46.1622 13.2062  C 46.1622 13.2062  45.4184 12.7009  45.4184 12.7009  C 45.4184 12.7009  45.8284 10.954  45.8284 10.954  C 45.8284 10.954  45.682 9.8253  45.682 9.8253  C 45.682 9.8253  46.8122 9.79839999999999  46.8122 9.79839999999999  C 46.8122 9.79839999999999  48.2234999999999 8.08940000000001  48.2234999999999 8.08940000000001  C 48.2234999999999 8.08940000000001  48.2059 6.41829999999999  48.2059 6.41829999999999  C 48.2059 6.41829999999999  49.2424 5.41370000000001  49.2424 5.41370000000001  C 49.2424 5.41370000000001  49.951 5.53720000000001  49.951 5.53720000000001  C 49.951 5.53720000000001  49.6583000000001 6.49889999999999  49.6583000000001 6.49889999999999  C 49.6583000000001 6.49889999999999  52.598 3.61930000000001  52.598 3.61930000000001  C 52.598 3.61930000000001  52.5688 2.5127  52.5688 2.5127  C 52.5688 2.5127  53.8864 1.9111  53.8864 1.9111  C 53.8864 1.9111  54.4544 2.32480000000001  54.4544 2.32480000000001  C 54.4544 2.32480000000001  55.2742 1.23439999999999  55.2742 1.23439999999999  C 55.2742 1.23439999999999  56.2991 0.65440000000001  56.2991 0.65440000000001  C 56.2991 0.65440000000001  57.4761999999999 0.815400000000011  57.4761999999999 0.815400000000011  C 57.4761999999999 0.815400000000011  57.7279 2.3569  57.7279 2.3569  C 57.7279 2.3569  58.6005 3.05529999999999  58.6005 3.05529999999999  C 58.6005 3.05529999999999  58.9519 3.9631  58.9519 3.9631  C 58.9519 3.9631  60.0001 4.9838  60.0001 4.9838  C 60.0001 4.9838  60.2402 6.57409999999999  60.2402 6.57409999999999  C 60.2402 6.57409999999999  60.7087 7.1062  60.7087 7.1062  C 60.7087 7.1062  61.3002 6.8536  61.3002 6.8536  C 61.3002 6.8536  62.7232 8.92240000000001  62.7232 8.92240000000001  C 62.7232 8.92240000000001  64.8197 9.304  64.8197 9.304  C 64.8197 9.304  65.0364 10.4112  65.0364 10.4112  C 65.0364 10.4112  65.8269 11.4269  65.8269 11.4269  C 65.8269 11.4269  66.1138999999999 10.6153  66.1138999999999 10.6153  C 66.1138999999999 10.6153  67.7829 11.4484  67.7829 11.4484  C 67.7829 11.4484  68.105 12.8407  68.105 12.8407  C 68.105 12.8407  68.8955 12.5396  68.8955 12.5396  C 68.8955 12.5396  71.1326 12.8407  71.1326 12.8407  C 71.1326 12.8407  72.1281 15.0448  72.1281 15.0448  C 72.1281 15.0448  72.0461 15.8353  72.0461 15.8353  C 72.0461 15.8353  72.6142 16.7763  72.6142 16.7763  C 72.6142 16.7763  72.6258 17.9001  72.6258 17.9001  C 72.6258 17.9001  72.134 18.2013  72.134 18.2013  C 72.134 18.2013  72.0578 19.5405  72.0578 19.5405  C 72.0578 19.5405  72.6317 19.5458  72.6317 19.5458  C 72.6317 19.5458  72.5966 20.4225  72.5966 20.4225  C 72.5966 20.4225  73.2818 21.2186  73.2818 21.2186  C 73.2818 21.2186  73.9903 20.6269  73.9903 20.6269  C 73.9903 20.6269  75.1733 21.6757  75.1733 21.6757  C 75.1733 21.6757  75.0151 22.913  75.0151 22.913  C 75.0151 22.913  75.4485 23.7738  75.4485 23.7738  C 75.4485 23.7738  74.1484 24.4894  74.1484 24.4894  C 74.1484 24.4894  74.1777 25.2265  74.1777 25.2265  C 74.1777 25.2265  73.475 25.8184  73.475 25.8184  C 73.475 25.8184  73.3871 28.1539  73.3871 28.1539  C 73.3871 28.1539  74.2363 29.1765  74.2363 29.1765  C 74.2363 29.1765  74.6286 30.5167  74.6286 30.5167  C 74.6286 30.5167  76.2215 31.3887  76.2215 31.3887  C 76.2215 31.3887  76.6666 31.2166  76.6666 31.2166  C 76.6666 31.2166  78.3297 32.3147  78.3297 32.3147  C 78.3297 32.3147  79.2021999999999 32.1478  79.2021999999999 32.1478  C 79.2021999999999 32.1478  80.2564 33.7629  80.2564 33.7629  C 80.2564 33.7629  79.9928 35.9221  79.9928 35.9221  C 79.9928 35.9221  78.7631 35.5236  78.7631 35.5236  C 78.7631 35.5236  78.1072 34.5329  78.1072 34.5329  C 78.1072 34.5329  76.9242 33.4884  76.9242 33.4884  C 76.9242 33.4884  76.7837 32.6  76.7837 32.6  C 76.7837 32.6  76.1864 32.6861  76.1864 32.6861  C 76.1864 32.6861  76.1512 34.0267  76.1512 34.0267  C 76.1512 34.0267  76.8891 34.4952  76.8891 34.4952  C 76.8891 34.4952  77.018 36.2128  77.018 36.2128  C 77.018 36.2128  76.3152 36.5521  76.3152 36.5521  C 76.3152 36.5521  75.8058 38.1032  75.8058 38.1032  C 75.8058 38.1032  75.9756 38.6686  75.9756 38.6686  C 75.9756 38.6686  75.3314 40.1283  75.3314 40.1283  C 75.3314 40.1283  75.2729000000001 41.1304  75.2729000000001 41.1304  C 75.2729000000001 41.1304  74.7868 40.2468  74.7868 40.2468  C 74.7868 40.2468  74.1075 37.6615  74.1075 37.6615  C 74.1075 37.6615  73.4808 36.4337  73.4808 36.4337  C 73.4808 36.4337  71.8412 35.0928  71.8412 35.0928  C 71.8412 35.0928  70.992 34.8936  70.992 34.8936  C 70.992 34.8936  67.7243 35.0821  67.7243 35.0821  C 67.7243 35.0821  67.4315 34.5867  67.4315 34.5867  C 67.4315 34.5867  67.9117 33.2299  67.9117 33.2299  C 67.9117 33.2299  68.7257 32.2447  68.7257 32.2447  C 68.7257 32.2447  69.3757000000001 30.8935  69.3757000000001 30.8935  C 69.3757000000001 30.8935  69.4636 29.4564  69.4636 29.4564  C 69.4636 29.4564  68.7198 28.6706  68.7198 28.6706  C 68.7198 28.6706  67.4373000000001 28.9666  67.4373000000001 28.9666  C 67.4373000000001 28.9666  66.1314 29.9139  66.1314 29.9139  C 66.1314 29.9139  65.1476 31.4426  65.1476 31.4426  C 65.1476 31.4426  64.4332000000001 31.9217  64.4332000000001 31.9217  C 64.4332000000001 31.9217  63.6074 30.7913  63.6074 30.7913  C 63.6074 30.7913  63.5489 27.6804  63.5489 27.6804  C 63.5489 27.6804  63.0863000000001 27.4435  63.0863000000001 27.4435  C 63.0863000000001 27.4435  62.4948000000001 28.6867  62.4948000000001 28.6867  C 62.4948000000001 28.6867  60.6559999999999 28.6598  60.6559999999999 28.6598  C 60.6559999999999 28.6598  58.9988 31.5502  58.9988 31.5502  C 58.9988 31.5502  58.6473 33.8598  58.6473 33.8598  C 58.6473 33.8598  57.2419 34.4683  57.2419 34.4683  C 57.2419 34.4683  56.2697 33.9029  56.2697 33.9029  C 56.2697 33.9029  56.059 34.6083  56.059 34.6083  C 56.059 34.6083  56.5157 36.6975  56.5157 36.6975  C 56.5157 36.6975  57.1950000000001 36.4283  57.1950000000001 36.4283  C 57.1950000000001 36.4283  58.255 38.0816  58.255 38.0816  C 58.255 38.0816  58.2199000000001 38.9595  58.2199000000001 38.9595  C 58.2199000000001 38.9595  58.6649 40.2846  58.6649 40.2846  C 58.6649 40.2846  58.5712 43.1829  58.5712 43.1829  C 58.5712 43.1829  58.9636 44.282  58.9636 44.282  C 58.9636 44.282  58.5009 45.4568  58.5009 45.4568  C 58.5009 45.4568  57.0368999999999 45.3975  57.0368999999999 45.3975  C 57.0368999999999 45.3975  56.2639 45.8124  56.2639 45.8124  C 56.2639 45.8124  56.2464 47.4645  56.2464 47.4645  C 56.2464 47.4645  57.1248000000001 48.4238  57.1248000000001 48.4238  C 57.1248000000001 48.4238  56.9725 50.1485  56.9725 50.1485  C 56.9725 50.1485  56.5684 49.8143  56.5684 49.8143  C 56.5684 49.8143  55.4558 50.5043  55.4558 50.5043  C 55.4558 50.5043  55.7427 51.4638  55.7427 51.4638  C 55.7427 51.4638  54.9521999999999 52.2077  54.9521999999999 52.2077  C 54.9521999999999 52.2077  55.1922 52.8709  55.1922 52.8709  C 55.1922 52.8709  54.671 53.8197  54.671 53.8197  C 54.671 53.8197  54.3197 56.2355  54.3197 56.2355  C 54.3197 56.2355  53.1954 57.643  53.1954 57.643  C 53.1954 57.643  52.2291 57.4488  52.2291 57.4488  C 52.2291 57.4488  51.6903 58.576  51.6903 58.576  C 51.6903 58.576  51.8133 59.7519  51.8133 59.7519  C 51.8133 59.7519  52.4165 59.7842  52.4165 59.7842  C 52.4165 59.7842  52.0534 60.6257  52.0534 60.6257  C 52.0534 60.6257  51.1574000000001 61.1543  51.1574000000001 61.1543  C 51.1574000000001 61.1543  51.8895 62.8213  51.8895 62.8213  C 51.8895 62.8213  51.1282 62.708  51.1282 62.708  C 51.1282 62.708  51.3214 65.1307  51.3214 65.1307  C 51.3214 65.1307  50.5308 66.3611  50.5308 66.3611  C 50.5308 66.3611  51.8307999999999 68.1421  51.8307999999999 68.1421  C 51.8307999999999 68.1421  54.144 69.4105  54.144 69.4105  C 54.144 69.4105  54.1088999999999 70.5657  54.1088999999999 70.5657  C 54.1088999999999 70.5657  54.9873 70.8842  54.9873 70.8842  C 54.9873 70.8842  55.7486 70.204  55.7486 70.204  C 55.7486 70.204  56.873 70.841  56.873 70.841  C 56.873 70.841  57.8742999999999 71.856  57.8742999999999 71.856  C 57.8742999999999 71.856  58.337 74.7014  58.337 74.7014  C 58.337 74.7014  59.9884 74.8094  59.9884 74.8094  C 59.9884 74.8094  60.4979 75.533  60.4979 75.533  C 60.4979 75.533  60.1231 75.8949  60.1231 75.8949  C 60.1231 75.8949  60.9195 76.613  60.9195 76.613  C 60.9195 76.613  62.0966 76.1325  62.0966 76.1325  C 62.0966 76.1325  62.8286 75.1712  62.8286 75.1712  C 62.8286 75.1712  64.4624 74.21  64.4624 74.21  C 64.4624 74.21  65.2531 72.493  65.2531 72.493  C 65.2531 72.493  65.9675 71.9207  65.9675 71.9207  C 65.9675 71.9207  65.8855 71.1649  65.8855 71.1649  C 65.8855 71.1649  66.5297 71.3809  66.5297 71.3809  C 66.5297 71.3809  68.4329 70.0474  68.4329 70.0474  C 68.4329 70.0474  70.7987000000001 70.4145  70.7987000000001 70.4145  C 70.7987000000001 70.4145  71.6011 71.0353  71.6011 71.0353  Z " stroke-width="2" stroke="#666666" fill="none" transform="matrix(1 0 0 1 630 277 )" mask="url(#clip47)" />
  </g>
</svg>