<?xml version="1.0" encoding="utf-8"?>
<svg version="1.1" xmlns:xlink="http://www.w3.org/1999/xlink" width="114px" height="100px" xmlns="http://www.w3.org/2000/svg">
  <defs>
    <mask fill="white" id="clip48">
      <path d="M 108.585 64.0458  C 108.585 64.0458  109.6098 64.8254  109.6098 64.8254  C 109.6098 64.8254  110.8396 66.5689  110.8396 66.5689  C 110.8396 66.5689  110.6347 67.6572  110.6347 67.6572  C 110.6347 67.6572  111.4194 68.4262  111.4194 68.4262  C 111.4194 68.4262  111.8995 69.5472  111.8995 69.5472  C 111.8995 69.5472  111.8001 71.5025  111.8001 71.5025  C 111.8001 71.5025  112.6023 72.7104  112.6023 72.7104  C 112.6023 72.7104  113.0591 74.6824  113.0591 74.6824  C 113.0591 74.6824  111.8293 75.6414  111.8293 75.6414  C 111.8293 75.6414  110.1135 76.1994  110.1135 76.1994  C 110.1135 76.1994  109.4927 76.8985  109.4927 76.8985  C 109.4927 76.8985  108.6143 76.9635  108.6143 76.9635  C 108.6143 76.9635  108.0639 75.365  108.0639 75.365  C 108.0639 75.365  106.9512 74.807  106.9512 74.807  C 106.9512 74.807  106.4885 73.3875  106.4885 73.3875  C 106.4885 73.3875  106.8809 72.6075  106.8809 72.6075  C 106.8809 72.6075  107.0625 71.1179  107.0625 71.1179  C 107.0625 71.1179  105.9264 69.6013  105.9264 69.6013  C 105.9264 69.6013  106.4534 69.1789  106.4534 69.1789  C 106.4534 69.1789  105.9908 68.6915  105.9908 68.6915  C 105.9908 68.6915  105.2529 68.8811  105.2529 68.8811  C 105.2529 68.8811  104.7317 69.6338  104.7317 69.6338  C 104.7317 69.6338  104.9894 70.5601  104.9894 70.5601  C 104.9894 70.5601  103.7889 71.7625  103.7889 71.7625  C 103.7889 71.7625  104.3042 72.5262  104.3042 72.5262  C 104.3042 72.5262  104.1461 73.5663  104.1461 73.5663  C 104.1461 73.5663  103.6308 73.393  103.6308 73.393  C 103.6308 73.393  103.4551 75.1537  103.4551 75.1537  C 103.4551 75.1537  103.0217 75.9556  103.0217 75.9556  C 103.0217 75.9556  102.2488 75.9339  102.2488 75.9339  C 102.2488 75.9339  102.1843 77.5812  102.1843 77.5812  C 102.1843 77.5812  101.5519 79.6731  101.5519 79.6731  C 101.5519 79.6731  102.032 80.2639  102.032 80.2639  C 102.032 80.2639  101.2239 80.4753  101.2239 80.4753  C 101.2239 80.4753  101.0307 79.646  101.0307 79.646  C 101.0307 79.646  99.5197 79.0552  99.5197 79.0552  C 99.5197 79.0552  99.3792 79.6948  99.3792 79.6948  C 99.3792 79.6948  100.2108 79.8357  100.2108 79.8357  C 100.2108 79.8357  100.6734 80.9793  100.6734 80.9793  C 100.6734 80.9793  99.3675 80.4482  99.3675 80.4482  C 99.3675 80.4482  98.899 80.9793  98.899 80.9793  C 98.899 80.9793  97.9445 80.0525  97.9445 80.0525  C 97.9445 80.0525  98.5242 79.0986  98.5242 79.0986  C 98.5242 79.0986  98.2666 78.4916  98.2666 78.4916  C 98.2666 78.4916  96.8143 78.2315  96.8143 78.2315  C 96.8143 78.2315  96.3926 79.4835  96.3926 79.4835  C 96.3926 79.4835  96.7088 79.8195  96.7088 79.8195  C 96.7088 79.8195  96.2814 81.0444  96.2814 81.0444  C 96.2814 81.0444  96.6796 83.0229  96.6796 83.0229  C 96.6796 83.0229  96.2111 84.0529  96.2111 84.0529  C 96.2111 84.0529  94.2551 84.5247  94.2551 84.5247  C 94.2551 84.5247  92.8556 85.5873  92.8556 85.5873  C 92.8556 85.5873  93.2537 87.5665  93.2537 87.5665  C 93.2537 87.5665  92.5159 89.7954  92.5159 89.7954  C 92.5159 89.7954  91.7487 91.1948  91.7487 91.1948  C 91.7487 91.1948  91.2217 93.0446  91.2217 93.0446  C 91.2217 93.0446  91.8131 94.9597  91.8131 94.9597  C 91.8131 94.9597  90.5307 94.9814  90.5307 94.9814  C 90.5307 94.9814  89.3302 95.893  89.3302 95.893  C 89.3302 95.893  88.1824 95.2961  88.1824 95.2961  C 88.1824 95.2961  87.5909 95.9961  87.5909 95.9961  C 87.5909 95.9961  87.9247 97.3852  87.9247 97.3852  C 87.9247 97.3852  87.4328 98.2372  87.4328 98.2372  C 87.4328 98.2372  87.6495 99.3986  87.6495 99.3986  C 87.6495 99.3986  86.572 98.8667  86.572 98.8667  C 86.572 98.8667  86.3377 97.6565  86.3377 97.6565  C 86.3377 97.6565  85.834 97.3254  85.834 97.3254  C 85.834 97.3254  85.5354 95.7301  85.5354 95.7301  C 85.5354 95.7301  84.048 94.2219  84.048 94.2219  C 84.048 94.2219  83.3452 95.2038  83.3452 95.2038  C 83.3452 95.2038  81.5181 94.4389  81.5181 94.4389  C 81.5181 94.4389  79.8199 94.1459  79.8199 94.1459  C 79.8199 94.1459  79.1054 93.6739  79.1054 93.6739  C 79.1054 93.6739  78.7716 92.2362  78.7716 92.2362  C 78.7716 92.2362  77.6882 90.5819  77.6882 90.5819  C 77.6882 90.5819  76.6693 90.392  76.6693 90.392  C 76.6693 90.392  75.8318 89.0416  75.8318 89.0416  C 75.8318 89.0416  74.1805 88.4883  74.1805 88.4883  C 74.1805 88.4883  74.2858 87.1598  74.2858 87.1598  C 74.2858 87.1598  73.8701 86.52  73.8701 86.52  C 73.8701 86.52  72.8394 86.3843  72.8394 86.3843  C 72.8394 86.3843  71.9493 85.0614  71.9493 85.0614  C 71.9493 85.0614  71.9727 84.0475  71.9727 84.0475  C 71.9727 84.0475  70.8659 80.8763  70.8659 80.8763  C 70.8659 80.8763  71.3871 79.1961  71.3871 79.1961  C 71.3871 79.1961  72.4236 78.9848  72.4236 78.9848  C 72.4236 78.9848  73.0853 77.9226  73.0853 77.9226  C 73.0853 77.9226  73.0678 76.5137  73.0678 76.5137  C 73.0678 76.5137  72.0606 76.0477  72.0606 76.0477  C 72.0606 76.0477  70.5965 72.6183  70.5965 72.6183  C 70.5965 72.6183  69.8703 71.9791  69.8703 71.9791  C 69.8703 71.9791  68.5411 73.2954  68.5411 73.2954  C 68.5411 73.2954  67.9379 74.807  67.9379 74.807  C 67.9379 74.807  67.0009 76.2265  67.0009 76.2265  C 67.0009 76.2265  66.6378 76.064  66.6378 76.064  C 66.6378 76.064  65.7242 77.3103  65.7242 77.3103  C 65.7242 77.3103  65.572 78.4266  65.572 78.4266  C 65.572 78.4266  63.5516 77.5325  63.5516 77.5325  C 63.5516 77.5325  63.3232 78.302  63.3232 78.302  C 63.3232 78.302  62.4506 77.2995  62.4506 77.2995  C 62.4506 77.2995  60.6411 76.8551  60.6411 76.8551  C 60.6411 76.8551  60.5123 75.8472  60.5123 75.8472  C 60.5123 75.8472  59.5753 75.6576  59.5753 75.6576  C 59.5753 75.6576  60.3483 74.5145  60.3483 74.5145  C 60.3483 74.5145  61.0569 74.8666  61.0569 74.8666  C 61.0569 74.8666  61.4961 74.1786  61.4961 74.1786  C 61.4961 74.1786  62.4273 74.872  62.4273 74.872  C 62.4273 74.872  62.5326 73.6801  62.5326 73.6801  C 62.5326 73.6801  61.9939 72.9433  61.9939 72.9433  C 61.9939 72.9433  62.2984 72.0875  62.2984 72.0875  C 62.2984 72.0875  63.3584 72.0062  63.3584 72.0062  C 63.3584 72.0062  63.3232 69.3306  63.3232 69.3306  C 63.3232 69.3306  62.6908 69.4118  62.6908 69.4118  C 62.6908 69.4118  61.7831 67.6518  61.7831 67.6518  C 61.7831 67.6518  61.0686 67.3648  61.0686 67.3648  C 61.0686 67.3648  61.1564 66.4768  61.1564 66.4768  C 61.1564 66.4768  60.606 66.3577  60.606 66.3577  C 60.606 66.3577  60.4654 67.197  60.4654 67.197  C 60.4654 67.197  59.4465 67.6356  59.4465 67.6356  C 59.4465 67.6356  59.464 68.6265  59.464 68.6265  C 59.464 68.6265  58.6559 69.7042  58.6559 69.7042  C 58.6559 69.7042  58.451 70.7984  58.451 70.7984  C 58.451 70.7984  59.019 72.0333  59.019 72.0333  C 59.019 72.0333  58.0996 72.7537  58.0996 72.7537  C 58.0996 72.7537  55.7117 74.6499  55.7117 74.6499  C 55.7117 74.6499  55.4071 75.831  55.4071 75.831  C 55.4071 75.831  54.1657 76.6437  54.1657 76.6437  C 54.1657 76.6437  54.1599 77.1857  54.1599 77.1857  C 54.1599 77.1857  52.1746 78.432  52.1746 78.432  C 52.1746 78.432  50.775 81.4996  50.775 81.4996  C 50.775 81.4996  50.9038 82.9687  50.9038 82.9687  C 50.9038 82.9687  50.2889 85.1319  50.2889 85.1319  C 50.2889 85.1319  48.5965 87.4309  48.5965 87.4309  C 48.5965 87.4309  47.7649 87.4038  47.7649 87.4038  C 47.7649 87.4038  47.6303 85.9777  47.6303 85.9777  C 47.6303 85.9777  47.0856 85.2783  47.0856 85.2783  C 47.0856 85.2783  45.3054 85.7933  45.3054 85.7933  C 45.3054 85.7933  44.2162 85.2783  44.2162 85.2783  C 44.2162 85.2783  43.5896 84.4976  43.5896 84.4976  C 43.5896 84.4976  43.1269 85.8855  43.1269 85.8855  C 43.1269 85.8855  42.8517 84.7795  42.8517 84.7795  C 42.8517 84.7795  43.2557 83.4512  43.2557 83.4512  C 43.2557 83.4512  42.8576 83.4295  42.8576 83.4295  C 42.8576 83.4295  43.0273 82.1556  43.0273 82.1556  C 43.0273 82.1556  42.4125 82.1339  42.4125 82.1339  C 42.4125 82.1339  42.5472 81.272  42.5472 81.272  C 42.5472 81.272  42.149 80.5511  42.149 80.5511  C 42.149 80.5511  41.3466 80.3777  41.3466 80.3777  C 41.3466 80.3777  39.2853 81.4617  39.2853 81.4617  C 39.2853 81.4617  38.524 82.676  38.524 82.676  C 38.524 82.676  38.6587 83.2289  38.6587 83.2289  C 38.6587 83.2289  37.3938 83.8415  37.3938 83.8415  C 37.3938 83.8415  37.4582 85.6795  37.4582 85.6795  C 37.4582 85.6795  35.9122 87.6316  35.9122 87.6316  C 35.9122 87.6316  34.5829 86.2271  34.5829 86.2271  C 34.5829 86.2271  32.9842 85.0451  32.9842 85.0451  C 32.9842 85.0451  31.649 86.6013  31.649 86.6013  C 31.649 86.6013  32.2229 87.6316  32.2229 87.6316  C 32.2229 87.6316  31.9593 88.1955  31.9593 88.1955  C 31.9593 88.1955  32.4922 89.6707  32.4922 89.6707  C 32.4922 89.6707  31.7954 91.5203  31.7954 91.5203  C 31.7954 91.5203  29.8629 91.4986  29.8629 91.4986  C 29.8629 91.4986  29.3651 92.9632  29.3651 92.9632  C 29.3651 92.9632  28.0124 93.0826  28.0124 93.0826  C 28.0124 93.0826  27.6493 92.6269  27.6493 92.6269  C 27.6493 92.6269  27.9596 91.0158  27.9596 91.0158  C 27.9596 91.0158  27.0812 89.9798  27.0812 89.9798  C 27.0812 89.9798  27.0168 88.1304  27.0168 88.1304  C 27.0168 88.1304  26.601 87.6966  26.601 87.6966  C 26.601 87.6966  27.1574 86.4223  27.1574 86.4223  C 27.1574 86.4223  27.3682 84.3241  27.3682 84.3241  C 27.3682 84.3241  26.5835 83.9716  26.5835 83.9716  C 26.5835 83.9716  25.1721 84.6114  25.1721 84.6114  C 25.1721 84.6114  24.3347 83.977  24.3347 83.977  C 24.3347 83.977  22.531 84.8987  22.531 84.8987  C 22.531 84.8987  21.6526 83.2723  21.6526 83.2723  C 21.6526 83.2723  20.9851 83.9716  20.9851 83.9716  C 20.9851 83.9716  18.1916 84.9963  18.1916 84.9963  C 18.1916 84.9963  16.9444 86.4331  16.9444 86.4331  C 16.9444 86.4331  16.5695 84.9855  16.5695 84.9855  C 16.5695 84.9855  16.9677 83.7927  16.9677 83.7927  C 16.9677 83.7927  17.5709 83.1801  17.5709 83.1801  C 17.5709 83.1801  18.2386 80.7571  18.2386 80.7571  C 18.2386 80.7571  20.4404 80.5511  20.4404 80.5511  C 20.4404 80.5511  20.7391 79.7761  20.7391 79.7761  C 20.7391 79.7761  18.9822 78.535  18.9822 78.535  C 18.9822 78.535  18.9412 77.3862  18.9412 77.3862  C 18.9412 77.3862  17.12 76.2319  17.12 76.2319  C 17.12 76.2319  15.1523 76.5191  15.1523 76.5191  C 15.1523 76.5191  14.8127 77.0881  14.8127 77.0881  C 14.8127 77.0881  12.5288 76.866  12.5288 76.866  C 12.5288 76.866  12.2595 75.9664  12.2595 75.9664  C 12.2595 75.9664  10.813 74.379  10.813 74.379  C 10.813 74.379  9.98140000000001 74.975  9.98140000000001 74.975  C 9.98140000000001 74.975  9.13229999999999 74.8341  9.13229999999999 74.8341  C 9.13229999999999 74.8341  8.14850000000001 73.3605  8.14850000000001 73.3605  C 8.14850000000001 73.3605  6.80149999999998 72.8025  6.80149999999998 72.8025  C 6.80149999999998 72.8025  6.71949999999998 71.4808  6.71949999999998 71.4808  C 6.71949999999998 71.4808  6.20420000000001 70.9609  6.20420000000001 70.9609  C 6.20420000000001 70.9609  5.55419999999998 68.6807  5.55419999999998 68.6807  C 5.55419999999998 68.6807  6.25689999999997 67.8305  6.25689999999997 67.8305  C 6.25689999999997 67.8305  6.23939999999999 66.6663  6.23939999999999 66.6663  C 6.23939999999999 66.6663  5.29649999999998 65.6591  5.29649999999998 65.6591  C 5.29649999999998 65.6591  5.22039999999998 65.0852  5.22039999999998 65.0852  C 5.22039999999998 65.0852  4.0609 64.7929  4.0609 64.7929  C 4.0609 64.7929  3.78570000000002 65.7566  3.78570000000002 65.7566  C 3.78570000000002 65.7566  2.63200000000001 65.8161  2.63200000000001 65.8161  C 2.63200000000001 65.8161  2.13419999999999 64.3435  2.13419999999999 64.3435  C 2.13419999999999 64.3435  0.664400000000001 63.2067  0.664400000000001 63.2067  C 0.664400000000001 63.2067  0.406700000000001 62.0212  0.406700000000001 62.0212  C 0.406700000000001 62.0212  2.30410000000001 62.2107  2.30410000000001 62.2107  C 2.30410000000001 62.2107  3.0478 61.8264  3.0478 61.8264  C 3.0478 61.8264  3.36399999999998 60.9766  3.36399999999998 60.9766  C 3.36399999999998 60.9766  4.95690000000002 60.9116  4.95690000000002 60.9116  C 4.95690000000002 60.9116  6.95960000000002 61.4367  6.95960000000002 61.4367  C 6.95960000000002 61.4367  9.13229999999999 61.1498  9.13229999999999 61.1498  C 9.13229999999999 61.1498  9.24349999999998 61.5395  9.24349999999998 61.5395  C 9.24349999999998 61.5395  11.2229 61.1119  11.2229 61.1119  C 11.2229 61.1119  11.4162 60.1268  11.4162 60.1268  C 11.4162 60.1268  12.4761 60.3325  12.4761 60.3325  C 12.4761 60.3325  13.5185 59.223  13.5185 59.223  C 13.5185 59.223  14.0456 58.2218  14.0456 58.2218  C 14.0456 58.2218  14.2037 56.9502  14.2037 56.9502  C 14.2037 56.9502  15.2812 56.3604  15.2812 56.3604  C 15.2812 56.3604  15.4101 55.6733  15.4101 55.6733  C 15.4101 55.6733  16.5754 55.9979  16.5754 55.9979  C 16.5754 55.9979  16.6281 55.1593  16.6281 55.1593  C 16.6281 55.1593  18.0628 54.2504  18.0628 54.2504  C 18.0628 54.2504  17.7583 53.4065  17.7583 53.4065  C 17.7583 53.4065  19.2106 51.0103  19.2106 51.0103  C 19.2106 51.0103  18.9822 50.5668  18.9822 50.5668  C 18.9822 50.5668  20.2062 48.8258  20.2062 48.8258  C 20.2062 48.8258  21.0377 47.3116  21.0377 47.3116  C 21.0377 47.3116  21.881 46.8574  21.881 46.8574  C 21.881 46.8574  22.6423 45.3704  22.6423 45.3704  C 22.6423 45.3704  23.1928 44.9541  23.1928 44.9541  C 23.1928 44.9541  23.4388 42.8402  23.4388 42.8402  C 23.4388 42.8402  24.077 42.2834  24.077 42.2834  C 24.077 42.2834  24.4753 41.1537  24.4753 41.1537  C 24.4753 41.1537  24.3582 39.8619  24.3582 39.8619  C 24.3582 39.8619  23.6496 39.0081  23.6496 39.0081  C 23.6496 39.0081  24.0009 38.6568  24.0009 38.6568  C 24.0009 38.6568  23.5617 36.8681  23.5617 36.8681  C 23.5617 36.8681  24.4635 36.9437  24.4635 36.9437  C 24.4635 36.9437  24.6099 36.3926  24.6099 36.3926  C 24.6099 36.3926  26.1325 35.5767  26.1325 35.5767  C 26.1325 35.5767  26.6303 34.561  26.6303 34.561  C 26.6303 34.561  25.5528 33.097  25.5528 33.097  C 25.5528 33.097  26.115 32.3083  26.115 32.3083  C 26.115 32.3083  27.4151 32.0274  27.4151 32.0274  C 27.4151 32.0274  27.5732 31.0551  27.5732 31.0551  C 27.5732 31.0551  28.9435 29.9803  28.9435 29.9803  C 28.9435 29.9803  28.4223 27.4908  28.4223 27.4908  C 28.4223 27.4908  28.9845 26.3784  28.9845 26.3784  C 28.9845 26.3784  26.5015 26.9238  26.5015 26.9238  C 26.5015 26.9238  25.9393 26.7294  25.9393 26.7294  C 25.9393 26.7294  24.7798 25.3851  24.7798 25.3851  C 24.7798 25.3851  24.3757 24.2405  24.3757 24.2405  C 24.3757 24.2405  24.4343 22.3296  24.4343 22.3296  C 24.4343 22.3296  24.815 21.1205  24.815 21.1205  C 24.815 21.1205  24.5572 19.1992  24.5572 19.1992  C 24.5572 19.1992  23.7491 18.924  23.7491 18.924  C 23.7491 18.924  26.2438 17.3861  26.2438 17.3861  C 26.2438 17.3861  25.7694 16.3933  25.7694 16.3933  C 25.7694 16.3933  25.1487 16.5875  25.1487 16.5875  C 25.1487 16.5875  25.1428 13.89  25.1428 13.89  C 25.1428 13.89  25.4942 12.2502  25.4942 12.2502  C 25.4942 12.2502  24.6568 11.6838  24.6568 11.6838  C 24.6568 11.6838  24.7563 11.096  24.7563 11.096  C 24.7563 11.096  23.7316 9.53199999999998  23.7316 9.53199999999998  C 23.7316 9.53199999999998  24.2001 6.7389  24.2001 6.7389  C 24.2001 6.7389  23.3743 6.1026  23.3743 6.1026  C 23.3743 6.1026  22.6188 6.56630000000001  22.6188 6.56630000000001  C 22.6188 6.56630000000001  22.4959 5.87630000000001  22.4959 5.87630000000001  C 22.4959 5.87630000000001  23.0288 4.798  23.0288 4.798  C 23.0288 4.798  22.7828 4.22669999999999  22.7828 4.22669999999999  C 22.7828 4.22669999999999  24.5514 2.63099999999997  24.5514 2.63099999999997  C 24.5514 2.63099999999997  24.4401 1.54770000000002  24.4401 1.54770000000002  C 24.4401 1.54770000000002  24.4928 1.07339999999999  24.4928 1.07339999999999  C 24.4928 1.07339999999999  25.7812 0.496800000000007  25.7812 0.496800000000007  C 25.7812 0.496800000000007  27.011 1.47770000000003  27.011 1.47770000000003  C 27.011 1.47770000000003  27.9596 1.44529999999997  27.9596 1.44529999999997  C 27.9596 1.44529999999997  29.5701 2.95979999999997  29.5701 2.95979999999997  C 29.5701 2.95979999999997  29.2363 3.60129999999998  29.2363 3.60129999999998  C 29.2363 3.60129999999998  30.425 4.16739999999999  30.425 4.16739999999999  C 30.425 4.16739999999999  30.6945 4.96510000000001  30.6945 4.96510000000001  C 30.6945 4.96510000000001  31.8891 5.64449999999999  31.8891 5.64449999999999  C 31.8891 5.64449999999999  33.441 4.67399999999998  33.441 4.67399999999998  C 33.441 4.67399999999998  34.4716 4.9058  34.4716 4.9058  C 34.4716 4.9058  35.1919 4.28050000000002  35.1919 4.28050000000002  C 35.1919 4.28050000000002  35.514 2.54489999999998  35.514 2.54489999999998  C 35.514 2.54489999999998  36.1231 2.04899999999998  36.1231 2.04899999999998  C 36.1231 2.04899999999998  35.8127 0.798600000000022  35.8127 0.798600000000022  C 35.8127 0.798600000000022  36.4451 0.593799999999987  36.4451 0.593799999999987  C 36.4451 0.593799999999987  37.8213 3.28870000000001  37.8213 3.28870000000001  C 37.8213 3.28870000000001  39.6309 6.07029999999997  39.6309 6.07029999999997  C 39.6309 6.07029999999997  39.8182 7.82260000000002  39.8182 7.82260000000002  C 39.8182 7.82260000000002  39.2736 8.90109999999999  39.2736 8.90109999999999  C 39.2736 8.90109999999999  37.2416 9.74770000000001  37.2416 9.74770000000001  C 37.2416 9.74770000000001  36.5681 11.1392  36.5681 11.1392  C 36.5681 11.1392  37.0308 11.9697  37.0308 11.9697  C 37.0308 11.9697  39.7421 13.8954  39.7421 13.8954  C 39.7421 13.8954  41.1885 14.4618  41.1885 14.4618  C 41.1885 14.4618  43.4958 14.3216  43.4958 14.3216  C 43.4958 14.3216  44.5148 14.7748  44.5148 14.7748  C 44.5148 14.7748  45.4108 16.8843  45.4108 16.8843  C 45.4108 16.8843  45.9145 17.521  45.9145 17.521  C 45.9145 17.521  47.6713 17.904  47.6713 17.904  C 47.6713 17.904  48.6668 17.5804  48.6668 17.5804  C 48.6668 17.5804  49.8439 18.2872  49.8439 18.2872  C 49.8439 18.2872  51.3314 18.298  51.3314 18.298  C 51.3314 18.298  53.3693 19.6094  53.3693 19.6094  C 53.3693 19.6094  54.6517 20.0897  54.6517 20.0897  C 54.6517 20.0897  58.9839 20.4296  58.9839 20.4296  C 58.9839 20.4296  60.7349 20.2623  60.7349 20.2623  C 60.7349 20.2623  62.5268 19.2802  62.5268 19.2802  C 62.5268 19.2802  63.7741 19.5716  63.7741 19.5716  C 63.7741 19.5716  64.3832 20.2947  64.3832 20.2947  C 64.3832 20.2947  65.49 20.8722  65.49 20.8722  C 65.49 20.8722  67.2175 20.9478  67.2175 20.9478  C 67.2175 20.9478  70.087 20.3379  70.087 20.3379  C 70.087 20.3379  70.7136 20.4566  70.7136 20.4566  C 70.7136 20.4566  71.5921 21.4713  71.5921 21.4713  C 71.5921 21.4713  71.8731 23.7546  71.8731 23.7546  C 71.8731 23.7546  72.5407 24.802  72.5407 24.802  C 72.5407 24.802  75.176 25.3959  75.176 25.3959  C 75.176 25.3959  75.9256 26.2597  75.9256 26.2597  C 75.9256 26.2597  76.8274 26.2975  76.8274 26.2975  C 76.8274 26.2975  79.5915 25.547  79.5915 25.547  C 79.5915 25.547  80.7919 24.505  80.7919 24.505  C 80.7919 24.505  82.2326 25.2123  82.2326 25.2123  C 82.2326 25.2123  83.392 24.9261  83.392 24.9261  C 83.392 24.9261  85.834 26.0221  85.834 26.0221  C 85.834 26.0221  87.8018 26.0761  87.8018 26.0761  C 87.8018 26.0761  91.128 21.9625  91.128 21.9625  C 91.128 21.9625  93.4529 21.4929  93.4529 21.4929  C 93.4529 21.4929  95.0223 20.4512  95.0223 20.4512  C 95.0223 20.4512  96.2111 21.2068  96.2111 21.2068  C 96.2111 21.2068  97.0251 21.3148  97.0251 21.3148  C 97.0251 21.3148  97.0895 21.9355  97.0895 21.9355  C 97.0895 21.9355  98.1905 23.0528  98.1905 23.0528  C 98.1905 23.0528  98.1319 24.1325  98.1319 24.1325  C 98.1319 24.1325  97.4643 25.4877  97.4643 25.4877  C 97.4643 25.4877  96.2111 25.5632  96.2111 25.5632  C 96.2111 25.5632  95.8012 27.4692  95.8012 27.4692  C 95.8012 27.4692  95.0047 29.3323  95.0047 29.3323  C 95.0047 29.3323  95.3385 31.1956  95.3385 31.1956  C 95.3385 31.1956  95.1101 31.6277  95.1101 31.6277  C 95.1101 31.6277  96.0471 32.6162  96.0471 32.6162  C 96.0471 32.6162  95.0925 35.1985  95.0925 35.1985  C 95.0925 35.1985  94.9989 36.09  94.9989 36.09  C 94.9989 36.09  94.384 36.6628  94.384 36.6628  C 94.384 36.6628  95.3678 38.4947  95.3678 38.4947  C 95.3678 38.4947  94.87 39.3214  94.87 39.3214  C 94.87 39.3214  94.6007 38.8622  94.6007 38.8622  C 94.6007 38.8622  93.8921 39.3971  93.8921 39.3971  C 93.8921 39.3971  92.8439 38.5974  92.8439 38.5974  C 92.8439 38.5974  93.283 39.8025  93.283 39.8025  C 93.283 39.8025  93.1425 41.9483  93.1425 41.9483  C 93.1425 41.9483  92.8848 42.7808  92.8848 42.7808  C 92.8848 42.7808  93.5173 43.1808  93.5173 43.1808  C 93.5173 43.1808  94.4601 42.3645  94.4601 42.3645  C 94.4601 42.3645  94.9989 42.7105  94.9989 42.7105  C 94.9989 42.7105  95.7602 42.2672  95.7602 42.2672  C 95.7602 42.2672  96.6796 42.7105  96.6796 42.7105  C 96.6796 42.7105  96.5449 44.2512  96.5449 44.2512  C 96.5449 44.2512  96.1115 44.6946  96.1115 44.6946  C 96.1115 44.6946  95.8129 46.5762  95.8129 46.5762  C 95.8129 46.5762  96.0178 47.409  96.0178 47.409  C 96.0178 47.409  97.0544 48.9015  97.0544 48.9015  C 97.0544 48.9015  96.908 52.5139  96.908 52.5139  C 96.908 52.5139  97.6224 52.4599  97.6224 52.4599  C 97.6224 52.4599  98.8874 54.3857  98.8874 54.3857  C 98.8874 54.3857  97.9386 54.7698  97.9386 54.7698  C 97.9386 54.7698  97.3003 56.0628  97.3003 56.0628  C 97.3003 56.0628  98.29 56.3983  98.29 56.3983  C 98.29 56.3983  100.4216 56.2684  100.4216 56.2684  C 100.4216 56.2684  101.7803 55.6192  101.7803 55.6192  C 101.7803 55.6192  102.5533 55.8356  102.5533 55.8356  C 102.5533 55.8356  102.4302 56.6201  102.4302 56.6201  C 102.4302 56.6201  103.1857 58.1244  103.1857 58.1244  C 103.1857 58.1244  103.2033 60.706  103.2033 60.706  C 103.2033 60.706  103.6835 62.5355  103.6835 62.5355  C 103.6835 62.5355  104.5794 64.7766  104.5794 64.7766  C 104.5794 64.7766  103.9939 65.2152  103.9939 65.2152  C 103.9939 65.2152  103.8708 66.1952  103.8708 66.1952  C 103.8708 66.1952  104.6673 68.1662  104.6673 68.1662  C 104.6673 68.1662  105.7683 68.2041  105.7683 68.2041  C 105.7683 68.2041  106.4944 67.1699  106.4944 67.1699  C 106.4944 67.1699  107.4723 64.376  107.4723 64.376  C 107.4723 64.376  108.585 64.0458  108.585 64.0458  Z " fill-rule="evenodd" />
    </mask>
  </defs>
  <g transform="matrix(1 0 0 1 -283 -323 )">
    <path d="M 108.585 64.0458  C 108.585 64.0458  109.6098 64.8254  109.6098 64.8254  C 109.6098 64.8254  110.8396 66.5689  110.8396 66.5689  C 110.8396 66.5689  110.6347 67.6572  110.6347 67.6572  C 110.6347 67.6572  111.4194 68.4262  111.4194 68.4262  C 111.4194 68.4262  111.8995 69.5472  111.8995 69.5472  C 111.8995 69.5472  111.8001 71.5025  111.8001 71.5025  C 111.8001 71.5025  112.6023 72.7104  112.6023 72.7104  C 112.6023 72.7104  113.0591 74.6824  113.0591 74.6824  C 113.0591 74.6824  111.8293 75.6414  111.8293 75.6414  C 111.8293 75.6414  110.1135 76.1994  110.1135 76.1994  C 110.1135 76.1994  109.4927 76.8985  109.4927 76.8985  C 109.4927 76.8985  108.6143 76.9635  108.6143 76.9635  C 108.6143 76.9635  108.0639 75.365  108.0639 75.365  C 108.0639 75.365  106.9512 74.807  106.9512 74.807  C 106.9512 74.807  106.4885 73.3875  106.4885 73.3875  C 106.4885 73.3875  106.8809 72.6075  106.8809 72.6075  C 106.8809 72.6075  107.0625 71.1179  107.0625 71.1179  C 107.0625 71.1179  105.9264 69.6013  105.9264 69.6013  C 105.9264 69.6013  106.4534 69.1789  106.4534 69.1789  C 106.4534 69.1789  105.9908 68.6915  105.9908 68.6915  C 105.9908 68.6915  105.2529 68.8811  105.2529 68.8811  C 105.2529 68.8811  104.7317 69.6338  104.7317 69.6338  C 104.7317 69.6338  104.9894 70.5601  104.9894 70.5601  C 104.9894 70.5601  103.7889 71.7625  103.7889 71.7625  C 103.7889 71.7625  104.3042 72.5262  104.3042 72.5262  C 104.3042 72.5262  104.1461 73.5663  104.1461 73.5663  C 104.1461 73.5663  103.6308 73.393  103.6308 73.393  C 103.6308 73.393  103.4551 75.1537  103.4551 75.1537  C 103.4551 75.1537  103.0217 75.9556  103.0217 75.9556  C 103.0217 75.9556  102.2488 75.9339  102.2488 75.9339  C 102.2488 75.9339  102.1843 77.5812  102.1843 77.5812  C 102.1843 77.5812  101.5519 79.6731  101.5519 79.6731  C 101.5519 79.6731  102.032 80.2639  102.032 80.2639  C 102.032 80.2639  101.2239 80.4753  101.2239 80.4753  C 101.2239 80.4753  101.0307 79.646  101.0307 79.646  C 101.0307 79.646  99.5197 79.0552  99.5197 79.0552  C 99.5197 79.0552  99.3792 79.6948  99.3792 79.6948  C 99.3792 79.6948  100.2108 79.8357  100.2108 79.8357  C 100.2108 79.8357  100.6734 80.9793  100.6734 80.9793  C 100.6734 80.9793  99.3675 80.4482  99.3675 80.4482  C 99.3675 80.4482  98.899 80.9793  98.899 80.9793  C 98.899 80.9793  97.9445 80.0525  97.9445 80.0525  C 97.9445 80.0525  98.5242 79.0986  98.5242 79.0986  C 98.5242 79.0986  98.2666 78.4916  98.2666 78.4916  C 98.2666 78.4916  96.8143 78.2315  96.8143 78.2315  C 96.8143 78.2315  96.3926 79.4835  96.3926 79.4835  C 96.3926 79.4835  96.7088 79.8195  96.7088 79.8195  C 96.7088 79.8195  96.2814 81.0444  96.2814 81.0444  C 96.2814 81.0444  96.6796 83.0229  96.6796 83.0229  C 96.6796 83.0229  96.2111 84.0529  96.2111 84.0529  C 96.2111 84.0529  94.2551 84.5247  94.2551 84.5247  C 94.2551 84.5247  92.8556 85.5873  92.8556 85.5873  C 92.8556 85.5873  93.2537 87.5665  93.2537 87.5665  C 93.2537 87.5665  92.5159 89.7954  92.5159 89.7954  C 92.5159 89.7954  91.7487 91.1948  91.7487 91.1948  C 91.7487 91.1948  91.2217 93.0446  91.2217 93.0446  C 91.2217 93.0446  91.8131 94.9597  91.8131 94.9597  C 91.8131 94.9597  90.5307 94.9814  90.5307 94.9814  C 90.5307 94.9814  89.3302 95.893  89.3302 95.893  C 89.3302 95.893  88.1824 95.2961  88.1824 95.2961  C 88.1824 95.2961  87.5909 95.9961  87.5909 95.9961  C 87.5909 95.9961  87.9247 97.3852  87.9247 97.3852  C 87.9247 97.3852  87.4328 98.2372  87.4328 98.2372  C 87.4328 98.2372  87.6495 99.3986  87.6495 99.3986  C 87.6495 99.3986  86.572 98.8667  86.572 98.8667  C 86.572 98.8667  86.3377 97.6565  86.3377 97.6565  C 86.3377 97.6565  85.834 97.3254  85.834 97.3254  C 85.834 97.3254  85.5354 95.7301  85.5354 95.7301  C 85.5354 95.7301  84.048 94.2219  84.048 94.2219  C 84.048 94.2219  83.3452 95.2038  83.3452 95.2038  C 83.3452 95.2038  81.5181 94.4389  81.5181 94.4389  C 81.5181 94.4389  79.8199 94.1459  79.8199 94.1459  C 79.8199 94.1459  79.1054 93.6739  79.1054 93.6739  C 79.1054 93.6739  78.7716 92.2362  78.7716 92.2362  C 78.7716 92.2362  77.6882 90.5819  77.6882 90.5819  C 77.6882 90.5819  76.6693 90.392  76.6693 90.392  C 76.6693 90.392  75.8318 89.0416  75.8318 89.0416  C 75.8318 89.0416  74.1805 88.4883  74.1805 88.4883  C 74.1805 88.4883  74.2858 87.1598  74.2858 87.1598  C 74.2858 87.1598  73.8701 86.52  73.8701 86.52  C 73.8701 86.52  72.8394 86.3843  72.8394 86.3843  C 72.8394 86.3843  71.9493 85.0614  71.9493 85.0614  C 71.9493 85.0614  71.9727 84.0475  71.9727 84.0475  C 71.9727 84.0475  70.8659 80.8763  70.8659 80.8763  C 70.8659 80.8763  71.3871 79.1961  71.3871 79.1961  C 71.3871 79.1961  72.4236 78.9848  72.4236 78.9848  C 72.4236 78.9848  73.0853 77.9226  73.0853 77.9226  C 73.0853 77.9226  73.0678 76.5137  73.0678 76.5137  C 73.0678 76.5137  72.0606 76.0477  72.0606 76.0477  C 72.0606 76.0477  70.5965 72.6183  70.5965 72.6183  C 70.5965 72.6183  69.8703 71.9791  69.8703 71.9791  C 69.8703 71.9791  68.5411 73.2954  68.5411 73.2954  C 68.5411 73.2954  67.9379 74.807  67.9379 74.807  C 67.9379 74.807  67.0009 76.2265  67.0009 76.2265  C 67.0009 76.2265  66.6378 76.064  66.6378 76.064  C 66.6378 76.064  65.7242 77.3103  65.7242 77.3103  C 65.7242 77.3103  65.572 78.4266  65.572 78.4266  C 65.572 78.4266  63.5516 77.5325  63.5516 77.5325  C 63.5516 77.5325  63.3232 78.302  63.3232 78.302  C 63.3232 78.302  62.4506 77.2995  62.4506 77.2995  C 62.4506 77.2995  60.6411 76.8551  60.6411 76.8551  C 60.6411 76.8551  60.5123 75.8472  60.5123 75.8472  C 60.5123 75.8472  59.5753 75.6576  59.5753 75.6576  C 59.5753 75.6576  60.3483 74.5145  60.3483 74.5145  C 60.3483 74.5145  61.0569 74.8666  61.0569 74.8666  C 61.0569 74.8666  61.4961 74.1786  61.4961 74.1786  C 61.4961 74.1786  62.4273 74.872  62.4273 74.872  C 62.4273 74.872  62.5326 73.6801  62.5326 73.6801  C 62.5326 73.6801  61.9939 72.9433  61.9939 72.9433  C 61.9939 72.9433  62.2984 72.0875  62.2984 72.0875  C 62.2984 72.0875  63.3584 72.0062  63.3584 72.0062  C 63.3584 72.0062  63.3232 69.3306  63.3232 69.3306  C 63.3232 69.3306  62.6908 69.4118  62.6908 69.4118  C 62.6908 69.4118  61.7831 67.6518  61.7831 67.6518  C 61.7831 67.6518  61.0686 67.3648  61.0686 67.3648  C 61.0686 67.3648  61.1564 66.4768  61.1564 66.4768  C 61.1564 66.4768  60.606 66.3577  60.606 66.3577  C 60.606 66.3577  60.4654 67.197  60.4654 67.197  C 60.4654 67.197  59.4465 67.6356  59.4465 67.6356  C 59.4465 67.6356  59.464 68.6265  59.464 68.6265  C 59.464 68.6265  58.6559 69.7042  58.6559 69.7042  C 58.6559 69.7042  58.451 70.7984  58.451 70.7984  C 58.451 70.7984  59.019 72.0333  59.019 72.0333  C 59.019 72.0333  58.0996 72.7537  58.0996 72.7537  C 58.0996 72.7537  55.7117 74.6499  55.7117 74.6499  C 55.7117 74.6499  55.4071 75.831  55.4071 75.831  C 55.4071 75.831  54.1657 76.6437  54.1657 76.6437  C 54.1657 76.6437  54.1599 77.1857  54.1599 77.1857  C 54.1599 77.1857  52.1746 78.432  52.1746 78.432  C 52.1746 78.432  50.775 81.4996  50.775 81.4996  C 50.775 81.4996  50.9038 82.9687  50.9038 82.9687  C 50.9038 82.9687  50.2889 85.1319  50.2889 85.1319  C 50.2889 85.1319  48.5965 87.4309  48.5965 87.4309  C 48.5965 87.4309  47.7649 87.4038  47.7649 87.4038  C 47.7649 87.4038  47.6303 85.9777  47.6303 85.9777  C 47.6303 85.9777  47.0856 85.2783  47.0856 85.2783  C 47.0856 85.2783  45.3054 85.7933  45.3054 85.7933  C 45.3054 85.7933  44.2162 85.2783  44.2162 85.2783  C 44.2162 85.2783  43.5896 84.4976  43.5896 84.4976  C 43.5896 84.4976  43.1269 85.8855  43.1269 85.8855  C 43.1269 85.8855  42.8517 84.7795  42.8517 84.7795  C 42.8517 84.7795  43.2557 83.4512  43.2557 83.4512  C 43.2557 83.4512  42.8576 83.4295  42.8576 83.4295  C 42.8576 83.4295  43.0273 82.1556  43.0273 82.1556  C 43.0273 82.1556  42.4125 82.1339  42.4125 82.1339  C 42.4125 82.1339  42.5472 81.272  42.5472 81.272  C 42.5472 81.272  42.149 80.5511  42.149 80.5511  C 42.149 80.5511  41.3466 80.3777  41.3466 80.3777  C 41.3466 80.3777  39.2853 81.4617  39.2853 81.4617  C 39.2853 81.4617  38.524 82.676  38.524 82.676  C 38.524 82.676  38.6587 83.2289  38.6587 83.2289  C 38.6587 83.2289  37.3938 83.8415  37.3938 83.8415  C 37.3938 83.8415  37.4582 85.6795  37.4582 85.6795  C 37.4582 85.6795  35.9122 87.6316  35.9122 87.6316  C 35.9122 87.6316  34.5829 86.2271  34.5829 86.2271  C 34.5829 86.2271  32.9842 85.0451  32.9842 85.0451  C 32.9842 85.0451  31.649 86.6013  31.649 86.6013  C 31.649 86.6013  32.2229 87.6316  32.2229 87.6316  C 32.2229 87.6316  31.9593 88.1955  31.9593 88.1955  C 31.9593 88.1955  32.4922 89.6707  32.4922 89.6707  C 32.4922 89.6707  31.7954 91.5203  31.7954 91.5203  C 31.7954 91.5203  29.8629 91.4986  29.8629 91.4986  C 29.8629 91.4986  29.3651 92.9632  29.3651 92.9632  C 29.3651 92.9632  28.0124 93.0826  28.0124 93.0826  C 28.0124 93.0826  27.6493 92.6269  27.6493 92.6269  C 27.6493 92.6269  27.9596 91.0158  27.9596 91.0158  C 27.9596 91.0158  27.0812 89.9798  27.0812 89.9798  C 27.0812 89.9798  27.0168 88.1304  27.0168 88.1304  C 27.0168 88.1304  26.601 87.6966  26.601 87.6966  C 26.601 87.6966  27.1574 86.4223  27.1574 86.4223  C 27.1574 86.4223  27.3682 84.3241  27.3682 84.3241  C 27.3682 84.3241  26.5835 83.9716  26.5835 83.9716  C 26.5835 83.9716  25.1721 84.6114  25.1721 84.6114  C 25.1721 84.6114  24.3347 83.977  24.3347 83.977  C 24.3347 83.977  22.531 84.8987  22.531 84.8987  C 22.531 84.8987  21.6526 83.2723  21.6526 83.2723  C 21.6526 83.2723  20.9851 83.9716  20.9851 83.9716  C 20.9851 83.9716  18.1916 84.9963  18.1916 84.9963  C 18.1916 84.9963  16.9444 86.4331  16.9444 86.4331  C 16.9444 86.4331  16.5695 84.9855  16.5695 84.9855  C 16.5695 84.9855  16.9677 83.7927  16.9677 83.7927  C 16.9677 83.7927  17.5709 83.1801  17.5709 83.1801  C 17.5709 83.1801  18.2386 80.7571  18.2386 80.7571  C 18.2386 80.7571  20.4404 80.5511  20.4404 80.5511  C 20.4404 80.5511  20.7391 79.7761  20.7391 79.7761  C 20.7391 79.7761  18.9822 78.535  18.9822 78.535  C 18.9822 78.535  18.9412 77.3862  18.9412 77.3862  C 18.9412 77.3862  17.12 76.2319  17.12 76.2319  C 17.12 76.2319  15.1523 76.5191  15.1523 76.5191  C 15.1523 76.5191  14.8127 77.0881  14.8127 77.0881  C 14.8127 77.0881  12.5288 76.866  12.5288 76.866  C 12.5288 76.866  12.2595 75.9664  12.2595 75.9664  C 12.2595 75.9664  10.813 74.379  10.813 74.379  C 10.813 74.379  9.98140000000001 74.975  9.98140000000001 74.975  C 9.98140000000001 74.975  9.13229999999999 74.8341  9.13229999999999 74.8341  C 9.13229999999999 74.8341  8.14850000000001 73.3605  8.14850000000001 73.3605  C 8.14850000000001 73.3605  6.80149999999998 72.8025  6.80149999999998 72.8025  C 6.80149999999998 72.8025  6.71949999999998 71.4808  6.71949999999998 71.4808  C 6.71949999999998 71.4808  6.20420000000001 70.9609  6.20420000000001 70.9609  C 6.20420000000001 70.9609  5.55419999999998 68.6807  5.55419999999998 68.6807  C 5.55419999999998 68.6807  6.25689999999997 67.8305  6.25689999999997 67.8305  C 6.25689999999997 67.8305  6.23939999999999 66.6663  6.23939999999999 66.6663  C 6.23939999999999 66.6663  5.29649999999998 65.6591  5.29649999999998 65.6591  C 5.29649999999998 65.6591  5.22039999999998 65.0852  5.22039999999998 65.0852  C 5.22039999999998 65.0852  4.0609 64.7929  4.0609 64.7929  C 4.0609 64.7929  3.78570000000002 65.7566  3.78570000000002 65.7566  C 3.78570000000002 65.7566  2.63200000000001 65.8161  2.63200000000001 65.8161  C 2.63200000000001 65.8161  2.13419999999999 64.3435  2.13419999999999 64.3435  C 2.13419999999999 64.3435  0.664400000000001 63.2067  0.664400000000001 63.2067  C 0.664400000000001 63.2067  0.406700000000001 62.0212  0.406700000000001 62.0212  C 0.406700000000001 62.0212  2.30410000000001 62.2107  2.30410000000001 62.2107  C 2.30410000000001 62.2107  3.0478 61.8264  3.0478 61.8264  C 3.0478 61.8264  3.36399999999998 60.9766  3.36399999999998 60.9766  C 3.36399999999998 60.9766  4.95690000000002 60.9116  4.95690000000002 60.9116  C 4.95690000000002 60.9116  6.95960000000002 61.4367  6.95960000000002 61.4367  C 6.95960000000002 61.4367  9.13229999999999 61.1498  9.13229999999999 61.1498  C 9.13229999999999 61.1498  9.24349999999998 61.5395  9.24349999999998 61.5395  C 9.24349999999998 61.5395  11.2229 61.1119  11.2229 61.1119  C 11.2229 61.1119  11.4162 60.1268  11.4162 60.1268  C 11.4162 60.1268  12.4761 60.3325  12.4761 60.3325  C 12.4761 60.3325  13.5185 59.223  13.5185 59.223  C 13.5185 59.223  14.0456 58.2218  14.0456 58.2218  C 14.0456 58.2218  14.2037 56.9502  14.2037 56.9502  C 14.2037 56.9502  15.2812 56.3604  15.2812 56.3604  C 15.2812 56.3604  15.4101 55.6733  15.4101 55.6733  C 15.4101 55.6733  16.5754 55.9979  16.5754 55.9979  C 16.5754 55.9979  16.6281 55.1593  16.6281 55.1593  C 16.6281 55.1593  18.0628 54.2504  18.0628 54.2504  C 18.0628 54.2504  17.7583 53.4065  17.7583 53.4065  C 17.7583 53.4065  19.2106 51.0103  19.2106 51.0103  C 19.2106 51.0103  18.9822 50.5668  18.9822 50.5668  C 18.9822 50.5668  20.2062 48.8258  20.2062 48.8258  C 20.2062 48.8258  21.0377 47.3116  21.0377 47.3116  C 21.0377 47.3116  21.881 46.8574  21.881 46.8574  C 21.881 46.8574  22.6423 45.3704  22.6423 45.3704  C 22.6423 45.3704  23.1928 44.9541  23.1928 44.9541  C 23.1928 44.9541  23.4388 42.8402  23.4388 42.8402  C 23.4388 42.8402  24.077 42.2834  24.077 42.2834  C 24.077 42.2834  24.4753 41.1537  24.4753 41.1537  C 24.4753 41.1537  24.3582 39.8619  24.3582 39.8619  C 24.3582 39.8619  23.6496 39.0081  23.6496 39.0081  C 23.6496 39.0081  24.0009 38.6568  24.0009 38.6568  C 24.0009 38.6568  23.5617 36.8681  23.5617 36.8681  C 23.5617 36.8681  24.4635 36.9437  24.4635 36.9437  C 24.4635 36.9437  24.6099 36.3926  24.6099 36.3926  C 24.6099 36.3926  26.1325 35.5767  26.1325 35.5767  C 26.1325 35.5767  26.6303 34.561  26.6303 34.561  C 26.6303 34.561  25.5528 33.097  25.5528 33.097  C 25.5528 33.097  26.115 32.3083  26.115 32.3083  C 26.115 32.3083  27.4151 32.0274  27.4151 32.0274  C 27.4151 32.0274  27.5732 31.0551  27.5732 31.0551  C 27.5732 31.0551  28.9435 29.9803  28.9435 29.9803  C 28.9435 29.9803  28.4223 27.4908  28.4223 27.4908  C 28.4223 27.4908  28.9845 26.3784  28.9845 26.3784  C 28.9845 26.3784  26.5015 26.9238  26.5015 26.9238  C 26.5015 26.9238  25.9393 26.7294  25.9393 26.7294  C 25.9393 26.7294  24.7798 25.3851  24.7798 25.3851  C 24.7798 25.3851  24.3757 24.2405  24.3757 24.2405  C 24.3757 24.2405  24.4343 22.3296  24.4343 22.3296  C 24.4343 22.3296  24.815 21.1205  24.815 21.1205  C 24.815 21.1205  24.5572 19.1992  24.5572 19.1992  C 24.5572 19.1992  23.7491 18.924  23.7491 18.924  C 23.7491 18.924  26.2438 17.3861  26.2438 17.3861  C 26.2438 17.3861  25.7694 16.3933  25.7694 16.3933  C 25.7694 16.3933  25.1487 16.5875  25.1487 16.5875  C 25.1487 16.5875  25.1428 13.89  25.1428 13.89  C 25.1428 13.89  25.4942 12.2502  25.4942 12.2502  C 25.4942 12.2502  24.6568 11.6838  24.6568 11.6838  C 24.6568 11.6838  24.7563 11.096  24.7563 11.096  C 24.7563 11.096  23.7316 9.53199999999998  23.7316 9.53199999999998  C 23.7316 9.53199999999998  24.2001 6.7389  24.2001 6.7389  C 24.2001 6.7389  23.3743 6.1026  23.3743 6.1026  C 23.3743 6.1026  22.6188 6.56630000000001  22.6188 6.56630000000001  C 22.6188 6.56630000000001  22.4959 5.87630000000001  22.4959 5.87630000000001  C 22.4959 5.87630000000001  23.0288 4.798  23.0288 4.798  C 23.0288 4.798  22.7828 4.22669999999999  22.7828 4.22669999999999  C 22.7828 4.22669999999999  24.5514 2.63099999999997  24.5514 2.63099999999997  C 24.5514 2.63099999999997  24.4401 1.54770000000002  24.4401 1.54770000000002  C 24.4401 1.54770000000002  24.4928 1.07339999999999  24.4928 1.07339999999999  C 24.4928 1.07339999999999  25.7812 0.496800000000007  25.7812 0.496800000000007  C 25.7812 0.496800000000007  27.011 1.47770000000003  27.011 1.47770000000003  C 27.011 1.47770000000003  27.9596 1.44529999999997  27.9596 1.44529999999997  C 27.9596 1.44529999999997  29.5701 2.95979999999997  29.5701 2.95979999999997  C 29.5701 2.95979999999997  29.2363 3.60129999999998  29.2363 3.60129999999998  C 29.2363 3.60129999999998  30.425 4.16739999999999  30.425 4.16739999999999  C 30.425 4.16739999999999  30.6945 4.96510000000001  30.6945 4.96510000000001  C 30.6945 4.96510000000001  31.8891 5.64449999999999  31.8891 5.64449999999999  C 31.8891 5.64449999999999  33.441 4.67399999999998  33.441 4.67399999999998  C 33.441 4.67399999999998  34.4716 4.9058  34.4716 4.9058  C 34.4716 4.9058  35.1919 4.28050000000002  35.1919 4.28050000000002  C 35.1919 4.28050000000002  35.514 2.54489999999998  35.514 2.54489999999998  C 35.514 2.54489999999998  36.1231 2.04899999999998  36.1231 2.04899999999998  C 36.1231 2.04899999999998  35.8127 0.798600000000022  35.8127 0.798600000000022  C 35.8127 0.798600000000022  36.4451 0.593799999999987  36.4451 0.593799999999987  C 36.4451 0.593799999999987  37.8213 3.28870000000001  37.8213 3.28870000000001  C 37.8213 3.28870000000001  39.6309 6.07029999999997  39.6309 6.07029999999997  C 39.6309 6.07029999999997  39.8182 7.82260000000002  39.8182 7.82260000000002  C 39.8182 7.82260000000002  39.2736 8.90109999999999  39.2736 8.90109999999999  C 39.2736 8.90109999999999  37.2416 9.74770000000001  37.2416 9.74770000000001  C 37.2416 9.74770000000001  36.5681 11.1392  36.5681 11.1392  C 36.5681 11.1392  37.0308 11.9697  37.0308 11.9697  C 37.0308 11.9697  39.7421 13.8954  39.7421 13.8954  C 39.7421 13.8954  41.1885 14.4618  41.1885 14.4618  C 41.1885 14.4618  43.4958 14.3216  43.4958 14.3216  C 43.4958 14.3216  44.5148 14.7748  44.5148 14.7748  C 44.5148 14.7748  45.4108 16.8843  45.4108 16.8843  C 45.4108 16.8843  45.9145 17.521  45.9145 17.521  C 45.9145 17.521  47.6713 17.904  47.6713 17.904  C 47.6713 17.904  48.6668 17.5804  48.6668 17.5804  C 48.6668 17.5804  49.8439 18.2872  49.8439 18.2872  C 49.8439 18.2872  51.3314 18.298  51.3314 18.298  C 51.3314 18.298  53.3693 19.6094  53.3693 19.6094  C 53.3693 19.6094  54.6517 20.0897  54.6517 20.0897  C 54.6517 20.0897  58.9839 20.4296  58.9839 20.4296  C 58.9839 20.4296  60.7349 20.2623  60.7349 20.2623  C 60.7349 20.2623  62.5268 19.2802  62.5268 19.2802  C 62.5268 19.2802  63.7741 19.5716  63.7741 19.5716  C 63.7741 19.5716  64.3832 20.2947  64.3832 20.2947  C 64.3832 20.2947  65.49 20.8722  65.49 20.8722  C 65.49 20.8722  67.2175 20.9478  67.2175 20.9478  C 67.2175 20.9478  70.087 20.3379  70.087 20.3379  C 70.087 20.3379  70.7136 20.4566  70.7136 20.4566  C 70.7136 20.4566  71.5921 21.4713  71.5921 21.4713  C 71.5921 21.4713  71.8731 23.7546  71.8731 23.7546  C 71.8731 23.7546  72.5407 24.802  72.5407 24.802  C 72.5407 24.802  75.176 25.3959  75.176 25.3959  C 75.176 25.3959  75.9256 26.2597  75.9256 26.2597  C 75.9256 26.2597  76.8274 26.2975  76.8274 26.2975  C 76.8274 26.2975  79.5915 25.547  79.5915 25.547  C 79.5915 25.547  80.7919 24.505  80.7919 24.505  C 80.7919 24.505  82.2326 25.2123  82.2326 25.2123  C 82.2326 25.2123  83.392 24.9261  83.392 24.9261  C 83.392 24.9261  85.834 26.0221  85.834 26.0221  C 85.834 26.0221  87.8018 26.0761  87.8018 26.0761  C 87.8018 26.0761  91.128 21.9625  91.128 21.9625  C 91.128 21.9625  93.4529 21.4929  93.4529 21.4929  C 93.4529 21.4929  95.0223 20.4512  95.0223 20.4512  C 95.0223 20.4512  96.2111 21.2068  96.2111 21.2068  C 96.2111 21.2068  97.0251 21.3148  97.0251 21.3148  C 97.0251 21.3148  97.0895 21.9355  97.0895 21.9355  C 97.0895 21.9355  98.1905 23.0528  98.1905 23.0528  C 98.1905 23.0528  98.1319 24.1325  98.1319 24.1325  C 98.1319 24.1325  97.4643 25.4877  97.4643 25.4877  C 97.4643 25.4877  96.2111 25.5632  96.2111 25.5632  C 96.2111 25.5632  95.8012 27.4692  95.8012 27.4692  C 95.8012 27.4692  95.0047 29.3323  95.0047 29.3323  C 95.0047 29.3323  95.3385 31.1956  95.3385 31.1956  C 95.3385 31.1956  95.1101 31.6277  95.1101 31.6277  C 95.1101 31.6277  96.0471 32.6162  96.0471 32.6162  C 96.0471 32.6162  95.0925 35.1985  95.0925 35.1985  C 95.0925 35.1985  94.9989 36.09  94.9989 36.09  C 94.9989 36.09  94.384 36.6628  94.384 36.6628  C 94.384 36.6628  95.3678 38.4947  95.3678 38.4947  C 95.3678 38.4947  94.87 39.3214  94.87 39.3214  C 94.87 39.3214  94.6007 38.8622  94.6007 38.8622  C 94.6007 38.8622  93.8921 39.3971  93.8921 39.3971  C 93.8921 39.3971  92.8439 38.5974  92.8439 38.5974  C 92.8439 38.5974  93.283 39.8025  93.283 39.8025  C 93.283 39.8025  93.1425 41.9483  93.1425 41.9483  C 93.1425 41.9483  92.8848 42.7808  92.8848 42.7808  C 92.8848 42.7808  93.5173 43.1808  93.5173 43.1808  C 93.5173 43.1808  94.4601 42.3645  94.4601 42.3645  C 94.4601 42.3645  94.9989 42.7105  94.9989 42.7105  C 94.9989 42.7105  95.7602 42.2672  95.7602 42.2672  C 95.7602 42.2672  96.6796 42.7105  96.6796 42.7105  C 96.6796 42.7105  96.5449 44.2512  96.5449 44.2512  C 96.5449 44.2512  96.1115 44.6946  96.1115 44.6946  C 96.1115 44.6946  95.8129 46.5762  95.8129 46.5762  C 95.8129 46.5762  96.0178 47.409  96.0178 47.409  C 96.0178 47.409  97.0544 48.9015  97.0544 48.9015  C 97.0544 48.9015  96.908 52.5139  96.908 52.5139  C 96.908 52.5139  97.6224 52.4599  97.6224 52.4599  C 97.6224 52.4599  98.8874 54.3857  98.8874 54.3857  C 98.8874 54.3857  97.9386 54.7698  97.9386 54.7698  C 97.9386 54.7698  97.3003 56.0628  97.3003 56.0628  C 97.3003 56.0628  98.29 56.3983  98.29 56.3983  C 98.29 56.3983  100.4216 56.2684  100.4216 56.2684  C 100.4216 56.2684  101.7803 55.6192  101.7803 55.6192  C 101.7803 55.6192  102.5533 55.8356  102.5533 55.8356  C 102.5533 55.8356  102.4302 56.6201  102.4302 56.6201  C 102.4302 56.6201  103.1857 58.1244  103.1857 58.1244  C 103.1857 58.1244  103.2033 60.706  103.2033 60.706  C 103.2033 60.706  103.6835 62.5355  103.6835 62.5355  C 103.6835 62.5355  104.5794 64.7766  104.5794 64.7766  C 104.5794 64.7766  103.9939 65.2152  103.9939 65.2152  C 103.9939 65.2152  103.8708 66.1952  103.8708 66.1952  C 103.8708 66.1952  104.6673 68.1662  104.6673 68.1662  C 104.6673 68.1662  105.7683 68.2041  105.7683 68.2041  C 105.7683 68.2041  106.4944 67.1699  106.4944 67.1699  C 106.4944 67.1699  107.4723 64.376  107.4723 64.376  C 107.4723 64.376  108.585 64.0458  108.585 64.0458  Z " fill-rule="nonzero" fill="#ffffff" stroke="none" transform="matrix(1 0 0 1 283 323 )" />
    <path d="M 108.585 64.0458  C 108.585 64.0458  109.6098 64.8254  109.6098 64.8254  C 109.6098 64.8254  110.8396 66.5689  110.8396 66.5689  C 110.8396 66.5689  110.6347 67.6572  110.6347 67.6572  C 110.6347 67.6572  111.4194 68.4262  111.4194 68.4262  C 111.4194 68.4262  111.8995 69.5472  111.8995 69.5472  C 111.8995 69.5472  111.8001 71.5025  111.8001 71.5025  C 111.8001 71.5025  112.6023 72.7104  112.6023 72.7104  C 112.6023 72.7104  113.0591 74.6824  113.0591 74.6824  C 113.0591 74.6824  111.8293 75.6414  111.8293 75.6414  C 111.8293 75.6414  110.1135 76.1994  110.1135 76.1994  C 110.1135 76.1994  109.4927 76.8985  109.4927 76.8985  C 109.4927 76.8985  108.6143 76.9635  108.6143 76.9635  C 108.6143 76.9635  108.0639 75.365  108.0639 75.365  C 108.0639 75.365  106.9512 74.807  106.9512 74.807  C 106.9512 74.807  106.4885 73.3875  106.4885 73.3875  C 106.4885 73.3875  106.8809 72.6075  106.8809 72.6075  C 106.8809 72.6075  107.0625 71.1179  107.0625 71.1179  C 107.0625 71.1179  105.9264 69.6013  105.9264 69.6013  C 105.9264 69.6013  106.4534 69.1789  106.4534 69.1789  C 106.4534 69.1789  105.9908 68.6915  105.9908 68.6915  C 105.9908 68.6915  105.2529 68.8811  105.2529 68.8811  C 105.2529 68.8811  104.7317 69.6338  104.7317 69.6338  C 104.7317 69.6338  104.9894 70.5601  104.9894 70.5601  C 104.9894 70.5601  103.7889 71.7625  103.7889 71.7625  C 103.7889 71.7625  104.3042 72.5262  104.3042 72.5262  C 104.3042 72.5262  104.1461 73.5663  104.1461 73.5663  C 104.1461 73.5663  103.6308 73.393  103.6308 73.393  C 103.6308 73.393  103.4551 75.1537  103.4551 75.1537  C 103.4551 75.1537  103.0217 75.9556  103.0217 75.9556  C 103.0217 75.9556  102.2488 75.9339  102.2488 75.9339  C 102.2488 75.9339  102.1843 77.5812  102.1843 77.5812  C 102.1843 77.5812  101.5519 79.6731  101.5519 79.6731  C 101.5519 79.6731  102.032 80.2639  102.032 80.2639  C 102.032 80.2639  101.2239 80.4753  101.2239 80.4753  C 101.2239 80.4753  101.0307 79.646  101.0307 79.646  C 101.0307 79.646  99.5197 79.0552  99.5197 79.0552  C 99.5197 79.0552  99.3792 79.6948  99.3792 79.6948  C 99.3792 79.6948  100.2108 79.8357  100.2108 79.8357  C 100.2108 79.8357  100.6734 80.9793  100.6734 80.9793  C 100.6734 80.9793  99.3675 80.4482  99.3675 80.4482  C 99.3675 80.4482  98.899 80.9793  98.899 80.9793  C 98.899 80.9793  97.9445 80.0525  97.9445 80.0525  C 97.9445 80.0525  98.5242 79.0986  98.5242 79.0986  C 98.5242 79.0986  98.2666 78.4916  98.2666 78.4916  C 98.2666 78.4916  96.8143 78.2315  96.8143 78.2315  C 96.8143 78.2315  96.3926 79.4835  96.3926 79.4835  C 96.3926 79.4835  96.7088 79.8195  96.7088 79.8195  C 96.7088 79.8195  96.2814 81.0444  96.2814 81.0444  C 96.2814 81.0444  96.6796 83.0229  96.6796 83.0229  C 96.6796 83.0229  96.2111 84.0529  96.2111 84.0529  C 96.2111 84.0529  94.2551 84.5247  94.2551 84.5247  C 94.2551 84.5247  92.8556 85.5873  92.8556 85.5873  C 92.8556 85.5873  93.2537 87.5665  93.2537 87.5665  C 93.2537 87.5665  92.5159 89.7954  92.5159 89.7954  C 92.5159 89.7954  91.7487 91.1948  91.7487 91.1948  C 91.7487 91.1948  91.2217 93.0446  91.2217 93.0446  C 91.2217 93.0446  91.8131 94.9597  91.8131 94.9597  C 91.8131 94.9597  90.5307 94.9814  90.5307 94.9814  C 90.5307 94.9814  89.3302 95.893  89.3302 95.893  C 89.3302 95.893  88.1824 95.2961  88.1824 95.2961  C 88.1824 95.2961  87.5909 95.9961  87.5909 95.9961  C 87.5909 95.9961  87.9247 97.3852  87.9247 97.3852  C 87.9247 97.3852  87.4328 98.2372  87.4328 98.2372  C 87.4328 98.2372  87.6495 99.3986  87.6495 99.3986  C 87.6495 99.3986  86.572 98.8667  86.572 98.8667  C 86.572 98.8667  86.3377 97.6565  86.3377 97.6565  C 86.3377 97.6565  85.834 97.3254  85.834 97.3254  C 85.834 97.3254  85.5354 95.7301  85.5354 95.7301  C 85.5354 95.7301  84.048 94.2219  84.048 94.2219  C 84.048 94.2219  83.3452 95.2038  83.3452 95.2038  C 83.3452 95.2038  81.5181 94.4389  81.5181 94.4389  C 81.5181 94.4389  79.8199 94.1459  79.8199 94.1459  C 79.8199 94.1459  79.1054 93.6739  79.1054 93.6739  C 79.1054 93.6739  78.7716 92.2362  78.7716 92.2362  C 78.7716 92.2362  77.6882 90.5819  77.6882 90.5819  C 77.6882 90.5819  76.6693 90.392  76.6693 90.392  C 76.6693 90.392  75.8318 89.0416  75.8318 89.0416  C 75.8318 89.0416  74.1805 88.4883  74.1805 88.4883  C 74.1805 88.4883  74.2858 87.1598  74.2858 87.1598  C 74.2858 87.1598  73.8701 86.52  73.8701 86.52  C 73.8701 86.52  72.8394 86.3843  72.8394 86.3843  C 72.8394 86.3843  71.9493 85.0614  71.9493 85.0614  C 71.9493 85.0614  71.9727 84.0475  71.9727 84.0475  C 71.9727 84.0475  70.8659 80.8763  70.8659 80.8763  C 70.8659 80.8763  71.3871 79.1961  71.3871 79.1961  C 71.3871 79.1961  72.4236 78.9848  72.4236 78.9848  C 72.4236 78.9848  73.0853 77.9226  73.0853 77.9226  C 73.0853 77.9226  73.0678 76.5137  73.0678 76.5137  C 73.0678 76.5137  72.0606 76.0477  72.0606 76.0477  C 72.0606 76.0477  70.5965 72.6183  70.5965 72.6183  C 70.5965 72.6183  69.8703 71.9791  69.8703 71.9791  C 69.8703 71.9791  68.5411 73.2954  68.5411 73.2954  C 68.5411 73.2954  67.9379 74.807  67.9379 74.807  C 67.9379 74.807  67.0009 76.2265  67.0009 76.2265  C 67.0009 76.2265  66.6378 76.064  66.6378 76.064  C 66.6378 76.064  65.7242 77.3103  65.7242 77.3103  C 65.7242 77.3103  65.572 78.4266  65.572 78.4266  C 65.572 78.4266  63.5516 77.5325  63.5516 77.5325  C 63.5516 77.5325  63.3232 78.302  63.3232 78.302  C 63.3232 78.302  62.4506 77.2995  62.4506 77.2995  C 62.4506 77.2995  60.6411 76.8551  60.6411 76.8551  C 60.6411 76.8551  60.5123 75.8472  60.5123 75.8472  C 60.5123 75.8472  59.5753 75.6576  59.5753 75.6576  C 59.5753 75.6576  60.3483 74.5145  60.3483 74.5145  C 60.3483 74.5145  61.0569 74.8666  61.0569 74.8666  C 61.0569 74.8666  61.4961 74.1786  61.4961 74.1786  C 61.4961 74.1786  62.4273 74.872  62.4273 74.872  C 62.4273 74.872  62.5326 73.6801  62.5326 73.6801  C 62.5326 73.6801  61.9939 72.9433  61.9939 72.9433  C 61.9939 72.9433  62.2984 72.0875  62.2984 72.0875  C 62.2984 72.0875  63.3584 72.0062  63.3584 72.0062  C 63.3584 72.0062  63.3232 69.3306  63.3232 69.3306  C 63.3232 69.3306  62.6908 69.4118  62.6908 69.4118  C 62.6908 69.4118  61.7831 67.6518  61.7831 67.6518  C 61.7831 67.6518  61.0686 67.3648  61.0686 67.3648  C 61.0686 67.3648  61.1564 66.4768  61.1564 66.4768  C 61.1564 66.4768  60.606 66.3577  60.606 66.3577  C 60.606 66.3577  60.4654 67.197  60.4654 67.197  C 60.4654 67.197  59.4465 67.6356  59.4465 67.6356  C 59.4465 67.6356  59.464 68.6265  59.464 68.6265  C 59.464 68.6265  58.6559 69.7042  58.6559 69.7042  C 58.6559 69.7042  58.451 70.7984  58.451 70.7984  C 58.451 70.7984  59.019 72.0333  59.019 72.0333  C 59.019 72.0333  58.0996 72.7537  58.0996 72.7537  C 58.0996 72.7537  55.7117 74.6499  55.7117 74.6499  C 55.7117 74.6499  55.4071 75.831  55.4071 75.831  C 55.4071 75.831  54.1657 76.6437  54.1657 76.6437  C 54.1657 76.6437  54.1599 77.1857  54.1599 77.1857  C 54.1599 77.1857  52.1746 78.432  52.1746 78.432  C 52.1746 78.432  50.775 81.4996  50.775 81.4996  C 50.775 81.4996  50.9038 82.9687  50.9038 82.9687  C 50.9038 82.9687  50.2889 85.1319  50.2889 85.1319  C 50.2889 85.1319  48.5965 87.4309  48.5965 87.4309  C 48.5965 87.4309  47.7649 87.4038  47.7649 87.4038  C 47.7649 87.4038  47.6303 85.9777  47.6303 85.9777  C 47.6303 85.9777  47.0856 85.2783  47.0856 85.2783  C 47.0856 85.2783  45.3054 85.7933  45.3054 85.7933  C 45.3054 85.7933  44.2162 85.2783  44.2162 85.2783  C 44.2162 85.2783  43.5896 84.4976  43.5896 84.4976  C 43.5896 84.4976  43.1269 85.8855  43.1269 85.8855  C 43.1269 85.8855  42.8517 84.7795  42.8517 84.7795  C 42.8517 84.7795  43.2557 83.4512  43.2557 83.4512  C 43.2557 83.4512  42.8576 83.4295  42.8576 83.4295  C 42.8576 83.4295  43.0273 82.1556  43.0273 82.1556  C 43.0273 82.1556  42.4125 82.1339  42.4125 82.1339  C 42.4125 82.1339  42.5472 81.272  42.5472 81.272  C 42.5472 81.272  42.149 80.5511  42.149 80.5511  C 42.149 80.5511  41.3466 80.3777  41.3466 80.3777  C 41.3466 80.3777  39.2853 81.4617  39.2853 81.4617  C 39.2853 81.4617  38.524 82.676  38.524 82.676  C 38.524 82.676  38.6587 83.2289  38.6587 83.2289  C 38.6587 83.2289  37.3938 83.8415  37.3938 83.8415  C 37.3938 83.8415  37.4582 85.6795  37.4582 85.6795  C 37.4582 85.6795  35.9122 87.6316  35.9122 87.6316  C 35.9122 87.6316  34.5829 86.2271  34.5829 86.2271  C 34.5829 86.2271  32.9842 85.0451  32.9842 85.0451  C 32.9842 85.0451  31.649 86.6013  31.649 86.6013  C 31.649 86.6013  32.2229 87.6316  32.2229 87.6316  C 32.2229 87.6316  31.9593 88.1955  31.9593 88.1955  C 31.9593 88.1955  32.4922 89.6707  32.4922 89.6707  C 32.4922 89.6707  31.7954 91.5203  31.7954 91.5203  C 31.7954 91.5203  29.8629 91.4986  29.8629 91.4986  C 29.8629 91.4986  29.3651 92.9632  29.3651 92.9632  C 29.3651 92.9632  28.0124 93.0826  28.0124 93.0826  C 28.0124 93.0826  27.6493 92.6269  27.6493 92.6269  C 27.6493 92.6269  27.9596 91.0158  27.9596 91.0158  C 27.9596 91.0158  27.0812 89.9798  27.0812 89.9798  C 27.0812 89.9798  27.0168 88.1304  27.0168 88.1304  C 27.0168 88.1304  26.601 87.6966  26.601 87.6966  C 26.601 87.6966  27.1574 86.4223  27.1574 86.4223  C 27.1574 86.4223  27.3682 84.3241  27.3682 84.3241  C 27.3682 84.3241  26.5835 83.9716  26.5835 83.9716  C 26.5835 83.9716  25.1721 84.6114  25.1721 84.6114  C 25.1721 84.6114  24.3347 83.977  24.3347 83.977  C 24.3347 83.977  22.531 84.8987  22.531 84.8987  C 22.531 84.8987  21.6526 83.2723  21.6526 83.2723  C 21.6526 83.2723  20.9851 83.9716  20.9851 83.9716  C 20.9851 83.9716  18.1916 84.9963  18.1916 84.9963  C 18.1916 84.9963  16.9444 86.4331  16.9444 86.4331  C 16.9444 86.4331  16.5695 84.9855  16.5695 84.9855  C 16.5695 84.9855  16.9677 83.7927  16.9677 83.7927  C 16.9677 83.7927  17.5709 83.1801  17.5709 83.1801  C 17.5709 83.1801  18.2386 80.7571  18.2386 80.7571  C 18.2386 80.7571  20.4404 80.5511  20.4404 80.5511  C 20.4404 80.5511  20.7391 79.7761  20.7391 79.7761  C 20.7391 79.7761  18.9822 78.535  18.9822 78.535  C 18.9822 78.535  18.9412 77.3862  18.9412 77.3862  C 18.9412 77.3862  17.12 76.2319  17.12 76.2319  C 17.12 76.2319  15.1523 76.5191  15.1523 76.5191  C 15.1523 76.5191  14.8127 77.0881  14.8127 77.0881  C 14.8127 77.0881  12.5288 76.866  12.5288 76.866  C 12.5288 76.866  12.2595 75.9664  12.2595 75.9664  C 12.2595 75.9664  10.813 74.379  10.813 74.379  C 10.813 74.379  9.98140000000001 74.975  9.98140000000001 74.975  C 9.98140000000001 74.975  9.13229999999999 74.8341  9.13229999999999 74.8341  C 9.13229999999999 74.8341  8.14850000000001 73.3605  8.14850000000001 73.3605  C 8.14850000000001 73.3605  6.80149999999998 72.8025  6.80149999999998 72.8025  C 6.80149999999998 72.8025  6.71949999999998 71.4808  6.71949999999998 71.4808  C 6.71949999999998 71.4808  6.20420000000001 70.9609  6.20420000000001 70.9609  C 6.20420000000001 70.9609  5.55419999999998 68.6807  5.55419999999998 68.6807  C 5.55419999999998 68.6807  6.25689999999997 67.8305  6.25689999999997 67.8305  C 6.25689999999997 67.8305  6.23939999999999 66.6663  6.23939999999999 66.6663  C 6.23939999999999 66.6663  5.29649999999998 65.6591  5.29649999999998 65.6591  C 5.29649999999998 65.6591  5.22039999999998 65.0852  5.22039999999998 65.0852  C 5.22039999999998 65.0852  4.0609 64.7929  4.0609 64.7929  C 4.0609 64.7929  3.78570000000002 65.7566  3.78570000000002 65.7566  C 3.78570000000002 65.7566  2.63200000000001 65.8161  2.63200000000001 65.8161  C 2.63200000000001 65.8161  2.13419999999999 64.3435  2.13419999999999 64.3435  C 2.13419999999999 64.3435  0.664400000000001 63.2067  0.664400000000001 63.2067  C 0.664400000000001 63.2067  0.406700000000001 62.0212  0.406700000000001 62.0212  C 0.406700000000001 62.0212  2.30410000000001 62.2107  2.30410000000001 62.2107  C 2.30410000000001 62.2107  3.0478 61.8264  3.0478 61.8264  C 3.0478 61.8264  3.36399999999998 60.9766  3.36399999999998 60.9766  C 3.36399999999998 60.9766  4.95690000000002 60.9116  4.95690000000002 60.9116  C 4.95690000000002 60.9116  6.95960000000002 61.4367  6.95960000000002 61.4367  C 6.95960000000002 61.4367  9.13229999999999 61.1498  9.13229999999999 61.1498  C 9.13229999999999 61.1498  9.24349999999998 61.5395  9.24349999999998 61.5395  C 9.24349999999998 61.5395  11.2229 61.1119  11.2229 61.1119  C 11.2229 61.1119  11.4162 60.1268  11.4162 60.1268  C 11.4162 60.1268  12.4761 60.3325  12.4761 60.3325  C 12.4761 60.3325  13.5185 59.223  13.5185 59.223  C 13.5185 59.223  14.0456 58.2218  14.0456 58.2218  C 14.0456 58.2218  14.2037 56.9502  14.2037 56.9502  C 14.2037 56.9502  15.2812 56.3604  15.2812 56.3604  C 15.2812 56.3604  15.4101 55.6733  15.4101 55.6733  C 15.4101 55.6733  16.5754 55.9979  16.5754 55.9979  C 16.5754 55.9979  16.6281 55.1593  16.6281 55.1593  C 16.6281 55.1593  18.0628 54.2504  18.0628 54.2504  C 18.0628 54.2504  17.7583 53.4065  17.7583 53.4065  C 17.7583 53.4065  19.2106 51.0103  19.2106 51.0103  C 19.2106 51.0103  18.9822 50.5668  18.9822 50.5668  C 18.9822 50.5668  20.2062 48.8258  20.2062 48.8258  C 20.2062 48.8258  21.0377 47.3116  21.0377 47.3116  C 21.0377 47.3116  21.881 46.8574  21.881 46.8574  C 21.881 46.8574  22.6423 45.3704  22.6423 45.3704  C 22.6423 45.3704  23.1928 44.9541  23.1928 44.9541  C 23.1928 44.9541  23.4388 42.8402  23.4388 42.8402  C 23.4388 42.8402  24.077 42.2834  24.077 42.2834  C 24.077 42.2834  24.4753 41.1537  24.4753 41.1537  C 24.4753 41.1537  24.3582 39.8619  24.3582 39.8619  C 24.3582 39.8619  23.6496 39.0081  23.6496 39.0081  C 23.6496 39.0081  24.0009 38.6568  24.0009 38.6568  C 24.0009 38.6568  23.5617 36.8681  23.5617 36.8681  C 23.5617 36.8681  24.4635 36.9437  24.4635 36.9437  C 24.4635 36.9437  24.6099 36.3926  24.6099 36.3926  C 24.6099 36.3926  26.1325 35.5767  26.1325 35.5767  C 26.1325 35.5767  26.6303 34.561  26.6303 34.561  C 26.6303 34.561  25.5528 33.097  25.5528 33.097  C 25.5528 33.097  26.115 32.3083  26.115 32.3083  C 26.115 32.3083  27.4151 32.0274  27.4151 32.0274  C 27.4151 32.0274  27.5732 31.0551  27.5732 31.0551  C 27.5732 31.0551  28.9435 29.9803  28.9435 29.9803  C 28.9435 29.9803  28.4223 27.4908  28.4223 27.4908  C 28.4223 27.4908  28.9845 26.3784  28.9845 26.3784  C 28.9845 26.3784  26.5015 26.9238  26.5015 26.9238  C 26.5015 26.9238  25.9393 26.7294  25.9393 26.7294  C 25.9393 26.7294  24.7798 25.3851  24.7798 25.3851  C 24.7798 25.3851  24.3757 24.2405  24.3757 24.2405  C 24.3757 24.2405  24.4343 22.3296  24.4343 22.3296  C 24.4343 22.3296  24.815 21.1205  24.815 21.1205  C 24.815 21.1205  24.5572 19.1992  24.5572 19.1992  C 24.5572 19.1992  23.7491 18.924  23.7491 18.924  C 23.7491 18.924  26.2438 17.3861  26.2438 17.3861  C 26.2438 17.3861  25.7694 16.3933  25.7694 16.3933  C 25.7694 16.3933  25.1487 16.5875  25.1487 16.5875  C 25.1487 16.5875  25.1428 13.89  25.1428 13.89  C 25.1428 13.89  25.4942 12.2502  25.4942 12.2502  C 25.4942 12.2502  24.6568 11.6838  24.6568 11.6838  C 24.6568 11.6838  24.7563 11.096  24.7563 11.096  C 24.7563 11.096  23.7316 9.53199999999998  23.7316 9.53199999999998  C 23.7316 9.53199999999998  24.2001 6.7389  24.2001 6.7389  C 24.2001 6.7389  23.3743 6.1026  23.3743 6.1026  C 23.3743 6.1026  22.6188 6.56630000000001  22.6188 6.56630000000001  C 22.6188 6.56630000000001  22.4959 5.87630000000001  22.4959 5.87630000000001  C 22.4959 5.87630000000001  23.0288 4.798  23.0288 4.798  C 23.0288 4.798  22.7828 4.22669999999999  22.7828 4.22669999999999  C 22.7828 4.22669999999999  24.5514 2.63099999999997  24.5514 2.63099999999997  C 24.5514 2.63099999999997  24.4401 1.54770000000002  24.4401 1.54770000000002  C 24.4401 1.54770000000002  24.4928 1.07339999999999  24.4928 1.07339999999999  C 24.4928 1.07339999999999  25.7812 0.496800000000007  25.7812 0.496800000000007  C 25.7812 0.496800000000007  27.011 1.47770000000003  27.011 1.47770000000003  C 27.011 1.47770000000003  27.9596 1.44529999999997  27.9596 1.44529999999997  C 27.9596 1.44529999999997  29.5701 2.95979999999997  29.5701 2.95979999999997  C 29.5701 2.95979999999997  29.2363 3.60129999999998  29.2363 3.60129999999998  C 29.2363 3.60129999999998  30.425 4.16739999999999  30.425 4.16739999999999  C 30.425 4.16739999999999  30.6945 4.96510000000001  30.6945 4.96510000000001  C 30.6945 4.96510000000001  31.8891 5.64449999999999  31.8891 5.64449999999999  C 31.8891 5.64449999999999  33.441 4.67399999999998  33.441 4.67399999999998  C 33.441 4.67399999999998  34.4716 4.9058  34.4716 4.9058  C 34.4716 4.9058  35.1919 4.28050000000002  35.1919 4.28050000000002  C 35.1919 4.28050000000002  35.514 2.54489999999998  35.514 2.54489999999998  C 35.514 2.54489999999998  36.1231 2.04899999999998  36.1231 2.04899999999998  C 36.1231 2.04899999999998  35.8127 0.798600000000022  35.8127 0.798600000000022  C 35.8127 0.798600000000022  36.4451 0.593799999999987  36.4451 0.593799999999987  C 36.4451 0.593799999999987  37.8213 3.28870000000001  37.8213 3.28870000000001  C 37.8213 3.28870000000001  39.6309 6.07029999999997  39.6309 6.07029999999997  C 39.6309 6.07029999999997  39.8182 7.82260000000002  39.8182 7.82260000000002  C 39.8182 7.82260000000002  39.2736 8.90109999999999  39.2736 8.90109999999999  C 39.2736 8.90109999999999  37.2416 9.74770000000001  37.2416 9.74770000000001  C 37.2416 9.74770000000001  36.5681 11.1392  36.5681 11.1392  C 36.5681 11.1392  37.0308 11.9697  37.0308 11.9697  C 37.0308 11.9697  39.7421 13.8954  39.7421 13.8954  C 39.7421 13.8954  41.1885 14.4618  41.1885 14.4618  C 41.1885 14.4618  43.4958 14.3216  43.4958 14.3216  C 43.4958 14.3216  44.5148 14.7748  44.5148 14.7748  C 44.5148 14.7748  45.4108 16.8843  45.4108 16.8843  C 45.4108 16.8843  45.9145 17.521  45.9145 17.521  C 45.9145 17.521  47.6713 17.904  47.6713 17.904  C 47.6713 17.904  48.6668 17.5804  48.6668 17.5804  C 48.6668 17.5804  49.8439 18.2872  49.8439 18.2872  C 49.8439 18.2872  51.3314 18.298  51.3314 18.298  C 51.3314 18.298  53.3693 19.6094  53.3693 19.6094  C 53.3693 19.6094  54.6517 20.0897  54.6517 20.0897  C 54.6517 20.0897  58.9839 20.4296  58.9839 20.4296  C 58.9839 20.4296  60.7349 20.2623  60.7349 20.2623  C 60.7349 20.2623  62.5268 19.2802  62.5268 19.2802  C 62.5268 19.2802  63.7741 19.5716  63.7741 19.5716  C 63.7741 19.5716  64.3832 20.2947  64.3832 20.2947  C 64.3832 20.2947  65.49 20.8722  65.49 20.8722  C 65.49 20.8722  67.2175 20.9478  67.2175 20.9478  C 67.2175 20.9478  70.087 20.3379  70.087 20.3379  C 70.087 20.3379  70.7136 20.4566  70.7136 20.4566  C 70.7136 20.4566  71.5921 21.4713  71.5921 21.4713  C 71.5921 21.4713  71.8731 23.7546  71.8731 23.7546  C 71.8731 23.7546  72.5407 24.802  72.5407 24.802  C 72.5407 24.802  75.176 25.3959  75.176 25.3959  C 75.176 25.3959  75.9256 26.2597  75.9256 26.2597  C 75.9256 26.2597  76.8274 26.2975  76.8274 26.2975  C 76.8274 26.2975  79.5915 25.547  79.5915 25.547  C 79.5915 25.547  80.7919 24.505  80.7919 24.505  C 80.7919 24.505  82.2326 25.2123  82.2326 25.2123  C 82.2326 25.2123  83.392 24.9261  83.392 24.9261  C 83.392 24.9261  85.834 26.0221  85.834 26.0221  C 85.834 26.0221  87.8018 26.0761  87.8018 26.0761  C 87.8018 26.0761  91.128 21.9625  91.128 21.9625  C 91.128 21.9625  93.4529 21.4929  93.4529 21.4929  C 93.4529 21.4929  95.0223 20.4512  95.0223 20.4512  C 95.0223 20.4512  96.2111 21.2068  96.2111 21.2068  C 96.2111 21.2068  97.0251 21.3148  97.0251 21.3148  C 97.0251 21.3148  97.0895 21.9355  97.0895 21.9355  C 97.0895 21.9355  98.1905 23.0528  98.1905 23.0528  C 98.1905 23.0528  98.1319 24.1325  98.1319 24.1325  C 98.1319 24.1325  97.4643 25.4877  97.4643 25.4877  C 97.4643 25.4877  96.2111 25.5632  96.2111 25.5632  C 96.2111 25.5632  95.8012 27.4692  95.8012 27.4692  C 95.8012 27.4692  95.0047 29.3323  95.0047 29.3323  C 95.0047 29.3323  95.3385 31.1956  95.3385 31.1956  C 95.3385 31.1956  95.1101 31.6277  95.1101 31.6277  C 95.1101 31.6277  96.0471 32.6162  96.0471 32.6162  C 96.0471 32.6162  95.0925 35.1985  95.0925 35.1985  C 95.0925 35.1985  94.9989 36.09  94.9989 36.09  C 94.9989 36.09  94.384 36.6628  94.384 36.6628  C 94.384 36.6628  95.3678 38.4947  95.3678 38.4947  C 95.3678 38.4947  94.87 39.3214  94.87 39.3214  C 94.87 39.3214  94.6007 38.8622  94.6007 38.8622  C 94.6007 38.8622  93.8921 39.3971  93.8921 39.3971  C 93.8921 39.3971  92.8439 38.5974  92.8439 38.5974  C 92.8439 38.5974  93.283 39.8025  93.283 39.8025  C 93.283 39.8025  93.1425 41.9483  93.1425 41.9483  C 93.1425 41.9483  92.8848 42.7808  92.8848 42.7808  C 92.8848 42.7808  93.5173 43.1808  93.5173 43.1808  C 93.5173 43.1808  94.4601 42.3645  94.4601 42.3645  C 94.4601 42.3645  94.9989 42.7105  94.9989 42.7105  C 94.9989 42.7105  95.7602 42.2672  95.7602 42.2672  C 95.7602 42.2672  96.6796 42.7105  96.6796 42.7105  C 96.6796 42.7105  96.5449 44.2512  96.5449 44.2512  C 96.5449 44.2512  96.1115 44.6946  96.1115 44.6946  C 96.1115 44.6946  95.8129 46.5762  95.8129 46.5762  C 95.8129 46.5762  96.0178 47.409  96.0178 47.409  C 96.0178 47.409  97.0544 48.9015  97.0544 48.9015  C 97.0544 48.9015  96.908 52.5139  96.908 52.5139  C 96.908 52.5139  97.6224 52.4599  97.6224 52.4599  C 97.6224 52.4599  98.8874 54.3857  98.8874 54.3857  C 98.8874 54.3857  97.9386 54.7698  97.9386 54.7698  C 97.9386 54.7698  97.3003 56.0628  97.3003 56.0628  C 97.3003 56.0628  98.29 56.3983  98.29 56.3983  C 98.29 56.3983  100.4216 56.2684  100.4216 56.2684  C 100.4216 56.2684  101.7803 55.6192  101.7803 55.6192  C 101.7803 55.6192  102.5533 55.8356  102.5533 55.8356  C 102.5533 55.8356  102.4302 56.6201  102.4302 56.6201  C 102.4302 56.6201  103.1857 58.1244  103.1857 58.1244  C 103.1857 58.1244  103.2033 60.706  103.2033 60.706  C 103.2033 60.706  103.6835 62.5355  103.6835 62.5355  C 103.6835 62.5355  104.5794 64.7766  104.5794 64.7766  C 104.5794 64.7766  103.9939 65.2152  103.9939 65.2152  C 103.9939 65.2152  103.8708 66.1952  103.8708 66.1952  C 103.8708 66.1952  104.6673 68.1662  104.6673 68.1662  C 104.6673 68.1662  105.7683 68.2041  105.7683 68.2041  C 105.7683 68.2041  106.4944 67.1699  106.4944 67.1699  C 106.4944 67.1699  107.4723 64.376  107.4723 64.376  C 107.4723 64.376  108.585 64.0458  108.585 64.0458  Z " stroke-width="2" stroke="#666666" fill="none" transform="matrix(1 0 0 1 283 323 )" mask="url(#clip48)" />
  </g>
</svg>