<?xml version="1.0" encoding="utf-8"?>
<svg version="1.1" xmlns:xlink="http://www.w3.org/1999/xlink" width="86px" height="147px" xmlns="http://www.w3.org/2000/svg">
  <g transform="matrix(1 0 0 1 -428 -261 )">
    <path d="M 35.1011 122.8683  C 35.1011 122.8683  31.5054 119.8376  31.5054 119.8376  C 31.5054 119.8376  30.8496 117.7598  30.8496 117.7598  C 30.8496 117.7598  32.8758 117.116  32.8758 117.116  C 32.8758 117.116  33.6664 116.0448  33.6664 116.0448  C 33.6664 116.0448  32.2141 114.7411  32.2141 114.7411  C 32.2141 114.7411  31.441 114.6546  31.441 114.6546  C 31.441 114.6546  29.2801 115.2172  29.2801 115.2172  C 29.2801 115.2172  27.453 113.9514  27.453 113.9514  C 27.453 113.9514  27.2656 111.8312  27.2656 111.8312  C 27.2656 111.8312  26.2467 110.6793  26.2467 110.6793  C 26.2467 110.6793  26.6332 110.3116  26.6332 110.3116  C 26.6332 110.3116  26.5629 109.1923  26.5629 109.1923  C 26.5629 109.1923  24.7768 107.3972  24.7768 107.3972  C 24.7768 107.3972  25.4561 106.7106  25.4561 106.7106  C 25.4561 106.7106  25.1867 104.0672  25.1867 104.0672  C 25.1867 104.0672  26.3931 103.3916  26.3931 103.3916  C 26.3931 103.3916  25.3975 101.6514  25.3975 101.6514  C 25.3975 101.6514  24.0507 100.8678  24.0507 100.8678  C 24.0507 100.8678  22.856 99.6898  22.856 99.6898  C 22.856 99.6898  22.7096 95.7459  22.7096 95.7459  C 22.7096 95.7459  23.3479 95.2435  23.3479 95.2435  C 23.3479 95.2435  23.0844 92.1001  23.0844 92.1001  C 23.0844 92.1001  20.8532 92.4024  20.8532 92.4024  C 20.8532 92.4024  19.7815 92.2567  19.7815 92.2567  C 19.7815 92.2567  18.5634 90.9444  18.5634 90.9444  C 18.5634 90.9444  17.7319 90.5934  17.7319 90.5934  C 17.7319 90.5934  17.1463 88.8548  17.1463 88.8548  C 17.1463 88.8548  18.4053 88.1205  18.4053 88.1205  C 18.4053 88.1205  19.559 88.1583  19.559 88.1583  C 19.559 88.1583  20.0977 86.4145  20.0977 86.4145  C 20.0977 86.4145  19.5122 86.5117  19.5122 86.5117  C 19.5122 86.5117  19.1725 84.25  19.1725 84.25  C 19.1725 84.25  19.6293 84.2554  19.6293 84.2554  C 19.6293 84.2554  19.7699 82.1398  19.7699 82.1398  C 19.7699 82.1398  18.2765 82.0535  18.2765 82.0535  C 18.2765 82.0535  17.8841 81.5624  17.8841 81.5624  C 17.8841 81.5624  17.9486 80.4563  17.9486 80.4563  C 17.9486 80.4563  19.6117 78.6271  19.6117 78.6271  C 19.6117 78.6271  19.5766 77.0896  19.5766 77.0896  C 19.5766 77.0896  19.2603 76.1726  19.2603 76.1726  C 19.2603 76.1726  18.2062 74.7701  18.2062 74.7701  C 18.2062 74.7701  17.1698 74.1661  17.1698 74.1661  C 17.1698 74.1661  17.0936 71.5643  17.0936 71.5643  C 17.0936 71.5643  17.5152 70.0491  17.5152 70.0491  C 17.5152 70.0491  17.1873 68.0272  17.1873 68.0272  C 17.1873 68.0272  15.8989 66.4638  15.8989 66.4638  C 15.8989 66.4638  15.1142 66.1242  15.1142 66.1242  C 15.1142 66.1242  15.1318 65.3102  15.1318 65.3102  C 15.1318 65.3102  13.3867 63.6232  13.3867 63.6232  C 13.3867 63.6232  13.1348 64.3239  13.1348 64.3239  C 13.1348 64.3239  11.6884 64.8251  11.6884 64.8251  C 11.6884 64.8251  12.0281 65.5151  12.0281 65.5151  C 12.0281 65.5151  11.6709 66.1512  11.6709 66.1512  C 11.6709 66.1512  10.5231 66.1296  10.5231 66.1296  C 10.5231 66.1296  10.1893 66.6039  10.1893 66.6039  C 10.1893 66.6039  9.1293 66.7064  9.1293 66.7064  C 9.1293 66.7064  9.86720000000003 69.0031  9.86720000000003 69.0031  C 9.86720000000003 69.0031  9.70319999999998 70.1893  9.70319999999998 70.1893  C 9.70319999999998 70.1893  8.97120000000001 70.3187  8.97120000000001 70.3187  C 8.97120000000001 70.3187  7.69459999999998 69.8495  7.69459999999998 69.8495  C 7.69459999999998 69.8495  7.03870000000001 69.9736  7.03870000000001 69.9736  C 7.03870000000001 69.9736  7.63600000000002 68.8305  7.63600000000002 68.8305  C 7.63600000000002 68.8305  7.53649999999999 67.3048  7.53649999999999 67.3048  C 7.53649999999999 67.3048  6.8571 66.7926  6.8571 66.7926  C 6.8571 66.7926  6.08999999999998 65.0138  6.08999999999998 65.0138  C 6.08999999999998 65.0138  6.47649999999999 63.0574  6.47649999999999 63.0574  C 6.47649999999999 63.0574  5.399 62.5669  5.399 62.5669  C 5.399 62.5669  5.71519999999998 61.6884  5.71519999999998 61.6884  C 5.71519999999998 61.6884  6.92160000000001 59.8942  6.92160000000001 59.8942  C 6.92160000000001 59.8942  6.26560000000001 59.2583  6.26560000000001 59.2583  C 6.26560000000001 59.2583  5.00659999999999 60.891  5.00659999999999 60.891  C 5.00659999999999 60.891  4.56740000000002 59.7433  4.56740000000002 59.7433  C 4.56740000000002 59.7433  2.82810000000001 59.5277  2.82810000000001 59.5277  C 2.82810000000001 59.5277  2.12540000000001 56.9256  2.12540000000001 56.9256  C 2.12540000000001 56.9256  2.71690000000001 55.9236  2.71690000000001 55.9236  C 2.71690000000001 55.9236  2.88670000000002 54.6471  2.88670000000002 54.6471  C 2.88670000000002 54.6471  3.68900000000002 54.2701  3.68900000000002 54.2701  C 3.68900000000002 54.2701  2.74029999999999 52.8968  2.74029999999999 52.8968  C 2.74029999999999 52.8968  2.28930000000003 51.4052  2.28930000000003 51.4052  C 2.28930000000003 51.4052  2.77539999999999 50.506  2.77539999999999 50.506  C 2.77539999999999 50.506  1.97309999999999 50.6783  1.97309999999999 50.6783  C 1.97309999999999 50.6783  1.63350000000003 51.4429  1.63350000000003 51.4429  C 1.63350000000003 51.4429  0.567700000000002 52.2667  0.567700000000002 52.2667  C 0.567700000000002 52.2667  0.696500000000015 50.3875  0.696500000000015 50.3875  C 0.696500000000015 50.3875  1.53980000000001 49.8167  1.53980000000001 49.8167  C 1.53980000000001 49.8167  1.70960000000002 48.4332  1.70960000000002 48.4332  C 1.70960000000002 48.4332  3.09750000000003 48.1048  3.09750000000003 48.1048  C 3.09750000000003 48.1048  3.96420000000001 48.5946  3.96420000000001 48.5946  C 3.96420000000001 48.5946  4.98320000000001 47.8786  4.98320000000001 47.8786  C 4.98320000000001 47.8786  6.88639999999998 47.3618  6.88639999999998 47.3618  C 6.88639999999998 47.3618  7.87610000000001 47.5825  7.87610000000001 47.5825  C 7.87610000000001 47.5825  8.48509999999999 46.506  8.48509999999999 46.506  C 8.48509999999999 46.506  9.37529999999998 46.3337  9.37529999999998 46.3337  C 9.37529999999998 46.3337  10.0194 45.311  10.0194 45.311  C 10.0194 45.311  11.9344 44.9343  11.9344 44.9343  C 11.9344 44.9343  13.4394 43.4435  13.4394 43.4435  C 13.4394 43.4435  15.3368 44.4392  15.3368 44.4392  C 15.3368 44.4392  16.7539 43.4651  16.7539 43.4651  C 16.7539 43.4651  18.2824 43.2229  18.2824 43.2229  C 18.2824 43.2229  18.2121 42.3619  18.2121 42.3619  C 18.2121 42.3619  19.7991 40.2527  19.7991 40.2527  C 19.7991 40.2527  19.6644 39.3273  19.6644 39.3273  C 19.6644 39.3273  18.9499 38.4289  18.9499 38.4289  C 18.9499 38.4289  19.0613 36.9335  19.0613 36.9335  C 19.0613 36.9335  19.9983 36.1428  19.9983 36.1428  C 19.9983 36.1428  20.9527 35.9922  20.9527 35.9922  C 20.9527 35.9922  21.0172 35.1048  21.0172 35.1048  C 21.0172 35.1048  22.3933 35.734  22.3933 35.734  C 22.3933 35.734  21.9717 33.9055  21.9717 33.9055  C 21.9717 33.9055  22.5925 34.3788  22.5925 34.3788  C 22.5925 34.3788  24.7417 32.9106  24.7417 32.9106  C 24.7417 32.9106  25.0052 33.6259  25.0052 33.6259  C 25.0052 33.6259  25.8075 32.7978  25.8075 32.7978  C 25.8075 32.7978  26.4868 30.7223  26.4868 30.7223  C 26.4868 30.7223  25.7079 30.0181  25.7079 30.0181  C 25.7079 30.0181  27.371 30.1255  27.371 30.1255  C 27.371 30.1255  28.6945 29.9159  28.6945 29.9159  C 28.6945 29.9159  28.6652 28.8837  28.6652 28.8837  C 28.6652 28.8837  29.1923 28.7923  29.1923 28.7923  C 29.1923 28.7923  29.4676 27.8409  29.4676 27.8409  C 29.4676 27.8409  30.1527 27.6903  30.1527 27.6903  C 30.1527 27.6903  31.5992 23.2995  31.5992 23.2995  C 31.5992 23.2995  32.0618 23.3586  32.0618 23.3586  C 32.0618 23.3586  32.5186 21.1396  32.5186 21.1396  C 32.5186 21.1396  34.006 21.2363  34.006 21.2363  C 34.006 21.2363  34.4979 21.9563  34.4979 21.9563  C 34.4979 21.9563  37.1098 21.5855  37.1098 21.5855  C 37.1098 21.5855  37.5196 22.73  37.5196 22.73  C 37.5196 22.73  39.0833 23.536  39.0833 23.536  C 39.0833 23.536  39.4229 25.2664  39.4229 25.2664  C 39.4229 25.2664  40.3657 25.9758  40.3657 25.9758  C 40.3657 25.9758  43.5969 26.137  43.5969 26.137  C 43.5969 26.137  44.8794 25.7608  44.8794 25.7608  C 44.8794 25.7608  46.2849 24.7182  46.2849 24.7182  C 46.2849 24.7182  46.3961 24.0894  46.3961 24.0894  C 46.3961 24.0894  47.3038 24.2775  47.3038 24.2775  C 47.3038 24.2775  48.0124 25.347  48.0124 25.347  C 48.0124 25.347  48.0124 26.4434  48.0124 26.4434  C 48.0124 26.4434  49.4823 26.8733  49.4823 26.8733  C 49.4823 26.8733  49.4764 27.5076  49.4764 27.5076  C 49.4764 27.5076  50.2436 27.9215  50.2436 27.9215  C 50.2436 27.9215  51.6549 26.3682  51.6549 26.3682  C 51.6549 26.3682  51.3446 25.7554  51.3446 25.7554  C 51.3446 25.7554  52.2756 24.8901  52.2756 24.8901  C 52.2756 24.8901  52.182 24.4065  52.182 24.4065  C 52.182 24.4065  53.3707 23.8853  53.3707 23.8853  C 53.3707 23.8853  52.6036 23.1599  52.6036 23.1599  C 52.6036 23.1599  52.873 21.5104  52.873 21.5104  C 52.873 21.5104  53.2419 21.0913  53.2419 21.0913  C 53.2419 21.0913  52.8027 20.3821  52.8027 20.3821  C 52.8027 20.3821  53.2361 19.2325  53.2361 19.2325  C 53.2361 19.2325  52.4513 17.4815  52.4513 17.4815  C 52.4513 17.4815  51.6139 16.2193  51.6139 16.2193  C 51.6139 16.2193  53.0311 14.4472  53.0311 14.4472  C 53.0311 14.4472  53.5288 12.7074  53.5288 12.7074  C 53.5288 12.7074  54.4014 12.1115  54.4014 12.1115  C 54.4014 12.1115  55.5258 12.7665  55.5258 12.7665  C 55.5258 12.7665  56.8961 12.8417  56.8961 12.8417  C 56.8961 12.8417  57.1304 11.5423  57.1304 11.5423  C 57.1304 11.5423  58.5827 12.6054  58.5827 12.6054  C 58.5827 12.6054  59.6367 11.6014  59.6367 11.6014  C 59.6367 11.6014  59.2268 10.5976  59.2268 10.5976  C 59.2268 10.5976  59.4728 9.69030000000001  59.4728 9.69030000000001  C 59.4728 9.69030000000001  58.8403 8.429  58.8403 8.429  C 58.8403 8.429  59.1273 7.79560000000001  59.1273 7.79560000000001  C 59.1273 7.79560000000001  60.6675 8.55779999999999  60.6675 8.55779999999999  C 60.6675 8.55779999999999  61.3292 8.1337  61.3292 8.1337  C 61.3292 8.1337  61.8445 8.62219999999999  61.8445 8.62219999999999  C 61.8445 8.62219999999999  62.5414 8.3055  62.5414 8.3055  C 62.5414 8.3055  63.2207 6.88319999999999  63.2207 6.88319999999999  C 63.2207 6.88319999999999  63.8532 6.22309999999999  63.8532 6.22309999999999  C 63.8532 6.22309999999999  64.2923 4.35040000000001  64.2923 4.35040000000001  C 64.2923 4.35040000000001  65.0947 3.5778  65.0947 3.5778  C 65.0947 3.5778  65.7564 3.71190000000001  65.7564 3.71190000000001  C 65.7564 3.71190000000001  66.2951 3.93180000000001  66.2951 3.93180000000001  C 66.2951 3.93180000000001  68.907 2.06479999999999  68.907 2.06479999999999  C 68.907 2.06479999999999  69.6448 1.90379999999999  69.6448 1.90379999999999  C 69.6448 1.90379999999999  70.7165 1.0241  70.7165 1.0241  C 70.7165 1.0241  71.835 0.879199999999997  71.835 0.879199999999997  C 71.835 0.879199999999997  72.4206 1.5283  72.4206 1.5283  C 72.4206 1.5283  72.8071 0.745100000000008  72.8071 0.745100000000008  C 72.8071 0.745100000000008  73.9725 1.4693  73.9725 1.4693  C 73.9725 1.4693  76.1627 1.0455  76.1627 1.0455  C 76.1627 1.0455  76.5257 1.5712  76.5257 1.5712  C 76.5257 1.5712  77.4042 0.954299999999989  77.4042 0.954299999999989  C 77.4042 0.954299999999989  79.6529 0.949000000000012  79.6529 0.949000000000012  C 79.6529 0.949000000000012  79.8345 1.3083  79.8345 1.3083  C 79.8345 1.3083  81.6616 0.61099999999999  81.6616 0.61099999999999  C 81.6616 0.61099999999999  82.3935 1.39959999999999  82.3935 1.39959999999999  C 82.3935 1.39959999999999  83.6058 2.0487  83.6058 2.0487  C 83.6058 2.0487  83.4125 3.33090000000001  83.4125 3.33090000000001  C 83.4125 3.33090000000001  83.7873 3.79230000000001  83.7873 3.79230000000001  C 83.7873 3.79230000000001  84.2793 5.005  84.2793 5.005  C 84.2793 5.005  84.2148 6.87790000000001  84.2148 6.87790000000001  C 84.2148 6.87790000000001  84.6658 7.28569999999999  84.6658 7.28569999999999  C 84.6658 7.28569999999999  84.8766 8.58459999999999  84.8766 8.58459999999999  C 84.8766 8.58459999999999  85.4329 9.39510000000001  85.4329 9.39510000000001  C 85.4329 9.39510000000001  85.0112 11.1022  85.0112 11.1022  C 85.0112 11.1022  84.0977 11.6712  84.0977 11.6712  C 84.0977 11.6712  83.717 12.7987  83.717 12.7987  C 83.717 12.7987  84.6658 13.8242  84.6658 13.8242  C 84.6658 13.8242  83.8634 14.823  83.8634 14.823  C 83.8634 14.823  85.3216 15.7897  85.3216 15.7897  C 85.3216 15.7897  85.6027 16.6221  85.6027 16.6221  C 85.6027 16.6221  83.9571 17.0947  83.9571 17.0947  C 83.9571 17.0947  83.1139 18.2227  83.1139 18.2227  C 83.1139 18.2227  82.9206 18.9962  82.9206 18.9962  C 82.9206 18.9962  82.4111 17.9487  82.4111 17.9487  C 82.4111 17.9487  81.7786 17.9326  81.7786 17.9326  C 81.7786 17.9326  82.3702 16.375  82.3702 16.375  C 82.3702 16.375  82.0187 16.4073  82.0187 16.4073  C 82.0187 16.4073  80.9237 17.9326  80.9237 17.9326  C 80.9237 17.9326  79.1902 18.4697  79.1902 18.4697  C 79.1902 18.4697  78.9443 20.3499  78.9443 20.3499  C 78.9443 20.3499  78.0424 20.4574  78.0424 20.4574  C 78.0424 20.4574  77.6501 21.0214  77.6501 21.0214  C 77.6501 21.0214  76.4555 20.4627  76.4555 20.4627  C 76.4555 20.4627  76.1627 21.0752  76.1627 21.0752  C 76.1627 21.0752  74.9094 21.3492  74.9094 21.3492  C 74.9094 21.3492  74.3239 22.6655  74.3239 22.6655  C 74.3239 22.6655  73.4513 22.7784  73.4513 22.7784  C 73.4513 22.7784  73.1937 24.3313  73.1937 24.3313  C 73.1937 24.3313  71.9931 25.8629  71.9931 25.8629  C 71.9931 25.8629  69.393 26.4542  69.393 26.4542  C 69.393 26.4542  68.7898 28.8891  68.7898 28.8891  C 68.7898 28.8891  67.1736 28.8138  67.1736 28.8138  C 67.1736 28.8138  67.8587 29.6471  67.8587 29.6471  C 67.8587 29.6471  67.6889 30.475  67.6889 30.475  C 67.6889 30.475  67.0155 30.889  67.0155 30.889  C 67.0155 30.889  67.0682 32.1471  67.0682 32.1471  C 67.0682 32.1471  68.1984 32.0664  68.1984 32.0664  C 68.1984 32.0664  68.3506 32.7494  68.3506 32.7494  C 68.3506 32.7494  69.0651 32.7171  69.0651 32.7171  C 69.0651 32.7171  70.289 33.5237  70.289 33.5237  C 70.289 33.5237  70.1953 35.2016  70.1953 35.2016  C 70.1953 35.2016  70.6286 35.8254  70.6286 35.8254  C 70.6286 35.8254  69.7737 37.536  69.7737 37.536  C 69.7737 37.536  70.5116 37.9716  70.5116 37.9716  C 70.5116 37.9716  71.1908 40.5163  71.1908 40.5163  C 71.1908 40.5163  72.4733 41.1512  72.4733 41.1512  C 72.4733 41.1512  72.854 42.6633  72.854 42.6633  C 72.854 42.6633  73.8671 43.5189  73.8671 43.5189  C 73.8671 43.5189  74.2595 44.3046  74.2595 44.3046  C 74.2595 44.3046  75.1437 44.4122  75.1437 44.4122  C 75.1437 44.4122  75.6649 45.3164  75.6649 45.3164  C 75.6649 45.3164  76.9416 45.4887  76.9416 45.4887  C 76.9416 45.4887  76.5023 46.3983  76.5023 46.3983  C 76.5023 46.3983  75.7586 46.4521  75.7586 46.4521  C 75.7586 46.4521  76.3384 47.0981  76.3384 47.0981  C 76.3384 47.0981  78.0424 46.7267  78.0424 46.7267  C 78.0424 46.7267  79.0439 46.8828  79.0439 46.8828  C 79.0439 46.8828  79.6237 47.5664  79.6237 47.5664  C 79.6237 47.5664  79.0673 48.304  79.0673 48.304  C 79.0673 48.304  77.615 48.1855  77.615 48.1855  C 77.615 48.1855  77.41 50.5437  77.41 50.5437  C 77.41 50.5437  77.9663 51.5775  77.9663 51.5775  C 77.9663 51.5775  79.1376 51.9221  79.1376 51.9221  C 79.1376 51.9221  80.0979 51.7121  80.0979 51.7121  C 80.0979 51.7121  79.811 52.7514  79.811 52.7514  C 79.811 52.7514  80.0101 54.3456  80.0101 54.3456  C 80.0101 54.3456  81.0525 55.5897  81.0525 55.5897  C 81.0525 55.5897  80.7128 56.263  80.7128 56.263  C 80.7128 56.263  79.647 57.0172  79.647 57.0172  C 79.647 57.0172  80.2971 59.517  80.2971 59.517  C 80.2971 59.517  81.0876 60.3521  81.0876 60.3521  C 81.0876 60.3521  80.5547 61.7262  80.5547 61.7262  C 80.5547 61.7262  79.811 61.9956  79.811 61.9956  C 79.811 61.9956  80.7246 64.1514  80.7246 64.1514  C 80.7246 64.1514  80.7656 65.3641  80.7656 65.3641  C 80.7656 65.3641  79.3542 64.9976  79.3542 64.9976  C 79.3542 64.9976  79.2957 64.6096  79.2957 64.6096  C 79.2957 64.6096  77.8434 63.5801  77.8434 63.5801  C 77.8434 63.5801  77.8785 61.7801  77.8785 61.7801  C 77.8785 61.7801  76.3793 60.7293  76.3793 60.7293  C 76.3793 60.7293  75.4775 61.0311  75.4775 61.0311  C 75.4775 61.0311  73.0706 60.5137  73.0706 60.5137  C 73.0706 60.5137  72.567 61.6238  72.567 61.6238  C 72.567 61.6238  72.9945 63.607  72.9945 63.607  C 72.9945 63.607  72.4968 66.0703  72.4968 66.0703  C 72.4968 66.0703  72.6373 66.8681  72.6373 66.8681  C 72.6373 66.8681  71.6359 68.7497  71.6359 68.7497  C 71.6359 68.7497  73.0062 69.8388  73.0062 69.8388  C 73.0062 69.8388  72.6197 70.9982  72.6197 70.9982  C 72.6197 70.9982  73.668 75.0129  73.668 75.0129  C 73.668 75.0129  72.9184 75.0021  72.9184 75.0021  C 72.9184 75.0021  72.1395 77.1382  72.1395 77.1382  C 72.1395 77.1382  72.5377 78.4707  72.5377 78.4707  C 72.5377 78.4707  73.5391 78.6163  73.5391 78.6163  C 73.5391 78.6163  73.0473 79.9059  73.0473 79.9059  C 73.0473 79.9059  71.4485 79.8195  71.4485 79.8195  C 71.4485 79.8195  70.2246 80.6505  70.2246 80.6505  C 70.2246 80.6505  69.5453 81.503  69.5453 81.503  C 69.5453 81.503  69.153 83.8722  69.153 83.8722  C 69.153 83.8722  68.8777 84.833  68.8777 84.833  C 68.8777 84.833  66.8574 83.6509  66.8574 83.6509  C 66.8574 83.6509  65.0712 83.6617  65.0712 83.6617  C 65.0712 83.6617  64.0113 83.3109  64.0113 83.3109  C 64.0113 83.3109  62.2251 83.4674  62.2251 83.4674  C 62.2251 83.4674  61.0423 82.2694  61.0423 82.2694  C 61.0423 82.2694  59.3908 82.5176  59.3908 82.5176  C 59.3908 82.5176  57.1655 84.4659  57.1655 84.4659  C 57.1655 84.4659  55.8538 84.806  55.8538 84.806  C 55.8538 84.806  55.192 85.3134  55.192 85.3134  C 55.192 85.3134  55.1334 84.6494  55.1334 84.6494  C 55.1334 84.6494  54.3721 84.5145  54.3721 84.5145  C 54.3721 84.5145  53.7163 85.1083  53.7163 85.1083  C 53.7163 85.1083  53.5288 86.0852  53.5288 86.0852  C 53.5288 86.0852  51.2508 86.096  51.2508 86.096  C 51.2508 86.096  50.5598 86.949  50.5598 86.949  C 50.5598 86.949  49.4179 87.7264  49.4179 87.7264  C 49.4179 87.7264  47.1164 88.3905  47.1164 88.3905  C 47.1164 88.3905  46.5542 88.925  46.5542 88.925  C 46.5542 88.925  46.156 90.3234  46.156 90.3234  C 46.156 90.3234  45.2542 91.479  45.2542 91.479  C 45.2542 91.479  44.5631 92.8723  44.5631 92.8723  C 44.5631 92.8723  44.569 95.5136  44.569 95.5136  C 44.569 95.5136  45.0434 98.4416  45.0434 98.4416  C 45.0434 98.4416  46.0037 100.8084  46.0037 100.8084  C 46.0037 100.8084  46.6714 103.17  46.6714 103.17  C 46.6714 103.17  47.7255 106.1538  47.7255 106.1538  C 47.7255 106.1538  48.5512 108.046  48.5512 108.046  C 48.5512 108.046  48.2525 111.6311  48.2525 111.6311  C 48.2525 111.6311  49.2363 113.854  49.2363 113.854  C 49.2363 113.854  51.3796 116.8131  51.3796 116.8131  C 51.3796 116.8131  54.132 120.9416  54.132 120.9416  C 54.132 120.9416  56.4276 124.5734  56.4276 124.5734  C 56.4276 124.5734  56.9722 125.4286  56.9722 125.4286  C 56.9722 125.4286  59.3849 132.82  59.3849 132.82  C 59.3849 132.82  61.1886 144.1177  61.1886 144.1177  C 61.1886 144.1177  60.2458 145.3699  60.2458 145.3699  C 60.2458 145.3699  57.4875 146.0692  57.4875 146.0692  C 57.4875 146.0692  54.3956 146.0095  54.3956 146.0095  C 54.3956 146.0095  53.4586 142.6921  53.4586 142.6921  C 53.4586 142.6921  52.0414 139.5054  52.0414 139.5054  C 52.0414 139.5054  50.4252 137.9935  50.4252 137.9935  C 50.4252 137.9935  49.6872 137.9123  49.6872 137.9123  C 49.6872 137.9123  48.8147 136.9533  48.8147 136.9533  C 48.8147 136.9533  47.5205 136.6553  47.5205 136.6553  C 47.5205 136.6553  45.6289 132.5817  45.6289 132.5817  C 45.6289 132.5817  45.342 131.6772  45.342 131.6772  C 45.342 131.6772  45.9218 130.6753  45.9218 130.6753  C 45.9218 130.6753  44.5983 129.3432  44.5983 129.3432  C 44.5983 129.3432  41.1914 127.2531  41.1914 127.2531  C 41.1914 127.2531  39.1242 125.0984  39.1242 125.0984  C 39.1242 125.0984  39.3643 124.3298  39.3643 124.3298  C 39.3643 124.3298  37.8241 123.5828  37.8241 123.5828  C 37.8241 123.5828  36.1669 123.3609  36.1669 123.3609  C 36.1669 123.3609  35.1011 122.8683  35.1011 122.8683  Z " fill-rule="nonzero" fill="#169bd5" stroke="none" transform="matrix(1 0 0 1 428 261 )" />
  </g>
</svg>