<?xml version="1.0" encoding="utf-8"?>
<svg version="1.1" xmlns:xlink="http://www.w3.org/1999/xlink" width="68px" height="49px" xmlns="http://www.w3.org/2000/svg">
  <defs>
    <mask fill="white" id="clip30">
      <path d="M 36.4965 5.25580000000002  C 36.4965 5.25580000000002  37.5329 4.76889999999997  37.5329 4.76889999999997  C 37.5329 4.76889999999997  37.9722 6.75979999999998  37.9722 6.75979999999998  C 37.9722 6.75979999999998  38.7803 6.99790000000002  38.7803 6.99790000000002  C 38.7803 6.99790000000002  39.1844 7.91230000000002  39.1844 7.91230000000002  C 39.1844 7.91230000000002  39.9984 7.9015  39.9984 7.9015  C 39.9984 7.9015  41.6323 5.80220000000003  41.6323 5.80220000000003  C 41.6323 5.80220000000003  41.7845 5.20170000000002  41.7845 5.20170000000002  C 41.7845 5.20170000000002  42.5106 5.69940000000003  42.5106 5.69940000000003  C 42.5106 5.69940000000003  44.0508 6.02949999999998  44.0508 6.02949999999998  C 44.0508 6.02949999999998  44.3612 5.37479999999999  44.3612 5.37479999999999  C 44.3612 5.37479999999999  45.2747 5.09890000000001  45.2747 5.09890000000001  C 45.2747 5.09890000000001  47.0022 5.36939999999998  47.0022 5.36939999999998  C 47.0022 5.36939999999998  46.85 7.09530000000001  46.85 7.09530000000001  C 46.85 7.09530000000001  46.2059 7.71210000000002  46.2059 7.71210000000002  C 46.2059 7.71210000000002  47.0784 8.26940000000002  47.0784 8.26940000000002  C 47.0784 8.26940000000002  47.219 9.6223  47.219 9.6223  C 47.219 9.6223  47.9568 9.50319999999999  47.9568 9.50319999999999  C 47.9568 9.50319999999999  49.6726 10.407  49.6726 10.407  C 49.6726 10.407  50.188 10.1418  50.188 10.1418  C 50.188 10.1418  50.3051 8.35599999999999  50.3051 8.35599999999999  C 50.3051 8.35599999999999  50.9435 7.9502  50.9435 7.9502  C 50.9435 7.9502  51.9799 9.47620000000001  51.9799 9.47620000000001  C 51.9799 9.47620000000001  51.6579 10.9103  51.6579 10.9103  C 51.6579 10.9103  51.6462 12.5395  51.6462 12.5395  C 51.6462 12.5395  50.8439 13.7953  50.8439 13.7953  C 50.8439 13.7953  51.2889 14.8509  51.2889 14.8509  C 51.2889 14.8509  52.1557 14.8076  52.1557 14.8076  C 52.1557 14.8076  52.6007 16.2422  52.6007 16.2422  C 52.6007 16.2422  53.7953 16.4805  53.7953 16.4805  C 53.7953 16.4805  54.0472 17.3577  54.0472 17.3577  C 54.0472 17.3577  53.7426 18.0508  53.7426 18.0508  C 53.7426 18.0508  52.7354 18.6031  52.7354 18.6031  C 52.7354 18.6031  53.0224000000001 20.2168  53.0224000000001 20.2168  C 53.0224000000001 20.2168  54.381 19.7673  54.381 19.7673  C 54.381 19.7673  54.6679 19.2962  54.6679 19.2962  C 54.6679 19.2962  56.5653 20.1193  56.5653 20.1193  C 56.5653 20.1193  56.8464 19.4803  56.8464 19.4803  C 56.8464 19.4803  58.6735 19.4478  58.6735 19.4478  C 58.6735 19.4478  59.3294 20.2331  59.3294 20.2331  C 59.3294 20.2331  59.3878999999999 20.7692  59.3878999999999 20.7692  C 59.3878999999999 20.7692  62.2925 20.6934  62.2925 20.6934  C 62.2925 20.6934  64.3597 20.1573  64.3597 20.1573  C 64.3597 20.1573  66.0873 20.7909  66.0873 20.7909  C 66.0873 20.7909  66.1048 23.4754  66.1048 23.4754  C 66.1048 23.4754  64.8517000000001 26.1136  64.8517000000001 26.1136  C 64.8517000000001 26.1136  63.7507000000001 27.1483  63.7507000000001 27.1483  C 63.7507000000001 27.1483  62.7376 29.1261  62.7376 29.1261  C 62.7376 29.1261  62.7903 30.1556  62.7903 30.1556  C 62.7903 30.1556  63.4286 31.4183  63.4286 31.4183  C 63.4286 31.4183  65.0742 32.5403  65.0742 32.5403  C 65.0742 32.5403  66.9774 33.0064  66.9774 33.0064  C 66.9774 33.0064  67.932 35.5813  67.932 35.5813  C 67.932 35.5813  67.9906 37.3054  67.9906 37.3054  C 67.9906 37.3054  66.7373 39.4418  66.7373 39.4418  C 66.7373 39.4418  64.7521 40.3202  64.7521 40.3202  C 64.7521 40.3202  61.9880000000001 41.1012  61.9880000000001 41.1012  C 61.9880000000001 41.1012  61.2267000000001 42.7826  61.2267000000001 42.7826  C 61.2267000000001 42.7826  60.1668 43.6667  60.1668 43.6667  C 60.1668 43.6667  58.7555 43.8674  58.7555 43.8674  C 58.7555 43.8674  57.4496 43.3521  57.4496 43.3521  C 57.4496 43.3521  56.7175 42.4084  56.7175 42.4084  C 56.7175 42.4084  56.2725 41.226  56.2725 41.226  C 56.2725 41.226  55.7923 38.4874  55.7923 38.4874  C 55.7923 38.4874  56.0793 35.3482  56.0793 35.3482  C 56.0793 35.3482  55.7513 34.2098  55.7513 34.2098  C 55.7513 34.2098  53.2391 30.8276  53.2391 30.8276  C 53.2391 30.8276  52.9287 29.1152  52.9287 29.1152  C 52.9287 29.1152  52.3079 28.1615  52.3079 28.1615  C 52.3079 28.1615  50.4574 27.1321  50.4574 27.1321  C 50.4574 27.1321  49.1984 27.2675  49.1984 27.2675  C 49.1984 27.2675  47.4883 28.2807  47.4883 28.2807  C 47.4883 28.2807  46.5338 28.5733  46.5338 28.5733  C 46.5338 28.5733  44.8765 28.5787  44.8765 28.5787  C 44.8765 28.5787  43.8459 29.6029  43.8459 29.6029  C 43.8459 29.6029  43.313 30.6108  43.313 30.6108  C 43.313 30.6108  42.3643 31.1961  42.3643 31.1961  C 42.3643 31.1961  39.7993 31.6189  39.7993 31.6189  C 39.7993 31.6189  37.7907 33.5322  37.7907 33.5322  C 37.7907 33.5322  37.082 32.2368  37.082 32.2368  C 37.082 32.2368  35.4131 32.0742  35.4131 32.0742  C 35.4131 32.0742  32.9783 32.2314  32.9783 32.2314  C 32.9783 32.2314  32.949 31.8249  32.949 31.8249  C 32.949 31.8249  31.6724 31.6081  31.6724 31.6081  C 31.6724 31.6081  31.0282 32.3181  31.0282 32.3181  C 31.0282 32.3181  30.7472 33.6081  30.7472 33.6081  C 30.7472 33.6081  29.3416 33.6514  29.3416 33.6514  C 29.3416 33.6514  27.9772 34.8657  27.9772 34.8657  C 27.9772 34.8657  27.7957 34.2694  27.7957 34.2694  C 27.7957 34.2694  26.2086 34.1881  26.2086 34.1881  C 26.2086 34.1881  25.4591 35.0554  25.4591 35.0554  C 25.4591 35.0554  25.9217 35.4729  25.9217 35.4729  C 25.9217 35.4729  25.2541 36.3458  25.2541 36.3458  C 25.2541 36.3458  24.9027 36.0312  24.9027 36.0312  C 24.9027 36.0312  23.9541 36.5355  23.9541 36.5355  C 23.9541 36.5355  23.1987 37.6524  23.1987 37.6524  C 23.1987 37.6524  21.3774 37.1752  21.3774 37.1752  C 21.3774 37.1752  20.8562 36.6114  20.8562 36.6114  C 20.8562 36.6114  17.2254 36.5301  17.2254 36.5301  C 17.2254 36.5301  15.8961 37.1102  15.8961 37.1102  C 15.8961 37.1102  14.9591 39.919  14.9591 39.919  C 14.9591 39.919  12.5815 42.0991  12.5815 42.0991  C 12.5815 42.0991  10.7486 43.4552  10.7486 43.4552  C 10.7486 43.4552  9.98140000000001 43.0321  9.98140000000001 43.0321  C 9.98140000000001 43.0321  9.08539999999999 41.7303  9.08539999999999 41.7303  C 9.08539999999999 41.7303  8.53500000000003 40.0708  8.53500000000003 40.0708  C 8.53500000000003 40.0708  8.27140000000003 38.0536  8.27140000000003 38.0536  C 8.27140000000003 38.0536  8.62860000000001 35.9824  8.62860000000001 35.9824  C 8.62860000000001 35.9824  8.06060000000002 33.5755  8.06060000000002 33.5755  C 8.06060000000002 33.5755  7.64479999999998 33.272  7.64479999999998 33.272  C 7.64479999999998 33.272  6.38580000000002 33.5809  6.38580000000002 33.5809  C 6.38580000000002 33.5809  6.6669 31.5647  6.6669 31.5647  C 6.6669 31.5647  6.19839999999999 30.4537  6.19839999999999 30.4537  C 6.19839999999999 30.4537  3.99650000000003 28.1182  3.99650000000003 28.1182  C 3.99650000000003 28.1182  2.3802 24.8025  2.3802 24.8025  C 2.3802 24.8025  1.69499999999999 23.0204  1.69499999999999 23.0204  C 1.69499999999999 23.0204  1.09769999999997 19.724  1.09769999999997 19.724  C 1.09769999999997 19.724  0.512099999999975 18.3973  0.512099999999975 18.3973  C 0.512099999999975 18.3973  0.0260999999999854 14.6668  0.0260999999999854 14.6668  C 0.0260999999999854 14.6668  0.863499999999988 12.4745  0.863499999999988 12.4745  C 0.863499999999988 12.4745  3.03609999999998 10.7912  3.03609999999998 10.7912  C 3.03609999999998 10.7912  3.11219999999997 9.34089999999998  3.11219999999997 9.34089999999998  C 3.11219999999997 9.34089999999998  3.8793 8.3777  3.8793 8.3777  C 3.8793 8.3777  3.90859999999998 7.58769999999998  3.90859999999998 7.58769999999998  C 3.90859999999998 7.58769999999998  4.58210000000003 7.83120000000002  4.58210000000003 7.83120000000002  C 4.58210000000003 7.83120000000002  4.7636 7.01960000000003  4.7636 7.01960000000003  C 4.7636 7.01960000000003  5.642 6.76530000000002  5.642 6.76530000000002  C 5.642 6.76530000000002  6.57900000000001 5.95370000000003  6.57900000000001 5.95370000000003  C 6.57900000000001 5.95370000000003  6.69619999999998 4.04950000000002  6.69619999999998 4.04950000000002  C 6.69619999999998 4.04950000000002  6.38580000000002 3.78440000000001  6.38580000000002 3.78440000000001  C 6.38580000000002 3.78440000000001  6.90699999999998 2.58359999999999  6.90699999999998 2.58359999999999  C 6.90699999999998 2.58359999999999  7.65649999999999 2.22660000000002  7.65649999999999 2.22660000000002  C 7.65649999999999 2.22660000000002  8.09570000000002 2.7242  8.09570000000002 2.7242  C 8.09570000000002 2.7242  9.28460000000001 2.2482  9.28460000000001 2.2482  C 9.28460000000001 2.2482  9.67110000000002 0.495900000000006  9.67110000000002 0.495900000000006  C 9.67110000000002 0.495900000000006  10.0985 0.89609999999999  10.0985 0.89609999999999  C 10.0985 0.89609999999999  10.4089 0.0849000000000046  10.4089 0.0849000000000046  C 10.4089 0.0849000000000046  11.34 0.393199999999979  11.34 0.393199999999979  C 11.34 0.393199999999979  10.9125 1.33960000000002  10.9125 1.33960000000002  C 10.9125 1.33960000000002  11.7499 1.95620000000002  11.7499 1.95620000000002  C 11.7499 1.95620000000002  12.2126 2.98930000000001  12.2126 2.98930000000001  C 12.2126 2.98930000000001  14.2681 2.71339999999998  14.2681 2.71339999999998  C 14.2681 2.71339999999998  15.5506 3.90339999999998  15.5506 3.90339999999998  C 15.5506 3.90339999999998  15.5798 4.5093  15.5798 4.5093  C 15.5798 4.5093  16.9092 4.77440000000001  16.9092 4.77440000000001  C 16.9092 4.77440000000001  17.366 5.38029999999998  17.366 5.38029999999998  C 17.366 5.38029999999998  17.1083 6.20260000000002  17.1083 6.20260000000002  C 17.1083 6.20260000000002  17.8403 5.67239999999998  17.8403 5.67239999999998  C 17.8403 5.67239999999998  18.3205 6.024  18.3205 6.024  C 18.3205 6.024  18.6602 8.97289999999998  18.6602 8.97289999999998  C 18.6602 8.97289999999998  19.2457 9.76839999999999  19.2457 9.76839999999999  C 19.2457 9.76839999999999  20.3877 10.0985  20.3877 10.0985  C 20.3877 10.0985  21.7112 9.43290000000002  21.7112 9.43290000000002  C 21.7112 9.43290000000002  22.0684 9.68180000000001  22.0684 9.68180000000001  C 22.0684 9.68180000000001  22.8239 8.9837  22.8239 8.9837  C 22.8239 8.9837  22.7946 10.4827  22.7946 10.4827  C 22.7946 10.4827  23.9541 10.5369  23.9541 10.5369  C 23.9541 10.5369  24.733 12.0686  24.733 12.0686  C 24.733 12.0686  25.4649 11.0835  25.4649 11.0835  C 25.4649 11.0835  26.5425 11.4245  26.5425 11.4245  C 26.5425 11.4245  27.21 13.8927  27.21 13.8927  C 27.21 13.8927  28.0065 13.8657  28.0065 13.8657  C 28.0065 13.8657  28.3403 14.5802  28.3403 14.5802  C 28.3403 14.5802  30.0737 14.7913  30.0737 14.7913  C 30.0737 14.7913  30.1029 16.1123  30.1029 16.1123  C 30.1029 16.1123  30.6183 17.2386  30.6183 17.2386  C 30.6183 17.2386  31.813 18.2024  31.813 18.2024  C 31.813 18.2024  31.5436 19.7619  31.5436 19.7619  C 31.5436 19.7619  30.8994 19.3991  30.8994 19.3991  C 30.8994 19.3991  32.1995 20.883  32.1995 20.883  C 32.1995 20.883  33.3473 19.659  33.3473 19.659  C 33.3473 19.659  33.3473 18.928  33.3473 18.928  C 33.3473 18.928  34.9446 18.2619  34.9446 18.2619  C 34.9446 18.2619  35.2608 16.0257  35.2608 16.0257  C 35.2608 16.0257  35.05 15.1919  35.05 15.1919  C 35.05 15.1919  35.9166 14.7372  35.9166 14.7372  C 35.9166 14.7372  35.9518 13.254  35.9518 13.254  C 35.9518 13.254  36.4965 12.6099  36.4965 12.6099  C 36.4965 12.6099  35.5419 10.618  35.5419 10.618  C 35.5419 10.618  35.3837 9.63310000000001  35.3837 9.63310000000001  C 35.3837 9.63310000000001  32.9314 9.58440000000002  32.9314 9.58440000000002  C 32.9314 9.58440000000002  33.3824 9.06490000000002  33.3824 9.06490000000002  C 33.3824 9.06490000000002  32.8378 8.51839999999999  32.8378 8.51839999999999  C 32.8378 8.51839999999999  34.5346 7.50110000000001  34.5346 7.50110000000001  C 34.5346 7.50110000000001  35.8522 7.08449999999999  35.8522 7.08449999999999  C 35.8522 7.08449999999999  36.4965 5.25580000000002  36.4965 5.25580000000002  Z M 6.58350000000002 47.3558  C 6.58350000000002 47.3558  6.26139999999998 48.1697  6.26139999999998 48.1697  C 6.26139999999998 48.1697  5.29509999999999 47.7736  5.29509999999999 47.7736  C 5.29509999999999 47.7736  3.83839999999998 47.0465  3.83839999999998 47.0465  C 3.83839999999998 47.0465  2.7199 45.4172  2.7199 45.4172  C 2.7199 45.4172  3.65089999999998 44.5057  3.65089999999998 44.5057  C 3.65089999999998 44.5057  5.59379999999999 44.7173  5.59379999999999 44.7173  C 5.59379999999999 44.7173  6.58350000000002 47.3558  6.58350000000002 47.3558  Z M 9.07819999999998 37.2457  C 9.07819999999998 37.2457  7.1354 35.568  7.1354 35.568  C 7.1354 35.568  6.98899999999998 34.9987  6.98899999999998 34.9987  C 6.98899999999998 34.9987  9.084 36.6331  9.084 36.6331  C 9.084 36.6331  9.07819999999998 37.2457  9.07819999999998 37.2457  Z M 8.34620000000001 38.4331  C 8.34620000000001 38.4331  6.76650000000001 36.7608  6.76650000000001 36.7608  C 6.76650000000001 36.7608  7.1354 36.2674  7.1354 36.2674  C 7.1354 36.2674  8.70920000000001 37.956  8.70920000000001 37.956  C 8.70920000000001 37.956  8.34620000000001 38.4331  8.34620000000001 38.4331  Z " fill-rule="evenodd" />
    </mask>
  </defs>
  <g transform="matrix(1 0 0 1 -489 -371 )">
    <path d="M 36.4965 5.25580000000002  C 36.4965 5.25580000000002  37.5329 4.76889999999997  37.5329 4.76889999999997  C 37.5329 4.76889999999997  37.9722 6.75979999999998  37.9722 6.75979999999998  C 37.9722 6.75979999999998  38.7803 6.99790000000002  38.7803 6.99790000000002  C 38.7803 6.99790000000002  39.1844 7.91230000000002  39.1844 7.91230000000002  C 39.1844 7.91230000000002  39.9984 7.9015  39.9984 7.9015  C 39.9984 7.9015  41.6323 5.80220000000003  41.6323 5.80220000000003  C 41.6323 5.80220000000003  41.7845 5.20170000000002  41.7845 5.20170000000002  C 41.7845 5.20170000000002  42.5106 5.69940000000003  42.5106 5.69940000000003  C 42.5106 5.69940000000003  44.0508 6.02949999999998  44.0508 6.02949999999998  C 44.0508 6.02949999999998  44.3612 5.37479999999999  44.3612 5.37479999999999  C 44.3612 5.37479999999999  45.2747 5.09890000000001  45.2747 5.09890000000001  C 45.2747 5.09890000000001  47.0022 5.36939999999998  47.0022 5.36939999999998  C 47.0022 5.36939999999998  46.85 7.09530000000001  46.85 7.09530000000001  C 46.85 7.09530000000001  46.2059 7.71210000000002  46.2059 7.71210000000002  C 46.2059 7.71210000000002  47.0784 8.26940000000002  47.0784 8.26940000000002  C 47.0784 8.26940000000002  47.219 9.6223  47.219 9.6223  C 47.219 9.6223  47.9568 9.50319999999999  47.9568 9.50319999999999  C 47.9568 9.50319999999999  49.6726 10.407  49.6726 10.407  C 49.6726 10.407  50.188 10.1418  50.188 10.1418  C 50.188 10.1418  50.3051 8.35599999999999  50.3051 8.35599999999999  C 50.3051 8.35599999999999  50.9435 7.9502  50.9435 7.9502  C 50.9435 7.9502  51.9799 9.47620000000001  51.9799 9.47620000000001  C 51.9799 9.47620000000001  51.6579 10.9103  51.6579 10.9103  C 51.6579 10.9103  51.6462 12.5395  51.6462 12.5395  C 51.6462 12.5395  50.8439 13.7953  50.8439 13.7953  C 50.8439 13.7953  51.2889 14.8509  51.2889 14.8509  C 51.2889 14.8509  52.1557 14.8076  52.1557 14.8076  C 52.1557 14.8076  52.6007 16.2422  52.6007 16.2422  C 52.6007 16.2422  53.7953 16.4805  53.7953 16.4805  C 53.7953 16.4805  54.0472 17.3577  54.0472 17.3577  C 54.0472 17.3577  53.7426 18.0508  53.7426 18.0508  C 53.7426 18.0508  52.7354 18.6031  52.7354 18.6031  C 52.7354 18.6031  53.0224000000001 20.2168  53.0224000000001 20.2168  C 53.0224000000001 20.2168  54.381 19.7673  54.381 19.7673  C 54.381 19.7673  54.6679 19.2962  54.6679 19.2962  C 54.6679 19.2962  56.5653 20.1193  56.5653 20.1193  C 56.5653 20.1193  56.8464 19.4803  56.8464 19.4803  C 56.8464 19.4803  58.6735 19.4478  58.6735 19.4478  C 58.6735 19.4478  59.3294 20.2331  59.3294 20.2331  C 59.3294 20.2331  59.3878999999999 20.7692  59.3878999999999 20.7692  C 59.3878999999999 20.7692  62.2925 20.6934  62.2925 20.6934  C 62.2925 20.6934  64.3597 20.1573  64.3597 20.1573  C 64.3597 20.1573  66.0873 20.7909  66.0873 20.7909  C 66.0873 20.7909  66.1048 23.4754  66.1048 23.4754  C 66.1048 23.4754  64.8517000000001 26.1136  64.8517000000001 26.1136  C 64.8517000000001 26.1136  63.7507000000001 27.1483  63.7507000000001 27.1483  C 63.7507000000001 27.1483  62.7376 29.1261  62.7376 29.1261  C 62.7376 29.1261  62.7903 30.1556  62.7903 30.1556  C 62.7903 30.1556  63.4286 31.4183  63.4286 31.4183  C 63.4286 31.4183  65.0742 32.5403  65.0742 32.5403  C 65.0742 32.5403  66.9774 33.0064  66.9774 33.0064  C 66.9774 33.0064  67.932 35.5813  67.932 35.5813  C 67.932 35.5813  67.9906 37.3054  67.9906 37.3054  C 67.9906 37.3054  66.7373 39.4418  66.7373 39.4418  C 66.7373 39.4418  64.7521 40.3202  64.7521 40.3202  C 64.7521 40.3202  61.9880000000001 41.1012  61.9880000000001 41.1012  C 61.9880000000001 41.1012  61.2267000000001 42.7826  61.2267000000001 42.7826  C 61.2267000000001 42.7826  60.1668 43.6667  60.1668 43.6667  C 60.1668 43.6667  58.7555 43.8674  58.7555 43.8674  C 58.7555 43.8674  57.4496 43.3521  57.4496 43.3521  C 57.4496 43.3521  56.7175 42.4084  56.7175 42.4084  C 56.7175 42.4084  56.2725 41.226  56.2725 41.226  C 56.2725 41.226  55.7923 38.4874  55.7923 38.4874  C 55.7923 38.4874  56.0793 35.3482  56.0793 35.3482  C 56.0793 35.3482  55.7513 34.2098  55.7513 34.2098  C 55.7513 34.2098  53.2391 30.8276  53.2391 30.8276  C 53.2391 30.8276  52.9287 29.1152  52.9287 29.1152  C 52.9287 29.1152  52.3079 28.1615  52.3079 28.1615  C 52.3079 28.1615  50.4574 27.1321  50.4574 27.1321  C 50.4574 27.1321  49.1984 27.2675  49.1984 27.2675  C 49.1984 27.2675  47.4883 28.2807  47.4883 28.2807  C 47.4883 28.2807  46.5338 28.5733  46.5338 28.5733  C 46.5338 28.5733  44.8765 28.5787  44.8765 28.5787  C 44.8765 28.5787  43.8459 29.6029  43.8459 29.6029  C 43.8459 29.6029  43.313 30.6108  43.313 30.6108  C 43.313 30.6108  42.3643 31.1961  42.3643 31.1961  C 42.3643 31.1961  39.7993 31.6189  39.7993 31.6189  C 39.7993 31.6189  37.7907 33.5322  37.7907 33.5322  C 37.7907 33.5322  37.082 32.2368  37.082 32.2368  C 37.082 32.2368  35.4131 32.0742  35.4131 32.0742  C 35.4131 32.0742  32.9783 32.2314  32.9783 32.2314  C 32.9783 32.2314  32.949 31.8249  32.949 31.8249  C 32.949 31.8249  31.6724 31.6081  31.6724 31.6081  C 31.6724 31.6081  31.0282 32.3181  31.0282 32.3181  C 31.0282 32.3181  30.7472 33.6081  30.7472 33.6081  C 30.7472 33.6081  29.3416 33.6514  29.3416 33.6514  C 29.3416 33.6514  27.9772 34.8657  27.9772 34.8657  C 27.9772 34.8657  27.7957 34.2694  27.7957 34.2694  C 27.7957 34.2694  26.2086 34.1881  26.2086 34.1881  C 26.2086 34.1881  25.4591 35.0554  25.4591 35.0554  C 25.4591 35.0554  25.9217 35.4729  25.9217 35.4729  C 25.9217 35.4729  25.2541 36.3458  25.2541 36.3458  C 25.2541 36.3458  24.9027 36.0312  24.9027 36.0312  C 24.9027 36.0312  23.9541 36.5355  23.9541 36.5355  C 23.9541 36.5355  23.1987 37.6524  23.1987 37.6524  C 23.1987 37.6524  21.3774 37.1752  21.3774 37.1752  C 21.3774 37.1752  20.8562 36.6114  20.8562 36.6114  C 20.8562 36.6114  17.2254 36.5301  17.2254 36.5301  C 17.2254 36.5301  15.8961 37.1102  15.8961 37.1102  C 15.8961 37.1102  14.9591 39.919  14.9591 39.919  C 14.9591 39.919  12.5815 42.0991  12.5815 42.0991  C 12.5815 42.0991  10.7486 43.4552  10.7486 43.4552  C 10.7486 43.4552  9.98140000000001 43.0321  9.98140000000001 43.0321  C 9.98140000000001 43.0321  9.08539999999999 41.7303  9.08539999999999 41.7303  C 9.08539999999999 41.7303  8.53500000000003 40.0708  8.53500000000003 40.0708  C 8.53500000000003 40.0708  8.27140000000003 38.0536  8.27140000000003 38.0536  C 8.27140000000003 38.0536  8.62860000000001 35.9824  8.62860000000001 35.9824  C 8.62860000000001 35.9824  8.06060000000002 33.5755  8.06060000000002 33.5755  C 8.06060000000002 33.5755  7.64479999999998 33.272  7.64479999999998 33.272  C 7.64479999999998 33.272  6.38580000000002 33.5809  6.38580000000002 33.5809  C 6.38580000000002 33.5809  6.6669 31.5647  6.6669 31.5647  C 6.6669 31.5647  6.19839999999999 30.4537  6.19839999999999 30.4537  C 6.19839999999999 30.4537  3.99650000000003 28.1182  3.99650000000003 28.1182  C 3.99650000000003 28.1182  2.3802 24.8025  2.3802 24.8025  C 2.3802 24.8025  1.69499999999999 23.0204  1.69499999999999 23.0204  C 1.69499999999999 23.0204  1.09769999999997 19.724  1.09769999999997 19.724  C 1.09769999999997 19.724  0.512099999999975 18.3973  0.512099999999975 18.3973  C 0.512099999999975 18.3973  0.0260999999999854 14.6668  0.0260999999999854 14.6668  C 0.0260999999999854 14.6668  0.863499999999988 12.4745  0.863499999999988 12.4745  C 0.863499999999988 12.4745  3.03609999999998 10.7912  3.03609999999998 10.7912  C 3.03609999999998 10.7912  3.11219999999997 9.34089999999998  3.11219999999997 9.34089999999998  C 3.11219999999997 9.34089999999998  3.8793 8.3777  3.8793 8.3777  C 3.8793 8.3777  3.90859999999998 7.58769999999998  3.90859999999998 7.58769999999998  C 3.90859999999998 7.58769999999998  4.58210000000003 7.83120000000002  4.58210000000003 7.83120000000002  C 4.58210000000003 7.83120000000002  4.7636 7.01960000000003  4.7636 7.01960000000003  C 4.7636 7.01960000000003  5.642 6.76530000000002  5.642 6.76530000000002  C 5.642 6.76530000000002  6.57900000000001 5.95370000000003  6.57900000000001 5.95370000000003  C 6.57900000000001 5.95370000000003  6.69619999999998 4.04950000000002  6.69619999999998 4.04950000000002  C 6.69619999999998 4.04950000000002  6.38580000000002 3.78440000000001  6.38580000000002 3.78440000000001  C 6.38580000000002 3.78440000000001  6.90699999999998 2.58359999999999  6.90699999999998 2.58359999999999  C 6.90699999999998 2.58359999999999  7.65649999999999 2.22660000000002  7.65649999999999 2.22660000000002  C 7.65649999999999 2.22660000000002  8.09570000000002 2.7242  8.09570000000002 2.7242  C 8.09570000000002 2.7242  9.28460000000001 2.2482  9.28460000000001 2.2482  C 9.28460000000001 2.2482  9.67110000000002 0.495900000000006  9.67110000000002 0.495900000000006  C 9.67110000000002 0.495900000000006  10.0985 0.89609999999999  10.0985 0.89609999999999  C 10.0985 0.89609999999999  10.4089 0.0849000000000046  10.4089 0.0849000000000046  C 10.4089 0.0849000000000046  11.34 0.393199999999979  11.34 0.393199999999979  C 11.34 0.393199999999979  10.9125 1.33960000000002  10.9125 1.33960000000002  C 10.9125 1.33960000000002  11.7499 1.95620000000002  11.7499 1.95620000000002  C 11.7499 1.95620000000002  12.2126 2.98930000000001  12.2126 2.98930000000001  C 12.2126 2.98930000000001  14.2681 2.71339999999998  14.2681 2.71339999999998  C 14.2681 2.71339999999998  15.5506 3.90339999999998  15.5506 3.90339999999998  C 15.5506 3.90339999999998  15.5798 4.5093  15.5798 4.5093  C 15.5798 4.5093  16.9092 4.77440000000001  16.9092 4.77440000000001  C 16.9092 4.77440000000001  17.366 5.38029999999998  17.366 5.38029999999998  C 17.366 5.38029999999998  17.1083 6.20260000000002  17.1083 6.20260000000002  C 17.1083 6.20260000000002  17.8403 5.67239999999998  17.8403 5.67239999999998  C 17.8403 5.67239999999998  18.3205 6.024  18.3205 6.024  C 18.3205 6.024  18.6602 8.97289999999998  18.6602 8.97289999999998  C 18.6602 8.97289999999998  19.2457 9.76839999999999  19.2457 9.76839999999999  C 19.2457 9.76839999999999  20.3877 10.0985  20.3877 10.0985  C 20.3877 10.0985  21.7112 9.43290000000002  21.7112 9.43290000000002  C 21.7112 9.43290000000002  22.0684 9.68180000000001  22.0684 9.68180000000001  C 22.0684 9.68180000000001  22.8239 8.9837  22.8239 8.9837  C 22.8239 8.9837  22.7946 10.4827  22.7946 10.4827  C 22.7946 10.4827  23.9541 10.5369  23.9541 10.5369  C 23.9541 10.5369  24.733 12.0686  24.733 12.0686  C 24.733 12.0686  25.4649 11.0835  25.4649 11.0835  C 25.4649 11.0835  26.5425 11.4245  26.5425 11.4245  C 26.5425 11.4245  27.21 13.8927  27.21 13.8927  C 27.21 13.8927  28.0065 13.8657  28.0065 13.8657  C 28.0065 13.8657  28.3403 14.5802  28.3403 14.5802  C 28.3403 14.5802  30.0737 14.7913  30.0737 14.7913  C 30.0737 14.7913  30.1029 16.1123  30.1029 16.1123  C 30.1029 16.1123  30.6183 17.2386  30.6183 17.2386  C 30.6183 17.2386  31.813 18.2024  31.813 18.2024  C 31.813 18.2024  31.5436 19.7619  31.5436 19.7619  C 31.5436 19.7619  30.8994 19.3991  30.8994 19.3991  C 30.8994 19.3991  32.1995 20.883  32.1995 20.883  C 32.1995 20.883  33.3473 19.659  33.3473 19.659  C 33.3473 19.659  33.3473 18.928  33.3473 18.928  C 33.3473 18.928  34.9446 18.2619  34.9446 18.2619  C 34.9446 18.2619  35.2608 16.0257  35.2608 16.0257  C 35.2608 16.0257  35.05 15.1919  35.05 15.1919  C 35.05 15.1919  35.9166 14.7372  35.9166 14.7372  C 35.9166 14.7372  35.9518 13.254  35.9518 13.254  C 35.9518 13.254  36.4965 12.6099  36.4965 12.6099  C 36.4965 12.6099  35.5419 10.618  35.5419 10.618  C 35.5419 10.618  35.3837 9.63310000000001  35.3837 9.63310000000001  C 35.3837 9.63310000000001  32.9314 9.58440000000002  32.9314 9.58440000000002  C 32.9314 9.58440000000002  33.3824 9.06490000000002  33.3824 9.06490000000002  C 33.3824 9.06490000000002  32.8378 8.51839999999999  32.8378 8.51839999999999  C 32.8378 8.51839999999999  34.5346 7.50110000000001  34.5346 7.50110000000001  C 34.5346 7.50110000000001  35.8522 7.08449999999999  35.8522 7.08449999999999  C 35.8522 7.08449999999999  36.4965 5.25580000000002  36.4965 5.25580000000002  Z M 6.58350000000002 47.3558  C 6.58350000000002 47.3558  6.26139999999998 48.1697  6.26139999999998 48.1697  C 6.26139999999998 48.1697  5.29509999999999 47.7736  5.29509999999999 47.7736  C 5.29509999999999 47.7736  3.83839999999998 47.0465  3.83839999999998 47.0465  C 3.83839999999998 47.0465  2.7199 45.4172  2.7199 45.4172  C 2.7199 45.4172  3.65089999999998 44.5057  3.65089999999998 44.5057  C 3.65089999999998 44.5057  5.59379999999999 44.7173  5.59379999999999 44.7173  C 5.59379999999999 44.7173  6.58350000000002 47.3558  6.58350000000002 47.3558  Z M 9.07819999999998 37.2457  C 9.07819999999998 37.2457  7.1354 35.568  7.1354 35.568  C 7.1354 35.568  6.98899999999998 34.9987  6.98899999999998 34.9987  C 6.98899999999998 34.9987  9.084 36.6331  9.084 36.6331  C 9.084 36.6331  9.07819999999998 37.2457  9.07819999999998 37.2457  Z M 8.34620000000001 38.4331  C 8.34620000000001 38.4331  6.76650000000001 36.7608  6.76650000000001 36.7608  C 6.76650000000001 36.7608  7.1354 36.2674  7.1354 36.2674  C 7.1354 36.2674  8.70920000000001 37.956  8.70920000000001 37.956  C 8.70920000000001 37.956  8.34620000000001 38.4331  8.34620000000001 38.4331  Z " fill-rule="nonzero" fill="#ffffff" stroke="none" transform="matrix(1 0 0 1 489 371 )" />
    <path d="M 36.4965 5.25580000000002  C 36.4965 5.25580000000002  37.5329 4.76889999999997  37.5329 4.76889999999997  C 37.5329 4.76889999999997  37.9722 6.75979999999998  37.9722 6.75979999999998  C 37.9722 6.75979999999998  38.7803 6.99790000000002  38.7803 6.99790000000002  C 38.7803 6.99790000000002  39.1844 7.91230000000002  39.1844 7.91230000000002  C 39.1844 7.91230000000002  39.9984 7.9015  39.9984 7.9015  C 39.9984 7.9015  41.6323 5.80220000000003  41.6323 5.80220000000003  C 41.6323 5.80220000000003  41.7845 5.20170000000002  41.7845 5.20170000000002  C 41.7845 5.20170000000002  42.5106 5.69940000000003  42.5106 5.69940000000003  C 42.5106 5.69940000000003  44.0508 6.02949999999998  44.0508 6.02949999999998  C 44.0508 6.02949999999998  44.3612 5.37479999999999  44.3612 5.37479999999999  C 44.3612 5.37479999999999  45.2747 5.09890000000001  45.2747 5.09890000000001  C 45.2747 5.09890000000001  47.0022 5.36939999999998  47.0022 5.36939999999998  C 47.0022 5.36939999999998  46.85 7.09530000000001  46.85 7.09530000000001  C 46.85 7.09530000000001  46.2059 7.71210000000002  46.2059 7.71210000000002  C 46.2059 7.71210000000002  47.0784 8.26940000000002  47.0784 8.26940000000002  C 47.0784 8.26940000000002  47.219 9.6223  47.219 9.6223  C 47.219 9.6223  47.9568 9.50319999999999  47.9568 9.50319999999999  C 47.9568 9.50319999999999  49.6726 10.407  49.6726 10.407  C 49.6726 10.407  50.188 10.1418  50.188 10.1418  C 50.188 10.1418  50.3051 8.35599999999999  50.3051 8.35599999999999  C 50.3051 8.35599999999999  50.9435 7.9502  50.9435 7.9502  C 50.9435 7.9502  51.9799 9.47620000000001  51.9799 9.47620000000001  C 51.9799 9.47620000000001  51.6579 10.9103  51.6579 10.9103  C 51.6579 10.9103  51.6462 12.5395  51.6462 12.5395  C 51.6462 12.5395  50.8439 13.7953  50.8439 13.7953  C 50.8439 13.7953  51.2889 14.8509  51.2889 14.8509  C 51.2889 14.8509  52.1557 14.8076  52.1557 14.8076  C 52.1557 14.8076  52.6007 16.2422  52.6007 16.2422  C 52.6007 16.2422  53.7953 16.4805  53.7953 16.4805  C 53.7953 16.4805  54.0472 17.3577  54.0472 17.3577  C 54.0472 17.3577  53.7426 18.0508  53.7426 18.0508  C 53.7426 18.0508  52.7354 18.6031  52.7354 18.6031  C 52.7354 18.6031  53.0224000000001 20.2168  53.0224000000001 20.2168  C 53.0224000000001 20.2168  54.381 19.7673  54.381 19.7673  C 54.381 19.7673  54.6679 19.2962  54.6679 19.2962  C 54.6679 19.2962  56.5653 20.1193  56.5653 20.1193  C 56.5653 20.1193  56.8464 19.4803  56.8464 19.4803  C 56.8464 19.4803  58.6735 19.4478  58.6735 19.4478  C 58.6735 19.4478  59.3294 20.2331  59.3294 20.2331  C 59.3294 20.2331  59.3878999999999 20.7692  59.3878999999999 20.7692  C 59.3878999999999 20.7692  62.2925 20.6934  62.2925 20.6934  C 62.2925 20.6934  64.3597 20.1573  64.3597 20.1573  C 64.3597 20.1573  66.0873 20.7909  66.0873 20.7909  C 66.0873 20.7909  66.1048 23.4754  66.1048 23.4754  C 66.1048 23.4754  64.8517000000001 26.1136  64.8517000000001 26.1136  C 64.8517000000001 26.1136  63.7507000000001 27.1483  63.7507000000001 27.1483  C 63.7507000000001 27.1483  62.7376 29.1261  62.7376 29.1261  C 62.7376 29.1261  62.7903 30.1556  62.7903 30.1556  C 62.7903 30.1556  63.4286 31.4183  63.4286 31.4183  C 63.4286 31.4183  65.0742 32.5403  65.0742 32.5403  C 65.0742 32.5403  66.9774 33.0064  66.9774 33.0064  C 66.9774 33.0064  67.932 35.5813  67.932 35.5813  C 67.932 35.5813  67.9906 37.3054  67.9906 37.3054  C 67.9906 37.3054  66.7373 39.4418  66.7373 39.4418  C 66.7373 39.4418  64.7521 40.3202  64.7521 40.3202  C 64.7521 40.3202  61.9880000000001 41.1012  61.9880000000001 41.1012  C 61.9880000000001 41.1012  61.2267000000001 42.7826  61.2267000000001 42.7826  C 61.2267000000001 42.7826  60.1668 43.6667  60.1668 43.6667  C 60.1668 43.6667  58.7555 43.8674  58.7555 43.8674  C 58.7555 43.8674  57.4496 43.3521  57.4496 43.3521  C 57.4496 43.3521  56.7175 42.4084  56.7175 42.4084  C 56.7175 42.4084  56.2725 41.226  56.2725 41.226  C 56.2725 41.226  55.7923 38.4874  55.7923 38.4874  C 55.7923 38.4874  56.0793 35.3482  56.0793 35.3482  C 56.0793 35.3482  55.7513 34.2098  55.7513 34.2098  C 55.7513 34.2098  53.2391 30.8276  53.2391 30.8276  C 53.2391 30.8276  52.9287 29.1152  52.9287 29.1152  C 52.9287 29.1152  52.3079 28.1615  52.3079 28.1615  C 52.3079 28.1615  50.4574 27.1321  50.4574 27.1321  C 50.4574 27.1321  49.1984 27.2675  49.1984 27.2675  C 49.1984 27.2675  47.4883 28.2807  47.4883 28.2807  C 47.4883 28.2807  46.5338 28.5733  46.5338 28.5733  C 46.5338 28.5733  44.8765 28.5787  44.8765 28.5787  C 44.8765 28.5787  43.8459 29.6029  43.8459 29.6029  C 43.8459 29.6029  43.313 30.6108  43.313 30.6108  C 43.313 30.6108  42.3643 31.1961  42.3643 31.1961  C 42.3643 31.1961  39.7993 31.6189  39.7993 31.6189  C 39.7993 31.6189  37.7907 33.5322  37.7907 33.5322  C 37.7907 33.5322  37.082 32.2368  37.082 32.2368  C 37.082 32.2368  35.4131 32.0742  35.4131 32.0742  C 35.4131 32.0742  32.9783 32.2314  32.9783 32.2314  C 32.9783 32.2314  32.949 31.8249  32.949 31.8249  C 32.949 31.8249  31.6724 31.6081  31.6724 31.6081  C 31.6724 31.6081  31.0282 32.3181  31.0282 32.3181  C 31.0282 32.3181  30.7472 33.6081  30.7472 33.6081  C 30.7472 33.6081  29.3416 33.6514  29.3416 33.6514  C 29.3416 33.6514  27.9772 34.8657  27.9772 34.8657  C 27.9772 34.8657  27.7957 34.2694  27.7957 34.2694  C 27.7957 34.2694  26.2086 34.1881  26.2086 34.1881  C 26.2086 34.1881  25.4591 35.0554  25.4591 35.0554  C 25.4591 35.0554  25.9217 35.4729  25.9217 35.4729  C 25.9217 35.4729  25.2541 36.3458  25.2541 36.3458  C 25.2541 36.3458  24.9027 36.0312  24.9027 36.0312  C 24.9027 36.0312  23.9541 36.5355  23.9541 36.5355  C 23.9541 36.5355  23.1987 37.6524  23.1987 37.6524  C 23.1987 37.6524  21.3774 37.1752  21.3774 37.1752  C 21.3774 37.1752  20.8562 36.6114  20.8562 36.6114  C 20.8562 36.6114  17.2254 36.5301  17.2254 36.5301  C 17.2254 36.5301  15.8961 37.1102  15.8961 37.1102  C 15.8961 37.1102  14.9591 39.919  14.9591 39.919  C 14.9591 39.919  12.5815 42.0991  12.5815 42.0991  C 12.5815 42.0991  10.7486 43.4552  10.7486 43.4552  C 10.7486 43.4552  9.98140000000001 43.0321  9.98140000000001 43.0321  C 9.98140000000001 43.0321  9.08539999999999 41.7303  9.08539999999999 41.7303  C 9.08539999999999 41.7303  8.53500000000003 40.0708  8.53500000000003 40.0708  C 8.53500000000003 40.0708  8.27140000000003 38.0536  8.27140000000003 38.0536  C 8.27140000000003 38.0536  8.62860000000001 35.9824  8.62860000000001 35.9824  C 8.62860000000001 35.9824  8.06060000000002 33.5755  8.06060000000002 33.5755  C 8.06060000000002 33.5755  7.64479999999998 33.272  7.64479999999998 33.272  C 7.64479999999998 33.272  6.38580000000002 33.5809  6.38580000000002 33.5809  C 6.38580000000002 33.5809  6.6669 31.5647  6.6669 31.5647  C 6.6669 31.5647  6.19839999999999 30.4537  6.19839999999999 30.4537  C 6.19839999999999 30.4537  3.99650000000003 28.1182  3.99650000000003 28.1182  C 3.99650000000003 28.1182  2.3802 24.8025  2.3802 24.8025  C 2.3802 24.8025  1.69499999999999 23.0204  1.69499999999999 23.0204  C 1.69499999999999 23.0204  1.09769999999997 19.724  1.09769999999997 19.724  C 1.09769999999997 19.724  0.512099999999975 18.3973  0.512099999999975 18.3973  C 0.512099999999975 18.3973  0.0260999999999854 14.6668  0.0260999999999854 14.6668  C 0.0260999999999854 14.6668  0.863499999999988 12.4745  0.863499999999988 12.4745  C 0.863499999999988 12.4745  3.03609999999998 10.7912  3.03609999999998 10.7912  C 3.03609999999998 10.7912  3.11219999999997 9.34089999999998  3.11219999999997 9.34089999999998  C 3.11219999999997 9.34089999999998  3.8793 8.3777  3.8793 8.3777  C 3.8793 8.3777  3.90859999999998 7.58769999999998  3.90859999999998 7.58769999999998  C 3.90859999999998 7.58769999999998  4.58210000000003 7.83120000000002  4.58210000000003 7.83120000000002  C 4.58210000000003 7.83120000000002  4.7636 7.01960000000003  4.7636 7.01960000000003  C 4.7636 7.01960000000003  5.642 6.76530000000002  5.642 6.76530000000002  C 5.642 6.76530000000002  6.57900000000001 5.95370000000003  6.57900000000001 5.95370000000003  C 6.57900000000001 5.95370000000003  6.69619999999998 4.04950000000002  6.69619999999998 4.04950000000002  C 6.69619999999998 4.04950000000002  6.38580000000002 3.78440000000001  6.38580000000002 3.78440000000001  C 6.38580000000002 3.78440000000001  6.90699999999998 2.58359999999999  6.90699999999998 2.58359999999999  C 6.90699999999998 2.58359999999999  7.65649999999999 2.22660000000002  7.65649999999999 2.22660000000002  C 7.65649999999999 2.22660000000002  8.09570000000002 2.7242  8.09570000000002 2.7242  C 8.09570000000002 2.7242  9.28460000000001 2.2482  9.28460000000001 2.2482  C 9.28460000000001 2.2482  9.67110000000002 0.495900000000006  9.67110000000002 0.495900000000006  C 9.67110000000002 0.495900000000006  10.0985 0.89609999999999  10.0985 0.89609999999999  C 10.0985 0.89609999999999  10.4089 0.0849000000000046  10.4089 0.0849000000000046  C 10.4089 0.0849000000000046  11.34 0.393199999999979  11.34 0.393199999999979  C 11.34 0.393199999999979  10.9125 1.33960000000002  10.9125 1.33960000000002  C 10.9125 1.33960000000002  11.7499 1.95620000000002  11.7499 1.95620000000002  C 11.7499 1.95620000000002  12.2126 2.98930000000001  12.2126 2.98930000000001  C 12.2126 2.98930000000001  14.2681 2.71339999999998  14.2681 2.71339999999998  C 14.2681 2.71339999999998  15.5506 3.90339999999998  15.5506 3.90339999999998  C 15.5506 3.90339999999998  15.5798 4.5093  15.5798 4.5093  C 15.5798 4.5093  16.9092 4.77440000000001  16.9092 4.77440000000001  C 16.9092 4.77440000000001  17.366 5.38029999999998  17.366 5.38029999999998  C 17.366 5.38029999999998  17.1083 6.20260000000002  17.1083 6.20260000000002  C 17.1083 6.20260000000002  17.8403 5.67239999999998  17.8403 5.67239999999998  C 17.8403 5.67239999999998  18.3205 6.024  18.3205 6.024  C 18.3205 6.024  18.6602 8.97289999999998  18.6602 8.97289999999998  C 18.6602 8.97289999999998  19.2457 9.76839999999999  19.2457 9.76839999999999  C 19.2457 9.76839999999999  20.3877 10.0985  20.3877 10.0985  C 20.3877 10.0985  21.7112 9.43290000000002  21.7112 9.43290000000002  C 21.7112 9.43290000000002  22.0684 9.68180000000001  22.0684 9.68180000000001  C 22.0684 9.68180000000001  22.8239 8.9837  22.8239 8.9837  C 22.8239 8.9837  22.7946 10.4827  22.7946 10.4827  C 22.7946 10.4827  23.9541 10.5369  23.9541 10.5369  C 23.9541 10.5369  24.733 12.0686  24.733 12.0686  C 24.733 12.0686  25.4649 11.0835  25.4649 11.0835  C 25.4649 11.0835  26.5425 11.4245  26.5425 11.4245  C 26.5425 11.4245  27.21 13.8927  27.21 13.8927  C 27.21 13.8927  28.0065 13.8657  28.0065 13.8657  C 28.0065 13.8657  28.3403 14.5802  28.3403 14.5802  C 28.3403 14.5802  30.0737 14.7913  30.0737 14.7913  C 30.0737 14.7913  30.1029 16.1123  30.1029 16.1123  C 30.1029 16.1123  30.6183 17.2386  30.6183 17.2386  C 30.6183 17.2386  31.813 18.2024  31.813 18.2024  C 31.813 18.2024  31.5436 19.7619  31.5436 19.7619  C 31.5436 19.7619  30.8994 19.3991  30.8994 19.3991  C 30.8994 19.3991  32.1995 20.883  32.1995 20.883  C 32.1995 20.883  33.3473 19.659  33.3473 19.659  C 33.3473 19.659  33.3473 18.928  33.3473 18.928  C 33.3473 18.928  34.9446 18.2619  34.9446 18.2619  C 34.9446 18.2619  35.2608 16.0257  35.2608 16.0257  C 35.2608 16.0257  35.05 15.1919  35.05 15.1919  C 35.05 15.1919  35.9166 14.7372  35.9166 14.7372  C 35.9166 14.7372  35.9518 13.254  35.9518 13.254  C 35.9518 13.254  36.4965 12.6099  36.4965 12.6099  C 36.4965 12.6099  35.5419 10.618  35.5419 10.618  C 35.5419 10.618  35.3837 9.63310000000001  35.3837 9.63310000000001  C 35.3837 9.63310000000001  32.9314 9.58440000000002  32.9314 9.58440000000002  C 32.9314 9.58440000000002  33.3824 9.06490000000002  33.3824 9.06490000000002  C 33.3824 9.06490000000002  32.8378 8.51839999999999  32.8378 8.51839999999999  C 32.8378 8.51839999999999  34.5346 7.50110000000001  34.5346 7.50110000000001  C 34.5346 7.50110000000001  35.8522 7.08449999999999  35.8522 7.08449999999999  C 35.8522 7.08449999999999  36.4965 5.25580000000002  36.4965 5.25580000000002  Z " stroke-width="2" stroke="#666666" fill="none" transform="matrix(1 0 0 1 489 371 )" mask="url(#clip30)" />
    <path d="M 6.58350000000002 47.3558  C 6.58350000000002 47.3558  6.26139999999998 48.1697  6.26139999999998 48.1697  C 6.26139999999998 48.1697  5.29509999999999 47.7736  5.29509999999999 47.7736  C 5.29509999999999 47.7736  3.83839999999998 47.0465  3.83839999999998 47.0465  C 3.83839999999998 47.0465  2.7199 45.4172  2.7199 45.4172  C 2.7199 45.4172  3.65089999999998 44.5057  3.65089999999998 44.5057  C 3.65089999999998 44.5057  5.59379999999999 44.7173  5.59379999999999 44.7173  C 5.59379999999999 44.7173  6.58350000000002 47.3558  6.58350000000002 47.3558  Z " stroke-width="2" stroke="#666666" fill="none" transform="matrix(1 0 0 1 489 371 )" mask="url(#clip30)" />
    <path d="M 9.07819999999998 37.2457  C 9.07819999999998 37.2457  7.1354 35.568  7.1354 35.568  C 7.1354 35.568  6.98899999999998 34.9987  6.98899999999998 34.9987  C 6.98899999999998 34.9987  9.084 36.6331  9.084 36.6331  C 9.084 36.6331  9.07819999999998 37.2457  9.07819999999998 37.2457  Z " stroke-width="2" stroke="#666666" fill="none" transform="matrix(1 0 0 1 489 371 )" mask="url(#clip30)" />
    <path d="M 8.34620000000001 38.4331  C 8.34620000000001 38.4331  6.76650000000001 36.7608  6.76650000000001 36.7608  C 6.76650000000001 36.7608  7.1354 36.2674  7.1354 36.2674  C 7.1354 36.2674  8.70920000000001 37.956  8.70920000000001 37.956  C 8.70920000000001 37.956  8.34620000000001 38.4331  8.34620000000001 38.4331  Z " stroke-width="2" stroke="#666666" fill="none" transform="matrix(1 0 0 1 489 371 )" mask="url(#clip30)" />
  </g>
</svg>