<?xml version="1.0" encoding="utf-8"?>
<svg version="1.1" xmlns:xlink="http://www.w3.org/1999/xlink" width="96px" height="64px" xmlns="http://www.w3.org/2000/svg">
  <defs>
    <mask fill="white" id="clip31">
      <path d="M 12.6686 4.86590000000001  C 12.6686 4.86590000000001  13.6758 5.60919999999999  13.6758 5.60919999999999  C 13.6758 5.60919999999999  14.5308 6.3526  14.5308 6.3526  C 14.5308 6.3526  17.0782 10.2494  17.0782 10.2494  C 17.0782 10.2494  18.0855 11.9756  18.0855 11.9756  C 18.0855 11.9756  18.1558 13.7455  18.1558 13.7455  C 18.1558 13.7455  19.327 17.0144  19.327 17.0144  C 19.327 17.0144  19.977 19.2086  19.977 19.2086  C 19.977 19.2086  20.5334 20.1699  20.5334 20.1699  C 20.5334 20.1699  24.0456 22.0821  24.0456 22.0821  C 24.0456 22.0821  24.4789 21.93  24.4789 21.93  C 24.4789 21.93  26.3763 24.8801  26.3763 24.8801  C 26.3763 24.8801  27.5066 25.0431  27.5066 25.0431  C 27.5066 25.0431  29.6323 23.7717  29.6323 23.7717  C 29.6323 23.7717  29.9603 23.2556  29.9603 23.2556  C 29.9603 23.2556  31.7698 22.4134  31.7698 22.4134  C 31.7698 22.4134  31.1959 21.2726  31.1959 21.2726  C 31.1959 21.2726  33.7901 20.083  33.7901 20.083  C 33.7901 20.083  33.9132 18.9043  33.9132 18.9043  C 33.9132 18.9043  33.1753 18.3504  33.1753 18.3504  C 33.1753 18.3504  32.537 16.7972  32.537 16.7972  C 32.537 16.7972  31.3189 14.5925  31.3189 14.5925  C 31.3189 14.5925  30.5576 13.9302  30.5576 13.9302  C 30.5576 13.9302  31.5121 13.0723  31.5121 13.0723  C 31.5121 13.0723  32.3027 13.1537  32.3027 13.1537  C 32.3027 13.1537  33.1284 12.5131  33.1284 12.5131  C 33.1284 12.5131  32.4139 10.9442  32.4139 10.9442  C 32.4139 10.9442  32.0743 10.8356  32.0743 10.8356  C 32.0743 10.8356  32.2969 9.47859999999997  32.2969 9.47859999999997  C 32.2969 9.47859999999997  31.9865 8.2792  31.9865 8.2792  C 31.9865 8.2792  32.1505 7.15030000000002  32.1505 7.15030000000002  C 32.1505 7.15030000000002  31.8166 5.79910000000001  31.8166 5.79910000000001  C 31.8166 5.79910000000001  32.4491 5.26740000000001  32.4491 5.26740000000001  C 32.4491 5.26740000000001  32.4959 4.03019999999998  32.4959 4.03019999999998  C 32.4959 4.03019999999998  33.4915 3.43349999999998  33.4915 3.43349999999998  C 33.4915 3.43349999999998  33.9073 3.91090000000003  33.9073 3.91090000000003  C 33.9073 3.91090000000003  35.6524 3.13510000000002  35.6524 3.13510000000002  C 35.6524 3.13510000000002  38.0651 3.58539999999999  38.0651 3.58539999999999  C 38.0651 3.58539999999999  39.3827 4.75729999999999  39.3827 4.75729999999999  C 39.3827 4.75729999999999  40.7413 4.45339999999999  40.7413 4.45339999999999  C 40.7413 4.45339999999999  41.1337 3.89999999999998  41.1337 3.89999999999998  C 41.1337 3.89999999999998  41.813 1.041  41.813 1.041  C 41.813 1.041  42.3517 0.422599999999989  42.3517 0.422599999999989  C 42.3517 0.422599999999989  44.9694 0.585300000000018  44.9694 0.585300000000018  C 44.9694 0.585300000000018  45.7951 1.1712  45.7951 1.1712  C 45.7951 1.1712  45.7542 3.14049999999997  45.7542 3.14049999999997  C 45.7542 3.14049999999997  44.2199 6.20060000000001  44.2199 6.20060000000001  C 44.2199 6.20060000000001  42.5977 9.96719999999999  42.5977 9.96719999999999  C 42.5977 9.96719999999999  40.8175 10.9225  40.8175 10.9225  C 40.8175 10.9225  40.8585 12.019  40.8585 12.019  C 40.8585 12.019  41.7486 13.0669  41.7486 13.0669  C 41.7486 13.0669  41.4323 14.0876  41.4323 14.0876  C 41.4323 14.0876  40.144 14.5545  40.144 14.5545  C 40.144 14.5545  39.6989 15.6079  39.6989 15.6079  C 39.6989 15.6079  40.103 16.7755  40.103 16.7755  C 40.103 16.7755  39.8571 18.2418  39.8571 18.2418  C 39.8571 18.2418  40.4368 18.9478  40.4368 18.9478  C 40.4368 18.9478  40.2377 21.6148  40.2377 21.6148  C 40.2377 21.6148  39.6814 22.446  39.6814 22.446  C 39.6814 22.446  38.0709 22.6633  38.0709 22.6633  C 38.0709 22.6633  37.3096 23.9129  37.3096 23.9129  C 37.3096 23.9129  36.5894 23.7499  36.5894 23.7499  C 36.5894 23.7499  35.7344 24.2172  35.7344 24.2172  C 35.7344 24.2172  35.9276 25.2388  35.9276 25.2388  C 35.9276 25.2388  35.4357 26.6407  35.4357 26.6407  C 35.4357 26.6407  35.4533 27.8146  35.4533 27.8146  C 35.4533 27.8146  36.2205 30.8528  36.2205 30.8528  C 36.2205 30.8528  36.9876 32.0432  36.9876 32.0432  C 36.9876 32.0432  36.9407 35.9685  36.9407 35.9685  C 36.9407 35.9685  37.8425 37.2083  37.8425 37.2083  C 37.8425 37.2083  37.8367 39.1497  37.8367 39.1497  C 37.8367 39.1497  36.9759 39.4325  36.9759 39.4325  C 36.9759 39.4325  35.1547 39.0519  35.1547 39.0519  C 35.1547 39.0519  34.3641 39.5087  34.3641 39.5087  C 34.3641 39.5087  33.105 40.9773  33.105 40.9773  C 33.105 40.9773  31.4887 40.9827  31.4887 40.9827  C 31.4887 40.9827  29.7377 42.0978  29.7377 42.0978  C 29.7377 42.0978  29.035 43.2674  29.035 43.2674  C 29.035 43.2674  28.9003 44.8125  28.9003 44.8125  C 28.9003 44.8125  28.3967 45.5851  28.3967 45.5851  C 28.3967 45.5851  25.9547 47.4787  25.9547 47.4787  C 25.9547 47.4787  20.5158 49.1495  20.5158 49.1495  C 20.5158 49.1495  19.409 49.71  19.409 49.71  C 19.409 49.71  18.8351 50.4611  18.8351 50.4611  C 18.8351 50.4611  18.6711 53.2319  18.6711 53.2319  C 18.6711 53.2319  18.0503 55.7526  18.0503 55.7526  C 18.0503 55.7526  16.5336 56.8471  16.5336 56.8471  C 16.5336 56.8471  15.7197 58.4317  15.7197 58.4317  C 15.7197 58.4317  13.992 59.6298  13.992 59.6298  C 13.992 59.6298  11.5794 57.9851  11.5794 57.9851  C 11.5794 57.9851  10.2735 56.2317  10.2735 56.2317  C 10.2735 56.2317  7.52109999999999 51.3429  7.52109999999999 51.3429  C 7.52109999999999 51.3429  5.79939999999999 49.71  5.79939999999999 49.71  C 5.79939999999999 49.71  5.17869999999999 48.6052  5.17869999999999 48.6052  C 5.17869999999999 48.6052  4.88 46.0748  4.88 46.0748  C 4.88 46.0748  4.5403 45.3456  4.5403 45.3456  C 4.5403 45.3456  1.36630000000002 41.6354  1.36630000000002 41.6354  C 1.36630000000002 41.6354  0.640199999999993 39.8949  0.640199999999993 39.8949  C 0.640199999999993 39.8949  0.2654 33.7012  0.2654 33.7012  C 0.2654 33.7012  0.628399999999999 32.6357  0.628399999999999 32.6357  C 0.628399999999999 32.6357  1.05009999999999 26.4288  1.05009999999999 26.4288  C 1.05009999999999 26.4288  1.96949999999998 24.7062  1.96949999999998 24.7062  C 1.96949999999998 24.7062  1.7353 24.2227  1.7353 24.2227  C 1.7353 24.2227  2.43799999999999 23.6358  2.43799999999999 23.6358  C 2.43799999999999 23.6358  2.80700000000002 24.1955  2.80700000000002 24.1955  C 2.80700000000002 24.1955  3.51549999999997 23.3207  3.51549999999997 23.3207  C 3.51549999999997 23.3207  5.74669999999998 22.2505  5.74669999999998 22.2505  C 5.74669999999998 22.2505  6.4846 21.2617  6.4846 21.2617  C 6.4846 21.2617  7.0643 18.2689  7.0643 18.2689  C 7.0643 18.2689  7.07600000000002 17.009  7.07600000000002 17.009  C 7.07600000000002 17.009  7.77879999999999 15.5211  7.77879999999999 15.5211  C 7.77879999999999 15.5211  8.35849999999999 9.0607  8.35849999999999 9.0607  C 8.35849999999999 9.0607  7.60890000000001 7.87209999999999  7.60890000000001 7.87209999999999  C 7.60890000000001 7.87209999999999  6.53140000000002 7.04180000000002  6.53140000000002 7.04180000000002  C 6.53140000000002 7.04180000000002  6.06880000000001 6.02699999999999  6.06880000000001 6.02699999999999  C 6.06880000000001 6.02699999999999  6.24450000000002 4.77359999999999  6.24450000000002 4.77359999999999  C 6.24450000000002 4.77359999999999  7.48590000000002 4.55650000000003  7.48590000000002 4.55650000000003  C 7.48590000000002 4.55650000000003  8.00130000000001 5.31619999999998  8.00130000000001 5.31619999999998  C 8.00130000000001 5.31619999999998  8.28820000000002 6.66739999999999  8.28820000000002 6.66739999999999  C 8.28820000000002 6.66739999999999  9.60590000000002 6.01609999999999  9.60590000000002 6.01609999999999  C 9.60590000000002 6.01609999999999  9.82249999999999 4.9418  9.82249999999999 4.9418  C 9.82249999999999 4.9418  11.7375 5.63630000000001  11.7375 5.63630000000001  C 11.7375 5.63630000000001  12.6686 4.86590000000001  12.6686 4.86590000000001  Z M 75.304 36.9473  C 75.304 36.9473  74.9761 37.7575  74.9761 37.7575  C 74.9761 37.7575  72.6585 37.2463  72.6585 37.2463  C 72.6585 37.2463  72.0787 35.0392  72.0787 35.0392  C 72.0787 35.0392  74.6599 34.4519  74.6599 34.4519  C 74.6599 34.4519  75.304 36.9473  75.304 36.9473  Z M 88.4524 44.1378  C 88.4524 44.1378  87.6735 44.8886  87.6735 44.8886  C 87.6735 44.8886  87.0294 44.6221  87.0294 44.6221  C 87.0294 44.6221  87.4276 43.6155  87.4276 43.6155  C 87.4276 43.6155  88.3411 42.9355  88.3411 42.9355  C 88.3411 42.9355  90.4376 41.348  90.4376 41.348  C 90.4376 41.348  92.6323 40.4885  92.6323 40.4885  C 92.6323 40.4885  94.1549 40.4069  94.1549 40.4069  C 94.1549 40.4069  94.3657 39.3843  94.3657 39.3843  C 94.3657 39.3843  95.7008 39.0145  95.7008 39.0145  C 95.7008 39.0145  95.7477 39.8086  95.7477 39.8086  C 95.7477 39.8086  94.6292 40.5973  94.6292 40.5973  C 94.6292 40.5973  94.8107 41.3317  94.8107 41.3317  C 94.8107 41.3317  93.9323 42.8703  93.9323 42.8703  C 93.9323 42.8703  92.7376 42.8648  92.7376 42.8648  C 92.7376 42.8648  90.379 43.7407  90.379 43.7407  C 90.379 43.7407  88.4524 44.1378  88.4524 44.1378  Z M 50.3863 44.8832  C 50.3863 44.8832  49.2093 45.7973  49.2093 45.7973  C 49.2093 45.7973  47.5475 45.7538  47.5475 45.7538  C 47.5475 45.7538  47.53 44.8995  47.53 44.8995  C 47.53 44.8995  46.7687 43.3554  46.7687 43.3554  C 46.7687 43.3554  47.2957 42.5665  47.2957 42.5665  C 47.2957 42.5665  49.8534 42.6264  49.8534 42.6264  C 49.8534 42.6264  50.3863 44.8832  50.3863 44.8832  Z M 56.6772 47.5168  C 56.6772 47.5168  56.6011 45.4231  56.6011 45.4231  C 56.6011 45.4231  57.0871 45.8964  57.0871 45.8964  C 57.0871 45.8964  58.9714 45.6679  58.9714 45.6679  C 58.9714 45.6679  57.1633 47.6855  57.1633 47.6855  C 57.1633 47.6855  56.6772 47.5168  56.6772 47.5168  Z M 71.2823 60.4959  C 71.2823 60.4959  70.7786 61.5144  70.7786 61.5144  C 70.7786 61.5144  70.8021 59.4414  70.8021 59.4414  C 70.8021 59.4414  73.4301 58.4283  73.4301 58.4283  C 73.4301 58.4283  71.2823 60.4959  71.2823 60.4959  Z M 56.3889 27.8037  C 56.3889 27.8037  56.8866 30.5429  56.8866 30.5429  C 56.8866 30.5429  54.7037 28.5917  54.7037 28.5917  C 54.7037 28.5917  56.3889 27.8037  56.3889 27.8037  Z M 70.0993 42.892  C 70.0993 42.892  69.9647 40.94  69.9647 40.94  C 69.9647 40.94  71.4332 40.9564  71.4332 40.9564  C 71.4332 40.9564  70.0993 42.892  70.0993 42.892  Z M 53.3027 49.4052  C 53.3027 49.4052  53.0743 50.4284  53.0743 50.4284  C 53.0743 50.4284  51.5414 50.1019  51.5414 50.1019  C 51.5414 50.1019  51.354 49.1331  51.354 49.1331  C 51.354 49.1331  50.335 46.7943  50.335 46.7943  C 50.335 46.7943  50.9206 46.0488  50.9206 46.0488  C 50.9206 46.0488  53.127 46.2992  53.127 46.2992  C 53.127 46.2992  53.6657 45.6788  53.6657 45.6788  C 53.6657 45.6788  54.2162 46.6474  54.2162 46.6474  C 54.2162 46.6474  54.105 48.7576  54.105 48.7576  C 54.105 48.7576  53.3027 49.4052  53.3027 49.4052  Z M 74.7828 58.5025  C 74.7828 58.5025  72.6526 58.1595  72.6526 58.1595  C 72.6526 58.1595  73.3026 56.2064  73.3026 56.2064  C 73.3026 56.2064  75.5032 55.504  75.5032 55.504  C 75.5032 55.504  75.878 57.5169  75.878 57.5169  C 75.878 57.5169  75.0581 56.4189  75.0581 56.4189  C 75.0581 56.4189  74.7828 58.5025  74.7828 58.5025  Z M 64.2198 43.213  C 64.2198 43.213  63.8626 42.7832  63.8626 42.7832  C 63.8626 42.7832  64.132 40.6027  64.132 40.6027  C 64.132 40.6027  66.028 41.0706  66.028 41.0706  C 66.028 41.0706  66.2623 42.8594  66.2623 42.8594  C 66.2623 42.8594  64.2198 43.213  64.2198 43.213  Z M 4.75110000000001 62.9689  C 4.75110000000001 62.9689  4.5521 63.6989  4.5521 63.6989  C 4.5521 63.6989  4.17140000000001 62.9362  4.17140000000001 62.9362  C 4.17140000000001 62.9362  4.07769999999999 58.9349  4.07769999999999 58.9349  C 4.07769999999999 58.9349  4.66329999999999 58.4392  4.66329999999999 58.4392  C 4.66329999999999 58.4392  5.16109999999998 59.3106  5.16109999999998 59.3106  C 5.16109999999998 59.3106  6.42009999999999 58.1288  6.42009999999999 58.1288  C 6.42009999999999 58.1288  8.42739999999998 59.5939  8.42739999999998 59.5939  C 8.42739999999998 59.5939  9.2414 58.559  9.2414 58.559  C 9.2414 58.559  10.3306 58.6626  10.3306 58.6626  C 10.3306 58.6626  10.1842 59.692  10.1842 59.692  C 10.1842 59.692  8.9427 61.9993  8.9427 61.9993  C 8.9427 61.9993  8.33370000000002 62.1028  8.33370000000002 62.1028  C 8.33370000000002 62.1028  8.16390000000001 60.351  8.16390000000001 60.351  C 8.16390000000001 60.351  5.82279999999997 61.6452  5.82279999999997 61.6452  C 5.82279999999997 61.6452  4.75110000000001 62.9689  4.75110000000001 62.9689  Z M 51.417 53.8633  C 51.417 53.8633  48.8475 54.484  48.8475 54.484  C 48.8475 54.484  49.0115 53.4224  49.0115 53.4224  C 49.0115 53.4224  48.4084 53.1501  48.4084 53.1501  C 48.4084 53.1501  48.4669 50.517  48.4669 50.517  C 48.4669 50.517  49.2224 50.1252  49.2224 50.1252  C 49.2224 50.1252  51.3877 50.5716  51.3877 50.5716  C 51.3877 50.5716  52.0437 51.5895  52.0437 51.5895  C 52.0437 51.5895  51.417 53.8633  51.417 53.8633  Z M 60.0562 34.0387  C 60.0562 34.0387  61.6183 33.5656  61.6183 33.5656  C 61.6183 33.5656  62.1747 34.0822  62.1747 34.0822  C 62.1747 34.0822  61.8936 35.6041  61.8936 35.6041  C 61.8936 35.6041  60.0562 34.0387  60.0562 34.0387  Z M 58.7606 33.2065  C 58.7606 33.2065  57.8939 34.5385  57.8939 34.5385  C 57.8939 34.5385  56.32 34.2666  56.32 34.2666  C 56.32 34.2666  55.992 33.0706  55.992 33.0706  C 55.992 33.0706  56.4488 32.6411  56.4488 32.6411  C 56.4488 32.6411  56.115 29.9343  56.115 29.9343  C 56.115 29.9343  57.9173 29.6298  57.9173 29.6298  C 57.9173 29.6298  58.7606 33.2065  58.7606 33.2065  Z M 86.5068 47.4189  C 86.5068 47.4189  84.5288 47.9358  84.5288 47.9358  C 84.5288 47.9358  83.8378 47.7236  83.8378 47.7236  C 83.8378 47.7236  83.6738 45.2434  83.6738 45.2434  C 83.6738 45.2434  83.9198 44.4381  83.9198 44.4381  C 83.9198 44.4381  87.6663 44.4218  87.6663 44.4218  C 87.6663 44.4218  88.1231 44.7592  88.1231 44.7592  C 88.1231 44.7592  87.8478 47.5875  87.8478 47.5875  C 87.8478 47.5875  86.5068 47.4189  86.5068 47.4189  Z M 7.7774 52.5568  C 7.7774 52.5568  6.24450000000002 50.2939  6.24450000000002 50.2939  C 6.24450000000002 50.2939  7.75389999999999 50.1633  7.75389999999999 50.1633  C 7.75389999999999 50.1633  7.7774 52.5568  7.7774 52.5568  Z M 83.8539 48.2733  C 83.8539 48.2733  82.7823 49.0896  82.7823 49.0896  C 82.7823 49.0896  81.0679 48.5453  81.0679 48.5453  C 81.0679 48.5453  79.4691 48.5943  79.4691 48.5943  C 79.4691 48.5943  79.5101 48.0555  79.5101 48.0555  C 79.5101 48.0555  81.3489 46.4787  81.3489 46.4787  C 81.3489 46.4787  82.6769 45.4992  82.6769 45.4992  C 82.6769 45.4992  83.2683 46.027  83.2683 46.027  C 83.2683 46.027  84.1877 45.5754  84.1877 45.5754  C 84.1877 45.5754  84.3107 46.272  84.3107 46.272  C 84.3107 46.272  83.8539 48.2733  83.8539 48.2733  Z M 3.35739999999998 55.6819  C 3.35739999999998 55.6819  4.15379999999999 53.7834  4.15379999999999 53.7834  C 4.15379999999999 53.7834  3.9957 53.1465  3.9957 53.1465  C 3.9957 53.1465  5.66329999999999 51.9705  5.66329999999999 51.9705  C 5.66329999999999 51.9705  6.1026 51.878  6.1026 51.878  C 6.1026 51.878  6.73489999999998 52.9885  6.73489999999998 52.9885  C 6.73489999999998 52.9885  6.54169999999999 53.7453  6.54169999999999 53.7453  C 6.54169999999999 53.7453  4.39980000000003 55.4313  4.39980000000003 55.4313  C 4.39980000000003 55.4313  3.17000000000002 57.1356  3.17000000000002 57.1356  C 3.17000000000002 57.1356  3.35739999999998 55.6819  3.35739999999998 55.6819  Z M 44.8186 43.1477  C 44.8186 43.1477  44.4438 41.5547  44.4438 41.5547  C 44.4438 41.5547  45.9064 40.9237  45.9064 40.9237  C 45.9064 40.9237  46.2461 43.5611  46.2461 43.5611  C 46.2461 43.5611  44.5375 44.1705  44.5375 44.1705  C 44.5375 44.1705  44.8186 43.1477  44.8186 43.1477  Z M 48.8169 52.1594  C 48.8169 52.1594  45.8083 52.7854  45.8083 52.7854  C 45.8083 52.7854  45.6736 51.7185  45.6736 51.7185  C 45.6736 51.7185  46.5461 49.325  46.5461 49.325  C 46.5461 49.325  48.6061 49.9129  48.6061 49.9129  C 48.6061 49.9129  48.8169 52.1594  48.8169 52.1594  Z M 63.381 32.9513  C 63.381 32.9513  63.5099 34.919  63.5099 34.919  C 63.5099 34.919  61.3386 35.2181  61.3386 35.2181  C 61.3386 35.2181  61.6256 33.0438  61.6256 33.0438  C 61.6256 33.0438  63.381 32.9513  63.381 32.9513  Z M 47.7056 32.8259  C 47.7056 32.8259  47.6822 30.929  47.6822 30.929  C 47.6822 30.929  49.7831 31.0975  49.7831 31.0975  C 49.7831 31.0975  47.7056 32.8259  47.7056 32.8259  Z M 72.3935 43.6646  C 72.3935 43.6646  70.5913 43.806  70.5913 43.806  C 70.5913 43.806  72.0481 41.658  72.0481 41.658  C 72.0481 41.658  72.3935 43.6646  72.3935 43.6646  Z M 47.161 36.8874  C 47.161 36.8874  47.3016 35.1914  47.3016 35.1914  C 47.3016 35.1914  48.9399 37.2028  48.9399 37.2028  C 48.9399 37.2028  47.161 36.8874  47.161 36.8874  Z M 81.9332 50.0692  C 81.9332 50.0692  79.6975 50.4502  79.6975 50.4502  C 79.6975 50.4502  81.6403 48.5739  81.6403 48.5739  C 81.6403 48.5739  81.9332 50.0692  81.9332 50.0692  Z M 37.6331 26.0702  C 37.6331 26.0702  37.6858 23.9455  37.6858 23.9455  C 37.6858 23.9455  39.7458 24.2607  39.7458 24.2607  C 39.7458 24.2607  39.4238 26.0702  39.4238 26.0702  C 39.4238 26.0702  37.6331 26.0702  37.6331 26.0702  Z " fill-rule="evenodd" />
    </mask>
  </defs>
  <g transform="matrix(1 0 0 1 -438 -413 )">
    <path d="M 12.6686 4.86590000000001  C 12.6686 4.86590000000001  13.6758 5.60919999999999  13.6758 5.60919999999999  C 13.6758 5.60919999999999  14.5308 6.3526  14.5308 6.3526  C 14.5308 6.3526  17.0782 10.2494  17.0782 10.2494  C 17.0782 10.2494  18.0855 11.9756  18.0855 11.9756  C 18.0855 11.9756  18.1558 13.7455  18.1558 13.7455  C 18.1558 13.7455  19.327 17.0144  19.327 17.0144  C 19.327 17.0144  19.977 19.2086  19.977 19.2086  C 19.977 19.2086  20.5334 20.1699  20.5334 20.1699  C 20.5334 20.1699  24.0456 22.0821  24.0456 22.0821  C 24.0456 22.0821  24.4789 21.93  24.4789 21.93  C 24.4789 21.93  26.3763 24.8801  26.3763 24.8801  C 26.3763 24.8801  27.5066 25.0431  27.5066 25.0431  C 27.5066 25.0431  29.6323 23.7717  29.6323 23.7717  C 29.6323 23.7717  29.9603 23.2556  29.9603 23.2556  C 29.9603 23.2556  31.7698 22.4134  31.7698 22.4134  C 31.7698 22.4134  31.1959 21.2726  31.1959 21.2726  C 31.1959 21.2726  33.7901 20.083  33.7901 20.083  C 33.7901 20.083  33.9132 18.9043  33.9132 18.9043  C 33.9132 18.9043  33.1753 18.3504  33.1753 18.3504  C 33.1753 18.3504  32.537 16.7972  32.537 16.7972  C 32.537 16.7972  31.3189 14.5925  31.3189 14.5925  C 31.3189 14.5925  30.5576 13.9302  30.5576 13.9302  C 30.5576 13.9302  31.5121 13.0723  31.5121 13.0723  C 31.5121 13.0723  32.3027 13.1537  32.3027 13.1537  C 32.3027 13.1537  33.1284 12.5131  33.1284 12.5131  C 33.1284 12.5131  32.4139 10.9442  32.4139 10.9442  C 32.4139 10.9442  32.0743 10.8356  32.0743 10.8356  C 32.0743 10.8356  32.2969 9.47859999999997  32.2969 9.47859999999997  C 32.2969 9.47859999999997  31.9865 8.2792  31.9865 8.2792  C 31.9865 8.2792  32.1505 7.15030000000002  32.1505 7.15030000000002  C 32.1505 7.15030000000002  31.8166 5.79910000000001  31.8166 5.79910000000001  C 31.8166 5.79910000000001  32.4491 5.26740000000001  32.4491 5.26740000000001  C 32.4491 5.26740000000001  32.4959 4.03019999999998  32.4959 4.03019999999998  C 32.4959 4.03019999999998  33.4915 3.43349999999998  33.4915 3.43349999999998  C 33.4915 3.43349999999998  33.9073 3.91090000000003  33.9073 3.91090000000003  C 33.9073 3.91090000000003  35.6524 3.13510000000002  35.6524 3.13510000000002  C 35.6524 3.13510000000002  38.0651 3.58539999999999  38.0651 3.58539999999999  C 38.0651 3.58539999999999  39.3827 4.75729999999999  39.3827 4.75729999999999  C 39.3827 4.75729999999999  40.7413 4.45339999999999  40.7413 4.45339999999999  C 40.7413 4.45339999999999  41.1337 3.89999999999998  41.1337 3.89999999999998  C 41.1337 3.89999999999998  41.813 1.041  41.813 1.041  C 41.813 1.041  42.3517 0.422599999999989  42.3517 0.422599999999989  C 42.3517 0.422599999999989  44.9694 0.585300000000018  44.9694 0.585300000000018  C 44.9694 0.585300000000018  45.7951 1.1712  45.7951 1.1712  C 45.7951 1.1712  45.7542 3.14049999999997  45.7542 3.14049999999997  C 45.7542 3.14049999999997  44.2199 6.20060000000001  44.2199 6.20060000000001  C 44.2199 6.20060000000001  42.5977 9.96719999999999  42.5977 9.96719999999999  C 42.5977 9.96719999999999  40.8175 10.9225  40.8175 10.9225  C 40.8175 10.9225  40.8585 12.019  40.8585 12.019  C 40.8585 12.019  41.7486 13.0669  41.7486 13.0669  C 41.7486 13.0669  41.4323 14.0876  41.4323 14.0876  C 41.4323 14.0876  40.144 14.5545  40.144 14.5545  C 40.144 14.5545  39.6989 15.6079  39.6989 15.6079  C 39.6989 15.6079  40.103 16.7755  40.103 16.7755  C 40.103 16.7755  39.8571 18.2418  39.8571 18.2418  C 39.8571 18.2418  40.4368 18.9478  40.4368 18.9478  C 40.4368 18.9478  40.2377 21.6148  40.2377 21.6148  C 40.2377 21.6148  39.6814 22.446  39.6814 22.446  C 39.6814 22.446  38.0709 22.6633  38.0709 22.6633  C 38.0709 22.6633  37.3096 23.9129  37.3096 23.9129  C 37.3096 23.9129  36.5894 23.7499  36.5894 23.7499  C 36.5894 23.7499  35.7344 24.2172  35.7344 24.2172  C 35.7344 24.2172  35.9276 25.2388  35.9276 25.2388  C 35.9276 25.2388  35.4357 26.6407  35.4357 26.6407  C 35.4357 26.6407  35.4533 27.8146  35.4533 27.8146  C 35.4533 27.8146  36.2205 30.8528  36.2205 30.8528  C 36.2205 30.8528  36.9876 32.0432  36.9876 32.0432  C 36.9876 32.0432  36.9407 35.9685  36.9407 35.9685  C 36.9407 35.9685  37.8425 37.2083  37.8425 37.2083  C 37.8425 37.2083  37.8367 39.1497  37.8367 39.1497  C 37.8367 39.1497  36.9759 39.4325  36.9759 39.4325  C 36.9759 39.4325  35.1547 39.0519  35.1547 39.0519  C 35.1547 39.0519  34.3641 39.5087  34.3641 39.5087  C 34.3641 39.5087  33.105 40.9773  33.105 40.9773  C 33.105 40.9773  31.4887 40.9827  31.4887 40.9827  C 31.4887 40.9827  29.7377 42.0978  29.7377 42.0978  C 29.7377 42.0978  29.035 43.2674  29.035 43.2674  C 29.035 43.2674  28.9003 44.8125  28.9003 44.8125  C 28.9003 44.8125  28.3967 45.5851  28.3967 45.5851  C 28.3967 45.5851  25.9547 47.4787  25.9547 47.4787  C 25.9547 47.4787  20.5158 49.1495  20.5158 49.1495  C 20.5158 49.1495  19.409 49.71  19.409 49.71  C 19.409 49.71  18.8351 50.4611  18.8351 50.4611  C 18.8351 50.4611  18.6711 53.2319  18.6711 53.2319  C 18.6711 53.2319  18.0503 55.7526  18.0503 55.7526  C 18.0503 55.7526  16.5336 56.8471  16.5336 56.8471  C 16.5336 56.8471  15.7197 58.4317  15.7197 58.4317  C 15.7197 58.4317  13.992 59.6298  13.992 59.6298  C 13.992 59.6298  11.5794 57.9851  11.5794 57.9851  C 11.5794 57.9851  10.2735 56.2317  10.2735 56.2317  C 10.2735 56.2317  7.52109999999999 51.3429  7.52109999999999 51.3429  C 7.52109999999999 51.3429  5.79939999999999 49.71  5.79939999999999 49.71  C 5.79939999999999 49.71  5.17869999999999 48.6052  5.17869999999999 48.6052  C 5.17869999999999 48.6052  4.88 46.0748  4.88 46.0748  C 4.88 46.0748  4.5403 45.3456  4.5403 45.3456  C 4.5403 45.3456  1.36630000000002 41.6354  1.36630000000002 41.6354  C 1.36630000000002 41.6354  0.640199999999993 39.8949  0.640199999999993 39.8949  C 0.640199999999993 39.8949  0.2654 33.7012  0.2654 33.7012  C 0.2654 33.7012  0.628399999999999 32.6357  0.628399999999999 32.6357  C 0.628399999999999 32.6357  1.05009999999999 26.4288  1.05009999999999 26.4288  C 1.05009999999999 26.4288  1.96949999999998 24.7062  1.96949999999998 24.7062  C 1.96949999999998 24.7062  1.7353 24.2227  1.7353 24.2227  C 1.7353 24.2227  2.43799999999999 23.6358  2.43799999999999 23.6358  C 2.43799999999999 23.6358  2.80700000000002 24.1955  2.80700000000002 24.1955  C 2.80700000000002 24.1955  3.51549999999997 23.3207  3.51549999999997 23.3207  C 3.51549999999997 23.3207  5.74669999999998 22.2505  5.74669999999998 22.2505  C 5.74669999999998 22.2505  6.4846 21.2617  6.4846 21.2617  C 6.4846 21.2617  7.0643 18.2689  7.0643 18.2689  C 7.0643 18.2689  7.07600000000002 17.009  7.07600000000002 17.009  C 7.07600000000002 17.009  7.77879999999999 15.5211  7.77879999999999 15.5211  C 7.77879999999999 15.5211  8.35849999999999 9.0607  8.35849999999999 9.0607  C 8.35849999999999 9.0607  7.60890000000001 7.87209999999999  7.60890000000001 7.87209999999999  C 7.60890000000001 7.87209999999999  6.53140000000002 7.04180000000002  6.53140000000002 7.04180000000002  C 6.53140000000002 7.04180000000002  6.06880000000001 6.02699999999999  6.06880000000001 6.02699999999999  C 6.06880000000001 6.02699999999999  6.24450000000002 4.77359999999999  6.24450000000002 4.77359999999999  C 6.24450000000002 4.77359999999999  7.48590000000002 4.55650000000003  7.48590000000002 4.55650000000003  C 7.48590000000002 4.55650000000003  8.00130000000001 5.31619999999998  8.00130000000001 5.31619999999998  C 8.00130000000001 5.31619999999998  8.28820000000002 6.66739999999999  8.28820000000002 6.66739999999999  C 8.28820000000002 6.66739999999999  9.60590000000002 6.01609999999999  9.60590000000002 6.01609999999999  C 9.60590000000002 6.01609999999999  9.82249999999999 4.9418  9.82249999999999 4.9418  C 9.82249999999999 4.9418  11.7375 5.63630000000001  11.7375 5.63630000000001  C 11.7375 5.63630000000001  12.6686 4.86590000000001  12.6686 4.86590000000001  Z M 75.304 36.9473  C 75.304 36.9473  74.9761 37.7575  74.9761 37.7575  C 74.9761 37.7575  72.6585 37.2463  72.6585 37.2463  C 72.6585 37.2463  72.0787 35.0392  72.0787 35.0392  C 72.0787 35.0392  74.6599 34.4519  74.6599 34.4519  C 74.6599 34.4519  75.304 36.9473  75.304 36.9473  Z M 88.4524 44.1378  C 88.4524 44.1378  87.6735 44.8886  87.6735 44.8886  C 87.6735 44.8886  87.0294 44.6221  87.0294 44.6221  C 87.0294 44.6221  87.4276 43.6155  87.4276 43.6155  C 87.4276 43.6155  88.3411 42.9355  88.3411 42.9355  C 88.3411 42.9355  90.4376 41.348  90.4376 41.348  C 90.4376 41.348  92.6323 40.4885  92.6323 40.4885  C 92.6323 40.4885  94.1549 40.4069  94.1549 40.4069  C 94.1549 40.4069  94.3657 39.3843  94.3657 39.3843  C 94.3657 39.3843  95.7008 39.0145  95.7008 39.0145  C 95.7008 39.0145  95.7477 39.8086  95.7477 39.8086  C 95.7477 39.8086  94.6292 40.5973  94.6292 40.5973  C 94.6292 40.5973  94.8107 41.3317  94.8107 41.3317  C 94.8107 41.3317  93.9323 42.8703  93.9323 42.8703  C 93.9323 42.8703  92.7376 42.8648  92.7376 42.8648  C 92.7376 42.8648  90.379 43.7407  90.379 43.7407  C 90.379 43.7407  88.4524 44.1378  88.4524 44.1378  Z M 50.3863 44.8832  C 50.3863 44.8832  49.2093 45.7973  49.2093 45.7973  C 49.2093 45.7973  47.5475 45.7538  47.5475 45.7538  C 47.5475 45.7538  47.53 44.8995  47.53 44.8995  C 47.53 44.8995  46.7687 43.3554  46.7687 43.3554  C 46.7687 43.3554  47.2957 42.5665  47.2957 42.5665  C 47.2957 42.5665  49.8534 42.6264  49.8534 42.6264  C 49.8534 42.6264  50.3863 44.8832  50.3863 44.8832  Z M 56.6772 47.5168  C 56.6772 47.5168  56.6011 45.4231  56.6011 45.4231  C 56.6011 45.4231  57.0871 45.8964  57.0871 45.8964  C 57.0871 45.8964  58.9714 45.6679  58.9714 45.6679  C 58.9714 45.6679  57.1633 47.6855  57.1633 47.6855  C 57.1633 47.6855  56.6772 47.5168  56.6772 47.5168  Z M 71.2823 60.4959  C 71.2823 60.4959  70.7786 61.5144  70.7786 61.5144  C 70.7786 61.5144  70.8021 59.4414  70.8021 59.4414  C 70.8021 59.4414  73.4301 58.4283  73.4301 58.4283  C 73.4301 58.4283  71.2823 60.4959  71.2823 60.4959  Z M 56.3889 27.8037  C 56.3889 27.8037  56.8866 30.5429  56.8866 30.5429  C 56.8866 30.5429  54.7037 28.5917  54.7037 28.5917  C 54.7037 28.5917  56.3889 27.8037  56.3889 27.8037  Z M 70.0993 42.892  C 70.0993 42.892  69.9647 40.94  69.9647 40.94  C 69.9647 40.94  71.4332 40.9564  71.4332 40.9564  C 71.4332 40.9564  70.0993 42.892  70.0993 42.892  Z M 53.3027 49.4052  C 53.3027 49.4052  53.0743 50.4284  53.0743 50.4284  C 53.0743 50.4284  51.5414 50.1019  51.5414 50.1019  C 51.5414 50.1019  51.354 49.1331  51.354 49.1331  C 51.354 49.1331  50.335 46.7943  50.335 46.7943  C 50.335 46.7943  50.9206 46.0488  50.9206 46.0488  C 50.9206 46.0488  53.127 46.2992  53.127 46.2992  C 53.127 46.2992  53.6657 45.6788  53.6657 45.6788  C 53.6657 45.6788  54.2162 46.6474  54.2162 46.6474  C 54.2162 46.6474  54.105 48.7576  54.105 48.7576  C 54.105 48.7576  53.3027 49.4052  53.3027 49.4052  Z M 74.7828 58.5025  C 74.7828 58.5025  72.6526 58.1595  72.6526 58.1595  C 72.6526 58.1595  73.3026 56.2064  73.3026 56.2064  C 73.3026 56.2064  75.5032 55.504  75.5032 55.504  C 75.5032 55.504  75.878 57.5169  75.878 57.5169  C 75.878 57.5169  75.0581 56.4189  75.0581 56.4189  C 75.0581 56.4189  74.7828 58.5025  74.7828 58.5025  Z M 64.2198 43.213  C 64.2198 43.213  63.8626 42.7832  63.8626 42.7832  C 63.8626 42.7832  64.132 40.6027  64.132 40.6027  C 64.132 40.6027  66.028 41.0706  66.028 41.0706  C 66.028 41.0706  66.2623 42.8594  66.2623 42.8594  C 66.2623 42.8594  64.2198 43.213  64.2198 43.213  Z M 4.75110000000001 62.9689  C 4.75110000000001 62.9689  4.5521 63.6989  4.5521 63.6989  C 4.5521 63.6989  4.17140000000001 62.9362  4.17140000000001 62.9362  C 4.17140000000001 62.9362  4.07769999999999 58.9349  4.07769999999999 58.9349  C 4.07769999999999 58.9349  4.66329999999999 58.4392  4.66329999999999 58.4392  C 4.66329999999999 58.4392  5.16109999999998 59.3106  5.16109999999998 59.3106  C 5.16109999999998 59.3106  6.42009999999999 58.1288  6.42009999999999 58.1288  C 6.42009999999999 58.1288  8.42739999999998 59.5939  8.42739999999998 59.5939  C 8.42739999999998 59.5939  9.2414 58.559  9.2414 58.559  C 9.2414 58.559  10.3306 58.6626  10.3306 58.6626  C 10.3306 58.6626  10.1842 59.692  10.1842 59.692  C 10.1842 59.692  8.9427 61.9993  8.9427 61.9993  C 8.9427 61.9993  8.33370000000002 62.1028  8.33370000000002 62.1028  C 8.33370000000002 62.1028  8.16390000000001 60.351  8.16390000000001 60.351  C 8.16390000000001 60.351  5.82279999999997 61.6452  5.82279999999997 61.6452  C 5.82279999999997 61.6452  4.75110000000001 62.9689  4.75110000000001 62.9689  Z M 51.417 53.8633  C 51.417 53.8633  48.8475 54.484  48.8475 54.484  C 48.8475 54.484  49.0115 53.4224  49.0115 53.4224  C 49.0115 53.4224  48.4084 53.1501  48.4084 53.1501  C 48.4084 53.1501  48.4669 50.517  48.4669 50.517  C 48.4669 50.517  49.2224 50.1252  49.2224 50.1252  C 49.2224 50.1252  51.3877 50.5716  51.3877 50.5716  C 51.3877 50.5716  52.0437 51.5895  52.0437 51.5895  C 52.0437 51.5895  51.417 53.8633  51.417 53.8633  Z M 60.0562 34.0387  C 60.0562 34.0387  61.6183 33.5656  61.6183 33.5656  C 61.6183 33.5656  62.1747 34.0822  62.1747 34.0822  C 62.1747 34.0822  61.8936 35.6041  61.8936 35.6041  C 61.8936 35.6041  60.0562 34.0387  60.0562 34.0387  Z M 58.7606 33.2065  C 58.7606 33.2065  57.8939 34.5385  57.8939 34.5385  C 57.8939 34.5385  56.32 34.2666  56.32 34.2666  C 56.32 34.2666  55.992 33.0706  55.992 33.0706  C 55.992 33.0706  56.4488 32.6411  56.4488 32.6411  C 56.4488 32.6411  56.115 29.9343  56.115 29.9343  C 56.115 29.9343  57.9173 29.6298  57.9173 29.6298  C 57.9173 29.6298  58.7606 33.2065  58.7606 33.2065  Z M 86.5068 47.4189  C 86.5068 47.4189  84.5288 47.9358  84.5288 47.9358  C 84.5288 47.9358  83.8378 47.7236  83.8378 47.7236  C 83.8378 47.7236  83.6738 45.2434  83.6738 45.2434  C 83.6738 45.2434  83.9198 44.4381  83.9198 44.4381  C 83.9198 44.4381  87.6663 44.4218  87.6663 44.4218  C 87.6663 44.4218  88.1231 44.7592  88.1231 44.7592  C 88.1231 44.7592  87.8478 47.5875  87.8478 47.5875  C 87.8478 47.5875  86.5068 47.4189  86.5068 47.4189  Z M 7.7774 52.5568  C 7.7774 52.5568  6.24450000000002 50.2939  6.24450000000002 50.2939  C 6.24450000000002 50.2939  7.75389999999999 50.1633  7.75389999999999 50.1633  C 7.75389999999999 50.1633  7.7774 52.5568  7.7774 52.5568  Z M 83.8539 48.2733  C 83.8539 48.2733  82.7823 49.0896  82.7823 49.0896  C 82.7823 49.0896  81.0679 48.5453  81.0679 48.5453  C 81.0679 48.5453  79.4691 48.5943  79.4691 48.5943  C 79.4691 48.5943  79.5101 48.0555  79.5101 48.0555  C 79.5101 48.0555  81.3489 46.4787  81.3489 46.4787  C 81.3489 46.4787  82.6769 45.4992  82.6769 45.4992  C 82.6769 45.4992  83.2683 46.027  83.2683 46.027  C 83.2683 46.027  84.1877 45.5754  84.1877 45.5754  C 84.1877 45.5754  84.3107 46.272  84.3107 46.272  C 84.3107 46.272  83.8539 48.2733  83.8539 48.2733  Z M 3.35739999999998 55.6819  C 3.35739999999998 55.6819  4.15379999999999 53.7834  4.15379999999999 53.7834  C 4.15379999999999 53.7834  3.9957 53.1465  3.9957 53.1465  C 3.9957 53.1465  5.66329999999999 51.9705  5.66329999999999 51.9705  C 5.66329999999999 51.9705  6.1026 51.878  6.1026 51.878  C 6.1026 51.878  6.73489999999998 52.9885  6.73489999999998 52.9885  C 6.73489999999998 52.9885  6.54169999999999 53.7453  6.54169999999999 53.7453  C 6.54169999999999 53.7453  4.39980000000003 55.4313  4.39980000000003 55.4313  C 4.39980000000003 55.4313  3.17000000000002 57.1356  3.17000000000002 57.1356  C 3.17000000000002 57.1356  3.35739999999998 55.6819  3.35739999999998 55.6819  Z M 44.8186 43.1477  C 44.8186 43.1477  44.4438 41.5547  44.4438 41.5547  C 44.4438 41.5547  45.9064 40.9237  45.9064 40.9237  C 45.9064 40.9237  46.2461 43.5611  46.2461 43.5611  C 46.2461 43.5611  44.5375 44.1705  44.5375 44.1705  C 44.5375 44.1705  44.8186 43.1477  44.8186 43.1477  Z M 48.8169 52.1594  C 48.8169 52.1594  45.8083 52.7854  45.8083 52.7854  C 45.8083 52.7854  45.6736 51.7185  45.6736 51.7185  C 45.6736 51.7185  46.5461 49.325  46.5461 49.325  C 46.5461 49.325  48.6061 49.9129  48.6061 49.9129  C 48.6061 49.9129  48.8169 52.1594  48.8169 52.1594  Z M 63.381 32.9513  C 63.381 32.9513  63.5099 34.919  63.5099 34.919  C 63.5099 34.919  61.3386 35.2181  61.3386 35.2181  C 61.3386 35.2181  61.6256 33.0438  61.6256 33.0438  C 61.6256 33.0438  63.381 32.9513  63.381 32.9513  Z M 47.7056 32.8259  C 47.7056 32.8259  47.6822 30.929  47.6822 30.929  C 47.6822 30.929  49.7831 31.0975  49.7831 31.0975  C 49.7831 31.0975  47.7056 32.8259  47.7056 32.8259  Z M 72.3935 43.6646  C 72.3935 43.6646  70.5913 43.806  70.5913 43.806  C 70.5913 43.806  72.0481 41.658  72.0481 41.658  C 72.0481 41.658  72.3935 43.6646  72.3935 43.6646  Z M 47.161 36.8874  C 47.161 36.8874  47.3016 35.1914  47.3016 35.1914  C 47.3016 35.1914  48.9399 37.2028  48.9399 37.2028  C 48.9399 37.2028  47.161 36.8874  47.161 36.8874  Z M 81.9332 50.0692  C 81.9332 50.0692  79.6975 50.4502  79.6975 50.4502  C 79.6975 50.4502  81.6403 48.5739  81.6403 48.5739  C 81.6403 48.5739  81.9332 50.0692  81.9332 50.0692  Z M 37.6331 26.0702  C 37.6331 26.0702  37.6858 23.9455  37.6858 23.9455  C 37.6858 23.9455  39.7458 24.2607  39.7458 24.2607  C 39.7458 24.2607  39.4238 26.0702  39.4238 26.0702  C 39.4238 26.0702  37.6331 26.0702  37.6331 26.0702  Z " fill-rule="nonzero" fill="#ffffff" stroke="none" transform="matrix(1 0 0 1 438 413 )" />
    <path d="M 12.6686 4.86590000000001  C 12.6686 4.86590000000001  13.6758 5.60919999999999  13.6758 5.60919999999999  C 13.6758 5.60919999999999  14.5308 6.3526  14.5308 6.3526  C 14.5308 6.3526  17.0782 10.2494  17.0782 10.2494  C 17.0782 10.2494  18.0855 11.9756  18.0855 11.9756  C 18.0855 11.9756  18.1558 13.7455  18.1558 13.7455  C 18.1558 13.7455  19.327 17.0144  19.327 17.0144  C 19.327 17.0144  19.977 19.2086  19.977 19.2086  C 19.977 19.2086  20.5334 20.1699  20.5334 20.1699  C 20.5334 20.1699  24.0456 22.0821  24.0456 22.0821  C 24.0456 22.0821  24.4789 21.93  24.4789 21.93  C 24.4789 21.93  26.3763 24.8801  26.3763 24.8801  C 26.3763 24.8801  27.5066 25.0431  27.5066 25.0431  C 27.5066 25.0431  29.6323 23.7717  29.6323 23.7717  C 29.6323 23.7717  29.9603 23.2556  29.9603 23.2556  C 29.9603 23.2556  31.7698 22.4134  31.7698 22.4134  C 31.7698 22.4134  31.1959 21.2726  31.1959 21.2726  C 31.1959 21.2726  33.7901 20.083  33.7901 20.083  C 33.7901 20.083  33.9132 18.9043  33.9132 18.9043  C 33.9132 18.9043  33.1753 18.3504  33.1753 18.3504  C 33.1753 18.3504  32.537 16.7972  32.537 16.7972  C 32.537 16.7972  31.3189 14.5925  31.3189 14.5925  C 31.3189 14.5925  30.5576 13.9302  30.5576 13.9302  C 30.5576 13.9302  31.5121 13.0723  31.5121 13.0723  C 31.5121 13.0723  32.3027 13.1537  32.3027 13.1537  C 32.3027 13.1537  33.1284 12.5131  33.1284 12.5131  C 33.1284 12.5131  32.4139 10.9442  32.4139 10.9442  C 32.4139 10.9442  32.0743 10.8356  32.0743 10.8356  C 32.0743 10.8356  32.2969 9.47859999999997  32.2969 9.47859999999997  C 32.2969 9.47859999999997  31.9865 8.2792  31.9865 8.2792  C 31.9865 8.2792  32.1505 7.15030000000002  32.1505 7.15030000000002  C 32.1505 7.15030000000002  31.8166 5.79910000000001  31.8166 5.79910000000001  C 31.8166 5.79910000000001  32.4491 5.26740000000001  32.4491 5.26740000000001  C 32.4491 5.26740000000001  32.4959 4.03019999999998  32.4959 4.03019999999998  C 32.4959 4.03019999999998  33.4915 3.43349999999998  33.4915 3.43349999999998  C 33.4915 3.43349999999998  33.9073 3.91090000000003  33.9073 3.91090000000003  C 33.9073 3.91090000000003  35.6524 3.13510000000002  35.6524 3.13510000000002  C 35.6524 3.13510000000002  38.0651 3.58539999999999  38.0651 3.58539999999999  C 38.0651 3.58539999999999  39.3827 4.75729999999999  39.3827 4.75729999999999  C 39.3827 4.75729999999999  40.7413 4.45339999999999  40.7413 4.45339999999999  C 40.7413 4.45339999999999  41.1337 3.89999999999998  41.1337 3.89999999999998  C 41.1337 3.89999999999998  41.813 1.041  41.813 1.041  C 41.813 1.041  42.3517 0.422599999999989  42.3517 0.422599999999989  C 42.3517 0.422599999999989  44.9694 0.585300000000018  44.9694 0.585300000000018  C 44.9694 0.585300000000018  45.7951 1.1712  45.7951 1.1712  C 45.7951 1.1712  45.7542 3.14049999999997  45.7542 3.14049999999997  C 45.7542 3.14049999999997  44.2199 6.20060000000001  44.2199 6.20060000000001  C 44.2199 6.20060000000001  42.5977 9.96719999999999  42.5977 9.96719999999999  C 42.5977 9.96719999999999  40.8175 10.9225  40.8175 10.9225  C 40.8175 10.9225  40.8585 12.019  40.8585 12.019  C 40.8585 12.019  41.7486 13.0669  41.7486 13.0669  C 41.7486 13.0669  41.4323 14.0876  41.4323 14.0876  C 41.4323 14.0876  40.144 14.5545  40.144 14.5545  C 40.144 14.5545  39.6989 15.6079  39.6989 15.6079  C 39.6989 15.6079  40.103 16.7755  40.103 16.7755  C 40.103 16.7755  39.8571 18.2418  39.8571 18.2418  C 39.8571 18.2418  40.4368 18.9478  40.4368 18.9478  C 40.4368 18.9478  40.2377 21.6148  40.2377 21.6148  C 40.2377 21.6148  39.6814 22.446  39.6814 22.446  C 39.6814 22.446  38.0709 22.6633  38.0709 22.6633  C 38.0709 22.6633  37.3096 23.9129  37.3096 23.9129  C 37.3096 23.9129  36.5894 23.7499  36.5894 23.7499  C 36.5894 23.7499  35.7344 24.2172  35.7344 24.2172  C 35.7344 24.2172  35.9276 25.2388  35.9276 25.2388  C 35.9276 25.2388  35.4357 26.6407  35.4357 26.6407  C 35.4357 26.6407  35.4533 27.8146  35.4533 27.8146  C 35.4533 27.8146  36.2205 30.8528  36.2205 30.8528  C 36.2205 30.8528  36.9876 32.0432  36.9876 32.0432  C 36.9876 32.0432  36.9407 35.9685  36.9407 35.9685  C 36.9407 35.9685  37.8425 37.2083  37.8425 37.2083  C 37.8425 37.2083  37.8367 39.1497  37.8367 39.1497  C 37.8367 39.1497  36.9759 39.4325  36.9759 39.4325  C 36.9759 39.4325  35.1547 39.0519  35.1547 39.0519  C 35.1547 39.0519  34.3641 39.5087  34.3641 39.5087  C 34.3641 39.5087  33.105 40.9773  33.105 40.9773  C 33.105 40.9773  31.4887 40.9827  31.4887 40.9827  C 31.4887 40.9827  29.7377 42.0978  29.7377 42.0978  C 29.7377 42.0978  29.035 43.2674  29.035 43.2674  C 29.035 43.2674  28.9003 44.8125  28.9003 44.8125  C 28.9003 44.8125  28.3967 45.5851  28.3967 45.5851  C 28.3967 45.5851  25.9547 47.4787  25.9547 47.4787  C 25.9547 47.4787  20.5158 49.1495  20.5158 49.1495  C 20.5158 49.1495  19.409 49.71  19.409 49.71  C 19.409 49.71  18.8351 50.4611  18.8351 50.4611  C 18.8351 50.4611  18.6711 53.2319  18.6711 53.2319  C 18.6711 53.2319  18.0503 55.7526  18.0503 55.7526  C 18.0503 55.7526  16.5336 56.8471  16.5336 56.8471  C 16.5336 56.8471  15.7197 58.4317  15.7197 58.4317  C 15.7197 58.4317  13.992 59.6298  13.992 59.6298  C 13.992 59.6298  11.5794 57.9851  11.5794 57.9851  C 11.5794 57.9851  10.2735 56.2317  10.2735 56.2317  C 10.2735 56.2317  7.52109999999999 51.3429  7.52109999999999 51.3429  C 7.52109999999999 51.3429  5.79939999999999 49.71  5.79939999999999 49.71  C 5.79939999999999 49.71  5.17869999999999 48.6052  5.17869999999999 48.6052  C 5.17869999999999 48.6052  4.88 46.0748  4.88 46.0748  C 4.88 46.0748  4.5403 45.3456  4.5403 45.3456  C 4.5403 45.3456  1.36630000000002 41.6354  1.36630000000002 41.6354  C 1.36630000000002 41.6354  0.640199999999993 39.8949  0.640199999999993 39.8949  C 0.640199999999993 39.8949  0.2654 33.7012  0.2654 33.7012  C 0.2654 33.7012  0.628399999999999 32.6357  0.628399999999999 32.6357  C 0.628399999999999 32.6357  1.05009999999999 26.4288  1.05009999999999 26.4288  C 1.05009999999999 26.4288  1.96949999999998 24.7062  1.96949999999998 24.7062  C 1.96949999999998 24.7062  1.7353 24.2227  1.7353 24.2227  C 1.7353 24.2227  2.43799999999999 23.6358  2.43799999999999 23.6358  C 2.43799999999999 23.6358  2.80700000000002 24.1955  2.80700000000002 24.1955  C 2.80700000000002 24.1955  3.51549999999997 23.3207  3.51549999999997 23.3207  C 3.51549999999997 23.3207  5.74669999999998 22.2505  5.74669999999998 22.2505  C 5.74669999999998 22.2505  6.4846 21.2617  6.4846 21.2617  C 6.4846 21.2617  7.0643 18.2689  7.0643 18.2689  C 7.0643 18.2689  7.07600000000002 17.009  7.07600000000002 17.009  C 7.07600000000002 17.009  7.77879999999999 15.5211  7.77879999999999 15.5211  C 7.77879999999999 15.5211  8.35849999999999 9.0607  8.35849999999999 9.0607  C 8.35849999999999 9.0607  7.60890000000001 7.87209999999999  7.60890000000001 7.87209999999999  C 7.60890000000001 7.87209999999999  6.53140000000002 7.04180000000002  6.53140000000002 7.04180000000002  C 6.53140000000002 7.04180000000002  6.06880000000001 6.02699999999999  6.06880000000001 6.02699999999999  C 6.06880000000001 6.02699999999999  6.24450000000002 4.77359999999999  6.24450000000002 4.77359999999999  C 6.24450000000002 4.77359999999999  7.48590000000002 4.55650000000003  7.48590000000002 4.55650000000003  C 7.48590000000002 4.55650000000003  8.00130000000001 5.31619999999998  8.00130000000001 5.31619999999998  C 8.00130000000001 5.31619999999998  8.28820000000002 6.66739999999999  8.28820000000002 6.66739999999999  C 8.28820000000002 6.66739999999999  9.60590000000002 6.01609999999999  9.60590000000002 6.01609999999999  C 9.60590000000002 6.01609999999999  9.82249999999999 4.9418  9.82249999999999 4.9418  C 9.82249999999999 4.9418  11.7375 5.63630000000001  11.7375 5.63630000000001  C 11.7375 5.63630000000001  12.6686 4.86590000000001  12.6686 4.86590000000001  Z " stroke-width="2" stroke="#666666" fill="none" transform="matrix(1 0 0 1 438 413 )" mask="url(#clip31)" />
    <path d="M 75.304 36.9473  C 75.304 36.9473  74.9761 37.7575  74.9761 37.7575  C 74.9761 37.7575  72.6585 37.2463  72.6585 37.2463  C 72.6585 37.2463  72.0787 35.0392  72.0787 35.0392  C 72.0787 35.0392  74.6599 34.4519  74.6599 34.4519  C 74.6599 34.4519  75.304 36.9473  75.304 36.9473  Z " stroke-width="2" stroke="#666666" fill="none" transform="matrix(1 0 0 1 438 413 )" mask="url(#clip31)" />
    <path d="M 88.4524 44.1378  C 88.4524 44.1378  87.6735 44.8886  87.6735 44.8886  C 87.6735 44.8886  87.0294 44.6221  87.0294 44.6221  C 87.0294 44.6221  87.4276 43.6155  87.4276 43.6155  C 87.4276 43.6155  88.3411 42.9355  88.3411 42.9355  C 88.3411 42.9355  90.4376 41.348  90.4376 41.348  C 90.4376 41.348  92.6323 40.4885  92.6323 40.4885  C 92.6323 40.4885  94.1549 40.4069  94.1549 40.4069  C 94.1549 40.4069  94.3657 39.3843  94.3657 39.3843  C 94.3657 39.3843  95.7008 39.0145  95.7008 39.0145  C 95.7008 39.0145  95.7477 39.8086  95.7477 39.8086  C 95.7477 39.8086  94.6292 40.5973  94.6292 40.5973  C 94.6292 40.5973  94.8107 41.3317  94.8107 41.3317  C 94.8107 41.3317  93.9323 42.8703  93.9323 42.8703  C 93.9323 42.8703  92.7376 42.8648  92.7376 42.8648  C 92.7376 42.8648  90.379 43.7407  90.379 43.7407  C 90.379 43.7407  88.4524 44.1378  88.4524 44.1378  Z " stroke-width="2" stroke="#666666" fill="none" transform="matrix(1 0 0 1 438 413 )" mask="url(#clip31)" />
    <path d="M 50.3863 44.8832  C 50.3863 44.8832  49.2093 45.7973  49.2093 45.7973  C 49.2093 45.7973  47.5475 45.7538  47.5475 45.7538  C 47.5475 45.7538  47.53 44.8995  47.53 44.8995  C 47.53 44.8995  46.7687 43.3554  46.7687 43.3554  C 46.7687 43.3554  47.2957 42.5665  47.2957 42.5665  C 47.2957 42.5665  49.8534 42.6264  49.8534 42.6264  C 49.8534 42.6264  50.3863 44.8832  50.3863 44.8832  Z " stroke-width="2" stroke="#666666" fill="none" transform="matrix(1 0 0 1 438 413 )" mask="url(#clip31)" />
    <path d="M 56.6772 47.5168  C 56.6772 47.5168  56.6011 45.4231  56.6011 45.4231  C 56.6011 45.4231  57.0871 45.8964  57.0871 45.8964  C 57.0871 45.8964  58.9714 45.6679  58.9714 45.6679  C 58.9714 45.6679  57.1633 47.6855  57.1633 47.6855  C 57.1633 47.6855  56.6772 47.5168  56.6772 47.5168  Z " stroke-width="2" stroke="#666666" fill="none" transform="matrix(1 0 0 1 438 413 )" mask="url(#clip31)" />
    <path d="M 71.2823 60.4959  C 71.2823 60.4959  70.7786 61.5144  70.7786 61.5144  C 70.7786 61.5144  70.8021 59.4414  70.8021 59.4414  C 70.8021 59.4414  73.4301 58.4283  73.4301 58.4283  C 73.4301 58.4283  71.2823 60.4959  71.2823 60.4959  Z " stroke-width="2" stroke="#666666" fill="none" transform="matrix(1 0 0 1 438 413 )" mask="url(#clip31)" />
    <path d="M 56.3889 27.8037  C 56.3889 27.8037  56.8866 30.5429  56.8866 30.5429  C 56.8866 30.5429  54.7037 28.5917  54.7037 28.5917  C 54.7037 28.5917  56.3889 27.8037  56.3889 27.8037  Z " stroke-width="2" stroke="#666666" fill="none" transform="matrix(1 0 0 1 438 413 )" mask="url(#clip31)" />
    <path d="M 70.0993 42.892  C 70.0993 42.892  69.9647 40.94  69.9647 40.94  C 69.9647 40.94  71.4332 40.9564  71.4332 40.9564  C 71.4332 40.9564  70.0993 42.892  70.0993 42.892  Z " stroke-width="2" stroke="#666666" fill="none" transform="matrix(1 0 0 1 438 413 )" mask="url(#clip31)" />
    <path d="M 53.3027 49.4052  C 53.3027 49.4052  53.0743 50.4284  53.0743 50.4284  C 53.0743 50.4284  51.5414 50.1019  51.5414 50.1019  C 51.5414 50.1019  51.354 49.1331  51.354 49.1331  C 51.354 49.1331  50.335 46.7943  50.335 46.7943  C 50.335 46.7943  50.9206 46.0488  50.9206 46.0488  C 50.9206 46.0488  53.127 46.2992  53.127 46.2992  C 53.127 46.2992  53.6657 45.6788  53.6657 45.6788  C 53.6657 45.6788  54.2162 46.6474  54.2162 46.6474  C 54.2162 46.6474  54.105 48.7576  54.105 48.7576  C 54.105 48.7576  53.3027 49.4052  53.3027 49.4052  Z " stroke-width="2" stroke="#666666" fill="none" transform="matrix(1 0 0 1 438 413 )" mask="url(#clip31)" />
    <path d="M 74.7828 58.5025  C 74.7828 58.5025  72.6526 58.1595  72.6526 58.1595  C 72.6526 58.1595  73.3026 56.2064  73.3026 56.2064  C 73.3026 56.2064  75.5032 55.504  75.5032 55.504  C 75.5032 55.504  75.878 57.5169  75.878 57.5169  C 75.878 57.5169  75.0581 56.4189  75.0581 56.4189  C 75.0581 56.4189  74.7828 58.5025  74.7828 58.5025  Z " stroke-width="2" stroke="#666666" fill="none" transform="matrix(1 0 0 1 438 413 )" mask="url(#clip31)" />
    <path d="M 64.2198 43.213  C 64.2198 43.213  63.8626 42.7832  63.8626 42.7832  C 63.8626 42.7832  64.132 40.6027  64.132 40.6027  C 64.132 40.6027  66.028 41.0706  66.028 41.0706  C 66.028 41.0706  66.2623 42.8594  66.2623 42.8594  C 66.2623 42.8594  64.2198 43.213  64.2198 43.213  Z " stroke-width="2" stroke="#666666" fill="none" transform="matrix(1 0 0 1 438 413 )" mask="url(#clip31)" />
    <path d="M 4.75110000000001 62.9689  C 4.75110000000001 62.9689  4.5521 63.6989  4.5521 63.6989  C 4.5521 63.6989  4.17140000000001 62.9362  4.17140000000001 62.9362  C 4.17140000000001 62.9362  4.07769999999999 58.9349  4.07769999999999 58.9349  C 4.07769999999999 58.9349  4.66329999999999 58.4392  4.66329999999999 58.4392  C 4.66329999999999 58.4392  5.16109999999998 59.3106  5.16109999999998 59.3106  C 5.16109999999998 59.3106  6.42009999999999 58.1288  6.42009999999999 58.1288  C 6.42009999999999 58.1288  8.42739999999998 59.5939  8.42739999999998 59.5939  C 8.42739999999998 59.5939  9.2414 58.559  9.2414 58.559  C 9.2414 58.559  10.3306 58.6626  10.3306 58.6626  C 10.3306 58.6626  10.1842 59.692  10.1842 59.692  C 10.1842 59.692  8.9427 61.9993  8.9427 61.9993  C 8.9427 61.9993  8.33370000000002 62.1028  8.33370000000002 62.1028  C 8.33370000000002 62.1028  8.16390000000001 60.351  8.16390000000001 60.351  C 8.16390000000001 60.351  5.82279999999997 61.6452  5.82279999999997 61.6452  C 5.82279999999997 61.6452  4.75110000000001 62.9689  4.75110000000001 62.9689  Z " stroke-width="2" stroke="#666666" fill="none" transform="matrix(1 0 0 1 438 413 )" mask="url(#clip31)" />
    <path d="M 51.417 53.8633  C 51.417 53.8633  48.8475 54.484  48.8475 54.484  C 48.8475 54.484  49.0115 53.4224  49.0115 53.4224  C 49.0115 53.4224  48.4084 53.1501  48.4084 53.1501  C 48.4084 53.1501  48.4669 50.517  48.4669 50.517  C 48.4669 50.517  49.2224 50.1252  49.2224 50.1252  C 49.2224 50.1252  51.3877 50.5716  51.3877 50.5716  C 51.3877 50.5716  52.0437 51.5895  52.0437 51.5895  C 52.0437 51.5895  51.417 53.8633  51.417 53.8633  Z " stroke-width="2" stroke="#666666" fill="none" transform="matrix(1 0 0 1 438 413 )" mask="url(#clip31)" />
    <path d="M 60.0562 34.0387  C 60.0562 34.0387  61.6183 33.5656  61.6183 33.5656  C 61.6183 33.5656  62.1747 34.0822  62.1747 34.0822  C 62.1747 34.0822  61.8936 35.6041  61.8936 35.6041  C 61.8936 35.6041  60.0562 34.0387  60.0562 34.0387  Z " stroke-width="2" stroke="#666666" fill="none" transform="matrix(1 0 0 1 438 413 )" mask="url(#clip31)" />
    <path d="M 58.7606 33.2065  C 58.7606 33.2065  57.8939 34.5385  57.8939 34.5385  C 57.8939 34.5385  56.32 34.2666  56.32 34.2666  C 56.32 34.2666  55.992 33.0706  55.992 33.0706  C 55.992 33.0706  56.4488 32.6411  56.4488 32.6411  C 56.4488 32.6411  56.115 29.9343  56.115 29.9343  C 56.115 29.9343  57.9173 29.6298  57.9173 29.6298  C 57.9173 29.6298  58.7606 33.2065  58.7606 33.2065  Z " stroke-width="2" stroke="#666666" fill="none" transform="matrix(1 0 0 1 438 413 )" mask="url(#clip31)" />
    <path d="M 86.5068 47.4189  C 86.5068 47.4189  84.5288 47.9358  84.5288 47.9358  C 84.5288 47.9358  83.8378 47.7236  83.8378 47.7236  C 83.8378 47.7236  83.6738 45.2434  83.6738 45.2434  C 83.6738 45.2434  83.9198 44.4381  83.9198 44.4381  C 83.9198 44.4381  87.6663 44.4218  87.6663 44.4218  C 87.6663 44.4218  88.1231 44.7592  88.1231 44.7592  C 88.1231 44.7592  87.8478 47.5875  87.8478 47.5875  C 87.8478 47.5875  86.5068 47.4189  86.5068 47.4189  Z " stroke-width="2" stroke="#666666" fill="none" transform="matrix(1 0 0 1 438 413 )" mask="url(#clip31)" />
    <path d="M 7.7774 52.5568  C 7.7774 52.5568  6.24450000000002 50.2939  6.24450000000002 50.2939  C 6.24450000000002 50.2939  7.75389999999999 50.1633  7.75389999999999 50.1633  C 7.75389999999999 50.1633  7.7774 52.5568  7.7774 52.5568  Z " stroke-width="2" stroke="#666666" fill="none" transform="matrix(1 0 0 1 438 413 )" mask="url(#clip31)" />
    <path d="M 83.8539 48.2733  C 83.8539 48.2733  82.7823 49.0896  82.7823 49.0896  C 82.7823 49.0896  81.0679 48.5453  81.0679 48.5453  C 81.0679 48.5453  79.4691 48.5943  79.4691 48.5943  C 79.4691 48.5943  79.5101 48.0555  79.5101 48.0555  C 79.5101 48.0555  81.3489 46.4787  81.3489 46.4787  C 81.3489 46.4787  82.6769 45.4992  82.6769 45.4992  C 82.6769 45.4992  83.2683 46.027  83.2683 46.027  C 83.2683 46.027  84.1877 45.5754  84.1877 45.5754  C 84.1877 45.5754  84.3107 46.272  84.3107 46.272  C 84.3107 46.272  83.8539 48.2733  83.8539 48.2733  Z " stroke-width="2" stroke="#666666" fill="none" transform="matrix(1 0 0 1 438 413 )" mask="url(#clip31)" />
    <path d="M 3.35739999999998 55.6819  C 3.35739999999998 55.6819  4.15379999999999 53.7834  4.15379999999999 53.7834  C 4.15379999999999 53.7834  3.9957 53.1465  3.9957 53.1465  C 3.9957 53.1465  5.66329999999999 51.9705  5.66329999999999 51.9705  C 5.66329999999999 51.9705  6.1026 51.878  6.1026 51.878  C 6.1026 51.878  6.73489999999998 52.9885  6.73489999999998 52.9885  C 6.73489999999998 52.9885  6.54169999999999 53.7453  6.54169999999999 53.7453  C 6.54169999999999 53.7453  4.39980000000003 55.4313  4.39980000000003 55.4313  C 4.39980000000003 55.4313  3.17000000000002 57.1356  3.17000000000002 57.1356  C 3.17000000000002 57.1356  3.35739999999998 55.6819  3.35739999999998 55.6819  Z " stroke-width="2" stroke="#666666" fill="none" transform="matrix(1 0 0 1 438 413 )" mask="url(#clip31)" />
    <path d="M 44.8186 43.1477  C 44.8186 43.1477  44.4438 41.5547  44.4438 41.5547  C 44.4438 41.5547  45.9064 40.9237  45.9064 40.9237  C 45.9064 40.9237  46.2461 43.5611  46.2461 43.5611  C 46.2461 43.5611  44.5375 44.1705  44.5375 44.1705  C 44.5375 44.1705  44.8186 43.1477  44.8186 43.1477  Z " stroke-width="2" stroke="#666666" fill="none" transform="matrix(1 0 0 1 438 413 )" mask="url(#clip31)" />
    <path d="M 48.8169 52.1594  C 48.8169 52.1594  45.8083 52.7854  45.8083 52.7854  C 45.8083 52.7854  45.6736 51.7185  45.6736 51.7185  C 45.6736 51.7185  46.5461 49.325  46.5461 49.325  C 46.5461 49.325  48.6061 49.9129  48.6061 49.9129  C 48.6061 49.9129  48.8169 52.1594  48.8169 52.1594  Z " stroke-width="2" stroke="#666666" fill="none" transform="matrix(1 0 0 1 438 413 )" mask="url(#clip31)" />
    <path d="M 63.381 32.9513  C 63.381 32.9513  63.5099 34.919  63.5099 34.919  C 63.5099 34.919  61.3386 35.2181  61.3386 35.2181  C 61.3386 35.2181  61.6256 33.0438  61.6256 33.0438  C 61.6256 33.0438  63.381 32.9513  63.381 32.9513  Z " stroke-width="2" stroke="#666666" fill="none" transform="matrix(1 0 0 1 438 413 )" mask="url(#clip31)" />
    <path d="M 47.7056 32.8259  C 47.7056 32.8259  47.6822 30.929  47.6822 30.929  C 47.6822 30.929  49.7831 31.0975  49.7831 31.0975  C 49.7831 31.0975  47.7056 32.8259  47.7056 32.8259  Z " stroke-width="2" stroke="#666666" fill="none" transform="matrix(1 0 0 1 438 413 )" mask="url(#clip31)" />
    <path d="M 72.3935 43.6646  C 72.3935 43.6646  70.5913 43.806  70.5913 43.806  C 70.5913 43.806  72.0481 41.658  72.0481 41.658  C 72.0481 41.658  72.3935 43.6646  72.3935 43.6646  Z " stroke-width="2" stroke="#666666" fill="none" transform="matrix(1 0 0 1 438 413 )" mask="url(#clip31)" />
    <path d="M 47.161 36.8874  C 47.161 36.8874  47.3016 35.1914  47.3016 35.1914  C 47.3016 35.1914  48.9399 37.2028  48.9399 37.2028  C 48.9399 37.2028  47.161 36.8874  47.161 36.8874  Z " stroke-width="2" stroke="#666666" fill="none" transform="matrix(1 0 0 1 438 413 )" mask="url(#clip31)" />
    <path d="M 81.9332 50.0692  C 81.9332 50.0692  79.6975 50.4502  79.6975 50.4502  C 79.6975 50.4502  81.6403 48.5739  81.6403 48.5739  C 81.6403 48.5739  81.9332 50.0692  81.9332 50.0692  Z " stroke-width="2" stroke="#666666" fill="none" transform="matrix(1 0 0 1 438 413 )" mask="url(#clip31)" />
    <path d="M 37.6331 26.0702  C 37.6331 26.0702  37.6858 23.9455  37.6858 23.9455  C 37.6858 23.9455  39.7458 24.2607  39.7458 24.2607  C 39.7458 24.2607  39.4238 26.0702  39.4238 26.0702  C 39.4238 26.0702  37.6331 26.0702  37.6331 26.0702  Z " stroke-width="2" stroke="#666666" fill="none" transform="matrix(1 0 0 1 438 413 )" mask="url(#clip31)" />
  </g>
</svg>