<?xml version="1.0" encoding="utf-8"?>
<svg version="1.1" xmlns:xlink="http://www.w3.org/1999/xlink" width="72px" height="64px" xmlns="http://www.w3.org/2000/svg">
  <defs>
    <mask fill="white" id="clip32">
      <path d="M 24.0431 56.0003  C 24.0431 56.0003  24.0665 56.8802  24.0665 56.8802  C 24.0665 56.8802  21.6011 58.0353  21.6011 58.0353  C 21.6011 58.0353  20.7987000000001 57.4145  20.7987000000001 57.4145  C 20.7987000000001 57.4145  18.4329 57.0474  18.4329 57.0474  C 18.4329 57.0474  16.5297 58.3809  16.5297 58.3809  C 16.5297 58.3809  15.8855 58.1649  15.8855 58.1649  C 15.8855 58.1649  15.9675 58.9207  15.9675 58.9207  C 15.9675 58.9207  15.2531 59.493  15.2531 59.493  C 15.2531 59.493  14.4624 61.21  14.4624 61.21  C 14.4624 61.21  12.8286000000001 62.1712  12.8286000000001 62.1712  C 12.8286000000001 62.1712  12.0966 63.1325  12.0966 63.1325  C 12.0966 63.1325  10.9195 63.613  10.9195 63.613  C 10.9195 63.613  10.1231 62.8949  10.1231 62.8949  C 10.1231 62.8949  10.4979 62.533  10.4979 62.533  C 10.4979 62.533  9.98839999999996 61.8094  9.98839999999996 61.8094  C 9.98839999999996 61.8094  8.33699999999999 61.7014  8.33699999999999 61.7014  C 8.33699999999999 61.7014  7.87429999999995 58.856  7.87429999999995 58.856  C 7.87429999999995 58.856  6.87300000000005 57.841  6.87300000000005 57.841  C 6.87300000000005 57.841  5.74860000000001 57.204  5.74860000000001 57.204  C 5.74860000000001 57.204  4.9873 57.8842  4.9873 57.8842  C 4.9873 57.8842  4.10889999999995 57.5657  4.10889999999995 57.5657  C 4.10889999999995 57.5657  4.14400000000001 56.4105  4.14400000000001 56.4105  C 4.14400000000001 56.4105  1.83079999999995 55.1421  1.83079999999995 55.1421  C 1.83079999999995 55.1421  0.530799999999999 53.3611  0.530799999999999 53.3611  C 0.530799999999999 53.3611  1.32140000000004 52.1307  1.32140000000004 52.1307  C 1.32140000000004 52.1307  1.12819999999999 49.708  1.12819999999999 49.708  C 1.12819999999999 49.708  1.8895 49.8213  1.8895 49.8213  C 1.8895 49.8213  1.15740000000005 48.1543  1.15740000000005 48.1543  C 1.15740000000005 48.1543  2.05340000000001 47.6257  2.05340000000001 47.6257  C 2.05340000000001 47.6257  2.41650000000004 46.7842  2.41650000000004 46.7842  C 2.41650000000004 46.7842  1.81330000000003 46.7519  1.81330000000003 46.7519  C 1.81330000000003 46.7519  1.69029999999998 45.576  1.69029999999998 45.576  C 1.69029999999998 45.576  2.22910000000002 44.4488  2.22910000000002 44.4488  C 2.22910000000002 44.4488  3.19539999999995 44.643  3.19539999999995 44.643  C 3.19539999999995 44.643  4.31970000000001 43.2355  4.31970000000001 43.2355  C 4.31970000000001 43.2355  4.67100000000005 40.8197  4.67100000000005 40.8197  C 4.67100000000005 40.8197  5.19219999999996 39.8709  5.19219999999996 39.8709  C 5.19219999999996 39.8709  4.95219999999995 39.2077  4.95219999999995 39.2077  C 4.95219999999995 39.2077  5.74270000000001 38.4638  5.74270000000001 38.4638  C 5.74270000000001 38.4638  5.45579999999995 37.5043  5.45579999999995 37.5043  C 5.45579999999995 37.5043  6.5684 36.8143  6.5684 36.8143  C 6.5684 36.8143  6.97249999999997 37.1485  6.97249999999997 37.1485  C 6.97249999999997 37.1485  7.12480000000005 35.4238  7.12480000000005 35.4238  C 7.12480000000005 35.4238  6.24639999999999 34.4645  6.24639999999999 34.4645  C 6.24639999999999 34.4645  6.26390000000004 33.8124  6.26390000000004 33.8124  C 6.26390000000004 33.8124  7.03689999999995 33.3975  7.03689999999995 33.3975  C 7.03689999999995 33.3975  8.5009 33.4568  8.5009 33.4568  C 8.5009 33.4568  8.96360000000004 31.282  8.96360000000004 31.282  C 8.96360000000004 31.282  8.57119999999998 30.1829  8.57119999999998 30.1829  C 8.57119999999998 30.1829  8.66489999999999 27.2846  8.66489999999999 27.2846  C 8.66489999999999 27.2846  8.21990000000005 25.9595  8.21990000000005 25.9595  C 8.21990000000005 25.9595  8.255 25.0816  8.255 25.0816  C 8.255 25.0816  7.19500000000005 23.4283  7.19500000000005 23.4283  C 7.19500000000005 23.4283  6.51570000000004 23.6975  6.51570000000004 23.6975  C 6.51570000000004 23.6975  6.05899999999997 21.6083  6.05899999999997 21.6083  C 6.05899999999997 21.6083  6.26969999999994 20.9029  6.26969999999994 20.9029  C 6.26969999999994 20.9029  7.24189999999999 21.4683  7.24189999999999 21.4683  C 7.24189999999999 21.4683  8.64729999999997 20.8598  8.64729999999997 20.8598  C 8.64729999999997 20.8598  8.99879999999996 18.5502  8.99879999999996 18.5502  C 8.99879999999996 18.5502  10.6559999999999 15.6598  10.6559999999999 15.6598  C 10.6559999999999 15.6598  12.4948000000001 15.6867  12.4948000000001 15.6867  C 12.4948000000001 15.6867  13.0863000000001 14.4435  13.0863000000001 14.4435  C 13.0863000000001 14.4435  13.5489 14.6804  13.5489 14.6804  C 13.5489 14.6804  13.6074 17.7913  13.6074 17.7913  C 13.6074 17.7913  14.4332000000001 18.9217  14.4332000000001 18.9217  C 14.4332000000001 18.9217  15.1476 18.4426  15.1476 18.4426  C 15.1476 18.4426  16.1314 16.9139  16.1314 16.9139  C 16.1314 16.9139  17.4373000000001 15.9666  17.4373000000001 15.9666  C 17.4373000000001 15.9666  18.7198 15.6706  18.7198 15.6706  C 18.7198 15.6706  19.4636 16.4564  19.4636 16.4564  C 19.4636 16.4564  19.3757000000001 17.8935  19.3757000000001 17.8935  C 19.3757000000001 17.8935  18.7257 19.2447  18.7257 19.2447  C 18.7257 19.2447  17.9117 20.2299  17.9117 20.2299  C 17.9117 20.2299  17.4315 21.5867  17.4315 21.5867  C 17.4315 21.5867  17.7243 22.0821  17.7243 22.0821  C 17.7243 22.0821  20.992 21.8936  20.992 21.8936  C 20.992 21.8936  21.8412 22.0928  21.8412 22.0928  C 21.8412 22.0928  23.4808 23.4337  23.4808 23.4337  C 23.4808 23.4337  24.1075 24.6615  24.1075 24.6615  C 24.1075 24.6615  24.7868 27.2468  24.7868 27.2468  C 24.7868 27.2468  25.2729000000001 28.1304  25.2729000000001 28.1304  C 25.2729000000001 28.1304  25.3314 27.1283  25.3314 27.1283  C 25.3314 27.1283  25.9756 25.6686  25.9756 25.6686  C 25.9756 25.6686  25.8058 25.1032  25.8058 25.1032  C 25.8058 25.1032  27.3152 23.5521  27.3152 23.5521  C 27.3152 23.5521  28.018 23.2128  28.018 23.2128  C 28.018 23.2128  27.8891 21.4952  27.8891 21.4952  C 27.8891 21.4952  26.1512 21.0267  26.1512 21.0267  C 26.1512 21.0267  26.1864 19.6861  26.1864 19.6861  C 26.1864 19.6861  27.7837 19.6  27.7837 19.6  C 27.7837 19.6  27.9242 20.4884  27.9242 20.4884  C 27.9242 20.4884  29.1072 21.5329  29.1072 21.5329  C 29.1072 21.5329  29.7631 22.5236  29.7631 22.5236  C 29.7631 22.5236  30.9928 22.9221  30.9928 22.9221  C 30.9928 22.9221  32.533 23.2344  32.533 23.2344  C 32.533 23.2344  32.8493 22.7498  32.8493 22.7498  C 32.8493 22.7498  33.9268 22.9975  33.9268 22.9975  C 33.9268 22.9975  34.9515 21.9797  34.9515 21.9797  C 34.9515 21.9797  35.3088 22.9114  35.3088 22.9114  C 35.3088 22.9114  36.5327 22.0228  36.5327 22.0228  C 36.5327 22.0228  36.2165 21.129  36.2165 21.129  C 36.2165 21.129  36.5152000000001 20.1922  36.5152000000001 20.1922  C 36.5152000000001 20.1922  37.3115 19.88  37.3115 19.88  C 37.3115 19.88  37.7039 18.6741  37.7039 18.6741  C 37.7039 18.6741  37.3467000000001 16.4295  37.3467000000001 16.4295  C 37.3467000000001 16.4295  36.7025 13.9376  36.7025 13.9376  C 36.7025 13.9376  36.808 11.3926  36.808 11.3926  C 36.808 11.3926  37.8152 10.3757  37.8152 10.3757  C 37.8152 10.3757  37.7625 9.2944  37.7625 9.2944  C 37.7625 9.2944  36.562 8.14330000000001  36.562 8.14330000000001  C 36.562 8.14330000000001  37.4755 7.09440000000001  37.4755 7.09440000000001  C 37.4755 7.09440000000001  37.3291 5.74979999999999  37.3291 5.74979999999999  C 37.3291 5.74979999999999  39.3085 5.3734  39.3085 5.3734  C 39.3085 5.3734  39.941 6.31989999999999  39.941 6.31989999999999  C 39.941 6.31989999999999  40.5968 8.01949999999999  40.5968 8.01949999999999  C 40.5968 8.01949999999999  41.0244 8.1917  41.0244 8.1917  C 41.0244 8.1917  41.8794 7.15360000000001  41.8794 7.15360000000001  C 41.8794 7.15360000000001  42.8456 7.6216  42.8456 7.6216  C 42.8456 7.6216  43.5542 6.60499999999999  43.5542 6.60499999999999  C 43.5542 6.60499999999999  43.3433 5.60470000000001  43.3433 5.60470000000001  C 43.3433 5.60470000000001  43.6537 4.4699  43.6537 4.4699  C 43.6537 4.4699  44.3858 4.84630000000001  44.3858 4.84630000000001  C 44.3858 4.84630000000001  45.1236 4.26560000000001  45.1236 4.26560000000001  C 45.1236 4.26560000000001  46.0782 4.3355  46.0782 4.3355  C 46.0782 4.3355  46.4118999999999 3.28149999999999  46.4118999999999 3.28149999999999  C 46.4118999999999 3.28149999999999  45.6975 2.7439  45.6975 2.7439  C 45.6975 2.7439  45.6038 1.91050000000001  45.6038 1.91050000000001  C 45.6038 1.91050000000001  46.3416999999999 0.872899999999987  46.3416999999999 0.872899999999987  C 46.3416999999999 0.872899999999987  46.8922 0.991199999999992  46.8922 0.991199999999992  C 46.8922 0.991199999999992  48.7954 2.21690000000001  48.7954 2.21690000000001  C 48.7954 2.21690000000001  48.7719 3.14709999999999  48.7719 3.14709999999999  C 48.7719 3.14709999999999  49.6913 3.8999  49.6913 3.8999  C 49.6913 3.8999  50.9503999999999 3.21700000000001  50.9503999999999 3.21700000000001  C 50.9503999999999 3.21700000000001  51.6649 3.55580000000001  51.6649 3.55580000000001  C 51.6649 3.55580000000001  51.6591 4.3194  51.6591 4.3194  C 51.6591 4.3194  52.4613000000001 5.3142  52.4613000000001 5.3142  C 52.4613000000001 5.3142  52.3149 7.37950000000001  52.3149 7.37950000000001  C 52.3149 7.37950000000001  53.0176 9.45050000000001  53.0176 9.45050000000001  C 53.0176 9.45050000000001  52.9181 12.501  52.9181 12.501  C 52.9181 12.501  51.5536 13.8032  51.5536 13.8032  C 51.5536 13.8032  50.7396 15.5629  50.7396 15.5629  C 50.7396 15.5629  50.4819 17.8935  50.4819 17.8935  C 50.4819 17.8935  51.3252 18.152  51.3252 18.152  C 51.3252 18.152  50.4878 20.3645  50.4878 20.3645  C 50.4878 20.3645  49.586 21.3229  49.586 21.3229  C 49.586 21.3229  49.4688 24.4245  49.4688 24.4245  C 49.4688 24.4245  48.444 25.0978  48.444 25.0978  C 48.444 25.0978  46.4998000000001 29.4017  46.4998000000001 29.4017  C 46.4998000000001 29.4017  44.4678 31.2174  44.4678 31.2174  C 44.4678 31.2174  42.6582 35.6933  42.6582 35.6933  C 42.6582 35.6933  42.9803000000001 38.2697  42.9803000000001 38.2697  C 42.9803000000001 38.2697  43.3492 39.321  43.3492 39.321  C 43.3492 39.321  43.3082000000001 40.5879  43.3082000000001 40.5879  C 43.3082000000001 40.5879  43.9641 42.7878  43.9641 42.7878  C 43.9641 42.7878  45.2465999999999 42.9065  45.2465999999999 42.9065  C 45.2465999999999 42.9065  45.7737 44.1899  45.7737 44.1899  C 45.7737 44.1899  45.1002 46.5145  45.1002 46.5145  C 45.1002 46.5145  44.4911 47.1942  44.4911 47.1942  C 44.4911 47.1942  43.0974 47.3668  43.0974 47.3668  C 43.0974 47.3668  39.7477 45.7594  39.7477 45.7594  C 39.7477 45.7594  38.2251 45.8241  38.2251 45.8241  C 38.2251 45.8241  37.4697 46.2772  37.4697 46.2772  C 37.4697 46.2772  36.4449 47.4746  36.4449 47.4746  C 36.4449 47.4746  34.5006 50.5443  34.5006 50.5443  C 34.5006 50.5443  33.6808 51.5534  33.6808 51.5534  C 33.6808 51.5534  32.6559999999999 52.0875  32.6559999999999 52.0875  C 32.6559999999999 52.0875  28.5157 52.7405  28.5157 52.7405  C 28.5157 52.7405  25.9931 53.2262  25.9931 53.2262  C 25.9931 53.2262  25.1265 53.9818  25.1265 53.9818  C 25.1265 53.9818  24.0431 56.0003  24.0431 56.0003  Z M 70.053 19.7992  C 70.053 19.7992  70.3693 20.1976  70.3693 20.1976  C 70.3693 20.1976  70.3458000000001 20.8113  70.3458000000001 20.8113  C 70.3458000000001 20.8113  71.0837 21.3229  71.0837 21.3229  C 71.0837 21.3229  70.6094000000001 22.0444  70.6094000000001 22.0444  C 70.6094000000001 22.0444  69.7133 21.8505  69.7133 21.8505  C 69.7133 21.8505  69.6489 24.606  69.6489 24.606  C 69.6489 24.606  70.3751 25.71  70.3751 25.71  C 70.3751 25.71  70.1818 26.8733  70.1818 26.8733  C 70.1818 26.8733  68.753 27.9613  68.753 27.9613  C 68.753 27.9613  67.9741 26.9703  67.9741 26.9703  C 67.9741 26.9703  67.0664 27.5628  67.0664 27.5628  C 67.0664 27.5628  66.8029 26.3994  66.8029 26.3994  C 66.8029 26.3994  65.3037 25.9955  65.3037 25.9955  C 65.3037 25.9955  63.1662 26.8356  63.1662 26.8356  C 63.1662 26.8356  60.5441 26.2701  60.5441 26.2701  C 60.5441 26.2701  60.4621 25.4084  60.4621 25.4084  C 60.4621 25.4084  58.2193 25.2631  58.2193 25.2631  C 58.2193 25.2631  56.8606 25.4353  56.8606 25.4353  C 56.8606 25.4353  55.5606 25.2469  55.5606 25.2469  C 55.5606 25.2469  54.0614 24.5898  54.0614 24.5898  C 54.0614 24.5898  54.0321 21.8397  54.0321 21.8397  C 54.0321 21.8397  54.5182 21.199  54.5182 21.199  C 54.5182 21.199  55.3088 21.1021  55.3088 21.1021  C 55.3088 21.1021  56.3043 20.0953  56.3043 20.0953  C 56.3043 20.0953  57.1593 19.7184  57.1593 19.7184  C 57.1593 19.7184  58.3598 20.0738  58.3598 20.0738  C 58.3598 20.0738  59.5309999999999 21.9636  59.5309999999999 21.9636  C 59.5309999999999 21.9636  59.9995 22.1628  59.9995 22.1628  C 59.9995 22.1628  63.1721 19.0025  63.1721 19.0025  C 63.1721 19.0025  64.1852 18.2058  64.1852 18.2058  C 64.1852 18.2058  65.3271999999999 18.4856  65.3271999999999 18.4856  C 65.3271999999999 18.4856  65.7195 19.6108  65.7195 19.6108  C 65.7195 19.6108  66.393 19.8638  66.393 19.8638  C 66.393 19.8638  67.1952 19.3363  67.1952 19.3363  C 67.1952 19.3363  67.6052 18.0874  67.6052 18.0874  C 67.6052 18.0874  69.1512 17.4252  69.1512 17.4252  C 69.1512 17.4252  69.4147 18.5072  69.4147 18.5072  C 69.4147 18.5072  69.0107 19.923  69.0107 19.923  C 69.0107 19.923  70.053 19.7992  70.053 19.7992  Z " fill-rule="evenodd" />
    </mask>
  </defs>
  <g transform="matrix(1 0 0 1 -679 -290 )">
    <path d="M 24.0431 56.0003  C 24.0431 56.0003  24.0665 56.8802  24.0665 56.8802  C 24.0665 56.8802  21.6011 58.0353  21.6011 58.0353  C 21.6011 58.0353  20.7987000000001 57.4145  20.7987000000001 57.4145  C 20.7987000000001 57.4145  18.4329 57.0474  18.4329 57.0474  C 18.4329 57.0474  16.5297 58.3809  16.5297 58.3809  C 16.5297 58.3809  15.8855 58.1649  15.8855 58.1649  C 15.8855 58.1649  15.9675 58.9207  15.9675 58.9207  C 15.9675 58.9207  15.2531 59.493  15.2531 59.493  C 15.2531 59.493  14.4624 61.21  14.4624 61.21  C 14.4624 61.21  12.8286000000001 62.1712  12.8286000000001 62.1712  C 12.8286000000001 62.1712  12.0966 63.1325  12.0966 63.1325  C 12.0966 63.1325  10.9195 63.613  10.9195 63.613  C 10.9195 63.613  10.1231 62.8949  10.1231 62.8949  C 10.1231 62.8949  10.4979 62.533  10.4979 62.533  C 10.4979 62.533  9.98839999999996 61.8094  9.98839999999996 61.8094  C 9.98839999999996 61.8094  8.33699999999999 61.7014  8.33699999999999 61.7014  C 8.33699999999999 61.7014  7.87429999999995 58.856  7.87429999999995 58.856  C 7.87429999999995 58.856  6.87300000000005 57.841  6.87300000000005 57.841  C 6.87300000000005 57.841  5.74860000000001 57.204  5.74860000000001 57.204  C 5.74860000000001 57.204  4.9873 57.8842  4.9873 57.8842  C 4.9873 57.8842  4.10889999999995 57.5657  4.10889999999995 57.5657  C 4.10889999999995 57.5657  4.14400000000001 56.4105  4.14400000000001 56.4105  C 4.14400000000001 56.4105  1.83079999999995 55.1421  1.83079999999995 55.1421  C 1.83079999999995 55.1421  0.530799999999999 53.3611  0.530799999999999 53.3611  C 0.530799999999999 53.3611  1.32140000000004 52.1307  1.32140000000004 52.1307  C 1.32140000000004 52.1307  1.12819999999999 49.708  1.12819999999999 49.708  C 1.12819999999999 49.708  1.8895 49.8213  1.8895 49.8213  C 1.8895 49.8213  1.15740000000005 48.1543  1.15740000000005 48.1543  C 1.15740000000005 48.1543  2.05340000000001 47.6257  2.05340000000001 47.6257  C 2.05340000000001 47.6257  2.41650000000004 46.7842  2.41650000000004 46.7842  C 2.41650000000004 46.7842  1.81330000000003 46.7519  1.81330000000003 46.7519  C 1.81330000000003 46.7519  1.69029999999998 45.576  1.69029999999998 45.576  C 1.69029999999998 45.576  2.22910000000002 44.4488  2.22910000000002 44.4488  C 2.22910000000002 44.4488  3.19539999999995 44.643  3.19539999999995 44.643  C 3.19539999999995 44.643  4.31970000000001 43.2355  4.31970000000001 43.2355  C 4.31970000000001 43.2355  4.67100000000005 40.8197  4.67100000000005 40.8197  C 4.67100000000005 40.8197  5.19219999999996 39.8709  5.19219999999996 39.8709  C 5.19219999999996 39.8709  4.95219999999995 39.2077  4.95219999999995 39.2077  C 4.95219999999995 39.2077  5.74270000000001 38.4638  5.74270000000001 38.4638  C 5.74270000000001 38.4638  5.45579999999995 37.5043  5.45579999999995 37.5043  C 5.45579999999995 37.5043  6.5684 36.8143  6.5684 36.8143  C 6.5684 36.8143  6.97249999999997 37.1485  6.97249999999997 37.1485  C 6.97249999999997 37.1485  7.12480000000005 35.4238  7.12480000000005 35.4238  C 7.12480000000005 35.4238  6.24639999999999 34.4645  6.24639999999999 34.4645  C 6.24639999999999 34.4645  6.26390000000004 33.8124  6.26390000000004 33.8124  C 6.26390000000004 33.8124  7.03689999999995 33.3975  7.03689999999995 33.3975  C 7.03689999999995 33.3975  8.5009 33.4568  8.5009 33.4568  C 8.5009 33.4568  8.96360000000004 31.282  8.96360000000004 31.282  C 8.96360000000004 31.282  8.57119999999998 30.1829  8.57119999999998 30.1829  C 8.57119999999998 30.1829  8.66489999999999 27.2846  8.66489999999999 27.2846  C 8.66489999999999 27.2846  8.21990000000005 25.9595  8.21990000000005 25.9595  C 8.21990000000005 25.9595  8.255 25.0816  8.255 25.0816  C 8.255 25.0816  7.19500000000005 23.4283  7.19500000000005 23.4283  C 7.19500000000005 23.4283  6.51570000000004 23.6975  6.51570000000004 23.6975  C 6.51570000000004 23.6975  6.05899999999997 21.6083  6.05899999999997 21.6083  C 6.05899999999997 21.6083  6.26969999999994 20.9029  6.26969999999994 20.9029  C 6.26969999999994 20.9029  7.24189999999999 21.4683  7.24189999999999 21.4683  C 7.24189999999999 21.4683  8.64729999999997 20.8598  8.64729999999997 20.8598  C 8.64729999999997 20.8598  8.99879999999996 18.5502  8.99879999999996 18.5502  C 8.99879999999996 18.5502  10.6559999999999 15.6598  10.6559999999999 15.6598  C 10.6559999999999 15.6598  12.4948000000001 15.6867  12.4948000000001 15.6867  C 12.4948000000001 15.6867  13.0863000000001 14.4435  13.0863000000001 14.4435  C 13.0863000000001 14.4435  13.5489 14.6804  13.5489 14.6804  C 13.5489 14.6804  13.6074 17.7913  13.6074 17.7913  C 13.6074 17.7913  14.4332000000001 18.9217  14.4332000000001 18.9217  C 14.4332000000001 18.9217  15.1476 18.4426  15.1476 18.4426  C 15.1476 18.4426  16.1314 16.9139  16.1314 16.9139  C 16.1314 16.9139  17.4373000000001 15.9666  17.4373000000001 15.9666  C 17.4373000000001 15.9666  18.7198 15.6706  18.7198 15.6706  C 18.7198 15.6706  19.4636 16.4564  19.4636 16.4564  C 19.4636 16.4564  19.3757000000001 17.8935  19.3757000000001 17.8935  C 19.3757000000001 17.8935  18.7257 19.2447  18.7257 19.2447  C 18.7257 19.2447  17.9117 20.2299  17.9117 20.2299  C 17.9117 20.2299  17.4315 21.5867  17.4315 21.5867  C 17.4315 21.5867  17.7243 22.0821  17.7243 22.0821  C 17.7243 22.0821  20.992 21.8936  20.992 21.8936  C 20.992 21.8936  21.8412 22.0928  21.8412 22.0928  C 21.8412 22.0928  23.4808 23.4337  23.4808 23.4337  C 23.4808 23.4337  24.1075 24.6615  24.1075 24.6615  C 24.1075 24.6615  24.7868 27.2468  24.7868 27.2468  C 24.7868 27.2468  25.2729000000001 28.1304  25.2729000000001 28.1304  C 25.2729000000001 28.1304  25.3314 27.1283  25.3314 27.1283  C 25.3314 27.1283  25.9756 25.6686  25.9756 25.6686  C 25.9756 25.6686  25.8058 25.1032  25.8058 25.1032  C 25.8058 25.1032  27.3152 23.5521  27.3152 23.5521  C 27.3152 23.5521  28.018 23.2128  28.018 23.2128  C 28.018 23.2128  27.8891 21.4952  27.8891 21.4952  C 27.8891 21.4952  26.1512 21.0267  26.1512 21.0267  C 26.1512 21.0267  26.1864 19.6861  26.1864 19.6861  C 26.1864 19.6861  27.7837 19.6  27.7837 19.6  C 27.7837 19.6  27.9242 20.4884  27.9242 20.4884  C 27.9242 20.4884  29.1072 21.5329  29.1072 21.5329  C 29.1072 21.5329  29.7631 22.5236  29.7631 22.5236  C 29.7631 22.5236  30.9928 22.9221  30.9928 22.9221  C 30.9928 22.9221  32.533 23.2344  32.533 23.2344  C 32.533 23.2344  32.8493 22.7498  32.8493 22.7498  C 32.8493 22.7498  33.9268 22.9975  33.9268 22.9975  C 33.9268 22.9975  34.9515 21.9797  34.9515 21.9797  C 34.9515 21.9797  35.3088 22.9114  35.3088 22.9114  C 35.3088 22.9114  36.5327 22.0228  36.5327 22.0228  C 36.5327 22.0228  36.2165 21.129  36.2165 21.129  C 36.2165 21.129  36.5152000000001 20.1922  36.5152000000001 20.1922  C 36.5152000000001 20.1922  37.3115 19.88  37.3115 19.88  C 37.3115 19.88  37.7039 18.6741  37.7039 18.6741  C 37.7039 18.6741  37.3467000000001 16.4295  37.3467000000001 16.4295  C 37.3467000000001 16.4295  36.7025 13.9376  36.7025 13.9376  C 36.7025 13.9376  36.808 11.3926  36.808 11.3926  C 36.808 11.3926  37.8152 10.3757  37.8152 10.3757  C 37.8152 10.3757  37.7625 9.2944  37.7625 9.2944  C 37.7625 9.2944  36.562 8.14330000000001  36.562 8.14330000000001  C 36.562 8.14330000000001  37.4755 7.09440000000001  37.4755 7.09440000000001  C 37.4755 7.09440000000001  37.3291 5.74979999999999  37.3291 5.74979999999999  C 37.3291 5.74979999999999  39.3085 5.3734  39.3085 5.3734  C 39.3085 5.3734  39.941 6.31989999999999  39.941 6.31989999999999  C 39.941 6.31989999999999  40.5968 8.01949999999999  40.5968 8.01949999999999  C 40.5968 8.01949999999999  41.0244 8.1917  41.0244 8.1917  C 41.0244 8.1917  41.8794 7.15360000000001  41.8794 7.15360000000001  C 41.8794 7.15360000000001  42.8456 7.6216  42.8456 7.6216  C 42.8456 7.6216  43.5542 6.60499999999999  43.5542 6.60499999999999  C 43.5542 6.60499999999999  43.3433 5.60470000000001  43.3433 5.60470000000001  C 43.3433 5.60470000000001  43.6537 4.4699  43.6537 4.4699  C 43.6537 4.4699  44.3858 4.84630000000001  44.3858 4.84630000000001  C 44.3858 4.84630000000001  45.1236 4.26560000000001  45.1236 4.26560000000001  C 45.1236 4.26560000000001  46.0782 4.3355  46.0782 4.3355  C 46.0782 4.3355  46.4118999999999 3.28149999999999  46.4118999999999 3.28149999999999  C 46.4118999999999 3.28149999999999  45.6975 2.7439  45.6975 2.7439  C 45.6975 2.7439  45.6038 1.91050000000001  45.6038 1.91050000000001  C 45.6038 1.91050000000001  46.3416999999999 0.872899999999987  46.3416999999999 0.872899999999987  C 46.3416999999999 0.872899999999987  46.8922 0.991199999999992  46.8922 0.991199999999992  C 46.8922 0.991199999999992  48.7954 2.21690000000001  48.7954 2.21690000000001  C 48.7954 2.21690000000001  48.7719 3.14709999999999  48.7719 3.14709999999999  C 48.7719 3.14709999999999  49.6913 3.8999  49.6913 3.8999  C 49.6913 3.8999  50.9503999999999 3.21700000000001  50.9503999999999 3.21700000000001  C 50.9503999999999 3.21700000000001  51.6649 3.55580000000001  51.6649 3.55580000000001  C 51.6649 3.55580000000001  51.6591 4.3194  51.6591 4.3194  C 51.6591 4.3194  52.4613000000001 5.3142  52.4613000000001 5.3142  C 52.4613000000001 5.3142  52.3149 7.37950000000001  52.3149 7.37950000000001  C 52.3149 7.37950000000001  53.0176 9.45050000000001  53.0176 9.45050000000001  C 53.0176 9.45050000000001  52.9181 12.501  52.9181 12.501  C 52.9181 12.501  51.5536 13.8032  51.5536 13.8032  C 51.5536 13.8032  50.7396 15.5629  50.7396 15.5629  C 50.7396 15.5629  50.4819 17.8935  50.4819 17.8935  C 50.4819 17.8935  51.3252 18.152  51.3252 18.152  C 51.3252 18.152  50.4878 20.3645  50.4878 20.3645  C 50.4878 20.3645  49.586 21.3229  49.586 21.3229  C 49.586 21.3229  49.4688 24.4245  49.4688 24.4245  C 49.4688 24.4245  48.444 25.0978  48.444 25.0978  C 48.444 25.0978  46.4998000000001 29.4017  46.4998000000001 29.4017  C 46.4998000000001 29.4017  44.4678 31.2174  44.4678 31.2174  C 44.4678 31.2174  42.6582 35.6933  42.6582 35.6933  C 42.6582 35.6933  42.9803000000001 38.2697  42.9803000000001 38.2697  C 42.9803000000001 38.2697  43.3492 39.321  43.3492 39.321  C 43.3492 39.321  43.3082000000001 40.5879  43.3082000000001 40.5879  C 43.3082000000001 40.5879  43.9641 42.7878  43.9641 42.7878  C 43.9641 42.7878  45.2465999999999 42.9065  45.2465999999999 42.9065  C 45.2465999999999 42.9065  45.7737 44.1899  45.7737 44.1899  C 45.7737 44.1899  45.1002 46.5145  45.1002 46.5145  C 45.1002 46.5145  44.4911 47.1942  44.4911 47.1942  C 44.4911 47.1942  43.0974 47.3668  43.0974 47.3668  C 43.0974 47.3668  39.7477 45.7594  39.7477 45.7594  C 39.7477 45.7594  38.2251 45.8241  38.2251 45.8241  C 38.2251 45.8241  37.4697 46.2772  37.4697 46.2772  C 37.4697 46.2772  36.4449 47.4746  36.4449 47.4746  C 36.4449 47.4746  34.5006 50.5443  34.5006 50.5443  C 34.5006 50.5443  33.6808 51.5534  33.6808 51.5534  C 33.6808 51.5534  32.6559999999999 52.0875  32.6559999999999 52.0875  C 32.6559999999999 52.0875  28.5157 52.7405  28.5157 52.7405  C 28.5157 52.7405  25.9931 53.2262  25.9931 53.2262  C 25.9931 53.2262  25.1265 53.9818  25.1265 53.9818  C 25.1265 53.9818  24.0431 56.0003  24.0431 56.0003  Z M 70.053 19.7992  C 70.053 19.7992  70.3693 20.1976  70.3693 20.1976  C 70.3693 20.1976  70.3458000000001 20.8113  70.3458000000001 20.8113  C 70.3458000000001 20.8113  71.0837 21.3229  71.0837 21.3229  C 71.0837 21.3229  70.6094000000001 22.0444  70.6094000000001 22.0444  C 70.6094000000001 22.0444  69.7133 21.8505  69.7133 21.8505  C 69.7133 21.8505  69.6489 24.606  69.6489 24.606  C 69.6489 24.606  70.3751 25.71  70.3751 25.71  C 70.3751 25.71  70.1818 26.8733  70.1818 26.8733  C 70.1818 26.8733  68.753 27.9613  68.753 27.9613  C 68.753 27.9613  67.9741 26.9703  67.9741 26.9703  C 67.9741 26.9703  67.0664 27.5628  67.0664 27.5628  C 67.0664 27.5628  66.8029 26.3994  66.8029 26.3994  C 66.8029 26.3994  65.3037 25.9955  65.3037 25.9955  C 65.3037 25.9955  63.1662 26.8356  63.1662 26.8356  C 63.1662 26.8356  60.5441 26.2701  60.5441 26.2701  C 60.5441 26.2701  60.4621 25.4084  60.4621 25.4084  C 60.4621 25.4084  58.2193 25.2631  58.2193 25.2631  C 58.2193 25.2631  56.8606 25.4353  56.8606 25.4353  C 56.8606 25.4353  55.5606 25.2469  55.5606 25.2469  C 55.5606 25.2469  54.0614 24.5898  54.0614 24.5898  C 54.0614 24.5898  54.0321 21.8397  54.0321 21.8397  C 54.0321 21.8397  54.5182 21.199  54.5182 21.199  C 54.5182 21.199  55.3088 21.1021  55.3088 21.1021  C 55.3088 21.1021  56.3043 20.0953  56.3043 20.0953  C 56.3043 20.0953  57.1593 19.7184  57.1593 19.7184  C 57.1593 19.7184  58.3598 20.0738  58.3598 20.0738  C 58.3598 20.0738  59.5309999999999 21.9636  59.5309999999999 21.9636  C 59.5309999999999 21.9636  59.9995 22.1628  59.9995 22.1628  C 59.9995 22.1628  63.1721 19.0025  63.1721 19.0025  C 63.1721 19.0025  64.1852 18.2058  64.1852 18.2058  C 64.1852 18.2058  65.3271999999999 18.4856  65.3271999999999 18.4856  C 65.3271999999999 18.4856  65.7195 19.6108  65.7195 19.6108  C 65.7195 19.6108  66.393 19.8638  66.393 19.8638  C 66.393 19.8638  67.1952 19.3363  67.1952 19.3363  C 67.1952 19.3363  67.6052 18.0874  67.6052 18.0874  C 67.6052 18.0874  69.1512 17.4252  69.1512 17.4252  C 69.1512 17.4252  69.4147 18.5072  69.4147 18.5072  C 69.4147 18.5072  69.0107 19.923  69.0107 19.923  C 69.0107 19.923  70.053 19.7992  70.053 19.7992  Z " fill-rule="nonzero" fill="#ffffff" stroke="none" transform="matrix(1 0 0 1 679 290 )" />
    <path d="M 24.0431 56.0003  C 24.0431 56.0003  24.0665 56.8802  24.0665 56.8802  C 24.0665 56.8802  21.6011 58.0353  21.6011 58.0353  C 21.6011 58.0353  20.7987000000001 57.4145  20.7987000000001 57.4145  C 20.7987000000001 57.4145  18.4329 57.0474  18.4329 57.0474  C 18.4329 57.0474  16.5297 58.3809  16.5297 58.3809  C 16.5297 58.3809  15.8855 58.1649  15.8855 58.1649  C 15.8855 58.1649  15.9675 58.9207  15.9675 58.9207  C 15.9675 58.9207  15.2531 59.493  15.2531 59.493  C 15.2531 59.493  14.4624 61.21  14.4624 61.21  C 14.4624 61.21  12.8286000000001 62.1712  12.8286000000001 62.1712  C 12.8286000000001 62.1712  12.0966 63.1325  12.0966 63.1325  C 12.0966 63.1325  10.9195 63.613  10.9195 63.613  C 10.9195 63.613  10.1231 62.8949  10.1231 62.8949  C 10.1231 62.8949  10.4979 62.533  10.4979 62.533  C 10.4979 62.533  9.98839999999996 61.8094  9.98839999999996 61.8094  C 9.98839999999996 61.8094  8.33699999999999 61.7014  8.33699999999999 61.7014  C 8.33699999999999 61.7014  7.87429999999995 58.856  7.87429999999995 58.856  C 7.87429999999995 58.856  6.87300000000005 57.841  6.87300000000005 57.841  C 6.87300000000005 57.841  5.74860000000001 57.204  5.74860000000001 57.204  C 5.74860000000001 57.204  4.9873 57.8842  4.9873 57.8842  C 4.9873 57.8842  4.10889999999995 57.5657  4.10889999999995 57.5657  C 4.10889999999995 57.5657  4.14400000000001 56.4105  4.14400000000001 56.4105  C 4.14400000000001 56.4105  1.83079999999995 55.1421  1.83079999999995 55.1421  C 1.83079999999995 55.1421  0.530799999999999 53.3611  0.530799999999999 53.3611  C 0.530799999999999 53.3611  1.32140000000004 52.1307  1.32140000000004 52.1307  C 1.32140000000004 52.1307  1.12819999999999 49.708  1.12819999999999 49.708  C 1.12819999999999 49.708  1.8895 49.8213  1.8895 49.8213  C 1.8895 49.8213  1.15740000000005 48.1543  1.15740000000005 48.1543  C 1.15740000000005 48.1543  2.05340000000001 47.6257  2.05340000000001 47.6257  C 2.05340000000001 47.6257  2.41650000000004 46.7842  2.41650000000004 46.7842  C 2.41650000000004 46.7842  1.81330000000003 46.7519  1.81330000000003 46.7519  C 1.81330000000003 46.7519  1.69029999999998 45.576  1.69029999999998 45.576  C 1.69029999999998 45.576  2.22910000000002 44.4488  2.22910000000002 44.4488  C 2.22910000000002 44.4488  3.19539999999995 44.643  3.19539999999995 44.643  C 3.19539999999995 44.643  4.31970000000001 43.2355  4.31970000000001 43.2355  C 4.31970000000001 43.2355  4.67100000000005 40.8197  4.67100000000005 40.8197  C 4.67100000000005 40.8197  5.19219999999996 39.8709  5.19219999999996 39.8709  C 5.19219999999996 39.8709  4.95219999999995 39.2077  4.95219999999995 39.2077  C 4.95219999999995 39.2077  5.74270000000001 38.4638  5.74270000000001 38.4638  C 5.74270000000001 38.4638  5.45579999999995 37.5043  5.45579999999995 37.5043  C 5.45579999999995 37.5043  6.5684 36.8143  6.5684 36.8143  C 6.5684 36.8143  6.97249999999997 37.1485  6.97249999999997 37.1485  C 6.97249999999997 37.1485  7.12480000000005 35.4238  7.12480000000005 35.4238  C 7.12480000000005 35.4238  6.24639999999999 34.4645  6.24639999999999 34.4645  C 6.24639999999999 34.4645  6.26390000000004 33.8124  6.26390000000004 33.8124  C 6.26390000000004 33.8124  7.03689999999995 33.3975  7.03689999999995 33.3975  C 7.03689999999995 33.3975  8.5009 33.4568  8.5009 33.4568  C 8.5009 33.4568  8.96360000000004 31.282  8.96360000000004 31.282  C 8.96360000000004 31.282  8.57119999999998 30.1829  8.57119999999998 30.1829  C 8.57119999999998 30.1829  8.66489999999999 27.2846  8.66489999999999 27.2846  C 8.66489999999999 27.2846  8.21990000000005 25.9595  8.21990000000005 25.9595  C 8.21990000000005 25.9595  8.255 25.0816  8.255 25.0816  C 8.255 25.0816  7.19500000000005 23.4283  7.19500000000005 23.4283  C 7.19500000000005 23.4283  6.51570000000004 23.6975  6.51570000000004 23.6975  C 6.51570000000004 23.6975  6.05899999999997 21.6083  6.05899999999997 21.6083  C 6.05899999999997 21.6083  6.26969999999994 20.9029  6.26969999999994 20.9029  C 6.26969999999994 20.9029  7.24189999999999 21.4683  7.24189999999999 21.4683  C 7.24189999999999 21.4683  8.64729999999997 20.8598  8.64729999999997 20.8598  C 8.64729999999997 20.8598  8.99879999999996 18.5502  8.99879999999996 18.5502  C 8.99879999999996 18.5502  10.6559999999999 15.6598  10.6559999999999 15.6598  C 10.6559999999999 15.6598  12.4948000000001 15.6867  12.4948000000001 15.6867  C 12.4948000000001 15.6867  13.0863000000001 14.4435  13.0863000000001 14.4435  C 13.0863000000001 14.4435  13.5489 14.6804  13.5489 14.6804  C 13.5489 14.6804  13.6074 17.7913  13.6074 17.7913  C 13.6074 17.7913  14.4332000000001 18.9217  14.4332000000001 18.9217  C 14.4332000000001 18.9217  15.1476 18.4426  15.1476 18.4426  C 15.1476 18.4426  16.1314 16.9139  16.1314 16.9139  C 16.1314 16.9139  17.4373000000001 15.9666  17.4373000000001 15.9666  C 17.4373000000001 15.9666  18.7198 15.6706  18.7198 15.6706  C 18.7198 15.6706  19.4636 16.4564  19.4636 16.4564  C 19.4636 16.4564  19.3757000000001 17.8935  19.3757000000001 17.8935  C 19.3757000000001 17.8935  18.7257 19.2447  18.7257 19.2447  C 18.7257 19.2447  17.9117 20.2299  17.9117 20.2299  C 17.9117 20.2299  17.4315 21.5867  17.4315 21.5867  C 17.4315 21.5867  17.7243 22.0821  17.7243 22.0821  C 17.7243 22.0821  20.992 21.8936  20.992 21.8936  C 20.992 21.8936  21.8412 22.0928  21.8412 22.0928  C 21.8412 22.0928  23.4808 23.4337  23.4808 23.4337  C 23.4808 23.4337  24.1075 24.6615  24.1075 24.6615  C 24.1075 24.6615  24.7868 27.2468  24.7868 27.2468  C 24.7868 27.2468  25.2729000000001 28.1304  25.2729000000001 28.1304  C 25.2729000000001 28.1304  25.3314 27.1283  25.3314 27.1283  C 25.3314 27.1283  25.9756 25.6686  25.9756 25.6686  C 25.9756 25.6686  25.8058 25.1032  25.8058 25.1032  C 25.8058 25.1032  27.3152 23.5521  27.3152 23.5521  C 27.3152 23.5521  28.018 23.2128  28.018 23.2128  C 28.018 23.2128  27.8891 21.4952  27.8891 21.4952  C 27.8891 21.4952  26.1512 21.0267  26.1512 21.0267  C 26.1512 21.0267  26.1864 19.6861  26.1864 19.6861  C 26.1864 19.6861  27.7837 19.6  27.7837 19.6  C 27.7837 19.6  27.9242 20.4884  27.9242 20.4884  C 27.9242 20.4884  29.1072 21.5329  29.1072 21.5329  C 29.1072 21.5329  29.7631 22.5236  29.7631 22.5236  C 29.7631 22.5236  30.9928 22.9221  30.9928 22.9221  C 30.9928 22.9221  32.533 23.2344  32.533 23.2344  C 32.533 23.2344  32.8493 22.7498  32.8493 22.7498  C 32.8493 22.7498  33.9268 22.9975  33.9268 22.9975  C 33.9268 22.9975  34.9515 21.9797  34.9515 21.9797  C 34.9515 21.9797  35.3088 22.9114  35.3088 22.9114  C 35.3088 22.9114  36.5327 22.0228  36.5327 22.0228  C 36.5327 22.0228  36.2165 21.129  36.2165 21.129  C 36.2165 21.129  36.5152000000001 20.1922  36.5152000000001 20.1922  C 36.5152000000001 20.1922  37.3115 19.88  37.3115 19.88  C 37.3115 19.88  37.7039 18.6741  37.7039 18.6741  C 37.7039 18.6741  37.3467000000001 16.4295  37.3467000000001 16.4295  C 37.3467000000001 16.4295  36.7025 13.9376  36.7025 13.9376  C 36.7025 13.9376  36.808 11.3926  36.808 11.3926  C 36.808 11.3926  37.8152 10.3757  37.8152 10.3757  C 37.8152 10.3757  37.7625 9.2944  37.7625 9.2944  C 37.7625 9.2944  36.562 8.14330000000001  36.562 8.14330000000001  C 36.562 8.14330000000001  37.4755 7.09440000000001  37.4755 7.09440000000001  C 37.4755 7.09440000000001  37.3291 5.74979999999999  37.3291 5.74979999999999  C 37.3291 5.74979999999999  39.3085 5.3734  39.3085 5.3734  C 39.3085 5.3734  39.941 6.31989999999999  39.941 6.31989999999999  C 39.941 6.31989999999999  40.5968 8.01949999999999  40.5968 8.01949999999999  C 40.5968 8.01949999999999  41.0244 8.1917  41.0244 8.1917  C 41.0244 8.1917  41.8794 7.15360000000001  41.8794 7.15360000000001  C 41.8794 7.15360000000001  42.8456 7.6216  42.8456 7.6216  C 42.8456 7.6216  43.5542 6.60499999999999  43.5542 6.60499999999999  C 43.5542 6.60499999999999  43.3433 5.60470000000001  43.3433 5.60470000000001  C 43.3433 5.60470000000001  43.6537 4.4699  43.6537 4.4699  C 43.6537 4.4699  44.3858 4.84630000000001  44.3858 4.84630000000001  C 44.3858 4.84630000000001  45.1236 4.26560000000001  45.1236 4.26560000000001  C 45.1236 4.26560000000001  46.0782 4.3355  46.0782 4.3355  C 46.0782 4.3355  46.4118999999999 3.28149999999999  46.4118999999999 3.28149999999999  C 46.4118999999999 3.28149999999999  45.6975 2.7439  45.6975 2.7439  C 45.6975 2.7439  45.6038 1.91050000000001  45.6038 1.91050000000001  C 45.6038 1.91050000000001  46.3416999999999 0.872899999999987  46.3416999999999 0.872899999999987  C 46.3416999999999 0.872899999999987  46.8922 0.991199999999992  46.8922 0.991199999999992  C 46.8922 0.991199999999992  48.7954 2.21690000000001  48.7954 2.21690000000001  C 48.7954 2.21690000000001  48.7719 3.14709999999999  48.7719 3.14709999999999  C 48.7719 3.14709999999999  49.6913 3.8999  49.6913 3.8999  C 49.6913 3.8999  50.9503999999999 3.21700000000001  50.9503999999999 3.21700000000001  C 50.9503999999999 3.21700000000001  51.6649 3.55580000000001  51.6649 3.55580000000001  C 51.6649 3.55580000000001  51.6591 4.3194  51.6591 4.3194  C 51.6591 4.3194  52.4613000000001 5.3142  52.4613000000001 5.3142  C 52.4613000000001 5.3142  52.3149 7.37950000000001  52.3149 7.37950000000001  C 52.3149 7.37950000000001  53.0176 9.45050000000001  53.0176 9.45050000000001  C 53.0176 9.45050000000001  52.9181 12.501  52.9181 12.501  C 52.9181 12.501  51.5536 13.8032  51.5536 13.8032  C 51.5536 13.8032  50.7396 15.5629  50.7396 15.5629  C 50.7396 15.5629  50.4819 17.8935  50.4819 17.8935  C 50.4819 17.8935  51.3252 18.152  51.3252 18.152  C 51.3252 18.152  50.4878 20.3645  50.4878 20.3645  C 50.4878 20.3645  49.586 21.3229  49.586 21.3229  C 49.586 21.3229  49.4688 24.4245  49.4688 24.4245  C 49.4688 24.4245  48.444 25.0978  48.444 25.0978  C 48.444 25.0978  46.4998000000001 29.4017  46.4998000000001 29.4017  C 46.4998000000001 29.4017  44.4678 31.2174  44.4678 31.2174  C 44.4678 31.2174  42.6582 35.6933  42.6582 35.6933  C 42.6582 35.6933  42.9803000000001 38.2697  42.9803000000001 38.2697  C 42.9803000000001 38.2697  43.3492 39.321  43.3492 39.321  C 43.3492 39.321  43.3082000000001 40.5879  43.3082000000001 40.5879  C 43.3082000000001 40.5879  43.9641 42.7878  43.9641 42.7878  C 43.9641 42.7878  45.2465999999999 42.9065  45.2465999999999 42.9065  C 45.2465999999999 42.9065  45.7737 44.1899  45.7737 44.1899  C 45.7737 44.1899  45.1002 46.5145  45.1002 46.5145  C 45.1002 46.5145  44.4911 47.1942  44.4911 47.1942  C 44.4911 47.1942  43.0974 47.3668  43.0974 47.3668  C 43.0974 47.3668  39.7477 45.7594  39.7477 45.7594  C 39.7477 45.7594  38.2251 45.8241  38.2251 45.8241  C 38.2251 45.8241  37.4697 46.2772  37.4697 46.2772  C 37.4697 46.2772  36.4449 47.4746  36.4449 47.4746  C 36.4449 47.4746  34.5006 50.5443  34.5006 50.5443  C 34.5006 50.5443  33.6808 51.5534  33.6808 51.5534  C 33.6808 51.5534  32.6559999999999 52.0875  32.6559999999999 52.0875  C 32.6559999999999 52.0875  28.5157 52.7405  28.5157 52.7405  C 28.5157 52.7405  25.9931 53.2262  25.9931 53.2262  C 25.9931 53.2262  25.1265 53.9818  25.1265 53.9818  C 25.1265 53.9818  24.0431 56.0003  24.0431 56.0003  Z " stroke-width="2" stroke="#666666" fill="none" transform="matrix(1 0 0 1 679 290 )" mask="url(#clip32)" />
    <path d="M 70.053 19.7992  C 70.053 19.7992  70.3693 20.1976  70.3693 20.1976  C 70.3693 20.1976  70.3458000000001 20.8113  70.3458000000001 20.8113  C 70.3458000000001 20.8113  71.0837 21.3229  71.0837 21.3229  C 71.0837 21.3229  70.6094000000001 22.0444  70.6094000000001 22.0444  C 70.6094000000001 22.0444  69.7133 21.8505  69.7133 21.8505  C 69.7133 21.8505  69.6489 24.606  69.6489 24.606  C 69.6489 24.606  70.3751 25.71  70.3751 25.71  C 70.3751 25.71  70.1818 26.8733  70.1818 26.8733  C 70.1818 26.8733  68.753 27.9613  68.753 27.9613  C 68.753 27.9613  67.9741 26.9703  67.9741 26.9703  C 67.9741 26.9703  67.0664 27.5628  67.0664 27.5628  C 67.0664 27.5628  66.8029 26.3994  66.8029 26.3994  C 66.8029 26.3994  65.3037 25.9955  65.3037 25.9955  C 65.3037 25.9955  63.1662 26.8356  63.1662 26.8356  C 63.1662 26.8356  60.5441 26.2701  60.5441 26.2701  C 60.5441 26.2701  60.4621 25.4084  60.4621 25.4084  C 60.4621 25.4084  58.2193 25.2631  58.2193 25.2631  C 58.2193 25.2631  56.8606 25.4353  56.8606 25.4353  C 56.8606 25.4353  55.5606 25.2469  55.5606 25.2469  C 55.5606 25.2469  54.0614 24.5898  54.0614 24.5898  C 54.0614 24.5898  54.0321 21.8397  54.0321 21.8397  C 54.0321 21.8397  54.5182 21.199  54.5182 21.199  C 54.5182 21.199  55.3088 21.1021  55.3088 21.1021  C 55.3088 21.1021  56.3043 20.0953  56.3043 20.0953  C 56.3043 20.0953  57.1593 19.7184  57.1593 19.7184  C 57.1593 19.7184  58.3598 20.0738  58.3598 20.0738  C 58.3598 20.0738  59.5309999999999 21.9636  59.5309999999999 21.9636  C 59.5309999999999 21.9636  59.9995 22.1628  59.9995 22.1628  C 59.9995 22.1628  63.1721 19.0025  63.1721 19.0025  C 63.1721 19.0025  64.1852 18.2058  64.1852 18.2058  C 64.1852 18.2058  65.3271999999999 18.4856  65.3271999999999 18.4856  C 65.3271999999999 18.4856  65.7195 19.6108  65.7195 19.6108  C 65.7195 19.6108  66.393 19.8638  66.393 19.8638  C 66.393 19.8638  67.1952 19.3363  67.1952 19.3363  C 67.1952 19.3363  67.6052 18.0874  67.6052 18.0874  C 67.6052 18.0874  69.1512 17.4252  69.1512 17.4252  C 69.1512 17.4252  69.4147 18.5072  69.4147 18.5072  C 69.4147 18.5072  69.0107 19.923  69.0107 19.923  C 69.0107 19.923  70.053 19.7992  70.053 19.7992  Z " stroke-width="2" stroke="#666666" fill="none" transform="matrix(1 0 0 1 679 290 )" mask="url(#clip32)" />
  </g>
</svg>