<?xml version="1.0" encoding="utf-8"?>
<svg version="1.1" xmlns:xlink="http://www.w3.org/1999/xlink" width="78px" height="97px" xmlns="http://www.w3.org/2000/svg">
  <defs>
    <mask fill="white" id="clip33">
      <path d="M 45.0303 11.7346  C 45.0303 11.7346  45.7096 11.4332  45.7096 11.4332  C 45.7096 11.4332  45.5398 12.8167  45.5398 12.8167  C 45.5398 12.8167  44.6965 13.3875  44.6965 13.3875  C 44.6965 13.3875  44.5677 15.2667  44.5677 15.2667  C 44.5677 15.2667  45.6335 14.4429  45.6335 14.4429  C 45.6335 14.4429  45.9731 13.6783  45.9731 13.6783  C 45.9731 13.6783  46.7754 13.506  46.7754 13.506  C 46.7754 13.506  46.2893 14.4052  46.2893 14.4052  C 46.2893 14.4052  46.7403 15.8968  46.7403 15.8968  C 46.7403 15.8968  47.689 17.2701  47.689 17.2701  C 47.689 17.2701  46.8867 17.6471  46.8867 17.6471  C 46.8867 17.6471  46.7169 18.9236  46.7169 18.9236  C 46.7169 18.9236  46.1254 19.9256  46.1254 19.9256  C 46.1254 19.9256  46.8281 22.5277  46.8281 22.5277  C 46.8281 22.5277  48.5674 22.7433  48.5674 22.7433  C 48.5674 22.7433  49.0066 23.891  49.0066 23.891  C 49.0066 23.891  50.2656 22.2583  50.2656 22.2583  C 50.2656 22.2583  50.9216 22.8942  50.9216 22.8942  C 50.9216 22.8942  49.7152 24.6884  49.7152 24.6884  C 49.7152 24.6884  49.399 25.5669  49.399 25.5669  C 49.399 25.5669  50.4765 26.0574  50.4765 26.0574  C 50.4765 26.0574  50.09 28.0138  50.09 28.0138  C 50.09 28.0138  50.8571 29.7926  50.8571 29.7926  C 50.8571 29.7926  51.5365 30.3048  51.5365 30.3048  C 51.5365 30.3048  51.636 31.8305  51.636 31.8305  C 51.636 31.8305  51.0387 32.9736  51.0387 32.9736  C 51.0387 32.9736  51.6946 32.8495  51.6946 32.8495  C 51.6946 32.8495  52.9712 33.3187  52.9712 33.3187  C 52.9712 33.3187  53.7032 33.1893  53.7032 33.1893  C 53.7032 33.1893  53.8672 32.0031  53.8672 32.0031  C 53.8672 32.0031  53.1293 29.7064  53.1293 29.7064  C 53.1293 29.7064  54.1893 29.6039  54.1893 29.6039  C 54.1893 29.6039  54.5231 29.1296  54.5231 29.1296  C 54.5231 29.1296  55.6709 29.1512  55.6709 29.1512  C 55.6709 29.1512  56.0281 28.5151  56.0281 28.5151  C 56.0281 28.5151  55.6884 27.8251  55.6884 27.8251  C 55.6884 27.8251  57.1348 27.3239  57.1348 27.3239  C 57.1348 27.3239  57.3867 26.6232  57.3867 26.6232  C 57.3867 26.6232  59.1318 28.3102  59.1318 28.3102  C 59.1318 28.3102  59.1142 29.1242  59.1142 29.1242  C 59.1142 29.1242  59.8989 29.4638  59.8989 29.4638  C 59.8989 29.4638  61.1873 31.0272  61.1873 31.0272  C 61.1873 31.0272  61.5152 33.0491  61.5152 33.0491  C 61.5152 33.0491  61.0936 34.5643  61.0936 34.5643  C 61.0936 34.5643  61.1698 36.1661  61.1698 36.1661  C 61.1698 36.1661  62.2062 36.7701  62.2062 36.7701  C 62.2062 36.7701  63.2603 38.1726  63.2603 38.1726  C 63.2603 38.1726  63.5766 39.0896  63.5766 39.0896  C 63.5766 39.0896  63.6117 40.6271  63.6117 40.6271  C 63.6117 40.6271  61.9486 42.4563  61.9486 42.4563  C 61.9486 42.4563  61.8841 43.5624  61.8841 43.5624  C 61.8841 43.5624  62.2765 44.0535  62.2765 44.0535  C 62.2765 44.0535  63.7699 44.1398  63.7699 44.1398  C 63.7699 44.1398  63.6293 46.2554  63.6293 46.2554  C 63.6293 46.2554  63.1725 46.25  63.1725 46.25  C 63.1725 46.25  63.5122 49.5117  63.5122 49.5117  C 63.5122 49.5117  64.0977 49.4145  64.0977 49.4145  C 64.0977 49.4145  63.559 51.1583  63.559 51.1583  C 63.559 51.1583  62.4053 51.1205  62.4053 51.1205  C 62.4053 51.1205  61.1463 51.8548  61.1463 51.8548  C 61.1463 51.8548  61.7319 53.5934  61.7319 53.5934  C 61.7319 53.5934  62.5634 53.9444  62.5634 53.9444  C 62.5634 53.9444  63.7815 55.2567  63.7815 55.2567  C 63.7815 55.2567  64.8532 55.4024  64.8532 55.4024  C 64.8532 55.4024  67.0844 55.1001  67.0844 55.1001  C 67.0844 55.1001  67.3479 58.2435  67.3479 58.2435  C 67.3479 58.2435  66.7096 58.7459  66.7096 58.7459  C 66.7096 58.7459  66.856 62.6898  66.856 62.6898  C 66.856 62.6898  68.0507 63.8678  68.0507 63.8678  C 68.0507 63.8678  69.3975 64.6514  69.3975 64.6514  C 69.3975 64.6514  70.3931 66.3916  70.3931 66.3916  C 70.3931 66.3916  69.1867 67.0672  69.1867 67.0672  C 69.1867 67.0672  69.4561 69.7106  69.4561 69.7106  C 69.4561 69.7106  68.7768 70.3972  68.7768 70.3972  C 68.7768 70.3972  70.5629 72.1923  70.5629 72.1923  C 70.5629 72.1923  70.6332 73.3116  70.6332 73.3116  C 70.6332 73.3116  70.2467 73.6793  70.2467 73.6793  C 70.2467 73.6793  71.2656 74.8312  71.2656 74.8312  C 71.2656 74.8312  71.453 76.9514  71.453 76.9514  C 71.453 76.9514  73.2801 78.2172  73.2801 78.2172  C 73.2801 78.2172  75.441 77.6546  75.441 77.6546  C 75.441 77.6546  76.2141 77.7411  76.2141 77.7411  C 76.2141 77.7411  77.6664 79.0448  77.6664 79.0448  C 77.6664 79.0448  76.8758 80.116  76.8758 80.116  C 76.8758 80.116  74.8496 80.7598  74.8496 80.7598  C 74.8496 80.7598  75.5054 82.8376  75.5054 82.8376  C 75.5054 82.8376  75.0194 83.6223  75.0194 83.6223  C 75.0194 83.6223  73.7721 84.2987  73.7721 84.2987  C 73.7721 84.2987  72.7707 85.2404  72.7707 85.2404  C 72.7707 85.2404  72.7531 86.0307  72.7531 86.0307  C 72.7531 86.0307  70.6391 86.5395  70.6391 86.5395  C 70.6391 86.5395  69.3741 86.2743  69.3741 86.2743  C 69.3741 86.2743  68.2791 87.5355  68.2791 87.5355  C 68.2791 87.5355  67.5411 87.1457  67.5411 87.1457  C 67.5411 87.1457  67.02 86.074  67.02 86.074  C 67.02 86.074  66.1767 85.614  66.1767 85.614  C 66.1767 85.614  65.6614 86.0794  65.6614 86.0794  C 65.6614 86.0794  64.5897 88.9862  64.5897 88.9862  C 64.5897 88.9862  63.2135 90.5075  63.2135 90.5075  C 63.2135 90.5075  62.8329 92.0129  62.8329 92.0129  C 62.8329 92.0129  62.9675 92.6843  62.9675 92.6843  C 62.9675 92.6843  62.0774 92.8955  62.0774 92.8955  C 62.0774 92.8955  60.7481 92.2024  60.7481 92.2024  C 60.7481 92.2024  59.94 92.9117  59.94 92.9117  C 59.94 92.9117  56.2682 90.069  56.2682 90.069  C 56.2682 90.069  55.4073 90.383  55.4073 90.383  C 55.4073 90.383  54.2712 88.4124  54.2712 88.4124  C 54.2712 88.4124  53.3577 82.2911  53.3577 82.2911  C 53.3577 82.2911  52.1572 79.9213  52.1572 79.9213  C 52.1572 79.9213  51.3901 79.2558  51.3901 79.2558  C 51.3901 79.2558  49.5337 79.8076  49.5337 79.8076  C 49.5337 79.8076  46.7344 80.0024  46.7344 80.0024  C 46.7344 80.0024  46.1079 79.7644  46.1079 79.7644  C 46.1079 79.7644  44.8546 77.2976  44.8546 77.2976  C 44.8546 77.2976  41.7568 74.3121  41.7568 74.3121  C 41.7568 74.3121  40.4157 74.8042  40.4157 74.8042  C 40.4157 74.8042  40 75.4316  40 75.4316  C 40 75.4316  38.1215 75.3829  38.1215 75.3829  C 38.1215 75.3829  37.7174 74.7285  37.7174 74.7285  C 37.7174 74.7285  36.9503 75.1341  36.9503 75.1341  C 36.9503 75.1341  36.5111 76.4376  36.5111 76.4376  C 36.5111 76.4376  35.9314 76.6052  35.9314 76.6052  C 35.9314 76.6052  35.2579 75.9724  35.2579 75.9724  C 35.2579 75.9724  34.7308 76.4484  34.7308 76.4484  C 34.7308 76.4484  35.1934 76.973  35.1934 76.973  C 35.1934 76.973  35.3691 79.0665  35.3691 79.0665  C 35.3691 79.0665  34.6137 78.9583  34.6137 78.9583  C 34.6137 78.9583  34.0632 79.6562  34.0632 79.6562  C 34.0632 79.6562  32.7983 79.7373  32.7983 79.7373  C 32.7983 79.7373  32.2478 80.8897  32.2478 80.8897  C 32.2478 80.8897  33.0326 81.6201  33.0326 81.6201  C 33.0326 81.6201  32.6988 83.5682  32.6988 83.5682  C 32.6988 83.5682  32.201 83.579  32.201 83.579  C 32.201 83.579  31.6212 84.9211  31.6212 84.9211  C 31.6212 84.9211  32.119 85.0889  32.119 85.0889  C 32.119 85.0889  31.9316 87.3027  31.9316 87.3027  C 31.9316 87.3027  29.6653 88.6831  29.6653 88.6831  C 29.6653 88.6831  28.9919 90.1069  28.9919 90.1069  C 28.9919 90.1069  27.9436 91.0056  27.9436 91.0056  C 27.9436 91.0056  27.0828 90.5671  27.0828 90.5671  C 27.0828 90.5671  26.8368 91.1139  26.8368 91.1139  C 26.8368 91.1139  26.2863 90.4155  26.2863 90.4155  C 26.2863 90.4155  25.0566 91.0814  25.0566 91.0814  C 25.0566 91.0814  24.3129 89.1865  24.3129 89.1865  C 24.3129 89.1865  23.329 90.6808  23.329 90.6808  C 23.329 90.6808  23.1006 89.7008  23.1006 89.7008  C 23.1006 89.7008  24.1898 88.3691  24.1898 88.3691  C 24.1898 88.3691  24.3714 87.2215  24.3714 87.2215  C 24.3714 87.2215  23.5749 86.7939  23.5749 86.7939  C 23.5749 86.7939  24.2777 85.7439  24.2777 85.7439  C 24.2777 85.7439  23.9029 84.4881  23.9029 84.4881  C 23.9029 84.4881  23.4168 84.2176  23.4168 84.2176  C 23.4168 84.2176  22.1871 85.4408  22.1871 85.4408  C 22.1871 85.4408  22.7317 86.4475  22.7317 86.4475  C 22.7317 86.4475  23.7682 87.3406  23.7682 87.3406  C 23.7682 87.3406  22.9425 87.5463  22.9425 87.5463  C 22.9425 87.5463  22.4506 86.7777  22.4506 86.7777  C 22.4506 86.7777  21.8415 87.4326  21.8415 87.4326  C 21.8415 87.4326  22.3569 88.0281  22.3569 88.0281  C 22.3569 88.0281  22.1578 88.8076  22.1578 88.8076  C 22.1578 88.8076  21.0159 87.7845  21.0159 87.7845  C 21.0159 87.7845  21.5488 88.8563  21.5488 88.8563  C 21.5488 88.8563  20.9807 88.905  20.9807 88.905  C 20.9807 88.905  20.6352 87.4489  20.6352 87.4489  C 20.6352 87.4489  19.5753 87.5138  19.5753 87.5138  C 19.5753 87.5138  19.177 88.9213  19.177 88.9213  C 19.177 88.9213  17.959 89.1053  17.959 89.1053  C 17.959 89.1053  17.6427 90.1177  17.6427 90.1177  C 17.6427 90.1177  17.3148 89.4193  17.3148 89.4193  C 17.3148 89.4193  16.3603 89.598  16.3603 89.598  C 16.3603 89.598  15.0719 90.605  15.0719 90.605  C 15.0719 90.605  16.0616 91.4118  16.0616 91.4118  C 16.0616 91.4118  15.7336 92.1915  15.7336 92.1915  C 15.7336 92.1915  14.8728 92.4948  14.8728 92.4948  C 14.8728 92.4948  14.7849 93.8648  14.7849 93.8648  C 14.7849 93.8648  14.3106 94.6772  14.3106 94.6772  C 14.3106 94.6772  11.9506 96.1179  11.9506 96.1179  C 11.9506 96.1179  11.1718 95.468  11.1718 95.468  C 11.1718 95.468  11.4704 94.1193  11.4704 94.1193  C 11.4704 94.1193  11.119 92.511  11.119 92.511  C 11.119 92.511  12.5421 92.0616  12.5421 92.0616  C 12.5421 92.0616  12.9871 90.6591  12.9871 90.6591  C 12.9871 90.6591  12.179 90.134  12.179 90.134  C 12.179 90.134  11.3299 88.3745  11.3299 88.3745  C 11.3299 88.3745  10.1704 87.3731  10.1704 87.3731  C 10.1704 87.3731  8.97570000000002 87.844  8.97570000000002 87.844  C 8.97570000000002 87.844  8.40769999999998 87.3135  8.40769999999998 87.3135  C 8.40769999999998 87.3135  6.64499999999998 88.6127  6.64499999999998 88.6127  C 6.64499999999998 88.6127  6.60980000000001 89.8254  6.60980000000001 89.8254  C 6.60980000000001 89.8254  5.58499999999998 89.0458  5.58499999999998 89.0458  C 5.58499999999998 89.0458  4.47230000000002 89.376  4.47230000000002 89.376  C 4.47230000000002 89.376  3.49439999999998 92.1699  3.49439999999998 92.1699  C 3.49439999999998 92.1699  2.76830000000001 93.2041  2.76830000000001 93.2041  C 2.76830000000001 93.2041  1.66730000000001 93.1662  1.66730000000001 93.1662  C 1.66730000000001 93.1662  0.870799999999974 91.1952  0.870799999999974 91.1952  C 0.870799999999974 91.1952  0.993899999999996 90.2152  0.993899999999996 90.2152  C 0.993899999999996 90.2152  1.57940000000002 89.7766  1.57940000000002 89.7766  C 1.57940000000002 89.7766  0.683499999999981 87.5355  0.683499999999981 87.5355  C 0.683499999999981 87.5355  0.203300000000013 85.706  0.203300000000013 85.706  C 0.203300000000013 85.706  0.185699999999997 83.1244  0.185699999999997 83.1244  C 0.185699999999997 83.1244  1.79020000000003 82.6482  1.79020000000003 82.6482  C 1.79020000000003 82.6482  3.92189999999999 81.2955  3.92189999999999 81.2955  C 3.92189999999999 81.2955  4.10340000000002 80.8951  4.10340000000002 80.8951  C 4.10340000000002 80.8951  5.6026 81.1386  5.6026 81.1386  C 5.6026 81.1386  7.08420000000001 80.5543  7.08420000000001 80.5543  C 7.08420000000001 80.5543  7.63470000000001 79.1152  7.63470000000001 79.1152  C 7.63470000000001 79.1152  8.43110000000001 78.7744  8.43110000000001 78.7744  C 8.43110000000001 78.7744  8.32569999999998 77.303  8.32569999999998 77.303  C 8.32569999999998 77.303  9.20409999999998 77.6979  9.20409999999998 77.6979  C 9.20409999999998 77.6979  9.95370000000003 77.2651  9.95370000000003 77.2651  C 9.95370000000003 77.2651  10.5041 78.5039  10.5041 78.5039  C 10.5041 78.5039  10.8789 77.7141  10.8789 77.7141  C 10.8789 77.7141  12.788 77.3841  12.788 77.3841  C 12.788 77.3841  13.889 76.6755  13.889 76.6755  C 13.889 76.6755  14.0647 75.2152  14.0647 75.2152  C 14.0647 75.2152  13.2214 74.5284  13.2214 74.5284  C 13.2214 74.5284  12.8173 73.5874  12.8173 73.5874  C 12.8173 73.5874  13.1101 72.5762  13.1101 72.5762  C 13.1101 72.5762  15.0602 73.6307  15.0602 73.6307  C 15.0602 73.6307  15.3998 72.9331  15.3998 72.9331  C 15.3998 72.9331  16.3661 72.8574  16.3661 72.8574  C 16.3661 72.8574  18.5153 72.1328  18.5153 72.1328  C 18.5153 72.1328  18.7554 71.5164  18.7554 71.5164  C 18.7554 71.5164  20.5708 71.165  20.5708 71.165  C 20.5708 71.165  21.8767 70.3215  21.8767 70.3215  C 21.8767 70.3215  21.9645 69.5755  21.9645 69.5755  C 21.9645 69.5755  22.5677 70.0242  22.5677 70.0242  C 22.5677 70.0242  23.1065 69.6565  23.1065 69.6565  C 23.1065 69.6565  22.6497 69.0835  22.6497 69.0835  C 22.6497 69.0835  23.4285 68.1051  23.4285 68.1051  C 23.4285 68.1051  22.9249 67.078  22.9249 67.078  C 22.9249 67.078  21.5956 65.7322  21.5956 65.7322  C 21.5956 65.7322  22.679 64.9216  22.679 64.9216  C 22.679 64.9216  23.6628 64.927  23.6628 64.927  C 23.6628 64.927  24.3597 67.0294  24.3597 67.0294  C 24.3597 67.0294  26.2863 65.7052  26.2863 65.7052  C 26.2863 65.7052  26.8485 63.4463  26.8485 63.4463  C 26.8485 63.4463  26.4503 63.349  26.4503 63.349  C 26.4503 63.349  26.339 61.5821  26.339 61.5821  C 26.339 61.5821  27.6215 60.5826  27.6215 60.5826  C 27.6215 60.5826  28.2422 61.7334  28.2422 61.7334  C 28.2422 61.7334  29.5716 60.0207  29.5716 60.0207  C 29.5716 60.0207  30.3973 59.5669  30.3973 59.5669  C 30.3973 59.5669  30.45 59.5508  30.45 59.5508  C 30.45 59.5508  30.5378 59.5292  30.5378 59.5292  C 30.5378 59.5292  30.6023 59.4589  30.6023 59.4589  C 30.6023 59.4589  30.4208 60.4961  30.4208 60.4961  C 30.4208 60.4961  30.9302 60.6474  30.9302 60.6474  C 30.9302 60.6474  32.8862 58.627  32.8862 58.627  C 32.8862 58.627  33.9285 58.1625  33.9285 58.1625  C 33.9285 58.1625  32.7925 54.3656  32.7925 54.3656  C 32.7925 54.3656  32.7573 52.2705  32.7573 52.2705  C 32.7573 52.2705  31.7325 50.3539  31.7325 50.3539  C 31.7325 50.3539  31.2991 47.4645  31.2991 47.4645  C 31.2991 47.4645  31.2055 44.5446  31.2055 44.5446  C 31.2055 44.5446  30.8599 43.3789  30.8599 43.3789  C 30.8599 43.3789  29.472 41.6792  29.472 41.6792  C 29.472 41.6792  29.1792 39.1382  29.1792 39.1382  C 29.1792 39.1382  29.2554 38.3183  29.2554 38.3183  C 29.2554 38.3183  28.6054 37.9946  28.6054 37.9946  C 28.6054 37.9946  28.7518 36.9104  28.7518 36.9104  C 28.7518 36.9104  29.2495 36.6946  29.2495 36.6946  C 29.2495 36.6946  28.986 35.9126  28.986 35.9126  C 28.986 35.9126  29.9113 35.6591  29.9113 35.6591  C 29.9113 35.6591  30.2802 37.6871  30.2802 37.6871  C 30.2802 37.6871  30.819 37.4552  30.819 37.4552  C 30.819 37.4552  30.9654 35.6106  30.9654 35.6106  C 30.9654 35.6106  31.3108 35.4164  31.3108 35.4164  C 31.3108 35.4164  31.8262 37.0291  31.8262 37.0291  C 31.8262 37.0291  31.3928 38.2481  31.3928 38.2481  C 31.3928 38.2481  32.1541 38.2535  32.1541 38.2535  C 32.1541 38.2535  32.4704 36.549  32.4704 36.549  C 32.4704 36.549  33.7646 36.6946  33.7646 36.6946  C 33.7646 36.6946  34.6078 35.7994  34.6078 35.7994  C 34.6078 35.7994  34.93 34.3541  34.93 34.3541  C 34.93 34.3541  33.1262 33.6369  33.1262 33.6369  C 33.1262 33.6369  34.7601 31.8413  34.7601 31.8413  C 34.7601 31.8413  34.9885 30.6445  34.9885 30.6445  C 34.9885 30.6445  35.7205 29.4045  35.7205 29.4045  C 35.7205 29.4045  36.4349 28.79  36.4349 28.79  C 36.4349 28.79  36.7746 26.5154  36.7746 26.5154  C 36.7746 26.5154  37.6882 23.282  37.6882 23.282  C 37.6882 23.282  36.2066 23.0988  36.2066 23.0988  C 36.2066 23.0988  35.8844 21.5257  35.8844 21.5257  C 35.8844 21.5257  34.2565 19.2038  34.2565 19.2038  C 34.2565 19.2038  32.4001 18.7514  32.4001 18.7514  C 32.4001 18.7514  31.7735 19.1876  31.7735 19.1876  C 31.7735 19.1876  32.0956 20.836  32.0956 20.836  C 32.0956 20.836  31.8262 21.2347  31.8262 21.2347  C 31.8262 21.2347  30.3505 20.8522  30.3505 20.8522  C 30.3505 20.8522  30.2333 18.5089  30.2333 18.5089  C 30.2333 18.5089  30.8775 17.1463  30.8775 17.1463  C 30.8775 17.1463  31.0474 14.9491  31.0474 14.9491  C 31.0474 14.9491  31.6036 14.2705  31.6036 14.2705  C 31.6036 14.2705  31.5275 13.409  31.5275 13.409  C 31.5275 13.409  32.2244 11.5461  32.2244 11.5461  C 32.2244 11.5461  33.6943 10.9755  33.6943 10.9755  C 33.6943 10.9755  34.2389 9.28519999999997  34.2389 9.28519999999997  C 34.2389 9.28519999999997  34.8186 9.03769999999997  34.8186 9.03769999999997  C 34.8186 9.03769999999997  34.7836 7.42840000000001  34.7836 7.42840000000001  C 34.7836 7.42840000000001  35.1759 4.9152  35.1759 4.9152  C 35.1759 4.9152  34.438 4.05430000000001  34.438 4.05430000000001  C 34.438 4.05430000000001  33.7411 3.89830000000001  33.7411 3.89830000000001  C 33.7411 3.89830000000001  33.6533 3.06440000000001  33.6533 3.06440000000001  C 33.6533 3.06440000000001  33.4015 0.896299999999996  33.4015 0.896299999999996  C 33.4015 0.896299999999996  35.0295 0.907100000000014  35.0295 0.907100000000014  C 35.0295 0.907100000000014  36.1304 0.245499999999993  36.1304 0.245499999999993  C 36.1304 0.245499999999993  36.798 0.503700000000009  36.798 0.503700000000009  C 36.798 0.503700000000009  39.4612 2.3596  39.4612 2.3596  C 39.4612 2.3596  39.9882 0.928599999999989  39.9882 0.928599999999989  C 39.9882 0.928599999999989  41.136 2.3973  41.136 2.3973  C 41.136 2.3973  40.8198 3.48410000000001  40.8198 3.48410000000001  C 40.8198 3.48410000000001  39.4495 5.03360000000001  39.4495 5.03360000000001  C 39.4495 5.03360000000001  38.0278 5.9538  38.0278 5.9538  C 38.0278 5.9538  40.2166 8.887  40.2166 8.887  C 40.2166 8.887  42.1374 9.40910000000002  42.1374 9.40910000000002  C 42.1374 9.40910000000002  41.9324 10.5395  41.9324 10.5395  C 41.9324 10.5395  42.5239 10.7171  42.5239 10.7171  C 42.5239 10.7171  42.2721 11.4869  42.2721 11.4869  C 42.2721 11.4869  43.1915 11.783  43.1915 11.783  C 43.1915 11.783  44.3686 13.0698  44.3686 13.0698  C 44.3686 13.0698  44.9952 12.6015  44.9952 12.6015  C 44.9952 12.6015  45.0303 11.7346  45.0303 11.7346  Z M 31.6023 58.4589  C 31.6023 58.4589  31.5378 59.5292  31.5378 59.5292  C 31.5378 59.5292  30.45 59.5508  30.45 59.5508  C 30.45 59.5508  30.3973 59.5669  30.3973 59.5669  C 30.3973 59.5669  31.6023 58.4589  31.6023 58.4589  Z " fill-rule="evenodd" />
    </mask>
  </defs>
  <g transform="matrix(1 0 0 1 -385 -298 )">
    <path d="M 45.0303 11.7346  C 45.0303 11.7346  45.7096 11.4332  45.7096 11.4332  C 45.7096 11.4332  45.5398 12.8167  45.5398 12.8167  C 45.5398 12.8167  44.6965 13.3875  44.6965 13.3875  C 44.6965 13.3875  44.5677 15.2667  44.5677 15.2667  C 44.5677 15.2667  45.6335 14.4429  45.6335 14.4429  C 45.6335 14.4429  45.9731 13.6783  45.9731 13.6783  C 45.9731 13.6783  46.7754 13.506  46.7754 13.506  C 46.7754 13.506  46.2893 14.4052  46.2893 14.4052  C 46.2893 14.4052  46.7403 15.8968  46.7403 15.8968  C 46.7403 15.8968  47.689 17.2701  47.689 17.2701  C 47.689 17.2701  46.8867 17.6471  46.8867 17.6471  C 46.8867 17.6471  46.7169 18.9236  46.7169 18.9236  C 46.7169 18.9236  46.1254 19.9256  46.1254 19.9256  C 46.1254 19.9256  46.8281 22.5277  46.8281 22.5277  C 46.8281 22.5277  48.5674 22.7433  48.5674 22.7433  C 48.5674 22.7433  49.0066 23.891  49.0066 23.891  C 49.0066 23.891  50.2656 22.2583  50.2656 22.2583  C 50.2656 22.2583  50.9216 22.8942  50.9216 22.8942  C 50.9216 22.8942  49.7152 24.6884  49.7152 24.6884  C 49.7152 24.6884  49.399 25.5669  49.399 25.5669  C 49.399 25.5669  50.4765 26.0574  50.4765 26.0574  C 50.4765 26.0574  50.09 28.0138  50.09 28.0138  C 50.09 28.0138  50.8571 29.7926  50.8571 29.7926  C 50.8571 29.7926  51.5365 30.3048  51.5365 30.3048  C 51.5365 30.3048  51.636 31.8305  51.636 31.8305  C 51.636 31.8305  51.0387 32.9736  51.0387 32.9736  C 51.0387 32.9736  51.6946 32.8495  51.6946 32.8495  C 51.6946 32.8495  52.9712 33.3187  52.9712 33.3187  C 52.9712 33.3187  53.7032 33.1893  53.7032 33.1893  C 53.7032 33.1893  53.8672 32.0031  53.8672 32.0031  C 53.8672 32.0031  53.1293 29.7064  53.1293 29.7064  C 53.1293 29.7064  54.1893 29.6039  54.1893 29.6039  C 54.1893 29.6039  54.5231 29.1296  54.5231 29.1296  C 54.5231 29.1296  55.6709 29.1512  55.6709 29.1512  C 55.6709 29.1512  56.0281 28.5151  56.0281 28.5151  C 56.0281 28.5151  55.6884 27.8251  55.6884 27.8251  C 55.6884 27.8251  57.1348 27.3239  57.1348 27.3239  C 57.1348 27.3239  57.3867 26.6232  57.3867 26.6232  C 57.3867 26.6232  59.1318 28.3102  59.1318 28.3102  C 59.1318 28.3102  59.1142 29.1242  59.1142 29.1242  C 59.1142 29.1242  59.8989 29.4638  59.8989 29.4638  C 59.8989 29.4638  61.1873 31.0272  61.1873 31.0272  C 61.1873 31.0272  61.5152 33.0491  61.5152 33.0491  C 61.5152 33.0491  61.0936 34.5643  61.0936 34.5643  C 61.0936 34.5643  61.1698 36.1661  61.1698 36.1661  C 61.1698 36.1661  62.2062 36.7701  62.2062 36.7701  C 62.2062 36.7701  63.2603 38.1726  63.2603 38.1726  C 63.2603 38.1726  63.5766 39.0896  63.5766 39.0896  C 63.5766 39.0896  63.6117 40.6271  63.6117 40.6271  C 63.6117 40.6271  61.9486 42.4563  61.9486 42.4563  C 61.9486 42.4563  61.8841 43.5624  61.8841 43.5624  C 61.8841 43.5624  62.2765 44.0535  62.2765 44.0535  C 62.2765 44.0535  63.7699 44.1398  63.7699 44.1398  C 63.7699 44.1398  63.6293 46.2554  63.6293 46.2554  C 63.6293 46.2554  63.1725 46.25  63.1725 46.25  C 63.1725 46.25  63.5122 49.5117  63.5122 49.5117  C 63.5122 49.5117  64.0977 49.4145  64.0977 49.4145  C 64.0977 49.4145  63.559 51.1583  63.559 51.1583  C 63.559 51.1583  62.4053 51.1205  62.4053 51.1205  C 62.4053 51.1205  61.1463 51.8548  61.1463 51.8548  C 61.1463 51.8548  61.7319 53.5934  61.7319 53.5934  C 61.7319 53.5934  62.5634 53.9444  62.5634 53.9444  C 62.5634 53.9444  63.7815 55.2567  63.7815 55.2567  C 63.7815 55.2567  64.8532 55.4024  64.8532 55.4024  C 64.8532 55.4024  67.0844 55.1001  67.0844 55.1001  C 67.0844 55.1001  67.3479 58.2435  67.3479 58.2435  C 67.3479 58.2435  66.7096 58.7459  66.7096 58.7459  C 66.7096 58.7459  66.856 62.6898  66.856 62.6898  C 66.856 62.6898  68.0507 63.8678  68.0507 63.8678  C 68.0507 63.8678  69.3975 64.6514  69.3975 64.6514  C 69.3975 64.6514  70.3931 66.3916  70.3931 66.3916  C 70.3931 66.3916  69.1867 67.0672  69.1867 67.0672  C 69.1867 67.0672  69.4561 69.7106  69.4561 69.7106  C 69.4561 69.7106  68.7768 70.3972  68.7768 70.3972  C 68.7768 70.3972  70.5629 72.1923  70.5629 72.1923  C 70.5629 72.1923  70.6332 73.3116  70.6332 73.3116  C 70.6332 73.3116  70.2467 73.6793  70.2467 73.6793  C 70.2467 73.6793  71.2656 74.8312  71.2656 74.8312  C 71.2656 74.8312  71.453 76.9514  71.453 76.9514  C 71.453 76.9514  73.2801 78.2172  73.2801 78.2172  C 73.2801 78.2172  75.441 77.6546  75.441 77.6546  C 75.441 77.6546  76.2141 77.7411  76.2141 77.7411  C 76.2141 77.7411  77.6664 79.0448  77.6664 79.0448  C 77.6664 79.0448  76.8758 80.116  76.8758 80.116  C 76.8758 80.116  74.8496 80.7598  74.8496 80.7598  C 74.8496 80.7598  75.5054 82.8376  75.5054 82.8376  C 75.5054 82.8376  75.0194 83.6223  75.0194 83.6223  C 75.0194 83.6223  73.7721 84.2987  73.7721 84.2987  C 73.7721 84.2987  72.7707 85.2404  72.7707 85.2404  C 72.7707 85.2404  72.7531 86.0307  72.7531 86.0307  C 72.7531 86.0307  70.6391 86.5395  70.6391 86.5395  C 70.6391 86.5395  69.3741 86.2743  69.3741 86.2743  C 69.3741 86.2743  68.2791 87.5355  68.2791 87.5355  C 68.2791 87.5355  67.5411 87.1457  67.5411 87.1457  C 67.5411 87.1457  67.02 86.074  67.02 86.074  C 67.02 86.074  66.1767 85.614  66.1767 85.614  C 66.1767 85.614  65.6614 86.0794  65.6614 86.0794  C 65.6614 86.0794  64.5897 88.9862  64.5897 88.9862  C 64.5897 88.9862  63.2135 90.5075  63.2135 90.5075  C 63.2135 90.5075  62.8329 92.0129  62.8329 92.0129  C 62.8329 92.0129  62.9675 92.6843  62.9675 92.6843  C 62.9675 92.6843  62.0774 92.8955  62.0774 92.8955  C 62.0774 92.8955  60.7481 92.2024  60.7481 92.2024  C 60.7481 92.2024  59.94 92.9117  59.94 92.9117  C 59.94 92.9117  56.2682 90.069  56.2682 90.069  C 56.2682 90.069  55.4073 90.383  55.4073 90.383  C 55.4073 90.383  54.2712 88.4124  54.2712 88.4124  C 54.2712 88.4124  53.3577 82.2911  53.3577 82.2911  C 53.3577 82.2911  52.1572 79.9213  52.1572 79.9213  C 52.1572 79.9213  51.3901 79.2558  51.3901 79.2558  C 51.3901 79.2558  49.5337 79.8076  49.5337 79.8076  C 49.5337 79.8076  46.7344 80.0024  46.7344 80.0024  C 46.7344 80.0024  46.1079 79.7644  46.1079 79.7644  C 46.1079 79.7644  44.8546 77.2976  44.8546 77.2976  C 44.8546 77.2976  41.7568 74.3121  41.7568 74.3121  C 41.7568 74.3121  40.4157 74.8042  40.4157 74.8042  C 40.4157 74.8042  40 75.4316  40 75.4316  C 40 75.4316  38.1215 75.3829  38.1215 75.3829  C 38.1215 75.3829  37.7174 74.7285  37.7174 74.7285  C 37.7174 74.7285  36.9503 75.1341  36.9503 75.1341  C 36.9503 75.1341  36.5111 76.4376  36.5111 76.4376  C 36.5111 76.4376  35.9314 76.6052  35.9314 76.6052  C 35.9314 76.6052  35.2579 75.9724  35.2579 75.9724  C 35.2579 75.9724  34.7308 76.4484  34.7308 76.4484  C 34.7308 76.4484  35.1934 76.973  35.1934 76.973  C 35.1934 76.973  35.3691 79.0665  35.3691 79.0665  C 35.3691 79.0665  34.6137 78.9583  34.6137 78.9583  C 34.6137 78.9583  34.0632 79.6562  34.0632 79.6562  C 34.0632 79.6562  32.7983 79.7373  32.7983 79.7373  C 32.7983 79.7373  32.2478 80.8897  32.2478 80.8897  C 32.2478 80.8897  33.0326 81.6201  33.0326 81.6201  C 33.0326 81.6201  32.6988 83.5682  32.6988 83.5682  C 32.6988 83.5682  32.201 83.579  32.201 83.579  C 32.201 83.579  31.6212 84.9211  31.6212 84.9211  C 31.6212 84.9211  32.119 85.0889  32.119 85.0889  C 32.119 85.0889  31.9316 87.3027  31.9316 87.3027  C 31.9316 87.3027  29.6653 88.6831  29.6653 88.6831  C 29.6653 88.6831  28.9919 90.1069  28.9919 90.1069  C 28.9919 90.1069  27.9436 91.0056  27.9436 91.0056  C 27.9436 91.0056  27.0828 90.5671  27.0828 90.5671  C 27.0828 90.5671  26.8368 91.1139  26.8368 91.1139  C 26.8368 91.1139  26.2863 90.4155  26.2863 90.4155  C 26.2863 90.4155  25.0566 91.0814  25.0566 91.0814  C 25.0566 91.0814  24.3129 89.1865  24.3129 89.1865  C 24.3129 89.1865  23.329 90.6808  23.329 90.6808  C 23.329 90.6808  23.1006 89.7008  23.1006 89.7008  C 23.1006 89.7008  24.1898 88.3691  24.1898 88.3691  C 24.1898 88.3691  24.3714 87.2215  24.3714 87.2215  C 24.3714 87.2215  23.5749 86.7939  23.5749 86.7939  C 23.5749 86.7939  24.2777 85.7439  24.2777 85.7439  C 24.2777 85.7439  23.9029 84.4881  23.9029 84.4881  C 23.9029 84.4881  23.4168 84.2176  23.4168 84.2176  C 23.4168 84.2176  22.1871 85.4408  22.1871 85.4408  C 22.1871 85.4408  22.7317 86.4475  22.7317 86.4475  C 22.7317 86.4475  23.7682 87.3406  23.7682 87.3406  C 23.7682 87.3406  22.9425 87.5463  22.9425 87.5463  C 22.9425 87.5463  22.4506 86.7777  22.4506 86.7777  C 22.4506 86.7777  21.8415 87.4326  21.8415 87.4326  C 21.8415 87.4326  22.3569 88.0281  22.3569 88.0281  C 22.3569 88.0281  22.1578 88.8076  22.1578 88.8076  C 22.1578 88.8076  21.0159 87.7845  21.0159 87.7845  C 21.0159 87.7845  21.5488 88.8563  21.5488 88.8563  C 21.5488 88.8563  20.9807 88.905  20.9807 88.905  C 20.9807 88.905  20.6352 87.4489  20.6352 87.4489  C 20.6352 87.4489  19.5753 87.5138  19.5753 87.5138  C 19.5753 87.5138  19.177 88.9213  19.177 88.9213  C 19.177 88.9213  17.959 89.1053  17.959 89.1053  C 17.959 89.1053  17.6427 90.1177  17.6427 90.1177  C 17.6427 90.1177  17.3148 89.4193  17.3148 89.4193  C 17.3148 89.4193  16.3603 89.598  16.3603 89.598  C 16.3603 89.598  15.0719 90.605  15.0719 90.605  C 15.0719 90.605  16.0616 91.4118  16.0616 91.4118  C 16.0616 91.4118  15.7336 92.1915  15.7336 92.1915  C 15.7336 92.1915  14.8728 92.4948  14.8728 92.4948  C 14.8728 92.4948  14.7849 93.8648  14.7849 93.8648  C 14.7849 93.8648  14.3106 94.6772  14.3106 94.6772  C 14.3106 94.6772  11.9506 96.1179  11.9506 96.1179  C 11.9506 96.1179  11.1718 95.468  11.1718 95.468  C 11.1718 95.468  11.4704 94.1193  11.4704 94.1193  C 11.4704 94.1193  11.119 92.511  11.119 92.511  C 11.119 92.511  12.5421 92.0616  12.5421 92.0616  C 12.5421 92.0616  12.9871 90.6591  12.9871 90.6591  C 12.9871 90.6591  12.179 90.134  12.179 90.134  C 12.179 90.134  11.3299 88.3745  11.3299 88.3745  C 11.3299 88.3745  10.1704 87.3731  10.1704 87.3731  C 10.1704 87.3731  8.97570000000002 87.844  8.97570000000002 87.844  C 8.97570000000002 87.844  8.40769999999998 87.3135  8.40769999999998 87.3135  C 8.40769999999998 87.3135  6.64499999999998 88.6127  6.64499999999998 88.6127  C 6.64499999999998 88.6127  6.60980000000001 89.8254  6.60980000000001 89.8254  C 6.60980000000001 89.8254  5.58499999999998 89.0458  5.58499999999998 89.0458  C 5.58499999999998 89.0458  4.47230000000002 89.376  4.47230000000002 89.376  C 4.47230000000002 89.376  3.49439999999998 92.1699  3.49439999999998 92.1699  C 3.49439999999998 92.1699  2.76830000000001 93.2041  2.76830000000001 93.2041  C 2.76830000000001 93.2041  1.66730000000001 93.1662  1.66730000000001 93.1662  C 1.66730000000001 93.1662  0.870799999999974 91.1952  0.870799999999974 91.1952  C 0.870799999999974 91.1952  0.993899999999996 90.2152  0.993899999999996 90.2152  C 0.993899999999996 90.2152  1.57940000000002 89.7766  1.57940000000002 89.7766  C 1.57940000000002 89.7766  0.683499999999981 87.5355  0.683499999999981 87.5355  C 0.683499999999981 87.5355  0.203300000000013 85.706  0.203300000000013 85.706  C 0.203300000000013 85.706  0.185699999999997 83.1244  0.185699999999997 83.1244  C 0.185699999999997 83.1244  1.79020000000003 82.6482  1.79020000000003 82.6482  C 1.79020000000003 82.6482  3.92189999999999 81.2955  3.92189999999999 81.2955  C 3.92189999999999 81.2955  4.10340000000002 80.8951  4.10340000000002 80.8951  C 4.10340000000002 80.8951  5.6026 81.1386  5.6026 81.1386  C 5.6026 81.1386  7.08420000000001 80.5543  7.08420000000001 80.5543  C 7.08420000000001 80.5543  7.63470000000001 79.1152  7.63470000000001 79.1152  C 7.63470000000001 79.1152  8.43110000000001 78.7744  8.43110000000001 78.7744  C 8.43110000000001 78.7744  8.32569999999998 77.303  8.32569999999998 77.303  C 8.32569999999998 77.303  9.20409999999998 77.6979  9.20409999999998 77.6979  C 9.20409999999998 77.6979  9.95370000000003 77.2651  9.95370000000003 77.2651  C 9.95370000000003 77.2651  10.5041 78.5039  10.5041 78.5039  C 10.5041 78.5039  10.8789 77.7141  10.8789 77.7141  C 10.8789 77.7141  12.788 77.3841  12.788 77.3841  C 12.788 77.3841  13.889 76.6755  13.889 76.6755  C 13.889 76.6755  14.0647 75.2152  14.0647 75.2152  C 14.0647 75.2152  13.2214 74.5284  13.2214 74.5284  C 13.2214 74.5284  12.8173 73.5874  12.8173 73.5874  C 12.8173 73.5874  13.1101 72.5762  13.1101 72.5762  C 13.1101 72.5762  15.0602 73.6307  15.0602 73.6307  C 15.0602 73.6307  15.3998 72.9331  15.3998 72.9331  C 15.3998 72.9331  16.3661 72.8574  16.3661 72.8574  C 16.3661 72.8574  18.5153 72.1328  18.5153 72.1328  C 18.5153 72.1328  18.7554 71.5164  18.7554 71.5164  C 18.7554 71.5164  20.5708 71.165  20.5708 71.165  C 20.5708 71.165  21.8767 70.3215  21.8767 70.3215  C 21.8767 70.3215  21.9645 69.5755  21.9645 69.5755  C 21.9645 69.5755  22.5677 70.0242  22.5677 70.0242  C 22.5677 70.0242  23.1065 69.6565  23.1065 69.6565  C 23.1065 69.6565  22.6497 69.0835  22.6497 69.0835  C 22.6497 69.0835  23.4285 68.1051  23.4285 68.1051  C 23.4285 68.1051  22.9249 67.078  22.9249 67.078  C 22.9249 67.078  21.5956 65.7322  21.5956 65.7322  C 21.5956 65.7322  22.679 64.9216  22.679 64.9216  C 22.679 64.9216  23.6628 64.927  23.6628 64.927  C 23.6628 64.927  24.3597 67.0294  24.3597 67.0294  C 24.3597 67.0294  26.2863 65.7052  26.2863 65.7052  C 26.2863 65.7052  26.8485 63.4463  26.8485 63.4463  C 26.8485 63.4463  26.4503 63.349  26.4503 63.349  C 26.4503 63.349  26.339 61.5821  26.339 61.5821  C 26.339 61.5821  27.6215 60.5826  27.6215 60.5826  C 27.6215 60.5826  28.2422 61.7334  28.2422 61.7334  C 28.2422 61.7334  29.5716 60.0207  29.5716 60.0207  C 29.5716 60.0207  30.3973 59.5669  30.3973 59.5669  C 30.3973 59.5669  30.45 59.5508  30.45 59.5508  C 30.45 59.5508  30.5378 59.5292  30.5378 59.5292  C 30.5378 59.5292  30.6023 59.4589  30.6023 59.4589  C 30.6023 59.4589  30.4208 60.4961  30.4208 60.4961  C 30.4208 60.4961  30.9302 60.6474  30.9302 60.6474  C 30.9302 60.6474  32.8862 58.627  32.8862 58.627  C 32.8862 58.627  33.9285 58.1625  33.9285 58.1625  C 33.9285 58.1625  32.7925 54.3656  32.7925 54.3656  C 32.7925 54.3656  32.7573 52.2705  32.7573 52.2705  C 32.7573 52.2705  31.7325 50.3539  31.7325 50.3539  C 31.7325 50.3539  31.2991 47.4645  31.2991 47.4645  C 31.2991 47.4645  31.2055 44.5446  31.2055 44.5446  C 31.2055 44.5446  30.8599 43.3789  30.8599 43.3789  C 30.8599 43.3789  29.472 41.6792  29.472 41.6792  C 29.472 41.6792  29.1792 39.1382  29.1792 39.1382  C 29.1792 39.1382  29.2554 38.3183  29.2554 38.3183  C 29.2554 38.3183  28.6054 37.9946  28.6054 37.9946  C 28.6054 37.9946  28.7518 36.9104  28.7518 36.9104  C 28.7518 36.9104  29.2495 36.6946  29.2495 36.6946  C 29.2495 36.6946  28.986 35.9126  28.986 35.9126  C 28.986 35.9126  29.9113 35.6591  29.9113 35.6591  C 29.9113 35.6591  30.2802 37.6871  30.2802 37.6871  C 30.2802 37.6871  30.819 37.4552  30.819 37.4552  C 30.819 37.4552  30.9654 35.6106  30.9654 35.6106  C 30.9654 35.6106  31.3108 35.4164  31.3108 35.4164  C 31.3108 35.4164  31.8262 37.0291  31.8262 37.0291  C 31.8262 37.0291  31.3928 38.2481  31.3928 38.2481  C 31.3928 38.2481  32.1541 38.2535  32.1541 38.2535  C 32.1541 38.2535  32.4704 36.549  32.4704 36.549  C 32.4704 36.549  33.7646 36.6946  33.7646 36.6946  C 33.7646 36.6946  34.6078 35.7994  34.6078 35.7994  C 34.6078 35.7994  34.93 34.3541  34.93 34.3541  C 34.93 34.3541  33.1262 33.6369  33.1262 33.6369  C 33.1262 33.6369  34.7601 31.8413  34.7601 31.8413  C 34.7601 31.8413  34.9885 30.6445  34.9885 30.6445  C 34.9885 30.6445  35.7205 29.4045  35.7205 29.4045  C 35.7205 29.4045  36.4349 28.79  36.4349 28.79  C 36.4349 28.79  36.7746 26.5154  36.7746 26.5154  C 36.7746 26.5154  37.6882 23.282  37.6882 23.282  C 37.6882 23.282  36.2066 23.0988  36.2066 23.0988  C 36.2066 23.0988  35.8844 21.5257  35.8844 21.5257  C 35.8844 21.5257  34.2565 19.2038  34.2565 19.2038  C 34.2565 19.2038  32.4001 18.7514  32.4001 18.7514  C 32.4001 18.7514  31.7735 19.1876  31.7735 19.1876  C 31.7735 19.1876  32.0956 20.836  32.0956 20.836  C 32.0956 20.836  31.8262 21.2347  31.8262 21.2347  C 31.8262 21.2347  30.3505 20.8522  30.3505 20.8522  C 30.3505 20.8522  30.2333 18.5089  30.2333 18.5089  C 30.2333 18.5089  30.8775 17.1463  30.8775 17.1463  C 30.8775 17.1463  31.0474 14.9491  31.0474 14.9491  C 31.0474 14.9491  31.6036 14.2705  31.6036 14.2705  C 31.6036 14.2705  31.5275 13.409  31.5275 13.409  C 31.5275 13.409  32.2244 11.5461  32.2244 11.5461  C 32.2244 11.5461  33.6943 10.9755  33.6943 10.9755  C 33.6943 10.9755  34.2389 9.28519999999997  34.2389 9.28519999999997  C 34.2389 9.28519999999997  34.8186 9.03769999999997  34.8186 9.03769999999997  C 34.8186 9.03769999999997  34.7836 7.42840000000001  34.7836 7.42840000000001  C 34.7836 7.42840000000001  35.1759 4.9152  35.1759 4.9152  C 35.1759 4.9152  34.438 4.05430000000001  34.438 4.05430000000001  C 34.438 4.05430000000001  33.7411 3.89830000000001  33.7411 3.89830000000001  C 33.7411 3.89830000000001  33.6533 3.06440000000001  33.6533 3.06440000000001  C 33.6533 3.06440000000001  33.4015 0.896299999999996  33.4015 0.896299999999996  C 33.4015 0.896299999999996  35.0295 0.907100000000014  35.0295 0.907100000000014  C 35.0295 0.907100000000014  36.1304 0.245499999999993  36.1304 0.245499999999993  C 36.1304 0.245499999999993  36.798 0.503700000000009  36.798 0.503700000000009  C 36.798 0.503700000000009  39.4612 2.3596  39.4612 2.3596  C 39.4612 2.3596  39.9882 0.928599999999989  39.9882 0.928599999999989  C 39.9882 0.928599999999989  41.136 2.3973  41.136 2.3973  C 41.136 2.3973  40.8198 3.48410000000001  40.8198 3.48410000000001  C 40.8198 3.48410000000001  39.4495 5.03360000000001  39.4495 5.03360000000001  C 39.4495 5.03360000000001  38.0278 5.9538  38.0278 5.9538  C 38.0278 5.9538  40.2166 8.887  40.2166 8.887  C 40.2166 8.887  42.1374 9.40910000000002  42.1374 9.40910000000002  C 42.1374 9.40910000000002  41.9324 10.5395  41.9324 10.5395  C 41.9324 10.5395  42.5239 10.7171  42.5239 10.7171  C 42.5239 10.7171  42.2721 11.4869  42.2721 11.4869  C 42.2721 11.4869  43.1915 11.783  43.1915 11.783  C 43.1915 11.783  44.3686 13.0698  44.3686 13.0698  C 44.3686 13.0698  44.9952 12.6015  44.9952 12.6015  C 44.9952 12.6015  45.0303 11.7346  45.0303 11.7346  Z M 31.6023 58.4589  C 31.6023 58.4589  31.5378 59.5292  31.5378 59.5292  C 31.5378 59.5292  30.45 59.5508  30.45 59.5508  C 30.45 59.5508  30.3973 59.5669  30.3973 59.5669  C 30.3973 59.5669  31.6023 58.4589  31.6023 58.4589  Z " fill-rule="nonzero" fill="#ffffff" stroke="none" transform="matrix(1 0 0 1 385 298 )" />
    <path d="M 45.0303 11.7346  C 45.0303 11.7346  45.7096 11.4332  45.7096 11.4332  C 45.7096 11.4332  45.5398 12.8167  45.5398 12.8167  C 45.5398 12.8167  44.6965 13.3875  44.6965 13.3875  C 44.6965 13.3875  44.5677 15.2667  44.5677 15.2667  C 44.5677 15.2667  45.6335 14.4429  45.6335 14.4429  C 45.6335 14.4429  45.9731 13.6783  45.9731 13.6783  C 45.9731 13.6783  46.7754 13.506  46.7754 13.506  C 46.7754 13.506  46.2893 14.4052  46.2893 14.4052  C 46.2893 14.4052  46.7403 15.8968  46.7403 15.8968  C 46.7403 15.8968  47.689 17.2701  47.689 17.2701  C 47.689 17.2701  46.8867 17.6471  46.8867 17.6471  C 46.8867 17.6471  46.7169 18.9236  46.7169 18.9236  C 46.7169 18.9236  46.1254 19.9256  46.1254 19.9256  C 46.1254 19.9256  46.8281 22.5277  46.8281 22.5277  C 46.8281 22.5277  48.5674 22.7433  48.5674 22.7433  C 48.5674 22.7433  49.0066 23.891  49.0066 23.891  C 49.0066 23.891  50.2656 22.2583  50.2656 22.2583  C 50.2656 22.2583  50.9216 22.8942  50.9216 22.8942  C 50.9216 22.8942  49.7152 24.6884  49.7152 24.6884  C 49.7152 24.6884  49.399 25.5669  49.399 25.5669  C 49.399 25.5669  50.4765 26.0574  50.4765 26.0574  C 50.4765 26.0574  50.09 28.0138  50.09 28.0138  C 50.09 28.0138  50.8571 29.7926  50.8571 29.7926  C 50.8571 29.7926  51.5365 30.3048  51.5365 30.3048  C 51.5365 30.3048  51.636 31.8305  51.636 31.8305  C 51.636 31.8305  51.0387 32.9736  51.0387 32.9736  C 51.0387 32.9736  51.6946 32.8495  51.6946 32.8495  C 51.6946 32.8495  52.9712 33.3187  52.9712 33.3187  C 52.9712 33.3187  53.7032 33.1893  53.7032 33.1893  C 53.7032 33.1893  53.8672 32.0031  53.8672 32.0031  C 53.8672 32.0031  53.1293 29.7064  53.1293 29.7064  C 53.1293 29.7064  54.1893 29.6039  54.1893 29.6039  C 54.1893 29.6039  54.5231 29.1296  54.5231 29.1296  C 54.5231 29.1296  55.6709 29.1512  55.6709 29.1512  C 55.6709 29.1512  56.0281 28.5151  56.0281 28.5151  C 56.0281 28.5151  55.6884 27.8251  55.6884 27.8251  C 55.6884 27.8251  57.1348 27.3239  57.1348 27.3239  C 57.1348 27.3239  57.3867 26.6232  57.3867 26.6232  C 57.3867 26.6232  59.1318 28.3102  59.1318 28.3102  C 59.1318 28.3102  59.1142 29.1242  59.1142 29.1242  C 59.1142 29.1242  59.8989 29.4638  59.8989 29.4638  C 59.8989 29.4638  61.1873 31.0272  61.1873 31.0272  C 61.1873 31.0272  61.5152 33.0491  61.5152 33.0491  C 61.5152 33.0491  61.0936 34.5643  61.0936 34.5643  C 61.0936 34.5643  61.1698 36.1661  61.1698 36.1661  C 61.1698 36.1661  62.2062 36.7701  62.2062 36.7701  C 62.2062 36.7701  63.2603 38.1726  63.2603 38.1726  C 63.2603 38.1726  63.5766 39.0896  63.5766 39.0896  C 63.5766 39.0896  63.6117 40.6271  63.6117 40.6271  C 63.6117 40.6271  61.9486 42.4563  61.9486 42.4563  C 61.9486 42.4563  61.8841 43.5624  61.8841 43.5624  C 61.8841 43.5624  62.2765 44.0535  62.2765 44.0535  C 62.2765 44.0535  63.7699 44.1398  63.7699 44.1398  C 63.7699 44.1398  63.6293 46.2554  63.6293 46.2554  C 63.6293 46.2554  63.1725 46.25  63.1725 46.25  C 63.1725 46.25  63.5122 49.5117  63.5122 49.5117  C 63.5122 49.5117  64.0977 49.4145  64.0977 49.4145  C 64.0977 49.4145  63.559 51.1583  63.559 51.1583  C 63.559 51.1583  62.4053 51.1205  62.4053 51.1205  C 62.4053 51.1205  61.1463 51.8548  61.1463 51.8548  C 61.1463 51.8548  61.7319 53.5934  61.7319 53.5934  C 61.7319 53.5934  62.5634 53.9444  62.5634 53.9444  C 62.5634 53.9444  63.7815 55.2567  63.7815 55.2567  C 63.7815 55.2567  64.8532 55.4024  64.8532 55.4024  C 64.8532 55.4024  67.0844 55.1001  67.0844 55.1001  C 67.0844 55.1001  67.3479 58.2435  67.3479 58.2435  C 67.3479 58.2435  66.7096 58.7459  66.7096 58.7459  C 66.7096 58.7459  66.856 62.6898  66.856 62.6898  C 66.856 62.6898  68.0507 63.8678  68.0507 63.8678  C 68.0507 63.8678  69.3975 64.6514  69.3975 64.6514  C 69.3975 64.6514  70.3931 66.3916  70.3931 66.3916  C 70.3931 66.3916  69.1867 67.0672  69.1867 67.0672  C 69.1867 67.0672  69.4561 69.7106  69.4561 69.7106  C 69.4561 69.7106  68.7768 70.3972  68.7768 70.3972  C 68.7768 70.3972  70.5629 72.1923  70.5629 72.1923  C 70.5629 72.1923  70.6332 73.3116  70.6332 73.3116  C 70.6332 73.3116  70.2467 73.6793  70.2467 73.6793  C 70.2467 73.6793  71.2656 74.8312  71.2656 74.8312  C 71.2656 74.8312  71.453 76.9514  71.453 76.9514  C 71.453 76.9514  73.2801 78.2172  73.2801 78.2172  C 73.2801 78.2172  75.441 77.6546  75.441 77.6546  C 75.441 77.6546  76.2141 77.7411  76.2141 77.7411  C 76.2141 77.7411  77.6664 79.0448  77.6664 79.0448  C 77.6664 79.0448  76.8758 80.116  76.8758 80.116  C 76.8758 80.116  74.8496 80.7598  74.8496 80.7598  C 74.8496 80.7598  75.5054 82.8376  75.5054 82.8376  C 75.5054 82.8376  75.0194 83.6223  75.0194 83.6223  C 75.0194 83.6223  73.7721 84.2987  73.7721 84.2987  C 73.7721 84.2987  72.7707 85.2404  72.7707 85.2404  C 72.7707 85.2404  72.7531 86.0307  72.7531 86.0307  C 72.7531 86.0307  70.6391 86.5395  70.6391 86.5395  C 70.6391 86.5395  69.3741 86.2743  69.3741 86.2743  C 69.3741 86.2743  68.2791 87.5355  68.2791 87.5355  C 68.2791 87.5355  67.5411 87.1457  67.5411 87.1457  C 67.5411 87.1457  67.02 86.074  67.02 86.074  C 67.02 86.074  66.1767 85.614  66.1767 85.614  C 66.1767 85.614  65.6614 86.0794  65.6614 86.0794  C 65.6614 86.0794  64.5897 88.9862  64.5897 88.9862  C 64.5897 88.9862  63.2135 90.5075  63.2135 90.5075  C 63.2135 90.5075  62.8329 92.0129  62.8329 92.0129  C 62.8329 92.0129  62.9675 92.6843  62.9675 92.6843  C 62.9675 92.6843  62.0774 92.8955  62.0774 92.8955  C 62.0774 92.8955  60.7481 92.2024  60.7481 92.2024  C 60.7481 92.2024  59.94 92.9117  59.94 92.9117  C 59.94 92.9117  56.2682 90.069  56.2682 90.069  C 56.2682 90.069  55.4073 90.383  55.4073 90.383  C 55.4073 90.383  54.2712 88.4124  54.2712 88.4124  C 54.2712 88.4124  53.3577 82.2911  53.3577 82.2911  C 53.3577 82.2911  52.1572 79.9213  52.1572 79.9213  C 52.1572 79.9213  51.3901 79.2558  51.3901 79.2558  C 51.3901 79.2558  49.5337 79.8076  49.5337 79.8076  C 49.5337 79.8076  46.7344 80.0024  46.7344 80.0024  C 46.7344 80.0024  46.1079 79.7644  46.1079 79.7644  C 46.1079 79.7644  44.8546 77.2976  44.8546 77.2976  C 44.8546 77.2976  41.7568 74.3121  41.7568 74.3121  C 41.7568 74.3121  40.4157 74.8042  40.4157 74.8042  C 40.4157 74.8042  40 75.4316  40 75.4316  C 40 75.4316  38.1215 75.3829  38.1215 75.3829  C 38.1215 75.3829  37.7174 74.7285  37.7174 74.7285  C 37.7174 74.7285  36.9503 75.1341  36.9503 75.1341  C 36.9503 75.1341  36.5111 76.4376  36.5111 76.4376  C 36.5111 76.4376  35.9314 76.6052  35.9314 76.6052  C 35.9314 76.6052  35.2579 75.9724  35.2579 75.9724  C 35.2579 75.9724  34.7308 76.4484  34.7308 76.4484  C 34.7308 76.4484  35.1934 76.973  35.1934 76.973  C 35.1934 76.973  35.3691 79.0665  35.3691 79.0665  C 35.3691 79.0665  34.6137 78.9583  34.6137 78.9583  C 34.6137 78.9583  34.0632 79.6562  34.0632 79.6562  C 34.0632 79.6562  32.7983 79.7373  32.7983 79.7373  C 32.7983 79.7373  32.2478 80.8897  32.2478 80.8897  C 32.2478 80.8897  33.0326 81.6201  33.0326 81.6201  C 33.0326 81.6201  32.6988 83.5682  32.6988 83.5682  C 32.6988 83.5682  32.201 83.579  32.201 83.579  C 32.201 83.579  31.6212 84.9211  31.6212 84.9211  C 31.6212 84.9211  32.119 85.0889  32.119 85.0889  C 32.119 85.0889  31.9316 87.3027  31.9316 87.3027  C 31.9316 87.3027  29.6653 88.6831  29.6653 88.6831  C 29.6653 88.6831  28.9919 90.1069  28.9919 90.1069  C 28.9919 90.1069  27.9436 91.0056  27.9436 91.0056  C 27.9436 91.0056  27.0828 90.5671  27.0828 90.5671  C 27.0828 90.5671  26.8368 91.1139  26.8368 91.1139  C 26.8368 91.1139  26.2863 90.4155  26.2863 90.4155  C 26.2863 90.4155  25.0566 91.0814  25.0566 91.0814  C 25.0566 91.0814  24.3129 89.1865  24.3129 89.1865  C 24.3129 89.1865  23.329 90.6808  23.329 90.6808  C 23.329 90.6808  23.1006 89.7008  23.1006 89.7008  C 23.1006 89.7008  24.1898 88.3691  24.1898 88.3691  C 24.1898 88.3691  24.3714 87.2215  24.3714 87.2215  C 24.3714 87.2215  23.5749 86.7939  23.5749 86.7939  C 23.5749 86.7939  24.2777 85.7439  24.2777 85.7439  C 24.2777 85.7439  23.9029 84.4881  23.9029 84.4881  C 23.9029 84.4881  23.4168 84.2176  23.4168 84.2176  C 23.4168 84.2176  22.1871 85.4408  22.1871 85.4408  C 22.1871 85.4408  22.7317 86.4475  22.7317 86.4475  C 22.7317 86.4475  23.7682 87.3406  23.7682 87.3406  C 23.7682 87.3406  22.9425 87.5463  22.9425 87.5463  C 22.9425 87.5463  22.4506 86.7777  22.4506 86.7777  C 22.4506 86.7777  21.8415 87.4326  21.8415 87.4326  C 21.8415 87.4326  22.3569 88.0281  22.3569 88.0281  C 22.3569 88.0281  22.1578 88.8076  22.1578 88.8076  C 22.1578 88.8076  21.0159 87.7845  21.0159 87.7845  C 21.0159 87.7845  21.5488 88.8563  21.5488 88.8563  C 21.5488 88.8563  20.9807 88.905  20.9807 88.905  C 20.9807 88.905  20.6352 87.4489  20.6352 87.4489  C 20.6352 87.4489  19.5753 87.5138  19.5753 87.5138  C 19.5753 87.5138  19.177 88.9213  19.177 88.9213  C 19.177 88.9213  17.959 89.1053  17.959 89.1053  C 17.959 89.1053  17.6427 90.1177  17.6427 90.1177  C 17.6427 90.1177  17.3148 89.4193  17.3148 89.4193  C 17.3148 89.4193  16.3603 89.598  16.3603 89.598  C 16.3603 89.598  15.0719 90.605  15.0719 90.605  C 15.0719 90.605  16.0616 91.4118  16.0616 91.4118  C 16.0616 91.4118  15.7336 92.1915  15.7336 92.1915  C 15.7336 92.1915  14.8728 92.4948  14.8728 92.4948  C 14.8728 92.4948  14.7849 93.8648  14.7849 93.8648  C 14.7849 93.8648  14.3106 94.6772  14.3106 94.6772  C 14.3106 94.6772  11.9506 96.1179  11.9506 96.1179  C 11.9506 96.1179  11.1718 95.468  11.1718 95.468  C 11.1718 95.468  11.4704 94.1193  11.4704 94.1193  C 11.4704 94.1193  11.119 92.511  11.119 92.511  C 11.119 92.511  12.5421 92.0616  12.5421 92.0616  C 12.5421 92.0616  12.9871 90.6591  12.9871 90.6591  C 12.9871 90.6591  12.179 90.134  12.179 90.134  C 12.179 90.134  11.3299 88.3745  11.3299 88.3745  C 11.3299 88.3745  10.1704 87.3731  10.1704 87.3731  C 10.1704 87.3731  8.97570000000002 87.844  8.97570000000002 87.844  C 8.97570000000002 87.844  8.40769999999998 87.3135  8.40769999999998 87.3135  C 8.40769999999998 87.3135  6.64499999999998 88.6127  6.64499999999998 88.6127  C 6.64499999999998 88.6127  6.60980000000001 89.8254  6.60980000000001 89.8254  C 6.60980000000001 89.8254  5.58499999999998 89.0458  5.58499999999998 89.0458  C 5.58499999999998 89.0458  4.47230000000002 89.376  4.47230000000002 89.376  C 4.47230000000002 89.376  3.49439999999998 92.1699  3.49439999999998 92.1699  C 3.49439999999998 92.1699  2.76830000000001 93.2041  2.76830000000001 93.2041  C 2.76830000000001 93.2041  1.66730000000001 93.1662  1.66730000000001 93.1662  C 1.66730000000001 93.1662  0.870799999999974 91.1952  0.870799999999974 91.1952  C 0.870799999999974 91.1952  0.993899999999996 90.2152  0.993899999999996 90.2152  C 0.993899999999996 90.2152  1.57940000000002 89.7766  1.57940000000002 89.7766  C 1.57940000000002 89.7766  0.683499999999981 87.5355  0.683499999999981 87.5355  C 0.683499999999981 87.5355  0.203300000000013 85.706  0.203300000000013 85.706  C 0.203300000000013 85.706  0.185699999999997 83.1244  0.185699999999997 83.1244  C 0.185699999999997 83.1244  1.79020000000003 82.6482  1.79020000000003 82.6482  C 1.79020000000003 82.6482  3.92189999999999 81.2955  3.92189999999999 81.2955  C 3.92189999999999 81.2955  4.10340000000002 80.8951  4.10340000000002 80.8951  C 4.10340000000002 80.8951  5.6026 81.1386  5.6026 81.1386  C 5.6026 81.1386  7.08420000000001 80.5543  7.08420000000001 80.5543  C 7.08420000000001 80.5543  7.63470000000001 79.1152  7.63470000000001 79.1152  C 7.63470000000001 79.1152  8.43110000000001 78.7744  8.43110000000001 78.7744  C 8.43110000000001 78.7744  8.32569999999998 77.303  8.32569999999998 77.303  C 8.32569999999998 77.303  9.20409999999998 77.6979  9.20409999999998 77.6979  C 9.20409999999998 77.6979  9.95370000000003 77.2651  9.95370000000003 77.2651  C 9.95370000000003 77.2651  10.5041 78.5039  10.5041 78.5039  C 10.5041 78.5039  10.8789 77.7141  10.8789 77.7141  C 10.8789 77.7141  12.788 77.3841  12.788 77.3841  C 12.788 77.3841  13.889 76.6755  13.889 76.6755  C 13.889 76.6755  14.0647 75.2152  14.0647 75.2152  C 14.0647 75.2152  13.2214 74.5284  13.2214 74.5284  C 13.2214 74.5284  12.8173 73.5874  12.8173 73.5874  C 12.8173 73.5874  13.1101 72.5762  13.1101 72.5762  C 13.1101 72.5762  15.0602 73.6307  15.0602 73.6307  C 15.0602 73.6307  15.3998 72.9331  15.3998 72.9331  C 15.3998 72.9331  16.3661 72.8574  16.3661 72.8574  C 16.3661 72.8574  18.5153 72.1328  18.5153 72.1328  C 18.5153 72.1328  18.7554 71.5164  18.7554 71.5164  C 18.7554 71.5164  20.5708 71.165  20.5708 71.165  C 20.5708 71.165  21.8767 70.3215  21.8767 70.3215  C 21.8767 70.3215  21.9645 69.5755  21.9645 69.5755  C 21.9645 69.5755  22.5677 70.0242  22.5677 70.0242  C 22.5677 70.0242  23.1065 69.6565  23.1065 69.6565  C 23.1065 69.6565  22.6497 69.0835  22.6497 69.0835  C 22.6497 69.0835  23.4285 68.1051  23.4285 68.1051  C 23.4285 68.1051  22.9249 67.078  22.9249 67.078  C 22.9249 67.078  21.5956 65.7322  21.5956 65.7322  C 21.5956 65.7322  22.679 64.9216  22.679 64.9216  C 22.679 64.9216  23.6628 64.927  23.6628 64.927  C 23.6628 64.927  24.3597 67.0294  24.3597 67.0294  C 24.3597 67.0294  26.2863 65.7052  26.2863 65.7052  C 26.2863 65.7052  26.8485 63.4463  26.8485 63.4463  C 26.8485 63.4463  26.4503 63.349  26.4503 63.349  C 26.4503 63.349  26.339 61.5821  26.339 61.5821  C 26.339 61.5821  27.6215 60.5826  27.6215 60.5826  C 27.6215 60.5826  28.2422 61.7334  28.2422 61.7334  C 28.2422 61.7334  29.5716 60.0207  29.5716 60.0207  C 29.5716 60.0207  30.3973 59.5669  30.3973 59.5669  C 30.3973 59.5669  30.45 59.5508  30.45 59.5508  C 30.45 59.5508  30.5378 59.5292  30.5378 59.5292  C 30.5378 59.5292  30.6023 59.4589  30.6023 59.4589  C 30.6023 59.4589  30.4208 60.4961  30.4208 60.4961  C 30.4208 60.4961  30.9302 60.6474  30.9302 60.6474  C 30.9302 60.6474  32.8862 58.627  32.8862 58.627  C 32.8862 58.627  33.9285 58.1625  33.9285 58.1625  C 33.9285 58.1625  32.7925 54.3656  32.7925 54.3656  C 32.7925 54.3656  32.7573 52.2705  32.7573 52.2705  C 32.7573 52.2705  31.7325 50.3539  31.7325 50.3539  C 31.7325 50.3539  31.2991 47.4645  31.2991 47.4645  C 31.2991 47.4645  31.2055 44.5446  31.2055 44.5446  C 31.2055 44.5446  30.8599 43.3789  30.8599 43.3789  C 30.8599 43.3789  29.472 41.6792  29.472 41.6792  C 29.472 41.6792  29.1792 39.1382  29.1792 39.1382  C 29.1792 39.1382  29.2554 38.3183  29.2554 38.3183  C 29.2554 38.3183  28.6054 37.9946  28.6054 37.9946  C 28.6054 37.9946  28.7518 36.9104  28.7518 36.9104  C 28.7518 36.9104  29.2495 36.6946  29.2495 36.6946  C 29.2495 36.6946  28.986 35.9126  28.986 35.9126  C 28.986 35.9126  29.9113 35.6591  29.9113 35.6591  C 29.9113 35.6591  30.2802 37.6871  30.2802 37.6871  C 30.2802 37.6871  30.819 37.4552  30.819 37.4552  C 30.819 37.4552  30.9654 35.6106  30.9654 35.6106  C 30.9654 35.6106  31.3108 35.4164  31.3108 35.4164  C 31.3108 35.4164  31.8262 37.0291  31.8262 37.0291  C 31.8262 37.0291  31.3928 38.2481  31.3928 38.2481  C 31.3928 38.2481  32.1541 38.2535  32.1541 38.2535  C 32.1541 38.2535  32.4704 36.549  32.4704 36.549  C 32.4704 36.549  33.7646 36.6946  33.7646 36.6946  C 33.7646 36.6946  34.6078 35.7994  34.6078 35.7994  C 34.6078 35.7994  34.93 34.3541  34.93 34.3541  C 34.93 34.3541  33.1262 33.6369  33.1262 33.6369  C 33.1262 33.6369  34.7601 31.8413  34.7601 31.8413  C 34.7601 31.8413  34.9885 30.6445  34.9885 30.6445  C 34.9885 30.6445  35.7205 29.4045  35.7205 29.4045  C 35.7205 29.4045  36.4349 28.79  36.4349 28.79  C 36.4349 28.79  36.7746 26.5154  36.7746 26.5154  C 36.7746 26.5154  37.6882 23.282  37.6882 23.282  C 37.6882 23.282  36.2066 23.0988  36.2066 23.0988  C 36.2066 23.0988  35.8844 21.5257  35.8844 21.5257  C 35.8844 21.5257  34.2565 19.2038  34.2565 19.2038  C 34.2565 19.2038  32.4001 18.7514  32.4001 18.7514  C 32.4001 18.7514  31.7735 19.1876  31.7735 19.1876  C 31.7735 19.1876  32.0956 20.836  32.0956 20.836  C 32.0956 20.836  31.8262 21.2347  31.8262 21.2347  C 31.8262 21.2347  30.3505 20.8522  30.3505 20.8522  C 30.3505 20.8522  30.2333 18.5089  30.2333 18.5089  C 30.2333 18.5089  30.8775 17.1463  30.8775 17.1463  C 30.8775 17.1463  31.0474 14.9491  31.0474 14.9491  C 31.0474 14.9491  31.6036 14.2705  31.6036 14.2705  C 31.6036 14.2705  31.5275 13.409  31.5275 13.409  C 31.5275 13.409  32.2244 11.5461  32.2244 11.5461  C 32.2244 11.5461  33.6943 10.9755  33.6943 10.9755  C 33.6943 10.9755  34.2389 9.28519999999997  34.2389 9.28519999999997  C 34.2389 9.28519999999997  34.8186 9.03769999999997  34.8186 9.03769999999997  C 34.8186 9.03769999999997  34.7836 7.42840000000001  34.7836 7.42840000000001  C 34.7836 7.42840000000001  35.1759 4.9152  35.1759 4.9152  C 35.1759 4.9152  34.438 4.05430000000001  34.438 4.05430000000001  C 34.438 4.05430000000001  33.7411 3.89830000000001  33.7411 3.89830000000001  C 33.7411 3.89830000000001  33.6533 3.06440000000001  33.6533 3.06440000000001  C 33.6533 3.06440000000001  33.4015 0.896299999999996  33.4015 0.896299999999996  C 33.4015 0.896299999999996  35.0295 0.907100000000014  35.0295 0.907100000000014  C 35.0295 0.907100000000014  36.1304 0.245499999999993  36.1304 0.245499999999993  C 36.1304 0.245499999999993  36.798 0.503700000000009  36.798 0.503700000000009  C 36.798 0.503700000000009  39.4612 2.3596  39.4612 2.3596  C 39.4612 2.3596  39.9882 0.928599999999989  39.9882 0.928599999999989  C 39.9882 0.928599999999989  41.136 2.3973  41.136 2.3973  C 41.136 2.3973  40.8198 3.48410000000001  40.8198 3.48410000000001  C 40.8198 3.48410000000001  39.4495 5.03360000000001  39.4495 5.03360000000001  C 39.4495 5.03360000000001  38.0278 5.9538  38.0278 5.9538  C 38.0278 5.9538  40.2166 8.887  40.2166 8.887  C 40.2166 8.887  42.1374 9.40910000000002  42.1374 9.40910000000002  C 42.1374 9.40910000000002  41.9324 10.5395  41.9324 10.5395  C 41.9324 10.5395  42.5239 10.7171  42.5239 10.7171  C 42.5239 10.7171  42.2721 11.4869  42.2721 11.4869  C 42.2721 11.4869  43.1915 11.783  43.1915 11.783  C 43.1915 11.783  44.3686 13.0698  44.3686 13.0698  C 44.3686 13.0698  44.9952 12.6015  44.9952 12.6015  C 44.9952 12.6015  45.0303 11.7346  45.0303 11.7346  Z " stroke-width="2" stroke="#666666" fill="none" transform="matrix(1 0 0 1 385 298 )" mask="url(#clip33)" />
    <path d="M 31.6023 58.4589  C 31.6023 58.4589  31.5378 59.5292  31.5378 59.5292  C 31.5378 59.5292  30.45 59.5508  30.45 59.5508  C 30.45 59.5508  30.3973 59.5669  30.3973 59.5669  C 30.3973 59.5669  31.6023 58.4589  31.6023 58.4589  Z " stroke-width="2" stroke="#666666" fill="none" transform="matrix(1 0 0 1 385 298 )" mask="url(#clip33)" />
  </g>
</svg>