<?xml version="1.0" encoding="utf-8"?>
<svg version="1.1" xmlns:xlink="http://www.w3.org/1999/xlink" width="98px" height="133px" xmlns="http://www.w3.org/2000/svg">
  <defs>
    <mask fill="white" id="clip34">
      <path d="M 11.9615 49.2534  C 11.9615 49.2534  12.834 48.3254  12.834 48.3254  C 12.834 48.3254  13.3377 48.6565  13.3377 48.6565  C 13.3377 48.6565  13.572 49.8667  13.572 49.8667  C 13.572 49.8667  14.6495 50.3986  14.6495 50.3986  C 14.6495 50.3986  14.4328 49.2372  14.4328 49.2372  C 14.4328 49.2372  14.9247 48.3852  14.9247 48.3852  C 14.9247 48.3852  14.5909 46.9961  14.5909 46.9961  C 14.5909 46.9961  15.1824 46.2961  15.1824 46.2961  C 15.1824 46.2961  16.3302 46.893  16.3302 46.893  C 16.3302 46.893  17.5307 45.9814  17.5307 45.9814  C 17.5307 45.9814  18.8131 45.9597  18.8131 45.9597  C 18.8131 45.9597  18.2217 44.0446  18.2217 44.0446  C 18.2217 44.0446  18.7487 42.1948  18.7487 42.1948  C 18.7487 42.1948  19.5159 40.7954  19.5159 40.7954  C 19.5159 40.7954  20.2537 38.5665  20.2537 38.5665  C 20.2537 38.5665  19.8556 36.5873  19.8556 36.5873  C 19.8556 36.5873  21.2551 35.5247  21.2551 35.5247  C 21.2551 35.5247  23.2111 35.0529  23.2111 35.0529  C 23.2111 35.0529  23.6796 34.0229  23.6796 34.0229  C 23.6796 34.0229  23.2814 32.0444  23.2814 32.0444  C 23.2814 32.0444  23.7088 30.8195  23.7088 30.8195  C 23.7088 30.8195  23.3926 30.4835  23.3926 30.4835  C 23.3926 30.4835  23.8143 29.2315  23.8143 29.2315  C 23.8143 29.2315  25.2666 29.4916  25.2666 29.4916  C 25.2666 29.4916  25.5242 30.0986  25.5242 30.0986  C 25.5242 30.0986  24.9445 31.0525  24.9445 31.0525  C 24.9445 31.0525  25.899 31.9793  25.899 31.9793  C 25.899 31.9793  26.3675 31.4482  26.3675 31.4482  C 26.3675 31.4482  27.6734 31.9793  27.6734 31.9793  C 27.6734 31.9793  27.2108 30.8357  27.2108 30.8357  C 27.2108 30.8357  26.3792 30.6948  26.3792 30.6948  C 26.3792 30.6948  26.5197 30.0552  26.5197 30.0552  C 26.5197 30.0552  28.0307 30.646  28.0307 30.646  C 28.0307 30.646  28.2239 31.4753  28.2239 31.4753  C 28.2239 31.4753  29.032 31.2639  29.032 31.2639  C 29.032 31.2639  28.5519 30.6731  28.5519 30.6731  C 28.5519 30.6731  29.1843 28.5812  29.1843 28.5812  C 29.1843 28.5812  29.2488 26.9339  29.2488 26.9339  C 29.2488 26.9339  30.0217 26.9556  30.0217 26.9556  C 30.0217 26.9556  30.4551 26.1537  30.4551 26.1537  C 30.4551 26.1537  30.6308 24.393  30.6308 24.393  C 30.6308 24.393  31.1461 24.5663  31.1461 24.5663  C 31.1461 24.5663  31.3042 23.5262  31.3042 23.5262  C 31.3042 23.5262  30.7889 22.7625  30.7889 22.7625  C 30.7889 22.7625  31.9894 21.5601  31.9894 21.5601  C 31.9894 21.5601  31.7317 20.6338  31.7317 20.6338  C 31.7317 20.6338  32.2529 19.8811  32.2529 19.8811  C 32.2529 19.8811  32.9908 19.6915  32.9908 19.6915  C 32.9908 19.6915  33.4534 20.1789  33.4534 20.1789  C 33.4534 20.1789  32.9264 20.6013  32.9264 20.6013  C 32.9264 20.6013  34.0625 22.1179  34.0625 22.1179  C 34.0625 22.1179  33.8809 23.6075  33.8809 23.6075  C 33.8809 23.6075  33.4885 24.3875  33.4885 24.3875  C 33.4885 24.3875  33.9512 25.807  33.9512 25.807  C 33.9512 25.807  35.0639 26.365  35.0639 26.365  C 35.0639 26.365  35.6143 27.9635  35.6143 27.9635  C 35.6143 27.9635  36.4927 27.8985  36.4927 27.8985  C 36.4927 27.8985  37.1135 27.1994  37.1135 27.1994  C 37.1135 27.1994  38.8293 26.6414  38.8293 26.6414  C 38.8293 26.6414  40.0591 25.6824  40.0591 25.6824  C 40.0591 25.6824  39.6023 23.7104  39.6023 23.7104  C 39.6023 23.7104  38.8001 22.5025  38.8001 22.5025  C 38.8001 22.5025  38.8995 20.5472  38.8995 20.5472  C 38.8995 20.5472  38.4194 19.4262  38.4194 19.4262  C 38.4194 19.4262  37.6347 18.6572  37.6347 18.6572  C 37.6347 18.6572  37.8396 17.5689  37.8396 17.5689  C 37.8396 17.5689  36.6098 15.8254  36.6098 15.8254  C 36.6098 15.8254  36.645 14.6127  36.645 14.6127  C 36.645 14.6127  38.4077 13.3135  38.4077 13.3135  C 38.4077 13.3135  38.9757 13.844  38.9757 13.844  C 38.9757 13.844  40.1704 13.3731  40.1704 13.3731  C 40.1704 13.3731  41.3299 14.3745  41.3299 14.3745  C 41.3299 14.3745  42.179 16.134  42.179 16.134  C 42.179 16.134  42.9871 16.6591  42.9871 16.6591  C 42.9871 16.6591  42.5421 18.0616  42.5421 18.0616  C 42.5421 18.0616  41.119 18.511  41.119 18.511  C 41.119 18.511  41.4704 20.1193  41.4704 20.1193  C 41.4704 20.1193  41.1718 21.468  41.1718 21.468  C 41.1718 21.468  41.9506 22.1179  41.9506 22.1179  C 41.9506 22.1179  44.3106 20.6772  44.3106 20.6772  C 44.3106 20.6772  44.7849 19.8648  44.7849 19.8648  C 44.7849 19.8648  44.8728 18.4948  44.8728 18.4948  C 44.8728 18.4948  45.7336 18.1915  45.7336 18.1915  C 45.7336 18.1915  46.0616 17.4118  46.0616 17.4118  C 46.0616 17.4118  45.0719 16.605  45.0719 16.605  C 45.0719 16.605  46.3603 15.598  46.3603 15.598  C 46.3603 15.598  47.3148 15.4193  47.3148 15.4193  C 47.3148 15.4193  47.6427 16.1177  47.6427 16.1177  C 47.6427 16.1177  47.959 15.1053  47.959 15.1053  C 47.959 15.1053  50.177 14.9213  50.177 14.9213  C 50.177 14.9213  50.5753 13.5138  50.5753 13.5138  C 50.5753 13.5138  51.6352 13.4489  51.6352 13.4489  C 51.6352 13.4489  51.9807 14.905  51.9807 14.905  C 51.9807 14.905  52.5488 14.8563  52.5488 14.8563  C 52.5488 14.8563  52.0159 13.7845  52.0159 13.7845  C 52.0159 13.7845  53.1578 14.8076  53.1578 14.8076  C 53.1578 14.8076  53.3569 14.0281  53.3569 14.0281  C 53.3569 14.0281  52.8415 13.4326  52.8415 13.4326  C 52.8415 13.4326  53.4506 12.7777  53.4506 12.7777  C 53.4506 12.7777  53.9425 13.5463  53.9425 13.5463  C 53.9425 13.5463  54.7682 13.3406  54.7682 13.3406  C 54.7682 13.3406  53.7317 12.4475  53.7317 12.4475  C 53.7317 12.4475  53.1871 11.4408  53.1871 11.4408  C 53.1871 11.4408  54.4168 10.2176  54.4168 10.2176  C 54.4168 10.2176  54.9029 10.4881  54.9029 10.4881  C 54.9029 10.4881  55.2777 11.7439  55.2777 11.7439  C 55.2777 11.7439  54.5749 12.7939  54.5749 12.7939  C 54.5749 12.7939  55.3714 13.2215  55.3714 13.2215  C 55.3714 13.2215  55.1898 14.3691  55.1898 14.3691  C 55.1898 14.3691  54.1006 15.7008  54.1006 15.7008  C 54.1006 15.7008  54.329 16.6808  54.329 16.6808  C 54.329 16.6808  55.3129 15.1865  55.3129 15.1865  C 55.3129 15.1865  56.0566 17.0814  56.0566 17.0814  C 56.0566 17.0814  57.2863 16.4155  57.2863 16.4155  C 57.2863 16.4155  57.8368 17.1139  57.8368 17.1139  C 57.8368 17.1139  58.0828 16.5671  58.0828 16.5671  C 58.0828 16.5671  58.9436 17.0056  58.9436 17.0056  C 58.9436 17.0056  59.9919 16.1069  59.9919 16.1069  C 59.9919 16.1069  60.6653 14.6831  60.6653 14.6831  C 60.6653 14.6831  62.9316 13.3027  62.9316 13.3027  C 62.9316 13.3027  63.119 11.0889  63.119 11.0889  C 63.119 11.0889  62.6212 10.9211  62.6212 10.9211  C 62.6212 10.9211  63.201 9.57900000000001  63.201 9.57900000000001  C 63.201 9.57900000000001  63.6988 9.56819999999999  63.6988 9.56819999999999  C 63.6988 9.56819999999999  64.0326 7.62009999999998  64.0326 7.62009999999998  C 64.0326 7.62009999999998  63.2478 6.8897  63.2478 6.8897  C 63.2478 6.8897  63.7983 5.7373  63.7983 5.7373  C 63.7983 5.7373  65.0632 5.65620000000001  65.0632 5.65620000000001  C 65.0632 5.65620000000001  65.6137 4.95830000000001  65.6137 4.95830000000001  C 65.6137 4.95830000000001  66.3691 5.06650000000002  66.3691 5.06650000000002  C 66.3691 5.06650000000002  66.1934 2.97300000000001  66.1934 2.97300000000001  C 66.1934 2.97300000000001  65.7308 2.44839999999999  65.7308 2.44839999999999  C 65.7308 2.44839999999999  66.2579 1.97239999999999  66.2579 1.97239999999999  C 66.2579 1.97239999999999  66.9314 2.60520000000002  66.9314 2.60520000000002  C 66.9314 2.60520000000002  67.5111 2.43759999999997  67.5111 2.43759999999997  C 67.5111 2.43759999999997  67.9503 1.13409999999999  67.9503 1.13409999999999  C 67.9503 1.13409999999999  68.7174 0.728499999999997  68.7174 0.728499999999997  C 68.7174 0.728499999999997  69.1215 1.38290000000001  69.1215 1.38290000000001  C 69.1215 1.38290000000001  70 1.4316  70 1.4316  C 70 1.4316  70.4157 0.80419999999998  70.4157 0.80419999999998  C 70.4157 0.80419999999998  71.7568 0.312099999999987  71.7568 0.312099999999987  C 71.7568 0.312099999999987  74.8546 3.29759999999999  74.8546 3.29759999999999  C 74.8546 3.29759999999999  76.1079 5.76440000000002  76.1079 5.76440000000002  C 76.1079 5.76440000000002  76.7344 6.00240000000002  76.7344 6.00240000000002  C 76.7344 6.00240000000002  79.5337 5.80759999999998  79.5337 5.80759999999998  C 79.5337 5.80759999999998  81.3901 5.25580000000002  81.3901 5.25580000000002  C 81.3901 5.25580000000002  82.1572 5.92129999999997  82.1572 5.92129999999997  C 82.1572 5.92129999999997  83.3577 8.29109999999997  83.3577 8.29109999999997  C 83.3577 8.29109999999997  84.2712 14.4124  84.2712 14.4124  C 84.2712 14.4124  85.4073 16.383  85.4073 16.383  C 85.4073 16.383  86.2682 16.069  86.2682 16.069  C 86.2682 16.069  89.94 18.9117  89.94 18.9117  C 89.94 18.9117  89.8931 19.7565  89.8931 19.7565  C 89.8931 19.7565  90.6427 21.1862  90.6427 21.1862  C 90.6427 21.1862  90.0746 21.1862  90.0746 21.1862  C 90.0746 21.1862  89.6179 23.1579  89.6179 23.1579  C 89.6179 23.1579  89.6061 24.9727  89.6061 24.9727  C 89.6061 24.9727  91.0819 27.4378  91.0819 27.4378  C 91.0819 27.4378  91.7495 29.0418  91.7495 29.0418  C 91.7495 29.0418  92.0247 31.2314  92.0247 31.2314  C 92.0247 31.2314  91.9017 32.543  91.9017 32.543  C 91.9017 32.543  94.0627 35.2753  94.0627 35.2753  C 94.0627 35.2753  94.8064 36.9018  94.8064 36.9018  C 94.8064 36.9018  95.9542 39.0383  95.9542 39.0383  C 95.9542 39.0383  96.3407 40.9635  96.3407 40.9635  C 96.3407 40.9635  97.2015 42.9488  97.2015 42.9488  C 97.2015 42.9488  97.1957 45.6993  97.1957 45.6993  C 97.1957 45.6993  97.6758 47.6092  97.6758 47.6092  C 97.6758 47.6092  96.6686 46.8659  96.6686 46.8659  C 96.6686 46.8659  95.7375 47.6363  95.7375 47.6363  C 95.7375 47.6363  93.8225 46.9418  93.8225 46.9418  C 93.8225 46.9418  93.6059 48.0161  93.6059 48.0161  C 93.6059 48.0161  92.2882 48.6674  92.2882 48.6674  C 92.2882 48.6674  92.0013 47.3162  92.0013 47.3162  C 92.0013 47.3162  91.4859 46.5565  91.4859 46.5565  C 91.4859 46.5565  90.2445 46.7736  90.2445 46.7736  C 90.2445 46.7736  90.0688 48.027  90.0688 48.027  C 90.0688 48.027  90.5314 49.0418  90.5314 49.0418  C 90.5314 49.0418  91.6089 49.8721  91.6089 49.8721  C 91.6089 49.8721  92.3585 51.0607  92.3585 51.0607  C 92.3585 51.0607  91.7788 57.5211  91.7788 57.5211  C 91.7788 57.5211  91.076 59.009  91.076 59.009  C 91.076 59.009  91.0643 61.2689  91.0643 61.2689  C 91.0643 61.2689  90.4846 64.2617  90.4846 64.2617  C 90.4846 64.2617  89.7467 65.2505  89.7467 65.2505  C 89.7467 65.2505  87.5155 66.3207  87.5155 66.3207  C 87.5155 66.3207  86.807 67.1955  86.807 67.1955  C 86.807 67.1955  86.438 66.6358  86.438 66.6358  C 86.438 66.6358  85.7353 67.2227  85.7353 67.2227  C 85.7353 67.2227  85.9695 67.7062  85.9695 67.7062  C 85.9695 67.7062  85.0501 69.4288  85.0501 69.4288  C 85.0501 69.4288  84.6284 74.6357  84.6284 74.6357  C 84.6284 74.6357  84.2654 75.7012  84.2654 75.7012  C 84.2654 75.7012  83.6095 76.7124  83.6095 76.7124  C 83.6095 76.7124  81.1089 79.5345  81.1089 79.5345  C 81.1089 79.5345  80.3184 80.6711  80.3184 80.6711  C 80.3184 80.6711  79.9494 81.7751  79.9494 81.7751  C 79.9494 81.7751  80.0724 83.8911  80.0724 83.8911  C 80.0724 83.8911  81.4779 86.6928  81.4779 86.6928  C 81.4779 86.6928  81.7473 88.1618  81.7473 88.1618  C 81.7473 88.1618  81.5657 90.8392  81.5657 90.8392  C 81.5657 90.8392  81.2378 92.9891  81.2378 92.9891  C 81.2378 92.9891  80.494 95.1447  80.494 95.1447  C 80.494 95.1447  76.8164 101.8423  76.8164 101.8423  C 76.8164 101.8423  75.4695 103.1059  75.4695 103.1059  C 75.4695 103.1059  73.3672 104.642  73.3672 104.642  C 73.3672 104.642  70.8315 104.958  70.8315 104.958  C 70.8315 104.958  69.4729 104.4132  69.4729 104.4132  C 69.4729 104.4132  68.8287 103.6125  68.8287 103.6125  C 68.8287 103.6125  67.1304 100.4644  67.1304 100.4644  C 67.1304 100.4644  65.4497 96.6527  65.4497 96.6527  C 65.4497 96.6527  64.7939 96.239  64.7939 96.239  C 64.7939 96.239  62.3519 96.2118  62.3519 96.2118  C 62.3519 96.2118  61.737 96.5711  61.737 96.5711  C 61.737 96.5711  59.8103 99.7129  59.8103 99.7129  C 59.8103 99.7129  57.544 102.3869  57.544 102.3869  C 57.544 102.3869  53.6146 107.8564  53.6146 107.8564  C 53.6146 107.8564  50.991 112.7883  50.991 112.7883  C 50.991 112.7883  50.0482 113.4097  50.0482 113.4097  C 50.0482 113.4097  45.9503 114.0092  45.9503 114.0092  C 45.9503 114.0092  42.8934 113.922  42.8934 113.922  C 42.8934 113.922  41.119 113.6059  41.119 113.6059  C 41.119 113.6059  40.1879 112.9028  40.1879 112.9028  C 40.1879 112.9028  38.2085 110.4175  38.2085 110.4175  C 38.2085 110.4175  36.6977 109.3712  36.6977 109.3712  C 36.6977 109.3712  33.7696 108.5539  33.7696 108.5539  C 33.7696 108.5539  32.8502 109.9271  32.8502 109.9271  C 32.8502 109.9271  31.9659 115.5738  31.9659 115.5738  C 31.9659 115.5738  31.4857 116.2225  31.4857 116.2225  C 31.4857 116.2225  27.1874 118.3925  27.1874 118.3925  C 27.1874 118.3925  24.9504 118.507  24.9504 118.507  C 24.9504 118.507  24.2711 119.0414  24.2711 119.0414  C 24.2711 119.0414  23.7147 118.6924  23.7147 118.6924  C 23.7147 118.6924  23.3809 117.6455  23.3809 117.6455  C 23.3809 117.6455  23.8846 115.8082  23.8846 115.8082  C 23.8846 115.8082  23.4629 114.5925  23.4629 114.5925  C 23.4629 114.5925  24.1832 113.8948  24.1832 113.8948  C 24.1832 113.8948  25.1612 112.2378  25.1612 112.2378  C 25.1612 112.2378  25.6823 111.8998  25.6823 111.8998  C 25.6823 111.8998  25.2373 109.0115  25.2373 109.0115  C 25.2373 109.0115  26.6135 107.7257  26.6135 107.7257  C 26.6135 107.7257  26.3616 107.0446  26.3616 107.0446  C 26.3616 107.0446  27.5914 105.4647  27.5914 105.4647  C 27.5914 105.4647  27.0702 103.9066  27.0702 103.9066  C 27.0702 103.9066  28.4699 102.6702  28.4699 102.6702  C 28.4699 102.6702  27.4626 101.5917  27.4626 101.5917  C 27.4626 101.5917  26.4085 101.1125  26.4085 101.1125  C 26.4085 101.1125  26.8126 100.2411  26.8126 100.2411  C 26.8126 100.2411  27 98.5748  27 98.5748  C 27 98.5748  26.5667 98.1228  26.5667 98.1228  C 26.5667 98.1228  26.7013 96.6582  26.7013 96.6582  C 26.7013 96.6582  26.2563 96.7834  26.2563 96.7834  C 26.2563 96.7834  26.2094 94.3771  26.2094 94.3771  C 26.2094 94.3771  25.4891 92.6788  25.4891 92.6788  C 25.4891 92.6788  24.9386 92.3305  24.9386 92.3305  C 24.9386 92.3305  24.5287 90.9589  24.5287 90.9589  C 24.5287 90.9589  23.0413 90.0555  23.0413 90.0555  C 23.0413 90.0555  21.3547 90.3331  21.3547 90.3331  C 21.3547 90.3331  21.1029 89.2066  21.1029 89.2066  C 21.1029 89.2066  20.3474 88.4067  20.3474 88.4067  C 20.3474 88.4067  18.4852 87.9224  18.4852 87.9224  C 18.4852 87.9224  17.437 87.3076  17.437 87.3076  C 17.437 87.3076  17.923 86.5567  17.923 86.5567  C 17.923 86.5567  17.1266 86.7309  17.1266 86.7309  C 17.1266 86.7309  16.7577 84.522  16.7577 84.522  C 16.7577 84.522  17.8645 83.1731  17.8645 83.1731  C 17.8645 83.1731  17.5248 82.0743  17.5248 82.0743  C 17.5248 82.0743  16.418 81.4978  16.418 81.4978  C 16.418 81.4978  15.4049 81.9601  15.4049 81.9601  C 15.4049 81.9601  14.3333 81.7425  14.3333 81.7425  C 14.3333 81.7425  13.4724 79.8716  13.4724 79.8716  C 13.4724 79.8716  13.0097 79.8499  13.0097 79.8499  C 13.0097 79.8499  12.1547 78.8004  12.1547 78.8004  C 12.1547 78.8004  11.6336 79.2898  11.6336 79.2898  C 11.6336 79.2898  11.1358 78.8547  11.1358 78.8547  C 11.1358 78.8547  9.82990000000001 78.7134  9.82990000000001 78.7134  C 9.82990000000001 78.7134  9.88260000000002 77.7999  9.88260000000002 77.7999  C 9.88260000000002 77.7999  8.34829999999999 75.7664  8.34829999999999 75.7664  C 8.34829999999999 75.7664  8.28390000000002 74.7172  8.28390000000002 74.7172  C 8.28390000000002 74.7172  7.06 74.5596  7.06 74.5596  C 7.06 74.5596  6.79059999999998 75.1739  6.79059999999998 75.1739  C 6.79059999999998 75.1739  5.78919999999999 75.2881  5.78919999999999 75.2881  C 5.78919999999999 75.2881  5.75400000000002 75.799  5.75400000000002 75.799  C 5.75400000000002 75.799  2.82010000000002 76.9952  2.82010000000002 76.9952  C 2.82010000000002 76.9952  2.27550000000002 75.6088  2.27550000000002 75.6088  C 2.27550000000002 75.6088  3.15980000000002 75.1685  3.15980000000002 75.1685  C 3.15980000000002 75.1685  4.10270000000003 73.5919  4.10270000000003 73.5919  C 4.10270000000003 73.5919  2.99579999999997 71.4341  2.99579999999997 71.4341  C 2.99579999999997 71.4341  3.37060000000002 69.4505  3.37060000000002 69.4505  C 3.37060000000002 69.4505  4.17880000000002 68.7115  4.17880000000002 68.7115  C 4.17880000000002 68.7115  4.13780000000003 67.4074  4.13780000000003 67.4074  C 4.13780000000003 67.4074  3.08949999999999 66.6413  3.08949999999999 66.6413  C 3.08949999999999 66.6413  3.08949999999999 64.8974  3.08949999999999 64.8974  C 3.08949999999999 64.8974  2.03550000000001 64.5877  2.03550000000001 64.5877  C 2.03550000000001 64.5877  1.82459999999998 63.8109  1.82459999999998 63.8109  C 1.82459999999998 63.8109  0.518700000000024 63.2514  0.518700000000024 63.2514  C 0.518700000000024 63.2514  0.998899999999992 61.4318  0.998899999999992 61.4318  C 0.998899999999992 61.4318  1.7192 61.2201  1.7192 61.2201  C 1.7192 61.2201  2.99000000000001 61.7794  2.99000000000001 61.7794  C 2.99000000000001 61.7794  3.97379999999998 60.9648  3.97379999999998 60.9648  C 3.97379999999998 60.9648  4.89319999999998 58.6614  4.89319999999998 58.6614  C 4.89319999999998 58.6614  5.4144 57.3962  5.4144 57.3962  C 5.4144 57.3962  4.94589999999999 56.5274  4.94589999999999 56.5274  C 4.94589999999999 56.5274  5.46129999999999 55.1049  5.46129999999999 55.1049  C 5.46129999999999 55.1049  5.1626 54.5023  5.1626 54.5023  C 5.1626 54.5023  6.45089999999999 51.7826  6.45089999999999 51.7826  C 6.45089999999999 51.7826  7.73930000000001 51.7284  7.73930000000001 51.7284  C 7.73930000000001 51.7284  8.43619999999999 52.1517  8.43619999999999 52.1517  C 8.43619999999999 52.1517  9.3614 51.2452  9.3614 51.2452  C 9.3614 51.2452  9.34969999999998 53.1397  9.34969999999998 53.1397  C 9.34969999999998 53.1397  9.988 51.9183  9.988 51.9183  C 9.988 51.9183  10.4858 51.9726  10.4858 51.9726  C 10.4858 51.9726  10.4682 53.194  10.4682 53.194  C 10.4682 53.194  11.4462 53.004  11.4462 53.004  C 11.4462 53.004  11.698 51.5601  11.698 51.5601  C 11.698 51.5601  11.2295 51.0173  11.2295 51.0173  C 11.2295 51.0173  11.9088 50.0133  11.9088 50.0133  C 11.9088 50.0133  11.9615 49.2534  11.9615 49.2534  Z M 62.8379 131.4683  C 62.8379 131.4683  59.4428 132.9636  59.4428 132.9636  C 59.4428 132.9636  58.3653 131.9812  58.3653 131.9812  C 58.3653 131.9812  59.0504 131.0153  59.0504 131.0153  C 59.0504 131.0153  58.7986 130.5186  58.7986 130.5186  C 58.7986 130.5186  57.7738 130.9825  57.7738 130.9825  C 57.7738 130.9825  57.9612 128.0904  57.9612 128.0904  C 57.9612 128.0904  57.112 128.8979  57.112 128.8979  C 57.112 128.8979  56.3859 129.0508  56.3859 129.0508  C 56.3859 129.0508  56.0462 127.905  56.0462 127.905  C 56.0462 127.905  56.6377 126.2136  56.6377 126.2136  C 56.6377 126.2136  57.686 124.2225  57.686 124.2225  C 57.686 124.2225  59.4955 123.6388  59.4955 123.6388  C 59.4955 123.6388  59.8176 121.0189  59.8176 121.0189  C 59.8176 121.0189  58.5234 119.9718  58.5234 119.9718  C 58.5234 119.9718  57.8557 119.8846  57.8557 119.8846  C 57.8557 119.8846  57.4459 121.0298  57.4459 121.0298  C 57.4459 121.0298  56.3215 122.5207  56.3215 122.5207  C 56.3215 122.5207  55.7885 120.9316  55.7885 120.9316  C 55.7885 120.9316  54.7111 120.8335  54.7111 120.8335  C 54.7111 120.8335  54.0962 119.89  54.0962 119.89  C 54.0962 119.89  54.6115 119.3283  54.6115 119.3283  C 54.6115 119.3283  54.2835 118.2704  54.2835 118.2704  C 54.2835 118.2704  55.5309 116.1112  55.5309 116.1112  C 55.5309 116.1112  56.7724 115.3152  56.7724 115.3152  C 56.7724 115.3152  58.6757 114.6665  58.6757 114.6665  C 58.6757 114.6665  59.4076 114.83  59.4076 114.83  C 59.4076 114.83  59.9698 114.2467  59.9698 114.2467  C 59.9698 114.2467  59.5189 112.9111  59.5189 112.9111  C 59.5189 112.9111  59.8996 111.1561  59.8996 111.1561  C 59.8996 111.1561  60.491 112.0499  60.491 112.0499  C 60.491 112.0499  62.3284 112.0554  62.3284 112.0554  C 62.3284 112.0554  62.8496 111.0525  62.8496 111.0525  C 62.8496 111.0525  63.6461 111.2541  63.6461 111.2541  C 63.6461 111.2541  65.4439 110.3059  65.4439 110.3059  C 65.4439 110.3059  66.8494 110.9271  66.8494 110.9271  C 66.8494 110.9271  68.1318 110.7091  68.1318 110.7091  C 68.1318 110.7091  68.1142 112.9874  68.1142 112.9874  C 68.1142 112.9874  67.3998 113.7834  67.3998 113.7834  C 67.3998 113.7834  64.8407 114.4102  64.8407 114.4102  C 64.8407 114.4102  64.3195 115.1626  64.3195 115.1626  C 64.3195 115.1626  63.7514 116.8745  63.7514 116.8745  C 63.7514 116.8745  63.1834 117.736  63.1834 117.736  C 63.1834 117.736  62.7384 120.0209  62.7384 120.0209  C 62.7384 120.0209  63.324 120.6808  63.324 120.6808  C 63.324 120.6808  63.933 123.8352  63.933 123.8352  C 63.933 123.8352  62.7384 125.2808  62.7384 125.2808  C 62.7384 125.2808  62.2171 127.4139  62.2171 127.4139  C 62.2171 127.4139  62.2406 128.1995  62.2406 128.1995  C 62.2406 128.1995  63.2127 129.3127  63.2127 129.3127  C 63.2127 129.3127  63.6461 130.3168  63.6461 130.3168  C 63.6461 130.3168  62.8379 131.4683  62.8379 131.4683  Z M 41.2771 130.1966  C 41.2771 130.1966  40.7677 130.9443  40.7677 130.9443  C 40.7677 130.9443  40.305 130.7042  40.305 130.7042  C 40.305 130.7042  40.2524 129.6838  40.2524 129.6838  C 40.2524 129.6838  41.0781 126.4045  41.0781 126.4045  C 41.0781 126.4045  41.7867 125.3463  41.7867 125.3463  C 41.7867 125.3463  42.2493 125.8699  42.2493 125.8699  C 42.2493 125.8699  43.7836 124.648  43.7836 124.648  C 43.7836 124.648  43.7602 122.9279  43.7602 122.9279  C 43.7602 122.9279  43.1101 122.4807  43.1101 122.4807  C 43.1101 122.4807  42.9695 121.6352  42.9695 121.6352  C 42.9695 121.6352  43.93 120.9316  43.93 120.9316  C 43.93 120.9316  45.2183 120.5499  45.2183 120.5499  C 45.2183 120.5499  45.4526 118.8266  45.4526 118.8266  C 45.4526 118.8266  47.8053 117.8451  47.8053 117.8451  C 47.8053 117.8451  49.445 117.4143  49.445 117.4143  C 49.445 117.4143  50.7567 116.5801  50.7567 116.5801  C 50.7567 116.5801  51.4127 117.278  51.4127 117.278  C 51.4127 117.278  51.9339 116.7164  51.9339 116.7164  C 51.9339 116.7164  52.3672 118.7339  52.3672 118.7339  C 52.3672 118.7339  52.0803 119.7536  52.0803 119.7536  C 52.0803 119.7536  50.1302 120.7953  50.1302 120.7953  C 50.1302 120.7953  50.0892 122.7534  50.0892 122.7534  C 50.0892 122.7534  50.8798 124.5825  50.8798 124.5825  C 50.8798 124.5825  52.0568 124.9753  52.0568 124.9753  C 52.0568 124.9753  51.6118 126.1536  51.6118 126.1536  C 51.6118 126.1536  49.9193 125.9791  49.9193 125.9791  C 49.9193 125.9791  49.6909 126.8847  49.6909 126.8847  C 49.6909 126.8847  48.9472 127.6594  48.9472 127.6594  C 48.9472 127.6594  48.6837 128.6197  48.6837 128.6197  C 48.6837 128.6197  47.8463 128.145  47.8463 128.145  C 47.8463 128.145  46.9503 128.6524  46.9503 128.6524  C 46.9503 128.6524  45.6692 127.9486  45.6692 127.9486  C 45.6692 127.9486  44.7849 127.9486  44.7849 127.9486  C 44.7849 127.9486  43.643 127.3266  43.643 127.3266  C 43.643 127.3266  41.9916 128.5379  41.9916 128.5379  C 41.9916 128.5379  41.8218 129.2418  41.8218 129.2418  C 41.8218 129.2418  43.0515 129.842  43.0515 129.842  C 43.0515 129.842  43.1687 130.3168  43.1687 130.3168  C 43.1687 130.3168  41.9681 130.6496  41.9681 130.6496  C 41.9681 130.6496  41.2771 130.1966  41.2771 130.1966  Z M 34.2557 124.2989  C 34.2557 124.2989  33.4651 122.8316  33.4651 122.8316  C 33.4651 122.8316  34.5778 120.8607  34.5778 120.8607  C 34.5778 120.8607  36.2219 119.1266  36.2219 119.1266  C 36.2219 119.1266  36.8076 119.4755  36.8076 119.4755  C 36.8076 119.4755  36.9598 122.488  36.9598 122.488  C 36.9598 122.488  36.4093 123.1152  36.4093 123.1152  C 36.4093 123.1152  36.0639 124.337  36.0639 124.337  C 36.0639 124.337  34.2557 124.2989  34.2557 124.2989  Z M 53.9249 119.1286  C 53.9249 119.1286  52.1929 119.3031  52.1929 119.3031  C 52.1929 119.3031  52.1461 117.3543  52.1461 117.3543  C 52.1461 117.3543  53.6263 116.7218  53.6263 116.7218  C 53.6263 116.7218  53.9249 119.1286  53.9249 119.1286  Z M 69.4377 129.8365  C 69.4377 129.8365  68.6999 129.9402  68.6999 129.9402  C 68.6999 129.9402  66.4467 129.7547  66.4467 129.7547  C 66.4467 129.7547  66.0602 127.6306  66.0602 127.6306  C 66.0602 127.6306  68.6706 126.7303  68.6706 126.7303  C 68.6706 126.7303  70.2108 127.1995  70.2108 127.1995  C 70.2108 127.1995  70.158 129.0726  70.158 129.0726  C 70.158 129.0726  69.4377 129.8365  69.4377 129.8365  Z M 80.1017 103.3565  C 80.1017 103.3565  78.5513 104.0592  78.5513 104.0592  C 78.5513 104.0592  78.153 103.8739  78.153 103.8739  C 78.153 103.8739  77.1692 100.8804  77.1692 100.8804  C 77.1692 100.8804  78.399 99.7966  78.399 99.7966  C 78.399 99.7966  81.1089 99.4971  81.1089 99.4971  C 81.1089 99.4971  81.5774 100.9185  81.5774 100.9185  C 81.5774 100.9185  81.185 103.351  81.185 103.351  C 81.185 103.351  80.1017 103.3565  80.1017 103.3565  Z M 52.1623 127.5051  C 52.1623 127.5051  50.3483 129.7438  50.3483 129.7438  C 50.3483 129.7438  50.1433 127.707  50.1433 127.707  C 50.1433 127.707  52.1623 127.5051  52.1623 127.5051  Z M 47.0675 130.1475  C 47.0675 130.1475  45.1187 130.7151  45.1187 130.7151  C 45.1187 130.7151  44.457 130.1584  44.457 130.1584  C 44.457 130.1584  44.6444 128.2472  44.6444 128.2472  C 44.6444 128.2472  47.0323 128.3891  47.0323 128.3891  C 47.0323 128.3891  47.0675 130.1475  47.0675 130.1475  Z M 52.5663 126.5121  C 52.5663 126.5121  52.7127 128.2214  52.7127 128.2214  C 52.7127 128.2214  50.9924 128.0359  50.9924 128.0359  C 50.9924 128.0359  52.5663 126.5121  52.5663 126.5121  Z M 63.4118 132.4178  C 63.4118 132.4178  61.4514 132.9473  61.4514 132.9473  C 61.4514 132.9473  60.8658 132.4724  60.8658 132.4724  C 60.8658 132.4724  62.8731 130.6047  62.8731 130.6047  C 62.8731 130.6047  63.7046 130.3809  63.7046 130.3809  C 63.7046 130.3809  63.4118 132.4178  63.4118 132.4178  Z " fill-rule="evenodd" />
    </mask>
  </defs>
  <g transform="matrix(1 0 0 1 -355 -371 )">
    <path d="M 11.9615 49.2534  C 11.9615 49.2534  12.834 48.3254  12.834 48.3254  C 12.834 48.3254  13.3377 48.6565  13.3377 48.6565  C 13.3377 48.6565  13.572 49.8667  13.572 49.8667  C 13.572 49.8667  14.6495 50.3986  14.6495 50.3986  C 14.6495 50.3986  14.4328 49.2372  14.4328 49.2372  C 14.4328 49.2372  14.9247 48.3852  14.9247 48.3852  C 14.9247 48.3852  14.5909 46.9961  14.5909 46.9961  C 14.5909 46.9961  15.1824 46.2961  15.1824 46.2961  C 15.1824 46.2961  16.3302 46.893  16.3302 46.893  C 16.3302 46.893  17.5307 45.9814  17.5307 45.9814  C 17.5307 45.9814  18.8131 45.9597  18.8131 45.9597  C 18.8131 45.9597  18.2217 44.0446  18.2217 44.0446  C 18.2217 44.0446  18.7487 42.1948  18.7487 42.1948  C 18.7487 42.1948  19.5159 40.7954  19.5159 40.7954  C 19.5159 40.7954  20.2537 38.5665  20.2537 38.5665  C 20.2537 38.5665  19.8556 36.5873  19.8556 36.5873  C 19.8556 36.5873  21.2551 35.5247  21.2551 35.5247  C 21.2551 35.5247  23.2111 35.0529  23.2111 35.0529  C 23.2111 35.0529  23.6796 34.0229  23.6796 34.0229  C 23.6796 34.0229  23.2814 32.0444  23.2814 32.0444  C 23.2814 32.0444  23.7088 30.8195  23.7088 30.8195  C 23.7088 30.8195  23.3926 30.4835  23.3926 30.4835  C 23.3926 30.4835  23.8143 29.2315  23.8143 29.2315  C 23.8143 29.2315  25.2666 29.4916  25.2666 29.4916  C 25.2666 29.4916  25.5242 30.0986  25.5242 30.0986  C 25.5242 30.0986  24.9445 31.0525  24.9445 31.0525  C 24.9445 31.0525  25.899 31.9793  25.899 31.9793  C 25.899 31.9793  26.3675 31.4482  26.3675 31.4482  C 26.3675 31.4482  27.6734 31.9793  27.6734 31.9793  C 27.6734 31.9793  27.2108 30.8357  27.2108 30.8357  C 27.2108 30.8357  26.3792 30.6948  26.3792 30.6948  C 26.3792 30.6948  26.5197 30.0552  26.5197 30.0552  C 26.5197 30.0552  28.0307 30.646  28.0307 30.646  C 28.0307 30.646  28.2239 31.4753  28.2239 31.4753  C 28.2239 31.4753  29.032 31.2639  29.032 31.2639  C 29.032 31.2639  28.5519 30.6731  28.5519 30.6731  C 28.5519 30.6731  29.1843 28.5812  29.1843 28.5812  C 29.1843 28.5812  29.2488 26.9339  29.2488 26.9339  C 29.2488 26.9339  30.0217 26.9556  30.0217 26.9556  C 30.0217 26.9556  30.4551 26.1537  30.4551 26.1537  C 30.4551 26.1537  30.6308 24.393  30.6308 24.393  C 30.6308 24.393  31.1461 24.5663  31.1461 24.5663  C 31.1461 24.5663  31.3042 23.5262  31.3042 23.5262  C 31.3042 23.5262  30.7889 22.7625  30.7889 22.7625  C 30.7889 22.7625  31.9894 21.5601  31.9894 21.5601  C 31.9894 21.5601  31.7317 20.6338  31.7317 20.6338  C 31.7317 20.6338  32.2529 19.8811  32.2529 19.8811  C 32.2529 19.8811  32.9908 19.6915  32.9908 19.6915  C 32.9908 19.6915  33.4534 20.1789  33.4534 20.1789  C 33.4534 20.1789  32.9264 20.6013  32.9264 20.6013  C 32.9264 20.6013  34.0625 22.1179  34.0625 22.1179  C 34.0625 22.1179  33.8809 23.6075  33.8809 23.6075  C 33.8809 23.6075  33.4885 24.3875  33.4885 24.3875  C 33.4885 24.3875  33.9512 25.807  33.9512 25.807  C 33.9512 25.807  35.0639 26.365  35.0639 26.365  C 35.0639 26.365  35.6143 27.9635  35.6143 27.9635  C 35.6143 27.9635  36.4927 27.8985  36.4927 27.8985  C 36.4927 27.8985  37.1135 27.1994  37.1135 27.1994  C 37.1135 27.1994  38.8293 26.6414  38.8293 26.6414  C 38.8293 26.6414  40.0591 25.6824  40.0591 25.6824  C 40.0591 25.6824  39.6023 23.7104  39.6023 23.7104  C 39.6023 23.7104  38.8001 22.5025  38.8001 22.5025  C 38.8001 22.5025  38.8995 20.5472  38.8995 20.5472  C 38.8995 20.5472  38.4194 19.4262  38.4194 19.4262  C 38.4194 19.4262  37.6347 18.6572  37.6347 18.6572  C 37.6347 18.6572  37.8396 17.5689  37.8396 17.5689  C 37.8396 17.5689  36.6098 15.8254  36.6098 15.8254  C 36.6098 15.8254  36.645 14.6127  36.645 14.6127  C 36.645 14.6127  38.4077 13.3135  38.4077 13.3135  C 38.4077 13.3135  38.9757 13.844  38.9757 13.844  C 38.9757 13.844  40.1704 13.3731  40.1704 13.3731  C 40.1704 13.3731  41.3299 14.3745  41.3299 14.3745  C 41.3299 14.3745  42.179 16.134  42.179 16.134  C 42.179 16.134  42.9871 16.6591  42.9871 16.6591  C 42.9871 16.6591  42.5421 18.0616  42.5421 18.0616  C 42.5421 18.0616  41.119 18.511  41.119 18.511  C 41.119 18.511  41.4704 20.1193  41.4704 20.1193  C 41.4704 20.1193  41.1718 21.468  41.1718 21.468  C 41.1718 21.468  41.9506 22.1179  41.9506 22.1179  C 41.9506 22.1179  44.3106 20.6772  44.3106 20.6772  C 44.3106 20.6772  44.7849 19.8648  44.7849 19.8648  C 44.7849 19.8648  44.8728 18.4948  44.8728 18.4948  C 44.8728 18.4948  45.7336 18.1915  45.7336 18.1915  C 45.7336 18.1915  46.0616 17.4118  46.0616 17.4118  C 46.0616 17.4118  45.0719 16.605  45.0719 16.605  C 45.0719 16.605  46.3603 15.598  46.3603 15.598  C 46.3603 15.598  47.3148 15.4193  47.3148 15.4193  C 47.3148 15.4193  47.6427 16.1177  47.6427 16.1177  C 47.6427 16.1177  47.959 15.1053  47.959 15.1053  C 47.959 15.1053  50.177 14.9213  50.177 14.9213  C 50.177 14.9213  50.5753 13.5138  50.5753 13.5138  C 50.5753 13.5138  51.6352 13.4489  51.6352 13.4489  C 51.6352 13.4489  51.9807 14.905  51.9807 14.905  C 51.9807 14.905  52.5488 14.8563  52.5488 14.8563  C 52.5488 14.8563  52.0159 13.7845  52.0159 13.7845  C 52.0159 13.7845  53.1578 14.8076  53.1578 14.8076  C 53.1578 14.8076  53.3569 14.0281  53.3569 14.0281  C 53.3569 14.0281  52.8415 13.4326  52.8415 13.4326  C 52.8415 13.4326  53.4506 12.7777  53.4506 12.7777  C 53.4506 12.7777  53.9425 13.5463  53.9425 13.5463  C 53.9425 13.5463  54.7682 13.3406  54.7682 13.3406  C 54.7682 13.3406  53.7317 12.4475  53.7317 12.4475  C 53.7317 12.4475  53.1871 11.4408  53.1871 11.4408  C 53.1871 11.4408  54.4168 10.2176  54.4168 10.2176  C 54.4168 10.2176  54.9029 10.4881  54.9029 10.4881  C 54.9029 10.4881  55.2777 11.7439  55.2777 11.7439  C 55.2777 11.7439  54.5749 12.7939  54.5749 12.7939  C 54.5749 12.7939  55.3714 13.2215  55.3714 13.2215  C 55.3714 13.2215  55.1898 14.3691  55.1898 14.3691  C 55.1898 14.3691  54.1006 15.7008  54.1006 15.7008  C 54.1006 15.7008  54.329 16.6808  54.329 16.6808  C 54.329 16.6808  55.3129 15.1865  55.3129 15.1865  C 55.3129 15.1865  56.0566 17.0814  56.0566 17.0814  C 56.0566 17.0814  57.2863 16.4155  57.2863 16.4155  C 57.2863 16.4155  57.8368 17.1139  57.8368 17.1139  C 57.8368 17.1139  58.0828 16.5671  58.0828 16.5671  C 58.0828 16.5671  58.9436 17.0056  58.9436 17.0056  C 58.9436 17.0056  59.9919 16.1069  59.9919 16.1069  C 59.9919 16.1069  60.6653 14.6831  60.6653 14.6831  C 60.6653 14.6831  62.9316 13.3027  62.9316 13.3027  C 62.9316 13.3027  63.119 11.0889  63.119 11.0889  C 63.119 11.0889  62.6212 10.9211  62.6212 10.9211  C 62.6212 10.9211  63.201 9.57900000000001  63.201 9.57900000000001  C 63.201 9.57900000000001  63.6988 9.56819999999999  63.6988 9.56819999999999  C 63.6988 9.56819999999999  64.0326 7.62009999999998  64.0326 7.62009999999998  C 64.0326 7.62009999999998  63.2478 6.8897  63.2478 6.8897  C 63.2478 6.8897  63.7983 5.7373  63.7983 5.7373  C 63.7983 5.7373  65.0632 5.65620000000001  65.0632 5.65620000000001  C 65.0632 5.65620000000001  65.6137 4.95830000000001  65.6137 4.95830000000001  C 65.6137 4.95830000000001  66.3691 5.06650000000002  66.3691 5.06650000000002  C 66.3691 5.06650000000002  66.1934 2.97300000000001  66.1934 2.97300000000001  C 66.1934 2.97300000000001  65.7308 2.44839999999999  65.7308 2.44839999999999  C 65.7308 2.44839999999999  66.2579 1.97239999999999  66.2579 1.97239999999999  C 66.2579 1.97239999999999  66.9314 2.60520000000002  66.9314 2.60520000000002  C 66.9314 2.60520000000002  67.5111 2.43759999999997  67.5111 2.43759999999997  C 67.5111 2.43759999999997  67.9503 1.13409999999999  67.9503 1.13409999999999  C 67.9503 1.13409999999999  68.7174 0.728499999999997  68.7174 0.728499999999997  C 68.7174 0.728499999999997  69.1215 1.38290000000001  69.1215 1.38290000000001  C 69.1215 1.38290000000001  70 1.4316  70 1.4316  C 70 1.4316  70.4157 0.80419999999998  70.4157 0.80419999999998  C 70.4157 0.80419999999998  71.7568 0.312099999999987  71.7568 0.312099999999987  C 71.7568 0.312099999999987  74.8546 3.29759999999999  74.8546 3.29759999999999  C 74.8546 3.29759999999999  76.1079 5.76440000000002  76.1079 5.76440000000002  C 76.1079 5.76440000000002  76.7344 6.00240000000002  76.7344 6.00240000000002  C 76.7344 6.00240000000002  79.5337 5.80759999999998  79.5337 5.80759999999998  C 79.5337 5.80759999999998  81.3901 5.25580000000002  81.3901 5.25580000000002  C 81.3901 5.25580000000002  82.1572 5.92129999999997  82.1572 5.92129999999997  C 82.1572 5.92129999999997  83.3577 8.29109999999997  83.3577 8.29109999999997  C 83.3577 8.29109999999997  84.2712 14.4124  84.2712 14.4124  C 84.2712 14.4124  85.4073 16.383  85.4073 16.383  C 85.4073 16.383  86.2682 16.069  86.2682 16.069  C 86.2682 16.069  89.94 18.9117  89.94 18.9117  C 89.94 18.9117  89.8931 19.7565  89.8931 19.7565  C 89.8931 19.7565  90.6427 21.1862  90.6427 21.1862  C 90.6427 21.1862  90.0746 21.1862  90.0746 21.1862  C 90.0746 21.1862  89.6179 23.1579  89.6179 23.1579  C 89.6179 23.1579  89.6061 24.9727  89.6061 24.9727  C 89.6061 24.9727  91.0819 27.4378  91.0819 27.4378  C 91.0819 27.4378  91.7495 29.0418  91.7495 29.0418  C 91.7495 29.0418  92.0247 31.2314  92.0247 31.2314  C 92.0247 31.2314  91.9017 32.543  91.9017 32.543  C 91.9017 32.543  94.0627 35.2753  94.0627 35.2753  C 94.0627 35.2753  94.8064 36.9018  94.8064 36.9018  C 94.8064 36.9018  95.9542 39.0383  95.9542 39.0383  C 95.9542 39.0383  96.3407 40.9635  96.3407 40.9635  C 96.3407 40.9635  97.2015 42.9488  97.2015 42.9488  C 97.2015 42.9488  97.1957 45.6993  97.1957 45.6993  C 97.1957 45.6993  97.6758 47.6092  97.6758 47.6092  C 97.6758 47.6092  96.6686 46.8659  96.6686 46.8659  C 96.6686 46.8659  95.7375 47.6363  95.7375 47.6363  C 95.7375 47.6363  93.8225 46.9418  93.8225 46.9418  C 93.8225 46.9418  93.6059 48.0161  93.6059 48.0161  C 93.6059 48.0161  92.2882 48.6674  92.2882 48.6674  C 92.2882 48.6674  92.0013 47.3162  92.0013 47.3162  C 92.0013 47.3162  91.4859 46.5565  91.4859 46.5565  C 91.4859 46.5565  90.2445 46.7736  90.2445 46.7736  C 90.2445 46.7736  90.0688 48.027  90.0688 48.027  C 90.0688 48.027  90.5314 49.0418  90.5314 49.0418  C 90.5314 49.0418  91.6089 49.8721  91.6089 49.8721  C 91.6089 49.8721  92.3585 51.0607  92.3585 51.0607  C 92.3585 51.0607  91.7788 57.5211  91.7788 57.5211  C 91.7788 57.5211  91.076 59.009  91.076 59.009  C 91.076 59.009  91.0643 61.2689  91.0643 61.2689  C 91.0643 61.2689  90.4846 64.2617  90.4846 64.2617  C 90.4846 64.2617  89.7467 65.2505  89.7467 65.2505  C 89.7467 65.2505  87.5155 66.3207  87.5155 66.3207  C 87.5155 66.3207  86.807 67.1955  86.807 67.1955  C 86.807 67.1955  86.438 66.6358  86.438 66.6358  C 86.438 66.6358  85.7353 67.2227  85.7353 67.2227  C 85.7353 67.2227  85.9695 67.7062  85.9695 67.7062  C 85.9695 67.7062  85.0501 69.4288  85.0501 69.4288  C 85.0501 69.4288  84.6284 74.6357  84.6284 74.6357  C 84.6284 74.6357  84.2654 75.7012  84.2654 75.7012  C 84.2654 75.7012  83.6095 76.7124  83.6095 76.7124  C 83.6095 76.7124  81.1089 79.5345  81.1089 79.5345  C 81.1089 79.5345  80.3184 80.6711  80.3184 80.6711  C 80.3184 80.6711  79.9494 81.7751  79.9494 81.7751  C 79.9494 81.7751  80.0724 83.8911  80.0724 83.8911  C 80.0724 83.8911  81.4779 86.6928  81.4779 86.6928  C 81.4779 86.6928  81.7473 88.1618  81.7473 88.1618  C 81.7473 88.1618  81.5657 90.8392  81.5657 90.8392  C 81.5657 90.8392  81.2378 92.9891  81.2378 92.9891  C 81.2378 92.9891  80.494 95.1447  80.494 95.1447  C 80.494 95.1447  76.8164 101.8423  76.8164 101.8423  C 76.8164 101.8423  75.4695 103.1059  75.4695 103.1059  C 75.4695 103.1059  73.3672 104.642  73.3672 104.642  C 73.3672 104.642  70.8315 104.958  70.8315 104.958  C 70.8315 104.958  69.4729 104.4132  69.4729 104.4132  C 69.4729 104.4132  68.8287 103.6125  68.8287 103.6125  C 68.8287 103.6125  67.1304 100.4644  67.1304 100.4644  C 67.1304 100.4644  65.4497 96.6527  65.4497 96.6527  C 65.4497 96.6527  64.7939 96.239  64.7939 96.239  C 64.7939 96.239  62.3519 96.2118  62.3519 96.2118  C 62.3519 96.2118  61.737 96.5711  61.737 96.5711  C 61.737 96.5711  59.8103 99.7129  59.8103 99.7129  C 59.8103 99.7129  57.544 102.3869  57.544 102.3869  C 57.544 102.3869  53.6146 107.8564  53.6146 107.8564  C 53.6146 107.8564  50.991 112.7883  50.991 112.7883  C 50.991 112.7883  50.0482 113.4097  50.0482 113.4097  C 50.0482 113.4097  45.9503 114.0092  45.9503 114.0092  C 45.9503 114.0092  42.8934 113.922  42.8934 113.922  C 42.8934 113.922  41.119 113.6059  41.119 113.6059  C 41.119 113.6059  40.1879 112.9028  40.1879 112.9028  C 40.1879 112.9028  38.2085 110.4175  38.2085 110.4175  C 38.2085 110.4175  36.6977 109.3712  36.6977 109.3712  C 36.6977 109.3712  33.7696 108.5539  33.7696 108.5539  C 33.7696 108.5539  32.8502 109.9271  32.8502 109.9271  C 32.8502 109.9271  31.9659 115.5738  31.9659 115.5738  C 31.9659 115.5738  31.4857 116.2225  31.4857 116.2225  C 31.4857 116.2225  27.1874 118.3925  27.1874 118.3925  C 27.1874 118.3925  24.9504 118.507  24.9504 118.507  C 24.9504 118.507  24.2711 119.0414  24.2711 119.0414  C 24.2711 119.0414  23.7147 118.6924  23.7147 118.6924  C 23.7147 118.6924  23.3809 117.6455  23.3809 117.6455  C 23.3809 117.6455  23.8846 115.8082  23.8846 115.8082  C 23.8846 115.8082  23.4629 114.5925  23.4629 114.5925  C 23.4629 114.5925  24.1832 113.8948  24.1832 113.8948  C 24.1832 113.8948  25.1612 112.2378  25.1612 112.2378  C 25.1612 112.2378  25.6823 111.8998  25.6823 111.8998  C 25.6823 111.8998  25.2373 109.0115  25.2373 109.0115  C 25.2373 109.0115  26.6135 107.7257  26.6135 107.7257  C 26.6135 107.7257  26.3616 107.0446  26.3616 107.0446  C 26.3616 107.0446  27.5914 105.4647  27.5914 105.4647  C 27.5914 105.4647  27.0702 103.9066  27.0702 103.9066  C 27.0702 103.9066  28.4699 102.6702  28.4699 102.6702  C 28.4699 102.6702  27.4626 101.5917  27.4626 101.5917  C 27.4626 101.5917  26.4085 101.1125  26.4085 101.1125  C 26.4085 101.1125  26.8126 100.2411  26.8126 100.2411  C 26.8126 100.2411  27 98.5748  27 98.5748  C 27 98.5748  26.5667 98.1228  26.5667 98.1228  C 26.5667 98.1228  26.7013 96.6582  26.7013 96.6582  C 26.7013 96.6582  26.2563 96.7834  26.2563 96.7834  C 26.2563 96.7834  26.2094 94.3771  26.2094 94.3771  C 26.2094 94.3771  25.4891 92.6788  25.4891 92.6788  C 25.4891 92.6788  24.9386 92.3305  24.9386 92.3305  C 24.9386 92.3305  24.5287 90.9589  24.5287 90.9589  C 24.5287 90.9589  23.0413 90.0555  23.0413 90.0555  C 23.0413 90.0555  21.3547 90.3331  21.3547 90.3331  C 21.3547 90.3331  21.1029 89.2066  21.1029 89.2066  C 21.1029 89.2066  20.3474 88.4067  20.3474 88.4067  C 20.3474 88.4067  18.4852 87.9224  18.4852 87.9224  C 18.4852 87.9224  17.437 87.3076  17.437 87.3076  C 17.437 87.3076  17.923 86.5567  17.923 86.5567  C 17.923 86.5567  17.1266 86.7309  17.1266 86.7309  C 17.1266 86.7309  16.7577 84.522  16.7577 84.522  C 16.7577 84.522  17.8645 83.1731  17.8645 83.1731  C 17.8645 83.1731  17.5248 82.0743  17.5248 82.0743  C 17.5248 82.0743  16.418 81.4978  16.418 81.4978  C 16.418 81.4978  15.4049 81.9601  15.4049 81.9601  C 15.4049 81.9601  14.3333 81.7425  14.3333 81.7425  C 14.3333 81.7425  13.4724 79.8716  13.4724 79.8716  C 13.4724 79.8716  13.0097 79.8499  13.0097 79.8499  C 13.0097 79.8499  12.1547 78.8004  12.1547 78.8004  C 12.1547 78.8004  11.6336 79.2898  11.6336 79.2898  C 11.6336 79.2898  11.1358 78.8547  11.1358 78.8547  C 11.1358 78.8547  9.82990000000001 78.7134  9.82990000000001 78.7134  C 9.82990000000001 78.7134  9.88260000000002 77.7999  9.88260000000002 77.7999  C 9.88260000000002 77.7999  8.34829999999999 75.7664  8.34829999999999 75.7664  C 8.34829999999999 75.7664  8.28390000000002 74.7172  8.28390000000002 74.7172  C 8.28390000000002 74.7172  7.06 74.5596  7.06 74.5596  C 7.06 74.5596  6.79059999999998 75.1739  6.79059999999998 75.1739  C 6.79059999999998 75.1739  5.78919999999999 75.2881  5.78919999999999 75.2881  C 5.78919999999999 75.2881  5.75400000000002 75.799  5.75400000000002 75.799  C 5.75400000000002 75.799  2.82010000000002 76.9952  2.82010000000002 76.9952  C 2.82010000000002 76.9952  2.27550000000002 75.6088  2.27550000000002 75.6088  C 2.27550000000002 75.6088  3.15980000000002 75.1685  3.15980000000002 75.1685  C 3.15980000000002 75.1685  4.10270000000003 73.5919  4.10270000000003 73.5919  C 4.10270000000003 73.5919  2.99579999999997 71.4341  2.99579999999997 71.4341  C 2.99579999999997 71.4341  3.37060000000002 69.4505  3.37060000000002 69.4505  C 3.37060000000002 69.4505  4.17880000000002 68.7115  4.17880000000002 68.7115  C 4.17880000000002 68.7115  4.13780000000003 67.4074  4.13780000000003 67.4074  C 4.13780000000003 67.4074  3.08949999999999 66.6413  3.08949999999999 66.6413  C 3.08949999999999 66.6413  3.08949999999999 64.8974  3.08949999999999 64.8974  C 3.08949999999999 64.8974  2.03550000000001 64.5877  2.03550000000001 64.5877  C 2.03550000000001 64.5877  1.82459999999998 63.8109  1.82459999999998 63.8109  C 1.82459999999998 63.8109  0.518700000000024 63.2514  0.518700000000024 63.2514  C 0.518700000000024 63.2514  0.998899999999992 61.4318  0.998899999999992 61.4318  C 0.998899999999992 61.4318  1.7192 61.2201  1.7192 61.2201  C 1.7192 61.2201  2.99000000000001 61.7794  2.99000000000001 61.7794  C 2.99000000000001 61.7794  3.97379999999998 60.9648  3.97379999999998 60.9648  C 3.97379999999998 60.9648  4.89319999999998 58.6614  4.89319999999998 58.6614  C 4.89319999999998 58.6614  5.4144 57.3962  5.4144 57.3962  C 5.4144 57.3962  4.94589999999999 56.5274  4.94589999999999 56.5274  C 4.94589999999999 56.5274  5.46129999999999 55.1049  5.46129999999999 55.1049  C 5.46129999999999 55.1049  5.1626 54.5023  5.1626 54.5023  C 5.1626 54.5023  6.45089999999999 51.7826  6.45089999999999 51.7826  C 6.45089999999999 51.7826  7.73930000000001 51.7284  7.73930000000001 51.7284  C 7.73930000000001 51.7284  8.43619999999999 52.1517  8.43619999999999 52.1517  C 8.43619999999999 52.1517  9.3614 51.2452  9.3614 51.2452  C 9.3614 51.2452  9.34969999999998 53.1397  9.34969999999998 53.1397  C 9.34969999999998 53.1397  9.988 51.9183  9.988 51.9183  C 9.988 51.9183  10.4858 51.9726  10.4858 51.9726  C 10.4858 51.9726  10.4682 53.194  10.4682 53.194  C 10.4682 53.194  11.4462 53.004  11.4462 53.004  C 11.4462 53.004  11.698 51.5601  11.698 51.5601  C 11.698 51.5601  11.2295 51.0173  11.2295 51.0173  C 11.2295 51.0173  11.9088 50.0133  11.9088 50.0133  C 11.9088 50.0133  11.9615 49.2534  11.9615 49.2534  Z M 62.8379 131.4683  C 62.8379 131.4683  59.4428 132.9636  59.4428 132.9636  C 59.4428 132.9636  58.3653 131.9812  58.3653 131.9812  C 58.3653 131.9812  59.0504 131.0153  59.0504 131.0153  C 59.0504 131.0153  58.7986 130.5186  58.7986 130.5186  C 58.7986 130.5186  57.7738 130.9825  57.7738 130.9825  C 57.7738 130.9825  57.9612 128.0904  57.9612 128.0904  C 57.9612 128.0904  57.112 128.8979  57.112 128.8979  C 57.112 128.8979  56.3859 129.0508  56.3859 129.0508  C 56.3859 129.0508  56.0462 127.905  56.0462 127.905  C 56.0462 127.905  56.6377 126.2136  56.6377 126.2136  C 56.6377 126.2136  57.686 124.2225  57.686 124.2225  C 57.686 124.2225  59.4955 123.6388  59.4955 123.6388  C 59.4955 123.6388  59.8176 121.0189  59.8176 121.0189  C 59.8176 121.0189  58.5234 119.9718  58.5234 119.9718  C 58.5234 119.9718  57.8557 119.8846  57.8557 119.8846  C 57.8557 119.8846  57.4459 121.0298  57.4459 121.0298  C 57.4459 121.0298  56.3215 122.5207  56.3215 122.5207  C 56.3215 122.5207  55.7885 120.9316  55.7885 120.9316  C 55.7885 120.9316  54.7111 120.8335  54.7111 120.8335  C 54.7111 120.8335  54.0962 119.89  54.0962 119.89  C 54.0962 119.89  54.6115 119.3283  54.6115 119.3283  C 54.6115 119.3283  54.2835 118.2704  54.2835 118.2704  C 54.2835 118.2704  55.5309 116.1112  55.5309 116.1112  C 55.5309 116.1112  56.7724 115.3152  56.7724 115.3152  C 56.7724 115.3152  58.6757 114.6665  58.6757 114.6665  C 58.6757 114.6665  59.4076 114.83  59.4076 114.83  C 59.4076 114.83  59.9698 114.2467  59.9698 114.2467  C 59.9698 114.2467  59.5189 112.9111  59.5189 112.9111  C 59.5189 112.9111  59.8996 111.1561  59.8996 111.1561  C 59.8996 111.1561  60.491 112.0499  60.491 112.0499  C 60.491 112.0499  62.3284 112.0554  62.3284 112.0554  C 62.3284 112.0554  62.8496 111.0525  62.8496 111.0525  C 62.8496 111.0525  63.6461 111.2541  63.6461 111.2541  C 63.6461 111.2541  65.4439 110.3059  65.4439 110.3059  C 65.4439 110.3059  66.8494 110.9271  66.8494 110.9271  C 66.8494 110.9271  68.1318 110.7091  68.1318 110.7091  C 68.1318 110.7091  68.1142 112.9874  68.1142 112.9874  C 68.1142 112.9874  67.3998 113.7834  67.3998 113.7834  C 67.3998 113.7834  64.8407 114.4102  64.8407 114.4102  C 64.8407 114.4102  64.3195 115.1626  64.3195 115.1626  C 64.3195 115.1626  63.7514 116.8745  63.7514 116.8745  C 63.7514 116.8745  63.1834 117.736  63.1834 117.736  C 63.1834 117.736  62.7384 120.0209  62.7384 120.0209  C 62.7384 120.0209  63.324 120.6808  63.324 120.6808  C 63.324 120.6808  63.933 123.8352  63.933 123.8352  C 63.933 123.8352  62.7384 125.2808  62.7384 125.2808  C 62.7384 125.2808  62.2171 127.4139  62.2171 127.4139  C 62.2171 127.4139  62.2406 128.1995  62.2406 128.1995  C 62.2406 128.1995  63.2127 129.3127  63.2127 129.3127  C 63.2127 129.3127  63.6461 130.3168  63.6461 130.3168  C 63.6461 130.3168  62.8379 131.4683  62.8379 131.4683  Z M 41.2771 130.1966  C 41.2771 130.1966  40.7677 130.9443  40.7677 130.9443  C 40.7677 130.9443  40.305 130.7042  40.305 130.7042  C 40.305 130.7042  40.2524 129.6838  40.2524 129.6838  C 40.2524 129.6838  41.0781 126.4045  41.0781 126.4045  C 41.0781 126.4045  41.7867 125.3463  41.7867 125.3463  C 41.7867 125.3463  42.2493 125.8699  42.2493 125.8699  C 42.2493 125.8699  43.7836 124.648  43.7836 124.648  C 43.7836 124.648  43.7602 122.9279  43.7602 122.9279  C 43.7602 122.9279  43.1101 122.4807  43.1101 122.4807  C 43.1101 122.4807  42.9695 121.6352  42.9695 121.6352  C 42.9695 121.6352  43.93 120.9316  43.93 120.9316  C 43.93 120.9316  45.2183 120.5499  45.2183 120.5499  C 45.2183 120.5499  45.4526 118.8266  45.4526 118.8266  C 45.4526 118.8266  47.8053 117.8451  47.8053 117.8451  C 47.8053 117.8451  49.445 117.4143  49.445 117.4143  C 49.445 117.4143  50.7567 116.5801  50.7567 116.5801  C 50.7567 116.5801  51.4127 117.278  51.4127 117.278  C 51.4127 117.278  51.9339 116.7164  51.9339 116.7164  C 51.9339 116.7164  52.3672 118.7339  52.3672 118.7339  C 52.3672 118.7339  52.0803 119.7536  52.0803 119.7536  C 52.0803 119.7536  50.1302 120.7953  50.1302 120.7953  C 50.1302 120.7953  50.0892 122.7534  50.0892 122.7534  C 50.0892 122.7534  50.8798 124.5825  50.8798 124.5825  C 50.8798 124.5825  52.0568 124.9753  52.0568 124.9753  C 52.0568 124.9753  51.6118 126.1536  51.6118 126.1536  C 51.6118 126.1536  49.9193 125.9791  49.9193 125.9791  C 49.9193 125.9791  49.6909 126.8847  49.6909 126.8847  C 49.6909 126.8847  48.9472 127.6594  48.9472 127.6594  C 48.9472 127.6594  48.6837 128.6197  48.6837 128.6197  C 48.6837 128.6197  47.8463 128.145  47.8463 128.145  C 47.8463 128.145  46.9503 128.6524  46.9503 128.6524  C 46.9503 128.6524  45.6692 127.9486  45.6692 127.9486  C 45.6692 127.9486  44.7849 127.9486  44.7849 127.9486  C 44.7849 127.9486  43.643 127.3266  43.643 127.3266  C 43.643 127.3266  41.9916 128.5379  41.9916 128.5379  C 41.9916 128.5379  41.8218 129.2418  41.8218 129.2418  C 41.8218 129.2418  43.0515 129.842  43.0515 129.842  C 43.0515 129.842  43.1687 130.3168  43.1687 130.3168  C 43.1687 130.3168  41.9681 130.6496  41.9681 130.6496  C 41.9681 130.6496  41.2771 130.1966  41.2771 130.1966  Z M 34.2557 124.2989  C 34.2557 124.2989  33.4651 122.8316  33.4651 122.8316  C 33.4651 122.8316  34.5778 120.8607  34.5778 120.8607  C 34.5778 120.8607  36.2219 119.1266  36.2219 119.1266  C 36.2219 119.1266  36.8076 119.4755  36.8076 119.4755  C 36.8076 119.4755  36.9598 122.488  36.9598 122.488  C 36.9598 122.488  36.4093 123.1152  36.4093 123.1152  C 36.4093 123.1152  36.0639 124.337  36.0639 124.337  C 36.0639 124.337  34.2557 124.2989  34.2557 124.2989  Z M 53.9249 119.1286  C 53.9249 119.1286  52.1929 119.3031  52.1929 119.3031  C 52.1929 119.3031  52.1461 117.3543  52.1461 117.3543  C 52.1461 117.3543  53.6263 116.7218  53.6263 116.7218  C 53.6263 116.7218  53.9249 119.1286  53.9249 119.1286  Z M 69.4377 129.8365  C 69.4377 129.8365  68.6999 129.9402  68.6999 129.9402  C 68.6999 129.9402  66.4467 129.7547  66.4467 129.7547  C 66.4467 129.7547  66.0602 127.6306  66.0602 127.6306  C 66.0602 127.6306  68.6706 126.7303  68.6706 126.7303  C 68.6706 126.7303  70.2108 127.1995  70.2108 127.1995  C 70.2108 127.1995  70.158 129.0726  70.158 129.0726  C 70.158 129.0726  69.4377 129.8365  69.4377 129.8365  Z M 80.1017 103.3565  C 80.1017 103.3565  78.5513 104.0592  78.5513 104.0592  C 78.5513 104.0592  78.153 103.8739  78.153 103.8739  C 78.153 103.8739  77.1692 100.8804  77.1692 100.8804  C 77.1692 100.8804  78.399 99.7966  78.399 99.7966  C 78.399 99.7966  81.1089 99.4971  81.1089 99.4971  C 81.1089 99.4971  81.5774 100.9185  81.5774 100.9185  C 81.5774 100.9185  81.185 103.351  81.185 103.351  C 81.185 103.351  80.1017 103.3565  80.1017 103.3565  Z M 52.1623 127.5051  C 52.1623 127.5051  50.3483 129.7438  50.3483 129.7438  C 50.3483 129.7438  50.1433 127.707  50.1433 127.707  C 50.1433 127.707  52.1623 127.5051  52.1623 127.5051  Z M 47.0675 130.1475  C 47.0675 130.1475  45.1187 130.7151  45.1187 130.7151  C 45.1187 130.7151  44.457 130.1584  44.457 130.1584  C 44.457 130.1584  44.6444 128.2472  44.6444 128.2472  C 44.6444 128.2472  47.0323 128.3891  47.0323 128.3891  C 47.0323 128.3891  47.0675 130.1475  47.0675 130.1475  Z M 52.5663 126.5121  C 52.5663 126.5121  52.7127 128.2214  52.7127 128.2214  C 52.7127 128.2214  50.9924 128.0359  50.9924 128.0359  C 50.9924 128.0359  52.5663 126.5121  52.5663 126.5121  Z M 63.4118 132.4178  C 63.4118 132.4178  61.4514 132.9473  61.4514 132.9473  C 61.4514 132.9473  60.8658 132.4724  60.8658 132.4724  C 60.8658 132.4724  62.8731 130.6047  62.8731 130.6047  C 62.8731 130.6047  63.7046 130.3809  63.7046 130.3809  C 63.7046 130.3809  63.4118 132.4178  63.4118 132.4178  Z " fill-rule="nonzero" fill="#ffffff" stroke="none" transform="matrix(1 0 0 1 355 371 )" />
    <path d="M 11.9615 49.2534  C 11.9615 49.2534  12.834 48.3254  12.834 48.3254  C 12.834 48.3254  13.3377 48.6565  13.3377 48.6565  C 13.3377 48.6565  13.572 49.8667  13.572 49.8667  C 13.572 49.8667  14.6495 50.3986  14.6495 50.3986  C 14.6495 50.3986  14.4328 49.2372  14.4328 49.2372  C 14.4328 49.2372  14.9247 48.3852  14.9247 48.3852  C 14.9247 48.3852  14.5909 46.9961  14.5909 46.9961  C 14.5909 46.9961  15.1824 46.2961  15.1824 46.2961  C 15.1824 46.2961  16.3302 46.893  16.3302 46.893  C 16.3302 46.893  17.5307 45.9814  17.5307 45.9814  C 17.5307 45.9814  18.8131 45.9597  18.8131 45.9597  C 18.8131 45.9597  18.2217 44.0446  18.2217 44.0446  C 18.2217 44.0446  18.7487 42.1948  18.7487 42.1948  C 18.7487 42.1948  19.5159 40.7954  19.5159 40.7954  C 19.5159 40.7954  20.2537 38.5665  20.2537 38.5665  C 20.2537 38.5665  19.8556 36.5873  19.8556 36.5873  C 19.8556 36.5873  21.2551 35.5247  21.2551 35.5247  C 21.2551 35.5247  23.2111 35.0529  23.2111 35.0529  C 23.2111 35.0529  23.6796 34.0229  23.6796 34.0229  C 23.6796 34.0229  23.2814 32.0444  23.2814 32.0444  C 23.2814 32.0444  23.7088 30.8195  23.7088 30.8195  C 23.7088 30.8195  23.3926 30.4835  23.3926 30.4835  C 23.3926 30.4835  23.8143 29.2315  23.8143 29.2315  C 23.8143 29.2315  25.2666 29.4916  25.2666 29.4916  C 25.2666 29.4916  25.5242 30.0986  25.5242 30.0986  C 25.5242 30.0986  24.9445 31.0525  24.9445 31.0525  C 24.9445 31.0525  25.899 31.9793  25.899 31.9793  C 25.899 31.9793  26.3675 31.4482  26.3675 31.4482  C 26.3675 31.4482  27.6734 31.9793  27.6734 31.9793  C 27.6734 31.9793  27.2108 30.8357  27.2108 30.8357  C 27.2108 30.8357  26.3792 30.6948  26.3792 30.6948  C 26.3792 30.6948  26.5197 30.0552  26.5197 30.0552  C 26.5197 30.0552  28.0307 30.646  28.0307 30.646  C 28.0307 30.646  28.2239 31.4753  28.2239 31.4753  C 28.2239 31.4753  29.032 31.2639  29.032 31.2639  C 29.032 31.2639  28.5519 30.6731  28.5519 30.6731  C 28.5519 30.6731  29.1843 28.5812  29.1843 28.5812  C 29.1843 28.5812  29.2488 26.9339  29.2488 26.9339  C 29.2488 26.9339  30.0217 26.9556  30.0217 26.9556  C 30.0217 26.9556  30.4551 26.1537  30.4551 26.1537  C 30.4551 26.1537  30.6308 24.393  30.6308 24.393  C 30.6308 24.393  31.1461 24.5663  31.1461 24.5663  C 31.1461 24.5663  31.3042 23.5262  31.3042 23.5262  C 31.3042 23.5262  30.7889 22.7625  30.7889 22.7625  C 30.7889 22.7625  31.9894 21.5601  31.9894 21.5601  C 31.9894 21.5601  31.7317 20.6338  31.7317 20.6338  C 31.7317 20.6338  32.2529 19.8811  32.2529 19.8811  C 32.2529 19.8811  32.9908 19.6915  32.9908 19.6915  C 32.9908 19.6915  33.4534 20.1789  33.4534 20.1789  C 33.4534 20.1789  32.9264 20.6013  32.9264 20.6013  C 32.9264 20.6013  34.0625 22.1179  34.0625 22.1179  C 34.0625 22.1179  33.8809 23.6075  33.8809 23.6075  C 33.8809 23.6075  33.4885 24.3875  33.4885 24.3875  C 33.4885 24.3875  33.9512 25.807  33.9512 25.807  C 33.9512 25.807  35.0639 26.365  35.0639 26.365  C 35.0639 26.365  35.6143 27.9635  35.6143 27.9635  C 35.6143 27.9635  36.4927 27.8985  36.4927 27.8985  C 36.4927 27.8985  37.1135 27.1994  37.1135 27.1994  C 37.1135 27.1994  38.8293 26.6414  38.8293 26.6414  C 38.8293 26.6414  40.0591 25.6824  40.0591 25.6824  C 40.0591 25.6824  39.6023 23.7104  39.6023 23.7104  C 39.6023 23.7104  38.8001 22.5025  38.8001 22.5025  C 38.8001 22.5025  38.8995 20.5472  38.8995 20.5472  C 38.8995 20.5472  38.4194 19.4262  38.4194 19.4262  C 38.4194 19.4262  37.6347 18.6572  37.6347 18.6572  C 37.6347 18.6572  37.8396 17.5689  37.8396 17.5689  C 37.8396 17.5689  36.6098 15.8254  36.6098 15.8254  C 36.6098 15.8254  36.645 14.6127  36.645 14.6127  C 36.645 14.6127  38.4077 13.3135  38.4077 13.3135  C 38.4077 13.3135  38.9757 13.844  38.9757 13.844  C 38.9757 13.844  40.1704 13.3731  40.1704 13.3731  C 40.1704 13.3731  41.3299 14.3745  41.3299 14.3745  C 41.3299 14.3745  42.179 16.134  42.179 16.134  C 42.179 16.134  42.9871 16.6591  42.9871 16.6591  C 42.9871 16.6591  42.5421 18.0616  42.5421 18.0616  C 42.5421 18.0616  41.119 18.511  41.119 18.511  C 41.119 18.511  41.4704 20.1193  41.4704 20.1193  C 41.4704 20.1193  41.1718 21.468  41.1718 21.468  C 41.1718 21.468  41.9506 22.1179  41.9506 22.1179  C 41.9506 22.1179  44.3106 20.6772  44.3106 20.6772  C 44.3106 20.6772  44.7849 19.8648  44.7849 19.8648  C 44.7849 19.8648  44.8728 18.4948  44.8728 18.4948  C 44.8728 18.4948  45.7336 18.1915  45.7336 18.1915  C 45.7336 18.1915  46.0616 17.4118  46.0616 17.4118  C 46.0616 17.4118  45.0719 16.605  45.0719 16.605  C 45.0719 16.605  46.3603 15.598  46.3603 15.598  C 46.3603 15.598  47.3148 15.4193  47.3148 15.4193  C 47.3148 15.4193  47.6427 16.1177  47.6427 16.1177  C 47.6427 16.1177  47.959 15.1053  47.959 15.1053  C 47.959 15.1053  50.177 14.9213  50.177 14.9213  C 50.177 14.9213  50.5753 13.5138  50.5753 13.5138  C 50.5753 13.5138  51.6352 13.4489  51.6352 13.4489  C 51.6352 13.4489  51.9807 14.905  51.9807 14.905  C 51.9807 14.905  52.5488 14.8563  52.5488 14.8563  C 52.5488 14.8563  52.0159 13.7845  52.0159 13.7845  C 52.0159 13.7845  53.1578 14.8076  53.1578 14.8076  C 53.1578 14.8076  53.3569 14.0281  53.3569 14.0281  C 53.3569 14.0281  52.8415 13.4326  52.8415 13.4326  C 52.8415 13.4326  53.4506 12.7777  53.4506 12.7777  C 53.4506 12.7777  53.9425 13.5463  53.9425 13.5463  C 53.9425 13.5463  54.7682 13.3406  54.7682 13.3406  C 54.7682 13.3406  53.7317 12.4475  53.7317 12.4475  C 53.7317 12.4475  53.1871 11.4408  53.1871 11.4408  C 53.1871 11.4408  54.4168 10.2176  54.4168 10.2176  C 54.4168 10.2176  54.9029 10.4881  54.9029 10.4881  C 54.9029 10.4881  55.2777 11.7439  55.2777 11.7439  C 55.2777 11.7439  54.5749 12.7939  54.5749 12.7939  C 54.5749 12.7939  55.3714 13.2215  55.3714 13.2215  C 55.3714 13.2215  55.1898 14.3691  55.1898 14.3691  C 55.1898 14.3691  54.1006 15.7008  54.1006 15.7008  C 54.1006 15.7008  54.329 16.6808  54.329 16.6808  C 54.329 16.6808  55.3129 15.1865  55.3129 15.1865  C 55.3129 15.1865  56.0566 17.0814  56.0566 17.0814  C 56.0566 17.0814  57.2863 16.4155  57.2863 16.4155  C 57.2863 16.4155  57.8368 17.1139  57.8368 17.1139  C 57.8368 17.1139  58.0828 16.5671  58.0828 16.5671  C 58.0828 16.5671  58.9436 17.0056  58.9436 17.0056  C 58.9436 17.0056  59.9919 16.1069  59.9919 16.1069  C 59.9919 16.1069  60.6653 14.6831  60.6653 14.6831  C 60.6653 14.6831  62.9316 13.3027  62.9316 13.3027  C 62.9316 13.3027  63.119 11.0889  63.119 11.0889  C 63.119 11.0889  62.6212 10.9211  62.6212 10.9211  C 62.6212 10.9211  63.201 9.57900000000001  63.201 9.57900000000001  C 63.201 9.57900000000001  63.6988 9.56819999999999  63.6988 9.56819999999999  C 63.6988 9.56819999999999  64.0326 7.62009999999998  64.0326 7.62009999999998  C 64.0326 7.62009999999998  63.2478 6.8897  63.2478 6.8897  C 63.2478 6.8897  63.7983 5.7373  63.7983 5.7373  C 63.7983 5.7373  65.0632 5.65620000000001  65.0632 5.65620000000001  C 65.0632 5.65620000000001  65.6137 4.95830000000001  65.6137 4.95830000000001  C 65.6137 4.95830000000001  66.3691 5.06650000000002  66.3691 5.06650000000002  C 66.3691 5.06650000000002  66.1934 2.97300000000001  66.1934 2.97300000000001  C 66.1934 2.97300000000001  65.7308 2.44839999999999  65.7308 2.44839999999999  C 65.7308 2.44839999999999  66.2579 1.97239999999999  66.2579 1.97239999999999  C 66.2579 1.97239999999999  66.9314 2.60520000000002  66.9314 2.60520000000002  C 66.9314 2.60520000000002  67.5111 2.43759999999997  67.5111 2.43759999999997  C 67.5111 2.43759999999997  67.9503 1.13409999999999  67.9503 1.13409999999999  C 67.9503 1.13409999999999  68.7174 0.728499999999997  68.7174 0.728499999999997  C 68.7174 0.728499999999997  69.1215 1.38290000000001  69.1215 1.38290000000001  C 69.1215 1.38290000000001  70 1.4316  70 1.4316  C 70 1.4316  70.4157 0.80419999999998  70.4157 0.80419999999998  C 70.4157 0.80419999999998  71.7568 0.312099999999987  71.7568 0.312099999999987  C 71.7568 0.312099999999987  74.8546 3.29759999999999  74.8546 3.29759999999999  C 74.8546 3.29759999999999  76.1079 5.76440000000002  76.1079 5.76440000000002  C 76.1079 5.76440000000002  76.7344 6.00240000000002  76.7344 6.00240000000002  C 76.7344 6.00240000000002  79.5337 5.80759999999998  79.5337 5.80759999999998  C 79.5337 5.80759999999998  81.3901 5.25580000000002  81.3901 5.25580000000002  C 81.3901 5.25580000000002  82.1572 5.92129999999997  82.1572 5.92129999999997  C 82.1572 5.92129999999997  83.3577 8.29109999999997  83.3577 8.29109999999997  C 83.3577 8.29109999999997  84.2712 14.4124  84.2712 14.4124  C 84.2712 14.4124  85.4073 16.383  85.4073 16.383  C 85.4073 16.383  86.2682 16.069  86.2682 16.069  C 86.2682 16.069  89.94 18.9117  89.94 18.9117  C 89.94 18.9117  89.8931 19.7565  89.8931 19.7565  C 89.8931 19.7565  90.6427 21.1862  90.6427 21.1862  C 90.6427 21.1862  90.0746 21.1862  90.0746 21.1862  C 90.0746 21.1862  89.6179 23.1579  89.6179 23.1579  C 89.6179 23.1579  89.6061 24.9727  89.6061 24.9727  C 89.6061 24.9727  91.0819 27.4378  91.0819 27.4378  C 91.0819 27.4378  91.7495 29.0418  91.7495 29.0418  C 91.7495 29.0418  92.0247 31.2314  92.0247 31.2314  C 92.0247 31.2314  91.9017 32.543  91.9017 32.543  C 91.9017 32.543  94.0627 35.2753  94.0627 35.2753  C 94.0627 35.2753  94.8064 36.9018  94.8064 36.9018  C 94.8064 36.9018  95.9542 39.0383  95.9542 39.0383  C 95.9542 39.0383  96.3407 40.9635  96.3407 40.9635  C 96.3407 40.9635  97.2015 42.9488  97.2015 42.9488  C 97.2015 42.9488  97.1957 45.6993  97.1957 45.6993  C 97.1957 45.6993  97.6758 47.6092  97.6758 47.6092  C 97.6758 47.6092  96.6686 46.8659  96.6686 46.8659  C 96.6686 46.8659  95.7375 47.6363  95.7375 47.6363  C 95.7375 47.6363  93.8225 46.9418  93.8225 46.9418  C 93.8225 46.9418  93.6059 48.0161  93.6059 48.0161  C 93.6059 48.0161  92.2882 48.6674  92.2882 48.6674  C 92.2882 48.6674  92.0013 47.3162  92.0013 47.3162  C 92.0013 47.3162  91.4859 46.5565  91.4859 46.5565  C 91.4859 46.5565  90.2445 46.7736  90.2445 46.7736  C 90.2445 46.7736  90.0688 48.027  90.0688 48.027  C 90.0688 48.027  90.5314 49.0418  90.5314 49.0418  C 90.5314 49.0418  91.6089 49.8721  91.6089 49.8721  C 91.6089 49.8721  92.3585 51.0607  92.3585 51.0607  C 92.3585 51.0607  91.7788 57.5211  91.7788 57.5211  C 91.7788 57.5211  91.076 59.009  91.076 59.009  C 91.076 59.009  91.0643 61.2689  91.0643 61.2689  C 91.0643 61.2689  90.4846 64.2617  90.4846 64.2617  C 90.4846 64.2617  89.7467 65.2505  89.7467 65.2505  C 89.7467 65.2505  87.5155 66.3207  87.5155 66.3207  C 87.5155 66.3207  86.807 67.1955  86.807 67.1955  C 86.807 67.1955  86.438 66.6358  86.438 66.6358  C 86.438 66.6358  85.7353 67.2227  85.7353 67.2227  C 85.7353 67.2227  85.9695 67.7062  85.9695 67.7062  C 85.9695 67.7062  85.0501 69.4288  85.0501 69.4288  C 85.0501 69.4288  84.6284 74.6357  84.6284 74.6357  C 84.6284 74.6357  84.2654 75.7012  84.2654 75.7012  C 84.2654 75.7012  83.6095 76.7124  83.6095 76.7124  C 83.6095 76.7124  81.1089 79.5345  81.1089 79.5345  C 81.1089 79.5345  80.3184 80.6711  80.3184 80.6711  C 80.3184 80.6711  79.9494 81.7751  79.9494 81.7751  C 79.9494 81.7751  80.0724 83.8911  80.0724 83.8911  C 80.0724 83.8911  81.4779 86.6928  81.4779 86.6928  C 81.4779 86.6928  81.7473 88.1618  81.7473 88.1618  C 81.7473 88.1618  81.5657 90.8392  81.5657 90.8392  C 81.5657 90.8392  81.2378 92.9891  81.2378 92.9891  C 81.2378 92.9891  80.494 95.1447  80.494 95.1447  C 80.494 95.1447  76.8164 101.8423  76.8164 101.8423  C 76.8164 101.8423  75.4695 103.1059  75.4695 103.1059  C 75.4695 103.1059  73.3672 104.642  73.3672 104.642  C 73.3672 104.642  70.8315 104.958  70.8315 104.958  C 70.8315 104.958  69.4729 104.4132  69.4729 104.4132  C 69.4729 104.4132  68.8287 103.6125  68.8287 103.6125  C 68.8287 103.6125  67.1304 100.4644  67.1304 100.4644  C 67.1304 100.4644  65.4497 96.6527  65.4497 96.6527  C 65.4497 96.6527  64.7939 96.239  64.7939 96.239  C 64.7939 96.239  62.3519 96.2118  62.3519 96.2118  C 62.3519 96.2118  61.737 96.5711  61.737 96.5711  C 61.737 96.5711  59.8103 99.7129  59.8103 99.7129  C 59.8103 99.7129  57.544 102.3869  57.544 102.3869  C 57.544 102.3869  53.6146 107.8564  53.6146 107.8564  C 53.6146 107.8564  50.991 112.7883  50.991 112.7883  C 50.991 112.7883  50.0482 113.4097  50.0482 113.4097  C 50.0482 113.4097  45.9503 114.0092  45.9503 114.0092  C 45.9503 114.0092  42.8934 113.922  42.8934 113.922  C 42.8934 113.922  41.119 113.6059  41.119 113.6059  C 41.119 113.6059  40.1879 112.9028  40.1879 112.9028  C 40.1879 112.9028  38.2085 110.4175  38.2085 110.4175  C 38.2085 110.4175  36.6977 109.3712  36.6977 109.3712  C 36.6977 109.3712  33.7696 108.5539  33.7696 108.5539  C 33.7696 108.5539  32.8502 109.9271  32.8502 109.9271  C 32.8502 109.9271  31.9659 115.5738  31.9659 115.5738  C 31.9659 115.5738  31.4857 116.2225  31.4857 116.2225  C 31.4857 116.2225  27.1874 118.3925  27.1874 118.3925  C 27.1874 118.3925  24.9504 118.507  24.9504 118.507  C 24.9504 118.507  24.2711 119.0414  24.2711 119.0414  C 24.2711 119.0414  23.7147 118.6924  23.7147 118.6924  C 23.7147 118.6924  23.3809 117.6455  23.3809 117.6455  C 23.3809 117.6455  23.8846 115.8082  23.8846 115.8082  C 23.8846 115.8082  23.4629 114.5925  23.4629 114.5925  C 23.4629 114.5925  24.1832 113.8948  24.1832 113.8948  C 24.1832 113.8948  25.1612 112.2378  25.1612 112.2378  C 25.1612 112.2378  25.6823 111.8998  25.6823 111.8998  C 25.6823 111.8998  25.2373 109.0115  25.2373 109.0115  C 25.2373 109.0115  26.6135 107.7257  26.6135 107.7257  C 26.6135 107.7257  26.3616 107.0446  26.3616 107.0446  C 26.3616 107.0446  27.5914 105.4647  27.5914 105.4647  C 27.5914 105.4647  27.0702 103.9066  27.0702 103.9066  C 27.0702 103.9066  28.4699 102.6702  28.4699 102.6702  C 28.4699 102.6702  27.4626 101.5917  27.4626 101.5917  C 27.4626 101.5917  26.4085 101.1125  26.4085 101.1125  C 26.4085 101.1125  26.8126 100.2411  26.8126 100.2411  C 26.8126 100.2411  27 98.5748  27 98.5748  C 27 98.5748  26.5667 98.1228  26.5667 98.1228  C 26.5667 98.1228  26.7013 96.6582  26.7013 96.6582  C 26.7013 96.6582  26.2563 96.7834  26.2563 96.7834  C 26.2563 96.7834  26.2094 94.3771  26.2094 94.3771  C 26.2094 94.3771  25.4891 92.6788  25.4891 92.6788  C 25.4891 92.6788  24.9386 92.3305  24.9386 92.3305  C 24.9386 92.3305  24.5287 90.9589  24.5287 90.9589  C 24.5287 90.9589  23.0413 90.0555  23.0413 90.0555  C 23.0413 90.0555  21.3547 90.3331  21.3547 90.3331  C 21.3547 90.3331  21.1029 89.2066  21.1029 89.2066  C 21.1029 89.2066  20.3474 88.4067  20.3474 88.4067  C 20.3474 88.4067  18.4852 87.9224  18.4852 87.9224  C 18.4852 87.9224  17.437 87.3076  17.437 87.3076  C 17.437 87.3076  17.923 86.5567  17.923 86.5567  C 17.923 86.5567  17.1266 86.7309  17.1266 86.7309  C 17.1266 86.7309  16.7577 84.522  16.7577 84.522  C 16.7577 84.522  17.8645 83.1731  17.8645 83.1731  C 17.8645 83.1731  17.5248 82.0743  17.5248 82.0743  C 17.5248 82.0743  16.418 81.4978  16.418 81.4978  C 16.418 81.4978  15.4049 81.9601  15.4049 81.9601  C 15.4049 81.9601  14.3333 81.7425  14.3333 81.7425  C 14.3333 81.7425  13.4724 79.8716  13.4724 79.8716  C 13.4724 79.8716  13.0097 79.8499  13.0097 79.8499  C 13.0097 79.8499  12.1547 78.8004  12.1547 78.8004  C 12.1547 78.8004  11.6336 79.2898  11.6336 79.2898  C 11.6336 79.2898  11.1358 78.8547  11.1358 78.8547  C 11.1358 78.8547  9.82990000000001 78.7134  9.82990000000001 78.7134  C 9.82990000000001 78.7134  9.88260000000002 77.7999  9.88260000000002 77.7999  C 9.88260000000002 77.7999  8.34829999999999 75.7664  8.34829999999999 75.7664  C 8.34829999999999 75.7664  8.28390000000002 74.7172  8.28390000000002 74.7172  C 8.28390000000002 74.7172  7.06 74.5596  7.06 74.5596  C 7.06 74.5596  6.79059999999998 75.1739  6.79059999999998 75.1739  C 6.79059999999998 75.1739  5.78919999999999 75.2881  5.78919999999999 75.2881  C 5.78919999999999 75.2881  5.75400000000002 75.799  5.75400000000002 75.799  C 5.75400000000002 75.799  2.82010000000002 76.9952  2.82010000000002 76.9952  C 2.82010000000002 76.9952  2.27550000000002 75.6088  2.27550000000002 75.6088  C 2.27550000000002 75.6088  3.15980000000002 75.1685  3.15980000000002 75.1685  C 3.15980000000002 75.1685  4.10270000000003 73.5919  4.10270000000003 73.5919  C 4.10270000000003 73.5919  2.99579999999997 71.4341  2.99579999999997 71.4341  C 2.99579999999997 71.4341  3.37060000000002 69.4505  3.37060000000002 69.4505  C 3.37060000000002 69.4505  4.17880000000002 68.7115  4.17880000000002 68.7115  C 4.17880000000002 68.7115  4.13780000000003 67.4074  4.13780000000003 67.4074  C 4.13780000000003 67.4074  3.08949999999999 66.6413  3.08949999999999 66.6413  C 3.08949999999999 66.6413  3.08949999999999 64.8974  3.08949999999999 64.8974  C 3.08949999999999 64.8974  2.03550000000001 64.5877  2.03550000000001 64.5877  C 2.03550000000001 64.5877  1.82459999999998 63.8109  1.82459999999998 63.8109  C 1.82459999999998 63.8109  0.518700000000024 63.2514  0.518700000000024 63.2514  C 0.518700000000024 63.2514  0.998899999999992 61.4318  0.998899999999992 61.4318  C 0.998899999999992 61.4318  1.7192 61.2201  1.7192 61.2201  C 1.7192 61.2201  2.99000000000001 61.7794  2.99000000000001 61.7794  C 2.99000000000001 61.7794  3.97379999999998 60.9648  3.97379999999998 60.9648  C 3.97379999999998 60.9648  4.89319999999998 58.6614  4.89319999999998 58.6614  C 4.89319999999998 58.6614  5.4144 57.3962  5.4144 57.3962  C 5.4144 57.3962  4.94589999999999 56.5274  4.94589999999999 56.5274  C 4.94589999999999 56.5274  5.46129999999999 55.1049  5.46129999999999 55.1049  C 5.46129999999999 55.1049  5.1626 54.5023  5.1626 54.5023  C 5.1626 54.5023  6.45089999999999 51.7826  6.45089999999999 51.7826  C 6.45089999999999 51.7826  7.73930000000001 51.7284  7.73930000000001 51.7284  C 7.73930000000001 51.7284  8.43619999999999 52.1517  8.43619999999999 52.1517  C 8.43619999999999 52.1517  9.3614 51.2452  9.3614 51.2452  C 9.3614 51.2452  9.34969999999998 53.1397  9.34969999999998 53.1397  C 9.34969999999998 53.1397  9.988 51.9183  9.988 51.9183  C 9.988 51.9183  10.4858 51.9726  10.4858 51.9726  C 10.4858 51.9726  10.4682 53.194  10.4682 53.194  C 10.4682 53.194  11.4462 53.004  11.4462 53.004  C 11.4462 53.004  11.698 51.5601  11.698 51.5601  C 11.698 51.5601  11.2295 51.0173  11.2295 51.0173  C 11.2295 51.0173  11.9088 50.0133  11.9088 50.0133  C 11.9088 50.0133  11.9615 49.2534  11.9615 49.2534  Z " stroke-width="2" stroke="#666666" fill="none" transform="matrix(1 0 0 1 355 371 )" mask="url(#clip34)" />
    <path d="M 62.8379 131.4683  C 62.8379 131.4683  59.4428 132.9636  59.4428 132.9636  C 59.4428 132.9636  58.3653 131.9812  58.3653 131.9812  C 58.3653 131.9812  59.0504 131.0153  59.0504 131.0153  C 59.0504 131.0153  58.7986 130.5186  58.7986 130.5186  C 58.7986 130.5186  57.7738 130.9825  57.7738 130.9825  C 57.7738 130.9825  57.9612 128.0904  57.9612 128.0904  C 57.9612 128.0904  57.112 128.8979  57.112 128.8979  C 57.112 128.8979  56.3859 129.0508  56.3859 129.0508  C 56.3859 129.0508  56.0462 127.905  56.0462 127.905  C 56.0462 127.905  56.6377 126.2136  56.6377 126.2136  C 56.6377 126.2136  57.686 124.2225  57.686 124.2225  C 57.686 124.2225  59.4955 123.6388  59.4955 123.6388  C 59.4955 123.6388  59.8176 121.0189  59.8176 121.0189  C 59.8176 121.0189  58.5234 119.9718  58.5234 119.9718  C 58.5234 119.9718  57.8557 119.8846  57.8557 119.8846  C 57.8557 119.8846  57.4459 121.0298  57.4459 121.0298  C 57.4459 121.0298  56.3215 122.5207  56.3215 122.5207  C 56.3215 122.5207  55.7885 120.9316  55.7885 120.9316  C 55.7885 120.9316  54.7111 120.8335  54.7111 120.8335  C 54.7111 120.8335  54.0962 119.89  54.0962 119.89  C 54.0962 119.89  54.6115 119.3283  54.6115 119.3283  C 54.6115 119.3283  54.2835 118.2704  54.2835 118.2704  C 54.2835 118.2704  55.5309 116.1112  55.5309 116.1112  C 55.5309 116.1112  56.7724 115.3152  56.7724 115.3152  C 56.7724 115.3152  58.6757 114.6665  58.6757 114.6665  C 58.6757 114.6665  59.4076 114.83  59.4076 114.83  C 59.4076 114.83  59.9698 114.2467  59.9698 114.2467  C 59.9698 114.2467  59.5189 112.9111  59.5189 112.9111  C 59.5189 112.9111  59.8996 111.1561  59.8996 111.1561  C 59.8996 111.1561  60.491 112.0499  60.491 112.0499  C 60.491 112.0499  62.3284 112.0554  62.3284 112.0554  C 62.3284 112.0554  62.8496 111.0525  62.8496 111.0525  C 62.8496 111.0525  63.6461 111.2541  63.6461 111.2541  C 63.6461 111.2541  65.4439 110.3059  65.4439 110.3059  C 65.4439 110.3059  66.8494 110.9271  66.8494 110.9271  C 66.8494 110.9271  68.1318 110.7091  68.1318 110.7091  C 68.1318 110.7091  68.1142 112.9874  68.1142 112.9874  C 68.1142 112.9874  67.3998 113.7834  67.3998 113.7834  C 67.3998 113.7834  64.8407 114.4102  64.8407 114.4102  C 64.8407 114.4102  64.3195 115.1626  64.3195 115.1626  C 64.3195 115.1626  63.7514 116.8745  63.7514 116.8745  C 63.7514 116.8745  63.1834 117.736  63.1834 117.736  C 63.1834 117.736  62.7384 120.0209  62.7384 120.0209  C 62.7384 120.0209  63.324 120.6808  63.324 120.6808  C 63.324 120.6808  63.933 123.8352  63.933 123.8352  C 63.933 123.8352  62.7384 125.2808  62.7384 125.2808  C 62.7384 125.2808  62.2171 127.4139  62.2171 127.4139  C 62.2171 127.4139  62.2406 128.1995  62.2406 128.1995  C 62.2406 128.1995  63.2127 129.3127  63.2127 129.3127  C 63.2127 129.3127  63.6461 130.3168  63.6461 130.3168  C 63.6461 130.3168  62.8379 131.4683  62.8379 131.4683  Z " stroke-width="2" stroke="#666666" fill="none" transform="matrix(1 0 0 1 355 371 )" mask="url(#clip34)" />
    <path d="M 41.2771 130.1966  C 41.2771 130.1966  40.7677 130.9443  40.7677 130.9443  C 40.7677 130.9443  40.305 130.7042  40.305 130.7042  C 40.305 130.7042  40.2524 129.6838  40.2524 129.6838  C 40.2524 129.6838  41.0781 126.4045  41.0781 126.4045  C 41.0781 126.4045  41.7867 125.3463  41.7867 125.3463  C 41.7867 125.3463  42.2493 125.8699  42.2493 125.8699  C 42.2493 125.8699  43.7836 124.648  43.7836 124.648  C 43.7836 124.648  43.7602 122.9279  43.7602 122.9279  C 43.7602 122.9279  43.1101 122.4807  43.1101 122.4807  C 43.1101 122.4807  42.9695 121.6352  42.9695 121.6352  C 42.9695 121.6352  43.93 120.9316  43.93 120.9316  C 43.93 120.9316  45.2183 120.5499  45.2183 120.5499  C 45.2183 120.5499  45.4526 118.8266  45.4526 118.8266  C 45.4526 118.8266  47.8053 117.8451  47.8053 117.8451  C 47.8053 117.8451  49.445 117.4143  49.445 117.4143  C 49.445 117.4143  50.7567 116.5801  50.7567 116.5801  C 50.7567 116.5801  51.4127 117.278  51.4127 117.278  C 51.4127 117.278  51.9339 116.7164  51.9339 116.7164  C 51.9339 116.7164  52.3672 118.7339  52.3672 118.7339  C 52.3672 118.7339  52.0803 119.7536  52.0803 119.7536  C 52.0803 119.7536  50.1302 120.7953  50.1302 120.7953  C 50.1302 120.7953  50.0892 122.7534  50.0892 122.7534  C 50.0892 122.7534  50.8798 124.5825  50.8798 124.5825  C 50.8798 124.5825  52.0568 124.9753  52.0568 124.9753  C 52.0568 124.9753  51.6118 126.1536  51.6118 126.1536  C 51.6118 126.1536  49.9193 125.9791  49.9193 125.9791  C 49.9193 125.9791  49.6909 126.8847  49.6909 126.8847  C 49.6909 126.8847  48.9472 127.6594  48.9472 127.6594  C 48.9472 127.6594  48.6837 128.6197  48.6837 128.6197  C 48.6837 128.6197  47.8463 128.145  47.8463 128.145  C 47.8463 128.145  46.9503 128.6524  46.9503 128.6524  C 46.9503 128.6524  45.6692 127.9486  45.6692 127.9486  C 45.6692 127.9486  44.7849 127.9486  44.7849 127.9486  C 44.7849 127.9486  43.643 127.3266  43.643 127.3266  C 43.643 127.3266  41.9916 128.5379  41.9916 128.5379  C 41.9916 128.5379  41.8218 129.2418  41.8218 129.2418  C 41.8218 129.2418  43.0515 129.842  43.0515 129.842  C 43.0515 129.842  43.1687 130.3168  43.1687 130.3168  C 43.1687 130.3168  41.9681 130.6496  41.9681 130.6496  C 41.9681 130.6496  41.2771 130.1966  41.2771 130.1966  Z " stroke-width="2" stroke="#666666" fill="none" transform="matrix(1 0 0 1 355 371 )" mask="url(#clip34)" />
    <path d="M 34.2557 124.2989  C 34.2557 124.2989  33.4651 122.8316  33.4651 122.8316  C 33.4651 122.8316  34.5778 120.8607  34.5778 120.8607  C 34.5778 120.8607  36.2219 119.1266  36.2219 119.1266  C 36.2219 119.1266  36.8076 119.4755  36.8076 119.4755  C 36.8076 119.4755  36.9598 122.488  36.9598 122.488  C 36.9598 122.488  36.4093 123.1152  36.4093 123.1152  C 36.4093 123.1152  36.0639 124.337  36.0639 124.337  C 36.0639 124.337  34.2557 124.2989  34.2557 124.2989  Z " stroke-width="2" stroke="#666666" fill="none" transform="matrix(1 0 0 1 355 371 )" mask="url(#clip34)" />
    <path d="M 53.9249 119.1286  C 53.9249 119.1286  52.1929 119.3031  52.1929 119.3031  C 52.1929 119.3031  52.1461 117.3543  52.1461 117.3543  C 52.1461 117.3543  53.6263 116.7218  53.6263 116.7218  C 53.6263 116.7218  53.9249 119.1286  53.9249 119.1286  Z " stroke-width="2" stroke="#666666" fill="none" transform="matrix(1 0 0 1 355 371 )" mask="url(#clip34)" />
    <path d="M 69.4377 129.8365  C 69.4377 129.8365  68.6999 129.9402  68.6999 129.9402  C 68.6999 129.9402  66.4467 129.7547  66.4467 129.7547  C 66.4467 129.7547  66.0602 127.6306  66.0602 127.6306  C 66.0602 127.6306  68.6706 126.7303  68.6706 126.7303  C 68.6706 126.7303  70.2108 127.1995  70.2108 127.1995  C 70.2108 127.1995  70.158 129.0726  70.158 129.0726  C 70.158 129.0726  69.4377 129.8365  69.4377 129.8365  Z " stroke-width="2" stroke="#666666" fill="none" transform="matrix(1 0 0 1 355 371 )" mask="url(#clip34)" />
    <path d="M 80.1017 103.3565  C 80.1017 103.3565  78.5513 104.0592  78.5513 104.0592  C 78.5513 104.0592  78.153 103.8739  78.153 103.8739  C 78.153 103.8739  77.1692 100.8804  77.1692 100.8804  C 77.1692 100.8804  78.399 99.7966  78.399 99.7966  C 78.399 99.7966  81.1089 99.4971  81.1089 99.4971  C 81.1089 99.4971  81.5774 100.9185  81.5774 100.9185  C 81.5774 100.9185  81.185 103.351  81.185 103.351  C 81.185 103.351  80.1017 103.3565  80.1017 103.3565  Z " stroke-width="2" stroke="#666666" fill="none" transform="matrix(1 0 0 1 355 371 )" mask="url(#clip34)" />
    <path d="M 52.1623 127.5051  C 52.1623 127.5051  50.3483 129.7438  50.3483 129.7438  C 50.3483 129.7438  50.1433 127.707  50.1433 127.707  C 50.1433 127.707  52.1623 127.5051  52.1623 127.5051  Z " stroke-width="2" stroke="#666666" fill="none" transform="matrix(1 0 0 1 355 371 )" mask="url(#clip34)" />
    <path d="M 47.0675 130.1475  C 47.0675 130.1475  45.1187 130.7151  45.1187 130.7151  C 45.1187 130.7151  44.457 130.1584  44.457 130.1584  C 44.457 130.1584  44.6444 128.2472  44.6444 128.2472  C 44.6444 128.2472  47.0323 128.3891  47.0323 128.3891  C 47.0323 128.3891  47.0675 130.1475  47.0675 130.1475  Z " stroke-width="2" stroke="#666666" fill="none" transform="matrix(1 0 0 1 355 371 )" mask="url(#clip34)" />
    <path d="M 52.5663 126.5121  C 52.5663 126.5121  52.7127 128.2214  52.7127 128.2214  C 52.7127 128.2214  50.9924 128.0359  50.9924 128.0359  C 50.9924 128.0359  52.5663 126.5121  52.5663 126.5121  Z " stroke-width="2" stroke="#666666" fill="none" transform="matrix(1 0 0 1 355 371 )" mask="url(#clip34)" />
    <path d="M 63.4118 132.4178  C 63.4118 132.4178  61.4514 132.9473  61.4514 132.9473  C 61.4514 132.9473  60.8658 132.4724  60.8658 132.4724  C 60.8658 132.4724  62.8731 130.6047  62.8731 130.6047  C 62.8731 130.6047  63.7046 130.3809  63.7046 130.3809  C 63.7046 130.3809  63.4118 132.4178  63.4118 132.4178  Z " stroke-width="2" stroke="#666666" fill="none" transform="matrix(1 0 0 1 355 371 )" mask="url(#clip34)" />
  </g>
</svg>