<?xml version="1.0" encoding="utf-8"?>
<svg version="1.1" xmlns:xlink="http://www.w3.org/1999/xlink" width="105px" height="138px" xmlns="http://www.w3.org/2000/svg">
  <defs>
    <mask fill="white" id="clip36">
      <path d="M 29.984 121.7629  C 29.984 121.7629  29.375 122.3526  29.375 122.3526  C 29.375 122.3526  28.356 123.0787  28.356 123.0787  C 28.356 123.0787  27.1555 122.3144  27.1555 122.3144  C 27.1555 122.3144  26.728 123.2097  26.728 123.2097  C 26.728 123.2097  27.4717 123.7284  27.4717 123.7284  C 27.4717 123.7284  27.9343 125.3666  27.9343 125.3666  C 27.9343 125.3666  27.583 125.6832  27.583 125.6832  C 27.583 125.6832  26.2478 124.7495  26.2478 124.7495  C 26.2478 124.7495  25.5685 125.4212  25.5685 125.4212  C 25.5685 125.4212  25.6388 124.127  25.6388 124.127  C 25.6388 124.127  24.6608 124.3673  24.6608 124.3673  C 24.6608 124.3673  24.6901 126.2348  24.6901 126.2348  C 24.6901 126.2348  22.8337 126.426  22.8337 126.426  C 22.8337 126.426  21.9318 124.5967  21.9318 124.5967  C 21.9318 124.5967  21.1412 123.7503  21.1412 123.7503  C 21.1412 123.7503  20.4561 124.4328  20.4561 124.4328  C 20.4561 124.4328  19.4723 124.5802  19.4723 124.5802  C 19.4723 124.5802  19.32 122.8875  19.32 122.8875  C 19.32 122.8875  17.9321 123.2043  17.9321 123.2043  C 17.9321 123.2043  16.7609 125.1973  16.7609 125.1973  C 16.7609 125.1973  17.0479 126.6116  17.0479 126.6116  C 17.0479 126.6116  16.5442 127.1578  16.5442 127.1578  C 16.5442 127.1578  16.0523 126.497  16.0523 126.497  C 16.0523 126.497  14.9631 126.5134  14.9631 126.5134  C 14.9631 126.5134  14.9221 125.5413  14.9221 125.5413  C 14.9221 125.5413  14.2135 125.4157  14.2135 125.4157  C 14.2135 125.4157  14.3716 124.5365  14.3716 124.5365  C 14.3716 124.5365  13.3878 122.7511  13.3878 122.7511  C 13.3878 122.7511  12.4391 123.0951  12.4391 123.0951  C 12.4391 123.0951  11.8711 121.823  11.8711 121.823  C 11.8711 121.823  12.3396 120.027  12.3396 120.027  C 12.3396 120.027  11.7071 118.9789  11.7071 118.9789  C 11.7071 118.9789  11.3089 119.6503  11.3089 119.6503  C 11.3089 119.6503  10.1611 118.9407  10.1611 118.9407  C 10.1611 118.9407  9.78039999999999 119.3555  9.78039999999999 119.3555  C 9.78039999999999 119.3555  9.27680000000001 118.7496  9.27680000000001 118.7496  C 9.27680000000001 118.7496  8.56819999999999 119.0062  8.56819999999999 119.0062  C 8.56819999999999 119.0062  7.66640000000001 118.1546  7.66640000000001 118.1546  C 7.66640000000001 118.1546  8.19929999999999 116.7793  8.19929999999999 116.7793  C 8.19929999999999 116.7793  8.06460000000001 116.2772  8.06460000000001 116.2772  C 8.06460000000001 116.2772  8.94300000000001 116.2335  8.94300000000001 116.2335  C 8.94300000000001 116.2335  9.22989999999999 115.6387  9.22989999999999 115.6387  C 9.22989999999999 115.6387  8.0119 114.2963  8.0119 114.2963  C 8.0119 114.2963  7.26820000000001 114.4927  7.26820000000001 114.4927  C 7.26820000000001 114.4927  7.47900000000001 115.1912  7.47900000000001 115.1912  C 7.47900000000001 115.1912  6.95189999999999 115.726  6.95189999999999 115.726  C 6.95189999999999 115.726  6.43080000000001 114.1217  6.43080000000001 114.1217  C 6.43080000000001 114.1217  6.89930000000001 113.8598  6.89930000000001 113.8598  C 6.89930000000001 113.8598  6.89930000000001 112.5775  6.89930000000001 112.5775  C 6.89930000000001 112.5775  6.3546 112.463  6.3546 112.463  C 6.3546 112.463  6.33699999999999 110.7772  6.33699999999999 110.7772  C 6.33699999999999 110.7772  5.69290000000001 110.93  5.69290000000001 110.93  C 5.69290000000001 110.93  6.4717 109.3534  6.4717 109.3534  C 6.4717 109.3534  4.84379999999999 108.4425  4.84379999999999 108.4425  C 4.84379999999999 108.4425  4.59190000000001 107.4334  4.59190000000001 107.4334  C 4.59190000000001 107.4334  6.8758 106.5881  6.8758 106.5881  C 6.8758 106.5881  6.67670000000001 105.481  6.67670000000001 105.481  C 6.67670000000001 105.481  6.1497 105.2193  6.1497 105.2193  C 6.1497 105.2193  5.68119999999999 106.8062  5.68119999999999 106.8062  C 5.68119999999999 106.8062  5.35319999999999 105.9936  5.35319999999999 105.9936  C 5.35319999999999 105.9936  4.84379999999999 106.6917  4.84379999999999 106.6917  C 4.84379999999999 106.6917  3.46170000000001 105.8137  3.46170000000001 105.8137  C 3.46170000000001 105.8137  3.63149999999999 105.2029  3.63149999999999 105.2029  C 3.63149999999999 105.2029  2.22020000000001 102.7273  2.22020000000001 102.7273  C 2.22020000000001 102.7273  3.5437 101.8931  3.5437 101.8931  C 3.5437 101.8931  3.286 99.2273  3.286 99.2273  C 3.286 99.2273  4.03559999999999 97.9736  4.03559999999999 97.9736  C 4.03559999999999 97.9736  4.34010000000001 97.6302  4.34010000000001 97.6302  C 4.34010000000001 97.6302  5.09549999999999 97.7883  5.09549999999999 97.7883  C 5.09549999999999 97.7883  5.24780000000001 96.3059  5.24780000000001 96.3059  C 5.24780000000001 96.3059  4.48650000000001 95.6246  4.48650000000001 95.6246  C 4.48650000000001 95.6246  4.428 95.5101  4.428 95.5101  C 4.428 95.5101  5.0429 95.0415  5.0429 95.0415  C 5.0429 95.0415  4.91990000000001 94.3821  4.91990000000001 94.3821  C 4.91990000000001 94.3821  4.06489999999999 94.0551  4.06489999999999 94.0551  C 4.06489999999999 94.0551  4.19370000000001 93.2541  4.19370000000001 93.2541  C 4.19370000000001 93.2541  3.04589999999999 94.1696  3.04589999999999 94.1696  C 3.04589999999999 94.1696  1.98599999999999 93.6737  1.98599999999999 93.6737  C 1.98599999999999 93.6737  2.12649999999999 92.9436  2.12649999999999 92.9436  C 2.12649999999999 92.9436  3.26840000000001 93.2105  3.26840000000001 93.2105  C 3.26840000000001 93.2105  2.71209999999999 92.3551  2.71209999999999 92.3551  C 2.71209999999999 92.3551  1.9684 92.9763  1.9684 92.9763  C 1.9684 92.9763  1.79859999999999 93.8426  1.79859999999999 93.8426  C 1.79859999999999 93.8426  1.30080000000001 93.2814  1.30080000000001 93.2814  C 1.30080000000001 93.2814  1.54679999999999 90.1268  1.54679999999999 90.1268  C 1.54679999999999 90.1268  2.2319 89.277  2.2319 89.277  C 2.2319 89.277  2.43690000000001 88.1768  2.43690000000001 88.1768  C 2.43690000000001 88.1768  2.16749999999999 87.4142  2.16749999999999 87.4142  C 2.16749999999999 87.4142  3.0694 86.9784  3.0694 86.9784  C 3.0694 86.9784  3.8365 88.1877  3.8365 88.1877  C 3.8365 88.1877  4.9667 88.607  4.9667 88.607  C 4.9667 88.607  5.81 87.6375  5.81 87.6375  C 5.81 87.6375  4.98429999999999 84.7183  4.98429999999999 84.7183  C 4.98429999999999 84.7183  5.65190000000001 83.1174  5.65190000000001 83.1174  C 5.65190000000001 83.1174  6.9813 82.5892  6.9813 82.5892  C 6.9813 82.5892  5.9623 82.317  5.9623 82.317  C 5.9623 82.317  6.95779999999999 82.1428  6.95779999999999 82.1428  C 6.95779999999999 82.1428  7.0632 80.4061  7.0632 80.4061  C 7.0632 80.4061  9.04259999999999 80.014  9.04259999999999 80.014  C 9.04259999999999 80.014  9.17140000000001 79.5786  9.17140000000001 79.5786  C 9.17140000000001 79.5786  7.3443 79.2192  7.3443 79.2192  C 7.3443 79.2192  6.92259999999999 78.2558  6.92259999999999 78.2558  C 6.92259999999999 78.2558  5.93289999999999 78.0979  5.93289999999999 78.0979  C 5.93289999999999 78.0979  5.25360000000001 78.6205  5.25360000000001 78.6205  C 5.25360000000001 78.6205  4.15860000000001 76.8351  4.15860000000001 76.8351  C 4.15860000000001 76.8351  2.3373 75.9371  2.3373 75.9371  C 2.3373 75.9371  2.87020000000001 74.1739  2.87020000000001 74.1739  C 2.87020000000001 74.1739  2.595 72.8027  2.595 72.8027  C 2.595 72.8027  3.1455 72.9605  3.1455 72.9605  C 3.1455 72.9605  1.9391 69.5819  1.9391 69.5819  C 1.9391 69.5819  2.34899999999999 69.1141  2.34899999999999 69.1141  C 2.34899999999999 69.1141  2.53059999999999 66.281  2.53059999999999 66.281  C 2.53059999999999 66.281  2.24369999999999 64.9703  2.24369999999999 64.9703  C 2.24369999999999 64.9703  2.78819999999999 64.8179  2.78819999999999 64.8179  C 2.78819999999999 64.8179  2.8175 63.9859  2.8175 63.9859  C 2.8175 63.9859  2.20849999999999 63.4856  2.20849999999999 63.4856  C 2.20849999999999 63.4856  2.17339999999999 62.6699  2.17339999999999 62.6699  C 2.17339999999999 62.6699  3.30950000000001 62.4959  3.30950000000001 62.4959  C 3.30950000000001 62.4959  3.0986 61.316  3.0986 61.316  C 3.0986 61.316  3.22749999999999 59.7936  3.22749999999999 59.7936  C 3.22749999999999 59.7936  2.94630000000001 59.0924  2.94630000000001 59.0924  C 2.94630000000001 59.0924  2.27879999999999 59.0543  2.27879999999999 59.0543  C 2.27879999999999 59.0543  0.914299999999997 57.3691  0.914299999999997 57.3691  C 0.914299999999997 57.3691  0.322900000000004 56.9995  0.322900000000004 56.9995  C 0.322900000000004 56.9995  0.281800000000004 55.7983  0.281800000000004 55.7983  C 0.281800000000004 55.7983  0.9495 55.195  0.9495 55.195  C 0.9495 55.195  1.15440000000001 53.8037  1.15440000000001 53.8037  C 1.15440000000001 53.8037  1.54089999999999 53.8635  1.54089999999999 53.8635  C 1.54089999999999 53.8635  1.99770000000001 52.5974  1.99770000000001 52.5974  C 1.99770000000001 52.5974  4.0532 55.608  4.0532 55.608  C 4.0532 55.608  4.48650000000001 55.82  4.48650000000001 55.82  C 4.48650000000001 55.82  5.43520000000001 55.1841  5.43520000000001 55.1841  C 5.43520000000001 55.1841  5.24189999999999 54.3145  5.24189999999999 54.3145  C 5.24189999999999 54.3145  5.88030000000001 53.4614  5.88030000000001 53.4614  C 5.88030000000001 53.4614  6.74700000000001 53.1733  6.74700000000001 53.1733  C 6.74700000000001 53.1733  6.68260000000001 51.842  6.68260000000001 51.842  C 6.68260000000001 51.842  7.04570000000001 51.3042  7.04570000000001 51.3042  C 7.04570000000001 51.3042  8.28710000000001 51.5432  8.28710000000001 51.5432  C 8.28710000000001 51.5432  10.0206 52.9723  10.0206 52.9723  C 10.0206 52.9723  10.5359 54.358  10.5359 54.358  C 10.5359 54.358  12.8197 56.7441  12.8197 56.7441  C 12.8197 56.7441  12.3044 57.2169  12.3044 57.2169  C 12.3044 57.2169  12.7671 57.8203  12.7671 57.8203  C 12.7671 57.8203  14.3892 57.7767  14.3892 57.7767  C 14.3892 57.7767  15.8239 56.8147  15.8239 56.8147  C 15.8239 56.8147  15.8122 55.8037  15.8122 55.8037  C 15.8122 55.8037  18.1839 52.543  18.1839 52.543  C 18.1839 52.543  20.093 53.6951  20.093 53.6951  C 20.093 53.6951  21.4048 53.8689  21.4048 53.8689  C 21.4048 53.8689  21.0944 55.9016  21.0944 55.9016  C 21.0944 55.9016  21.6741 56.6679  21.6741 56.6679  C 21.6741 56.6679  22.8044 56.4722  22.8044 56.4722  C 22.8044 56.4722  23.4368 57.3637  23.4368 57.3637  C 23.4368 57.3637  25.2756 56.3146  25.2756 56.3146  C 25.2756 56.3146  25.6563 55.483  25.6563 55.483  C 25.6563 55.483  26.2185 55.7222  26.2185 55.7222  C 26.2185 55.7222  26.5992 54.945  26.5992 54.945  C 26.5992 54.945  27.2433 54.9613  27.2433 54.9613  C 27.2433 54.9613  26.9681 53.3526  26.9681 53.3526  C 26.9681 53.3526  26.16 51.8312  26.16 51.8312  C 26.16 51.8312  25.2523 51.3911  25.2523 51.3911  C 25.2523 51.3911  24.7955 49.8317  24.7955 49.8317  C 24.7955 49.8317  25.305 48.2835  25.305 48.2835  C 25.305 48.2835  26.1541 47.5556  26.1541 47.5556  C 26.1541 47.5556  27.7879 47.2296  27.7879 47.2296  C 27.7879 47.2296  28.438 46.2412  28.438 46.2412  C 28.438 46.2412  28.5082 44.8072  28.5082 44.8072  C 28.5082 44.8072  29.7731 44.2533  29.7731 44.2533  C 29.7731 44.2533  30.4583 42.5862  30.4583 42.5862  C 30.4583 42.5862  30.7921 42.4342  30.7921 42.4342  C 30.7921 42.4342  31.8287 43.8298  31.8287 43.8298  C 31.8287 43.8298  33.3454 44.5683  33.3454 44.5683  C 33.3454 44.5683  35.313 43.9438  35.313 43.9438  C 35.313 43.9438  35.7113 43.3464  35.7113 43.3464  C 35.7113 43.3464  35.395 42.5373  35.395 42.5373  C 35.395 42.5373  34.4053 42.4396  34.4053 42.4396  C 34.4053 42.4396  34.4522 41.2342  34.4522 41.2342  C 34.4522 41.2342  33.4801 39.4589  33.4801 39.4589  C 33.4801 39.4589  32.6309 38.9539  32.6309 38.9539  C 32.6309 38.9539  32.6895 37.4231  32.6895 37.4231  C 32.6895 37.4231  32.0102 35.6699  32.0102 35.6699  C 32.0102 35.6699  31.1025 35.2249  31.1025 35.2249  C 31.1025 35.2249  30.675 35.887  30.675 35.887  C 30.675 35.887  29.738 34.8938  29.738 34.8938  C 29.738 34.8938  29.8024 32.2619  29.8024 32.2619  C 29.8024 32.2619  29.3808 31.2527  29.3808 31.2527  C 29.3808 31.2527  29.9254 30.0591  29.9254 30.0591  C 29.9254 30.0591  29.8727 27.9813  29.8727 27.9813  C 29.8727 27.9813  29.3691 27.0701  29.3691 27.0701  C 29.3691 27.0701  28.3618 26.8802  28.3618 26.8802  C 28.3618 26.8802  28.2974 25.9147  28.2974 25.9147  C 28.2974 25.9147  27.5947 24.3202  27.5947 24.3202  C 27.5947 24.3202  27.9577 23.8756  27.9577 23.8756  C 27.9577 23.8756  28.7308 24.2118  28.7308 24.2118  C 28.7308 24.2118  29.2461 25.0307  29.2461 25.0307  C 29.2461 25.0307  30.839 25.5622  30.839 25.5622  C 30.839 25.5622  32.016 25.2477  32.016 25.2477  C 32.016 25.2477  32.508 24.0437  32.508 24.0437  C 32.508 24.0437  31.9106 22.7585  31.9106 22.7585  C 31.9106 22.7585  31.9458 21.7283  31.9458 21.7283  C 31.9458 21.7283  32.7129 19.874  32.7129 19.874  C 32.7129 19.874  33.5035 19.9011  33.5035 19.9011  C 33.5035 19.9011  33.0057 17.8574  33.0057 17.8574  C 33.0057 17.8574  33.2048 16.6758  33.2048 16.6758  C 33.2048 16.6758  32.5313 16.0308  32.5313 16.0308  C 32.5313 16.0308  33.5562 15.5377  33.5562 15.5377  C 33.5562 15.5377  33.7846 14.8926  33.7846 14.8926  C 33.7846 14.8926  33.4566 13.3808  33.4566 13.3808  C 33.4566 13.3808  34.868 12.9093  34.868 12.9093  C 34.868 12.9093  36.0041 14.3399  36.0041 14.3399  C 36.0041 14.3399  36.4374 15.8195  36.4374 15.8195  C 36.4374 15.8195  36.9411 15.6081  36.9411 15.6081  C 36.9411 15.6081  37.0757 14.4103  37.0757 14.4103  C 37.0757 14.4103  37.6789 13.6571  37.6789 13.6571  C 37.6789 13.6571  39.0375 12.9581  39.0375 12.9581  C 39.0375 12.9581  40.607 13.229  40.607 13.229  C 40.607 13.229  41.175 12.6708  41.175 12.6708  C 41.175 12.6708  42.4341 13.1857  42.4341 13.1857  C 42.4341 13.1857  43.166 13.099  43.166 13.099  C 43.166 13.099  43.9801 12.2374  43.9801 12.2374  C 43.9801 12.2374  43.822 10.0431  43.822 10.0431  C 43.822 10.0431  47.2946 10.5957  47.2946 10.5957  C 47.2946 10.5957  48.5478 9.71800000000002  48.5478 9.71800000000002  C 48.5478 9.71800000000002  48.8582 8.7971  48.8582 8.7971  C 48.8582 8.7971  48.6474 7.7029  48.6474 7.7029  C 48.6474 7.7029  50.047 7.18830000000003  50.047 7.18830000000003  C 50.047 7.18830000000003  50.8141 7.32369999999997  50.8141 7.32369999999997  C 50.8141 7.32369999999997  51.5578 8.22829999999999  51.5578 8.22829999999999  C 51.5578 8.22829999999999  53.5475 6.84710000000001  53.5475 6.84710000000001  C 53.5475 6.84710000000001  54.9179 6.17000000000002  54.9179 6.17000000000002  C 54.9179 6.17000000000002  55.1287 6.65750000000003  55.1287 6.65750000000003  C 55.1287 6.65750000000003  57.0319 6.47879999999998  57.0319 6.47879999999998  C 57.0319 6.47879999999998  57.5238 4.6807  57.5238 4.6807  C 57.5238 4.6807  58.4374 4.57240000000002  58.4374 4.57240000000002  C 58.4374 4.57240000000002  59.632 1.81610000000001  59.632 1.81610000000001  C 59.632 1.81610000000001  60.7857 1.75659999999999  60.7857 1.75659999999999  C 60.7857 1.75659999999999  61.0609 0.792899999999975  61.0609 0.792899999999975  C 61.0609 0.792899999999975  62.2204 1.08519999999999  62.2204 1.08519999999999  C 62.2204 1.08519999999999  62.2965 1.65910000000002  62.2965 1.65910000000002  C 62.2965 1.65910000000002  63.2394 2.66629999999998  63.2394 2.66629999999998  C 63.2394 2.66629999999998  63.2569 3.83049999999997  63.2569 3.83049999999997  C 63.2569 3.83049999999997  62.5542 4.6807  62.5542 4.6807  C 62.5542 4.6807  63.2042 6.96089999999998  63.2042 6.96089999999998  C 63.2042 6.96089999999998  63.7195 7.48079999999999  63.7195 7.48079999999999  C 63.7195 7.48079999999999  63.8015 8.80250000000001  63.8015 8.80250000000001  C 63.8015 8.80250000000001  65.1485 9.3605  65.1485 9.3605  C 65.1485 9.3605  66.1323 10.8341  66.1323 10.8341  C 66.1323 10.8341  66.9814 10.975  66.9814 10.975  C 66.9814 10.975  67.813 10.379  67.813 10.379  C 67.813 10.379  69.2595 11.9664  69.2595 11.9664  C 69.2595 11.9664  69.5288 12.866  69.5288 12.866  C 69.5288 12.866  71.8127 13.0881  71.8127 13.0881  C 71.8127 13.0881  72.1523 12.5191  72.1523 12.5191  C 72.1523 12.5191  74.12 12.2319  74.12 12.2319  C 74.12 12.2319  75.9412 13.3862  75.9412 13.3862  C 75.9412 13.3862  75.9822 14.535  75.9822 14.535  C 75.9822 14.535  77.7391 15.7761  77.7391 15.7761  C 77.7391 15.7761  77.4404 16.5511  77.4404 16.5511  C 77.4404 16.5511  75.2386 16.7571  75.2386 16.7571  C 75.2386 16.7571  74.5709 19.1801  74.5709 19.1801  C 74.5709 19.1801  73.9677 19.7927  73.9677 19.7927  C 73.9677 19.7927  73.5695 20.9855  73.5695 20.9855  C 73.5695 20.9855  73.9444 22.4331  73.9444 22.4331  C 73.9444 22.4331  75.1916 20.9963  75.1916 20.9963  C 75.1916 20.9963  77.9851 19.9716  77.9851 19.9716  C 77.9851 19.9716  78.6526 19.2723  78.6526 19.2723  C 78.6526 19.2723  79.531 20.8987  79.531 20.8987  C 79.531 20.8987  81.3347 19.977  81.3347 19.977  C 81.3347 19.977  82.1721 20.6114  82.1721 20.6114  C 82.1721 20.6114  83.5835 19.9716  83.5835 19.9716  C 83.5835 19.9716  84.3682 20.3241  84.3682 20.3241  C 84.3682 20.3241  84.1574 22.4223  84.1574 22.4223  C 84.1574 22.4223  83.601 23.6966  83.601 23.6966  C 83.601 23.6966  84.0168 24.1304  84.0168 24.1304  C 84.0168 24.1304  84.0812 25.9798  84.0812 25.9798  C 84.0812 25.9798  84.9596 27.0158  84.9596 27.0158  C 84.9596 27.0158  84.6493 28.6269  84.6493 28.6269  C 84.6493 28.6269  85.0124 29.0826  85.0124 29.0826  C 85.0124 29.0826  86.3651 28.9632  86.3651 28.9632  C 86.3651 28.9632  86.8629 27.4986  86.8629 27.4986  C 86.8629 27.4986  88.7954 27.5203  88.7954 27.5203  C 88.7954 27.5203  89.4922 25.6707  89.4922 25.6707  C 89.4922 25.6707  88.9593 24.1955  88.9593 24.1955  C 88.9593 24.1955  89.2229 23.6316  89.2229 23.6316  C 89.2229 23.6316  88.649 22.6013  88.649 22.6013  C 88.649 22.6013  89.9842 21.0451  89.9842 21.0451  C 89.9842 21.0451  91.5829 22.2271  91.5829 22.2271  C 91.5829 22.2271  92.9122 23.6316  92.9122 23.6316  C 92.9122 23.6316  94.4582 21.6795  94.4582 21.6795  C 94.4582 21.6795  94.3938 19.8415  94.3938 19.8415  C 94.3938 19.8415  95.6587 19.2289  95.6587 19.2289  C 95.6587 19.2289  95.524 18.676  95.524 18.676  C 95.524 18.676  96.2853 17.4617  96.2853 17.4617  C 96.2853 17.4617  98.3466 16.3777  98.3466 16.3777  C 98.3466 16.3777  99.149 16.5511  99.149 16.5511  C 99.149 16.5511  99.5472 17.272  99.5472 17.272  C 99.5472 17.272  99.4125 18.1339  99.4125 18.1339  C 99.4125 18.1339  100.0273 18.1556  100.0273 18.1556  C 100.0273 18.1556  99.8576 19.4295  99.8576 19.4295  C 99.8576 19.4295  100.2557 19.4512  100.2557 19.4512  C 100.2557 19.4512  99.8517 20.7795  99.8517 20.7795  C 99.8517 20.7795  100.1269 21.8855  100.1269 21.8855  C 100.1269 21.8855  100.5896 20.4976  100.5896 20.4976  C 100.5896 20.4976  101.2162 21.2783  101.2162 21.2783  C 101.2162 21.2783  102.3054 21.7933  102.3054 21.7933  C 102.3054 21.7933  104.0856 21.2783  104.0856 21.2783  C 104.0856 21.2783  104.6303 21.9777  104.6303 21.9777  C 104.6303 21.9777  104.7649 23.4038  104.7649 23.4038  C 104.7649 23.4038  104.9992 24.7921  104.9992 24.7921  C 104.9992 24.7921  104.6713 26.0069  104.6713 26.0069  C 104.6713 26.0069  103.219 28.2417  103.219 28.2417  C 103.219 28.2417  102.4167 29.0771  102.4167 29.0771  C 102.4167 29.0771  100.9878 31.5077  100.9878 31.5077  C 100.9878 31.5077  99.9103 32.7665  99.9103 32.7665  C 99.9103 32.7665  99.1841 32.4898  99.1841 32.4898  C 99.1841 32.4898  98.6805 34.2914  98.6805 34.2914  C 98.6805 34.2914  97.884 34.8775  97.884 34.8775  C 97.884 34.8775  96.4493 34.324  96.4493 34.324  C 96.4493 34.324  95.0028 35.3932  95.0028 35.3932  C 95.0028 35.3932  94.2533 35.0513  94.2533 35.0513  C 94.2533 35.0513  93.3632 36.039  93.3632 36.039  C 93.3632 36.039  92.2857 35.3335  92.2857 35.3335  C 92.2857 35.3335  91.8406 36.9346  91.8406 36.9346  C 91.8406 36.9346  90.5405 37.9713  90.5405 37.9713  C 90.5405 37.9713  90.3941 38.5685  90.3941 38.5685  C 90.3941 38.5685  89.4278 38.5088  89.4278 38.5088  C 89.4278 38.5088  88.3738 38.9268  88.3738 38.9268  C 88.3738 38.9268  88.5553 39.2688  88.5553 39.2688  C 88.5553 39.2688  87.8818 40.9953  87.8818 40.9953  C 87.8818 40.9953  88.2976 41.7663  88.2976 41.7663  C 88.2976 41.7663  87.8877 42.3527  87.8877 42.3527  C 87.8877 42.3527  87.4309 45.0137  87.4309 45.0137  C 87.4309 45.0137  85.8966 44.5085  85.8966 44.5085  C 85.8966 44.5085  85.0768 44.7746  85.0768 44.7746  C 85.0768 44.7746  84.6317 45.7197  84.6317 45.7197  C 84.6317 45.7197  83.4429 46.7734  83.4429 46.7734  C 83.4429 46.7734  82.4708 46.9472  82.4708 46.9472  C 82.4708 46.9472  81.9144 48.0119  81.9144 48.0119  C 81.9144 48.0119  81.5748 47.7783  81.5748 47.7783  C 81.5748 47.7783  80.3275 48.7181  80.3275 48.7181  C 80.3275 48.7181  79.2265 51.0053  79.2265 51.0053  C 79.2265 51.0053  79.8356 52.8527  79.8356 52.8527  C 79.8356 52.8527  79.3788 54.108  79.3788 54.108  C 79.3788 54.108  77.78 55.0972  77.78 55.0972  C 77.78 55.0972  78.3364 56.2494  78.3364 56.2494  C 78.3364 56.2494  78.1021 58.0649  78.1021 58.0649  C 78.1021 58.0649  78.8107 59.3642  78.8107 59.3642  C 78.8107 59.3642  78.5706 60.4841  78.5706 60.4841  C 78.5706 60.4841  77.5692 61.0007  77.5692 61.0007  C 77.5692 61.0007  77.78 62.0555  77.78 62.0555  C 77.78 62.0555  76.6733 63.5508  76.6733 63.5508  C 76.6733 63.5508  77.0012 64.1328  77.0012 64.1328  C 77.0012 64.1328  76.0525 63.9533  76.0525 63.9533  C 76.0525 63.9533  75.5957 65.4216  75.5957 65.4216  C 75.5957 65.4216  75.7539 66.0308  75.7539 66.0308  C 75.7539 66.0308  74.8227 66.6128  74.8227 66.6128  C 74.8227 66.6128  74.5826 68.6245  74.5826 68.6245  C 74.5826 68.6245  75.3908 70.3544  75.3908 70.3544  C 75.3908 70.3544  76.0584 70.5013  76.0584 70.5013  C 76.0584 70.5013  76.158 72.3456  76.158 72.3456  C 76.158 72.3456  74.7583 73.5482  74.7583 73.5482  C 74.7583 73.5482  74.4304 74.8977  74.4304 74.8977  C 74.4304 74.8977  74.7583 75.7956  74.7583 75.7956  C 74.7583 75.7956  74.4597 76.4215  74.4597 76.4215  C 74.4597 76.4215  74.4362 78.4245  74.4362 78.4245  C 74.4362 78.4245  75.2971 80.0848  75.2971 80.0848  C 75.2971 80.0848  74.729 81.2826  74.729 81.2826  C 74.729 81.2826  74.9457 82.9268  74.9457 82.9268  C 74.9457 82.9268  76.5386 84.3535  76.5386 84.3535  C 76.5386 84.3535  77.2413 83.9614  77.2413 83.9614  C 77.2413 83.9614  77.6278 85.0668  77.6278 85.0668  C 77.6278 85.0668  78.7639 86.3467  78.7639 86.3467  C 78.7639 86.3467  80.4797 86.0798  80.4797 86.0798  C 80.4797 86.0798  80.8897 87.5558  80.8897 87.5558  C 80.8897 87.5558  81.405 87.7628  81.405 87.7628  C 81.405 87.7628  83.5951 87.5939  83.5951 87.5939  C 83.5951 87.5939  83.5659 88.3402  83.5659 88.3402  C 83.5659 88.3402  84.661 88.8194  84.661 88.8194  C 84.661 88.8194  85.1412 92.5294  85.1412 92.5294  C 85.1412 92.5294  83.4605 94.0987  83.4605 94.0987  C 83.4605 94.0987  82.3479 95.9407  82.3479 95.9407  C 82.3479 95.9407  81.3815 96.5402  81.3815 96.5402  C 81.3815 96.5402  82.4884 98.3879  82.4884 98.3879  C 82.4884 98.3879  82.096 98.9983  82.096 98.9983  C 82.096 98.9983  81.9144 100.6065  81.9144 100.6065  C 81.9144 100.6065  82.5704 101.3534  82.5704 101.3534  C 82.5704 101.3534  83.5776 101.2553  83.5776 101.2553  C 83.5776 101.2553  85.7326 102.2257  85.7326 102.2257  C 85.7326 102.2257  86.453 104.783  86.453 104.783  C 86.453 104.783  85.557 106.4627  85.557 106.4627  C 85.557 106.4627  85.7561 107.1444  85.7561 107.1444  C 85.7561 107.1444  85.0944 108.0552  85.0944 108.0552  C 85.0944 108.0552  84.9948 109.337  84.9948 109.337  C 84.9948 109.337  84.5907 109.5279  84.5907 109.5279  C 84.5907 109.5279  84.5263 110.9682  84.5263 110.9682  C 84.5263 110.9682  84.9186 112.5339  84.9186 112.5339  C 84.9186 112.5339  85.4633 112.8559  85.4633 112.8559  C 85.4633 112.8559  84.6024 114.5036  84.6024 114.5036  C 84.6024 114.5036  85.1646 115.1421  85.1646 115.1421  C 85.1646 115.1421  84.7429 116.4792  84.7429 116.4792  C 84.7429 116.4792  84.9889 116.9812  84.9889 116.9812  C 84.9889 116.9812  85.6975 116.359  85.6975 116.359  C 85.6975 116.359  85.557 117.3305  85.557 117.3305  C 85.557 117.3305  86.3534 116.7793  86.3534 116.7793  C 86.3534 116.7793  86.939 117.2705  86.939 117.2705  C 86.939 117.2705  87.8467 121.015  87.8467 121.015  C 87.8467 121.015  87.8643 121.954  87.8643 121.954  C 87.8643 121.954  87.3489 122.9477  87.3489 122.9477  C 87.3489 122.9477  83.0272 124.3181  83.0272 124.3181  C 83.0272 124.3181  82.0082 124.9515  82.0082 124.9515  C 82.0082 124.9515  79.7653 128.13  79.7653 128.13  C 79.7653 128.13  77.9851 129.916  77.9851 129.916  C 77.9851 129.916  76.2868 131.238  76.2868 131.238  C 76.2868 131.238  75.7948 131.249  75.7948 131.249  C 75.7948 131.249  74.6237 132.7458  74.6237 132.7458  C 74.6237 132.7458  72.9136 133.3905  72.9136 133.3905  C 72.9136 133.3905  72.4451 133.1392  72.4451 133.1392  C 72.4451 133.1392  72.4745 130.9594  72.4745 130.9594  C 72.4745 130.9594  71.924 129.6321  71.924 129.6321  C 71.924 129.6321  72.1582 129.3261  72.1582 129.3261  C 72.1582 129.3261  73.7042 130.2111  73.7042 130.2111  C 73.7042 130.2111  74.3133 129.9434  74.3133 129.9434  C 74.3133 129.9434  74.2898 128.7581  74.2898 128.7581  C 74.2898 128.7581  75.3674 126.9121  75.3674 126.9121  C 75.3674 126.9121  74.9808 126.1038  74.9808 126.1038  C 74.9808 126.1038  73.9385 126.0273  73.9385 126.0273  C 73.9385 126.0273  72.006 126.4751  72.006 126.4751  C 72.006 126.4751  71.0514 127.3707  71.0514 127.3707  C 71.0514 127.3707  68.9784 127.6493  68.9784 127.6493  C 68.9784 127.6493  65.8805 128.7253  65.8805 128.7253  C 65.8805 128.7253  63.9831 128.6488  63.9831 128.6488  C 63.9831 128.6488  61.6934 129.266  61.6934 129.266  C 61.6934 129.266  61.0785 129.0311  61.0785 129.0311  C 61.0785 129.0311  58.6306 129.337  58.6306 129.337  C 58.6306 129.337  57.4652 129.6703  57.4652 129.6703  C 57.4652 129.6703  55.4391 130.7355  55.4391 130.7355  C 55.4391 130.7355  51.839 132.8496  51.839 132.8496  C 51.839 132.8496  50.0235 133.9916  50.0235 133.9916  C 50.0235 133.9916  49.1334 131.2872  49.1334 131.2872  C 49.1334 131.2872  47.968 130.2274  47.968 130.2274  C 47.968 130.2274  47.0603 130.4186  47.0603 130.4186  C 47.0603 130.4186  46.3576 129.8014  46.3576 129.8014  C 46.3576 129.8014  46.2112 130.4459  46.2112 130.4459  C 46.2112 130.4459  44.9287 130.6261  44.9287 130.6261  C 44.9287 130.6261  44.2846 132.0575  44.2846 132.0575  C 44.2846 132.0575  43.6463 130.9485  43.6463 130.9485  C 43.6463 130.9485  42.6449 130.1127  42.6449 130.1127  C 42.6449 130.1127  43.822 129.4627  43.822 129.4627  C 43.822 129.4627  43.7809 128.4849  43.7809 128.4849  C 43.7809 128.4849  42.9084 127.5838  42.9084 127.5838  C 42.9084 127.5838  41.8777 127.4364  41.8777 127.4364  C 41.8777 127.4364  42.4458 126.8629  42.4458 126.8629  C 42.4458 126.8629  42.1881 126.0382  42.1881 126.0382  C 42.1881 126.0382  42.3052 124.684  42.3052 124.684  C 42.3052 124.684  41.6435 123.8704  41.6435 123.8704  C 41.6435 123.8704  40.9174 124.8915  40.9174 124.8915  C 40.9174 124.8915  39.6056 125.1426  39.6056 125.1426  C 39.6056 125.1426  40.7943 124.1161  40.7943 124.1161  C 40.7943 124.1161  40.2205 122.7565  40.2205 122.7565  C 40.2205 122.7565  40.1677 121.6755  40.1677 121.6755  C 40.1677 121.6755  38.7037 120.147  38.7037 120.147  C 38.7037 120.147  38.1883 120.218  38.1883 120.218  C 38.1883 120.218  37.9249 119.2299  37.9249 119.2299  C 37.9249 119.2299  38.5104 118.4003  38.5104 118.4003  C 38.5104 118.4003  37.8546 117.456  37.8546 117.456  C 37.8546 117.456  37.5442 116.0316  37.5442 116.0316  C 37.5442 116.0316  36.1622 116.3863  36.1622 116.3863  C 36.1622 116.3863  36.0099 114.7111  36.0099 114.7111  C 36.0099 114.7111  36.4082 112.283  36.4082 112.283  C 36.4082 112.283  36.3612 111.0609  36.3612 111.0609  C 36.3612 111.0609  35.4946 110.9136  35.4946 110.9136  C 35.4946 110.9136  34.3468 109.4352  34.3468 109.4352  C 34.3468 109.4352  33.5562 109.4188  33.5562 109.4188  C 33.5562 109.4188  33.0292 110.7608  33.0292 110.7608  C 33.0292 110.7608  32.6661 110.6462  32.6661 110.6462  C 32.6661 110.6462  31.6237 111.8737  31.6237 111.8737  C 31.6237 111.8737  31.6706 113.3359  31.6706 113.3359  C 31.6706 113.3359  32.1683 113.6743  32.1683 113.6743  C 32.1683 113.6743  32.4611 115.4532  32.4611 115.4532  C 32.4611 115.4532  31.6471 115.7915  31.6471 115.7915  C 31.6471 115.7915  31.4773 116.7957  31.4773 116.7957  C 31.4773 116.7957  30.9502 116.9921  30.9502 116.9921  C 30.9502 116.9921  30.7862 119.6284  30.7862 119.6284  C 30.7862 119.6284  31.6061 121.0968  31.6061 121.0968  C 31.6061 121.0968  31.0088 121.3262  31.0088 121.3262  C 31.0088 121.3262  31.1025 122.0632  31.1025 122.0632  C 31.1025 122.0632  29.984 121.7629  29.984 121.7629  Z M 15.2662 126.6062  C 15.2662 126.6062  15.19 124.4539  15.19 124.4539  C 15.19 124.4539  15.6468 126.4533  15.6468 126.4533  C 15.6468 126.4533  15.0847 127.3216  15.0847 127.3216  C 15.0847 127.3216  13.1242 127.1196  13.1242 127.1196  C 13.1242 127.1196  12.8725 125.2457  12.8725 125.2457  C 12.8725 125.2457  15.2662 126.6062  15.2662 126.6062  Z M 5.48650000000001 94.6246  C 5.48650000000001 94.6246  5.34010000000001 97.6302  5.34010000000001 97.6302  C 5.34010000000001 97.6302  4.03559999999999 97.9736  4.03559999999999 97.9736  C 4.03559999999999 97.9736  3.64320000000001 96.9708  3.64320000000001 96.9708  C 3.64320000000001 96.9708  3.88329999999999 94.5428  3.88329999999999 94.5428  C 3.88329999999999 94.5428  5.428 94.5101  5.428 94.5101  C 5.428 94.5101  5.48650000000001 94.6246  5.48650000000001 94.6246  Z M 29.4686 121.5218  C 29.4686 121.5218  30.1831 121.489  30.1831 121.489  C 30.1831 121.489  32.2079 124.3836  32.2079 124.3836  C 32.2079 124.3836  31.6399 124.1325  31.6399 124.1325  C 31.6399 124.1325  29.5038 124.4  29.5038 124.4  C 29.5038 124.4  29.8903 122.2971  29.8903 122.2971  C 29.8903 122.2971  29.4686 121.5218  29.4686 121.5218  Z M 67.6666 136.7129  C 67.6666 136.7129  65.8936 137.6365  65.8936 137.6365  C 65.8936 137.6365  65.8936 135.5215  65.8936 135.5215  C 65.8936 135.5215  67.731 134.5981  67.731 134.5981  C 67.731 134.5981  67.6666 136.7129  67.6666 136.7129  Z M 13.8432 127.8891  C 13.8432 127.8891  12.3512 129.8833  12.3512 129.8833  C 12.3512 129.8833  12.3923 127.9055  12.3923 127.9055  C 12.3923 127.9055  13.8432 127.8891  13.8432 127.8891  Z " fill-rule="evenodd" />
    </mask>
  </defs>
  <g transform="matrix(1 0 0 1 -227 -386 )">
    <path d="M 29.984 121.7629  C 29.984 121.7629  29.375 122.3526  29.375 122.3526  C 29.375 122.3526  28.356 123.0787  28.356 123.0787  C 28.356 123.0787  27.1555 122.3144  27.1555 122.3144  C 27.1555 122.3144  26.728 123.2097  26.728 123.2097  C 26.728 123.2097  27.4717 123.7284  27.4717 123.7284  C 27.4717 123.7284  27.9343 125.3666  27.9343 125.3666  C 27.9343 125.3666  27.583 125.6832  27.583 125.6832  C 27.583 125.6832  26.2478 124.7495  26.2478 124.7495  C 26.2478 124.7495  25.5685 125.4212  25.5685 125.4212  C 25.5685 125.4212  25.6388 124.127  25.6388 124.127  C 25.6388 124.127  24.6608 124.3673  24.6608 124.3673  C 24.6608 124.3673  24.6901 126.2348  24.6901 126.2348  C 24.6901 126.2348  22.8337 126.426  22.8337 126.426  C 22.8337 126.426  21.9318 124.5967  21.9318 124.5967  C 21.9318 124.5967  21.1412 123.7503  21.1412 123.7503  C 21.1412 123.7503  20.4561 124.4328  20.4561 124.4328  C 20.4561 124.4328  19.4723 124.5802  19.4723 124.5802  C 19.4723 124.5802  19.32 122.8875  19.32 122.8875  C 19.32 122.8875  17.9321 123.2043  17.9321 123.2043  C 17.9321 123.2043  16.7609 125.1973  16.7609 125.1973  C 16.7609 125.1973  17.0479 126.6116  17.0479 126.6116  C 17.0479 126.6116  16.5442 127.1578  16.5442 127.1578  C 16.5442 127.1578  16.0523 126.497  16.0523 126.497  C 16.0523 126.497  14.9631 126.5134  14.9631 126.5134  C 14.9631 126.5134  14.9221 125.5413  14.9221 125.5413  C 14.9221 125.5413  14.2135 125.4157  14.2135 125.4157  C 14.2135 125.4157  14.3716 124.5365  14.3716 124.5365  C 14.3716 124.5365  13.3878 122.7511  13.3878 122.7511  C 13.3878 122.7511  12.4391 123.0951  12.4391 123.0951  C 12.4391 123.0951  11.8711 121.823  11.8711 121.823  C 11.8711 121.823  12.3396 120.027  12.3396 120.027  C 12.3396 120.027  11.7071 118.9789  11.7071 118.9789  C 11.7071 118.9789  11.3089 119.6503  11.3089 119.6503  C 11.3089 119.6503  10.1611 118.9407  10.1611 118.9407  C 10.1611 118.9407  9.78039999999999 119.3555  9.78039999999999 119.3555  C 9.78039999999999 119.3555  9.27680000000001 118.7496  9.27680000000001 118.7496  C 9.27680000000001 118.7496  8.56819999999999 119.0062  8.56819999999999 119.0062  C 8.56819999999999 119.0062  7.66640000000001 118.1546  7.66640000000001 118.1546  C 7.66640000000001 118.1546  8.19929999999999 116.7793  8.19929999999999 116.7793  C 8.19929999999999 116.7793  8.06460000000001 116.2772  8.06460000000001 116.2772  C 8.06460000000001 116.2772  8.94300000000001 116.2335  8.94300000000001 116.2335  C 8.94300000000001 116.2335  9.22989999999999 115.6387  9.22989999999999 115.6387  C 9.22989999999999 115.6387  8.0119 114.2963  8.0119 114.2963  C 8.0119 114.2963  7.26820000000001 114.4927  7.26820000000001 114.4927  C 7.26820000000001 114.4927  7.47900000000001 115.1912  7.47900000000001 115.1912  C 7.47900000000001 115.1912  6.95189999999999 115.726  6.95189999999999 115.726  C 6.95189999999999 115.726  6.43080000000001 114.1217  6.43080000000001 114.1217  C 6.43080000000001 114.1217  6.89930000000001 113.8598  6.89930000000001 113.8598  C 6.89930000000001 113.8598  6.89930000000001 112.5775  6.89930000000001 112.5775  C 6.89930000000001 112.5775  6.3546 112.463  6.3546 112.463  C 6.3546 112.463  6.33699999999999 110.7772  6.33699999999999 110.7772  C 6.33699999999999 110.7772  5.69290000000001 110.93  5.69290000000001 110.93  C 5.69290000000001 110.93  6.4717 109.3534  6.4717 109.3534  C 6.4717 109.3534  4.84379999999999 108.4425  4.84379999999999 108.4425  C 4.84379999999999 108.4425  4.59190000000001 107.4334  4.59190000000001 107.4334  C 4.59190000000001 107.4334  6.8758 106.5881  6.8758 106.5881  C 6.8758 106.5881  6.67670000000001 105.481  6.67670000000001 105.481  C 6.67670000000001 105.481  6.1497 105.2193  6.1497 105.2193  C 6.1497 105.2193  5.68119999999999 106.8062  5.68119999999999 106.8062  C 5.68119999999999 106.8062  5.35319999999999 105.9936  5.35319999999999 105.9936  C 5.35319999999999 105.9936  4.84379999999999 106.6917  4.84379999999999 106.6917  C 4.84379999999999 106.6917  3.46170000000001 105.8137  3.46170000000001 105.8137  C 3.46170000000001 105.8137  3.63149999999999 105.2029  3.63149999999999 105.2029  C 3.63149999999999 105.2029  2.22020000000001 102.7273  2.22020000000001 102.7273  C 2.22020000000001 102.7273  3.5437 101.8931  3.5437 101.8931  C 3.5437 101.8931  3.286 99.2273  3.286 99.2273  C 3.286 99.2273  4.03559999999999 97.9736  4.03559999999999 97.9736  C 4.03559999999999 97.9736  4.34010000000001 97.6302  4.34010000000001 97.6302  C 4.34010000000001 97.6302  5.09549999999999 97.7883  5.09549999999999 97.7883  C 5.09549999999999 97.7883  5.24780000000001 96.3059  5.24780000000001 96.3059  C 5.24780000000001 96.3059  4.48650000000001 95.6246  4.48650000000001 95.6246  C 4.48650000000001 95.6246  4.428 95.5101  4.428 95.5101  C 4.428 95.5101  5.0429 95.0415  5.0429 95.0415  C 5.0429 95.0415  4.91990000000001 94.3821  4.91990000000001 94.3821  C 4.91990000000001 94.3821  4.06489999999999 94.0551  4.06489999999999 94.0551  C 4.06489999999999 94.0551  4.19370000000001 93.2541  4.19370000000001 93.2541  C 4.19370000000001 93.2541  3.04589999999999 94.1696  3.04589999999999 94.1696  C 3.04589999999999 94.1696  1.98599999999999 93.6737  1.98599999999999 93.6737  C 1.98599999999999 93.6737  2.12649999999999 92.9436  2.12649999999999 92.9436  C 2.12649999999999 92.9436  3.26840000000001 93.2105  3.26840000000001 93.2105  C 3.26840000000001 93.2105  2.71209999999999 92.3551  2.71209999999999 92.3551  C 2.71209999999999 92.3551  1.9684 92.9763  1.9684 92.9763  C 1.9684 92.9763  1.79859999999999 93.8426  1.79859999999999 93.8426  C 1.79859999999999 93.8426  1.30080000000001 93.2814  1.30080000000001 93.2814  C 1.30080000000001 93.2814  1.54679999999999 90.1268  1.54679999999999 90.1268  C 1.54679999999999 90.1268  2.2319 89.277  2.2319 89.277  C 2.2319 89.277  2.43690000000001 88.1768  2.43690000000001 88.1768  C 2.43690000000001 88.1768  2.16749999999999 87.4142  2.16749999999999 87.4142  C 2.16749999999999 87.4142  3.0694 86.9784  3.0694 86.9784  C 3.0694 86.9784  3.8365 88.1877  3.8365 88.1877  C 3.8365 88.1877  4.9667 88.607  4.9667 88.607  C 4.9667 88.607  5.81 87.6375  5.81 87.6375  C 5.81 87.6375  4.98429999999999 84.7183  4.98429999999999 84.7183  C 4.98429999999999 84.7183  5.65190000000001 83.1174  5.65190000000001 83.1174  C 5.65190000000001 83.1174  6.9813 82.5892  6.9813 82.5892  C 6.9813 82.5892  5.9623 82.317  5.9623 82.317  C 5.9623 82.317  6.95779999999999 82.1428  6.95779999999999 82.1428  C 6.95779999999999 82.1428  7.0632 80.4061  7.0632 80.4061  C 7.0632 80.4061  9.04259999999999 80.014  9.04259999999999 80.014  C 9.04259999999999 80.014  9.17140000000001 79.5786  9.17140000000001 79.5786  C 9.17140000000001 79.5786  7.3443 79.2192  7.3443 79.2192  C 7.3443 79.2192  6.92259999999999 78.2558  6.92259999999999 78.2558  C 6.92259999999999 78.2558  5.93289999999999 78.0979  5.93289999999999 78.0979  C 5.93289999999999 78.0979  5.25360000000001 78.6205  5.25360000000001 78.6205  C 5.25360000000001 78.6205  4.15860000000001 76.8351  4.15860000000001 76.8351  C 4.15860000000001 76.8351  2.3373 75.9371  2.3373 75.9371  C 2.3373 75.9371  2.87020000000001 74.1739  2.87020000000001 74.1739  C 2.87020000000001 74.1739  2.595 72.8027  2.595 72.8027  C 2.595 72.8027  3.1455 72.9605  3.1455 72.9605  C 3.1455 72.9605  1.9391 69.5819  1.9391 69.5819  C 1.9391 69.5819  2.34899999999999 69.1141  2.34899999999999 69.1141  C 2.34899999999999 69.1141  2.53059999999999 66.281  2.53059999999999 66.281  C 2.53059999999999 66.281  2.24369999999999 64.9703  2.24369999999999 64.9703  C 2.24369999999999 64.9703  2.78819999999999 64.8179  2.78819999999999 64.8179  C 2.78819999999999 64.8179  2.8175 63.9859  2.8175 63.9859  C 2.8175 63.9859  2.20849999999999 63.4856  2.20849999999999 63.4856  C 2.20849999999999 63.4856  2.17339999999999 62.6699  2.17339999999999 62.6699  C 2.17339999999999 62.6699  3.30950000000001 62.4959  3.30950000000001 62.4959  C 3.30950000000001 62.4959  3.0986 61.316  3.0986 61.316  C 3.0986 61.316  3.22749999999999 59.7936  3.22749999999999 59.7936  C 3.22749999999999 59.7936  2.94630000000001 59.0924  2.94630000000001 59.0924  C 2.94630000000001 59.0924  2.27879999999999 59.0543  2.27879999999999 59.0543  C 2.27879999999999 59.0543  0.914299999999997 57.3691  0.914299999999997 57.3691  C 0.914299999999997 57.3691  0.322900000000004 56.9995  0.322900000000004 56.9995  C 0.322900000000004 56.9995  0.281800000000004 55.7983  0.281800000000004 55.7983  C 0.281800000000004 55.7983  0.9495 55.195  0.9495 55.195  C 0.9495 55.195  1.15440000000001 53.8037  1.15440000000001 53.8037  C 1.15440000000001 53.8037  1.54089999999999 53.8635  1.54089999999999 53.8635  C 1.54089999999999 53.8635  1.99770000000001 52.5974  1.99770000000001 52.5974  C 1.99770000000001 52.5974  4.0532 55.608  4.0532 55.608  C 4.0532 55.608  4.48650000000001 55.82  4.48650000000001 55.82  C 4.48650000000001 55.82  5.43520000000001 55.1841  5.43520000000001 55.1841  C 5.43520000000001 55.1841  5.24189999999999 54.3145  5.24189999999999 54.3145  C 5.24189999999999 54.3145  5.88030000000001 53.4614  5.88030000000001 53.4614  C 5.88030000000001 53.4614  6.74700000000001 53.1733  6.74700000000001 53.1733  C 6.74700000000001 53.1733  6.68260000000001 51.842  6.68260000000001 51.842  C 6.68260000000001 51.842  7.04570000000001 51.3042  7.04570000000001 51.3042  C 7.04570000000001 51.3042  8.28710000000001 51.5432  8.28710000000001 51.5432  C 8.28710000000001 51.5432  10.0206 52.9723  10.0206 52.9723  C 10.0206 52.9723  10.5359 54.358  10.5359 54.358  C 10.5359 54.358  12.8197 56.7441  12.8197 56.7441  C 12.8197 56.7441  12.3044 57.2169  12.3044 57.2169  C 12.3044 57.2169  12.7671 57.8203  12.7671 57.8203  C 12.7671 57.8203  14.3892 57.7767  14.3892 57.7767  C 14.3892 57.7767  15.8239 56.8147  15.8239 56.8147  C 15.8239 56.8147  15.8122 55.8037  15.8122 55.8037  C 15.8122 55.8037  18.1839 52.543  18.1839 52.543  C 18.1839 52.543  20.093 53.6951  20.093 53.6951  C 20.093 53.6951  21.4048 53.8689  21.4048 53.8689  C 21.4048 53.8689  21.0944 55.9016  21.0944 55.9016  C 21.0944 55.9016  21.6741 56.6679  21.6741 56.6679  C 21.6741 56.6679  22.8044 56.4722  22.8044 56.4722  C 22.8044 56.4722  23.4368 57.3637  23.4368 57.3637  C 23.4368 57.3637  25.2756 56.3146  25.2756 56.3146  C 25.2756 56.3146  25.6563 55.483  25.6563 55.483  C 25.6563 55.483  26.2185 55.7222  26.2185 55.7222  C 26.2185 55.7222  26.5992 54.945  26.5992 54.945  C 26.5992 54.945  27.2433 54.9613  27.2433 54.9613  C 27.2433 54.9613  26.9681 53.3526  26.9681 53.3526  C 26.9681 53.3526  26.16 51.8312  26.16 51.8312  C 26.16 51.8312  25.2523 51.3911  25.2523 51.3911  C 25.2523 51.3911  24.7955 49.8317  24.7955 49.8317  C 24.7955 49.8317  25.305 48.2835  25.305 48.2835  C 25.305 48.2835  26.1541 47.5556  26.1541 47.5556  C 26.1541 47.5556  27.7879 47.2296  27.7879 47.2296  C 27.7879 47.2296  28.438 46.2412  28.438 46.2412  C 28.438 46.2412  28.5082 44.8072  28.5082 44.8072  C 28.5082 44.8072  29.7731 44.2533  29.7731 44.2533  C 29.7731 44.2533  30.4583 42.5862  30.4583 42.5862  C 30.4583 42.5862  30.7921 42.4342  30.7921 42.4342  C 30.7921 42.4342  31.8287 43.8298  31.8287 43.8298  C 31.8287 43.8298  33.3454 44.5683  33.3454 44.5683  C 33.3454 44.5683  35.313 43.9438  35.313 43.9438  C 35.313 43.9438  35.7113 43.3464  35.7113 43.3464  C 35.7113 43.3464  35.395 42.5373  35.395 42.5373  C 35.395 42.5373  34.4053 42.4396  34.4053 42.4396  C 34.4053 42.4396  34.4522 41.2342  34.4522 41.2342  C 34.4522 41.2342  33.4801 39.4589  33.4801 39.4589  C 33.4801 39.4589  32.6309 38.9539  32.6309 38.9539  C 32.6309 38.9539  32.6895 37.4231  32.6895 37.4231  C 32.6895 37.4231  32.0102 35.6699  32.0102 35.6699  C 32.0102 35.6699  31.1025 35.2249  31.1025 35.2249  C 31.1025 35.2249  30.675 35.887  30.675 35.887  C 30.675 35.887  29.738 34.8938  29.738 34.8938  C 29.738 34.8938  29.8024 32.2619  29.8024 32.2619  C 29.8024 32.2619  29.3808 31.2527  29.3808 31.2527  C 29.3808 31.2527  29.9254 30.0591  29.9254 30.0591  C 29.9254 30.0591  29.8727 27.9813  29.8727 27.9813  C 29.8727 27.9813  29.3691 27.0701  29.3691 27.0701  C 29.3691 27.0701  28.3618 26.8802  28.3618 26.8802  C 28.3618 26.8802  28.2974 25.9147  28.2974 25.9147  C 28.2974 25.9147  27.5947 24.3202  27.5947 24.3202  C 27.5947 24.3202  27.9577 23.8756  27.9577 23.8756  C 27.9577 23.8756  28.7308 24.2118  28.7308 24.2118  C 28.7308 24.2118  29.2461 25.0307  29.2461 25.0307  C 29.2461 25.0307  30.839 25.5622  30.839 25.5622  C 30.839 25.5622  32.016 25.2477  32.016 25.2477  C 32.016 25.2477  32.508 24.0437  32.508 24.0437  C 32.508 24.0437  31.9106 22.7585  31.9106 22.7585  C 31.9106 22.7585  31.9458 21.7283  31.9458 21.7283  C 31.9458 21.7283  32.7129 19.874  32.7129 19.874  C 32.7129 19.874  33.5035 19.9011  33.5035 19.9011  C 33.5035 19.9011  33.0057 17.8574  33.0057 17.8574  C 33.0057 17.8574  33.2048 16.6758  33.2048 16.6758  C 33.2048 16.6758  32.5313 16.0308  32.5313 16.0308  C 32.5313 16.0308  33.5562 15.5377  33.5562 15.5377  C 33.5562 15.5377  33.7846 14.8926  33.7846 14.8926  C 33.7846 14.8926  33.4566 13.3808  33.4566 13.3808  C 33.4566 13.3808  34.868 12.9093  34.868 12.9093  C 34.868 12.9093  36.0041 14.3399  36.0041 14.3399  C 36.0041 14.3399  36.4374 15.8195  36.4374 15.8195  C 36.4374 15.8195  36.9411 15.6081  36.9411 15.6081  C 36.9411 15.6081  37.0757 14.4103  37.0757 14.4103  C 37.0757 14.4103  37.6789 13.6571  37.6789 13.6571  C 37.6789 13.6571  39.0375 12.9581  39.0375 12.9581  C 39.0375 12.9581  40.607 13.229  40.607 13.229  C 40.607 13.229  41.175 12.6708  41.175 12.6708  C 41.175 12.6708  42.4341 13.1857  42.4341 13.1857  C 42.4341 13.1857  43.166 13.099  43.166 13.099  C 43.166 13.099  43.9801 12.2374  43.9801 12.2374  C 43.9801 12.2374  43.822 10.0431  43.822 10.0431  C 43.822 10.0431  47.2946 10.5957  47.2946 10.5957  C 47.2946 10.5957  48.5478 9.71800000000002  48.5478 9.71800000000002  C 48.5478 9.71800000000002  48.8582 8.7971  48.8582 8.7971  C 48.8582 8.7971  48.6474 7.7029  48.6474 7.7029  C 48.6474 7.7029  50.047 7.18830000000003  50.047 7.18830000000003  C 50.047 7.18830000000003  50.8141 7.32369999999997  50.8141 7.32369999999997  C 50.8141 7.32369999999997  51.5578 8.22829999999999  51.5578 8.22829999999999  C 51.5578 8.22829999999999  53.5475 6.84710000000001  53.5475 6.84710000000001  C 53.5475 6.84710000000001  54.9179 6.17000000000002  54.9179 6.17000000000002  C 54.9179 6.17000000000002  55.1287 6.65750000000003  55.1287 6.65750000000003  C 55.1287 6.65750000000003  57.0319 6.47879999999998  57.0319 6.47879999999998  C 57.0319 6.47879999999998  57.5238 4.6807  57.5238 4.6807  C 57.5238 4.6807  58.4374 4.57240000000002  58.4374 4.57240000000002  C 58.4374 4.57240000000002  59.632 1.81610000000001  59.632 1.81610000000001  C 59.632 1.81610000000001  60.7857 1.75659999999999  60.7857 1.75659999999999  C 60.7857 1.75659999999999  61.0609 0.792899999999975  61.0609 0.792899999999975  C 61.0609 0.792899999999975  62.2204 1.08519999999999  62.2204 1.08519999999999  C 62.2204 1.08519999999999  62.2965 1.65910000000002  62.2965 1.65910000000002  C 62.2965 1.65910000000002  63.2394 2.66629999999998  63.2394 2.66629999999998  C 63.2394 2.66629999999998  63.2569 3.83049999999997  63.2569 3.83049999999997  C 63.2569 3.83049999999997  62.5542 4.6807  62.5542 4.6807  C 62.5542 4.6807  63.2042 6.96089999999998  63.2042 6.96089999999998  C 63.2042 6.96089999999998  63.7195 7.48079999999999  63.7195 7.48079999999999  C 63.7195 7.48079999999999  63.8015 8.80250000000001  63.8015 8.80250000000001  C 63.8015 8.80250000000001  65.1485 9.3605  65.1485 9.3605  C 65.1485 9.3605  66.1323 10.8341  66.1323 10.8341  C 66.1323 10.8341  66.9814 10.975  66.9814 10.975  C 66.9814 10.975  67.813 10.379  67.813 10.379  C 67.813 10.379  69.2595 11.9664  69.2595 11.9664  C 69.2595 11.9664  69.5288 12.866  69.5288 12.866  C 69.5288 12.866  71.8127 13.0881  71.8127 13.0881  C 71.8127 13.0881  72.1523 12.5191  72.1523 12.5191  C 72.1523 12.5191  74.12 12.2319  74.12 12.2319  C 74.12 12.2319  75.9412 13.3862  75.9412 13.3862  C 75.9412 13.3862  75.9822 14.535  75.9822 14.535  C 75.9822 14.535  77.7391 15.7761  77.7391 15.7761  C 77.7391 15.7761  77.4404 16.5511  77.4404 16.5511  C 77.4404 16.5511  75.2386 16.7571  75.2386 16.7571  C 75.2386 16.7571  74.5709 19.1801  74.5709 19.1801  C 74.5709 19.1801  73.9677 19.7927  73.9677 19.7927  C 73.9677 19.7927  73.5695 20.9855  73.5695 20.9855  C 73.5695 20.9855  73.9444 22.4331  73.9444 22.4331  C 73.9444 22.4331  75.1916 20.9963  75.1916 20.9963  C 75.1916 20.9963  77.9851 19.9716  77.9851 19.9716  C 77.9851 19.9716  78.6526 19.2723  78.6526 19.2723  C 78.6526 19.2723  79.531 20.8987  79.531 20.8987  C 79.531 20.8987  81.3347 19.977  81.3347 19.977  C 81.3347 19.977  82.1721 20.6114  82.1721 20.6114  C 82.1721 20.6114  83.5835 19.9716  83.5835 19.9716  C 83.5835 19.9716  84.3682 20.3241  84.3682 20.3241  C 84.3682 20.3241  84.1574 22.4223  84.1574 22.4223  C 84.1574 22.4223  83.601 23.6966  83.601 23.6966  C 83.601 23.6966  84.0168 24.1304  84.0168 24.1304  C 84.0168 24.1304  84.0812 25.9798  84.0812 25.9798  C 84.0812 25.9798  84.9596 27.0158  84.9596 27.0158  C 84.9596 27.0158  84.6493 28.6269  84.6493 28.6269  C 84.6493 28.6269  85.0124 29.0826  85.0124 29.0826  C 85.0124 29.0826  86.3651 28.9632  86.3651 28.9632  C 86.3651 28.9632  86.8629 27.4986  86.8629 27.4986  C 86.8629 27.4986  88.7954 27.5203  88.7954 27.5203  C 88.7954 27.5203  89.4922 25.6707  89.4922 25.6707  C 89.4922 25.6707  88.9593 24.1955  88.9593 24.1955  C 88.9593 24.1955  89.2229 23.6316  89.2229 23.6316  C 89.2229 23.6316  88.649 22.6013  88.649 22.6013  C 88.649 22.6013  89.9842 21.0451  89.9842 21.0451  C 89.9842 21.0451  91.5829 22.2271  91.5829 22.2271  C 91.5829 22.2271  92.9122 23.6316  92.9122 23.6316  C 92.9122 23.6316  94.4582 21.6795  94.4582 21.6795  C 94.4582 21.6795  94.3938 19.8415  94.3938 19.8415  C 94.3938 19.8415  95.6587 19.2289  95.6587 19.2289  C 95.6587 19.2289  95.524 18.676  95.524 18.676  C 95.524 18.676  96.2853 17.4617  96.2853 17.4617  C 96.2853 17.4617  98.3466 16.3777  98.3466 16.3777  C 98.3466 16.3777  99.149 16.5511  99.149 16.5511  C 99.149 16.5511  99.5472 17.272  99.5472 17.272  C 99.5472 17.272  99.4125 18.1339  99.4125 18.1339  C 99.4125 18.1339  100.0273 18.1556  100.0273 18.1556  C 100.0273 18.1556  99.8576 19.4295  99.8576 19.4295  C 99.8576 19.4295  100.2557 19.4512  100.2557 19.4512  C 100.2557 19.4512  99.8517 20.7795  99.8517 20.7795  C 99.8517 20.7795  100.1269 21.8855  100.1269 21.8855  C 100.1269 21.8855  100.5896 20.4976  100.5896 20.4976  C 100.5896 20.4976  101.2162 21.2783  101.2162 21.2783  C 101.2162 21.2783  102.3054 21.7933  102.3054 21.7933  C 102.3054 21.7933  104.0856 21.2783  104.0856 21.2783  C 104.0856 21.2783  104.6303 21.9777  104.6303 21.9777  C 104.6303 21.9777  104.7649 23.4038  104.7649 23.4038  C 104.7649 23.4038  104.9992 24.7921  104.9992 24.7921  C 104.9992 24.7921  104.6713 26.0069  104.6713 26.0069  C 104.6713 26.0069  103.219 28.2417  103.219 28.2417  C 103.219 28.2417  102.4167 29.0771  102.4167 29.0771  C 102.4167 29.0771  100.9878 31.5077  100.9878 31.5077  C 100.9878 31.5077  99.9103 32.7665  99.9103 32.7665  C 99.9103 32.7665  99.1841 32.4898  99.1841 32.4898  C 99.1841 32.4898  98.6805 34.2914  98.6805 34.2914  C 98.6805 34.2914  97.884 34.8775  97.884 34.8775  C 97.884 34.8775  96.4493 34.324  96.4493 34.324  C 96.4493 34.324  95.0028 35.3932  95.0028 35.3932  C 95.0028 35.3932  94.2533 35.0513  94.2533 35.0513  C 94.2533 35.0513  93.3632 36.039  93.3632 36.039  C 93.3632 36.039  92.2857 35.3335  92.2857 35.3335  C 92.2857 35.3335  91.8406 36.9346  91.8406 36.9346  C 91.8406 36.9346  90.5405 37.9713  90.5405 37.9713  C 90.5405 37.9713  90.3941 38.5685  90.3941 38.5685  C 90.3941 38.5685  89.4278 38.5088  89.4278 38.5088  C 89.4278 38.5088  88.3738 38.9268  88.3738 38.9268  C 88.3738 38.9268  88.5553 39.2688  88.5553 39.2688  C 88.5553 39.2688  87.8818 40.9953  87.8818 40.9953  C 87.8818 40.9953  88.2976 41.7663  88.2976 41.7663  C 88.2976 41.7663  87.8877 42.3527  87.8877 42.3527  C 87.8877 42.3527  87.4309 45.0137  87.4309 45.0137  C 87.4309 45.0137  85.8966 44.5085  85.8966 44.5085  C 85.8966 44.5085  85.0768 44.7746  85.0768 44.7746  C 85.0768 44.7746  84.6317 45.7197  84.6317 45.7197  C 84.6317 45.7197  83.4429 46.7734  83.4429 46.7734  C 83.4429 46.7734  82.4708 46.9472  82.4708 46.9472  C 82.4708 46.9472  81.9144 48.0119  81.9144 48.0119  C 81.9144 48.0119  81.5748 47.7783  81.5748 47.7783  C 81.5748 47.7783  80.3275 48.7181  80.3275 48.7181  C 80.3275 48.7181  79.2265 51.0053  79.2265 51.0053  C 79.2265 51.0053  79.8356 52.8527  79.8356 52.8527  C 79.8356 52.8527  79.3788 54.108  79.3788 54.108  C 79.3788 54.108  77.78 55.0972  77.78 55.0972  C 77.78 55.0972  78.3364 56.2494  78.3364 56.2494  C 78.3364 56.2494  78.1021 58.0649  78.1021 58.0649  C 78.1021 58.0649  78.8107 59.3642  78.8107 59.3642  C 78.8107 59.3642  78.5706 60.4841  78.5706 60.4841  C 78.5706 60.4841  77.5692 61.0007  77.5692 61.0007  C 77.5692 61.0007  77.78 62.0555  77.78 62.0555  C 77.78 62.0555  76.6733 63.5508  76.6733 63.5508  C 76.6733 63.5508  77.0012 64.1328  77.0012 64.1328  C 77.0012 64.1328  76.0525 63.9533  76.0525 63.9533  C 76.0525 63.9533  75.5957 65.4216  75.5957 65.4216  C 75.5957 65.4216  75.7539 66.0308  75.7539 66.0308  C 75.7539 66.0308  74.8227 66.6128  74.8227 66.6128  C 74.8227 66.6128  74.5826 68.6245  74.5826 68.6245  C 74.5826 68.6245  75.3908 70.3544  75.3908 70.3544  C 75.3908 70.3544  76.0584 70.5013  76.0584 70.5013  C 76.0584 70.5013  76.158 72.3456  76.158 72.3456  C 76.158 72.3456  74.7583 73.5482  74.7583 73.5482  C 74.7583 73.5482  74.4304 74.8977  74.4304 74.8977  C 74.4304 74.8977  74.7583 75.7956  74.7583 75.7956  C 74.7583 75.7956  74.4597 76.4215  74.4597 76.4215  C 74.4597 76.4215  74.4362 78.4245  74.4362 78.4245  C 74.4362 78.4245  75.2971 80.0848  75.2971 80.0848  C 75.2971 80.0848  74.729 81.2826  74.729 81.2826  C 74.729 81.2826  74.9457 82.9268  74.9457 82.9268  C 74.9457 82.9268  76.5386 84.3535  76.5386 84.3535  C 76.5386 84.3535  77.2413 83.9614  77.2413 83.9614  C 77.2413 83.9614  77.6278 85.0668  77.6278 85.0668  C 77.6278 85.0668  78.7639 86.3467  78.7639 86.3467  C 78.7639 86.3467  80.4797 86.0798  80.4797 86.0798  C 80.4797 86.0798  80.8897 87.5558  80.8897 87.5558  C 80.8897 87.5558  81.405 87.7628  81.405 87.7628  C 81.405 87.7628  83.5951 87.5939  83.5951 87.5939  C 83.5951 87.5939  83.5659 88.3402  83.5659 88.3402  C 83.5659 88.3402  84.661 88.8194  84.661 88.8194  C 84.661 88.8194  85.1412 92.5294  85.1412 92.5294  C 85.1412 92.5294  83.4605 94.0987  83.4605 94.0987  C 83.4605 94.0987  82.3479 95.9407  82.3479 95.9407  C 82.3479 95.9407  81.3815 96.5402  81.3815 96.5402  C 81.3815 96.5402  82.4884 98.3879  82.4884 98.3879  C 82.4884 98.3879  82.096 98.9983  82.096 98.9983  C 82.096 98.9983  81.9144 100.6065  81.9144 100.6065  C 81.9144 100.6065  82.5704 101.3534  82.5704 101.3534  C 82.5704 101.3534  83.5776 101.2553  83.5776 101.2553  C 83.5776 101.2553  85.7326 102.2257  85.7326 102.2257  C 85.7326 102.2257  86.453 104.783  86.453 104.783  C 86.453 104.783  85.557 106.4627  85.557 106.4627  C 85.557 106.4627  85.7561 107.1444  85.7561 107.1444  C 85.7561 107.1444  85.0944 108.0552  85.0944 108.0552  C 85.0944 108.0552  84.9948 109.337  84.9948 109.337  C 84.9948 109.337  84.5907 109.5279  84.5907 109.5279  C 84.5907 109.5279  84.5263 110.9682  84.5263 110.9682  C 84.5263 110.9682  84.9186 112.5339  84.9186 112.5339  C 84.9186 112.5339  85.4633 112.8559  85.4633 112.8559  C 85.4633 112.8559  84.6024 114.5036  84.6024 114.5036  C 84.6024 114.5036  85.1646 115.1421  85.1646 115.1421  C 85.1646 115.1421  84.7429 116.4792  84.7429 116.4792  C 84.7429 116.4792  84.9889 116.9812  84.9889 116.9812  C 84.9889 116.9812  85.6975 116.359  85.6975 116.359  C 85.6975 116.359  85.557 117.3305  85.557 117.3305  C 85.557 117.3305  86.3534 116.7793  86.3534 116.7793  C 86.3534 116.7793  86.939 117.2705  86.939 117.2705  C 86.939 117.2705  87.8467 121.015  87.8467 121.015  C 87.8467 121.015  87.8643 121.954  87.8643 121.954  C 87.8643 121.954  87.3489 122.9477  87.3489 122.9477  C 87.3489 122.9477  83.0272 124.3181  83.0272 124.3181  C 83.0272 124.3181  82.0082 124.9515  82.0082 124.9515  C 82.0082 124.9515  79.7653 128.13  79.7653 128.13  C 79.7653 128.13  77.9851 129.916  77.9851 129.916  C 77.9851 129.916  76.2868 131.238  76.2868 131.238  C 76.2868 131.238  75.7948 131.249  75.7948 131.249  C 75.7948 131.249  74.6237 132.7458  74.6237 132.7458  C 74.6237 132.7458  72.9136 133.3905  72.9136 133.3905  C 72.9136 133.3905  72.4451 133.1392  72.4451 133.1392  C 72.4451 133.1392  72.4745 130.9594  72.4745 130.9594  C 72.4745 130.9594  71.924 129.6321  71.924 129.6321  C 71.924 129.6321  72.1582 129.3261  72.1582 129.3261  C 72.1582 129.3261  73.7042 130.2111  73.7042 130.2111  C 73.7042 130.2111  74.3133 129.9434  74.3133 129.9434  C 74.3133 129.9434  74.2898 128.7581  74.2898 128.7581  C 74.2898 128.7581  75.3674 126.9121  75.3674 126.9121  C 75.3674 126.9121  74.9808 126.1038  74.9808 126.1038  C 74.9808 126.1038  73.9385 126.0273  73.9385 126.0273  C 73.9385 126.0273  72.006 126.4751  72.006 126.4751  C 72.006 126.4751  71.0514 127.3707  71.0514 127.3707  C 71.0514 127.3707  68.9784 127.6493  68.9784 127.6493  C 68.9784 127.6493  65.8805 128.7253  65.8805 128.7253  C 65.8805 128.7253  63.9831 128.6488  63.9831 128.6488  C 63.9831 128.6488  61.6934 129.266  61.6934 129.266  C 61.6934 129.266  61.0785 129.0311  61.0785 129.0311  C 61.0785 129.0311  58.6306 129.337  58.6306 129.337  C 58.6306 129.337  57.4652 129.6703  57.4652 129.6703  C 57.4652 129.6703  55.4391 130.7355  55.4391 130.7355  C 55.4391 130.7355  51.839 132.8496  51.839 132.8496  C 51.839 132.8496  50.0235 133.9916  50.0235 133.9916  C 50.0235 133.9916  49.1334 131.2872  49.1334 131.2872  C 49.1334 131.2872  47.968 130.2274  47.968 130.2274  C 47.968 130.2274  47.0603 130.4186  47.0603 130.4186  C 47.0603 130.4186  46.3576 129.8014  46.3576 129.8014  C 46.3576 129.8014  46.2112 130.4459  46.2112 130.4459  C 46.2112 130.4459  44.9287 130.6261  44.9287 130.6261  C 44.9287 130.6261  44.2846 132.0575  44.2846 132.0575  C 44.2846 132.0575  43.6463 130.9485  43.6463 130.9485  C 43.6463 130.9485  42.6449 130.1127  42.6449 130.1127  C 42.6449 130.1127  43.822 129.4627  43.822 129.4627  C 43.822 129.4627  43.7809 128.4849  43.7809 128.4849  C 43.7809 128.4849  42.9084 127.5838  42.9084 127.5838  C 42.9084 127.5838  41.8777 127.4364  41.8777 127.4364  C 41.8777 127.4364  42.4458 126.8629  42.4458 126.8629  C 42.4458 126.8629  42.1881 126.0382  42.1881 126.0382  C 42.1881 126.0382  42.3052 124.684  42.3052 124.684  C 42.3052 124.684  41.6435 123.8704  41.6435 123.8704  C 41.6435 123.8704  40.9174 124.8915  40.9174 124.8915  C 40.9174 124.8915  39.6056 125.1426  39.6056 125.1426  C 39.6056 125.1426  40.7943 124.1161  40.7943 124.1161  C 40.7943 124.1161  40.2205 122.7565  40.2205 122.7565  C 40.2205 122.7565  40.1677 121.6755  40.1677 121.6755  C 40.1677 121.6755  38.7037 120.147  38.7037 120.147  C 38.7037 120.147  38.1883 120.218  38.1883 120.218  C 38.1883 120.218  37.9249 119.2299  37.9249 119.2299  C 37.9249 119.2299  38.5104 118.4003  38.5104 118.4003  C 38.5104 118.4003  37.8546 117.456  37.8546 117.456  C 37.8546 117.456  37.5442 116.0316  37.5442 116.0316  C 37.5442 116.0316  36.1622 116.3863  36.1622 116.3863  C 36.1622 116.3863  36.0099 114.7111  36.0099 114.7111  C 36.0099 114.7111  36.4082 112.283  36.4082 112.283  C 36.4082 112.283  36.3612 111.0609  36.3612 111.0609  C 36.3612 111.0609  35.4946 110.9136  35.4946 110.9136  C 35.4946 110.9136  34.3468 109.4352  34.3468 109.4352  C 34.3468 109.4352  33.5562 109.4188  33.5562 109.4188  C 33.5562 109.4188  33.0292 110.7608  33.0292 110.7608  C 33.0292 110.7608  32.6661 110.6462  32.6661 110.6462  C 32.6661 110.6462  31.6237 111.8737  31.6237 111.8737  C 31.6237 111.8737  31.6706 113.3359  31.6706 113.3359  C 31.6706 113.3359  32.1683 113.6743  32.1683 113.6743  C 32.1683 113.6743  32.4611 115.4532  32.4611 115.4532  C 32.4611 115.4532  31.6471 115.7915  31.6471 115.7915  C 31.6471 115.7915  31.4773 116.7957  31.4773 116.7957  C 31.4773 116.7957  30.9502 116.9921  30.9502 116.9921  C 30.9502 116.9921  30.7862 119.6284  30.7862 119.6284  C 30.7862 119.6284  31.6061 121.0968  31.6061 121.0968  C 31.6061 121.0968  31.0088 121.3262  31.0088 121.3262  C 31.0088 121.3262  31.1025 122.0632  31.1025 122.0632  C 31.1025 122.0632  29.984 121.7629  29.984 121.7629  Z M 15.2662 126.6062  C 15.2662 126.6062  15.19 124.4539  15.19 124.4539  C 15.19 124.4539  15.6468 126.4533  15.6468 126.4533  C 15.6468 126.4533  15.0847 127.3216  15.0847 127.3216  C 15.0847 127.3216  13.1242 127.1196  13.1242 127.1196  C 13.1242 127.1196  12.8725 125.2457  12.8725 125.2457  C 12.8725 125.2457  15.2662 126.6062  15.2662 126.6062  Z M 5.48650000000001 94.6246  C 5.48650000000001 94.6246  5.34010000000001 97.6302  5.34010000000001 97.6302  C 5.34010000000001 97.6302  4.03559999999999 97.9736  4.03559999999999 97.9736  C 4.03559999999999 97.9736  3.64320000000001 96.9708  3.64320000000001 96.9708  C 3.64320000000001 96.9708  3.88329999999999 94.5428  3.88329999999999 94.5428  C 3.88329999999999 94.5428  5.428 94.5101  5.428 94.5101  C 5.428 94.5101  5.48650000000001 94.6246  5.48650000000001 94.6246  Z M 29.4686 121.5218  C 29.4686 121.5218  30.1831 121.489  30.1831 121.489  C 30.1831 121.489  32.2079 124.3836  32.2079 124.3836  C 32.2079 124.3836  31.6399 124.1325  31.6399 124.1325  C 31.6399 124.1325  29.5038 124.4  29.5038 124.4  C 29.5038 124.4  29.8903 122.2971  29.8903 122.2971  C 29.8903 122.2971  29.4686 121.5218  29.4686 121.5218  Z M 67.6666 136.7129  C 67.6666 136.7129  65.8936 137.6365  65.8936 137.6365  C 65.8936 137.6365  65.8936 135.5215  65.8936 135.5215  C 65.8936 135.5215  67.731 134.5981  67.731 134.5981  C 67.731 134.5981  67.6666 136.7129  67.6666 136.7129  Z M 13.8432 127.8891  C 13.8432 127.8891  12.3512 129.8833  12.3512 129.8833  C 12.3512 129.8833  12.3923 127.9055  12.3923 127.9055  C 12.3923 127.9055  13.8432 127.8891  13.8432 127.8891  Z " fill-rule="nonzero" fill="#ffffff" stroke="none" transform="matrix(1 0 0 1 227 386 )" />
    <path d="M 29.984 121.7629  C 29.984 121.7629  29.375 122.3526  29.375 122.3526  C 29.375 122.3526  28.356 123.0787  28.356 123.0787  C 28.356 123.0787  27.1555 122.3144  27.1555 122.3144  C 27.1555 122.3144  26.728 123.2097  26.728 123.2097  C 26.728 123.2097  27.4717 123.7284  27.4717 123.7284  C 27.4717 123.7284  27.9343 125.3666  27.9343 125.3666  C 27.9343 125.3666  27.583 125.6832  27.583 125.6832  C 27.583 125.6832  26.2478 124.7495  26.2478 124.7495  C 26.2478 124.7495  25.5685 125.4212  25.5685 125.4212  C 25.5685 125.4212  25.6388 124.127  25.6388 124.127  C 25.6388 124.127  24.6608 124.3673  24.6608 124.3673  C 24.6608 124.3673  24.6901 126.2348  24.6901 126.2348  C 24.6901 126.2348  22.8337 126.426  22.8337 126.426  C 22.8337 126.426  21.9318 124.5967  21.9318 124.5967  C 21.9318 124.5967  21.1412 123.7503  21.1412 123.7503  C 21.1412 123.7503  20.4561 124.4328  20.4561 124.4328  C 20.4561 124.4328  19.4723 124.5802  19.4723 124.5802  C 19.4723 124.5802  19.32 122.8875  19.32 122.8875  C 19.32 122.8875  17.9321 123.2043  17.9321 123.2043  C 17.9321 123.2043  16.7609 125.1973  16.7609 125.1973  C 16.7609 125.1973  17.0479 126.6116  17.0479 126.6116  C 17.0479 126.6116  16.5442 127.1578  16.5442 127.1578  C 16.5442 127.1578  16.0523 126.497  16.0523 126.497  C 16.0523 126.497  14.9631 126.5134  14.9631 126.5134  C 14.9631 126.5134  14.9221 125.5413  14.9221 125.5413  C 14.9221 125.5413  14.2135 125.4157  14.2135 125.4157  C 14.2135 125.4157  14.3716 124.5365  14.3716 124.5365  C 14.3716 124.5365  13.3878 122.7511  13.3878 122.7511  C 13.3878 122.7511  12.4391 123.0951  12.4391 123.0951  C 12.4391 123.0951  11.8711 121.823  11.8711 121.823  C 11.8711 121.823  12.3396 120.027  12.3396 120.027  C 12.3396 120.027  11.7071 118.9789  11.7071 118.9789  C 11.7071 118.9789  11.3089 119.6503  11.3089 119.6503  C 11.3089 119.6503  10.1611 118.9407  10.1611 118.9407  C 10.1611 118.9407  9.78039999999999 119.3555  9.78039999999999 119.3555  C 9.78039999999999 119.3555  9.27680000000001 118.7496  9.27680000000001 118.7496  C 9.27680000000001 118.7496  8.56819999999999 119.0062  8.56819999999999 119.0062  C 8.56819999999999 119.0062  7.66640000000001 118.1546  7.66640000000001 118.1546  C 7.66640000000001 118.1546  8.19929999999999 116.7793  8.19929999999999 116.7793  C 8.19929999999999 116.7793  8.06460000000001 116.2772  8.06460000000001 116.2772  C 8.06460000000001 116.2772  8.94300000000001 116.2335  8.94300000000001 116.2335  C 8.94300000000001 116.2335  9.22989999999999 115.6387  9.22989999999999 115.6387  C 9.22989999999999 115.6387  8.0119 114.2963  8.0119 114.2963  C 8.0119 114.2963  7.26820000000001 114.4927  7.26820000000001 114.4927  C 7.26820000000001 114.4927  7.47900000000001 115.1912  7.47900000000001 115.1912  C 7.47900000000001 115.1912  6.95189999999999 115.726  6.95189999999999 115.726  C 6.95189999999999 115.726  6.43080000000001 114.1217  6.43080000000001 114.1217  C 6.43080000000001 114.1217  6.89930000000001 113.8598  6.89930000000001 113.8598  C 6.89930000000001 113.8598  6.89930000000001 112.5775  6.89930000000001 112.5775  C 6.89930000000001 112.5775  6.3546 112.463  6.3546 112.463  C 6.3546 112.463  6.33699999999999 110.7772  6.33699999999999 110.7772  C 6.33699999999999 110.7772  5.69290000000001 110.93  5.69290000000001 110.93  C 5.69290000000001 110.93  6.4717 109.3534  6.4717 109.3534  C 6.4717 109.3534  4.84379999999999 108.4425  4.84379999999999 108.4425  C 4.84379999999999 108.4425  4.59190000000001 107.4334  4.59190000000001 107.4334  C 4.59190000000001 107.4334  6.8758 106.5881  6.8758 106.5881  C 6.8758 106.5881  6.67670000000001 105.481  6.67670000000001 105.481  C 6.67670000000001 105.481  6.1497 105.2193  6.1497 105.2193  C 6.1497 105.2193  5.68119999999999 106.8062  5.68119999999999 106.8062  C 5.68119999999999 106.8062  5.35319999999999 105.9936  5.35319999999999 105.9936  C 5.35319999999999 105.9936  4.84379999999999 106.6917  4.84379999999999 106.6917  C 4.84379999999999 106.6917  3.46170000000001 105.8137  3.46170000000001 105.8137  C 3.46170000000001 105.8137  3.63149999999999 105.2029  3.63149999999999 105.2029  C 3.63149999999999 105.2029  2.22020000000001 102.7273  2.22020000000001 102.7273  C 2.22020000000001 102.7273  3.5437 101.8931  3.5437 101.8931  C 3.5437 101.8931  3.286 99.2273  3.286 99.2273  C 3.286 99.2273  4.03559999999999 97.9736  4.03559999999999 97.9736  C 4.03559999999999 97.9736  4.34010000000001 97.6302  4.34010000000001 97.6302  C 4.34010000000001 97.6302  5.09549999999999 97.7883  5.09549999999999 97.7883  C 5.09549999999999 97.7883  5.24780000000001 96.3059  5.24780000000001 96.3059  C 5.24780000000001 96.3059  4.48650000000001 95.6246  4.48650000000001 95.6246  C 4.48650000000001 95.6246  4.428 95.5101  4.428 95.5101  C 4.428 95.5101  5.0429 95.0415  5.0429 95.0415  C 5.0429 95.0415  4.91990000000001 94.3821  4.91990000000001 94.3821  C 4.91990000000001 94.3821  4.06489999999999 94.0551  4.06489999999999 94.0551  C 4.06489999999999 94.0551  4.19370000000001 93.2541  4.19370000000001 93.2541  C 4.19370000000001 93.2541  3.04589999999999 94.1696  3.04589999999999 94.1696  C 3.04589999999999 94.1696  1.98599999999999 93.6737  1.98599999999999 93.6737  C 1.98599999999999 93.6737  2.12649999999999 92.9436  2.12649999999999 92.9436  C 2.12649999999999 92.9436  3.26840000000001 93.2105  3.26840000000001 93.2105  C 3.26840000000001 93.2105  2.71209999999999 92.3551  2.71209999999999 92.3551  C 2.71209999999999 92.3551  1.9684 92.9763  1.9684 92.9763  C 1.9684 92.9763  1.79859999999999 93.8426  1.79859999999999 93.8426  C 1.79859999999999 93.8426  1.30080000000001 93.2814  1.30080000000001 93.2814  C 1.30080000000001 93.2814  1.54679999999999 90.1268  1.54679999999999 90.1268  C 1.54679999999999 90.1268  2.2319 89.277  2.2319 89.277  C 2.2319 89.277  2.43690000000001 88.1768  2.43690000000001 88.1768  C 2.43690000000001 88.1768  2.16749999999999 87.4142  2.16749999999999 87.4142  C 2.16749999999999 87.4142  3.0694 86.9784  3.0694 86.9784  C 3.0694 86.9784  3.8365 88.1877  3.8365 88.1877  C 3.8365 88.1877  4.9667 88.607  4.9667 88.607  C 4.9667 88.607  5.81 87.6375  5.81 87.6375  C 5.81 87.6375  4.98429999999999 84.7183  4.98429999999999 84.7183  C 4.98429999999999 84.7183  5.65190000000001 83.1174  5.65190000000001 83.1174  C 5.65190000000001 83.1174  6.9813 82.5892  6.9813 82.5892  C 6.9813 82.5892  5.9623 82.317  5.9623 82.317  C 5.9623 82.317  6.95779999999999 82.1428  6.95779999999999 82.1428  C 6.95779999999999 82.1428  7.0632 80.4061  7.0632 80.4061  C 7.0632 80.4061  9.04259999999999 80.014  9.04259999999999 80.014  C 9.04259999999999 80.014  9.17140000000001 79.5786  9.17140000000001 79.5786  C 9.17140000000001 79.5786  7.3443 79.2192  7.3443 79.2192  C 7.3443 79.2192  6.92259999999999 78.2558  6.92259999999999 78.2558  C 6.92259999999999 78.2558  5.93289999999999 78.0979  5.93289999999999 78.0979  C 5.93289999999999 78.0979  5.25360000000001 78.6205  5.25360000000001 78.6205  C 5.25360000000001 78.6205  4.15860000000001 76.8351  4.15860000000001 76.8351  C 4.15860000000001 76.8351  2.3373 75.9371  2.3373 75.9371  C 2.3373 75.9371  2.87020000000001 74.1739  2.87020000000001 74.1739  C 2.87020000000001 74.1739  2.595 72.8027  2.595 72.8027  C 2.595 72.8027  3.1455 72.9605  3.1455 72.9605  C 3.1455 72.9605  1.9391 69.5819  1.9391 69.5819  C 1.9391 69.5819  2.34899999999999 69.1141  2.34899999999999 69.1141  C 2.34899999999999 69.1141  2.53059999999999 66.281  2.53059999999999 66.281  C 2.53059999999999 66.281  2.24369999999999 64.9703  2.24369999999999 64.9703  C 2.24369999999999 64.9703  2.78819999999999 64.8179  2.78819999999999 64.8179  C 2.78819999999999 64.8179  2.8175 63.9859  2.8175 63.9859  C 2.8175 63.9859  2.20849999999999 63.4856  2.20849999999999 63.4856  C 2.20849999999999 63.4856  2.17339999999999 62.6699  2.17339999999999 62.6699  C 2.17339999999999 62.6699  3.30950000000001 62.4959  3.30950000000001 62.4959  C 3.30950000000001 62.4959  3.0986 61.316  3.0986 61.316  C 3.0986 61.316  3.22749999999999 59.7936  3.22749999999999 59.7936  C 3.22749999999999 59.7936  2.94630000000001 59.0924  2.94630000000001 59.0924  C 2.94630000000001 59.0924  2.27879999999999 59.0543  2.27879999999999 59.0543  C 2.27879999999999 59.0543  0.914299999999997 57.3691  0.914299999999997 57.3691  C 0.914299999999997 57.3691  0.322900000000004 56.9995  0.322900000000004 56.9995  C 0.322900000000004 56.9995  0.281800000000004 55.7983  0.281800000000004 55.7983  C 0.281800000000004 55.7983  0.9495 55.195  0.9495 55.195  C 0.9495 55.195  1.15440000000001 53.8037  1.15440000000001 53.8037  C 1.15440000000001 53.8037  1.54089999999999 53.8635  1.54089999999999 53.8635  C 1.54089999999999 53.8635  1.99770000000001 52.5974  1.99770000000001 52.5974  C 1.99770000000001 52.5974  4.0532 55.608  4.0532 55.608  C 4.0532 55.608  4.48650000000001 55.82  4.48650000000001 55.82  C 4.48650000000001 55.82  5.43520000000001 55.1841  5.43520000000001 55.1841  C 5.43520000000001 55.1841  5.24189999999999 54.3145  5.24189999999999 54.3145  C 5.24189999999999 54.3145  5.88030000000001 53.4614  5.88030000000001 53.4614  C 5.88030000000001 53.4614  6.74700000000001 53.1733  6.74700000000001 53.1733  C 6.74700000000001 53.1733  6.68260000000001 51.842  6.68260000000001 51.842  C 6.68260000000001 51.842  7.04570000000001 51.3042  7.04570000000001 51.3042  C 7.04570000000001 51.3042  8.28710000000001 51.5432  8.28710000000001 51.5432  C 8.28710000000001 51.5432  10.0206 52.9723  10.0206 52.9723  C 10.0206 52.9723  10.5359 54.358  10.5359 54.358  C 10.5359 54.358  12.8197 56.7441  12.8197 56.7441  C 12.8197 56.7441  12.3044 57.2169  12.3044 57.2169  C 12.3044 57.2169  12.7671 57.8203  12.7671 57.8203  C 12.7671 57.8203  14.3892 57.7767  14.3892 57.7767  C 14.3892 57.7767  15.8239 56.8147  15.8239 56.8147  C 15.8239 56.8147  15.8122 55.8037  15.8122 55.8037  C 15.8122 55.8037  18.1839 52.543  18.1839 52.543  C 18.1839 52.543  20.093 53.6951  20.093 53.6951  C 20.093 53.6951  21.4048 53.8689  21.4048 53.8689  C 21.4048 53.8689  21.0944 55.9016  21.0944 55.9016  C 21.0944 55.9016  21.6741 56.6679  21.6741 56.6679  C 21.6741 56.6679  22.8044 56.4722  22.8044 56.4722  C 22.8044 56.4722  23.4368 57.3637  23.4368 57.3637  C 23.4368 57.3637  25.2756 56.3146  25.2756 56.3146  C 25.2756 56.3146  25.6563 55.483  25.6563 55.483  C 25.6563 55.483  26.2185 55.7222  26.2185 55.7222  C 26.2185 55.7222  26.5992 54.945  26.5992 54.945  C 26.5992 54.945  27.2433 54.9613  27.2433 54.9613  C 27.2433 54.9613  26.9681 53.3526  26.9681 53.3526  C 26.9681 53.3526  26.16 51.8312  26.16 51.8312  C 26.16 51.8312  25.2523 51.3911  25.2523 51.3911  C 25.2523 51.3911  24.7955 49.8317  24.7955 49.8317  C 24.7955 49.8317  25.305 48.2835  25.305 48.2835  C 25.305 48.2835  26.1541 47.5556  26.1541 47.5556  C 26.1541 47.5556  27.7879 47.2296  27.7879 47.2296  C 27.7879 47.2296  28.438 46.2412  28.438 46.2412  C 28.438 46.2412  28.5082 44.8072  28.5082 44.8072  C 28.5082 44.8072  29.7731 44.2533  29.7731 44.2533  C 29.7731 44.2533  30.4583 42.5862  30.4583 42.5862  C 30.4583 42.5862  30.7921 42.4342  30.7921 42.4342  C 30.7921 42.4342  31.8287 43.8298  31.8287 43.8298  C 31.8287 43.8298  33.3454 44.5683  33.3454 44.5683  C 33.3454 44.5683  35.313 43.9438  35.313 43.9438  C 35.313 43.9438  35.7113 43.3464  35.7113 43.3464  C 35.7113 43.3464  35.395 42.5373  35.395 42.5373  C 35.395 42.5373  34.4053 42.4396  34.4053 42.4396  C 34.4053 42.4396  34.4522 41.2342  34.4522 41.2342  C 34.4522 41.2342  33.4801 39.4589  33.4801 39.4589  C 33.4801 39.4589  32.6309 38.9539  32.6309 38.9539  C 32.6309 38.9539  32.6895 37.4231  32.6895 37.4231  C 32.6895 37.4231  32.0102 35.6699  32.0102 35.6699  C 32.0102 35.6699  31.1025 35.2249  31.1025 35.2249  C 31.1025 35.2249  30.675 35.887  30.675 35.887  C 30.675 35.887  29.738 34.8938  29.738 34.8938  C 29.738 34.8938  29.8024 32.2619  29.8024 32.2619  C 29.8024 32.2619  29.3808 31.2527  29.3808 31.2527  C 29.3808 31.2527  29.9254 30.0591  29.9254 30.0591  C 29.9254 30.0591  29.8727 27.9813  29.8727 27.9813  C 29.8727 27.9813  29.3691 27.0701  29.3691 27.0701  C 29.3691 27.0701  28.3618 26.8802  28.3618 26.8802  C 28.3618 26.8802  28.2974 25.9147  28.2974 25.9147  C 28.2974 25.9147  27.5947 24.3202  27.5947 24.3202  C 27.5947 24.3202  27.9577 23.8756  27.9577 23.8756  C 27.9577 23.8756  28.7308 24.2118  28.7308 24.2118  C 28.7308 24.2118  29.2461 25.0307  29.2461 25.0307  C 29.2461 25.0307  30.839 25.5622  30.839 25.5622  C 30.839 25.5622  32.016 25.2477  32.016 25.2477  C 32.016 25.2477  32.508 24.0437  32.508 24.0437  C 32.508 24.0437  31.9106 22.7585  31.9106 22.7585  C 31.9106 22.7585  31.9458 21.7283  31.9458 21.7283  C 31.9458 21.7283  32.7129 19.874  32.7129 19.874  C 32.7129 19.874  33.5035 19.9011  33.5035 19.9011  C 33.5035 19.9011  33.0057 17.8574  33.0057 17.8574  C 33.0057 17.8574  33.2048 16.6758  33.2048 16.6758  C 33.2048 16.6758  32.5313 16.0308  32.5313 16.0308  C 32.5313 16.0308  33.5562 15.5377  33.5562 15.5377  C 33.5562 15.5377  33.7846 14.8926  33.7846 14.8926  C 33.7846 14.8926  33.4566 13.3808  33.4566 13.3808  C 33.4566 13.3808  34.868 12.9093  34.868 12.9093  C 34.868 12.9093  36.0041 14.3399  36.0041 14.3399  C 36.0041 14.3399  36.4374 15.8195  36.4374 15.8195  C 36.4374 15.8195  36.9411 15.6081  36.9411 15.6081  C 36.9411 15.6081  37.0757 14.4103  37.0757 14.4103  C 37.0757 14.4103  37.6789 13.6571  37.6789 13.6571  C 37.6789 13.6571  39.0375 12.9581  39.0375 12.9581  C 39.0375 12.9581  40.607 13.229  40.607 13.229  C 40.607 13.229  41.175 12.6708  41.175 12.6708  C 41.175 12.6708  42.4341 13.1857  42.4341 13.1857  C 42.4341 13.1857  43.166 13.099  43.166 13.099  C 43.166 13.099  43.9801 12.2374  43.9801 12.2374  C 43.9801 12.2374  43.822 10.0431  43.822 10.0431  C 43.822 10.0431  47.2946 10.5957  47.2946 10.5957  C 47.2946 10.5957  48.5478 9.71800000000002  48.5478 9.71800000000002  C 48.5478 9.71800000000002  48.8582 8.7971  48.8582 8.7971  C 48.8582 8.7971  48.6474 7.7029  48.6474 7.7029  C 48.6474 7.7029  50.047 7.18830000000003  50.047 7.18830000000003  C 50.047 7.18830000000003  50.8141 7.32369999999997  50.8141 7.32369999999997  C 50.8141 7.32369999999997  51.5578 8.22829999999999  51.5578 8.22829999999999  C 51.5578 8.22829999999999  53.5475 6.84710000000001  53.5475 6.84710000000001  C 53.5475 6.84710000000001  54.9179 6.17000000000002  54.9179 6.17000000000002  C 54.9179 6.17000000000002  55.1287 6.65750000000003  55.1287 6.65750000000003  C 55.1287 6.65750000000003  57.0319 6.47879999999998  57.0319 6.47879999999998  C 57.0319 6.47879999999998  57.5238 4.6807  57.5238 4.6807  C 57.5238 4.6807  58.4374 4.57240000000002  58.4374 4.57240000000002  C 58.4374 4.57240000000002  59.632 1.81610000000001  59.632 1.81610000000001  C 59.632 1.81610000000001  60.7857 1.75659999999999  60.7857 1.75659999999999  C 60.7857 1.75659999999999  61.0609 0.792899999999975  61.0609 0.792899999999975  C 61.0609 0.792899999999975  62.2204 1.08519999999999  62.2204 1.08519999999999  C 62.2204 1.08519999999999  62.2965 1.65910000000002  62.2965 1.65910000000002  C 62.2965 1.65910000000002  63.2394 2.66629999999998  63.2394 2.66629999999998  C 63.2394 2.66629999999998  63.2569 3.83049999999997  63.2569 3.83049999999997  C 63.2569 3.83049999999997  62.5542 4.6807  62.5542 4.6807  C 62.5542 4.6807  63.2042 6.96089999999998  63.2042 6.96089999999998  C 63.2042 6.96089999999998  63.7195 7.48079999999999  63.7195 7.48079999999999  C 63.7195 7.48079999999999  63.8015 8.80250000000001  63.8015 8.80250000000001  C 63.8015 8.80250000000001  65.1485 9.3605  65.1485 9.3605  C 65.1485 9.3605  66.1323 10.8341  66.1323 10.8341  C 66.1323 10.8341  66.9814 10.975  66.9814 10.975  C 66.9814 10.975  67.813 10.379  67.813 10.379  C 67.813 10.379  69.2595 11.9664  69.2595 11.9664  C 69.2595 11.9664  69.5288 12.866  69.5288 12.866  C 69.5288 12.866  71.8127 13.0881  71.8127 13.0881  C 71.8127 13.0881  72.1523 12.5191  72.1523 12.5191  C 72.1523 12.5191  74.12 12.2319  74.12 12.2319  C 74.12 12.2319  75.9412 13.3862  75.9412 13.3862  C 75.9412 13.3862  75.9822 14.535  75.9822 14.535  C 75.9822 14.535  77.7391 15.7761  77.7391 15.7761  C 77.7391 15.7761  77.4404 16.5511  77.4404 16.5511  C 77.4404 16.5511  75.2386 16.7571  75.2386 16.7571  C 75.2386 16.7571  74.5709 19.1801  74.5709 19.1801  C 74.5709 19.1801  73.9677 19.7927  73.9677 19.7927  C 73.9677 19.7927  73.5695 20.9855  73.5695 20.9855  C 73.5695 20.9855  73.9444 22.4331  73.9444 22.4331  C 73.9444 22.4331  75.1916 20.9963  75.1916 20.9963  C 75.1916 20.9963  77.9851 19.9716  77.9851 19.9716  C 77.9851 19.9716  78.6526 19.2723  78.6526 19.2723  C 78.6526 19.2723  79.531 20.8987  79.531 20.8987  C 79.531 20.8987  81.3347 19.977  81.3347 19.977  C 81.3347 19.977  82.1721 20.6114  82.1721 20.6114  C 82.1721 20.6114  83.5835 19.9716  83.5835 19.9716  C 83.5835 19.9716  84.3682 20.3241  84.3682 20.3241  C 84.3682 20.3241  84.1574 22.4223  84.1574 22.4223  C 84.1574 22.4223  83.601 23.6966  83.601 23.6966  C 83.601 23.6966  84.0168 24.1304  84.0168 24.1304  C 84.0168 24.1304  84.0812 25.9798  84.0812 25.9798  C 84.0812 25.9798  84.9596 27.0158  84.9596 27.0158  C 84.9596 27.0158  84.6493 28.6269  84.6493 28.6269  C 84.6493 28.6269  85.0124 29.0826  85.0124 29.0826  C 85.0124 29.0826  86.3651 28.9632  86.3651 28.9632  C 86.3651 28.9632  86.8629 27.4986  86.8629 27.4986  C 86.8629 27.4986  88.7954 27.5203  88.7954 27.5203  C 88.7954 27.5203  89.4922 25.6707  89.4922 25.6707  C 89.4922 25.6707  88.9593 24.1955  88.9593 24.1955  C 88.9593 24.1955  89.2229 23.6316  89.2229 23.6316  C 89.2229 23.6316  88.649 22.6013  88.649 22.6013  C 88.649 22.6013  89.9842 21.0451  89.9842 21.0451  C 89.9842 21.0451  91.5829 22.2271  91.5829 22.2271  C 91.5829 22.2271  92.9122 23.6316  92.9122 23.6316  C 92.9122 23.6316  94.4582 21.6795  94.4582 21.6795  C 94.4582 21.6795  94.3938 19.8415  94.3938 19.8415  C 94.3938 19.8415  95.6587 19.2289  95.6587 19.2289  C 95.6587 19.2289  95.524 18.676  95.524 18.676  C 95.524 18.676  96.2853 17.4617  96.2853 17.4617  C 96.2853 17.4617  98.3466 16.3777  98.3466 16.3777  C 98.3466 16.3777  99.149 16.5511  99.149 16.5511  C 99.149 16.5511  99.5472 17.272  99.5472 17.272  C 99.5472 17.272  99.4125 18.1339  99.4125 18.1339  C 99.4125 18.1339  100.0273 18.1556  100.0273 18.1556  C 100.0273 18.1556  99.8576 19.4295  99.8576 19.4295  C 99.8576 19.4295  100.2557 19.4512  100.2557 19.4512  C 100.2557 19.4512  99.8517 20.7795  99.8517 20.7795  C 99.8517 20.7795  100.1269 21.8855  100.1269 21.8855  C 100.1269 21.8855  100.5896 20.4976  100.5896 20.4976  C 100.5896 20.4976  101.2162 21.2783  101.2162 21.2783  C 101.2162 21.2783  102.3054 21.7933  102.3054 21.7933  C 102.3054 21.7933  104.0856 21.2783  104.0856 21.2783  C 104.0856 21.2783  104.6303 21.9777  104.6303 21.9777  C 104.6303 21.9777  104.7649 23.4038  104.7649 23.4038  C 104.7649 23.4038  104.9992 24.7921  104.9992 24.7921  C 104.9992 24.7921  104.6713 26.0069  104.6713 26.0069  C 104.6713 26.0069  103.219 28.2417  103.219 28.2417  C 103.219 28.2417  102.4167 29.0771  102.4167 29.0771  C 102.4167 29.0771  100.9878 31.5077  100.9878 31.5077  C 100.9878 31.5077  99.9103 32.7665  99.9103 32.7665  C 99.9103 32.7665  99.1841 32.4898  99.1841 32.4898  C 99.1841 32.4898  98.6805 34.2914  98.6805 34.2914  C 98.6805 34.2914  97.884 34.8775  97.884 34.8775  C 97.884 34.8775  96.4493 34.324  96.4493 34.324  C 96.4493 34.324  95.0028 35.3932  95.0028 35.3932  C 95.0028 35.3932  94.2533 35.0513  94.2533 35.0513  C 94.2533 35.0513  93.3632 36.039  93.3632 36.039  C 93.3632 36.039  92.2857 35.3335  92.2857 35.3335  C 92.2857 35.3335  91.8406 36.9346  91.8406 36.9346  C 91.8406 36.9346  90.5405 37.9713  90.5405 37.9713  C 90.5405 37.9713  90.3941 38.5685  90.3941 38.5685  C 90.3941 38.5685  89.4278 38.5088  89.4278 38.5088  C 89.4278 38.5088  88.3738 38.9268  88.3738 38.9268  C 88.3738 38.9268  88.5553 39.2688  88.5553 39.2688  C 88.5553 39.2688  87.8818 40.9953  87.8818 40.9953  C 87.8818 40.9953  88.2976 41.7663  88.2976 41.7663  C 88.2976 41.7663  87.8877 42.3527  87.8877 42.3527  C 87.8877 42.3527  87.4309 45.0137  87.4309 45.0137  C 87.4309 45.0137  85.8966 44.5085  85.8966 44.5085  C 85.8966 44.5085  85.0768 44.7746  85.0768 44.7746  C 85.0768 44.7746  84.6317 45.7197  84.6317 45.7197  C 84.6317 45.7197  83.4429 46.7734  83.4429 46.7734  C 83.4429 46.7734  82.4708 46.9472  82.4708 46.9472  C 82.4708 46.9472  81.9144 48.0119  81.9144 48.0119  C 81.9144 48.0119  81.5748 47.7783  81.5748 47.7783  C 81.5748 47.7783  80.3275 48.7181  80.3275 48.7181  C 80.3275 48.7181  79.2265 51.0053  79.2265 51.0053  C 79.2265 51.0053  79.8356 52.8527  79.8356 52.8527  C 79.8356 52.8527  79.3788 54.108  79.3788 54.108  C 79.3788 54.108  77.78 55.0972  77.78 55.0972  C 77.78 55.0972  78.3364 56.2494  78.3364 56.2494  C 78.3364 56.2494  78.1021 58.0649  78.1021 58.0649  C 78.1021 58.0649  78.8107 59.3642  78.8107 59.3642  C 78.8107 59.3642  78.5706 60.4841  78.5706 60.4841  C 78.5706 60.4841  77.5692 61.0007  77.5692 61.0007  C 77.5692 61.0007  77.78 62.0555  77.78 62.0555  C 77.78 62.0555  76.6733 63.5508  76.6733 63.5508  C 76.6733 63.5508  77.0012 64.1328  77.0012 64.1328  C 77.0012 64.1328  76.0525 63.9533  76.0525 63.9533  C 76.0525 63.9533  75.5957 65.4216  75.5957 65.4216  C 75.5957 65.4216  75.7539 66.0308  75.7539 66.0308  C 75.7539 66.0308  74.8227 66.6128  74.8227 66.6128  C 74.8227 66.6128  74.5826 68.6245  74.5826 68.6245  C 74.5826 68.6245  75.3908 70.3544  75.3908 70.3544  C 75.3908 70.3544  76.0584 70.5013  76.0584 70.5013  C 76.0584 70.5013  76.158 72.3456  76.158 72.3456  C 76.158 72.3456  74.7583 73.5482  74.7583 73.5482  C 74.7583 73.5482  74.4304 74.8977  74.4304 74.8977  C 74.4304 74.8977  74.7583 75.7956  74.7583 75.7956  C 74.7583 75.7956  74.4597 76.4215  74.4597 76.4215  C 74.4597 76.4215  74.4362 78.4245  74.4362 78.4245  C 74.4362 78.4245  75.2971 80.0848  75.2971 80.0848  C 75.2971 80.0848  74.729 81.2826  74.729 81.2826  C 74.729 81.2826  74.9457 82.9268  74.9457 82.9268  C 74.9457 82.9268  76.5386 84.3535  76.5386 84.3535  C 76.5386 84.3535  77.2413 83.9614  77.2413 83.9614  C 77.2413 83.9614  77.6278 85.0668  77.6278 85.0668  C 77.6278 85.0668  78.7639 86.3467  78.7639 86.3467  C 78.7639 86.3467  80.4797 86.0798  80.4797 86.0798  C 80.4797 86.0798  80.8897 87.5558  80.8897 87.5558  C 80.8897 87.5558  81.405 87.7628  81.405 87.7628  C 81.405 87.7628  83.5951 87.5939  83.5951 87.5939  C 83.5951 87.5939  83.5659 88.3402  83.5659 88.3402  C 83.5659 88.3402  84.661 88.8194  84.661 88.8194  C 84.661 88.8194  85.1412 92.5294  85.1412 92.5294  C 85.1412 92.5294  83.4605 94.0987  83.4605 94.0987  C 83.4605 94.0987  82.3479 95.9407  82.3479 95.9407  C 82.3479 95.9407  81.3815 96.5402  81.3815 96.5402  C 81.3815 96.5402  82.4884 98.3879  82.4884 98.3879  C 82.4884 98.3879  82.096 98.9983  82.096 98.9983  C 82.096 98.9983  81.9144 100.6065  81.9144 100.6065  C 81.9144 100.6065  82.5704 101.3534  82.5704 101.3534  C 82.5704 101.3534  83.5776 101.2553  83.5776 101.2553  C 83.5776 101.2553  85.7326 102.2257  85.7326 102.2257  C 85.7326 102.2257  86.453 104.783  86.453 104.783  C 86.453 104.783  85.557 106.4627  85.557 106.4627  C 85.557 106.4627  85.7561 107.1444  85.7561 107.1444  C 85.7561 107.1444  85.0944 108.0552  85.0944 108.0552  C 85.0944 108.0552  84.9948 109.337  84.9948 109.337  C 84.9948 109.337  84.5907 109.5279  84.5907 109.5279  C 84.5907 109.5279  84.5263 110.9682  84.5263 110.9682  C 84.5263 110.9682  84.9186 112.5339  84.9186 112.5339  C 84.9186 112.5339  85.4633 112.8559  85.4633 112.8559  C 85.4633 112.8559  84.6024 114.5036  84.6024 114.5036  C 84.6024 114.5036  85.1646 115.1421  85.1646 115.1421  C 85.1646 115.1421  84.7429 116.4792  84.7429 116.4792  C 84.7429 116.4792  84.9889 116.9812  84.9889 116.9812  C 84.9889 116.9812  85.6975 116.359  85.6975 116.359  C 85.6975 116.359  85.557 117.3305  85.557 117.3305  C 85.557 117.3305  86.3534 116.7793  86.3534 116.7793  C 86.3534 116.7793  86.939 117.2705  86.939 117.2705  C 86.939 117.2705  87.8467 121.015  87.8467 121.015  C 87.8467 121.015  87.8643 121.954  87.8643 121.954  C 87.8643 121.954  87.3489 122.9477  87.3489 122.9477  C 87.3489 122.9477  83.0272 124.3181  83.0272 124.3181  C 83.0272 124.3181  82.0082 124.9515  82.0082 124.9515  C 82.0082 124.9515  79.7653 128.13  79.7653 128.13  C 79.7653 128.13  77.9851 129.916  77.9851 129.916  C 77.9851 129.916  76.2868 131.238  76.2868 131.238  C 76.2868 131.238  75.7948 131.249  75.7948 131.249  C 75.7948 131.249  74.6237 132.7458  74.6237 132.7458  C 74.6237 132.7458  72.9136 133.3905  72.9136 133.3905  C 72.9136 133.3905  72.4451 133.1392  72.4451 133.1392  C 72.4451 133.1392  72.4745 130.9594  72.4745 130.9594  C 72.4745 130.9594  71.924 129.6321  71.924 129.6321  C 71.924 129.6321  72.1582 129.3261  72.1582 129.3261  C 72.1582 129.3261  73.7042 130.2111  73.7042 130.2111  C 73.7042 130.2111  74.3133 129.9434  74.3133 129.9434  C 74.3133 129.9434  74.2898 128.7581  74.2898 128.7581  C 74.2898 128.7581  75.3674 126.9121  75.3674 126.9121  C 75.3674 126.9121  74.9808 126.1038  74.9808 126.1038  C 74.9808 126.1038  73.9385 126.0273  73.9385 126.0273  C 73.9385 126.0273  72.006 126.4751  72.006 126.4751  C 72.006 126.4751  71.0514 127.3707  71.0514 127.3707  C 71.0514 127.3707  68.9784 127.6493  68.9784 127.6493  C 68.9784 127.6493  65.8805 128.7253  65.8805 128.7253  C 65.8805 128.7253  63.9831 128.6488  63.9831 128.6488  C 63.9831 128.6488  61.6934 129.266  61.6934 129.266  C 61.6934 129.266  61.0785 129.0311  61.0785 129.0311  C 61.0785 129.0311  58.6306 129.337  58.6306 129.337  C 58.6306 129.337  57.4652 129.6703  57.4652 129.6703  C 57.4652 129.6703  55.4391 130.7355  55.4391 130.7355  C 55.4391 130.7355  51.839 132.8496  51.839 132.8496  C 51.839 132.8496  50.0235 133.9916  50.0235 133.9916  C 50.0235 133.9916  49.1334 131.2872  49.1334 131.2872  C 49.1334 131.2872  47.968 130.2274  47.968 130.2274  C 47.968 130.2274  47.0603 130.4186  47.0603 130.4186  C 47.0603 130.4186  46.3576 129.8014  46.3576 129.8014  C 46.3576 129.8014  46.2112 130.4459  46.2112 130.4459  C 46.2112 130.4459  44.9287 130.6261  44.9287 130.6261  C 44.9287 130.6261  44.2846 132.0575  44.2846 132.0575  C 44.2846 132.0575  43.6463 130.9485  43.6463 130.9485  C 43.6463 130.9485  42.6449 130.1127  42.6449 130.1127  C 42.6449 130.1127  43.822 129.4627  43.822 129.4627  C 43.822 129.4627  43.7809 128.4849  43.7809 128.4849  C 43.7809 128.4849  42.9084 127.5838  42.9084 127.5838  C 42.9084 127.5838  41.8777 127.4364  41.8777 127.4364  C 41.8777 127.4364  42.4458 126.8629  42.4458 126.8629  C 42.4458 126.8629  42.1881 126.0382  42.1881 126.0382  C 42.1881 126.0382  42.3052 124.684  42.3052 124.684  C 42.3052 124.684  41.6435 123.8704  41.6435 123.8704  C 41.6435 123.8704  40.9174 124.8915  40.9174 124.8915  C 40.9174 124.8915  39.6056 125.1426  39.6056 125.1426  C 39.6056 125.1426  40.7943 124.1161  40.7943 124.1161  C 40.7943 124.1161  40.2205 122.7565  40.2205 122.7565  C 40.2205 122.7565  40.1677 121.6755  40.1677 121.6755  C 40.1677 121.6755  38.7037 120.147  38.7037 120.147  C 38.7037 120.147  38.1883 120.218  38.1883 120.218  C 38.1883 120.218  37.9249 119.2299  37.9249 119.2299  C 37.9249 119.2299  38.5104 118.4003  38.5104 118.4003  C 38.5104 118.4003  37.8546 117.456  37.8546 117.456  C 37.8546 117.456  37.5442 116.0316  37.5442 116.0316  C 37.5442 116.0316  36.1622 116.3863  36.1622 116.3863  C 36.1622 116.3863  36.0099 114.7111  36.0099 114.7111  C 36.0099 114.7111  36.4082 112.283  36.4082 112.283  C 36.4082 112.283  36.3612 111.0609  36.3612 111.0609  C 36.3612 111.0609  35.4946 110.9136  35.4946 110.9136  C 35.4946 110.9136  34.3468 109.4352  34.3468 109.4352  C 34.3468 109.4352  33.5562 109.4188  33.5562 109.4188  C 33.5562 109.4188  33.0292 110.7608  33.0292 110.7608  C 33.0292 110.7608  32.6661 110.6462  32.6661 110.6462  C 32.6661 110.6462  31.6237 111.8737  31.6237 111.8737  C 31.6237 111.8737  31.6706 113.3359  31.6706 113.3359  C 31.6706 113.3359  32.1683 113.6743  32.1683 113.6743  C 32.1683 113.6743  32.4611 115.4532  32.4611 115.4532  C 32.4611 115.4532  31.6471 115.7915  31.6471 115.7915  C 31.6471 115.7915  31.4773 116.7957  31.4773 116.7957  C 31.4773 116.7957  30.9502 116.9921  30.9502 116.9921  C 30.9502 116.9921  30.7862 119.6284  30.7862 119.6284  C 30.7862 119.6284  31.6061 121.0968  31.6061 121.0968  C 31.6061 121.0968  31.0088 121.3262  31.0088 121.3262  C 31.0088 121.3262  31.1025 122.0632  31.1025 122.0632  C 31.1025 122.0632  29.984 121.7629  29.984 121.7629  Z " stroke-width="2" stroke="#666666" fill="none" transform="matrix(1 0 0 1 227 386 )" mask="url(#clip36)" />
    <path d="M 15.2662 126.6062  C 15.2662 126.6062  15.19 124.4539  15.19 124.4539  C 15.19 124.4539  15.6468 126.4533  15.6468 126.4533  C 15.6468 126.4533  15.0847 127.3216  15.0847 127.3216  C 15.0847 127.3216  13.1242 127.1196  13.1242 127.1196  C 13.1242 127.1196  12.8725 125.2457  12.8725 125.2457  C 12.8725 125.2457  15.2662 126.6062  15.2662 126.6062  Z " stroke-width="2" stroke="#666666" fill="none" transform="matrix(1 0 0 1 227 386 )" mask="url(#clip36)" />
    <path d="M 5.48650000000001 94.6246  C 5.48650000000001 94.6246  5.34010000000001 97.6302  5.34010000000001 97.6302  C 5.34010000000001 97.6302  4.03559999999999 97.9736  4.03559999999999 97.9736  C 4.03559999999999 97.9736  3.64320000000001 96.9708  3.64320000000001 96.9708  C 3.64320000000001 96.9708  3.88329999999999 94.5428  3.88329999999999 94.5428  C 3.88329999999999 94.5428  5.428 94.5101  5.428 94.5101  C 5.428 94.5101  5.48650000000001 94.6246  5.48650000000001 94.6246  Z " stroke-width="2" stroke="#666666" fill="none" transform="matrix(1 0 0 1 227 386 )" mask="url(#clip36)" />
    <path d="M 29.4686 121.5218  C 29.4686 121.5218  30.1831 121.489  30.1831 121.489  C 30.1831 121.489  32.2079 124.3836  32.2079 124.3836  C 32.2079 124.3836  31.6399 124.1325  31.6399 124.1325  C 31.6399 124.1325  29.5038 124.4  29.5038 124.4  C 29.5038 124.4  29.8903 122.2971  29.8903 122.2971  C 29.8903 122.2971  29.4686 121.5218  29.4686 121.5218  Z " stroke-width="2" stroke="#666666" fill="none" transform="matrix(1 0 0 1 227 386 )" mask="url(#clip36)" />
    <path d="M 67.6666 136.7129  C 67.6666 136.7129  65.8936 137.6365  65.8936 137.6365  C 65.8936 137.6365  65.8936 135.5215  65.8936 135.5215  C 65.8936 135.5215  67.731 134.5981  67.731 134.5981  C 67.731 134.5981  67.6666 136.7129  67.6666 136.7129  Z " stroke-width="2" stroke="#666666" fill="none" transform="matrix(1 0 0 1 227 386 )" mask="url(#clip36)" />
    <path d="M 13.8432 127.8891  C 13.8432 127.8891  12.3512 129.8833  12.3512 129.8833  C 12.3512 129.8833  12.3923 127.9055  12.3923 127.9055  C 12.3923 127.9055  13.8432 127.8891  13.8432 127.8891  Z " stroke-width="2" stroke="#666666" fill="none" transform="matrix(1 0 0 1 227 386 )" mask="url(#clip36)" />
  </g>
</svg>