<?xml version="1.0" encoding="utf-8"?>
<svg version="1.1" xmlns:xlink="http://www.w3.org/1999/xlink" width="118px" height="167px" xmlns="http://www.w3.org/2000/svg">
  <defs>
    <mask fill="white" id="clip37">
      <path d="M 111.4866 87.0859  C 111.4866 87.0859  113.6533 87.0644  113.6533 87.0644  C 113.6533 87.0644  113.7411 87.8983  113.7411 87.8983  C 113.7411 87.8983  114.438 88.0543  114.438 88.0543  C 114.438 88.0543  115.1759 88.9152  115.1759 88.9152  C 115.1759 88.9152  114.7836 91.4284  114.7836 91.4284  C 114.7836 91.4284  114.8186 93.0377  114.8186 93.0377  C 114.8186 93.0377  114.2389 93.2852  114.2389 93.2852  C 114.2389 93.2852  113.6943 94.9755  113.6943 94.9755  C 113.6943 94.9755  112.2244 95.5461  112.2244 95.5461  C 112.2244 95.5461  111.5275 97.409  111.5275 97.409  C 111.5275 97.409  111.6036 98.2705  111.6036 98.2705  C 111.6036 98.2705  111.0474 98.9491  111.0474 98.9491  C 111.0474 98.9491  110.8775 101.1463  110.8775 101.1463  C 110.8775 101.1463  110.2333 102.5089  110.2333 102.5089  C 110.2333 102.5089  110.3505 104.8522  110.3505 104.8522  C 110.3505 104.8522  111.8262 105.2347  111.8262 105.2347  C 111.8262 105.2347  112.0956 104.836  112.0956 104.836  C 112.0956 104.836  111.7735 103.1876  111.7735 103.1876  C 111.7735 103.1876  112.4001 102.7514  112.4001 102.7514  C 112.4001 102.7514  114.2565 103.2038  114.2565 103.2038  C 114.2565 103.2038  115.8844 105.5257  115.8844 105.5257  C 115.8844 105.5257  116.2066 107.0988  116.2066 107.0988  C 116.2066 107.0988  117.6882 107.282  117.6882 107.282  C 117.6882 107.282  116.7746 110.5154  116.7746 110.5154  C 116.7746 110.5154  116.4349 112.79  116.4349 112.79  C 116.4349 112.79  115.7205 113.4045  115.7205 113.4045  C 115.7205 113.4045  114.9885 114.6445  114.9885 114.6445  C 114.9885 114.6445  114.7601 115.8413  114.7601 115.8413  C 114.7601 115.8413  113.1262 117.6369  113.1262 117.6369  C 113.1262 117.6369  114.93 118.3541  114.93 118.3541  C 114.93 118.3541  114.6078 119.7994  114.6078 119.7994  C 114.6078 119.7994  113.7646 120.6946  113.7646 120.6946  C 113.7646 120.6946  112.4704 120.549  112.4704 120.549  C 112.4704 120.549  112.1541 122.2535  112.1541 122.2535  C 112.1541 122.2535  111.3928 122.2481  111.3928 122.2481  C 111.3928 122.2481  111.8262 121.0291  111.8262 121.0291  C 111.8262 121.0291  111.3108 119.4164  111.3108 119.4164  C 111.3108 119.4164  110.9654 119.6106  110.9654 119.6106  C 110.9654 119.6106  110.819 121.4552  110.819 121.4552  C 110.819 121.4552  110.2802 121.6871  110.2802 121.6871  C 110.2802 121.6871  109.9113 119.6591  109.9113 119.6591  C 109.9113 119.6591  108.986 119.9126  108.986 119.9126  C 108.986 119.9126  109.2495 120.6946  109.2495 120.6946  C 109.2495 120.6946  108.7518 120.9104  108.7518 120.9104  C 108.7518 120.9104  108.6054 121.9946  108.6054 121.9946  C 108.6054 121.9946  109.2554 122.3183  109.2554 122.3183  C 109.2554 122.3183  109.1792 123.1382  109.1792 123.1382  C 109.1792 123.1382  109.472 125.6792  109.472 125.6792  C 109.472 125.6792  110.8599 127.3789  110.8599 127.3789  C 110.8599 127.3789  111.2055 128.5446  111.2055 128.5446  C 111.2055 128.5446  111.2991 131.4645  111.2991 131.4645  C 111.2991 131.4645  111.7325 133.3539  111.7325 133.3539  C 111.7325 133.3539  112.7573 135.2705  112.7573 135.2705  C 112.7573 135.2705  112.7925 137.3656  112.7925 137.3656  C 112.7925 137.3656  113.9285 141.1625  113.9285 141.1625  C 113.9285 141.1625  112.8862 141.627  112.8862 141.627  C 112.8862 141.627  110.9302 143.6474  110.9302 143.6474  C 110.9302 143.6474  110.4208 143.4961  110.4208 143.4961  C 110.4208 143.4961  110.6023 142.4589  110.6023 142.4589  C 110.6023 142.4589  110.3973 142.5669  110.3973 142.5669  C 110.3973 142.5669  109.5716 143.0207  109.5716 143.0207  C 109.5716 143.0207  108.2422 144.7334  108.2422 144.7334  C 108.2422 144.7334  107.6215 143.5826  107.6215 143.5826  C 107.6215 143.5826  106.339 144.5821  106.339 144.5821  C 106.339 144.5821  106.4503 146.349  106.4503 146.349  C 106.4503 146.349  106.8485 146.4463  106.8485 146.4463  C 106.8485 146.4463  106.2863 148.7052  106.2863 148.7052  C 106.2863 148.7052  104.3597 150.0294  104.3597 150.0294  C 104.3597 150.0294  103.6628 147.927  103.6628 147.927  C 103.6628 147.927  102.679 147.9216  102.679 147.9216  C 102.679 147.9216  101.5956 148.7322  101.5956 148.7322  C 101.5956 148.7322  102.9249 150.078  102.9249 150.078  C 102.9249 150.078  103.4285 151.1051  103.4285 151.1051  C 103.4285 151.1051  102.6497 152.0835  102.6497 152.0835  C 102.6497 152.0835  103.1065 152.6565  103.1065 152.6565  C 103.1065 152.6565  102.5677 153.0242  102.5677 153.0242  C 102.5677 153.0242  101.9645 152.5755  101.9645 152.5755  C 101.9645 152.5755  101.8767 153.3215  101.8767 153.3215  C 101.8767 153.3215  100.5708 154.165  100.5708 154.165  C 100.5708 154.165  98.7554 154.5164  98.7554 154.5164  C 98.7554 154.5164  98.5153 155.1328  98.5153 155.1328  C 98.5153 155.1328  96.3661 155.8574  96.3661 155.8574  C 96.3661 155.8574  95.3998 155.9331  95.3998 155.9331  C 95.3998 155.9331  95.0602 156.6307  95.0602 156.6307  C 95.0602 156.6307  93.1101 155.5762  93.1101 155.5762  C 93.1101 155.5762  92.8173 156.5874  92.8173 156.5874  C 92.8173 156.5874  93.2214 157.5284  93.2214 157.5284  C 93.2214 157.5284  94.0647 158.2152  94.0647 158.2152  C 94.0647 158.2152  93.889 159.6755  93.889 159.6755  C 93.889 159.6755  92.788 160.3841  92.788 160.3841  C 92.788 160.3841  90.8789 160.7141  90.8789 160.7141  C 90.8789 160.7141  90.5041 161.5039  90.5041 161.5039  C 90.5041 161.5039  89.9537 160.2651  89.9537 160.2651  C 89.9537 160.2651  89.2041 160.6979  89.2041 160.6979  C 89.2041 160.6979  88.3257 160.303  88.3257 160.303  C 88.3257 160.303  88.4311 161.7744  88.4311 161.7744  C 88.4311 161.7744  87.6347 162.1152  87.6347 162.1152  C 87.6347 162.1152  87.0842 163.5543  87.0842 163.5543  C 87.0842 163.5543  85.6026 164.1386  85.6026 164.1386  C 85.6026 164.1386  84.1034 163.8951  84.1034 163.8951  C 84.1034 163.8951  83.9219 164.2955  83.9219 164.2955  C 83.9219 164.2955  81.7902 165.6482  81.7902 165.6482  C 81.7902 165.6482  80.1857 166.1244  80.1857 166.1244  C 80.1857 166.1244  79.4302 164.6201  79.4302 164.6201  C 79.4302 164.6201  79.5533 163.8356  79.5533 163.8356  C 79.5533 163.8356  78.7803 163.6192  78.7803 163.6192  C 78.7803 163.6192  77.4216 164.2684  77.4216 164.2684  C 77.4216 164.2684  75.29 164.3983  75.29 164.3983  C 75.29 164.3983  74.3003 164.0628  74.3003 164.0628  C 74.3003 164.0628  74.9386 162.7698  74.9386 162.7698  C 74.9386 162.7698  75.8874 162.3857  75.8874 162.3857  C 75.8874 162.3857  74.6224 160.4599  74.6224 160.4599  C 74.6224 160.4599  73.908 160.5139  73.908 160.5139  C 73.908 160.5139  74.0544 157.9015  74.0544 157.9015  C 74.0544 157.9015  73.0178 156.409  73.0178 156.409  C 73.0178 156.409  72.8129 155.5762  72.8129 155.5762  C 72.8129 155.5762  73.1115 153.6946  73.1115 153.6946  C 73.1115 153.6946  73.5449 153.2512  73.5449 153.2512  C 73.5449 153.2512  73.6796 151.7105  73.6796 151.7105  C 73.6796 151.7105  72.7602 151.2672  72.7602 151.2672  C 72.7602 151.2672  71.9989 151.7105  71.9989 151.7105  C 71.9989 151.7105  71.4601 151.3645  71.4601 151.3645  C 71.4601 151.3645  70.5173 152.1808  70.5173 152.1808  C 70.5173 152.1808  69.8848 151.7808  69.8848 151.7808  C 69.8848 151.7808  70.1425 150.9483  70.1425 150.9483  C 70.1425 150.9483  70.283 148.8025  70.283 148.8025  C 70.283 148.8025  69.8439 147.5974  69.8439 147.5974  C 69.8439 147.5974  70.8921 148.3971  70.8921 148.3971  C 70.8921 148.3971  71.6007 147.8622  71.6007 147.8622  C 71.6007 147.8622  71.87 148.3214  71.87 148.3214  C 71.87 148.3214  72.3678 147.4947  72.3678 147.4947  C 72.3678 147.4947  71.384 145.6628  71.384 145.6628  C 71.384 145.6628  71.9989 145.09  71.9989 145.09  C 71.9989 145.09  72.0925 144.1985  72.0925 144.1985  C 72.0925 144.1985  73.0471 141.6162  73.0471 141.6162  C 73.0471 141.6162  72.1101 140.6277  72.1101 140.6277  C 72.1101 140.6277  72.3385 140.1956  72.3385 140.1956  C 72.3385 140.1956  72.0047 138.3323  72.0047 138.3323  C 72.0047 138.3323  72.8012 136.4692  72.8012 136.4692  C 72.8012 136.4692  73.2111 134.5632  73.2111 134.5632  C 73.2111 134.5632  74.4643 134.4877  74.4643 134.4877  C 74.4643 134.4877  75.1319 133.1325  75.1319 133.1325  C 75.1319 133.1325  75.1905 132.0528  75.1905 132.0528  C 75.1905 132.0528  74.0895 130.9355  74.0895 130.9355  C 74.0895 130.9355  74.0251 130.3148  74.0251 130.3148  C 74.0251 130.3148  73.2111 130.2068  73.2111 130.2068  C 73.2111 130.2068  72.0223 129.4512  72.0223 129.4512  C 72.0223 129.4512  70.4529 130.4929  70.4529 130.4929  C 70.4529 130.4929  68.128 130.9625  68.128 130.9625  C 68.128 130.9625  64.8018 135.0761  64.8018 135.0761  C 64.8018 135.0761  62.834 135.0221  62.834 135.0221  C 62.834 135.0221  60.392 133.9261  60.392 133.9261  C 60.392 133.9261  58.2326 134.2123  58.2326 134.2123  C 58.2326 134.2123  56.7919 133.505  56.7919 133.505  C 56.7919 133.505  55.5915 134.547  55.5915 134.547  C 55.5915 134.547  52.8274 135.2975  52.8274 135.2975  C 52.8274 135.2975  51.9256 135.2597  51.9256 135.2597  C 51.9256 135.2597  51.176 134.3959  51.176 134.3959  C 51.176 134.3959  48.5407 133.802  48.5407 133.802  C 48.5407 133.802  47.8731 132.7546  47.8731 132.7546  C 47.8731 132.7546  47.5921 130.4713  47.5921 130.4713  C 47.5921 130.4713  46.7136 129.4566  46.7136 129.4566  C 46.7136 129.4566  46.087 129.3379  46.087 129.3379  C 46.087 129.3379  43.2175 129.9478  43.2175 129.9478  C 43.2175 129.9478  41.49 129.8722  41.49 129.8722  C 41.49 129.8722  40.3832 129.2947  40.3832 129.2947  C 40.3832 129.2947  39.7741 128.5716  39.7741 128.5716  C 39.7741 128.5716  38.5268 128.2802  38.5268 128.2802  C 38.5268 128.2802  36.7349 129.2623  36.7349 129.2623  C 36.7349 129.2623  34.9839 129.4296  34.9839 129.4296  C 34.9839 129.4296  31.6517 129.0897  31.6517 129.0897  C 31.6517 129.0897  30.3693 128.6094  30.3693 128.6094  C 30.3693 128.6094  28.3314 127.298  28.3314 127.298  C 28.3314 127.298  26.8439 127.2872  26.8439 127.2872  C 26.8439 127.2872  25.6668 126.5804  25.6668 126.5804  C 25.6668 126.5804  24.6713 126.904  24.6713 126.904  C 24.6713 126.904  22.9145 126.521  22.9145 126.521  C 22.9145 126.521  22.4108 125.8843  22.4108 125.8843  C 22.4108 125.8843  21.5148 123.7748  21.5148 123.7748  C 21.5148 123.7748  20.4958 123.3216  20.4958 123.3216  C 20.4958 123.3216  18.1885 123.4618  18.1885 123.4618  C 18.1885 123.4618  16.7421 122.8954  16.7421 122.8954  C 16.7421 122.8954  14.0308 120.9697  14.0308 120.9697  C 14.0308 120.9697  13.5681 120.1392  13.5681 120.1392  C 13.5681 120.1392  14.2416 118.7477  14.2416 118.7477  C 14.2416 118.7477  16.2736 117.9011  16.2736 117.9011  C 16.2736 117.9011  16.8182 116.8226  16.8182 116.8226  C 16.8182 116.8226  16.6309 115.0703  16.6309 115.0703  C 16.6309 115.0703  14.8213 112.2887  14.8213 112.2887  C 14.8213 112.2887  13.4451 109.5938  13.4451 109.5938  C 13.4451 109.5938  12.8127 109.7986  12.8127 109.7986  C 12.8127 109.7986  13.1231 111.049  13.1231 111.049  C 13.1231 111.049  12.514 111.5449  12.514 111.5449  C 12.514 111.5449  12.1919 113.2805  12.1919 113.2805  C 12.1919 113.2805  11.4716 113.9058  11.4716 113.9058  C 11.4716 113.9058  10.441 113.674  10.441 113.674  C 10.441 113.674  8.88909999999998 114.6445  8.88909999999998 114.6445  C 8.88909999999998 114.6445  7.69450000000001 113.9651  7.69450000000001 113.9651  C 7.69450000000001 113.9651  7.42500000000001 113.1674  7.42500000000001 113.1674  C 7.42500000000001 113.1674  6.23630000000003 112.6013  6.23630000000003 112.6013  C 6.23630000000003 112.6013  6.57010000000002 111.9598  6.57010000000002 111.9598  C 6.57010000000002 111.9598  4.95960000000002 110.4453  4.95960000000002 110.4453  C 4.95960000000002 110.4453  4.01100000000002 110.4777  4.01100000000002 110.4777  C 4.01100000000002 110.4777  2.78120000000001 109.4968  2.78120000000001 109.4968  C 2.78120000000001 109.4968  1.49279999999999 110.0734  1.49279999999999 110.0734  C 1.49279999999999 110.0734  1.44009999999997 110.5477  1.44009999999997 110.5477  C 1.44009999999997 110.5477  0.713999999999999 110.0842  0.713999999999999 110.0842  C 0.713999999999999 110.0842  0.438800000000015 109.0172  0.438800000000015 109.0172  C 0.438800000000015 109.0172  0.649600000000021 107.6323  0.649600000000021 107.6323  C 0.649600000000021 107.6323  1.31130000000002 106.4793  1.31130000000002 106.4793  C 1.31130000000002 106.4793  1.66269999999997 105.0138  1.66269999999997 105.0138  C 1.66269999999997 105.0138  2.51760000000002 104.3619  2.51760000000002 104.3619  C 2.51760000000002 104.3619  2.74020000000002 102.8214  2.74020000000002 102.8214  C 2.74020000000002 102.8214  2.07839999999999 101.9487  2.07839999999999 101.9487  C 2.07839999999999 101.9487  3.00959999999998 98.012  3.00959999999998 98.012  C 3.00959999999998 98.012  2.79880000000003 97.156  2.79880000000003 97.156  C 2.79880000000003 97.156  3.34339999999997 96.1222  3.34339999999997 96.1222  C 3.34339999999997 96.1222  3.32580000000002 94.8463  3.32580000000002 94.8463  C 3.32580000000002 94.8463  5.55110000000002 95.1317  5.55110000000002 95.1317  C 5.55110000000002 95.1317  5.93180000000001 93.7374  5.93180000000001 93.7374  C 5.93180000000001 93.7374  6.3066 93.6621  6.3066 93.6621  C 6.3066 93.6621  7.31970000000001 91.6275  7.31970000000001 91.6275  C 7.31970000000001 91.6275  7.89940000000001 91.7513  7.89940000000001 91.7513  C 7.89940000000001 91.7513  8.25659999999999 90.5566  8.25659999999999 90.5566  C 8.25659999999999 90.5566  9.47469999999998 88.4041  9.47469999999998 88.4041  C 9.47469999999998 88.4041  9.33999999999998 87.2527  9.33999999999998 87.2527  C 9.33999999999998 87.2527  9.60359999999997 85.7301  9.60359999999997 85.7301  C 9.60359999999997 85.7301  10.1482 85.4774  10.1482 85.4774  C 10.1482 85.4774  10.1423 81.3253  10.1423 81.3253  C 10.1423 81.3253  9.66800000000001 79.9593  9.66800000000001 79.9593  C 9.66800000000001 79.9593  9.99590000000001 77.8245  9.99590000000001 77.8245  C 9.99590000000001 77.8245  11.618 77.916  11.618 77.916  C 11.618 77.916  13.9194 77.3944  13.9194 77.3944  C 13.9194 77.3944  14.8916 76.4158  14.8916 76.4158  C 14.8916 76.4158  15.8988 77.1578  15.8988 77.1578  C 15.8988 77.1578  17.4272 75.9858  17.4272 75.9858  C 17.4272 75.9858  17.7552 76.6524  17.7552 76.6524  C 17.7552 76.6524  18.2003 76.1094  18.2003 76.1094  C 18.2003 76.1094  19.1958 76.7277  19.1958 76.7277  C 19.1958 76.7277  19.8224 76.5664  19.8224 76.5664  C 19.8224 76.5664  19.758 74.5504  19.758 74.5504  C 19.758 74.5504  20.5837 72.7443  20.5837 72.7443  C 20.5837 72.7443  21.4622 72.5617  21.4622 72.5617  C 21.4622 72.5617  21.345 71.9274  21.345 71.9274  C 21.345 71.9274  21.9306 70.7451  21.9306 70.7451  C 21.9306 70.7451  23.6171 70.3528  23.6171 70.3528  C 23.6171 70.3528  23.4181 69.6972  23.4181 69.6972  C 23.4181 69.6972  23.7284 68.4237  23.7284 68.4237  C 23.7284 68.4237  20.2792 67.7037  20.2792 67.7037  C 20.2792 67.7037  20.0273 66.8065  20.0273 66.8065  C 20.0273 66.8065  20.8706 66.6454  20.8706 66.6454  C 20.8706 66.6454  20.7711 61.3224  20.7711 61.3224  C 20.7711 61.3224  21.6203 61.5319  21.6203 61.5319  C 21.6203 61.5319  21.7725 60.4633  21.7725 60.4633  C 21.7725 60.4633  22.3991 59.0349  22.3991 59.0349  C 22.3991 59.0349  22.1297 58.6001  22.1297 58.6001  C 22.1297 58.6001  22.7329 57.9236  22.7329 57.9236  C 22.7329 57.9236  22.8208 56.7694  22.8208 56.7694  C 22.8208 56.7694  23.5527 56.6083  23.5527 56.6083  C 23.5527 56.6083  25.7722 58.4014  25.7722 58.4014  C 25.7722 58.4014  26.0358 56.5009  26.0358 56.5009  C 26.0358 56.5009  27.3826 56.3721  27.3826 56.3721  C 27.3826 56.3721  27.775 57.5316  27.775 57.5316  C 27.775 57.5316  29.1571 58.2028  29.1571 58.2028  C 29.1571 58.2028  29.7837 58.0471  29.7837 58.0471  C 29.7837 58.0471  30.2697 58.8632  30.2697 58.8632  C 30.2697 58.8632  31.3004 58.6323  31.3004 58.6323  C 31.3004 58.6323  31.9973 59.3303  31.9973 59.3303  C 31.9973 59.3303  33.268 59.2282  33.268 59.2282  C 33.268 59.2282  33.6194 58.5625  33.6194 58.5625  C 33.6194 58.5625  34.7203 59.4484  34.7203 59.4484  C 34.7203 59.4484  35.0776 57.1988  35.0776 57.1988  C 35.0776 57.1988  35.8037 56.8659  35.8037 56.8659  C 35.8037 56.8659  35.4465 54.5202  35.4465 54.5202  C 35.4465 54.5202  35.7276 52.851  35.7276 52.851  C 35.7276 52.851  35.2006 52.513  35.2006 52.513  C 35.2006 52.513  34.8784 51.2464  34.8784 51.2464  C 34.8784 51.2464  35.6397 49.6099  35.6397 49.6099  C 35.6397 49.6099  35.6573 48.832  35.6573 48.832  C 35.6573 48.832  36.8813 48.8159  36.8813 48.8159  C 36.8813 48.8159  37.42 49.5241  37.42 49.5241  C 37.42 49.5241  38.316 48.1077  38.316 48.1077  C 38.316 48.1077  37.8299 46.4929  37.8299 46.4929  C 37.8299 46.4929  38.07 45.1413  38.07 45.1413  C 38.07 45.1413  38.9602 45.2539  38.9602 45.2539  C 38.9602 45.2539  39.944 46.2838  39.944 46.2838  C 39.944 46.2838  40.5354 45.4577  40.5354 45.4577  C 40.5354 45.4577  41.3611 45.2217  41.3611 45.2217  C 41.3611 45.2217  42.468 45.4953  42.468 45.4953  C 42.468 45.4953  42.3274 44.6586  42.3274 44.6586  C 42.3274 44.6586  42.8954 44.6478  42.8954 44.6478  C 42.8954 44.6478  44.6347 41.0334  44.6347 41.0334  C 44.6347 41.0334  43.1941 38.5618  43.1941 38.5618  C 43.1941 38.5618  43.159 35.9781  43.159 35.9781  C 43.159 35.9781  41.9936 35.0134  41.9936 35.0134  C 41.9936 35.0134  41.3202 32.693  41.3202 32.693  C 41.3202 32.693  40.6292 31.7178  40.6292 31.7178  C 40.6292 31.7178  40.6936 30.4051  40.6936 30.4051  C 40.6936 30.4051  40.2895 30.0461  40.2895 30.0461  C 40.2895 30.0461  39.9205 28.5675  39.9205 28.5675  C 39.9205 28.5675  39.9323 26.8642  39.9323 26.8642  C 39.9323 26.8642  40.6233 24.0204  40.6233 24.0204  C 40.6233 24.0204  40.5413 23.0887  40.5413 23.0887  C 40.5413 23.0887  39.3525 21.7929  39.3525 21.7929  C 39.3525 21.7929  39.862 16.4615  39.862 16.4615  C 39.862 16.4615  42.5324 17.1946  42.5324 17.1946  C 42.5324 17.1946  43.1414 15.9959  43.1414 15.9959  C 43.1414 15.9959  44.8104 15.8567  44.8104 15.8567  C 44.8104 15.8567  46.2568 15.8674  46.2568 15.8674  C 46.2568 15.8674  47.5159 17.0983  47.5159 17.0983  C 47.5159 17.0983  48.1894 18.8861  48.1894 18.8861  C 48.1894 18.8861  48.7516 19.5498  48.7516 19.5498  C 48.7516 19.5498  49.0151 20.7382  49.0151 20.7382  C 49.0151 20.7382  49.7178 20.4117  49.7178 20.4117  C 49.7178 20.4117  51.0999 20.5937  51.0999 20.5937  C 51.0999 20.5937  52.3882 20.2725  52.3882 20.2725  C 52.3882 20.2725  52.7103 19.6515  52.7103 19.6515  C 52.7103 19.6515  52.353 17.7085  52.353 17.7085  C 52.353 17.7085  53.044 16.9378  53.044 16.9378  C 53.044 16.9378  53.2549 14.7276  53.2549 14.7276  C 53.2549 14.7276  53.6531 14.6152  53.6531 14.6152  C 53.6531 14.6152  54.3793 13.224  54.3793 13.224  C 54.3793 13.224  55.8316 13.6092  55.8316 13.6092  C 55.8316 13.6092  57.3015 16.4989  57.3015 16.4989  C 57.3015 16.4989  57.9866 16.4508  57.9866 16.4508  C 57.9866 16.4508  58.5605 17.0662  58.5605 17.0662  C 58.5605 17.0662  60.07 18.6451  60.07 18.6451  C 60.07 18.6451  61.2295 19.2661  61.2295 19.2661  C 61.2295 19.2661  61.5282 20.417  61.5282 20.417  C 61.5282 20.417  62.2309 20.8507  62.2309 20.8507  C 62.2309 20.8507  62.9278 20.6366  62.9278 20.6366  C 62.9278 20.6366  63.1737 19.6675  63.1737 19.6675  C 63.1737 19.6675  65.2409 18.9931  65.2409 18.9931  C 65.2409 18.9931  66.6289 17.0181  66.6289 17.0181  C 66.6289 17.0181  66.8748 14.8881  66.8748 14.8881  C 66.8748 14.8881  68.2041 14.7008  68.2041 14.7008  C 68.2041 14.7008  69.2582 14.9898  69.2582 14.9898  C 69.2582 14.9898  69.7794 13.3257  69.7794 13.3257  C 69.7794 13.3257  69.7208 11.3408  69.7208 11.3408  C 69.7208 11.3408  70.2128 10.1799  70.2128 10.1799  C 70.2128 10.1799  69.8263 7.1045  69.8263 7.1045  C 69.8263 7.1045  69.9317 6.74610000000001  69.9317 6.74610000000001  C 69.9317 6.74610000000001  71.1614 7.1206  71.1614 7.1206  C 71.1614 7.1206  72.6372 6.4093  72.6372 6.4093  C 72.6372 6.4093  72.6313 4.68209999999999  72.6313 4.68209999999999  C 72.6313 4.68209999999999  71.9461 1.3407  71.9461 1.3407  C 71.9461 1.3407  72.2741 0.18610000000001  72.2741 0.18610000000001  C 72.2741 0.18610000000001  73.6679 1.2124  73.6679 1.2124  C 73.6679 1.2124  74.6224 1.05199999999999  74.6224 1.05199999999999  C 74.6224 1.05199999999999  76.3265 3.76779999999999  76.3265 3.76779999999999  C 76.3265 3.76779999999999  78.7509 4.33449999999999  78.7509 4.33449999999999  C 78.7509 4.33449999999999  79.6001 6.32900000000001  79.6001 6.32900000000001  C 79.6001 6.32900000000001  80.2911 6.50550000000001  80.2911 6.50550000000001  C 80.2911 6.50550000000001  80.9001 8.17939999999999  80.9001 8.17939999999999  C 80.9001 8.17939999999999  81.6205 8.50040000000001  81.6205 8.50040000000001  C 81.6205 8.50040000000001  82.575 10.7523  82.575 10.7523  C 82.575 10.7523  84.1386 10.4688  84.1386 10.4688  C 84.1386 10.4688  84.5778 11.1535  84.5778 11.1535  C 84.5778 11.1535  85.2453 15.4982  85.2453 15.4982  C 85.2453 15.4982  84.812 18.4525  84.812 18.4525  C 84.812 18.4525  83.7813 20.3689  83.7813 20.3689  C 83.7813 20.3689  83.7404 21.4128  83.7404 21.4128  C 83.7404 21.4128  83.1606 22.1196  83.1606 22.1196  C 83.1606 22.1196  83.4183 23.0298  83.4183 23.0298  C 83.4183 23.0298  83.0142 23.426  83.0142 23.426  C 83.0142 23.426  83.4065 24.7541  83.4065 24.7541  C 83.4065 24.7541  82.9322 25.5414  82.9322 25.5414  C 82.9322 25.5414  83.0376 26.8374  83.0376 26.8374  C 83.0376 26.8374  84.3435 27.3623  84.3435 27.3623  C 84.3435 27.3623  84.9877 27.0678  84.9877 27.0678  C 84.9877 27.0678  84.771 27.9944  84.771 27.9944  C 84.771 27.9944  85.6319 27.4802  85.6319 27.4802  C 85.6319 27.4802  87.3828 28.1551  87.3828 28.1551  C 87.3828 28.1551  87.9157 30.0675  87.9157 30.0675  C 87.9157 30.0675  87.5995 31.0105  87.5995 31.0105  C 87.5995 31.0105  88.4604 31.5517  88.4604 31.5517  C 88.4604 31.5517  88.2378 33.2235  88.2378 33.2235  C 88.2378 33.2235  88.9757 34.5096  88.9757 34.5096  C 88.9757 34.5096  88.9815 35.3724  88.9815 35.3724  C 88.9815 35.3724  89.8131 38.0901  89.8131 38.0901  C 89.8131 38.0901  88.8937 39.0443  88.8937 39.0443  C 88.8937 39.0443  89.2627 39.6447  89.2627 39.6447  C 89.2627 39.6447  89.6316 42.1273  89.6316 42.1273  C 89.6316 42.1273  91.1249 42.7654  91.1249 42.7654  C 91.1249 42.7654  93.3092 42.0951  93.3092 42.0951  C 93.3092 42.0951  93.52 43.3607  93.52 43.3607  C 93.52 43.3607  94.1408 43.114  94.1408 43.114  C 94.1408 43.114  95.1481 44.1973  95.1481 44.1973  C 95.1481 44.1973  96.6648 44.6156  96.6648 44.6156  C 96.6648 44.6156  97.7715 45.5275  97.7715 45.5275  C 97.7715 45.5275  99.4874 45.7956  99.4874 45.7956  C 99.4874 45.7956  100.846 44.9214  100.846 44.9214  C 100.846 44.9214  101.8357 45.9136  101.8357 45.9136  C 101.8357 45.9136  102.351 45.9941  102.351 45.9941  C 102.351 45.9941  102.4038 47.523  102.4038 47.523  C 102.4038 47.523  103.1826 48.6764  103.1826 48.6764  C 103.1826 48.6764  103.1651 49.5402  103.1651 49.5402  C 103.1651 49.5402  102.5736 50.447  102.5736 50.447  C 102.5736 50.447  103.0831 51.0319  103.0831 51.0319  C 103.0831 51.0319  101.5546 53.5595  101.5546 53.5595  C 101.5546 53.5595  102.1168 54.3323  102.1168 54.3323  C 102.1168 54.3323  101.5546 54.9174  101.5546 54.9174  C 101.5546 54.9174  101.7889 56.9787  101.7889 56.9787  C 101.7889 56.9787  100.7289 57.9558  100.7289 57.9558  C 100.7289 57.9558  100.2722 58.8793  100.2722 58.8793  C 100.2722 58.8793  101.8064 58.6162  101.8064 58.6162  C 101.8064 58.6162  102.8781 59.5128  102.8781 59.5128  C 102.8781 59.5128  104.1313 59.5128  104.1313 59.5128  C 104.1313 59.5128  103.733 60.8553  103.733 60.8553  C 103.733 60.8553  104.0025 61.1238  104.0025 61.1238  C 104.0025 61.1238  103.5047 63.6586  103.5047 63.6586  C 103.5047 63.6586  104.143 64.9693  104.143 64.9693  C 104.143 64.9693  105.976 64.3891  105.976 64.3891  C 105.976 64.3891  106.9774 65.0069  106.9774 65.0069  C 106.9774 65.0069  105.6597 67.7198  105.6597 67.7198  C 105.6597 67.7198  104.5471 69.1169  104.5471 69.1169  C 104.5471 69.1169  104.7111 69.6488  104.7111 69.6488  C 104.7111 69.6488  105.5602 69.3049  105.5602 69.3049  C 105.5602 69.3049  105.3318 70.4979  105.3318 70.4979  C 105.3318 70.4979  104.834 71.2019  104.834 71.2019  C 104.834 71.2019  105.8764 72.5402  105.8764 72.5402  C 105.8764 72.5402  107.1179 71.7231  107.1179 71.7231  C 107.1179 71.7231  106.7314 73.1421  106.7314 73.1421  C 106.7314 73.1421  107.1179 73.5613  107.1179 73.5613  C 107.1179 73.5613  107.5981 72.868  107.5981 72.868  C 107.5981 72.868  108.2072 73.169  108.2072 73.169  C 108.2072 73.169  108.9274 72.6529  108.9274 72.6529  C 108.9274 72.6529  109.8644 73.2819  109.8644 73.2819  C 109.8644 73.2819  110.1513 74.9052  110.1513 74.9052  C 110.1513 74.9052  109.6653 76.3352  109.6653 76.3352  C 109.6653 76.3352  107.6625 77.6202  107.6625 77.6202  C 107.6625 77.6202  107.5395 79.513  107.5395 79.513  C 107.5395 79.513  108.0256 80.2013  108.0256 80.2013  C 108.0256 80.2013  109.1968 80.2013  109.1968 80.2013  C 109.1968 80.2013  109.9347 81.7071  109.9347 81.7071  C 109.9347 81.7071  111.305 81.6642  111.305 81.6642  C 111.305 81.6642  111.3343 84.4069  111.3343 84.4069  C 111.3343 84.4069  110.819 84.423  110.819 84.423  C 110.819 84.423  111.0766 86.4457  111.0766 86.4457  C 111.0766 86.4457  111.4866 87.0859  111.4866 87.0859  Z " fill-rule="evenodd" />
    </mask>
  </defs>
  <g transform="matrix(1 0 0 1 -306 -215 )">
    <path d="M 111.4866 87.0859  C 111.4866 87.0859  113.6533 87.0644  113.6533 87.0644  C 113.6533 87.0644  113.7411 87.8983  113.7411 87.8983  C 113.7411 87.8983  114.438 88.0543  114.438 88.0543  C 114.438 88.0543  115.1759 88.9152  115.1759 88.9152  C 115.1759 88.9152  114.7836 91.4284  114.7836 91.4284  C 114.7836 91.4284  114.8186 93.0377  114.8186 93.0377  C 114.8186 93.0377  114.2389 93.2852  114.2389 93.2852  C 114.2389 93.2852  113.6943 94.9755  113.6943 94.9755  C 113.6943 94.9755  112.2244 95.5461  112.2244 95.5461  C 112.2244 95.5461  111.5275 97.409  111.5275 97.409  C 111.5275 97.409  111.6036 98.2705  111.6036 98.2705  C 111.6036 98.2705  111.0474 98.9491  111.0474 98.9491  C 111.0474 98.9491  110.8775 101.1463  110.8775 101.1463  C 110.8775 101.1463  110.2333 102.5089  110.2333 102.5089  C 110.2333 102.5089  110.3505 104.8522  110.3505 104.8522  C 110.3505 104.8522  111.8262 105.2347  111.8262 105.2347  C 111.8262 105.2347  112.0956 104.836  112.0956 104.836  C 112.0956 104.836  111.7735 103.1876  111.7735 103.1876  C 111.7735 103.1876  112.4001 102.7514  112.4001 102.7514  C 112.4001 102.7514  114.2565 103.2038  114.2565 103.2038  C 114.2565 103.2038  115.8844 105.5257  115.8844 105.5257  C 115.8844 105.5257  116.2066 107.0988  116.2066 107.0988  C 116.2066 107.0988  117.6882 107.282  117.6882 107.282  C 117.6882 107.282  116.7746 110.5154  116.7746 110.5154  C 116.7746 110.5154  116.4349 112.79  116.4349 112.79  C 116.4349 112.79  115.7205 113.4045  115.7205 113.4045  C 115.7205 113.4045  114.9885 114.6445  114.9885 114.6445  C 114.9885 114.6445  114.7601 115.8413  114.7601 115.8413  C 114.7601 115.8413  113.1262 117.6369  113.1262 117.6369  C 113.1262 117.6369  114.93 118.3541  114.93 118.3541  C 114.93 118.3541  114.6078 119.7994  114.6078 119.7994  C 114.6078 119.7994  113.7646 120.6946  113.7646 120.6946  C 113.7646 120.6946  112.4704 120.549  112.4704 120.549  C 112.4704 120.549  112.1541 122.2535  112.1541 122.2535  C 112.1541 122.2535  111.3928 122.2481  111.3928 122.2481  C 111.3928 122.2481  111.8262 121.0291  111.8262 121.0291  C 111.8262 121.0291  111.3108 119.4164  111.3108 119.4164  C 111.3108 119.4164  110.9654 119.6106  110.9654 119.6106  C 110.9654 119.6106  110.819 121.4552  110.819 121.4552  C 110.819 121.4552  110.2802 121.6871  110.2802 121.6871  C 110.2802 121.6871  109.9113 119.6591  109.9113 119.6591  C 109.9113 119.6591  108.986 119.9126  108.986 119.9126  C 108.986 119.9126  109.2495 120.6946  109.2495 120.6946  C 109.2495 120.6946  108.7518 120.9104  108.7518 120.9104  C 108.7518 120.9104  108.6054 121.9946  108.6054 121.9946  C 108.6054 121.9946  109.2554 122.3183  109.2554 122.3183  C 109.2554 122.3183  109.1792 123.1382  109.1792 123.1382  C 109.1792 123.1382  109.472 125.6792  109.472 125.6792  C 109.472 125.6792  110.8599 127.3789  110.8599 127.3789  C 110.8599 127.3789  111.2055 128.5446  111.2055 128.5446  C 111.2055 128.5446  111.2991 131.4645  111.2991 131.4645  C 111.2991 131.4645  111.7325 133.3539  111.7325 133.3539  C 111.7325 133.3539  112.7573 135.2705  112.7573 135.2705  C 112.7573 135.2705  112.7925 137.3656  112.7925 137.3656  C 112.7925 137.3656  113.9285 141.1625  113.9285 141.1625  C 113.9285 141.1625  112.8862 141.627  112.8862 141.627  C 112.8862 141.627  110.9302 143.6474  110.9302 143.6474  C 110.9302 143.6474  110.4208 143.4961  110.4208 143.4961  C 110.4208 143.4961  110.6023 142.4589  110.6023 142.4589  C 110.6023 142.4589  110.3973 142.5669  110.3973 142.5669  C 110.3973 142.5669  109.5716 143.0207  109.5716 143.0207  C 109.5716 143.0207  108.2422 144.7334  108.2422 144.7334  C 108.2422 144.7334  107.6215 143.5826  107.6215 143.5826  C 107.6215 143.5826  106.339 144.5821  106.339 144.5821  C 106.339 144.5821  106.4503 146.349  106.4503 146.349  C 106.4503 146.349  106.8485 146.4463  106.8485 146.4463  C 106.8485 146.4463  106.2863 148.7052  106.2863 148.7052  C 106.2863 148.7052  104.3597 150.0294  104.3597 150.0294  C 104.3597 150.0294  103.6628 147.927  103.6628 147.927  C 103.6628 147.927  102.679 147.9216  102.679 147.9216  C 102.679 147.9216  101.5956 148.7322  101.5956 148.7322  C 101.5956 148.7322  102.9249 150.078  102.9249 150.078  C 102.9249 150.078  103.4285 151.1051  103.4285 151.1051  C 103.4285 151.1051  102.6497 152.0835  102.6497 152.0835  C 102.6497 152.0835  103.1065 152.6565  103.1065 152.6565  C 103.1065 152.6565  102.5677 153.0242  102.5677 153.0242  C 102.5677 153.0242  101.9645 152.5755  101.9645 152.5755  C 101.9645 152.5755  101.8767 153.3215  101.8767 153.3215  C 101.8767 153.3215  100.5708 154.165  100.5708 154.165  C 100.5708 154.165  98.7554 154.5164  98.7554 154.5164  C 98.7554 154.5164  98.5153 155.1328  98.5153 155.1328  C 98.5153 155.1328  96.3661 155.8574  96.3661 155.8574  C 96.3661 155.8574  95.3998 155.9331  95.3998 155.9331  C 95.3998 155.9331  95.0602 156.6307  95.0602 156.6307  C 95.0602 156.6307  93.1101 155.5762  93.1101 155.5762  C 93.1101 155.5762  92.8173 156.5874  92.8173 156.5874  C 92.8173 156.5874  93.2214 157.5284  93.2214 157.5284  C 93.2214 157.5284  94.0647 158.2152  94.0647 158.2152  C 94.0647 158.2152  93.889 159.6755  93.889 159.6755  C 93.889 159.6755  92.788 160.3841  92.788 160.3841  C 92.788 160.3841  90.8789 160.7141  90.8789 160.7141  C 90.8789 160.7141  90.5041 161.5039  90.5041 161.5039  C 90.5041 161.5039  89.9537 160.2651  89.9537 160.2651  C 89.9537 160.2651  89.2041 160.6979  89.2041 160.6979  C 89.2041 160.6979  88.3257 160.303  88.3257 160.303  C 88.3257 160.303  88.4311 161.7744  88.4311 161.7744  C 88.4311 161.7744  87.6347 162.1152  87.6347 162.1152  C 87.6347 162.1152  87.0842 163.5543  87.0842 163.5543  C 87.0842 163.5543  85.6026 164.1386  85.6026 164.1386  C 85.6026 164.1386  84.1034 163.8951  84.1034 163.8951  C 84.1034 163.8951  83.9219 164.2955  83.9219 164.2955  C 83.9219 164.2955  81.7902 165.6482  81.7902 165.6482  C 81.7902 165.6482  80.1857 166.1244  80.1857 166.1244  C 80.1857 166.1244  79.4302 164.6201  79.4302 164.6201  C 79.4302 164.6201  79.5533 163.8356  79.5533 163.8356  C 79.5533 163.8356  78.7803 163.6192  78.7803 163.6192  C 78.7803 163.6192  77.4216 164.2684  77.4216 164.2684  C 77.4216 164.2684  75.29 164.3983  75.29 164.3983  C 75.29 164.3983  74.3003 164.0628  74.3003 164.0628  C 74.3003 164.0628  74.9386 162.7698  74.9386 162.7698  C 74.9386 162.7698  75.8874 162.3857  75.8874 162.3857  C 75.8874 162.3857  74.6224 160.4599  74.6224 160.4599  C 74.6224 160.4599  73.908 160.5139  73.908 160.5139  C 73.908 160.5139  74.0544 157.9015  74.0544 157.9015  C 74.0544 157.9015  73.0178 156.409  73.0178 156.409  C 73.0178 156.409  72.8129 155.5762  72.8129 155.5762  C 72.8129 155.5762  73.1115 153.6946  73.1115 153.6946  C 73.1115 153.6946  73.5449 153.2512  73.5449 153.2512  C 73.5449 153.2512  73.6796 151.7105  73.6796 151.7105  C 73.6796 151.7105  72.7602 151.2672  72.7602 151.2672  C 72.7602 151.2672  71.9989 151.7105  71.9989 151.7105  C 71.9989 151.7105  71.4601 151.3645  71.4601 151.3645  C 71.4601 151.3645  70.5173 152.1808  70.5173 152.1808  C 70.5173 152.1808  69.8848 151.7808  69.8848 151.7808  C 69.8848 151.7808  70.1425 150.9483  70.1425 150.9483  C 70.1425 150.9483  70.283 148.8025  70.283 148.8025  C 70.283 148.8025  69.8439 147.5974  69.8439 147.5974  C 69.8439 147.5974  70.8921 148.3971  70.8921 148.3971  C 70.8921 148.3971  71.6007 147.8622  71.6007 147.8622  C 71.6007 147.8622  71.87 148.3214  71.87 148.3214  C 71.87 148.3214  72.3678 147.4947  72.3678 147.4947  C 72.3678 147.4947  71.384 145.6628  71.384 145.6628  C 71.384 145.6628  71.9989 145.09  71.9989 145.09  C 71.9989 145.09  72.0925 144.1985  72.0925 144.1985  C 72.0925 144.1985  73.0471 141.6162  73.0471 141.6162  C 73.0471 141.6162  72.1101 140.6277  72.1101 140.6277  C 72.1101 140.6277  72.3385 140.1956  72.3385 140.1956  C 72.3385 140.1956  72.0047 138.3323  72.0047 138.3323  C 72.0047 138.3323  72.8012 136.4692  72.8012 136.4692  C 72.8012 136.4692  73.2111 134.5632  73.2111 134.5632  C 73.2111 134.5632  74.4643 134.4877  74.4643 134.4877  C 74.4643 134.4877  75.1319 133.1325  75.1319 133.1325  C 75.1319 133.1325  75.1905 132.0528  75.1905 132.0528  C 75.1905 132.0528  74.0895 130.9355  74.0895 130.9355  C 74.0895 130.9355  74.0251 130.3148  74.0251 130.3148  C 74.0251 130.3148  73.2111 130.2068  73.2111 130.2068  C 73.2111 130.2068  72.0223 129.4512  72.0223 129.4512  C 72.0223 129.4512  70.4529 130.4929  70.4529 130.4929  C 70.4529 130.4929  68.128 130.9625  68.128 130.9625  C 68.128 130.9625  64.8018 135.0761  64.8018 135.0761  C 64.8018 135.0761  62.834 135.0221  62.834 135.0221  C 62.834 135.0221  60.392 133.9261  60.392 133.9261  C 60.392 133.9261  58.2326 134.2123  58.2326 134.2123  C 58.2326 134.2123  56.7919 133.505  56.7919 133.505  C 56.7919 133.505  55.5915 134.547  55.5915 134.547  C 55.5915 134.547  52.8274 135.2975  52.8274 135.2975  C 52.8274 135.2975  51.9256 135.2597  51.9256 135.2597  C 51.9256 135.2597  51.176 134.3959  51.176 134.3959  C 51.176 134.3959  48.5407 133.802  48.5407 133.802  C 48.5407 133.802  47.8731 132.7546  47.8731 132.7546  C 47.8731 132.7546  47.5921 130.4713  47.5921 130.4713  C 47.5921 130.4713  46.7136 129.4566  46.7136 129.4566  C 46.7136 129.4566  46.087 129.3379  46.087 129.3379  C 46.087 129.3379  43.2175 129.9478  43.2175 129.9478  C 43.2175 129.9478  41.49 129.8722  41.49 129.8722  C 41.49 129.8722  40.3832 129.2947  40.3832 129.2947  C 40.3832 129.2947  39.7741 128.5716  39.7741 128.5716  C 39.7741 128.5716  38.5268 128.2802  38.5268 128.2802  C 38.5268 128.2802  36.7349 129.2623  36.7349 129.2623  C 36.7349 129.2623  34.9839 129.4296  34.9839 129.4296  C 34.9839 129.4296  31.6517 129.0897  31.6517 129.0897  C 31.6517 129.0897  30.3693 128.6094  30.3693 128.6094  C 30.3693 128.6094  28.3314 127.298  28.3314 127.298  C 28.3314 127.298  26.8439 127.2872  26.8439 127.2872  C 26.8439 127.2872  25.6668 126.5804  25.6668 126.5804  C 25.6668 126.5804  24.6713 126.904  24.6713 126.904  C 24.6713 126.904  22.9145 126.521  22.9145 126.521  C 22.9145 126.521  22.4108 125.8843  22.4108 125.8843  C 22.4108 125.8843  21.5148 123.7748  21.5148 123.7748  C 21.5148 123.7748  20.4958 123.3216  20.4958 123.3216  C 20.4958 123.3216  18.1885 123.4618  18.1885 123.4618  C 18.1885 123.4618  16.7421 122.8954  16.7421 122.8954  C 16.7421 122.8954  14.0308 120.9697  14.0308 120.9697  C 14.0308 120.9697  13.5681 120.1392  13.5681 120.1392  C 13.5681 120.1392  14.2416 118.7477  14.2416 118.7477  C 14.2416 118.7477  16.2736 117.9011  16.2736 117.9011  C 16.2736 117.9011  16.8182 116.8226  16.8182 116.8226  C 16.8182 116.8226  16.6309 115.0703  16.6309 115.0703  C 16.6309 115.0703  14.8213 112.2887  14.8213 112.2887  C 14.8213 112.2887  13.4451 109.5938  13.4451 109.5938  C 13.4451 109.5938  12.8127 109.7986  12.8127 109.7986  C 12.8127 109.7986  13.1231 111.049  13.1231 111.049  C 13.1231 111.049  12.514 111.5449  12.514 111.5449  C 12.514 111.5449  12.1919 113.2805  12.1919 113.2805  C 12.1919 113.2805  11.4716 113.9058  11.4716 113.9058  C 11.4716 113.9058  10.441 113.674  10.441 113.674  C 10.441 113.674  8.88909999999998 114.6445  8.88909999999998 114.6445  C 8.88909999999998 114.6445  7.69450000000001 113.9651  7.69450000000001 113.9651  C 7.69450000000001 113.9651  7.42500000000001 113.1674  7.42500000000001 113.1674  C 7.42500000000001 113.1674  6.23630000000003 112.6013  6.23630000000003 112.6013  C 6.23630000000003 112.6013  6.57010000000002 111.9598  6.57010000000002 111.9598  C 6.57010000000002 111.9598  4.95960000000002 110.4453  4.95960000000002 110.4453  C 4.95960000000002 110.4453  4.01100000000002 110.4777  4.01100000000002 110.4777  C 4.01100000000002 110.4777  2.78120000000001 109.4968  2.78120000000001 109.4968  C 2.78120000000001 109.4968  1.49279999999999 110.0734  1.49279999999999 110.0734  C 1.49279999999999 110.0734  1.44009999999997 110.5477  1.44009999999997 110.5477  C 1.44009999999997 110.5477  0.713999999999999 110.0842  0.713999999999999 110.0842  C 0.713999999999999 110.0842  0.438800000000015 109.0172  0.438800000000015 109.0172  C 0.438800000000015 109.0172  0.649600000000021 107.6323  0.649600000000021 107.6323  C 0.649600000000021 107.6323  1.31130000000002 106.4793  1.31130000000002 106.4793  C 1.31130000000002 106.4793  1.66269999999997 105.0138  1.66269999999997 105.0138  C 1.66269999999997 105.0138  2.51760000000002 104.3619  2.51760000000002 104.3619  C 2.51760000000002 104.3619  2.74020000000002 102.8214  2.74020000000002 102.8214  C 2.74020000000002 102.8214  2.07839999999999 101.9487  2.07839999999999 101.9487  C 2.07839999999999 101.9487  3.00959999999998 98.012  3.00959999999998 98.012  C 3.00959999999998 98.012  2.79880000000003 97.156  2.79880000000003 97.156  C 2.79880000000003 97.156  3.34339999999997 96.1222  3.34339999999997 96.1222  C 3.34339999999997 96.1222  3.32580000000002 94.8463  3.32580000000002 94.8463  C 3.32580000000002 94.8463  5.55110000000002 95.1317  5.55110000000002 95.1317  C 5.55110000000002 95.1317  5.93180000000001 93.7374  5.93180000000001 93.7374  C 5.93180000000001 93.7374  6.3066 93.6621  6.3066 93.6621  C 6.3066 93.6621  7.31970000000001 91.6275  7.31970000000001 91.6275  C 7.31970000000001 91.6275  7.89940000000001 91.7513  7.89940000000001 91.7513  C 7.89940000000001 91.7513  8.25659999999999 90.5566  8.25659999999999 90.5566  C 8.25659999999999 90.5566  9.47469999999998 88.4041  9.47469999999998 88.4041  C 9.47469999999998 88.4041  9.33999999999998 87.2527  9.33999999999998 87.2527  C 9.33999999999998 87.2527  9.60359999999997 85.7301  9.60359999999997 85.7301  C 9.60359999999997 85.7301  10.1482 85.4774  10.1482 85.4774  C 10.1482 85.4774  10.1423 81.3253  10.1423 81.3253  C 10.1423 81.3253  9.66800000000001 79.9593  9.66800000000001 79.9593  C 9.66800000000001 79.9593  9.99590000000001 77.8245  9.99590000000001 77.8245  C 9.99590000000001 77.8245  11.618 77.916  11.618 77.916  C 11.618 77.916  13.9194 77.3944  13.9194 77.3944  C 13.9194 77.3944  14.8916 76.4158  14.8916 76.4158  C 14.8916 76.4158  15.8988 77.1578  15.8988 77.1578  C 15.8988 77.1578  17.4272 75.9858  17.4272 75.9858  C 17.4272 75.9858  17.7552 76.6524  17.7552 76.6524  C 17.7552 76.6524  18.2003 76.1094  18.2003 76.1094  C 18.2003 76.1094  19.1958 76.7277  19.1958 76.7277  C 19.1958 76.7277  19.8224 76.5664  19.8224 76.5664  C 19.8224 76.5664  19.758 74.5504  19.758 74.5504  C 19.758 74.5504  20.5837 72.7443  20.5837 72.7443  C 20.5837 72.7443  21.4622 72.5617  21.4622 72.5617  C 21.4622 72.5617  21.345 71.9274  21.345 71.9274  C 21.345 71.9274  21.9306 70.7451  21.9306 70.7451  C 21.9306 70.7451  23.6171 70.3528  23.6171 70.3528  C 23.6171 70.3528  23.4181 69.6972  23.4181 69.6972  C 23.4181 69.6972  23.7284 68.4237  23.7284 68.4237  C 23.7284 68.4237  20.2792 67.7037  20.2792 67.7037  C 20.2792 67.7037  20.0273 66.8065  20.0273 66.8065  C 20.0273 66.8065  20.8706 66.6454  20.8706 66.6454  C 20.8706 66.6454  20.7711 61.3224  20.7711 61.3224  C 20.7711 61.3224  21.6203 61.5319  21.6203 61.5319  C 21.6203 61.5319  21.7725 60.4633  21.7725 60.4633  C 21.7725 60.4633  22.3991 59.0349  22.3991 59.0349  C 22.3991 59.0349  22.1297 58.6001  22.1297 58.6001  C 22.1297 58.6001  22.7329 57.9236  22.7329 57.9236  C 22.7329 57.9236  22.8208 56.7694  22.8208 56.7694  C 22.8208 56.7694  23.5527 56.6083  23.5527 56.6083  C 23.5527 56.6083  25.7722 58.4014  25.7722 58.4014  C 25.7722 58.4014  26.0358 56.5009  26.0358 56.5009  C 26.0358 56.5009  27.3826 56.3721  27.3826 56.3721  C 27.3826 56.3721  27.775 57.5316  27.775 57.5316  C 27.775 57.5316  29.1571 58.2028  29.1571 58.2028  C 29.1571 58.2028  29.7837 58.0471  29.7837 58.0471  C 29.7837 58.0471  30.2697 58.8632  30.2697 58.8632  C 30.2697 58.8632  31.3004 58.6323  31.3004 58.6323  C 31.3004 58.6323  31.9973 59.3303  31.9973 59.3303  C 31.9973 59.3303  33.268 59.2282  33.268 59.2282  C 33.268 59.2282  33.6194 58.5625  33.6194 58.5625  C 33.6194 58.5625  34.7203 59.4484  34.7203 59.4484  C 34.7203 59.4484  35.0776 57.1988  35.0776 57.1988  C 35.0776 57.1988  35.8037 56.8659  35.8037 56.8659  C 35.8037 56.8659  35.4465 54.5202  35.4465 54.5202  C 35.4465 54.5202  35.7276 52.851  35.7276 52.851  C 35.7276 52.851  35.2006 52.513  35.2006 52.513  C 35.2006 52.513  34.8784 51.2464  34.8784 51.2464  C 34.8784 51.2464  35.6397 49.6099  35.6397 49.6099  C 35.6397 49.6099  35.6573 48.832  35.6573 48.832  C 35.6573 48.832  36.8813 48.8159  36.8813 48.8159  C 36.8813 48.8159  37.42 49.5241  37.42 49.5241  C 37.42 49.5241  38.316 48.1077  38.316 48.1077  C 38.316 48.1077  37.8299 46.4929  37.8299 46.4929  C 37.8299 46.4929  38.07 45.1413  38.07 45.1413  C 38.07 45.1413  38.9602 45.2539  38.9602 45.2539  C 38.9602 45.2539  39.944 46.2838  39.944 46.2838  C 39.944 46.2838  40.5354 45.4577  40.5354 45.4577  C 40.5354 45.4577  41.3611 45.2217  41.3611 45.2217  C 41.3611 45.2217  42.468 45.4953  42.468 45.4953  C 42.468 45.4953  42.3274 44.6586  42.3274 44.6586  C 42.3274 44.6586  42.8954 44.6478  42.8954 44.6478  C 42.8954 44.6478  44.6347 41.0334  44.6347 41.0334  C 44.6347 41.0334  43.1941 38.5618  43.1941 38.5618  C 43.1941 38.5618  43.159 35.9781  43.159 35.9781  C 43.159 35.9781  41.9936 35.0134  41.9936 35.0134  C 41.9936 35.0134  41.3202 32.693  41.3202 32.693  C 41.3202 32.693  40.6292 31.7178  40.6292 31.7178  C 40.6292 31.7178  40.6936 30.4051  40.6936 30.4051  C 40.6936 30.4051  40.2895 30.0461  40.2895 30.0461  C 40.2895 30.0461  39.9205 28.5675  39.9205 28.5675  C 39.9205 28.5675  39.9323 26.8642  39.9323 26.8642  C 39.9323 26.8642  40.6233 24.0204  40.6233 24.0204  C 40.6233 24.0204  40.5413 23.0887  40.5413 23.0887  C 40.5413 23.0887  39.3525 21.7929  39.3525 21.7929  C 39.3525 21.7929  39.862 16.4615  39.862 16.4615  C 39.862 16.4615  42.5324 17.1946  42.5324 17.1946  C 42.5324 17.1946  43.1414 15.9959  43.1414 15.9959  C 43.1414 15.9959  44.8104 15.8567  44.8104 15.8567  C 44.8104 15.8567  46.2568 15.8674  46.2568 15.8674  C 46.2568 15.8674  47.5159 17.0983  47.5159 17.0983  C 47.5159 17.0983  48.1894 18.8861  48.1894 18.8861  C 48.1894 18.8861  48.7516 19.5498  48.7516 19.5498  C 48.7516 19.5498  49.0151 20.7382  49.0151 20.7382  C 49.0151 20.7382  49.7178 20.4117  49.7178 20.4117  C 49.7178 20.4117  51.0999 20.5937  51.0999 20.5937  C 51.0999 20.5937  52.3882 20.2725  52.3882 20.2725  C 52.3882 20.2725  52.7103 19.6515  52.7103 19.6515  C 52.7103 19.6515  52.353 17.7085  52.353 17.7085  C 52.353 17.7085  53.044 16.9378  53.044 16.9378  C 53.044 16.9378  53.2549 14.7276  53.2549 14.7276  C 53.2549 14.7276  53.6531 14.6152  53.6531 14.6152  C 53.6531 14.6152  54.3793 13.224  54.3793 13.224  C 54.3793 13.224  55.8316 13.6092  55.8316 13.6092  C 55.8316 13.6092  57.3015 16.4989  57.3015 16.4989  C 57.3015 16.4989  57.9866 16.4508  57.9866 16.4508  C 57.9866 16.4508  58.5605 17.0662  58.5605 17.0662  C 58.5605 17.0662  60.07 18.6451  60.07 18.6451  C 60.07 18.6451  61.2295 19.2661  61.2295 19.2661  C 61.2295 19.2661  61.5282 20.417  61.5282 20.417  C 61.5282 20.417  62.2309 20.8507  62.2309 20.8507  C 62.2309 20.8507  62.9278 20.6366  62.9278 20.6366  C 62.9278 20.6366  63.1737 19.6675  63.1737 19.6675  C 63.1737 19.6675  65.2409 18.9931  65.2409 18.9931  C 65.2409 18.9931  66.6289 17.0181  66.6289 17.0181  C 66.6289 17.0181  66.8748 14.8881  66.8748 14.8881  C 66.8748 14.8881  68.2041 14.7008  68.2041 14.7008  C 68.2041 14.7008  69.2582 14.9898  69.2582 14.9898  C 69.2582 14.9898  69.7794 13.3257  69.7794 13.3257  C 69.7794 13.3257  69.7208 11.3408  69.7208 11.3408  C 69.7208 11.3408  70.2128 10.1799  70.2128 10.1799  C 70.2128 10.1799  69.8263 7.1045  69.8263 7.1045  C 69.8263 7.1045  69.9317 6.74610000000001  69.9317 6.74610000000001  C 69.9317 6.74610000000001  71.1614 7.1206  71.1614 7.1206  C 71.1614 7.1206  72.6372 6.4093  72.6372 6.4093  C 72.6372 6.4093  72.6313 4.68209999999999  72.6313 4.68209999999999  C 72.6313 4.68209999999999  71.9461 1.3407  71.9461 1.3407  C 71.9461 1.3407  72.2741 0.18610000000001  72.2741 0.18610000000001  C 72.2741 0.18610000000001  73.6679 1.2124  73.6679 1.2124  C 73.6679 1.2124  74.6224 1.05199999999999  74.6224 1.05199999999999  C 74.6224 1.05199999999999  76.3265 3.76779999999999  76.3265 3.76779999999999  C 76.3265 3.76779999999999  78.7509 4.33449999999999  78.7509 4.33449999999999  C 78.7509 4.33449999999999  79.6001 6.32900000000001  79.6001 6.32900000000001  C 79.6001 6.32900000000001  80.2911 6.50550000000001  80.2911 6.50550000000001  C 80.2911 6.50550000000001  80.9001 8.17939999999999  80.9001 8.17939999999999  C 80.9001 8.17939999999999  81.6205 8.50040000000001  81.6205 8.50040000000001  C 81.6205 8.50040000000001  82.575 10.7523  82.575 10.7523  C 82.575 10.7523  84.1386 10.4688  84.1386 10.4688  C 84.1386 10.4688  84.5778 11.1535  84.5778 11.1535  C 84.5778 11.1535  85.2453 15.4982  85.2453 15.4982  C 85.2453 15.4982  84.812 18.4525  84.812 18.4525  C 84.812 18.4525  83.7813 20.3689  83.7813 20.3689  C 83.7813 20.3689  83.7404 21.4128  83.7404 21.4128  C 83.7404 21.4128  83.1606 22.1196  83.1606 22.1196  C 83.1606 22.1196  83.4183 23.0298  83.4183 23.0298  C 83.4183 23.0298  83.0142 23.426  83.0142 23.426  C 83.0142 23.426  83.4065 24.7541  83.4065 24.7541  C 83.4065 24.7541  82.9322 25.5414  82.9322 25.5414  C 82.9322 25.5414  83.0376 26.8374  83.0376 26.8374  C 83.0376 26.8374  84.3435 27.3623  84.3435 27.3623  C 84.3435 27.3623  84.9877 27.0678  84.9877 27.0678  C 84.9877 27.0678  84.771 27.9944  84.771 27.9944  C 84.771 27.9944  85.6319 27.4802  85.6319 27.4802  C 85.6319 27.4802  87.3828 28.1551  87.3828 28.1551  C 87.3828 28.1551  87.9157 30.0675  87.9157 30.0675  C 87.9157 30.0675  87.5995 31.0105  87.5995 31.0105  C 87.5995 31.0105  88.4604 31.5517  88.4604 31.5517  C 88.4604 31.5517  88.2378 33.2235  88.2378 33.2235  C 88.2378 33.2235  88.9757 34.5096  88.9757 34.5096  C 88.9757 34.5096  88.9815 35.3724  88.9815 35.3724  C 88.9815 35.3724  89.8131 38.0901  89.8131 38.0901  C 89.8131 38.0901  88.8937 39.0443  88.8937 39.0443  C 88.8937 39.0443  89.2627 39.6447  89.2627 39.6447  C 89.2627 39.6447  89.6316 42.1273  89.6316 42.1273  C 89.6316 42.1273  91.1249 42.7654  91.1249 42.7654  C 91.1249 42.7654  93.3092 42.0951  93.3092 42.0951  C 93.3092 42.0951  93.52 43.3607  93.52 43.3607  C 93.52 43.3607  94.1408 43.114  94.1408 43.114  C 94.1408 43.114  95.1481 44.1973  95.1481 44.1973  C 95.1481 44.1973  96.6648 44.6156  96.6648 44.6156  C 96.6648 44.6156  97.7715 45.5275  97.7715 45.5275  C 97.7715 45.5275  99.4874 45.7956  99.4874 45.7956  C 99.4874 45.7956  100.846 44.9214  100.846 44.9214  C 100.846 44.9214  101.8357 45.9136  101.8357 45.9136  C 101.8357 45.9136  102.351 45.9941  102.351 45.9941  C 102.351 45.9941  102.4038 47.523  102.4038 47.523  C 102.4038 47.523  103.1826 48.6764  103.1826 48.6764  C 103.1826 48.6764  103.1651 49.5402  103.1651 49.5402  C 103.1651 49.5402  102.5736 50.447  102.5736 50.447  C 102.5736 50.447  103.0831 51.0319  103.0831 51.0319  C 103.0831 51.0319  101.5546 53.5595  101.5546 53.5595  C 101.5546 53.5595  102.1168 54.3323  102.1168 54.3323  C 102.1168 54.3323  101.5546 54.9174  101.5546 54.9174  C 101.5546 54.9174  101.7889 56.9787  101.7889 56.9787  C 101.7889 56.9787  100.7289 57.9558  100.7289 57.9558  C 100.7289 57.9558  100.2722 58.8793  100.2722 58.8793  C 100.2722 58.8793  101.8064 58.6162  101.8064 58.6162  C 101.8064 58.6162  102.8781 59.5128  102.8781 59.5128  C 102.8781 59.5128  104.1313 59.5128  104.1313 59.5128  C 104.1313 59.5128  103.733 60.8553  103.733 60.8553  C 103.733 60.8553  104.0025 61.1238  104.0025 61.1238  C 104.0025 61.1238  103.5047 63.6586  103.5047 63.6586  C 103.5047 63.6586  104.143 64.9693  104.143 64.9693  C 104.143 64.9693  105.976 64.3891  105.976 64.3891  C 105.976 64.3891  106.9774 65.0069  106.9774 65.0069  C 106.9774 65.0069  105.6597 67.7198  105.6597 67.7198  C 105.6597 67.7198  104.5471 69.1169  104.5471 69.1169  C 104.5471 69.1169  104.7111 69.6488  104.7111 69.6488  C 104.7111 69.6488  105.5602 69.3049  105.5602 69.3049  C 105.5602 69.3049  105.3318 70.4979  105.3318 70.4979  C 105.3318 70.4979  104.834 71.2019  104.834 71.2019  C 104.834 71.2019  105.8764 72.5402  105.8764 72.5402  C 105.8764 72.5402  107.1179 71.7231  107.1179 71.7231  C 107.1179 71.7231  106.7314 73.1421  106.7314 73.1421  C 106.7314 73.1421  107.1179 73.5613  107.1179 73.5613  C 107.1179 73.5613  107.5981 72.868  107.5981 72.868  C 107.5981 72.868  108.2072 73.169  108.2072 73.169  C 108.2072 73.169  108.9274 72.6529  108.9274 72.6529  C 108.9274 72.6529  109.8644 73.2819  109.8644 73.2819  C 109.8644 73.2819  110.1513 74.9052  110.1513 74.9052  C 110.1513 74.9052  109.6653 76.3352  109.6653 76.3352  C 109.6653 76.3352  107.6625 77.6202  107.6625 77.6202  C 107.6625 77.6202  107.5395 79.513  107.5395 79.513  C 107.5395 79.513  108.0256 80.2013  108.0256 80.2013  C 108.0256 80.2013  109.1968 80.2013  109.1968 80.2013  C 109.1968 80.2013  109.9347 81.7071  109.9347 81.7071  C 109.9347 81.7071  111.305 81.6642  111.305 81.6642  C 111.305 81.6642  111.3343 84.4069  111.3343 84.4069  C 111.3343 84.4069  110.819 84.423  110.819 84.423  C 110.819 84.423  111.0766 86.4457  111.0766 86.4457  C 111.0766 86.4457  111.4866 87.0859  111.4866 87.0859  Z " fill-rule="nonzero" fill="#ffffff" stroke="none" transform="matrix(1 0 0 1 306 215 )" />
    <path d="M 111.4866 87.0859  C 111.4866 87.0859  113.6533 87.0644  113.6533 87.0644  C 113.6533 87.0644  113.7411 87.8983  113.7411 87.8983  C 113.7411 87.8983  114.438 88.0543  114.438 88.0543  C 114.438 88.0543  115.1759 88.9152  115.1759 88.9152  C 115.1759 88.9152  114.7836 91.4284  114.7836 91.4284  C 114.7836 91.4284  114.8186 93.0377  114.8186 93.0377  C 114.8186 93.0377  114.2389 93.2852  114.2389 93.2852  C 114.2389 93.2852  113.6943 94.9755  113.6943 94.9755  C 113.6943 94.9755  112.2244 95.5461  112.2244 95.5461  C 112.2244 95.5461  111.5275 97.409  111.5275 97.409  C 111.5275 97.409  111.6036 98.2705  111.6036 98.2705  C 111.6036 98.2705  111.0474 98.9491  111.0474 98.9491  C 111.0474 98.9491  110.8775 101.1463  110.8775 101.1463  C 110.8775 101.1463  110.2333 102.5089  110.2333 102.5089  C 110.2333 102.5089  110.3505 104.8522  110.3505 104.8522  C 110.3505 104.8522  111.8262 105.2347  111.8262 105.2347  C 111.8262 105.2347  112.0956 104.836  112.0956 104.836  C 112.0956 104.836  111.7735 103.1876  111.7735 103.1876  C 111.7735 103.1876  112.4001 102.7514  112.4001 102.7514  C 112.4001 102.7514  114.2565 103.2038  114.2565 103.2038  C 114.2565 103.2038  115.8844 105.5257  115.8844 105.5257  C 115.8844 105.5257  116.2066 107.0988  116.2066 107.0988  C 116.2066 107.0988  117.6882 107.282  117.6882 107.282  C 117.6882 107.282  116.7746 110.5154  116.7746 110.5154  C 116.7746 110.5154  116.4349 112.79  116.4349 112.79  C 116.4349 112.79  115.7205 113.4045  115.7205 113.4045  C 115.7205 113.4045  114.9885 114.6445  114.9885 114.6445  C 114.9885 114.6445  114.7601 115.8413  114.7601 115.8413  C 114.7601 115.8413  113.1262 117.6369  113.1262 117.6369  C 113.1262 117.6369  114.93 118.3541  114.93 118.3541  C 114.93 118.3541  114.6078 119.7994  114.6078 119.7994  C 114.6078 119.7994  113.7646 120.6946  113.7646 120.6946  C 113.7646 120.6946  112.4704 120.549  112.4704 120.549  C 112.4704 120.549  112.1541 122.2535  112.1541 122.2535  C 112.1541 122.2535  111.3928 122.2481  111.3928 122.2481  C 111.3928 122.2481  111.8262 121.0291  111.8262 121.0291  C 111.8262 121.0291  111.3108 119.4164  111.3108 119.4164  C 111.3108 119.4164  110.9654 119.6106  110.9654 119.6106  C 110.9654 119.6106  110.819 121.4552  110.819 121.4552  C 110.819 121.4552  110.2802 121.6871  110.2802 121.6871  C 110.2802 121.6871  109.9113 119.6591  109.9113 119.6591  C 109.9113 119.6591  108.986 119.9126  108.986 119.9126  C 108.986 119.9126  109.2495 120.6946  109.2495 120.6946  C 109.2495 120.6946  108.7518 120.9104  108.7518 120.9104  C 108.7518 120.9104  108.6054 121.9946  108.6054 121.9946  C 108.6054 121.9946  109.2554 122.3183  109.2554 122.3183  C 109.2554 122.3183  109.1792 123.1382  109.1792 123.1382  C 109.1792 123.1382  109.472 125.6792  109.472 125.6792  C 109.472 125.6792  110.8599 127.3789  110.8599 127.3789  C 110.8599 127.3789  111.2055 128.5446  111.2055 128.5446  C 111.2055 128.5446  111.2991 131.4645  111.2991 131.4645  C 111.2991 131.4645  111.7325 133.3539  111.7325 133.3539  C 111.7325 133.3539  112.7573 135.2705  112.7573 135.2705  C 112.7573 135.2705  112.7925 137.3656  112.7925 137.3656  C 112.7925 137.3656  113.9285 141.1625  113.9285 141.1625  C 113.9285 141.1625  112.8862 141.627  112.8862 141.627  C 112.8862 141.627  110.9302 143.6474  110.9302 143.6474  C 110.9302 143.6474  110.4208 143.4961  110.4208 143.4961  C 110.4208 143.4961  110.6023 142.4589  110.6023 142.4589  C 110.6023 142.4589  110.3973 142.5669  110.3973 142.5669  C 110.3973 142.5669  109.5716 143.0207  109.5716 143.0207  C 109.5716 143.0207  108.2422 144.7334  108.2422 144.7334  C 108.2422 144.7334  107.6215 143.5826  107.6215 143.5826  C 107.6215 143.5826  106.339 144.5821  106.339 144.5821  C 106.339 144.5821  106.4503 146.349  106.4503 146.349  C 106.4503 146.349  106.8485 146.4463  106.8485 146.4463  C 106.8485 146.4463  106.2863 148.7052  106.2863 148.7052  C 106.2863 148.7052  104.3597 150.0294  104.3597 150.0294  C 104.3597 150.0294  103.6628 147.927  103.6628 147.927  C 103.6628 147.927  102.679 147.9216  102.679 147.9216  C 102.679 147.9216  101.5956 148.7322  101.5956 148.7322  C 101.5956 148.7322  102.9249 150.078  102.9249 150.078  C 102.9249 150.078  103.4285 151.1051  103.4285 151.1051  C 103.4285 151.1051  102.6497 152.0835  102.6497 152.0835  C 102.6497 152.0835  103.1065 152.6565  103.1065 152.6565  C 103.1065 152.6565  102.5677 153.0242  102.5677 153.0242  C 102.5677 153.0242  101.9645 152.5755  101.9645 152.5755  C 101.9645 152.5755  101.8767 153.3215  101.8767 153.3215  C 101.8767 153.3215  100.5708 154.165  100.5708 154.165  C 100.5708 154.165  98.7554 154.5164  98.7554 154.5164  C 98.7554 154.5164  98.5153 155.1328  98.5153 155.1328  C 98.5153 155.1328  96.3661 155.8574  96.3661 155.8574  C 96.3661 155.8574  95.3998 155.9331  95.3998 155.9331  C 95.3998 155.9331  95.0602 156.6307  95.0602 156.6307  C 95.0602 156.6307  93.1101 155.5762  93.1101 155.5762  C 93.1101 155.5762  92.8173 156.5874  92.8173 156.5874  C 92.8173 156.5874  93.2214 157.5284  93.2214 157.5284  C 93.2214 157.5284  94.0647 158.2152  94.0647 158.2152  C 94.0647 158.2152  93.889 159.6755  93.889 159.6755  C 93.889 159.6755  92.788 160.3841  92.788 160.3841  C 92.788 160.3841  90.8789 160.7141  90.8789 160.7141  C 90.8789 160.7141  90.5041 161.5039  90.5041 161.5039  C 90.5041 161.5039  89.9537 160.2651  89.9537 160.2651  C 89.9537 160.2651  89.2041 160.6979  89.2041 160.6979  C 89.2041 160.6979  88.3257 160.303  88.3257 160.303  C 88.3257 160.303  88.4311 161.7744  88.4311 161.7744  C 88.4311 161.7744  87.6347 162.1152  87.6347 162.1152  C 87.6347 162.1152  87.0842 163.5543  87.0842 163.5543  C 87.0842 163.5543  85.6026 164.1386  85.6026 164.1386  C 85.6026 164.1386  84.1034 163.8951  84.1034 163.8951  C 84.1034 163.8951  83.9219 164.2955  83.9219 164.2955  C 83.9219 164.2955  81.7902 165.6482  81.7902 165.6482  C 81.7902 165.6482  80.1857 166.1244  80.1857 166.1244  C 80.1857 166.1244  79.4302 164.6201  79.4302 164.6201  C 79.4302 164.6201  79.5533 163.8356  79.5533 163.8356  C 79.5533 163.8356  78.7803 163.6192  78.7803 163.6192  C 78.7803 163.6192  77.4216 164.2684  77.4216 164.2684  C 77.4216 164.2684  75.29 164.3983  75.29 164.3983  C 75.29 164.3983  74.3003 164.0628  74.3003 164.0628  C 74.3003 164.0628  74.9386 162.7698  74.9386 162.7698  C 74.9386 162.7698  75.8874 162.3857  75.8874 162.3857  C 75.8874 162.3857  74.6224 160.4599  74.6224 160.4599  C 74.6224 160.4599  73.908 160.5139  73.908 160.5139  C 73.908 160.5139  74.0544 157.9015  74.0544 157.9015  C 74.0544 157.9015  73.0178 156.409  73.0178 156.409  C 73.0178 156.409  72.8129 155.5762  72.8129 155.5762  C 72.8129 155.5762  73.1115 153.6946  73.1115 153.6946  C 73.1115 153.6946  73.5449 153.2512  73.5449 153.2512  C 73.5449 153.2512  73.6796 151.7105  73.6796 151.7105  C 73.6796 151.7105  72.7602 151.2672  72.7602 151.2672  C 72.7602 151.2672  71.9989 151.7105  71.9989 151.7105  C 71.9989 151.7105  71.4601 151.3645  71.4601 151.3645  C 71.4601 151.3645  70.5173 152.1808  70.5173 152.1808  C 70.5173 152.1808  69.8848 151.7808  69.8848 151.7808  C 69.8848 151.7808  70.1425 150.9483  70.1425 150.9483  C 70.1425 150.9483  70.283 148.8025  70.283 148.8025  C 70.283 148.8025  69.8439 147.5974  69.8439 147.5974  C 69.8439 147.5974  70.8921 148.3971  70.8921 148.3971  C 70.8921 148.3971  71.6007 147.8622  71.6007 147.8622  C 71.6007 147.8622  71.87 148.3214  71.87 148.3214  C 71.87 148.3214  72.3678 147.4947  72.3678 147.4947  C 72.3678 147.4947  71.384 145.6628  71.384 145.6628  C 71.384 145.6628  71.9989 145.09  71.9989 145.09  C 71.9989 145.09  72.0925 144.1985  72.0925 144.1985  C 72.0925 144.1985  73.0471 141.6162  73.0471 141.6162  C 73.0471 141.6162  72.1101 140.6277  72.1101 140.6277  C 72.1101 140.6277  72.3385 140.1956  72.3385 140.1956  C 72.3385 140.1956  72.0047 138.3323  72.0047 138.3323  C 72.0047 138.3323  72.8012 136.4692  72.8012 136.4692  C 72.8012 136.4692  73.2111 134.5632  73.2111 134.5632  C 73.2111 134.5632  74.4643 134.4877  74.4643 134.4877  C 74.4643 134.4877  75.1319 133.1325  75.1319 133.1325  C 75.1319 133.1325  75.1905 132.0528  75.1905 132.0528  C 75.1905 132.0528  74.0895 130.9355  74.0895 130.9355  C 74.0895 130.9355  74.0251 130.3148  74.0251 130.3148  C 74.0251 130.3148  73.2111 130.2068  73.2111 130.2068  C 73.2111 130.2068  72.0223 129.4512  72.0223 129.4512  C 72.0223 129.4512  70.4529 130.4929  70.4529 130.4929  C 70.4529 130.4929  68.128 130.9625  68.128 130.9625  C 68.128 130.9625  64.8018 135.0761  64.8018 135.0761  C 64.8018 135.0761  62.834 135.0221  62.834 135.0221  C 62.834 135.0221  60.392 133.9261  60.392 133.9261  C 60.392 133.9261  58.2326 134.2123  58.2326 134.2123  C 58.2326 134.2123  56.7919 133.505  56.7919 133.505  C 56.7919 133.505  55.5915 134.547  55.5915 134.547  C 55.5915 134.547  52.8274 135.2975  52.8274 135.2975  C 52.8274 135.2975  51.9256 135.2597  51.9256 135.2597  C 51.9256 135.2597  51.176 134.3959  51.176 134.3959  C 51.176 134.3959  48.5407 133.802  48.5407 133.802  C 48.5407 133.802  47.8731 132.7546  47.8731 132.7546  C 47.8731 132.7546  47.5921 130.4713  47.5921 130.4713  C 47.5921 130.4713  46.7136 129.4566  46.7136 129.4566  C 46.7136 129.4566  46.087 129.3379  46.087 129.3379  C 46.087 129.3379  43.2175 129.9478  43.2175 129.9478  C 43.2175 129.9478  41.49 129.8722  41.49 129.8722  C 41.49 129.8722  40.3832 129.2947  40.3832 129.2947  C 40.3832 129.2947  39.7741 128.5716  39.7741 128.5716  C 39.7741 128.5716  38.5268 128.2802  38.5268 128.2802  C 38.5268 128.2802  36.7349 129.2623  36.7349 129.2623  C 36.7349 129.2623  34.9839 129.4296  34.9839 129.4296  C 34.9839 129.4296  31.6517 129.0897  31.6517 129.0897  C 31.6517 129.0897  30.3693 128.6094  30.3693 128.6094  C 30.3693 128.6094  28.3314 127.298  28.3314 127.298  C 28.3314 127.298  26.8439 127.2872  26.8439 127.2872  C 26.8439 127.2872  25.6668 126.5804  25.6668 126.5804  C 25.6668 126.5804  24.6713 126.904  24.6713 126.904  C 24.6713 126.904  22.9145 126.521  22.9145 126.521  C 22.9145 126.521  22.4108 125.8843  22.4108 125.8843  C 22.4108 125.8843  21.5148 123.7748  21.5148 123.7748  C 21.5148 123.7748  20.4958 123.3216  20.4958 123.3216  C 20.4958 123.3216  18.1885 123.4618  18.1885 123.4618  C 18.1885 123.4618  16.7421 122.8954  16.7421 122.8954  C 16.7421 122.8954  14.0308 120.9697  14.0308 120.9697  C 14.0308 120.9697  13.5681 120.1392  13.5681 120.1392  C 13.5681 120.1392  14.2416 118.7477  14.2416 118.7477  C 14.2416 118.7477  16.2736 117.9011  16.2736 117.9011  C 16.2736 117.9011  16.8182 116.8226  16.8182 116.8226  C 16.8182 116.8226  16.6309 115.0703  16.6309 115.0703  C 16.6309 115.0703  14.8213 112.2887  14.8213 112.2887  C 14.8213 112.2887  13.4451 109.5938  13.4451 109.5938  C 13.4451 109.5938  12.8127 109.7986  12.8127 109.7986  C 12.8127 109.7986  13.1231 111.049  13.1231 111.049  C 13.1231 111.049  12.514 111.5449  12.514 111.5449  C 12.514 111.5449  12.1919 113.2805  12.1919 113.2805  C 12.1919 113.2805  11.4716 113.9058  11.4716 113.9058  C 11.4716 113.9058  10.441 113.674  10.441 113.674  C 10.441 113.674  8.88909999999998 114.6445  8.88909999999998 114.6445  C 8.88909999999998 114.6445  7.69450000000001 113.9651  7.69450000000001 113.9651  C 7.69450000000001 113.9651  7.42500000000001 113.1674  7.42500000000001 113.1674  C 7.42500000000001 113.1674  6.23630000000003 112.6013  6.23630000000003 112.6013  C 6.23630000000003 112.6013  6.57010000000002 111.9598  6.57010000000002 111.9598  C 6.57010000000002 111.9598  4.95960000000002 110.4453  4.95960000000002 110.4453  C 4.95960000000002 110.4453  4.01100000000002 110.4777  4.01100000000002 110.4777  C 4.01100000000002 110.4777  2.78120000000001 109.4968  2.78120000000001 109.4968  C 2.78120000000001 109.4968  1.49279999999999 110.0734  1.49279999999999 110.0734  C 1.49279999999999 110.0734  1.44009999999997 110.5477  1.44009999999997 110.5477  C 1.44009999999997 110.5477  0.713999999999999 110.0842  0.713999999999999 110.0842  C 0.713999999999999 110.0842  0.438800000000015 109.0172  0.438800000000015 109.0172  C 0.438800000000015 109.0172  0.649600000000021 107.6323  0.649600000000021 107.6323  C 0.649600000000021 107.6323  1.31130000000002 106.4793  1.31130000000002 106.4793  C 1.31130000000002 106.4793  1.66269999999997 105.0138  1.66269999999997 105.0138  C 1.66269999999997 105.0138  2.51760000000002 104.3619  2.51760000000002 104.3619  C 2.51760000000002 104.3619  2.74020000000002 102.8214  2.74020000000002 102.8214  C 2.74020000000002 102.8214  2.07839999999999 101.9487  2.07839999999999 101.9487  C 2.07839999999999 101.9487  3.00959999999998 98.012  3.00959999999998 98.012  C 3.00959999999998 98.012  2.79880000000003 97.156  2.79880000000003 97.156  C 2.79880000000003 97.156  3.34339999999997 96.1222  3.34339999999997 96.1222  C 3.34339999999997 96.1222  3.32580000000002 94.8463  3.32580000000002 94.8463  C 3.32580000000002 94.8463  5.55110000000002 95.1317  5.55110000000002 95.1317  C 5.55110000000002 95.1317  5.93180000000001 93.7374  5.93180000000001 93.7374  C 5.93180000000001 93.7374  6.3066 93.6621  6.3066 93.6621  C 6.3066 93.6621  7.31970000000001 91.6275  7.31970000000001 91.6275  C 7.31970000000001 91.6275  7.89940000000001 91.7513  7.89940000000001 91.7513  C 7.89940000000001 91.7513  8.25659999999999 90.5566  8.25659999999999 90.5566  C 8.25659999999999 90.5566  9.47469999999998 88.4041  9.47469999999998 88.4041  C 9.47469999999998 88.4041  9.33999999999998 87.2527  9.33999999999998 87.2527  C 9.33999999999998 87.2527  9.60359999999997 85.7301  9.60359999999997 85.7301  C 9.60359999999997 85.7301  10.1482 85.4774  10.1482 85.4774  C 10.1482 85.4774  10.1423 81.3253  10.1423 81.3253  C 10.1423 81.3253  9.66800000000001 79.9593  9.66800000000001 79.9593  C 9.66800000000001 79.9593  9.99590000000001 77.8245  9.99590000000001 77.8245  C 9.99590000000001 77.8245  11.618 77.916  11.618 77.916  C 11.618 77.916  13.9194 77.3944  13.9194 77.3944  C 13.9194 77.3944  14.8916 76.4158  14.8916 76.4158  C 14.8916 76.4158  15.8988 77.1578  15.8988 77.1578  C 15.8988 77.1578  17.4272 75.9858  17.4272 75.9858  C 17.4272 75.9858  17.7552 76.6524  17.7552 76.6524  C 17.7552 76.6524  18.2003 76.1094  18.2003 76.1094  C 18.2003 76.1094  19.1958 76.7277  19.1958 76.7277  C 19.1958 76.7277  19.8224 76.5664  19.8224 76.5664  C 19.8224 76.5664  19.758 74.5504  19.758 74.5504  C 19.758 74.5504  20.5837 72.7443  20.5837 72.7443  C 20.5837 72.7443  21.4622 72.5617  21.4622 72.5617  C 21.4622 72.5617  21.345 71.9274  21.345 71.9274  C 21.345 71.9274  21.9306 70.7451  21.9306 70.7451  C 21.9306 70.7451  23.6171 70.3528  23.6171 70.3528  C 23.6171 70.3528  23.4181 69.6972  23.4181 69.6972  C 23.4181 69.6972  23.7284 68.4237  23.7284 68.4237  C 23.7284 68.4237  20.2792 67.7037  20.2792 67.7037  C 20.2792 67.7037  20.0273 66.8065  20.0273 66.8065  C 20.0273 66.8065  20.8706 66.6454  20.8706 66.6454  C 20.8706 66.6454  20.7711 61.3224  20.7711 61.3224  C 20.7711 61.3224  21.6203 61.5319  21.6203 61.5319  C 21.6203 61.5319  21.7725 60.4633  21.7725 60.4633  C 21.7725 60.4633  22.3991 59.0349  22.3991 59.0349  C 22.3991 59.0349  22.1297 58.6001  22.1297 58.6001  C 22.1297 58.6001  22.7329 57.9236  22.7329 57.9236  C 22.7329 57.9236  22.8208 56.7694  22.8208 56.7694  C 22.8208 56.7694  23.5527 56.6083  23.5527 56.6083  C 23.5527 56.6083  25.7722 58.4014  25.7722 58.4014  C 25.7722 58.4014  26.0358 56.5009  26.0358 56.5009  C 26.0358 56.5009  27.3826 56.3721  27.3826 56.3721  C 27.3826 56.3721  27.775 57.5316  27.775 57.5316  C 27.775 57.5316  29.1571 58.2028  29.1571 58.2028  C 29.1571 58.2028  29.7837 58.0471  29.7837 58.0471  C 29.7837 58.0471  30.2697 58.8632  30.2697 58.8632  C 30.2697 58.8632  31.3004 58.6323  31.3004 58.6323  C 31.3004 58.6323  31.9973 59.3303  31.9973 59.3303  C 31.9973 59.3303  33.268 59.2282  33.268 59.2282  C 33.268 59.2282  33.6194 58.5625  33.6194 58.5625  C 33.6194 58.5625  34.7203 59.4484  34.7203 59.4484  C 34.7203 59.4484  35.0776 57.1988  35.0776 57.1988  C 35.0776 57.1988  35.8037 56.8659  35.8037 56.8659  C 35.8037 56.8659  35.4465 54.5202  35.4465 54.5202  C 35.4465 54.5202  35.7276 52.851  35.7276 52.851  C 35.7276 52.851  35.2006 52.513  35.2006 52.513  C 35.2006 52.513  34.8784 51.2464  34.8784 51.2464  C 34.8784 51.2464  35.6397 49.6099  35.6397 49.6099  C 35.6397 49.6099  35.6573 48.832  35.6573 48.832  C 35.6573 48.832  36.8813 48.8159  36.8813 48.8159  C 36.8813 48.8159  37.42 49.5241  37.42 49.5241  C 37.42 49.5241  38.316 48.1077  38.316 48.1077  C 38.316 48.1077  37.8299 46.4929  37.8299 46.4929  C 37.8299 46.4929  38.07 45.1413  38.07 45.1413  C 38.07 45.1413  38.9602 45.2539  38.9602 45.2539  C 38.9602 45.2539  39.944 46.2838  39.944 46.2838  C 39.944 46.2838  40.5354 45.4577  40.5354 45.4577  C 40.5354 45.4577  41.3611 45.2217  41.3611 45.2217  C 41.3611 45.2217  42.468 45.4953  42.468 45.4953  C 42.468 45.4953  42.3274 44.6586  42.3274 44.6586  C 42.3274 44.6586  42.8954 44.6478  42.8954 44.6478  C 42.8954 44.6478  44.6347 41.0334  44.6347 41.0334  C 44.6347 41.0334  43.1941 38.5618  43.1941 38.5618  C 43.1941 38.5618  43.159 35.9781  43.159 35.9781  C 43.159 35.9781  41.9936 35.0134  41.9936 35.0134  C 41.9936 35.0134  41.3202 32.693  41.3202 32.693  C 41.3202 32.693  40.6292 31.7178  40.6292 31.7178  C 40.6292 31.7178  40.6936 30.4051  40.6936 30.4051  C 40.6936 30.4051  40.2895 30.0461  40.2895 30.0461  C 40.2895 30.0461  39.9205 28.5675  39.9205 28.5675  C 39.9205 28.5675  39.9323 26.8642  39.9323 26.8642  C 39.9323 26.8642  40.6233 24.0204  40.6233 24.0204  C 40.6233 24.0204  40.5413 23.0887  40.5413 23.0887  C 40.5413 23.0887  39.3525 21.7929  39.3525 21.7929  C 39.3525 21.7929  39.862 16.4615  39.862 16.4615  C 39.862 16.4615  42.5324 17.1946  42.5324 17.1946  C 42.5324 17.1946  43.1414 15.9959  43.1414 15.9959  C 43.1414 15.9959  44.8104 15.8567  44.8104 15.8567  C 44.8104 15.8567  46.2568 15.8674  46.2568 15.8674  C 46.2568 15.8674  47.5159 17.0983  47.5159 17.0983  C 47.5159 17.0983  48.1894 18.8861  48.1894 18.8861  C 48.1894 18.8861  48.7516 19.5498  48.7516 19.5498  C 48.7516 19.5498  49.0151 20.7382  49.0151 20.7382  C 49.0151 20.7382  49.7178 20.4117  49.7178 20.4117  C 49.7178 20.4117  51.0999 20.5937  51.0999 20.5937  C 51.0999 20.5937  52.3882 20.2725  52.3882 20.2725  C 52.3882 20.2725  52.7103 19.6515  52.7103 19.6515  C 52.7103 19.6515  52.353 17.7085  52.353 17.7085  C 52.353 17.7085  53.044 16.9378  53.044 16.9378  C 53.044 16.9378  53.2549 14.7276  53.2549 14.7276  C 53.2549 14.7276  53.6531 14.6152  53.6531 14.6152  C 53.6531 14.6152  54.3793 13.224  54.3793 13.224  C 54.3793 13.224  55.8316 13.6092  55.8316 13.6092  C 55.8316 13.6092  57.3015 16.4989  57.3015 16.4989  C 57.3015 16.4989  57.9866 16.4508  57.9866 16.4508  C 57.9866 16.4508  58.5605 17.0662  58.5605 17.0662  C 58.5605 17.0662  60.07 18.6451  60.07 18.6451  C 60.07 18.6451  61.2295 19.2661  61.2295 19.2661  C 61.2295 19.2661  61.5282 20.417  61.5282 20.417  C 61.5282 20.417  62.2309 20.8507  62.2309 20.8507  C 62.2309 20.8507  62.9278 20.6366  62.9278 20.6366  C 62.9278 20.6366  63.1737 19.6675  63.1737 19.6675  C 63.1737 19.6675  65.2409 18.9931  65.2409 18.9931  C 65.2409 18.9931  66.6289 17.0181  66.6289 17.0181  C 66.6289 17.0181  66.8748 14.8881  66.8748 14.8881  C 66.8748 14.8881  68.2041 14.7008  68.2041 14.7008  C 68.2041 14.7008  69.2582 14.9898  69.2582 14.9898  C 69.2582 14.9898  69.7794 13.3257  69.7794 13.3257  C 69.7794 13.3257  69.7208 11.3408  69.7208 11.3408  C 69.7208 11.3408  70.2128 10.1799  70.2128 10.1799  C 70.2128 10.1799  69.8263 7.1045  69.8263 7.1045  C 69.8263 7.1045  69.9317 6.74610000000001  69.9317 6.74610000000001  C 69.9317 6.74610000000001  71.1614 7.1206  71.1614 7.1206  C 71.1614 7.1206  72.6372 6.4093  72.6372 6.4093  C 72.6372 6.4093  72.6313 4.68209999999999  72.6313 4.68209999999999  C 72.6313 4.68209999999999  71.9461 1.3407  71.9461 1.3407  C 71.9461 1.3407  72.2741 0.18610000000001  72.2741 0.18610000000001  C 72.2741 0.18610000000001  73.6679 1.2124  73.6679 1.2124  C 73.6679 1.2124  74.6224 1.05199999999999  74.6224 1.05199999999999  C 74.6224 1.05199999999999  76.3265 3.76779999999999  76.3265 3.76779999999999  C 76.3265 3.76779999999999  78.7509 4.33449999999999  78.7509 4.33449999999999  C 78.7509 4.33449999999999  79.6001 6.32900000000001  79.6001 6.32900000000001  C 79.6001 6.32900000000001  80.2911 6.50550000000001  80.2911 6.50550000000001  C 80.2911 6.50550000000001  80.9001 8.17939999999999  80.9001 8.17939999999999  C 80.9001 8.17939999999999  81.6205 8.50040000000001  81.6205 8.50040000000001  C 81.6205 8.50040000000001  82.575 10.7523  82.575 10.7523  C 82.575 10.7523  84.1386 10.4688  84.1386 10.4688  C 84.1386 10.4688  84.5778 11.1535  84.5778 11.1535  C 84.5778 11.1535  85.2453 15.4982  85.2453 15.4982  C 85.2453 15.4982  84.812 18.4525  84.812 18.4525  C 84.812 18.4525  83.7813 20.3689  83.7813 20.3689  C 83.7813 20.3689  83.7404 21.4128  83.7404 21.4128  C 83.7404 21.4128  83.1606 22.1196  83.1606 22.1196  C 83.1606 22.1196  83.4183 23.0298  83.4183 23.0298  C 83.4183 23.0298  83.0142 23.426  83.0142 23.426  C 83.0142 23.426  83.4065 24.7541  83.4065 24.7541  C 83.4065 24.7541  82.9322 25.5414  82.9322 25.5414  C 82.9322 25.5414  83.0376 26.8374  83.0376 26.8374  C 83.0376 26.8374  84.3435 27.3623  84.3435 27.3623  C 84.3435 27.3623  84.9877 27.0678  84.9877 27.0678  C 84.9877 27.0678  84.771 27.9944  84.771 27.9944  C 84.771 27.9944  85.6319 27.4802  85.6319 27.4802  C 85.6319 27.4802  87.3828 28.1551  87.3828 28.1551  C 87.3828 28.1551  87.9157 30.0675  87.9157 30.0675  C 87.9157 30.0675  87.5995 31.0105  87.5995 31.0105  C 87.5995 31.0105  88.4604 31.5517  88.4604 31.5517  C 88.4604 31.5517  88.2378 33.2235  88.2378 33.2235  C 88.2378 33.2235  88.9757 34.5096  88.9757 34.5096  C 88.9757 34.5096  88.9815 35.3724  88.9815 35.3724  C 88.9815 35.3724  89.8131 38.0901  89.8131 38.0901  C 89.8131 38.0901  88.8937 39.0443  88.8937 39.0443  C 88.8937 39.0443  89.2627 39.6447  89.2627 39.6447  C 89.2627 39.6447  89.6316 42.1273  89.6316 42.1273  C 89.6316 42.1273  91.1249 42.7654  91.1249 42.7654  C 91.1249 42.7654  93.3092 42.0951  93.3092 42.0951  C 93.3092 42.0951  93.52 43.3607  93.52 43.3607  C 93.52 43.3607  94.1408 43.114  94.1408 43.114  C 94.1408 43.114  95.1481 44.1973  95.1481 44.1973  C 95.1481 44.1973  96.6648 44.6156  96.6648 44.6156  C 96.6648 44.6156  97.7715 45.5275  97.7715 45.5275  C 97.7715 45.5275  99.4874 45.7956  99.4874 45.7956  C 99.4874 45.7956  100.846 44.9214  100.846 44.9214  C 100.846 44.9214  101.8357 45.9136  101.8357 45.9136  C 101.8357 45.9136  102.351 45.9941  102.351 45.9941  C 102.351 45.9941  102.4038 47.523  102.4038 47.523  C 102.4038 47.523  103.1826 48.6764  103.1826 48.6764  C 103.1826 48.6764  103.1651 49.5402  103.1651 49.5402  C 103.1651 49.5402  102.5736 50.447  102.5736 50.447  C 102.5736 50.447  103.0831 51.0319  103.0831 51.0319  C 103.0831 51.0319  101.5546 53.5595  101.5546 53.5595  C 101.5546 53.5595  102.1168 54.3323  102.1168 54.3323  C 102.1168 54.3323  101.5546 54.9174  101.5546 54.9174  C 101.5546 54.9174  101.7889 56.9787  101.7889 56.9787  C 101.7889 56.9787  100.7289 57.9558  100.7289 57.9558  C 100.7289 57.9558  100.2722 58.8793  100.2722 58.8793  C 100.2722 58.8793  101.8064 58.6162  101.8064 58.6162  C 101.8064 58.6162  102.8781 59.5128  102.8781 59.5128  C 102.8781 59.5128  104.1313 59.5128  104.1313 59.5128  C 104.1313 59.5128  103.733 60.8553  103.733 60.8553  C 103.733 60.8553  104.0025 61.1238  104.0025 61.1238  C 104.0025 61.1238  103.5047 63.6586  103.5047 63.6586  C 103.5047 63.6586  104.143 64.9693  104.143 64.9693  C 104.143 64.9693  105.976 64.3891  105.976 64.3891  C 105.976 64.3891  106.9774 65.0069  106.9774 65.0069  C 106.9774 65.0069  105.6597 67.7198  105.6597 67.7198  C 105.6597 67.7198  104.5471 69.1169  104.5471 69.1169  C 104.5471 69.1169  104.7111 69.6488  104.7111 69.6488  C 104.7111 69.6488  105.5602 69.3049  105.5602 69.3049  C 105.5602 69.3049  105.3318 70.4979  105.3318 70.4979  C 105.3318 70.4979  104.834 71.2019  104.834 71.2019  C 104.834 71.2019  105.8764 72.5402  105.8764 72.5402  C 105.8764 72.5402  107.1179 71.7231  107.1179 71.7231  C 107.1179 71.7231  106.7314 73.1421  106.7314 73.1421  C 106.7314 73.1421  107.1179 73.5613  107.1179 73.5613  C 107.1179 73.5613  107.5981 72.868  107.5981 72.868  C 107.5981 72.868  108.2072 73.169  108.2072 73.169  C 108.2072 73.169  108.9274 72.6529  108.9274 72.6529  C 108.9274 72.6529  109.8644 73.2819  109.8644 73.2819  C 109.8644 73.2819  110.1513 74.9052  110.1513 74.9052  C 110.1513 74.9052  109.6653 76.3352  109.6653 76.3352  C 109.6653 76.3352  107.6625 77.6202  107.6625 77.6202  C 107.6625 77.6202  107.5395 79.513  107.5395 79.513  C 107.5395 79.513  108.0256 80.2013  108.0256 80.2013  C 108.0256 80.2013  109.1968 80.2013  109.1968 80.2013  C 109.1968 80.2013  109.9347 81.7071  109.9347 81.7071  C 109.9347 81.7071  111.305 81.6642  111.305 81.6642  C 111.305 81.6642  111.3343 84.4069  111.3343 84.4069  C 111.3343 84.4069  110.819 84.423  110.819 84.423  C 110.819 84.423  111.0766 86.4457  111.0766 86.4457  C 111.0766 86.4457  111.4866 87.0859  111.4866 87.0859  Z " stroke-width="2" stroke="#666666" fill="none" transform="matrix(1 0 0 1 306 215 )" mask="url(#clip37)" />
  </g>
</svg>