<?xml version="1.0" encoding="utf-8"?>
<svg version="1.1" xmlns:xlink="http://www.w3.org/1999/xlink" width="124px" height="158px" xmlns="http://www.w3.org/2000/svg">
  <defs>
    <mask fill="white" id="clip38">
      <path d="M 54.688 133.7294  C 54.688 133.7294  53.3294 134.2331  53.3294 134.2331  C 53.3294 134.2331  52.6735 133.4478  52.6735 133.4478  C 52.6735 133.4478  50.8464 133.4803  50.8464 133.4803  C 50.8464 133.4803  50.5653 134.1193  50.5653 134.1193  C 50.5653 134.1193  48.6679 133.2962  48.6679 133.2962  C 48.6679 133.2962  48.381 133.7673  48.381 133.7673  C 48.381 133.7673  47.0224 134.2168  47.0224 134.2168  C 47.0224 134.2168  46.7354 132.6031  46.7354 132.6031  C 46.7354 132.6031  47.7426 132.0508  47.7426 132.0508  C 47.7426 132.0508  48.0472 131.3577  48.0472 131.3577  C 48.0472 131.3577  47.7953 130.4805  47.7953 130.4805  C 47.7953 130.4805  46.6007 130.2422  46.6007 130.2422  C 46.6007 130.2422  46.1557 128.8076  46.1557 128.8076  C 46.1557 128.8076  45.2889 128.8509  45.2889 128.8509  C 45.2889 128.8509  44.8439 127.7953  44.8439 127.7953  C 44.8439 127.7953  45.6462 126.5395  45.6462 126.5395  C 45.6462 126.5395  45.6579 124.9103  45.6579 124.9103  C 45.6579 124.9103  45.9799 123.4762  45.9799 123.4762  C 45.9799 123.4762  44.9435 121.9502  44.9435 121.9502  C 44.9435 121.9502  44.3051 122.356  44.3051 122.356  C 44.3051 122.356  44.188 124.1418  44.188 124.1418  C 44.188 124.1418  43.6726 124.407  43.6726 124.407  C 43.6726 124.407  41.9568 123.5032  41.9568 123.5032  C 41.9568 123.5032  41.219 123.6223  41.219 123.6223  C 41.219 123.6223  41.0784 122.2694  41.0784 122.2694  C 41.0784 122.2694  40.2059 121.7121  40.2059 121.7121  C 40.2059 121.7121  40.85 121.0953  40.85 121.0953  C 40.85 121.0953  41.0022 119.3694  41.0022 119.3694  C 41.0022 119.3694  39.2747 119.0989  39.2747 119.0989  C 39.2747 119.0989  38.3612 119.3748  38.3612 119.3748  C 38.3612 119.3748  38.0508 120.0295  38.0508 120.0295  C 38.0508 120.0295  36.5106 119.6994  36.5106 119.6994  C 36.5106 119.6994  35.7845 119.2017  35.7845 119.2017  C 35.7845 119.2017  35.6323 119.8022  35.6323 119.8022  C 35.6323 119.8022  33.9984 121.9015  33.9984 121.9015  C 33.9984 121.9015  33.1844 121.9123  33.1844 121.9123  C 33.1844 121.9123  32.7803 120.9979  32.7803 120.9979  C 32.7803 120.9979  31.9722 120.7598  31.9722 120.7598  C 31.9722 120.7598  31.5329 118.7689  31.5329 118.7689  C 31.5329 118.7689  31.8902 118.3199  31.8902 118.3199  C 31.8902 118.3199  32.0249 115.9832  32.0249 115.9832  C 32.0249 115.9832  31.8316 115.7344  31.8316 115.7344  C 31.8316 115.7344  31.9605 113.6307  31.9605 113.6307  C 31.9605 113.6307  31.6852 111.8624  31.6852 111.8624  C 31.6852 111.8624  32.1244 111.2947  32.1244 111.2947  C 32.1244 111.2947  32.7276 111.8408  32.7276 111.8408  C 32.7276 111.8408  33.2547 111.4515  33.2547 111.4515  C 33.2547 111.4515  33.9105 109.8944  33.9105 109.8944  C 33.9105 109.8944  33.8227 109.2403  33.8227 109.2403  C 33.8227 109.2403  33.0614 109.3322  33.0614 109.3322  C 33.0614 109.3322  32.7627 108.6618  32.7627 108.6618  C 32.7627 108.6618  31.574 108.3591  31.574 108.3591  C 31.574 108.3591  30.2973 106.9591  30.2973 106.9591  C 30.2973 106.9591  30.1685 104.3596  30.1685 104.3596  C 30.1685 104.3596  31.1231 103.3652  31.1231 103.3652  C 31.1231 103.3652  31.0118 101.6307  31.0118 101.6307  C 31.0118 101.6307  30.2563 100.9121  30.2563 100.9121  C 30.2563 100.9121  29.3311 101.0256  29.3311 101.0256  C 29.3311 101.0256  27.949 100.1341  27.949 100.1341  C 27.949 100.1341  27.6738 100.7717  27.6738 100.7717  C 27.6738 100.7717  26.1337 101.8793  26.1337 101.8793  C 26.1337 101.8793  25.917 101.3876  25.917 101.3876  C 25.917 101.3876  24.5759 101.0526  24.5759 101.0526  C 24.5759 101.0526  24.1191 100.2368  24.1191 100.2368  C 24.1191 100.2368  23.5277 100.28  23.5277 100.28  C 23.5277 100.28  24.6579 97.2766  24.6579 97.2766  C 24.6579 97.2766  25.5597 97.7249  25.5597 97.7249  C 25.5597 97.7249  25.5012 97.1524  25.5012 97.1524  C 25.5012 97.1524  23.2641 94.7761  23.2641 94.7761  C 23.2641 94.7761  21.8294 93.696  21.8294 93.696  C 21.8294 93.696  21.0154 91.79  21.0154 91.79  C 21.0154 91.79  20.8163 90.0731  20.8163 90.0731  C 20.8163 90.0731  19.0536 89.3335  19.0536 89.3335  C 19.0536 89.3335  17.8239 89.7384  17.8239 89.7384  C 17.8239 89.7384  16.3013 91.0719  16.3013 91.0719  C 16.3013 91.0719  14.8021 91.1691  14.8021 91.1691  C 14.8021 91.1691  13.5079 90.2297  13.5079 90.2297  C 13.5079 90.2297  12.9809 89.2796  12.9809 89.2796  C 12.9809 89.2796  11.7687 88.1245  11.7687 88.1245  C 11.7687 88.1245  11.1713 88.0327  11.1713 88.0327  C 11.1713 88.0327  9.3091 88.7128  9.3091 88.7128  C 9.3091 88.7128  6.80270000000002 87.9409  6.80270000000002 87.9409  C 6.80270000000002 87.9409  5.9828 88.3296  5.9828 88.3296  C 5.9828 88.3296  4.58909999999997 87.0071  4.58909999999997 87.0071  C 4.58909999999997 87.0071  3.57010000000002 87.9895  3.57010000000002 87.9895  C 3.57010000000002 87.9895  2.41640000000001 87.7574  2.41640000000001 87.7574  C 2.41640000000001 87.7574  2.15300000000002 86.8722  2.15300000000002 86.8722  C 2.15300000000002 86.8722  2.5453 84.503  2.5453 84.503  C 2.5453 84.503  3.22460000000001 83.6505  3.22460000000001 83.6505  C 3.22460000000001 83.6505  4.44850000000002 82.8195  4.44850000000002 82.8195  C 4.44850000000002 82.8195  6.04730000000001 82.9059  6.04730000000001 82.9059  C 6.04730000000001 82.9059  6.53910000000002 81.6163  6.53910000000002 81.6163  C 6.53910000000002 81.6163  5.53769999999997 81.4707  5.53769999999997 81.4707  C 5.53769999999997 81.4707  5.1395 80.1382  5.1395 80.1382  C 5.1395 80.1382  5.91840000000002 78.0021  5.91840000000002 78.0021  C 5.91840000000002 78.0021  6.66800000000001 78.0129  6.66800000000001 78.0129  C 6.66800000000001 78.0129  5.61970000000002 74.9982  5.61970000000002 74.9982  C 5.61970000000002 74.9982  6.00619999999998 72.8388  6.00619999999998 72.8388  C 6.00619999999998 72.8388  4.63589999999999 71.7497  4.63589999999999 71.7497  C 4.63589999999999 71.7497  5.63729999999998 69.8681  5.63729999999998 69.8681  C 5.63729999999998 69.8681  5.49680000000001 69.0703  5.49680000000001 69.0703  C 5.49680000000001 69.0703  5.99450000000002 66.607  5.99450000000002 66.607  C 5.99450000000002 66.607  5.56700000000001 64.6238  5.56700000000001 64.6238  C 5.56700000000001 64.6238  6.07060000000001 63.5137  6.07060000000001 63.5137  C 6.07060000000001 63.5137  8.47750000000002 64.0311  8.47750000000002 64.0311  C 8.47750000000002 64.0311  9.3793 63.7293  9.3793 63.7293  C 9.3793 63.7293  10.8785 64.7801  10.8785 64.7801  C 10.8785 64.7801  10.8434 66.5801  10.8434 66.5801  C 10.8434 66.5801  12.2957 67.6096  12.2957 67.6096  C 12.2957 67.6096  12.3542 67.9976  12.3542 67.9976  C 12.3542 67.9976  13.7656 68.3641  13.7656 68.3641  C 13.7656 68.3641  13.7246 67.1514  13.7246 67.1514  C 13.7246 67.1514  12.811 64.9956  12.811 64.9956  C 12.811 64.9956  13.5547 64.7262  13.5547 64.7262  C 13.5547 64.7262  14.0876 63.3521  14.0876 63.3521  C 14.0876 63.3521  13.2971 62.517  13.2971 62.517  C 13.2971 62.517  12.647 60.0172  12.647 60.0172  C 12.647 60.0172  13.7128 59.263  13.7128 59.263  C 13.7128 59.263  14.0525 58.5897  14.0525 58.5897  C 14.0525 58.5897  13.0101 57.3456  13.0101 57.3456  C 13.0101 57.3456  12.811 55.7514  12.811 55.7514  C 12.811 55.7514  13.0979 54.7121  13.0979 54.7121  C 13.0979 54.7121  12.1376 54.9221  12.1376 54.9221  C 12.1376 54.9221  10.9663 54.5775  10.9663 54.5775  C 10.9663 54.5775  10.41 53.5437  10.41 53.5437  C 10.41 53.5437  10.615 51.1855  10.615 51.1855  C 10.615 51.1855  12.0673 51.304  12.0673 51.304  C 12.0673 51.304  12.6237 50.5664  12.6237 50.5664  C 12.6237 50.5664  12.0439 49.8828  12.0439 49.8828  C 12.0439 49.8828  11.0424 49.7267  11.0424 49.7267  C 11.0424 49.7267  9.33839999999998 50.0981  9.33839999999998 50.0981  C 9.33839999999998 50.0981  8.7586 49.4521  8.7586 49.4521  C 8.7586 49.4521  9.50229999999999 49.3983  9.50229999999999 49.3983  C 9.50229999999999 49.3983  9.94159999999999 48.4887  9.94159999999999 48.4887  C 9.94159999999999 48.4887  8.66489999999999 48.3164  8.66489999999999 48.3164  C 8.66489999999999 48.3164  8.14370000000002 47.4122  8.14370000000002 47.4122  C 8.14370000000002 47.4122  7.2595 47.3046  7.2595 47.3046  C 7.2595 47.3046  6.86709999999999 46.5189  6.86709999999999 46.5189  C 6.86709999999999 46.5189  5.85399999999999 45.6633  5.85399999999999 45.6633  C 5.85399999999999 45.6633  5.47329999999999 44.1512  5.47329999999999 44.1512  C 5.47329999999999 44.1512  4.19080000000002 43.5163  4.19080000000002 43.5163  C 4.19080000000002 43.5163  3.51159999999999 40.9716  3.51159999999999 40.9716  C 3.51159999999999 40.9716  2.77370000000002 40.536  2.77370000000002 40.536  C 2.77370000000002 40.536  3.62860000000001 38.8254  3.62860000000001 38.8254  C 3.62860000000001 38.8254  3.19529999999997 38.2016  3.19529999999997 38.2016  C 3.19529999999997 38.2016  3.28899999999999 36.5237  3.28899999999999 36.5237  C 3.28899999999999 36.5237  2.06509999999997 35.7171  2.06509999999997 35.7171  C 2.06509999999997 35.7171  1.35059999999999 35.7494  1.35059999999999 35.7494  C 1.35059999999999 35.7494  1.19839999999999 35.0664  1.19839999999999 35.0664  C 1.19839999999999 35.0664  0.0681999999999903 35.1471  0.0681999999999903 35.1471  C 0.0681999999999903 35.1471  0.0154999999999745 33.889  0.0154999999999745 33.889  C 0.0154999999999745 33.889  0.68889999999999 33.475  0.68889999999999 33.475  C 0.68889999999999 33.475  0.858699999999999 32.6471  0.858699999999999 32.6471  C 0.858699999999999 32.6471  0.173600000000022 31.8138  0.173600000000022 31.8138  C 0.173600000000022 31.8138  1.78980000000001 31.8891  1.78980000000001 31.8891  C 1.78980000000001 31.8891  2.39299999999997 29.4542  2.39299999999997 29.4542  C 2.39299999999997 29.4542  4.99310000000003 28.8629  4.99310000000003 28.8629  C 4.99310000000003 28.8629  6.19369999999998 27.3313  6.19369999999998 27.3313  C 6.19369999999998 27.3313  6.4513 25.7784  6.4513 25.7784  C 6.4513 25.7784  7.32389999999998 25.6655  7.32389999999998 25.6655  C 7.32389999999998 25.6655  7.90940000000001 24.3492  7.90940000000001 24.3492  C 7.90940000000001 24.3492  9.16269999999997 24.0752  9.16269999999997 24.0752  C 9.16269999999997 24.0752  9.45549999999997 23.4627  9.45549999999997 23.4627  C 9.45549999999997 23.4627  10.6501 24.0214  10.6501 24.0214  C 10.6501 24.0214  11.0424 23.4574  11.0424 23.4574  C 11.0424 23.4574  11.9443 23.3499  11.9443 23.3499  C 11.9443 23.3499  12.1902 21.4697  12.1902 21.4697  C 12.1902 21.4697  13.9237 20.9326  13.9237 20.9326  C 13.9237 20.9326  15.0187 19.4073  15.0187 19.4073  C 15.0187 19.4073  15.3702 19.375  15.3702 19.375  C 15.3702 19.375  14.7786 20.9326  14.7786 20.9326  C 14.7786 20.9326  15.4111 20.9487  15.4111 20.9487  C 15.4111 20.9487  15.9206 21.9962  15.9206 21.9962  C 15.9206 21.9962  16.1139 21.2227  16.1139 21.2227  C 16.1139 21.2227  16.9571 20.0947  16.9571 20.0947  C 16.9571 20.0947  18.6027 19.6221  18.6027 19.6221  C 18.6027 19.6221  18.3216 18.7897  18.3216 18.7897  C 18.3216 18.7897  16.8634 17.823  16.8634 17.823  C 16.8634 17.823  17.6658 16.8242  17.6658 16.8242  C 17.6658 16.8242  16.717 15.7987  16.717 15.7987  C 16.717 15.7987  17.0977 14.6712  17.0977 14.6712  C 17.0977 14.6712  18.0112 14.1022  18.0112 14.1022  C 18.0112 14.1022  18.4329 12.3951  18.4329 12.3951  C 18.4329 12.3951  17.8766 11.5846  17.8766 11.5846  C 17.8766 11.5846  17.6658 10.2857  17.6658 10.2857  C 17.6658 10.2857  17.2148 9.87790000000001  17.2148 9.87790000000001  C 17.2148 9.87790000000001  17.2793 8.005  17.2793 8.005  C 17.2793 8.005  16.7873 6.79230000000001  16.7873 6.79230000000001  C 16.7873 6.79230000000001  17.1738 6.26650000000001  17.1738 6.26650000000001  C 17.1738 6.26650000000001  18.3568 3.32140000000001  18.3568 3.32140000000001  C 18.3568 3.32140000000001  19.7037 3.82560000000001  19.7037 3.82560000000001  C 19.7037 3.82560000000001  19.7974 4.49080000000001  19.7974 4.49080000000001  C 19.7974 4.49080000000001  22.9596 3.9436  22.9596 3.9436  C 22.9596 3.9436  23.1763 3.30529999999999  23.1763 3.30529999999999  C 23.1763 3.30529999999999  24.9332 2.85460000000001  24.9332 2.85460000000001  C 24.9332 2.85460000000001  26.1043 2.9136  26.1043 2.9136  C 26.1043 2.9136  26.526 1.5137  26.526 1.5137  C 26.526 1.5137  27.34 0.918399999999991  27.34 0.918399999999991  C 27.34 0.918399999999991  28.2711 1.24029999999999  28.2711 1.24029999999999  C 28.2711 1.24029999999999  28.6869 2.39869999999999  28.6869 2.39869999999999  C 28.6869 2.39869999999999  29.454 2.7689  29.454 2.7689  C 29.454 2.7689  30.3207 2.27000000000001  30.3207 2.27000000000001  C 30.3207 2.27000000000001  30.6018 2.6294  30.6018 2.6294  C 30.6018 2.6294  32.2416 2.7045  32.2416 2.7045  C 32.2416 2.7045  32.6866 2.0555  32.6866 2.0555  C 32.6866 2.0555  33.7876 1.59950000000001  33.7876 1.59950000000001  C 33.7876 1.59950000000001  34.1389 0.838099999999997  34.1389 0.838099999999997  C 34.1389 0.838099999999997  34.789 0.913000000000011  34.789 0.913000000000011  C 34.789 0.913000000000011  34.7831 2.0341  34.7831 2.0341  C 34.7831 2.0341  33.2019 2.8493  33.2019 2.8493  C 33.2019 2.8493  33.4772 3.43940000000001  33.4772 3.43940000000001  C 33.4772 3.43940000000001  32.9619 3.9436  32.9619 3.9436  C 32.9619 3.9436  32.1069 5.88560000000001  32.1069 5.88560000000001  C 32.1069 5.88560000000001  33.0204 6.30940000000001  33.0204 6.30940000000001  C 33.0204 6.30940000000001  34.1272 5.84809999999999  34.1272 5.84809999999999  C 34.1272 5.84809999999999  34.5254 6.68510000000001  34.5254 6.68510000000001  C 34.5254 6.68510000000001  35.3863 6.8621  35.3863 6.8621  C 35.3863 6.8621  36.0363 6.4221  36.0363 6.4221  C 36.0363 6.4221  37.1841 7.84399999999999  37.1841 7.84399999999999  C 37.1841 7.84399999999999  38.5954 7.54349999999999  38.5954 7.54349999999999  C 38.5954 7.54349999999999  39.3509 6.9211  39.3509 6.9211  C 39.3509 6.9211  40.7563 8.20349999999999  40.7563 8.20349999999999  C 40.7563 8.20349999999999  40.4693 9.1748  40.4693 9.1748  C 40.4693 9.1748  41.2482 10.0711  41.2482 10.0711  C 41.2482 10.0711  40.2937 10.3823  40.2937 10.3823  C 40.2937 10.3823  39.2571 11.7671  39.2571 11.7671  C 39.2571 11.7671  38.9995 13.8606  38.9995 13.8606  C 38.9995 13.8606  39.4387 16.2819  39.4387 16.2819  C 39.4387 16.2819  40.077 16.3625  40.077 16.3625  C 40.077 16.3625  40.2059 17.4793  40.2059 17.4793  C 40.2059 17.4793  40.6802 18.0325  40.6802 18.0325  C 40.6802 18.0325  39.8428 20.1538  39.8428 20.1538  C 39.8428 20.1538  40.118 22.0929  40.118 22.0929  C 40.118 22.0929  41.3185 22.5011  41.3185 22.5011  C 41.3185 22.5011  41.1721 23.6776  41.1721 23.6776  C 41.1721 23.6776  42.2028 24.7521  42.2028 24.7521  C 42.2028 24.7521  42.9524 22.7966  42.9524 22.7966  C 42.9524 22.7966  43.7137 23.3499  43.7137 23.3499  C 43.7137 23.3499  44.9961 26.5145  44.9961 26.5145  C 44.9961 26.5145  46.2201 26.3371  46.2201 26.3371  C 46.2201 26.3371  46.4367 27.6376  46.4367 27.6376  C 46.4367 27.6376  47.6489 28.6157  47.6489 28.6157  C 47.6489 28.6157  50.1729 27.0088  50.1729 27.0088  C 50.1729 27.0088  51.7307 27.4334  51.7307 27.4334  C 51.7307 27.4334  53.1947 28.519  53.1947 28.519  C 53.1947 28.519  53.7861 30.5667  53.7861 30.5667  C 53.7861 30.5667  54.5592 30.7495  54.5592 30.7495  C 54.5592 30.7495  55.7304 34.3029  55.7304 34.3029  C 55.7304 34.3029  56.5853 35.2762  56.5853 35.2762  C 56.5853 35.2762  56.0817 36.9969  56.0817 36.9969  C 56.0817 36.9969  56.5795000000001 37.895  56.5795000000001 37.895  C 56.5795000000001 37.895  56.398 38.5405  56.398 38.5405  C 56.398 38.5405  57.3877 39.6216  57.3877 39.6216  C 57.3877 39.6216  57.3935 40.5198  57.3935 40.5198  C 57.3935 40.5198  58.2602000000001 41.4612  58.2602000000001 41.4612  C 58.2602000000001 41.4612  58.5706 41.2568  58.5706 41.2568  C 58.5706 41.2568  59.9116 42.1014  59.9116 42.1014  C 59.9116 42.1014  60.7315 43.2258  60.7315 43.2258  C 60.7315 43.2258  60.3742999999999 43.9736  60.3742999999999 43.9736  C 60.3742999999999 43.9736  62.6685 44.7485  62.6685 44.7485  C 62.6685 44.7485  62.7797 42.6931  62.7797 42.6931  C 62.7797 42.6931  63.6757 42.7738  63.6757 42.7738  C 63.6757 42.7738  63.8924 41.9776  63.8924 41.9776  C 63.8924 41.9776  65.1104 41.3213  65.1104 41.3213  C 65.1104 41.3213  65.5907 44.0974  65.5907 44.0974  C 65.5907 44.0974  66.756 44.7378  66.756 44.7378  C 66.756 44.7378  67.9096 44.4256  67.9096 44.4256  C 67.9096 44.4256  68.4133 45.6256  68.4133 45.6256  C 68.4133 45.6256  67.4059999999999 46.8795  67.4059999999999 46.8795  C 67.4059999999999 46.8795  67.1835 48.3433  67.1835 48.3433  C 67.1835 48.3433  68.384 50.7387  68.384 50.7387  C 68.384 50.7387  68.2903 51.74  68.2903 51.74  C 68.2903 51.74  66.6799 52.2892  66.6799 52.2892  C 66.6799 52.2892  65.9655 53.0913  65.9655 53.0913  C 65.9655 53.0913  64.109 56.1877  64.109 56.1877  C 64.109 56.1877  63.3712 57.1139  63.3712 57.1139  C 63.3712 57.1139  64.7415 58.2288  64.7415 58.2288  C 64.7415 58.2288  64.9055 56.7046  64.9055 56.7046  C 64.9055 56.7046  65.4501 57.5772  65.4501 57.5772  C 65.4501 57.5772  65.8835 56.9308  65.8835 56.9308  C 65.8835 56.9308  67.447 56.5376  67.447 56.5376  C 67.447 56.5376  69.0809 57.4802  69.0809 57.4802  C 69.0809 57.4802  67.9915999999999 58.5736  67.9915999999999 58.5736  C 67.9915999999999 58.5736  68.5245 59.0098  68.5245 59.0098  C 68.5245 59.0098  68.794 61.2185  68.794 61.2185  C 68.794 61.2185  68.3137 61.3586  68.3137 61.3586  C 68.3137 61.3586  70.0296 62.1344  70.0296 62.1344  C 70.0296 62.1344  69.7192 63.2228  69.7192 63.2228  C 69.7192 63.2228  70.6035000000001 64.1981  70.6035000000001 64.1981  C 70.6035000000001 64.1981  70.6152 65.2866  70.6152 65.2866  C 70.6152 65.2866  71.1891000000001 64.6022  71.1891000000001 64.6022  C 71.1891000000001 64.6022  71.3297 65.2112  71.3297 65.2112  C 71.3297 65.2112  72.6707 65.1681  72.6707 65.1681  C 72.6707 65.1681  73.2212 66.6124  73.2212 66.6124  C 73.2212 66.6124  74.3631 66.731  74.3631 66.731  C 74.3631 66.731  74.5915 68.6229  74.5915 68.6229  C 74.5915 68.6229  73.7482 70.2024  73.7482 70.2024  C 73.7482 70.2024  74.5622 70.6391  74.5622 70.6391  C 74.5622 70.6391  74.6383 71.5879  74.6383 71.5879  C 74.6383 71.5879  75.1420000000001 71.5394  75.1420000000001 71.5394  C 75.1420000000001 71.5394  75.1420000000001 72.5315  75.1420000000001 72.5315  C 75.1420000000001 72.5315  75.6338 75.2462  75.6338 75.2462  C 75.6338 75.2462  75.1009 75.5967  75.1009 75.5967  C 75.1009 75.5967  74.8492 76.7886  74.8492 76.7886  C 74.8492 76.7886  75.1068 78.5685  75.1068 78.5685  C 75.1068 78.5685  76.3366 78.7249  76.3366 78.7249  C 76.3366 78.7249  76.4771 79.3129  76.4771 79.3129  C 76.4771 79.3129  78.2397999999999 80.8719  78.2397999999999 80.8719  C 78.2397999999999 80.8719  78.7786 82.1667  78.7786 82.1667  C 78.7786 82.1667  79.9965999999999 82.8303  79.9965999999999 82.8303  C 79.9965999999999 82.8303  80.5003 81.5893  80.5003 81.5893  C 80.5003 81.5893  81.408 80.327  81.408 80.327  C 81.408 80.327  80.881 79.3021  80.881 79.3021  C 80.881 79.3021  80.7287 78.1639  80.7287 78.1639  C 80.7287 78.1639  81.9526 76.9612  81.9526 76.9612  C 81.9526 76.9612  82.2337 75.1006  82.2337 75.1006  C 82.2337 75.1006  83.7036000000001 74.5398  83.7036000000001 74.5398  C 83.7036000000001 74.5398  83.3991 72.6986  83.3991 72.6986  C 83.3991 72.6986  84.6874 70.6984  84.6874 70.6984  C 84.6874 70.6984  84.6874 68.5205  84.6874 68.5205  C 84.6874 68.5205  85.2496 66.5908  85.2496 66.5908  C 85.2496 66.5908  84.9684999999999 66.4669  84.9684999999999 66.4669  C 84.9684999999999 66.4669  84.787 64.155  84.787 64.155  C 84.787 64.155  85.5658 64.1712  85.5658 64.1712  C 85.5658 64.1712  87.1645 62.9912  87.1645 62.9912  C 87.1645 62.9912  87.9083000000001 63.6485  87.9083000000001 63.6485  C 87.9083000000001 63.6485  87.4632 65.0872  87.4632 65.0872  C 87.4632 65.0872  88.4997 65.3783  88.4997 65.3783  C 88.4997 65.3783  89.2142 66.7148  89.2142 66.7148  C 89.2142 66.7148  89.6065 66.386  89.6065 66.386  C 89.6065 66.386  89.22 67.852  89.22 67.852  C 89.22 67.852  89.7529 68.6768  89.7529 68.6768  C 89.7529 68.6768  90.8304000000001 68.4342  90.8304000000001 68.4342  C 90.8304000000001 68.4342  91.1935 66.6986  91.1935 66.6986  C 91.1935 66.6986  91.9958 65.61  91.9958 65.61  C 91.9958 65.61  91.9782 64.807  91.9782 64.807  C 91.9782 64.807  93.8405 65.125  93.8405 65.125  C 93.8405 65.125  95.1581 66.0088  95.1581 66.0088  C 95.1581 66.0088  95.7203 65.9442  95.7203 65.9442  C 95.7203 65.9442  96.1126 64.9094  96.1126 64.9094  C 96.1126 64.9094  96.7334 64.9579  96.7334 64.9579  C 96.7334 64.9579  97.4127 63.5245  97.4127 63.5245  C 97.4127 63.5245  98.1271 63.6323  98.1271 63.6323  C 98.1271 63.6323  99.0934 62.3984  99.0934 62.3984  C 99.0934 62.3984  100.1006 62.0374  100.1006 62.0374  C 100.1006 62.0374  100.7799 61.1593  100.7799 61.1593  C 100.7799 61.1593  102.2322 61.9081  102.2322 61.9081  C 102.2322 61.9081  103.4679 61.7519  103.4679 61.7519  C 103.4679 61.7519  104.3522 61.0946  104.3522 61.0946  C 104.3522 61.0946  104.3112 60.2273  104.3112 60.2273  C 104.3112 60.2273  104.9085 59.8502  104.9085 59.8502  C 104.9085 59.8502  105.9157 60.2973  105.9157 60.2973  C 105.9157 60.2973  106.5365 59.8718  106.5365 59.8718  C 106.5365 59.8718  107.1573 60.2166  107.1573 60.2166  C 107.1573 60.2166  108.3753 59.5  108.3753 59.5  C 108.3753 59.5  109.4235 59.4085  109.4235 59.4085  C 109.4235 59.4085  109.8335 60.2865  109.8335 60.2865  C 109.8335 60.2865  111.684 59.5  111.684 59.5  C 111.684 59.5  112.6444 60.3727  112.6444 60.3727  C 112.6444 60.3727  114.0206 62.2637  114.0206 62.2637  C 114.0206 62.2637  114.8229 61.9297  114.8229 61.9297  C 114.8229 61.9297  114.6062 63.3736  114.6062 63.3736  C 114.6062 63.3736  114.8815 63.5784  114.8815 63.5784  C 114.8815 63.5784  114.6355 65.5938  114.6355 65.5938  C 114.6355 65.5938  115.1801 67.2915  115.1801 67.2915  C 115.1801 67.2915  117.0189 65.8202  117.0189 65.8202  C 117.0189 65.8202  117.8387 66.3752  117.8387 66.3752  C 117.8387 66.3752  118.0379 67.2323  118.0379 67.2323  C 118.0379 67.2323  119.1212 67.5826  119.1212 67.5826  C 119.1212 67.5826  119.3965 68.1216  119.3965 68.1216  C 119.3965 68.1216  120.2632 67.8089  120.2632 67.8089  C 120.2632 67.8089  120.8136 69.135  120.8136 69.135  C 120.8136 69.135  121.6101 69.2913  121.6101 69.2913  C 121.6101 69.2913  122.102 70.5043  122.102 70.5043  C 122.102 70.5043  122.2601 74.1893  122.2601 74.1893  C 122.2601 74.1893  123.4723 74.831  123.4723 74.831  C 123.4723 74.831  123.9291 75.5913  123.9291 75.5913  C 123.9291 75.5913  122.7345 75.4242  122.7345 75.4242  C 122.7345 75.4242  122.2367 76.1684  122.2367 76.1684  C 122.2367 76.1684  122.3362 77.2686  122.3362 77.2686  C 122.3362 77.2686  121.0889 77.2309  121.0889 77.2309  C 121.0889 77.2309  120.1812 78.768  120.1812 78.768  C 120.1812 78.768  117.5928 79.89  117.5928 79.89  C 117.5928 79.89  117.177 82.3177  117.177 82.3177  C 117.177 82.3177  116.2869 83.4293  116.2869 83.4293  C 116.2869 83.4293  115.6603 83.0084  115.6603 83.0084  C 115.6603 83.0084  115.2445 83.6073  115.2445 83.6073  C 115.2445 83.6073  113.9327 83.2674  113.9327 83.2674  C 113.9327 83.2674  113.0953 83.6289  113.0953 83.6289  C 113.0953 83.6289  112.9548 84.8808  112.9548 84.8808  C 112.9548 84.8808  113.2358 85.863  113.2358 85.863  C 113.2358 85.863  112.9313 86.9316  112.9313 86.9316  C 112.9313 86.9316  113.4174 87.6602  113.4174 87.6602  C 113.4174 87.6602  113.6107 89.9328  113.6107 89.9328  C 113.6107 89.9328  111.5025 90.3539  111.5025 90.3539  C 111.5025 90.3539  111.7484 91.0989  111.7484 91.0989  C 111.7484 91.0989  110.6533 92.1733  110.6533 92.1733  C 110.6533 92.1733  110.22 93.372  110.22 93.372  C 110.22 93.372  108.7735 94.1874  108.7735 94.1874  C 108.7735 94.1874  108.2992 94.0902  108.2992 94.0902  C 108.2992 94.0902  106.8937 95.2027  106.8937 95.2027  C 106.8937 95.2027  106.273 95.0191  106.273 95.0191  C 106.273 95.0191  105.2188 95.559  105.2188 95.559  C 105.2188 95.559  104.1121 96.9093  104.1121 96.9093  C 104.1121 96.9093  103.9129 98.3893  103.9129 98.3893  C 103.9129 98.3893  102.8003 99.6317  102.8003 99.6317  C 102.8003 99.6317  102.6539 100.5718  102.6539 100.5718  C 102.6539 100.5718  101.3245 99.3347  101.3245 99.3347  C 101.3245 99.3347  99.9133 98.6918  99.9133 98.6918  C 99.9133 98.6918  99.0231 100.0531  99.0231 100.0531  C 99.0231 100.0531  97.9983 98.8809  97.9983 98.8809  C 97.9983 98.8809  97.155 99.6965  97.155 99.6965  C 97.155 99.6965  97.237 100.1558  97.237 100.1558  C 97.237 100.1558  96.1946 100.2692  96.1946 100.2692  C 96.1946 100.2692  95.0937 103.0464  95.0937 103.0464  C 95.0937 103.0464  94.7599 102.733  94.7599 102.733  C 94.7599 102.733  92.9621 104.2028  92.9621 104.2028  C 92.9621 104.2028  92.2008 104.1596  92.2008 104.1596  C 92.2008 104.1596  91.4278 104.8135  91.4278 104.8135  C 91.4278 104.8135  91.2637999999999 105.916  91.2637999999999 105.916  C 91.2637999999999 105.916  90.3853 106.2835  90.3853 106.2835  C 90.3853 106.2835  89.5948 105.916  89.5948 105.916  C 89.5948 105.916  88.8277000000001 107.1375  88.8277000000001 107.1375  C 88.8277000000001 107.1375  87.8789 106.9375  87.8789 106.9375  C 87.8789 106.9375  87.3285 107.8834  87.3285 107.8834  C 87.3285 107.8834  86.1104 107.7483  86.1104 107.7483  C 86.1104 107.7483  85.15 109.143  85.15 109.143  C 85.15 109.143  85.7942 109.7701  85.7942 109.7701  C 85.7942 109.7701  85.7825 110.8297  85.7825 110.8297  C 85.7825 110.8297  86.9419 112.1544  86.9419 112.1544  C 86.9419 112.1544  86.7722 112.906  86.7722 112.906  C 86.7722 112.906  85.7064 113.0845  85.7064 113.0845  C 85.7064 113.0845  86.2627 114.0308  86.2627 114.0308  C 86.2627 114.0308  85.9289 114.9773  85.9289 114.9773  C 85.9289 114.9773  86.21 115.9237  86.21 115.9237  C 86.21 115.9237  86.8893 115.7182  86.8893 115.7182  C 86.8893 115.7182  87.6213 116.5079  87.6213 116.5079  C 87.6213 116.5079  87.6564 118.4011  87.6564 118.4011  C 87.6564 118.4011  87.1821 119.0881  87.1821 119.0881  C 87.1821 119.0881  87.8204 120.5975  87.8204 120.5975  C 87.8204 120.5975  89.4659 121.263  89.4659 121.263  C 89.4659 121.263  89.7295 122.4264  89.7295 122.4264  C 89.7295 122.4264  90.8421 122.9945  90.8421 122.9945  C 90.8421 122.9945  91.4161 122.7402  91.4161 122.7402  C 91.4161 122.7402  91.0060999999999 124.6938  91.0060999999999 124.6938  C 91.0060999999999 124.6938  91.9782 126.0848  91.9782 126.0848  C 91.9782 126.0848  92.1832000000001 127.254  92.1832000000001 127.254  C 92.1832000000001 127.254  93.1963 128.4449  93.1963 128.4449  C 93.1963 128.4449  93.4305000000001 130.0149  93.4305000000001 130.0149  C 93.4305000000001 130.0149  92.0836 130.4317  92.0836 130.4317  C 92.0836 130.4317  91.2696999999999 131.9587  91.2696999999999 131.9587  C 91.2696999999999 131.9587  89.4718 133.4478  89.4718 133.4478  C 89.4718 133.4478  87.2523 135.7875  87.2523 135.7875  C 87.2523 135.7875  86.6726 136.6162  86.6726 136.6162  C 86.6726 136.6162  85.6419 139.314  85.6419 139.314  C 85.6419 139.314  85.5658 141.6112  85.5658 141.6112  C 85.5658 141.6112  85.8819999999999 144.6515  85.8819999999999 144.6515  C 85.8819999999999 144.6515  85.7239 145.3506  85.7239 145.3506  C 85.7239 145.3506  84.8923 145.9468  84.8923 145.9468  C 84.8923 145.9468  82.5382 146.5105  82.5382 146.5105  C 82.5382 146.5105  82.6787 143.5621  82.6787 143.5621  C 82.6787 143.5621  81.894 141.4053  81.894 141.4053  C 81.894 141.4053  79.4169000000001 141.4053  79.4169000000001 141.4053  C 79.4169000000001 141.4053  76.647 141.9635  76.647 141.9635  C 76.647 141.9635  72.126 142.2941  72.126 142.2941  C 72.126 142.2941  71.4878 139.7745  71.4878 139.7745  C 71.4878 139.7745  71.8391 138.3659  71.8391 138.3659  C 71.8391 138.3659  71.6342 136.5025  71.6342 136.5025  C 71.6342 136.5025  70.6913 135.1971  70.6913 135.1971  C 70.6913 135.1971  70.8377 133.1283  70.8377 133.1283  C 70.8377 133.1283  71.4467 131.6555  71.4467 131.6555  C 71.4467 131.6555  71.1013 128.2717  71.1013 128.2717  C 71.1013 128.2717  71.5111000000001 126.7452  71.5111000000001 126.7452  C 71.5111000000001 126.7452  72.5125 124.1472  72.5125 124.1472  C 72.5125 124.1472  72.3193 123.7143  72.3193 123.7143  C 72.3193 123.7143  70.9021 122.9783  70.9021 122.9783  C 70.9021 122.9783  69.2449 121.3009  69.2449 121.3009  C 69.2449 121.3009  68.1673 121.658  68.1673 121.658  C 68.1673 121.658  68.0268 122.6428  68.0268 122.6428  C 68.0268 122.6428  67.4353 123.5898  67.4353 123.5898  C 67.4353 123.5898  59.9995 127.1024  59.9995 127.1024  C 59.9995 127.1024  59.4255000000001 128.0768  59.4255000000001 128.0768  C 59.4255000000001 128.0768  60.2103 128.8888  60.2103 128.8888  C 60.2103 128.8888  60.4913 130.6808  60.4913 130.6808  C 60.4913 130.6808  59.8179 131.0924  59.8179 131.0924  C 59.8179 131.0924  56.6908 131.9912  56.6908 131.9912  C 56.6908 131.9912  54.688 133.7294  54.688 133.7294  Z M 65.3682 144.4454  C 65.3682 144.4454  64.7239 142.0798  64.7239 142.0798  C 64.7239 142.0798  63.0445999999999 143.1936  63.0445999999999 143.1936  C 63.0445999999999 143.1936  62.7811 140.8768  62.7811 140.8768  C 62.7811 140.8768  65.2803 141.9118  65.2803 141.9118  C 65.2803 141.9118  65.3682 144.4454  65.3682 144.4454  Z M 62.8104 155.2727  C 62.8104 155.2727  62.0784 155.8585  62.0784 155.8585  C 62.0784 155.8585  61.4166 153.0416  61.4166 153.0416  C 61.4166 153.0416  62.2951000000001 152.8626  62.2951000000001 152.8626  C 62.2951000000001 152.8626  65.2393 153.4375  65.2393 153.4375  C 65.2393 153.4375  64.8469 155.2456  64.8469 155.2456  C 64.8469 155.2456  62.8104 155.2727  62.8104 155.2727  Z M 60.8545 134.1356  C 60.8545 134.1356  60.6261 132.2637  60.6261 132.2637  C 60.6261 132.2637  62.241 132.3395  62.241 132.3395  C 62.241 132.3395  60.8545 134.1356  60.8545 134.1356  Z M 78.2529 150.403  C 78.2529 150.403  78.2061 148.3891  78.2061 148.3891  C 78.2061 148.3891  78.657 147.9011  78.657 147.9011  C 78.657 147.9011  80.4007 148.2047  80.4007 148.2047  C 80.4007 148.2047  78.2529 150.403  78.2529 150.403  Z M 63.5424 133.8269  C 63.5424 133.8269  63.6419 131.7655  63.6419 131.7655  C 63.6419 131.7655  64.9582 133.8973  64.9582 133.8973  C 64.9582 133.8973  63.5424 133.8269  63.5424 133.8269  Z M 69.0999 140.5895  C 69.0999 140.5895  70.5625 142.695  70.5625 142.695  C 70.5625 142.695  68.9768 142.4349  68.9768 142.4349  C 68.9768 142.4349  69.0999 140.5895  69.0999 140.5895  Z M 64.7239 157.871  C 64.7239 157.871  63.0212 157.8059  63.0212 157.8059  C 63.0212 157.8059  65.0109 155.2002  65.0109 155.2002  C 65.0109 155.2002  65.4208 155.3087  65.4208 155.3087  C 65.4208 155.3087  64.7239 157.871  64.7239 157.871  Z " fill-rule="evenodd" />
    </mask>
  </defs>
  <g transform="matrix(1 0 0 1 -494 -258 )">
    <path d="M 54.688 133.7294  C 54.688 133.7294  53.3294 134.2331  53.3294 134.2331  C 53.3294 134.2331  52.6735 133.4478  52.6735 133.4478  C 52.6735 133.4478  50.8464 133.4803  50.8464 133.4803  C 50.8464 133.4803  50.5653 134.1193  50.5653 134.1193  C 50.5653 134.1193  48.6679 133.2962  48.6679 133.2962  C 48.6679 133.2962  48.381 133.7673  48.381 133.7673  C 48.381 133.7673  47.0224 134.2168  47.0224 134.2168  C 47.0224 134.2168  46.7354 132.6031  46.7354 132.6031  C 46.7354 132.6031  47.7426 132.0508  47.7426 132.0508  C 47.7426 132.0508  48.0472 131.3577  48.0472 131.3577  C 48.0472 131.3577  47.7953 130.4805  47.7953 130.4805  C 47.7953 130.4805  46.6007 130.2422  46.6007 130.2422  C 46.6007 130.2422  46.1557 128.8076  46.1557 128.8076  C 46.1557 128.8076  45.2889 128.8509  45.2889 128.8509  C 45.2889 128.8509  44.8439 127.7953  44.8439 127.7953  C 44.8439 127.7953  45.6462 126.5395  45.6462 126.5395  C 45.6462 126.5395  45.6579 124.9103  45.6579 124.9103  C 45.6579 124.9103  45.9799 123.4762  45.9799 123.4762  C 45.9799 123.4762  44.9435 121.9502  44.9435 121.9502  C 44.9435 121.9502  44.3051 122.356  44.3051 122.356  C 44.3051 122.356  44.188 124.1418  44.188 124.1418  C 44.188 124.1418  43.6726 124.407  43.6726 124.407  C 43.6726 124.407  41.9568 123.5032  41.9568 123.5032  C 41.9568 123.5032  41.219 123.6223  41.219 123.6223  C 41.219 123.6223  41.0784 122.2694  41.0784 122.2694  C 41.0784 122.2694  40.2059 121.7121  40.2059 121.7121  C 40.2059 121.7121  40.85 121.0953  40.85 121.0953  C 40.85 121.0953  41.0022 119.3694  41.0022 119.3694  C 41.0022 119.3694  39.2747 119.0989  39.2747 119.0989  C 39.2747 119.0989  38.3612 119.3748  38.3612 119.3748  C 38.3612 119.3748  38.0508 120.0295  38.0508 120.0295  C 38.0508 120.0295  36.5106 119.6994  36.5106 119.6994  C 36.5106 119.6994  35.7845 119.2017  35.7845 119.2017  C 35.7845 119.2017  35.6323 119.8022  35.6323 119.8022  C 35.6323 119.8022  33.9984 121.9015  33.9984 121.9015  C 33.9984 121.9015  33.1844 121.9123  33.1844 121.9123  C 33.1844 121.9123  32.7803 120.9979  32.7803 120.9979  C 32.7803 120.9979  31.9722 120.7598  31.9722 120.7598  C 31.9722 120.7598  31.5329 118.7689  31.5329 118.7689  C 31.5329 118.7689  31.8902 118.3199  31.8902 118.3199  C 31.8902 118.3199  32.0249 115.9832  32.0249 115.9832  C 32.0249 115.9832  31.8316 115.7344  31.8316 115.7344  C 31.8316 115.7344  31.9605 113.6307  31.9605 113.6307  C 31.9605 113.6307  31.6852 111.8624  31.6852 111.8624  C 31.6852 111.8624  32.1244 111.2947  32.1244 111.2947  C 32.1244 111.2947  32.7276 111.8408  32.7276 111.8408  C 32.7276 111.8408  33.2547 111.4515  33.2547 111.4515  C 33.2547 111.4515  33.9105 109.8944  33.9105 109.8944  C 33.9105 109.8944  33.8227 109.2403  33.8227 109.2403  C 33.8227 109.2403  33.0614 109.3322  33.0614 109.3322  C 33.0614 109.3322  32.7627 108.6618  32.7627 108.6618  C 32.7627 108.6618  31.574 108.3591  31.574 108.3591  C 31.574 108.3591  30.2973 106.9591  30.2973 106.9591  C 30.2973 106.9591  30.1685 104.3596  30.1685 104.3596  C 30.1685 104.3596  31.1231 103.3652  31.1231 103.3652  C 31.1231 103.3652  31.0118 101.6307  31.0118 101.6307  C 31.0118 101.6307  30.2563 100.9121  30.2563 100.9121  C 30.2563 100.9121  29.3311 101.0256  29.3311 101.0256  C 29.3311 101.0256  27.949 100.1341  27.949 100.1341  C 27.949 100.1341  27.6738 100.7717  27.6738 100.7717  C 27.6738 100.7717  26.1337 101.8793  26.1337 101.8793  C 26.1337 101.8793  25.917 101.3876  25.917 101.3876  C 25.917 101.3876  24.5759 101.0526  24.5759 101.0526  C 24.5759 101.0526  24.1191 100.2368  24.1191 100.2368  C 24.1191 100.2368  23.5277 100.28  23.5277 100.28  C 23.5277 100.28  24.6579 97.2766  24.6579 97.2766  C 24.6579 97.2766  25.5597 97.7249  25.5597 97.7249  C 25.5597 97.7249  25.5012 97.1524  25.5012 97.1524  C 25.5012 97.1524  23.2641 94.7761  23.2641 94.7761  C 23.2641 94.7761  21.8294 93.696  21.8294 93.696  C 21.8294 93.696  21.0154 91.79  21.0154 91.79  C 21.0154 91.79  20.8163 90.0731  20.8163 90.0731  C 20.8163 90.0731  19.0536 89.3335  19.0536 89.3335  C 19.0536 89.3335  17.8239 89.7384  17.8239 89.7384  C 17.8239 89.7384  16.3013 91.0719  16.3013 91.0719  C 16.3013 91.0719  14.8021 91.1691  14.8021 91.1691  C 14.8021 91.1691  13.5079 90.2297  13.5079 90.2297  C 13.5079 90.2297  12.9809 89.2796  12.9809 89.2796  C 12.9809 89.2796  11.7687 88.1245  11.7687 88.1245  C 11.7687 88.1245  11.1713 88.0327  11.1713 88.0327  C 11.1713 88.0327  9.3091 88.7128  9.3091 88.7128  C 9.3091 88.7128  6.80270000000002 87.9409  6.80270000000002 87.9409  C 6.80270000000002 87.9409  5.9828 88.3296  5.9828 88.3296  C 5.9828 88.3296  4.58909999999997 87.0071  4.58909999999997 87.0071  C 4.58909999999997 87.0071  3.57010000000002 87.9895  3.57010000000002 87.9895  C 3.57010000000002 87.9895  2.41640000000001 87.7574  2.41640000000001 87.7574  C 2.41640000000001 87.7574  2.15300000000002 86.8722  2.15300000000002 86.8722  C 2.15300000000002 86.8722  2.5453 84.503  2.5453 84.503  C 2.5453 84.503  3.22460000000001 83.6505  3.22460000000001 83.6505  C 3.22460000000001 83.6505  4.44850000000002 82.8195  4.44850000000002 82.8195  C 4.44850000000002 82.8195  6.04730000000001 82.9059  6.04730000000001 82.9059  C 6.04730000000001 82.9059  6.53910000000002 81.6163  6.53910000000002 81.6163  C 6.53910000000002 81.6163  5.53769999999997 81.4707  5.53769999999997 81.4707  C 5.53769999999997 81.4707  5.1395 80.1382  5.1395 80.1382  C 5.1395 80.1382  5.91840000000002 78.0021  5.91840000000002 78.0021  C 5.91840000000002 78.0021  6.66800000000001 78.0129  6.66800000000001 78.0129  C 6.66800000000001 78.0129  5.61970000000002 74.9982  5.61970000000002 74.9982  C 5.61970000000002 74.9982  6.00619999999998 72.8388  6.00619999999998 72.8388  C 6.00619999999998 72.8388  4.63589999999999 71.7497  4.63589999999999 71.7497  C 4.63589999999999 71.7497  5.63729999999998 69.8681  5.63729999999998 69.8681  C 5.63729999999998 69.8681  5.49680000000001 69.0703  5.49680000000001 69.0703  C 5.49680000000001 69.0703  5.99450000000002 66.607  5.99450000000002 66.607  C 5.99450000000002 66.607  5.56700000000001 64.6238  5.56700000000001 64.6238  C 5.56700000000001 64.6238  6.07060000000001 63.5137  6.07060000000001 63.5137  C 6.07060000000001 63.5137  8.47750000000002 64.0311  8.47750000000002 64.0311  C 8.47750000000002 64.0311  9.3793 63.7293  9.3793 63.7293  C 9.3793 63.7293  10.8785 64.7801  10.8785 64.7801  C 10.8785 64.7801  10.8434 66.5801  10.8434 66.5801  C 10.8434 66.5801  12.2957 67.6096  12.2957 67.6096  C 12.2957 67.6096  12.3542 67.9976  12.3542 67.9976  C 12.3542 67.9976  13.7656 68.3641  13.7656 68.3641  C 13.7656 68.3641  13.7246 67.1514  13.7246 67.1514  C 13.7246 67.1514  12.811 64.9956  12.811 64.9956  C 12.811 64.9956  13.5547 64.7262  13.5547 64.7262  C 13.5547 64.7262  14.0876 63.3521  14.0876 63.3521  C 14.0876 63.3521  13.2971 62.517  13.2971 62.517  C 13.2971 62.517  12.647 60.0172  12.647 60.0172  C 12.647 60.0172  13.7128 59.263  13.7128 59.263  C 13.7128 59.263  14.0525 58.5897  14.0525 58.5897  C 14.0525 58.5897  13.0101 57.3456  13.0101 57.3456  C 13.0101 57.3456  12.811 55.7514  12.811 55.7514  C 12.811 55.7514  13.0979 54.7121  13.0979 54.7121  C 13.0979 54.7121  12.1376 54.9221  12.1376 54.9221  C 12.1376 54.9221  10.9663 54.5775  10.9663 54.5775  C 10.9663 54.5775  10.41 53.5437  10.41 53.5437  C 10.41 53.5437  10.615 51.1855  10.615 51.1855  C 10.615 51.1855  12.0673 51.304  12.0673 51.304  C 12.0673 51.304  12.6237 50.5664  12.6237 50.5664  C 12.6237 50.5664  12.0439 49.8828  12.0439 49.8828  C 12.0439 49.8828  11.0424 49.7267  11.0424 49.7267  C 11.0424 49.7267  9.33839999999998 50.0981  9.33839999999998 50.0981  C 9.33839999999998 50.0981  8.7586 49.4521  8.7586 49.4521  C 8.7586 49.4521  9.50229999999999 49.3983  9.50229999999999 49.3983  C 9.50229999999999 49.3983  9.94159999999999 48.4887  9.94159999999999 48.4887  C 9.94159999999999 48.4887  8.66489999999999 48.3164  8.66489999999999 48.3164  C 8.66489999999999 48.3164  8.14370000000002 47.4122  8.14370000000002 47.4122  C 8.14370000000002 47.4122  7.2595 47.3046  7.2595 47.3046  C 7.2595 47.3046  6.86709999999999 46.5189  6.86709999999999 46.5189  C 6.86709999999999 46.5189  5.85399999999999 45.6633  5.85399999999999 45.6633  C 5.85399999999999 45.6633  5.47329999999999 44.1512  5.47329999999999 44.1512  C 5.47329999999999 44.1512  4.19080000000002 43.5163  4.19080000000002 43.5163  C 4.19080000000002 43.5163  3.51159999999999 40.9716  3.51159999999999 40.9716  C 3.51159999999999 40.9716  2.77370000000002 40.536  2.77370000000002 40.536  C 2.77370000000002 40.536  3.62860000000001 38.8254  3.62860000000001 38.8254  C 3.62860000000001 38.8254  3.19529999999997 38.2016  3.19529999999997 38.2016  C 3.19529999999997 38.2016  3.28899999999999 36.5237  3.28899999999999 36.5237  C 3.28899999999999 36.5237  2.06509999999997 35.7171  2.06509999999997 35.7171  C 2.06509999999997 35.7171  1.35059999999999 35.7494  1.35059999999999 35.7494  C 1.35059999999999 35.7494  1.19839999999999 35.0664  1.19839999999999 35.0664  C 1.19839999999999 35.0664  0.0681999999999903 35.1471  0.0681999999999903 35.1471  C 0.0681999999999903 35.1471  0.0154999999999745 33.889  0.0154999999999745 33.889  C 0.0154999999999745 33.889  0.68889999999999 33.475  0.68889999999999 33.475  C 0.68889999999999 33.475  0.858699999999999 32.6471  0.858699999999999 32.6471  C 0.858699999999999 32.6471  0.173600000000022 31.8138  0.173600000000022 31.8138  C 0.173600000000022 31.8138  1.78980000000001 31.8891  1.78980000000001 31.8891  C 1.78980000000001 31.8891  2.39299999999997 29.4542  2.39299999999997 29.4542  C 2.39299999999997 29.4542  4.99310000000003 28.8629  4.99310000000003 28.8629  C 4.99310000000003 28.8629  6.19369999999998 27.3313  6.19369999999998 27.3313  C 6.19369999999998 27.3313  6.4513 25.7784  6.4513 25.7784  C 6.4513 25.7784  7.32389999999998 25.6655  7.32389999999998 25.6655  C 7.32389999999998 25.6655  7.90940000000001 24.3492  7.90940000000001 24.3492  C 7.90940000000001 24.3492  9.16269999999997 24.0752  9.16269999999997 24.0752  C 9.16269999999997 24.0752  9.45549999999997 23.4627  9.45549999999997 23.4627  C 9.45549999999997 23.4627  10.6501 24.0214  10.6501 24.0214  C 10.6501 24.0214  11.0424 23.4574  11.0424 23.4574  C 11.0424 23.4574  11.9443 23.3499  11.9443 23.3499  C 11.9443 23.3499  12.1902 21.4697  12.1902 21.4697  C 12.1902 21.4697  13.9237 20.9326  13.9237 20.9326  C 13.9237 20.9326  15.0187 19.4073  15.0187 19.4073  C 15.0187 19.4073  15.3702 19.375  15.3702 19.375  C 15.3702 19.375  14.7786 20.9326  14.7786 20.9326  C 14.7786 20.9326  15.4111 20.9487  15.4111 20.9487  C 15.4111 20.9487  15.9206 21.9962  15.9206 21.9962  C 15.9206 21.9962  16.1139 21.2227  16.1139 21.2227  C 16.1139 21.2227  16.9571 20.0947  16.9571 20.0947  C 16.9571 20.0947  18.6027 19.6221  18.6027 19.6221  C 18.6027 19.6221  18.3216 18.7897  18.3216 18.7897  C 18.3216 18.7897  16.8634 17.823  16.8634 17.823  C 16.8634 17.823  17.6658 16.8242  17.6658 16.8242  C 17.6658 16.8242  16.717 15.7987  16.717 15.7987  C 16.717 15.7987  17.0977 14.6712  17.0977 14.6712  C 17.0977 14.6712  18.0112 14.1022  18.0112 14.1022  C 18.0112 14.1022  18.4329 12.3951  18.4329 12.3951  C 18.4329 12.3951  17.8766 11.5846  17.8766 11.5846  C 17.8766 11.5846  17.6658 10.2857  17.6658 10.2857  C 17.6658 10.2857  17.2148 9.87790000000001  17.2148 9.87790000000001  C 17.2148 9.87790000000001  17.2793 8.005  17.2793 8.005  C 17.2793 8.005  16.7873 6.79230000000001  16.7873 6.79230000000001  C 16.7873 6.79230000000001  17.1738 6.26650000000001  17.1738 6.26650000000001  C 17.1738 6.26650000000001  18.3568 3.32140000000001  18.3568 3.32140000000001  C 18.3568 3.32140000000001  19.7037 3.82560000000001  19.7037 3.82560000000001  C 19.7037 3.82560000000001  19.7974 4.49080000000001  19.7974 4.49080000000001  C 19.7974 4.49080000000001  22.9596 3.9436  22.9596 3.9436  C 22.9596 3.9436  23.1763 3.30529999999999  23.1763 3.30529999999999  C 23.1763 3.30529999999999  24.9332 2.85460000000001  24.9332 2.85460000000001  C 24.9332 2.85460000000001  26.1043 2.9136  26.1043 2.9136  C 26.1043 2.9136  26.526 1.5137  26.526 1.5137  C 26.526 1.5137  27.34 0.918399999999991  27.34 0.918399999999991  C 27.34 0.918399999999991  28.2711 1.24029999999999  28.2711 1.24029999999999  C 28.2711 1.24029999999999  28.6869 2.39869999999999  28.6869 2.39869999999999  C 28.6869 2.39869999999999  29.454 2.7689  29.454 2.7689  C 29.454 2.7689  30.3207 2.27000000000001  30.3207 2.27000000000001  C 30.3207 2.27000000000001  30.6018 2.6294  30.6018 2.6294  C 30.6018 2.6294  32.2416 2.7045  32.2416 2.7045  C 32.2416 2.7045  32.6866 2.0555  32.6866 2.0555  C 32.6866 2.0555  33.7876 1.59950000000001  33.7876 1.59950000000001  C 33.7876 1.59950000000001  34.1389 0.838099999999997  34.1389 0.838099999999997  C 34.1389 0.838099999999997  34.789 0.913000000000011  34.789 0.913000000000011  C 34.789 0.913000000000011  34.7831 2.0341  34.7831 2.0341  C 34.7831 2.0341  33.2019 2.8493  33.2019 2.8493  C 33.2019 2.8493  33.4772 3.43940000000001  33.4772 3.43940000000001  C 33.4772 3.43940000000001  32.9619 3.9436  32.9619 3.9436  C 32.9619 3.9436  32.1069 5.88560000000001  32.1069 5.88560000000001  C 32.1069 5.88560000000001  33.0204 6.30940000000001  33.0204 6.30940000000001  C 33.0204 6.30940000000001  34.1272 5.84809999999999  34.1272 5.84809999999999  C 34.1272 5.84809999999999  34.5254 6.68510000000001  34.5254 6.68510000000001  C 34.5254 6.68510000000001  35.3863 6.8621  35.3863 6.8621  C 35.3863 6.8621  36.0363 6.4221  36.0363 6.4221  C 36.0363 6.4221  37.1841 7.84399999999999  37.1841 7.84399999999999  C 37.1841 7.84399999999999  38.5954 7.54349999999999  38.5954 7.54349999999999  C 38.5954 7.54349999999999  39.3509 6.9211  39.3509 6.9211  C 39.3509 6.9211  40.7563 8.20349999999999  40.7563 8.20349999999999  C 40.7563 8.20349999999999  40.4693 9.1748  40.4693 9.1748  C 40.4693 9.1748  41.2482 10.0711  41.2482 10.0711  C 41.2482 10.0711  40.2937 10.3823  40.2937 10.3823  C 40.2937 10.3823  39.2571 11.7671  39.2571 11.7671  C 39.2571 11.7671  38.9995 13.8606  38.9995 13.8606  C 38.9995 13.8606  39.4387 16.2819  39.4387 16.2819  C 39.4387 16.2819  40.077 16.3625  40.077 16.3625  C 40.077 16.3625  40.2059 17.4793  40.2059 17.4793  C 40.2059 17.4793  40.6802 18.0325  40.6802 18.0325  C 40.6802 18.0325  39.8428 20.1538  39.8428 20.1538  C 39.8428 20.1538  40.118 22.0929  40.118 22.0929  C 40.118 22.0929  41.3185 22.5011  41.3185 22.5011  C 41.3185 22.5011  41.1721 23.6776  41.1721 23.6776  C 41.1721 23.6776  42.2028 24.7521  42.2028 24.7521  C 42.2028 24.7521  42.9524 22.7966  42.9524 22.7966  C 42.9524 22.7966  43.7137 23.3499  43.7137 23.3499  C 43.7137 23.3499  44.9961 26.5145  44.9961 26.5145  C 44.9961 26.5145  46.2201 26.3371  46.2201 26.3371  C 46.2201 26.3371  46.4367 27.6376  46.4367 27.6376  C 46.4367 27.6376  47.6489 28.6157  47.6489 28.6157  C 47.6489 28.6157  50.1729 27.0088  50.1729 27.0088  C 50.1729 27.0088  51.7307 27.4334  51.7307 27.4334  C 51.7307 27.4334  53.1947 28.519  53.1947 28.519  C 53.1947 28.519  53.7861 30.5667  53.7861 30.5667  C 53.7861 30.5667  54.5592 30.7495  54.5592 30.7495  C 54.5592 30.7495  55.7304 34.3029  55.7304 34.3029  C 55.7304 34.3029  56.5853 35.2762  56.5853 35.2762  C 56.5853 35.2762  56.0817 36.9969  56.0817 36.9969  C 56.0817 36.9969  56.5795000000001 37.895  56.5795000000001 37.895  C 56.5795000000001 37.895  56.398 38.5405  56.398 38.5405  C 56.398 38.5405  57.3877 39.6216  57.3877 39.6216  C 57.3877 39.6216  57.3935 40.5198  57.3935 40.5198  C 57.3935 40.5198  58.2602000000001 41.4612  58.2602000000001 41.4612  C 58.2602000000001 41.4612  58.5706 41.2568  58.5706 41.2568  C 58.5706 41.2568  59.9116 42.1014  59.9116 42.1014  C 59.9116 42.1014  60.7315 43.2258  60.7315 43.2258  C 60.7315 43.2258  60.3742999999999 43.9736  60.3742999999999 43.9736  C 60.3742999999999 43.9736  62.6685 44.7485  62.6685 44.7485  C 62.6685 44.7485  62.7797 42.6931  62.7797 42.6931  C 62.7797 42.6931  63.6757 42.7738  63.6757 42.7738  C 63.6757 42.7738  63.8924 41.9776  63.8924 41.9776  C 63.8924 41.9776  65.1104 41.3213  65.1104 41.3213  C 65.1104 41.3213  65.5907 44.0974  65.5907 44.0974  C 65.5907 44.0974  66.756 44.7378  66.756 44.7378  C 66.756 44.7378  67.9096 44.4256  67.9096 44.4256  C 67.9096 44.4256  68.4133 45.6256  68.4133 45.6256  C 68.4133 45.6256  67.4059999999999 46.8795  67.4059999999999 46.8795  C 67.4059999999999 46.8795  67.1835 48.3433  67.1835 48.3433  C 67.1835 48.3433  68.384 50.7387  68.384 50.7387  C 68.384 50.7387  68.2903 51.74  68.2903 51.74  C 68.2903 51.74  66.6799 52.2892  66.6799 52.2892  C 66.6799 52.2892  65.9655 53.0913  65.9655 53.0913  C 65.9655 53.0913  64.109 56.1877  64.109 56.1877  C 64.109 56.1877  63.3712 57.1139  63.3712 57.1139  C 63.3712 57.1139  64.7415 58.2288  64.7415 58.2288  C 64.7415 58.2288  64.9055 56.7046  64.9055 56.7046  C 64.9055 56.7046  65.4501 57.5772  65.4501 57.5772  C 65.4501 57.5772  65.8835 56.9308  65.8835 56.9308  C 65.8835 56.9308  67.447 56.5376  67.447 56.5376  C 67.447 56.5376  69.0809 57.4802  69.0809 57.4802  C 69.0809 57.4802  67.9915999999999 58.5736  67.9915999999999 58.5736  C 67.9915999999999 58.5736  68.5245 59.0098  68.5245 59.0098  C 68.5245 59.0098  68.794 61.2185  68.794 61.2185  C 68.794 61.2185  68.3137 61.3586  68.3137 61.3586  C 68.3137 61.3586  70.0296 62.1344  70.0296 62.1344  C 70.0296 62.1344  69.7192 63.2228  69.7192 63.2228  C 69.7192 63.2228  70.6035000000001 64.1981  70.6035000000001 64.1981  C 70.6035000000001 64.1981  70.6152 65.2866  70.6152 65.2866  C 70.6152 65.2866  71.1891000000001 64.6022  71.1891000000001 64.6022  C 71.1891000000001 64.6022  71.3297 65.2112  71.3297 65.2112  C 71.3297 65.2112  72.6707 65.1681  72.6707 65.1681  C 72.6707 65.1681  73.2212 66.6124  73.2212 66.6124  C 73.2212 66.6124  74.3631 66.731  74.3631 66.731  C 74.3631 66.731  74.5915 68.6229  74.5915 68.6229  C 74.5915 68.6229  73.7482 70.2024  73.7482 70.2024  C 73.7482 70.2024  74.5622 70.6391  74.5622 70.6391  C 74.5622 70.6391  74.6383 71.5879  74.6383 71.5879  C 74.6383 71.5879  75.1420000000001 71.5394  75.1420000000001 71.5394  C 75.1420000000001 71.5394  75.1420000000001 72.5315  75.1420000000001 72.5315  C 75.1420000000001 72.5315  75.6338 75.2462  75.6338 75.2462  C 75.6338 75.2462  75.1009 75.5967  75.1009 75.5967  C 75.1009 75.5967  74.8492 76.7886  74.8492 76.7886  C 74.8492 76.7886  75.1068 78.5685  75.1068 78.5685  C 75.1068 78.5685  76.3366 78.7249  76.3366 78.7249  C 76.3366 78.7249  76.4771 79.3129  76.4771 79.3129  C 76.4771 79.3129  78.2397999999999 80.8719  78.2397999999999 80.8719  C 78.2397999999999 80.8719  78.7786 82.1667  78.7786 82.1667  C 78.7786 82.1667  79.9965999999999 82.8303  79.9965999999999 82.8303  C 79.9965999999999 82.8303  80.5003 81.5893  80.5003 81.5893  C 80.5003 81.5893  81.408 80.327  81.408 80.327  C 81.408 80.327  80.881 79.3021  80.881 79.3021  C 80.881 79.3021  80.7287 78.1639  80.7287 78.1639  C 80.7287 78.1639  81.9526 76.9612  81.9526 76.9612  C 81.9526 76.9612  82.2337 75.1006  82.2337 75.1006  C 82.2337 75.1006  83.7036000000001 74.5398  83.7036000000001 74.5398  C 83.7036000000001 74.5398  83.3991 72.6986  83.3991 72.6986  C 83.3991 72.6986  84.6874 70.6984  84.6874 70.6984  C 84.6874 70.6984  84.6874 68.5205  84.6874 68.5205  C 84.6874 68.5205  85.2496 66.5908  85.2496 66.5908  C 85.2496 66.5908  84.9684999999999 66.4669  84.9684999999999 66.4669  C 84.9684999999999 66.4669  84.787 64.155  84.787 64.155  C 84.787 64.155  85.5658 64.1712  85.5658 64.1712  C 85.5658 64.1712  87.1645 62.9912  87.1645 62.9912  C 87.1645 62.9912  87.9083000000001 63.6485  87.9083000000001 63.6485  C 87.9083000000001 63.6485  87.4632 65.0872  87.4632 65.0872  C 87.4632 65.0872  88.4997 65.3783  88.4997 65.3783  C 88.4997 65.3783  89.2142 66.7148  89.2142 66.7148  C 89.2142 66.7148  89.6065 66.386  89.6065 66.386  C 89.6065 66.386  89.22 67.852  89.22 67.852  C 89.22 67.852  89.7529 68.6768  89.7529 68.6768  C 89.7529 68.6768  90.8304000000001 68.4342  90.8304000000001 68.4342  C 90.8304000000001 68.4342  91.1935 66.6986  91.1935 66.6986  C 91.1935 66.6986  91.9958 65.61  91.9958 65.61  C 91.9958 65.61  91.9782 64.807  91.9782 64.807  C 91.9782 64.807  93.8405 65.125  93.8405 65.125  C 93.8405 65.125  95.1581 66.0088  95.1581 66.0088  C 95.1581 66.0088  95.7203 65.9442  95.7203 65.9442  C 95.7203 65.9442  96.1126 64.9094  96.1126 64.9094  C 96.1126 64.9094  96.7334 64.9579  96.7334 64.9579  C 96.7334 64.9579  97.4127 63.5245  97.4127 63.5245  C 97.4127 63.5245  98.1271 63.6323  98.1271 63.6323  C 98.1271 63.6323  99.0934 62.3984  99.0934 62.3984  C 99.0934 62.3984  100.1006 62.0374  100.1006 62.0374  C 100.1006 62.0374  100.7799 61.1593  100.7799 61.1593  C 100.7799 61.1593  102.2322 61.9081  102.2322 61.9081  C 102.2322 61.9081  103.4679 61.7519  103.4679 61.7519  C 103.4679 61.7519  104.3522 61.0946  104.3522 61.0946  C 104.3522 61.0946  104.3112 60.2273  104.3112 60.2273  C 104.3112 60.2273  104.9085 59.8502  104.9085 59.8502  C 104.9085 59.8502  105.9157 60.2973  105.9157 60.2973  C 105.9157 60.2973  106.5365 59.8718  106.5365 59.8718  C 106.5365 59.8718  107.1573 60.2166  107.1573 60.2166  C 107.1573 60.2166  108.3753 59.5  108.3753 59.5  C 108.3753 59.5  109.4235 59.4085  109.4235 59.4085  C 109.4235 59.4085  109.8335 60.2865  109.8335 60.2865  C 109.8335 60.2865  111.684 59.5  111.684 59.5  C 111.684 59.5  112.6444 60.3727  112.6444 60.3727  C 112.6444 60.3727  114.0206 62.2637  114.0206 62.2637  C 114.0206 62.2637  114.8229 61.9297  114.8229 61.9297  C 114.8229 61.9297  114.6062 63.3736  114.6062 63.3736  C 114.6062 63.3736  114.8815 63.5784  114.8815 63.5784  C 114.8815 63.5784  114.6355 65.5938  114.6355 65.5938  C 114.6355 65.5938  115.1801 67.2915  115.1801 67.2915  C 115.1801 67.2915  117.0189 65.8202  117.0189 65.8202  C 117.0189 65.8202  117.8387 66.3752  117.8387 66.3752  C 117.8387 66.3752  118.0379 67.2323  118.0379 67.2323  C 118.0379 67.2323  119.1212 67.5826  119.1212 67.5826  C 119.1212 67.5826  119.3965 68.1216  119.3965 68.1216  C 119.3965 68.1216  120.2632 67.8089  120.2632 67.8089  C 120.2632 67.8089  120.8136 69.135  120.8136 69.135  C 120.8136 69.135  121.6101 69.2913  121.6101 69.2913  C 121.6101 69.2913  122.102 70.5043  122.102 70.5043  C 122.102 70.5043  122.2601 74.1893  122.2601 74.1893  C 122.2601 74.1893  123.4723 74.831  123.4723 74.831  C 123.4723 74.831  123.9291 75.5913  123.9291 75.5913  C 123.9291 75.5913  122.7345 75.4242  122.7345 75.4242  C 122.7345 75.4242  122.2367 76.1684  122.2367 76.1684  C 122.2367 76.1684  122.3362 77.2686  122.3362 77.2686  C 122.3362 77.2686  121.0889 77.2309  121.0889 77.2309  C 121.0889 77.2309  120.1812 78.768  120.1812 78.768  C 120.1812 78.768  117.5928 79.89  117.5928 79.89  C 117.5928 79.89  117.177 82.3177  117.177 82.3177  C 117.177 82.3177  116.2869 83.4293  116.2869 83.4293  C 116.2869 83.4293  115.6603 83.0084  115.6603 83.0084  C 115.6603 83.0084  115.2445 83.6073  115.2445 83.6073  C 115.2445 83.6073  113.9327 83.2674  113.9327 83.2674  C 113.9327 83.2674  113.0953 83.6289  113.0953 83.6289  C 113.0953 83.6289  112.9548 84.8808  112.9548 84.8808  C 112.9548 84.8808  113.2358 85.863  113.2358 85.863  C 113.2358 85.863  112.9313 86.9316  112.9313 86.9316  C 112.9313 86.9316  113.4174 87.6602  113.4174 87.6602  C 113.4174 87.6602  113.6107 89.9328  113.6107 89.9328  C 113.6107 89.9328  111.5025 90.3539  111.5025 90.3539  C 111.5025 90.3539  111.7484 91.0989  111.7484 91.0989  C 111.7484 91.0989  110.6533 92.1733  110.6533 92.1733  C 110.6533 92.1733  110.22 93.372  110.22 93.372  C 110.22 93.372  108.7735 94.1874  108.7735 94.1874  C 108.7735 94.1874  108.2992 94.0902  108.2992 94.0902  C 108.2992 94.0902  106.8937 95.2027  106.8937 95.2027  C 106.8937 95.2027  106.273 95.0191  106.273 95.0191  C 106.273 95.0191  105.2188 95.559  105.2188 95.559  C 105.2188 95.559  104.1121 96.9093  104.1121 96.9093  C 104.1121 96.9093  103.9129 98.3893  103.9129 98.3893  C 103.9129 98.3893  102.8003 99.6317  102.8003 99.6317  C 102.8003 99.6317  102.6539 100.5718  102.6539 100.5718  C 102.6539 100.5718  101.3245 99.3347  101.3245 99.3347  C 101.3245 99.3347  99.9133 98.6918  99.9133 98.6918  C 99.9133 98.6918  99.0231 100.0531  99.0231 100.0531  C 99.0231 100.0531  97.9983 98.8809  97.9983 98.8809  C 97.9983 98.8809  97.155 99.6965  97.155 99.6965  C 97.155 99.6965  97.237 100.1558  97.237 100.1558  C 97.237 100.1558  96.1946 100.2692  96.1946 100.2692  C 96.1946 100.2692  95.0937 103.0464  95.0937 103.0464  C 95.0937 103.0464  94.7599 102.733  94.7599 102.733  C 94.7599 102.733  92.9621 104.2028  92.9621 104.2028  C 92.9621 104.2028  92.2008 104.1596  92.2008 104.1596  C 92.2008 104.1596  91.4278 104.8135  91.4278 104.8135  C 91.4278 104.8135  91.2637999999999 105.916  91.2637999999999 105.916  C 91.2637999999999 105.916  90.3853 106.2835  90.3853 106.2835  C 90.3853 106.2835  89.5948 105.916  89.5948 105.916  C 89.5948 105.916  88.8277000000001 107.1375  88.8277000000001 107.1375  C 88.8277000000001 107.1375  87.8789 106.9375  87.8789 106.9375  C 87.8789 106.9375  87.3285 107.8834  87.3285 107.8834  C 87.3285 107.8834  86.1104 107.7483  86.1104 107.7483  C 86.1104 107.7483  85.15 109.143  85.15 109.143  C 85.15 109.143  85.7942 109.7701  85.7942 109.7701  C 85.7942 109.7701  85.7825 110.8297  85.7825 110.8297  C 85.7825 110.8297  86.9419 112.1544  86.9419 112.1544  C 86.9419 112.1544  86.7722 112.906  86.7722 112.906  C 86.7722 112.906  85.7064 113.0845  85.7064 113.0845  C 85.7064 113.0845  86.2627 114.0308  86.2627 114.0308  C 86.2627 114.0308  85.9289 114.9773  85.9289 114.9773  C 85.9289 114.9773  86.21 115.9237  86.21 115.9237  C 86.21 115.9237  86.8893 115.7182  86.8893 115.7182  C 86.8893 115.7182  87.6213 116.5079  87.6213 116.5079  C 87.6213 116.5079  87.6564 118.4011  87.6564 118.4011  C 87.6564 118.4011  87.1821 119.0881  87.1821 119.0881  C 87.1821 119.0881  87.8204 120.5975  87.8204 120.5975  C 87.8204 120.5975  89.4659 121.263  89.4659 121.263  C 89.4659 121.263  89.7295 122.4264  89.7295 122.4264  C 89.7295 122.4264  90.8421 122.9945  90.8421 122.9945  C 90.8421 122.9945  91.4161 122.7402  91.4161 122.7402  C 91.4161 122.7402  91.0060999999999 124.6938  91.0060999999999 124.6938  C 91.0060999999999 124.6938  91.9782 126.0848  91.9782 126.0848  C 91.9782 126.0848  92.1832000000001 127.254  92.1832000000001 127.254  C 92.1832000000001 127.254  93.1963 128.4449  93.1963 128.4449  C 93.1963 128.4449  93.4305000000001 130.0149  93.4305000000001 130.0149  C 93.4305000000001 130.0149  92.0836 130.4317  92.0836 130.4317  C 92.0836 130.4317  91.2696999999999 131.9587  91.2696999999999 131.9587  C 91.2696999999999 131.9587  89.4718 133.4478  89.4718 133.4478  C 89.4718 133.4478  87.2523 135.7875  87.2523 135.7875  C 87.2523 135.7875  86.6726 136.6162  86.6726 136.6162  C 86.6726 136.6162  85.6419 139.314  85.6419 139.314  C 85.6419 139.314  85.5658 141.6112  85.5658 141.6112  C 85.5658 141.6112  85.8819999999999 144.6515  85.8819999999999 144.6515  C 85.8819999999999 144.6515  85.7239 145.3506  85.7239 145.3506  C 85.7239 145.3506  84.8923 145.9468  84.8923 145.9468  C 84.8923 145.9468  82.5382 146.5105  82.5382 146.5105  C 82.5382 146.5105  82.6787 143.5621  82.6787 143.5621  C 82.6787 143.5621  81.894 141.4053  81.894 141.4053  C 81.894 141.4053  79.4169000000001 141.4053  79.4169000000001 141.4053  C 79.4169000000001 141.4053  76.647 141.9635  76.647 141.9635  C 76.647 141.9635  72.126 142.2941  72.126 142.2941  C 72.126 142.2941  71.4878 139.7745  71.4878 139.7745  C 71.4878 139.7745  71.8391 138.3659  71.8391 138.3659  C 71.8391 138.3659  71.6342 136.5025  71.6342 136.5025  C 71.6342 136.5025  70.6913 135.1971  70.6913 135.1971  C 70.6913 135.1971  70.8377 133.1283  70.8377 133.1283  C 70.8377 133.1283  71.4467 131.6555  71.4467 131.6555  C 71.4467 131.6555  71.1013 128.2717  71.1013 128.2717  C 71.1013 128.2717  71.5111000000001 126.7452  71.5111000000001 126.7452  C 71.5111000000001 126.7452  72.5125 124.1472  72.5125 124.1472  C 72.5125 124.1472  72.3193 123.7143  72.3193 123.7143  C 72.3193 123.7143  70.9021 122.9783  70.9021 122.9783  C 70.9021 122.9783  69.2449 121.3009  69.2449 121.3009  C 69.2449 121.3009  68.1673 121.658  68.1673 121.658  C 68.1673 121.658  68.0268 122.6428  68.0268 122.6428  C 68.0268 122.6428  67.4353 123.5898  67.4353 123.5898  C 67.4353 123.5898  59.9995 127.1024  59.9995 127.1024  C 59.9995 127.1024  59.4255000000001 128.0768  59.4255000000001 128.0768  C 59.4255000000001 128.0768  60.2103 128.8888  60.2103 128.8888  C 60.2103 128.8888  60.4913 130.6808  60.4913 130.6808  C 60.4913 130.6808  59.8179 131.0924  59.8179 131.0924  C 59.8179 131.0924  56.6908 131.9912  56.6908 131.9912  C 56.6908 131.9912  54.688 133.7294  54.688 133.7294  Z M 65.3682 144.4454  C 65.3682 144.4454  64.7239 142.0798  64.7239 142.0798  C 64.7239 142.0798  63.0445999999999 143.1936  63.0445999999999 143.1936  C 63.0445999999999 143.1936  62.7811 140.8768  62.7811 140.8768  C 62.7811 140.8768  65.2803 141.9118  65.2803 141.9118  C 65.2803 141.9118  65.3682 144.4454  65.3682 144.4454  Z M 62.8104 155.2727  C 62.8104 155.2727  62.0784 155.8585  62.0784 155.8585  C 62.0784 155.8585  61.4166 153.0416  61.4166 153.0416  C 61.4166 153.0416  62.2951000000001 152.8626  62.2951000000001 152.8626  C 62.2951000000001 152.8626  65.2393 153.4375  65.2393 153.4375  C 65.2393 153.4375  64.8469 155.2456  64.8469 155.2456  C 64.8469 155.2456  62.8104 155.2727  62.8104 155.2727  Z M 60.8545 134.1356  C 60.8545 134.1356  60.6261 132.2637  60.6261 132.2637  C 60.6261 132.2637  62.241 132.3395  62.241 132.3395  C 62.241 132.3395  60.8545 134.1356  60.8545 134.1356  Z M 78.2529 150.403  C 78.2529 150.403  78.2061 148.3891  78.2061 148.3891  C 78.2061 148.3891  78.657 147.9011  78.657 147.9011  C 78.657 147.9011  80.4007 148.2047  80.4007 148.2047  C 80.4007 148.2047  78.2529 150.403  78.2529 150.403  Z M 63.5424 133.8269  C 63.5424 133.8269  63.6419 131.7655  63.6419 131.7655  C 63.6419 131.7655  64.9582 133.8973  64.9582 133.8973  C 64.9582 133.8973  63.5424 133.8269  63.5424 133.8269  Z M 69.0999 140.5895  C 69.0999 140.5895  70.5625 142.695  70.5625 142.695  C 70.5625 142.695  68.9768 142.4349  68.9768 142.4349  C 68.9768 142.4349  69.0999 140.5895  69.0999 140.5895  Z M 64.7239 157.871  C 64.7239 157.871  63.0212 157.8059  63.0212 157.8059  C 63.0212 157.8059  65.0109 155.2002  65.0109 155.2002  C 65.0109 155.2002  65.4208 155.3087  65.4208 155.3087  C 65.4208 155.3087  64.7239 157.871  64.7239 157.871  Z " fill-rule="nonzero" fill="#ffffff" stroke="none" transform="matrix(1 0 0 1 494 258 )" />
    <path d="M 54.688 133.7294  C 54.688 133.7294  53.3294 134.2331  53.3294 134.2331  C 53.3294 134.2331  52.6735 133.4478  52.6735 133.4478  C 52.6735 133.4478  50.8464 133.4803  50.8464 133.4803  C 50.8464 133.4803  50.5653 134.1193  50.5653 134.1193  C 50.5653 134.1193  48.6679 133.2962  48.6679 133.2962  C 48.6679 133.2962  48.381 133.7673  48.381 133.7673  C 48.381 133.7673  47.0224 134.2168  47.0224 134.2168  C 47.0224 134.2168  46.7354 132.6031  46.7354 132.6031  C 46.7354 132.6031  47.7426 132.0508  47.7426 132.0508  C 47.7426 132.0508  48.0472 131.3577  48.0472 131.3577  C 48.0472 131.3577  47.7953 130.4805  47.7953 130.4805  C 47.7953 130.4805  46.6007 130.2422  46.6007 130.2422  C 46.6007 130.2422  46.1557 128.8076  46.1557 128.8076  C 46.1557 128.8076  45.2889 128.8509  45.2889 128.8509  C 45.2889 128.8509  44.8439 127.7953  44.8439 127.7953  C 44.8439 127.7953  45.6462 126.5395  45.6462 126.5395  C 45.6462 126.5395  45.6579 124.9103  45.6579 124.9103  C 45.6579 124.9103  45.9799 123.4762  45.9799 123.4762  C 45.9799 123.4762  44.9435 121.9502  44.9435 121.9502  C 44.9435 121.9502  44.3051 122.356  44.3051 122.356  C 44.3051 122.356  44.188 124.1418  44.188 124.1418  C 44.188 124.1418  43.6726 124.407  43.6726 124.407  C 43.6726 124.407  41.9568 123.5032  41.9568 123.5032  C 41.9568 123.5032  41.219 123.6223  41.219 123.6223  C 41.219 123.6223  41.0784 122.2694  41.0784 122.2694  C 41.0784 122.2694  40.2059 121.7121  40.2059 121.7121  C 40.2059 121.7121  40.85 121.0953  40.85 121.0953  C 40.85 121.0953  41.0022 119.3694  41.0022 119.3694  C 41.0022 119.3694  39.2747 119.0989  39.2747 119.0989  C 39.2747 119.0989  38.3612 119.3748  38.3612 119.3748  C 38.3612 119.3748  38.0508 120.0295  38.0508 120.0295  C 38.0508 120.0295  36.5106 119.6994  36.5106 119.6994  C 36.5106 119.6994  35.7845 119.2017  35.7845 119.2017  C 35.7845 119.2017  35.6323 119.8022  35.6323 119.8022  C 35.6323 119.8022  33.9984 121.9015  33.9984 121.9015  C 33.9984 121.9015  33.1844 121.9123  33.1844 121.9123  C 33.1844 121.9123  32.7803 120.9979  32.7803 120.9979  C 32.7803 120.9979  31.9722 120.7598  31.9722 120.7598  C 31.9722 120.7598  31.5329 118.7689  31.5329 118.7689  C 31.5329 118.7689  31.8902 118.3199  31.8902 118.3199  C 31.8902 118.3199  32.0249 115.9832  32.0249 115.9832  C 32.0249 115.9832  31.8316 115.7344  31.8316 115.7344  C 31.8316 115.7344  31.9605 113.6307  31.9605 113.6307  C 31.9605 113.6307  31.6852 111.8624  31.6852 111.8624  C 31.6852 111.8624  32.1244 111.2947  32.1244 111.2947  C 32.1244 111.2947  32.7276 111.8408  32.7276 111.8408  C 32.7276 111.8408  33.2547 111.4515  33.2547 111.4515  C 33.2547 111.4515  33.9105 109.8944  33.9105 109.8944  C 33.9105 109.8944  33.8227 109.2403  33.8227 109.2403  C 33.8227 109.2403  33.0614 109.3322  33.0614 109.3322  C 33.0614 109.3322  32.7627 108.6618  32.7627 108.6618  C 32.7627 108.6618  31.574 108.3591  31.574 108.3591  C 31.574 108.3591  30.2973 106.9591  30.2973 106.9591  C 30.2973 106.9591  30.1685 104.3596  30.1685 104.3596  C 30.1685 104.3596  31.1231 103.3652  31.1231 103.3652  C 31.1231 103.3652  31.0118 101.6307  31.0118 101.6307  C 31.0118 101.6307  30.2563 100.9121  30.2563 100.9121  C 30.2563 100.9121  29.3311 101.0256  29.3311 101.0256  C 29.3311 101.0256  27.949 100.1341  27.949 100.1341  C 27.949 100.1341  27.6738 100.7717  27.6738 100.7717  C 27.6738 100.7717  26.1337 101.8793  26.1337 101.8793  C 26.1337 101.8793  25.917 101.3876  25.917 101.3876  C 25.917 101.3876  24.5759 101.0526  24.5759 101.0526  C 24.5759 101.0526  24.1191 100.2368  24.1191 100.2368  C 24.1191 100.2368  23.5277 100.28  23.5277 100.28  C 23.5277 100.28  24.6579 97.2766  24.6579 97.2766  C 24.6579 97.2766  25.5597 97.7249  25.5597 97.7249  C 25.5597 97.7249  25.5012 97.1524  25.5012 97.1524  C 25.5012 97.1524  23.2641 94.7761  23.2641 94.7761  C 23.2641 94.7761  21.8294 93.696  21.8294 93.696  C 21.8294 93.696  21.0154 91.79  21.0154 91.79  C 21.0154 91.79  20.8163 90.0731  20.8163 90.0731  C 20.8163 90.0731  19.0536 89.3335  19.0536 89.3335  C 19.0536 89.3335  17.8239 89.7384  17.8239 89.7384  C 17.8239 89.7384  16.3013 91.0719  16.3013 91.0719  C 16.3013 91.0719  14.8021 91.1691  14.8021 91.1691  C 14.8021 91.1691  13.5079 90.2297  13.5079 90.2297  C 13.5079 90.2297  12.9809 89.2796  12.9809 89.2796  C 12.9809 89.2796  11.7687 88.1245  11.7687 88.1245  C 11.7687 88.1245  11.1713 88.0327  11.1713 88.0327  C 11.1713 88.0327  9.3091 88.7128  9.3091 88.7128  C 9.3091 88.7128  6.80270000000002 87.9409  6.80270000000002 87.9409  C 6.80270000000002 87.9409  5.9828 88.3296  5.9828 88.3296  C 5.9828 88.3296  4.58909999999997 87.0071  4.58909999999997 87.0071  C 4.58909999999997 87.0071  3.57010000000002 87.9895  3.57010000000002 87.9895  C 3.57010000000002 87.9895  2.41640000000001 87.7574  2.41640000000001 87.7574  C 2.41640000000001 87.7574  2.15300000000002 86.8722  2.15300000000002 86.8722  C 2.15300000000002 86.8722  2.5453 84.503  2.5453 84.503  C 2.5453 84.503  3.22460000000001 83.6505  3.22460000000001 83.6505  C 3.22460000000001 83.6505  4.44850000000002 82.8195  4.44850000000002 82.8195  C 4.44850000000002 82.8195  6.04730000000001 82.9059  6.04730000000001 82.9059  C 6.04730000000001 82.9059  6.53910000000002 81.6163  6.53910000000002 81.6163  C 6.53910000000002 81.6163  5.53769999999997 81.4707  5.53769999999997 81.4707  C 5.53769999999997 81.4707  5.1395 80.1382  5.1395 80.1382  C 5.1395 80.1382  5.91840000000002 78.0021  5.91840000000002 78.0021  C 5.91840000000002 78.0021  6.66800000000001 78.0129  6.66800000000001 78.0129  C 6.66800000000001 78.0129  5.61970000000002 74.9982  5.61970000000002 74.9982  C 5.61970000000002 74.9982  6.00619999999998 72.8388  6.00619999999998 72.8388  C 6.00619999999998 72.8388  4.63589999999999 71.7497  4.63589999999999 71.7497  C 4.63589999999999 71.7497  5.63729999999998 69.8681  5.63729999999998 69.8681  C 5.63729999999998 69.8681  5.49680000000001 69.0703  5.49680000000001 69.0703  C 5.49680000000001 69.0703  5.99450000000002 66.607  5.99450000000002 66.607  C 5.99450000000002 66.607  5.56700000000001 64.6238  5.56700000000001 64.6238  C 5.56700000000001 64.6238  6.07060000000001 63.5137  6.07060000000001 63.5137  C 6.07060000000001 63.5137  8.47750000000002 64.0311  8.47750000000002 64.0311  C 8.47750000000002 64.0311  9.3793 63.7293  9.3793 63.7293  C 9.3793 63.7293  10.8785 64.7801  10.8785 64.7801  C 10.8785 64.7801  10.8434 66.5801  10.8434 66.5801  C 10.8434 66.5801  12.2957 67.6096  12.2957 67.6096  C 12.2957 67.6096  12.3542 67.9976  12.3542 67.9976  C 12.3542 67.9976  13.7656 68.3641  13.7656 68.3641  C 13.7656 68.3641  13.7246 67.1514  13.7246 67.1514  C 13.7246 67.1514  12.811 64.9956  12.811 64.9956  C 12.811 64.9956  13.5547 64.7262  13.5547 64.7262  C 13.5547 64.7262  14.0876 63.3521  14.0876 63.3521  C 14.0876 63.3521  13.2971 62.517  13.2971 62.517  C 13.2971 62.517  12.647 60.0172  12.647 60.0172  C 12.647 60.0172  13.7128 59.263  13.7128 59.263  C 13.7128 59.263  14.0525 58.5897  14.0525 58.5897  C 14.0525 58.5897  13.0101 57.3456  13.0101 57.3456  C 13.0101 57.3456  12.811 55.7514  12.811 55.7514  C 12.811 55.7514  13.0979 54.7121  13.0979 54.7121  C 13.0979 54.7121  12.1376 54.9221  12.1376 54.9221  C 12.1376 54.9221  10.9663 54.5775  10.9663 54.5775  C 10.9663 54.5775  10.41 53.5437  10.41 53.5437  C 10.41 53.5437  10.615 51.1855  10.615 51.1855  C 10.615 51.1855  12.0673 51.304  12.0673 51.304  C 12.0673 51.304  12.6237 50.5664  12.6237 50.5664  C 12.6237 50.5664  12.0439 49.8828  12.0439 49.8828  C 12.0439 49.8828  11.0424 49.7267  11.0424 49.7267  C 11.0424 49.7267  9.33839999999998 50.0981  9.33839999999998 50.0981  C 9.33839999999998 50.0981  8.7586 49.4521  8.7586 49.4521  C 8.7586 49.4521  9.50229999999999 49.3983  9.50229999999999 49.3983  C 9.50229999999999 49.3983  9.94159999999999 48.4887  9.94159999999999 48.4887  C 9.94159999999999 48.4887  8.66489999999999 48.3164  8.66489999999999 48.3164  C 8.66489999999999 48.3164  8.14370000000002 47.4122  8.14370000000002 47.4122  C 8.14370000000002 47.4122  7.2595 47.3046  7.2595 47.3046  C 7.2595 47.3046  6.86709999999999 46.5189  6.86709999999999 46.5189  C 6.86709999999999 46.5189  5.85399999999999 45.6633  5.85399999999999 45.6633  C 5.85399999999999 45.6633  5.47329999999999 44.1512  5.47329999999999 44.1512  C 5.47329999999999 44.1512  4.19080000000002 43.5163  4.19080000000002 43.5163  C 4.19080000000002 43.5163  3.51159999999999 40.9716  3.51159999999999 40.9716  C 3.51159999999999 40.9716  2.77370000000002 40.536  2.77370000000002 40.536  C 2.77370000000002 40.536  3.62860000000001 38.8254  3.62860000000001 38.8254  C 3.62860000000001 38.8254  3.19529999999997 38.2016  3.19529999999997 38.2016  C 3.19529999999997 38.2016  3.28899999999999 36.5237  3.28899999999999 36.5237  C 3.28899999999999 36.5237  2.06509999999997 35.7171  2.06509999999997 35.7171  C 2.06509999999997 35.7171  1.35059999999999 35.7494  1.35059999999999 35.7494  C 1.35059999999999 35.7494  1.19839999999999 35.0664  1.19839999999999 35.0664  C 1.19839999999999 35.0664  0.0681999999999903 35.1471  0.0681999999999903 35.1471  C 0.0681999999999903 35.1471  0.0154999999999745 33.889  0.0154999999999745 33.889  C 0.0154999999999745 33.889  0.68889999999999 33.475  0.68889999999999 33.475  C 0.68889999999999 33.475  0.858699999999999 32.6471  0.858699999999999 32.6471  C 0.858699999999999 32.6471  0.173600000000022 31.8138  0.173600000000022 31.8138  C 0.173600000000022 31.8138  1.78980000000001 31.8891  1.78980000000001 31.8891  C 1.78980000000001 31.8891  2.39299999999997 29.4542  2.39299999999997 29.4542  C 2.39299999999997 29.4542  4.99310000000003 28.8629  4.99310000000003 28.8629  C 4.99310000000003 28.8629  6.19369999999998 27.3313  6.19369999999998 27.3313  C 6.19369999999998 27.3313  6.4513 25.7784  6.4513 25.7784  C 6.4513 25.7784  7.32389999999998 25.6655  7.32389999999998 25.6655  C 7.32389999999998 25.6655  7.90940000000001 24.3492  7.90940000000001 24.3492  C 7.90940000000001 24.3492  9.16269999999997 24.0752  9.16269999999997 24.0752  C 9.16269999999997 24.0752  9.45549999999997 23.4627  9.45549999999997 23.4627  C 9.45549999999997 23.4627  10.6501 24.0214  10.6501 24.0214  C 10.6501 24.0214  11.0424 23.4574  11.0424 23.4574  C 11.0424 23.4574  11.9443 23.3499  11.9443 23.3499  C 11.9443 23.3499  12.1902 21.4697  12.1902 21.4697  C 12.1902 21.4697  13.9237 20.9326  13.9237 20.9326  C 13.9237 20.9326  15.0187 19.4073  15.0187 19.4073  C 15.0187 19.4073  15.3702 19.375  15.3702 19.375  C 15.3702 19.375  14.7786 20.9326  14.7786 20.9326  C 14.7786 20.9326  15.4111 20.9487  15.4111 20.9487  C 15.4111 20.9487  15.9206 21.9962  15.9206 21.9962  C 15.9206 21.9962  16.1139 21.2227  16.1139 21.2227  C 16.1139 21.2227  16.9571 20.0947  16.9571 20.0947  C 16.9571 20.0947  18.6027 19.6221  18.6027 19.6221  C 18.6027 19.6221  18.3216 18.7897  18.3216 18.7897  C 18.3216 18.7897  16.8634 17.823  16.8634 17.823  C 16.8634 17.823  17.6658 16.8242  17.6658 16.8242  C 17.6658 16.8242  16.717 15.7987  16.717 15.7987  C 16.717 15.7987  17.0977 14.6712  17.0977 14.6712  C 17.0977 14.6712  18.0112 14.1022  18.0112 14.1022  C 18.0112 14.1022  18.4329 12.3951  18.4329 12.3951  C 18.4329 12.3951  17.8766 11.5846  17.8766 11.5846  C 17.8766 11.5846  17.6658 10.2857  17.6658 10.2857  C 17.6658 10.2857  17.2148 9.87790000000001  17.2148 9.87790000000001  C 17.2148 9.87790000000001  17.2793 8.005  17.2793 8.005  C 17.2793 8.005  16.7873 6.79230000000001  16.7873 6.79230000000001  C 16.7873 6.79230000000001  17.1738 6.26650000000001  17.1738 6.26650000000001  C 17.1738 6.26650000000001  18.3568 3.32140000000001  18.3568 3.32140000000001  C 18.3568 3.32140000000001  19.7037 3.82560000000001  19.7037 3.82560000000001  C 19.7037 3.82560000000001  19.7974 4.49080000000001  19.7974 4.49080000000001  C 19.7974 4.49080000000001  22.9596 3.9436  22.9596 3.9436  C 22.9596 3.9436  23.1763 3.30529999999999  23.1763 3.30529999999999  C 23.1763 3.30529999999999  24.9332 2.85460000000001  24.9332 2.85460000000001  C 24.9332 2.85460000000001  26.1043 2.9136  26.1043 2.9136  C 26.1043 2.9136  26.526 1.5137  26.526 1.5137  C 26.526 1.5137  27.34 0.918399999999991  27.34 0.918399999999991  C 27.34 0.918399999999991  28.2711 1.24029999999999  28.2711 1.24029999999999  C 28.2711 1.24029999999999  28.6869 2.39869999999999  28.6869 2.39869999999999  C 28.6869 2.39869999999999  29.454 2.7689  29.454 2.7689  C 29.454 2.7689  30.3207 2.27000000000001  30.3207 2.27000000000001  C 30.3207 2.27000000000001  30.6018 2.6294  30.6018 2.6294  C 30.6018 2.6294  32.2416 2.7045  32.2416 2.7045  C 32.2416 2.7045  32.6866 2.0555  32.6866 2.0555  C 32.6866 2.0555  33.7876 1.59950000000001  33.7876 1.59950000000001  C 33.7876 1.59950000000001  34.1389 0.838099999999997  34.1389 0.838099999999997  C 34.1389 0.838099999999997  34.789 0.913000000000011  34.789 0.913000000000011  C 34.789 0.913000000000011  34.7831 2.0341  34.7831 2.0341  C 34.7831 2.0341  33.2019 2.8493  33.2019 2.8493  C 33.2019 2.8493  33.4772 3.43940000000001  33.4772 3.43940000000001  C 33.4772 3.43940000000001  32.9619 3.9436  32.9619 3.9436  C 32.9619 3.9436  32.1069 5.88560000000001  32.1069 5.88560000000001  C 32.1069 5.88560000000001  33.0204 6.30940000000001  33.0204 6.30940000000001  C 33.0204 6.30940000000001  34.1272 5.84809999999999  34.1272 5.84809999999999  C 34.1272 5.84809999999999  34.5254 6.68510000000001  34.5254 6.68510000000001  C 34.5254 6.68510000000001  35.3863 6.8621  35.3863 6.8621  C 35.3863 6.8621  36.0363 6.4221  36.0363 6.4221  C 36.0363 6.4221  37.1841 7.84399999999999  37.1841 7.84399999999999  C 37.1841 7.84399999999999  38.5954 7.54349999999999  38.5954 7.54349999999999  C 38.5954 7.54349999999999  39.3509 6.9211  39.3509 6.9211  C 39.3509 6.9211  40.7563 8.20349999999999  40.7563 8.20349999999999  C 40.7563 8.20349999999999  40.4693 9.1748  40.4693 9.1748  C 40.4693 9.1748  41.2482 10.0711  41.2482 10.0711  C 41.2482 10.0711  40.2937 10.3823  40.2937 10.3823  C 40.2937 10.3823  39.2571 11.7671  39.2571 11.7671  C 39.2571 11.7671  38.9995 13.8606  38.9995 13.8606  C 38.9995 13.8606  39.4387 16.2819  39.4387 16.2819  C 39.4387 16.2819  40.077 16.3625  40.077 16.3625  C 40.077 16.3625  40.2059 17.4793  40.2059 17.4793  C 40.2059 17.4793  40.6802 18.0325  40.6802 18.0325  C 40.6802 18.0325  39.8428 20.1538  39.8428 20.1538  C 39.8428 20.1538  40.118 22.0929  40.118 22.0929  C 40.118 22.0929  41.3185 22.5011  41.3185 22.5011  C 41.3185 22.5011  41.1721 23.6776  41.1721 23.6776  C 41.1721 23.6776  42.2028 24.7521  42.2028 24.7521  C 42.2028 24.7521  42.9524 22.7966  42.9524 22.7966  C 42.9524 22.7966  43.7137 23.3499  43.7137 23.3499  C 43.7137 23.3499  44.9961 26.5145  44.9961 26.5145  C 44.9961 26.5145  46.2201 26.3371  46.2201 26.3371  C 46.2201 26.3371  46.4367 27.6376  46.4367 27.6376  C 46.4367 27.6376  47.6489 28.6157  47.6489 28.6157  C 47.6489 28.6157  50.1729 27.0088  50.1729 27.0088  C 50.1729 27.0088  51.7307 27.4334  51.7307 27.4334  C 51.7307 27.4334  53.1947 28.519  53.1947 28.519  C 53.1947 28.519  53.7861 30.5667  53.7861 30.5667  C 53.7861 30.5667  54.5592 30.7495  54.5592 30.7495  C 54.5592 30.7495  55.7304 34.3029  55.7304 34.3029  C 55.7304 34.3029  56.5853 35.2762  56.5853 35.2762  C 56.5853 35.2762  56.0817 36.9969  56.0817 36.9969  C 56.0817 36.9969  56.5795000000001 37.895  56.5795000000001 37.895  C 56.5795000000001 37.895  56.398 38.5405  56.398 38.5405  C 56.398 38.5405  57.3877 39.6216  57.3877 39.6216  C 57.3877 39.6216  57.3935 40.5198  57.3935 40.5198  C 57.3935 40.5198  58.2602000000001 41.4612  58.2602000000001 41.4612  C 58.2602000000001 41.4612  58.5706 41.2568  58.5706 41.2568  C 58.5706 41.2568  59.9116 42.1014  59.9116 42.1014  C 59.9116 42.1014  60.7315 43.2258  60.7315 43.2258  C 60.7315 43.2258  60.3742999999999 43.9736  60.3742999999999 43.9736  C 60.3742999999999 43.9736  62.6685 44.7485  62.6685 44.7485  C 62.6685 44.7485  62.7797 42.6931  62.7797 42.6931  C 62.7797 42.6931  63.6757 42.7738  63.6757 42.7738  C 63.6757 42.7738  63.8924 41.9776  63.8924 41.9776  C 63.8924 41.9776  65.1104 41.3213  65.1104 41.3213  C 65.1104 41.3213  65.5907 44.0974  65.5907 44.0974  C 65.5907 44.0974  66.756 44.7378  66.756 44.7378  C 66.756 44.7378  67.9096 44.4256  67.9096 44.4256  C 67.9096 44.4256  68.4133 45.6256  68.4133 45.6256  C 68.4133 45.6256  67.4059999999999 46.8795  67.4059999999999 46.8795  C 67.4059999999999 46.8795  67.1835 48.3433  67.1835 48.3433  C 67.1835 48.3433  68.384 50.7387  68.384 50.7387  C 68.384 50.7387  68.2903 51.74  68.2903 51.74  C 68.2903 51.74  66.6799 52.2892  66.6799 52.2892  C 66.6799 52.2892  65.9655 53.0913  65.9655 53.0913  C 65.9655 53.0913  64.109 56.1877  64.109 56.1877  C 64.109 56.1877  63.3712 57.1139  63.3712 57.1139  C 63.3712 57.1139  64.7415 58.2288  64.7415 58.2288  C 64.7415 58.2288  64.9055 56.7046  64.9055 56.7046  C 64.9055 56.7046  65.4501 57.5772  65.4501 57.5772  C 65.4501 57.5772  65.8835 56.9308  65.8835 56.9308  C 65.8835 56.9308  67.447 56.5376  67.447 56.5376  C 67.447 56.5376  69.0809 57.4802  69.0809 57.4802  C 69.0809 57.4802  67.9915999999999 58.5736  67.9915999999999 58.5736  C 67.9915999999999 58.5736  68.5245 59.0098  68.5245 59.0098  C 68.5245 59.0098  68.794 61.2185  68.794 61.2185  C 68.794 61.2185  68.3137 61.3586  68.3137 61.3586  C 68.3137 61.3586  70.0296 62.1344  70.0296 62.1344  C 70.0296 62.1344  69.7192 63.2228  69.7192 63.2228  C 69.7192 63.2228  70.6035000000001 64.1981  70.6035000000001 64.1981  C 70.6035000000001 64.1981  70.6152 65.2866  70.6152 65.2866  C 70.6152 65.2866  71.1891000000001 64.6022  71.1891000000001 64.6022  C 71.1891000000001 64.6022  71.3297 65.2112  71.3297 65.2112  C 71.3297 65.2112  72.6707 65.1681  72.6707 65.1681  C 72.6707 65.1681  73.2212 66.6124  73.2212 66.6124  C 73.2212 66.6124  74.3631 66.731  74.3631 66.731  C 74.3631 66.731  74.5915 68.6229  74.5915 68.6229  C 74.5915 68.6229  73.7482 70.2024  73.7482 70.2024  C 73.7482 70.2024  74.5622 70.6391  74.5622 70.6391  C 74.5622 70.6391  74.6383 71.5879  74.6383 71.5879  C 74.6383 71.5879  75.1420000000001 71.5394  75.1420000000001 71.5394  C 75.1420000000001 71.5394  75.1420000000001 72.5315  75.1420000000001 72.5315  C 75.1420000000001 72.5315  75.6338 75.2462  75.6338 75.2462  C 75.6338 75.2462  75.1009 75.5967  75.1009 75.5967  C 75.1009 75.5967  74.8492 76.7886  74.8492 76.7886  C 74.8492 76.7886  75.1068 78.5685  75.1068 78.5685  C 75.1068 78.5685  76.3366 78.7249  76.3366 78.7249  C 76.3366 78.7249  76.4771 79.3129  76.4771 79.3129  C 76.4771 79.3129  78.2397999999999 80.8719  78.2397999999999 80.8719  C 78.2397999999999 80.8719  78.7786 82.1667  78.7786 82.1667  C 78.7786 82.1667  79.9965999999999 82.8303  79.9965999999999 82.8303  C 79.9965999999999 82.8303  80.5003 81.5893  80.5003 81.5893  C 80.5003 81.5893  81.408 80.327  81.408 80.327  C 81.408 80.327  80.881 79.3021  80.881 79.3021  C 80.881 79.3021  80.7287 78.1639  80.7287 78.1639  C 80.7287 78.1639  81.9526 76.9612  81.9526 76.9612  C 81.9526 76.9612  82.2337 75.1006  82.2337 75.1006  C 82.2337 75.1006  83.7036000000001 74.5398  83.7036000000001 74.5398  C 83.7036000000001 74.5398  83.3991 72.6986  83.3991 72.6986  C 83.3991 72.6986  84.6874 70.6984  84.6874 70.6984  C 84.6874 70.6984  84.6874 68.5205  84.6874 68.5205  C 84.6874 68.5205  85.2496 66.5908  85.2496 66.5908  C 85.2496 66.5908  84.9684999999999 66.4669  84.9684999999999 66.4669  C 84.9684999999999 66.4669  84.787 64.155  84.787 64.155  C 84.787 64.155  85.5658 64.1712  85.5658 64.1712  C 85.5658 64.1712  87.1645 62.9912  87.1645 62.9912  C 87.1645 62.9912  87.9083000000001 63.6485  87.9083000000001 63.6485  C 87.9083000000001 63.6485  87.4632 65.0872  87.4632 65.0872  C 87.4632 65.0872  88.4997 65.3783  88.4997 65.3783  C 88.4997 65.3783  89.2142 66.7148  89.2142 66.7148  C 89.2142 66.7148  89.6065 66.386  89.6065 66.386  C 89.6065 66.386  89.22 67.852  89.22 67.852  C 89.22 67.852  89.7529 68.6768  89.7529 68.6768  C 89.7529 68.6768  90.8304000000001 68.4342  90.8304000000001 68.4342  C 90.8304000000001 68.4342  91.1935 66.6986  91.1935 66.6986  C 91.1935 66.6986  91.9958 65.61  91.9958 65.61  C 91.9958 65.61  91.9782 64.807  91.9782 64.807  C 91.9782 64.807  93.8405 65.125  93.8405 65.125  C 93.8405 65.125  95.1581 66.0088  95.1581 66.0088  C 95.1581 66.0088  95.7203 65.9442  95.7203 65.9442  C 95.7203 65.9442  96.1126 64.9094  96.1126 64.9094  C 96.1126 64.9094  96.7334 64.9579  96.7334 64.9579  C 96.7334 64.9579  97.4127 63.5245  97.4127 63.5245  C 97.4127 63.5245  98.1271 63.6323  98.1271 63.6323  C 98.1271 63.6323  99.0934 62.3984  99.0934 62.3984  C 99.0934 62.3984  100.1006 62.0374  100.1006 62.0374  C 100.1006 62.0374  100.7799 61.1593  100.7799 61.1593  C 100.7799 61.1593  102.2322 61.9081  102.2322 61.9081  C 102.2322 61.9081  103.4679 61.7519  103.4679 61.7519  C 103.4679 61.7519  104.3522 61.0946  104.3522 61.0946  C 104.3522 61.0946  104.3112 60.2273  104.3112 60.2273  C 104.3112 60.2273  104.9085 59.8502  104.9085 59.8502  C 104.9085 59.8502  105.9157 60.2973  105.9157 60.2973  C 105.9157 60.2973  106.5365 59.8718  106.5365 59.8718  C 106.5365 59.8718  107.1573 60.2166  107.1573 60.2166  C 107.1573 60.2166  108.3753 59.5  108.3753 59.5  C 108.3753 59.5  109.4235 59.4085  109.4235 59.4085  C 109.4235 59.4085  109.8335 60.2865  109.8335 60.2865  C 109.8335 60.2865  111.684 59.5  111.684 59.5  C 111.684 59.5  112.6444 60.3727  112.6444 60.3727  C 112.6444 60.3727  114.0206 62.2637  114.0206 62.2637  C 114.0206 62.2637  114.8229 61.9297  114.8229 61.9297  C 114.8229 61.9297  114.6062 63.3736  114.6062 63.3736  C 114.6062 63.3736  114.8815 63.5784  114.8815 63.5784  C 114.8815 63.5784  114.6355 65.5938  114.6355 65.5938  C 114.6355 65.5938  115.1801 67.2915  115.1801 67.2915  C 115.1801 67.2915  117.0189 65.8202  117.0189 65.8202  C 117.0189 65.8202  117.8387 66.3752  117.8387 66.3752  C 117.8387 66.3752  118.0379 67.2323  118.0379 67.2323  C 118.0379 67.2323  119.1212 67.5826  119.1212 67.5826  C 119.1212 67.5826  119.3965 68.1216  119.3965 68.1216  C 119.3965 68.1216  120.2632 67.8089  120.2632 67.8089  C 120.2632 67.8089  120.8136 69.135  120.8136 69.135  C 120.8136 69.135  121.6101 69.2913  121.6101 69.2913  C 121.6101 69.2913  122.102 70.5043  122.102 70.5043  C 122.102 70.5043  122.2601 74.1893  122.2601 74.1893  C 122.2601 74.1893  123.4723 74.831  123.4723 74.831  C 123.4723 74.831  123.9291 75.5913  123.9291 75.5913  C 123.9291 75.5913  122.7345 75.4242  122.7345 75.4242  C 122.7345 75.4242  122.2367 76.1684  122.2367 76.1684  C 122.2367 76.1684  122.3362 77.2686  122.3362 77.2686  C 122.3362 77.2686  121.0889 77.2309  121.0889 77.2309  C 121.0889 77.2309  120.1812 78.768  120.1812 78.768  C 120.1812 78.768  117.5928 79.89  117.5928 79.89  C 117.5928 79.89  117.177 82.3177  117.177 82.3177  C 117.177 82.3177  116.2869 83.4293  116.2869 83.4293  C 116.2869 83.4293  115.6603 83.0084  115.6603 83.0084  C 115.6603 83.0084  115.2445 83.6073  115.2445 83.6073  C 115.2445 83.6073  113.9327 83.2674  113.9327 83.2674  C 113.9327 83.2674  113.0953 83.6289  113.0953 83.6289  C 113.0953 83.6289  112.9548 84.8808  112.9548 84.8808  C 112.9548 84.8808  113.2358 85.863  113.2358 85.863  C 113.2358 85.863  112.9313 86.9316  112.9313 86.9316  C 112.9313 86.9316  113.4174 87.6602  113.4174 87.6602  C 113.4174 87.6602  113.6107 89.9328  113.6107 89.9328  C 113.6107 89.9328  111.5025 90.3539  111.5025 90.3539  C 111.5025 90.3539  111.7484 91.0989  111.7484 91.0989  C 111.7484 91.0989  110.6533 92.1733  110.6533 92.1733  C 110.6533 92.1733  110.22 93.372  110.22 93.372  C 110.22 93.372  108.7735 94.1874  108.7735 94.1874  C 108.7735 94.1874  108.2992 94.0902  108.2992 94.0902  C 108.2992 94.0902  106.8937 95.2027  106.8937 95.2027  C 106.8937 95.2027  106.273 95.0191  106.273 95.0191  C 106.273 95.0191  105.2188 95.559  105.2188 95.559  C 105.2188 95.559  104.1121 96.9093  104.1121 96.9093  C 104.1121 96.9093  103.9129 98.3893  103.9129 98.3893  C 103.9129 98.3893  102.8003 99.6317  102.8003 99.6317  C 102.8003 99.6317  102.6539 100.5718  102.6539 100.5718  C 102.6539 100.5718  101.3245 99.3347  101.3245 99.3347  C 101.3245 99.3347  99.9133 98.6918  99.9133 98.6918  C 99.9133 98.6918  99.0231 100.0531  99.0231 100.0531  C 99.0231 100.0531  97.9983 98.8809  97.9983 98.8809  C 97.9983 98.8809  97.155 99.6965  97.155 99.6965  C 97.155 99.6965  97.237 100.1558  97.237 100.1558  C 97.237 100.1558  96.1946 100.2692  96.1946 100.2692  C 96.1946 100.2692  95.0937 103.0464  95.0937 103.0464  C 95.0937 103.0464  94.7599 102.733  94.7599 102.733  C 94.7599 102.733  92.9621 104.2028  92.9621 104.2028  C 92.9621 104.2028  92.2008 104.1596  92.2008 104.1596  C 92.2008 104.1596  91.4278 104.8135  91.4278 104.8135  C 91.4278 104.8135  91.2637999999999 105.916  91.2637999999999 105.916  C 91.2637999999999 105.916  90.3853 106.2835  90.3853 106.2835  C 90.3853 106.2835  89.5948 105.916  89.5948 105.916  C 89.5948 105.916  88.8277000000001 107.1375  88.8277000000001 107.1375  C 88.8277000000001 107.1375  87.8789 106.9375  87.8789 106.9375  C 87.8789 106.9375  87.3285 107.8834  87.3285 107.8834  C 87.3285 107.8834  86.1104 107.7483  86.1104 107.7483  C 86.1104 107.7483  85.15 109.143  85.15 109.143  C 85.15 109.143  85.7942 109.7701  85.7942 109.7701  C 85.7942 109.7701  85.7825 110.8297  85.7825 110.8297  C 85.7825 110.8297  86.9419 112.1544  86.9419 112.1544  C 86.9419 112.1544  86.7722 112.906  86.7722 112.906  C 86.7722 112.906  85.7064 113.0845  85.7064 113.0845  C 85.7064 113.0845  86.2627 114.0308  86.2627 114.0308  C 86.2627 114.0308  85.9289 114.9773  85.9289 114.9773  C 85.9289 114.9773  86.21 115.9237  86.21 115.9237  C 86.21 115.9237  86.8893 115.7182  86.8893 115.7182  C 86.8893 115.7182  87.6213 116.5079  87.6213 116.5079  C 87.6213 116.5079  87.6564 118.4011  87.6564 118.4011  C 87.6564 118.4011  87.1821 119.0881  87.1821 119.0881  C 87.1821 119.0881  87.8204 120.5975  87.8204 120.5975  C 87.8204 120.5975  89.4659 121.263  89.4659 121.263  C 89.4659 121.263  89.7295 122.4264  89.7295 122.4264  C 89.7295 122.4264  90.8421 122.9945  90.8421 122.9945  C 90.8421 122.9945  91.4161 122.7402  91.4161 122.7402  C 91.4161 122.7402  91.0060999999999 124.6938  91.0060999999999 124.6938  C 91.0060999999999 124.6938  91.9782 126.0848  91.9782 126.0848  C 91.9782 126.0848  92.1832000000001 127.254  92.1832000000001 127.254  C 92.1832000000001 127.254  93.1963 128.4449  93.1963 128.4449  C 93.1963 128.4449  93.4305000000001 130.0149  93.4305000000001 130.0149  C 93.4305000000001 130.0149  92.0836 130.4317  92.0836 130.4317  C 92.0836 130.4317  91.2696999999999 131.9587  91.2696999999999 131.9587  C 91.2696999999999 131.9587  89.4718 133.4478  89.4718 133.4478  C 89.4718 133.4478  87.2523 135.7875  87.2523 135.7875  C 87.2523 135.7875  86.6726 136.6162  86.6726 136.6162  C 86.6726 136.6162  85.6419 139.314  85.6419 139.314  C 85.6419 139.314  85.5658 141.6112  85.5658 141.6112  C 85.5658 141.6112  85.8819999999999 144.6515  85.8819999999999 144.6515  C 85.8819999999999 144.6515  85.7239 145.3506  85.7239 145.3506  C 85.7239 145.3506  84.8923 145.9468  84.8923 145.9468  C 84.8923 145.9468  82.5382 146.5105  82.5382 146.5105  C 82.5382 146.5105  82.6787 143.5621  82.6787 143.5621  C 82.6787 143.5621  81.894 141.4053  81.894 141.4053  C 81.894 141.4053  79.4169000000001 141.4053  79.4169000000001 141.4053  C 79.4169000000001 141.4053  76.647 141.9635  76.647 141.9635  C 76.647 141.9635  72.126 142.2941  72.126 142.2941  C 72.126 142.2941  71.4878 139.7745  71.4878 139.7745  C 71.4878 139.7745  71.8391 138.3659  71.8391 138.3659  C 71.8391 138.3659  71.6342 136.5025  71.6342 136.5025  C 71.6342 136.5025  70.6913 135.1971  70.6913 135.1971  C 70.6913 135.1971  70.8377 133.1283  70.8377 133.1283  C 70.8377 133.1283  71.4467 131.6555  71.4467 131.6555  C 71.4467 131.6555  71.1013 128.2717  71.1013 128.2717  C 71.1013 128.2717  71.5111000000001 126.7452  71.5111000000001 126.7452  C 71.5111000000001 126.7452  72.5125 124.1472  72.5125 124.1472  C 72.5125 124.1472  72.3193 123.7143  72.3193 123.7143  C 72.3193 123.7143  70.9021 122.9783  70.9021 122.9783  C 70.9021 122.9783  69.2449 121.3009  69.2449 121.3009  C 69.2449 121.3009  68.1673 121.658  68.1673 121.658  C 68.1673 121.658  68.0268 122.6428  68.0268 122.6428  C 68.0268 122.6428  67.4353 123.5898  67.4353 123.5898  C 67.4353 123.5898  59.9995 127.1024  59.9995 127.1024  C 59.9995 127.1024  59.4255000000001 128.0768  59.4255000000001 128.0768  C 59.4255000000001 128.0768  60.2103 128.8888  60.2103 128.8888  C 60.2103 128.8888  60.4913 130.6808  60.4913 130.6808  C 60.4913 130.6808  59.8179 131.0924  59.8179 131.0924  C 59.8179 131.0924  56.6908 131.9912  56.6908 131.9912  C 56.6908 131.9912  54.688 133.7294  54.688 133.7294  Z " stroke-width="2" stroke="#666666" fill="none" transform="matrix(1 0 0 1 494 258 )" mask="url(#clip38)" />
    <path d="M 65.3682 144.4454  C 65.3682 144.4454  64.7239 142.0798  64.7239 142.0798  C 64.7239 142.0798  63.0445999999999 143.1936  63.0445999999999 143.1936  C 63.0445999999999 143.1936  62.7811 140.8768  62.7811 140.8768  C 62.7811 140.8768  65.2803 141.9118  65.2803 141.9118  C 65.2803 141.9118  65.3682 144.4454  65.3682 144.4454  Z " stroke-width="2" stroke="#666666" fill="none" transform="matrix(1 0 0 1 494 258 )" mask="url(#clip38)" />
    <path d="M 62.8104 155.2727  C 62.8104 155.2727  62.0784 155.8585  62.0784 155.8585  C 62.0784 155.8585  61.4166 153.0416  61.4166 153.0416  C 61.4166 153.0416  62.2951000000001 152.8626  62.2951000000001 152.8626  C 62.2951000000001 152.8626  65.2393 153.4375  65.2393 153.4375  C 65.2393 153.4375  64.8469 155.2456  64.8469 155.2456  C 64.8469 155.2456  62.8104 155.2727  62.8104 155.2727  Z " stroke-width="2" stroke="#666666" fill="none" transform="matrix(1 0 0 1 494 258 )" mask="url(#clip38)" />
    <path d="M 60.8545 134.1356  C 60.8545 134.1356  60.6261 132.2637  60.6261 132.2637  C 60.6261 132.2637  62.241 132.3395  62.241 132.3395  C 62.241 132.3395  60.8545 134.1356  60.8545 134.1356  Z " stroke-width="2" stroke="#666666" fill="none" transform="matrix(1 0 0 1 494 258 )" mask="url(#clip38)" />
    <path d="M 78.2529 150.403  C 78.2529 150.403  78.2061 148.3891  78.2061 148.3891  C 78.2061 148.3891  78.657 147.9011  78.657 147.9011  C 78.657 147.9011  80.4007 148.2047  80.4007 148.2047  C 80.4007 148.2047  78.2529 150.403  78.2529 150.403  Z " stroke-width="2" stroke="#666666" fill="none" transform="matrix(1 0 0 1 494 258 )" mask="url(#clip38)" />
    <path d="M 63.5424 133.8269  C 63.5424 133.8269  63.6419 131.7655  63.6419 131.7655  C 63.6419 131.7655  64.9582 133.8973  64.9582 133.8973  C 64.9582 133.8973  63.5424 133.8269  63.5424 133.8269  Z " stroke-width="2" stroke="#666666" fill="none" transform="matrix(1 0 0 1 494 258 )" mask="url(#clip38)" />
    <path d="M 69.0999 140.5895  C 69.0999 140.5895  70.5625 142.695  70.5625 142.695  C 70.5625 142.695  68.9768 142.4349  68.9768 142.4349  C 68.9768 142.4349  69.0999 140.5895  69.0999 140.5895  Z " stroke-width="2" stroke="#666666" fill="none" transform="matrix(1 0 0 1 494 258 )" mask="url(#clip38)" />
    <path d="M 64.7239 157.871  C 64.7239 157.871  63.0212 157.8059  63.0212 157.8059  C 63.0212 157.8059  65.0109 155.2002  65.0109 155.2002  C 65.0109 155.2002  65.4208 155.3087  65.4208 155.3087  C 65.4208 155.3087  64.7239 157.871  64.7239 157.871  Z " stroke-width="2" stroke="#666666" fill="none" transform="matrix(1 0 0 1 494 258 )" mask="url(#clip38)" />
  </g>
</svg>