<?xml version="1.0" encoding="utf-8"?>
<svg version="1.1" xmlns:xlink="http://www.w3.org/1999/xlink" width="144px" height="217px" xmlns="http://www.w3.org/2000/svg">
  <g transform="matrix(1 0 0 1 -541 -153 )">
    <path d="M 112.655 147.4491  C 112.655 147.4491  113.5133 147.4766  113.5133 147.4766  C 113.5133 147.4766  113.5363 148.3758  113.5363 148.3758  C 113.5363 148.3758  114.1585 150.7835  114.1585 150.7835  C 114.1585 150.7835  115.0054 152.0561  115.0054 152.0561  C 115.0054 152.0561  115.7888 152.6047  115.7888 152.6047  C 115.7888 152.6047  116.6068 152.462  116.6068 152.462  C 116.6068 152.462  117.6379 151.5569  117.6379 151.5569  C 117.6379 151.5569  118.5885 151.7599  118.5885 151.7599  C 118.5885 151.7599  118.9398 153.2191  118.9398 153.2191  C 118.9398 153.2191  118.9629 155.3753  118.9629 155.3753  C 118.9629 155.3753  118.3638 157.927  118.3638 157.927  C 118.3638 157.927  118.479 160.1772  118.479 160.1772  C 118.479 160.1772  118.9456 161.4947  118.9456 161.4947  C 118.9456 161.4947  119.009 164.0422  119.009 164.0422  C 119.009 164.0422  118.6864 164.5309  118.6864 164.5309  C 118.6864 164.5309  117.2923 164.9317  117.2923 164.9317  C 117.2923 164.9317  116.1632 168.1775  116.1632 168.1775  C 116.1632 168.1775  115.1321 168.8805  115.1321 168.8805  C 115.1321 168.8805  114.314 168.5345  114.314 168.5345  C 114.314 168.5345  113.761 169.8143  113.761 169.8143  C 113.761 169.8143  114.2046 171.0174  114.2046 171.0174  C 114.2046 171.0174  112.9891 171.6492  112.9891 171.6492  C 112.9891 171.6492  112.1481 171.4019  112.1481 171.4019  C 112.1481 171.4019  111.6296 172.1932  111.6296 172.1932  C 111.6296 172.1932  111.3704 173.5174  111.3704 173.5174  C 111.3704 173.5174  110.5869 174.5175  110.5869 174.5175  C 110.5869 174.5175  108.3864 174.2152  108.3864 174.2152  C 108.3864 174.2152  107.7008 174.8472  107.7008 174.8472  C 107.7008 174.8472  107.096 176.8697  107.096 176.8697  C 107.096 176.8697  106.8771 178.3813  106.8771 178.3813  C 106.8771 178.3813  105.748 178.7386  105.748 178.7386  C 105.748 178.7386  105.3274 179.7391  105.3274 179.7391  C 105.3274 179.7391  106.3298 181.1905  106.3298 181.1905  C 106.3298 181.1905  106.2204 181.8394  106.2204 181.8394  C 106.2204 181.8394  104.8839 183.291  104.8839 183.291  C 104.8839 183.291  104.832 184.9354  104.832 184.9354  C 104.832 184.9354  105.4715 186.2279  105.4715 186.2279  C 105.4715 186.2279  107.0038 187.6472  107.0038 187.6472  C 107.0038 187.6472  107.6663 190.0239  107.6663 190.0239  C 107.6663 190.0239  109.4693 192.0708  109.4693 192.0708  C 109.4693 192.0708  109.3196 193.0449  109.3196 193.0449  C 109.3196 193.0449  108.0983 193.6558  108.0983 193.6558  C 108.0983 193.6558  109.2159 195.7309  109.2159 195.7309  C 109.2159 195.7309  108.1156 197.3438  108.1156 197.3438  C 108.1156 197.3438  107.5683 200.0802  107.5683 200.0802  C 107.5683 200.0802  105.8229 202.5528  105.8229 202.5528  C 105.8229 202.5528  105.5694 204.42  105.5694 204.42  C 105.5694 204.42  104.7341 204.9818  104.7341 204.9818  C 104.7341 204.9818  103.7375 204.4751  103.7375 204.4751  C 103.7375 204.4751  103.2882 205.0149  103.2882 205.0149  C 103.2882 205.0149  104.2502 205.979  104.2502 205.979  C 104.2502 205.979  105.5751 206.607  105.5751 206.607  C 105.5751 206.607  107.4877 206.7668  107.4877 206.7668  C 107.4877 206.7668  107.9831 207.3177  107.9831 207.3177  C 107.9831 207.3177  108.1214 208.91  108.1214 208.91  C 108.1214 208.91  107.2285 208.9211  107.2285 208.9211  C 107.2285 208.9211  106.4508 211.1365  106.4508 211.1365  C 106.4508 211.1365  105.6558 211.2301  105.6558 211.2301  C 105.6558 211.2301  104.4231 212.6686  104.4231 212.6686  C 104.4231 212.6686  103.1442 212.3434  103.1442 212.3434  C 103.1442 212.3434  102.9944 210.2877  102.9944 210.2877  C 102.9944 210.2877  102.3723 208.7613  102.3723 208.7613  C 102.3723 208.7613  101.8423 208.5134  101.8423 208.5134  C 101.8423 208.5134  101.1453 209.687  101.1453 209.687  C 101.1453 209.687  101.0127 211.175  101.0127 211.175  C 101.0127 211.175  99.9355 211.2191  99.9355 211.2191  C 99.9355 211.2191  100.3445 212.1671  100.3445 212.1671  C 100.3445 212.1671  99.4344 212.3875  99.4344 212.3875  C 99.4344 212.3875  99.3307 213.4569  99.3307 213.4569  C 99.3307 213.4569  97.7292 215.9983  97.7292 215.9983  C 97.7292 215.9983  97.3029 216.2684  97.3029 216.2684  C 97.3029 216.2684  97.0552 215.072  97.0552 215.072  C 97.0552 215.072  97.0608999999999 213.1922  97.0608999999999 213.1922  C 97.0608999999999 213.1922  96.6981 212.4481  96.6981 212.4481  C 96.6981 212.4481  96.8132000000001 211.0703  96.8132000000001 211.0703  C 96.8132000000001 211.0703  95.1657 209.2242  95.1657 209.2242  C 95.1657 209.2242  95.2982 205.9018  95.2982 205.9018  C 95.2982 205.9018  94.3131 203.434  94.3131 203.434  C 94.3131 203.434  93.4951 203.2303  93.4951 203.2303  C 93.4951 203.2303  91.8476000000001 203.8196  91.8476000000001 203.8196  C 91.8476000000001 203.8196  90.7761 205.5658  90.7761 205.5658  C 90.7761 205.5658  90.3095 207.4224  90.3095 207.4224  C 90.3095 207.4224  90.851 208.8549  90.851 208.8549  C 90.851 208.8549  90.3441 210.5027  90.3441 210.5027  C 90.3441 210.5027  88.8232 210.1885  88.8232 210.1885  C 88.8232 210.1885  87.5271 209.2022  87.5271 209.2022  C 87.5271 209.2022  85.4878 209.3178  85.4878 209.3178  C 85.4878 209.3178  84.4337 208.3315  84.4337 208.3315  C 84.4337 208.3315  82.1236 207.4775  82.1236 207.4775  C 82.1236 207.4775  81.1846 206.5629  81.1846 206.5629  C 81.1846 206.5629  80.1362 206.023  80.1362 206.023  C 80.1362 206.023  79.4795 205.2408  79.4795 205.2408  C 79.4795 205.2408  78.9207 203.792  78.9207 203.792  C 78.9207 203.792  77.4979 202.6464  77.4979 202.6464  C 77.4979 202.6464  75.7293 202.4152  75.7293 202.4152  C 75.7293 202.4152  74.9516 203.021  74.9516 203.021  C 74.9516 203.021  74.4332000000001 204.8331  74.4332000000001 204.8331  C 74.4332000000001 204.8331  73.4078 205.8247  73.4078 205.8247  C 73.4078 205.8247  71.4861 205.4777  71.4861 205.4777  C 71.4861 205.4777  71.2441 204.9213  71.2441 204.9213  C 71.2441 204.9213  71.463 203.423  71.463 203.423  C 71.463 203.423  71.2269 201.556  71.2269 201.556  C 71.2269 201.556  70.2476 201.9029  70.2476 201.9029  C 70.2476 201.9029  69.4007 203.8196  69.4007 203.8196  C 69.4007 203.8196  68.5482 204.5026  68.5482 204.5026  C 68.5482 204.5026  68.3581 205.5933  68.3581 205.5933  C 68.3581 205.5933  67.8627 206.0671  67.8627 206.0671  C 67.8627 206.0671  67.782 207.5271  67.782 207.5271  C 67.782 207.5271  66.0711 207.2846  66.0711 207.2846  C 66.0711 207.2846  64.9881 206.3426  64.9881 206.3426  C 64.9881 206.3426  64.8556 207.0642  64.8556 207.0642  C 64.8556 207.0642  65.495 208.0174  65.495 208.0174  C 65.495 208.0174  66.0999 209.9736  66.0999 209.9736  C 66.0999 209.9736  65.9674 210.8609  65.9674 210.8609  C 65.9674 210.8609  63.9109 210.7727  63.9109 210.7727  C 63.9109 210.7727  63.162 210.3538  63.162 210.3538  C 63.162 210.3538  63.0641000000001 209.1746  63.0641000000001 209.1746  C 63.0641000000001 209.1746  61.8946999999999 209.1084  61.8946999999999 209.1084  C 61.8946999999999 209.1084  61.572 208.2268  61.572 208.2268  C 61.572 208.2268  60.5294 209.5878  60.5294 209.5878  C 60.5294 209.5878  59.6364 209.9461  59.6364 209.9461  C 59.6364 209.9461  57.7354 209.7642  57.7354 209.7642  C 57.7354 209.7642  56.1224 210.712  56.1224 210.712  C 56.1224 210.712  55.1431 212.0734  55.1431 212.0734  C 55.1431 212.0734  53.4438 212.5088  53.4438 212.5088  C 53.4438 212.5088  51.3296 212.156  51.3296 212.156  C 51.3296 212.156  50.4656 211.4065  50.4656 211.4065  C 50.4656 211.4065  49.7685 211.7703  49.7685 211.7703  C 49.7685 211.7703  49.9701 210.15  49.9701 210.15  C 49.9701 210.15  49.1464 209.8965  49.1464 209.8965  C 49.1464 209.8965  48.985 208.0891  48.985 208.0891  C 48.985 208.0891  49.4747 207.9679  49.4747 207.9679  C 49.4747 207.9679  49.6704999999999 206.3977  49.6704999999999 206.3977  C 49.6704999999999 206.3977  49.1636 206.0671  49.1636 206.0671  C 49.1636 206.0671  46.9631000000001 206.9045  46.9631000000001 206.9045  C 46.9631000000001 206.9045  46.8248 206.0285  46.8248 206.0285  C 46.8248 206.0285  46.1508 207.4775  46.1508 207.4775  C 46.1508 207.4775  45.327 207.0147  45.327 207.0147  C 45.327 207.0147  44.4974999999999 207.3122  44.4974999999999 207.3122  C 44.4974999999999 207.3122  44.365 206.3701  44.365 206.3701  C 44.365 206.3701  44.6415 204.9929  44.6415 204.9929  C 44.6415 204.9929  43.8869 204.8331  43.8869 204.8331  C 43.8869 204.8331  43.7486 203.8141  43.7486 203.8141  C 43.7486 203.8141  44.3823 203.434  44.3823 203.434  C 44.3823 203.434  45.4941 202.0627  45.4941 202.0627  C 45.4941 202.0627  44.9756 201.4954  44.9756 201.4954  C 44.9756 201.4954  43.8351 201.4734  43.8351 201.4734  C 43.8351 201.4734  44.7855 200.5978  44.7855 200.5978  C 44.7855 200.5978  44.244 198.9624  44.244 198.9624  C 44.244 198.9624  44.9353 197.7016  44.9353 197.7016  C 44.9353 197.7016  44.797 197.0409  44.797 197.0409  C 44.797 197.0409  43.6219 197.2502  43.6219 197.2502  C 43.6219 197.2502  41.8822 198.2357  41.8822 198.2357  C 41.8822 198.2357  41.2773 197.5805  41.2773 197.5805  C 41.2773 197.5805  40.6149 198.4229  40.6149 198.4229  C 40.6149 198.4229  39.6759 197.2887  39.6759 197.2887  C 39.6759 197.2887  38.5583 197.052  38.5583 197.052  C 38.5583 197.052  38.253 195.9179  38.253 195.9179  C 38.253 195.9179  39.3244 194.7511  39.3244 194.7511  C 39.3244 194.7511  39.6874 193.8153  39.6874 193.8153  C 39.6874 193.8153  39.4627 192.8082  39.4627 192.8082  C 39.4627 192.8082  39.9005 192.3515  39.9005 192.3515  C 39.9005 192.3515  39.6413 191.372  39.6413 191.372  C 39.6413 191.372  39.9063 190.2989  39.9063 190.2989  C 39.9063 190.2989  39.5145 189.4022  39.5145 189.4022  C 39.5145 189.4022  41.0008 189.028  41.0008 189.028  C 41.0008 189.028  42.441 186.9761  42.441 186.9761  C 42.441 186.9761  41.8246 185.3479  41.8246 185.3479  C 41.8246 185.3479  41.8534 182.7466  41.8534 182.7466  C 41.8534 182.7466  41.2945999999999 181.8174  41.2945999999999 181.8174  C 41.2945999999999 181.8174  41.4501 180.7947  41.4501 180.7947  C 41.4501 180.7947  41.0353 180.2449  41.0353 180.2449  C 41.0353 180.2449  41.3176 179.2388  41.3176 179.2388  C 41.3176 179.2388  42.1529 179.3872  42.1529 179.3872  C 42.1529 179.3872  42.9018 178.7936  42.9018 178.7936  C 42.9018 178.7936  42.3373 177.0016  42.3373 177.0016  C 42.3373 177.0016  41.4444 177.5128  41.4444 177.5128  C 41.4444 177.5128  40.1598 177.2545  40.1598 177.2545  C 40.1598 177.2545  39.5895 176.6718  39.5895 176.6718  C 39.5895 176.6718  37.7921 176.2541  37.7921 176.2541  C 37.7921 176.2541  36.7207 177.1225  36.7207 177.1225  C 36.7207 177.1225  35.8739 175.9903  35.8739 175.9903  C 35.8739 175.9903  34.4567 173.3085  34.4567 173.3085  C 34.4567 173.3085  33.7827 174.5394  33.7827 174.5394  C 33.7827 174.5394  33.0972 174.5943  33.0972 174.5943  C 33.0972 174.5943  32.8668 175.2483  32.8668 175.2483  C 32.8668 175.2483  31.2884 175.8584  31.2884 175.8584  C 31.2884 175.8584  30.9657999999999 174.8967  30.9657999999999 174.8967  C 30.9657999999999 174.8967  30.1536 174.2811  30.1536 174.2811  C 30.1536 174.2811  29.7215 174.5119  29.7215 174.5119  C 29.7215 174.5119  28.6269 174.0723  28.6269 174.0723  C 28.6269 174.0723  28.2583 170.7757  28.2583 170.7757  C 28.2583 170.7757  27.6476 170.9459  27.6476 170.9459  C 27.6476 170.9459  27.3423 171.9294  27.3423 171.9294  C 27.3423 171.9294  26.2594 171.7701  26.2594 171.7701  C 26.2594 171.7701  25.8733999999999 169.9901  25.8733999999999 169.9901  C 25.8733999999999 169.9901  24.7558 169.9956  24.7558 169.9956  C 24.7558 169.9956  25.1763999999999 167.0295  25.1763999999999 167.0295  C 25.1763999999999 167.0295  25.5681 166.7769  25.5681 166.7769  C 25.5681 166.7769  25.5162 165.6017  25.5162 165.6017  C 25.5162 165.6017  24.9459000000001 164.6847  24.9459000000001 164.6847  C 24.9459000000001 164.6847  24.8826 163.7622  24.8826 163.7622  C 24.8826 163.7622  24.0991 164.5473  24.0991 164.5473  C 24.0991 164.5473  24.0185 165.4259  24.0185 165.4259  C 24.0185 165.4259  22.7972 165.3546  22.7972 165.3546  C 22.7972 165.3546  22.3018 165.9256  22.3018 165.9256  C 22.3018 165.9256  21.0921 164.9537  21.0921 164.9537  C 21.0921 164.9537  21.0172 163.257  21.0172 163.257  C 21.0172 163.257  21.455 162.6585  21.455 162.6585  C 21.455 162.6585  21.069 160.7097  21.069 160.7097  C 21.069 160.7097  20.0782 160.084  20.0782 160.084  C 20.0782 160.084  19.842 160.534  19.842 160.534  C 19.842 160.534  18.4479 160.9732  18.4479 160.9732  C 18.4479 160.9732  17.1518 159.5735  17.1518 159.5735  C 17.1518 159.5735  17.1115 158.4374  17.1115 158.4374  C 17.1115 158.4374  16.4662 159.0795  16.4662 159.0795  C 16.4662 159.0795  15.3487 159.1289  15.3487 159.1289  C 15.3487 159.1289  14.8706 160.3419  14.8706 160.3419  C 14.8706 160.3419  13.7299 159.6228  13.7299 159.6228  C 13.7299 159.6228  9.96249999999998 159.0795  9.96249999999998 159.0795  C 9.96249999999998 159.0795  8.38409999999999 158.0697  8.38409999999999 158.0697  C 8.38409999999999 158.0697  7.45089999999999 158.2288  7.45089999999999 158.2288  C 7.45089999999999 158.2288  5.76870000000002 157.0379  5.76870000000002 157.0379  C 5.76870000000002 157.0379  4.80680000000001 156.6154  4.80680000000001 156.6154  C 4.80680000000001 156.6154  4.02330000000001 156.769  4.02330000000001 156.769  C 4.02330000000001 156.769  2.83659999999998 157.8611  2.83659999999998 157.8611  C 2.83659999999998 157.8611  1.45979999999997 158.2892  1.45979999999997 158.2892  C 1.45979999999997 158.2892  0.636000000000024 157.6251  0.636000000000024 157.6251  C 0.636000000000024 157.6251  0.970199999999977 155.6715  0.970199999999977 155.6715  C 0.970199999999977 155.6715  1.39069999999998 155.2161  1.39069999999998 155.2161  C 1.39069999999998 155.2161  1.01049999999998 154.234  1.01049999999998 154.234  C 1.01049999999998 154.234  1.59230000000002 153.6525  1.59230000000002 153.6525  C 1.59230000000002 153.6525  0.999000000000024 152.8845  0.999000000000024 152.8845  C 0.999000000000024 152.8845  1.48860000000002 152.6924  1.48860000000002 152.6924  C 1.48860000000002 152.6924  1.32150000000001 150.0486  1.32150000000001 150.0486  C 1.32150000000001 150.0486  0.785799999999995 149.5824  0.785799999999995 149.5824  C 0.785799999999995 149.5824  0.641799999999989 147.9481  0.641799999999989 147.9481  C 0.641799999999989 147.9481  1.66140000000001 147.7178  1.66140000000001 147.7178  C 1.66140000000001 147.7178  0.883699999999976 146.7582  0.883699999999976 146.7582  C 0.883699999999976 146.7582  0.630299999999977 145.2779  0.630299999999977 145.2779  C 0.630299999999977 145.2779  0.837600000000009 143.4468  0.837600000000009 143.4468  C 0.837600000000009 143.4468  1.7593 143.1618  1.7593 143.1618  C 1.7593 143.1618  1.97250000000003 142.5314  1.97250000000003 142.5314  C 1.97250000000003 142.5314  2.92880000000002 143.1124  2.92880000000002 143.1124  C 2.92880000000002 143.1124  2.58890000000002 139.8075  2.58890000000002 139.8075  C 2.58890000000002 139.8075  3.32619999999997 137.0513  3.32619999999997 137.0513  C 3.32619999999997 137.0513  3.07279999999997 134.997  3.07279999999997 134.997  C 3.07279999999997 134.997  4.0521 133.5563  4.0521 133.5563  C 4.0521 133.5563  3.8562 131.8037  3.8562 131.8037  C 3.8562 131.8037  2.2029 130.0732  2.2029 130.0732  C 2.2029 130.0732  2.04160000000002 129.3395  2.04160000000002 129.3395  C 2.04160000000002 129.3395  2.87119999999999 126.5145  2.87119999999999 126.5145  C 2.87119999999999 126.5145  3.22829999999999 124.7464  3.22829999999999 124.7464  C 3.22829999999999 124.7464  5.20999999999998 123.6572  5.20999999999998 123.6572  C 5.20999999999998 123.6572  7.47390000000001 120.1825  7.47390000000001 120.1825  C 7.47390000000001 120.1825  7.99239999999998 118.7819  7.99239999999998 118.7819  C 7.99239999999998 118.7819  8.0385 117.737  8.0385 117.737  C 8.0385 117.737  8.63760000000002 116.5171  8.63760000000002 116.5171  C 8.63760000000002 116.5171  8.66640000000001 114.4115  8.66640000000001 114.4115  C 8.66640000000001 114.4115  9.72629999999998 112.9514  9.72629999999998 112.9514  C 9.72629999999998 112.9514  10.4291 111.1744  10.4291 111.1744  C 10.4291 111.1744  10.6423 105.0962  10.6423 105.0962  C 10.6423 105.0962  10.3024 103.6864  10.3024 103.6864  C 10.3024 103.6864  10.3888 102.1017  10.3888 102.1017  C 10.3888 102.1017  11.1837 102.588  11.1837 102.588  C 11.1837 102.588  11.5179 101.916  11.5179 101.916  C 11.5179 101.916  10.7633 100.9381  10.7633 100.9381  C 10.7633 100.9381  11.4603 99.7472  11.4603 99.7472  C 11.4603 99.7472  11.6504 98.245  11.6504 98.245  C 11.6504 98.245  10.8554 97.442  10.8554 97.442  C 10.8554 97.442  11.7368 97.2072  11.7368 97.2072  C 11.7368 97.2072  11.9327 96.1859  11.9327 96.1859  C 11.9327 96.1859  11.4775 95.5198  11.4775 95.5198  C 11.4775 95.5198  12.0882 92.069  12.0882 92.069  C 12.0882 92.069  12.9177 90.9663  12.9177 90.9663  C 12.9177 90.9663  12.9004 89.5962  12.9004 89.5962  C 12.9004 89.5962  12.3302 88.1717  12.3302 88.1717  C 12.3302 88.1717  12.0421 86.671  12.0421 86.671  C 12.0421 86.671  10.6596 85.0504  10.6596 85.0504  C 10.6596 85.0504  10.4982 84.1283  10.4982 84.1283  C 10.4982 84.1283  9.6918 82.7045  9.6918 82.7045  C 9.6918 82.7045  9.83580000000001 81.499  9.83580000000001 81.499  C 9.83580000000001 81.499  10.7978 80.3701  10.7978 80.3701  C 10.7978 80.3701  11.6273 78.6521  11.6273 78.6521  C 11.6273 78.6521  12.8659 78.4994  12.8659 78.4994  C 12.8659 78.4994  13.321 77.856  13.321 77.856  C 13.321 77.856  13.8797 75.9423  13.8797 75.9423  C 13.8797 75.9423  15.4754 74.4649  15.4754 74.4649  C 15.4754 74.4649  15.4006 73.8815  15.4006 73.8815  C 15.4006 73.8815  14.2484 72.4807  14.2484 72.4807  C 14.2484 72.4807  13.5341 72.3008  13.5341 72.3008  C 13.5341 72.3008  13.0329 71.4888  13.0329 71.4888  C 13.0329 71.4888  13.0272 70.5405  13.0272 70.5405  C 13.0272 70.5405  14.692 66.819  14.692 66.819  C 14.692 66.819  14.5711 66.0564  14.5711 66.0564  C 14.5711 66.0564  13.0042 65.3211  13.0042 65.3211  C 13.0042 65.3211  12.549 64.2861  12.549 64.2861  C 12.549 64.2861  12.238 62.369  12.238 62.369  C 12.238 62.369  11.5986 61.6121  11.5986 61.6121  C 11.5986 61.6121  10.5156 61.2418  10.5156 61.2418  C 10.5156 61.2418  8.8449 60.1855  8.8449 60.1855  C 8.8449 60.1855  8.2919 59.1782  8.2919 59.1782  C 8.2919 59.1782  8.68360000000001 56.1352  8.68360000000001 56.1352  C 8.68360000000001 56.1352  9.06389999999999 54.4589  9.06389999999999 54.4589  C 9.06389999999999 54.4589  10.5386 53.3651  10.5386 53.3651  C 10.5386 53.3651  11.6561 52.0972  11.6561 52.0972  C 11.6561 52.0972  12.7737 53.1311  12.7737 53.1311  C 12.7737 53.1311  14.2773 52.5325  14.2773 52.5325  C 14.2773 52.5325  15.3257 51.7327  15.3257 51.7327  C 15.3257 51.7327  15.5215 50.6173  15.5215 50.6173  C 15.5215 50.6173  16.2877 48.5447  16.2877 48.5447  C 16.2877 48.5447  16.2185 47.3861  16.2185 47.3861  C 16.2185 47.3861  15.1125 45.0857  15.1125 45.0857  C 15.1125 45.0857  14.813 42.2637  14.813 42.2637  C 14.813 42.2637  13.1597 41.0406  13.1597 41.0406  C 13.1597 41.0406  12.9926 39.8881  12.9926 39.8881  C 12.9926 39.8881  14.4731 36.1328  14.4731 36.1328  C 14.4731 36.1328  15.4293 35.4699  15.4293 35.4699  C 15.4293 35.4699  17.3649 36.6707  17.3649 36.6707  C 17.3649 36.6707  18.5804000000001 36.9533  18.5804000000001 36.9533  C 18.5804000000001 36.9533  19.6864 36.2414  19.6864 36.2414  C 19.6864 36.2414  20.4123 33.8182  20.4123 33.8182  C 20.4123 33.8182  20.5678 32.0092  20.5678 32.0092  C 20.5678 32.0092  20.9941 30.7274  20.9941 30.7274  C 20.9941 30.7274  21.8179 29.9996  21.8179 29.9996  C 21.8179 29.9996  21.8179 28.6093  21.8179 28.6093  C 21.8179 28.6093  22.4343 24.9824  22.4343 24.9824  C 22.4343 24.9824  22.9873 24.027  22.9873 24.027  C 22.9873 24.027  24.2547 23.3322  24.2547 23.3322  C 24.2547 23.3322  26.9045 19.8751  26.9045 19.8751  C 26.9045 19.8751  28.2756000000001 21.4489  28.2756000000001 21.4489  C 28.2756000000001 21.4489  29.8943 20.8573  29.8943 20.8573  C 29.8943 20.8573  30.7238 21.0148  30.7238 21.0148  C 30.7238 21.0148  31.7435 22.8437  31.7435 22.8437  C 31.7435 22.8437  32.6018 23.2128  32.6018 23.2128  C 32.6018 23.2128  33.3622 22.5289  33.3622 22.5289  C 33.3622 22.5289  34.6411000000001 22.6483  34.6411000000001 22.6483  C 34.6411000000001 22.6483  35.8163 22.3009  35.8163 22.3009  C 35.8163 22.3009  36.928 22.5343  36.928 22.5343  C 36.928 22.5343  36.6055 24.7598  36.6055 24.7598  C 36.6055 24.7598  37.1009 26.2257  37.1009 26.2257  C 37.1009 26.2257  35.0904 31.2216  35.0904 31.2216  C 35.0904 31.2216  34.9176 33.1554  34.9176 33.1554  C 34.9176 33.1554  34.3703 34.5571  34.3703 34.5571  C 34.3703 34.5571  34.9982 35.5405  34.9982 35.5405  C 34.9982 35.5405  35.7702 35.6655  35.7702 35.6655  C 35.7702 35.6655  37.1009 37.5674  37.1009 37.5674  C 37.1009 37.5674  37.9765 36.0947  37.9765 36.0947  C 37.9765 36.0947  39.2726 36.6545  39.2726 36.6545  C 39.2726 36.6545  40.0906 37.5511  40.0906 37.5511  C 40.0906 37.5511  41.2945999999999 37.7359  41.2945999999999 37.7359  C 41.2945999999999 37.7359  42.0089 37.1978  42.0089 37.1978  C 42.0089 37.1978  42.5504 35.0623  42.5504 35.0623  C 42.5504 35.0623  43.2071 33.5031  43.2071 33.5031  C 43.2071 33.5031  43.9099 32.7752  43.9099 32.7752  C 43.9099 32.7752  44.6818 32.9273  44.6818 32.9273  C 44.6818 32.9273  45.5114 35.258  45.5114 35.258  C 45.5114 35.258  47.1762 36.3013  47.1762 36.3013  C 47.1762 36.3013  48.0172 37.3555  48.0172 37.3555  C 48.0172 37.3555  48.4609 39.948  48.4609 39.948  C 48.4609 39.948  48.0633 42.7748  48.0633 42.7748  C 48.0633 42.7748  49.2673 43.5033  49.2673 43.5033  C 49.2673 43.5033  51.249 42.9433  51.249 42.9433  C 51.249 42.9433  52.5509 42.8998  52.5509 42.8998  C 52.5509 42.8998  54.0947 42.0626  54.0947 42.0626  C 54.0947 42.0626  54.8379 40.3611  54.8379 40.3611  C 54.8379 40.3611  56.5488 34.9156  56.5488 34.9156  C 56.5488 34.9156  56.1974 34.0845  56.1974 34.0845  C 56.1974 34.0845  57.7009 31.6779  57.7009 31.6779  C 57.7009 31.6779  58.0005 30.0756  58.0005 30.0756  C 58.0005 30.0756  59.7575000000001 27.8545  59.7575000000001 27.8545  C 59.7575000000001 27.8545  60.8347 26.9152  60.8347 26.9152  C 60.8347 26.9152  61.7852 25.6773  61.7852 25.6773  C 61.7852 25.6773  62.6032 24.0704  62.6032 24.0704  C 62.6032 24.0704  64.0434 23.012  64.0434 23.012  C 64.0434 23.012  65.3395 21.4272  65.3395 21.4272  C 65.3395 21.4272  66.5838 22.898  66.5838 22.898  C 66.5838 22.898  67.3096 22.4747  67.3096 22.4747  C 67.3096 22.4747  68.6288 20.7542  68.6288 20.7542  C 68.6288 20.7542  69.6484 18.4752  69.6484 18.4752  C 69.6484 18.4752  70.5298 17.287  70.5298 17.287  C 70.5298 17.287  70.8294 16.0339  70.8294 16.0339  C 70.8294 16.0339  70.7891 13.642  70.7891 13.642  C 70.7891 13.642  71.4803000000001 10.7082  71.4803000000001 10.7082  C 71.4803000000001 10.7082  73.5461 10.3829  73.5461 10.3829  C 73.5461 10.3829  74.6636 9.6401  74.6636 9.6401  C 74.6636 9.6401  75.4932 7.4771  75.4932 7.4771  C 75.4932 7.4771  76.8008 5.9377  76.8008 5.9377  C 76.8008 5.9377  77.5958000000001 6.2954  77.5958000000001 6.2954  C 77.5958000000001 6.2954  77.8204 7.7535  77.8204 7.7535  C 77.8204 7.7535  79.1799 8.48  79.1799 8.48  C 79.1799 8.48  80.9542 7.5529  80.9542 7.5529  C 80.9542 7.5529  83.27 8.4528  83.27 8.4528  C 83.27 8.4528  84.1514 10.0196  84.1514 10.0196  C 84.1514 10.0196  85.0213 9.9166  85.0213 9.9166  C 85.0213 9.9166  85.8969 8.1439  85.8969 8.1439  C 85.8969 8.1439  86.5939 7.927  86.5939 7.927  C 86.5939 7.927  87.1815 9.2226  87.1815 9.2226  C 87.1815 9.2226  87.2218 10.2908  87.2218 10.2908  C 87.2218 10.2908  86.6745 11.7439  86.6745 11.7439  C 86.6745 11.7439  86.0984999999999 12.259  86.0984999999999 12.259  C 86.0984999999999 12.259  87.8382 13.8535  87.8382 13.8535  C 87.8382 13.8535  87.9073 14.5097  87.9073 14.5097  C 87.9073 14.5097  89.6586 13.6256  89.6586 13.6256  C 89.6586 13.6256  92.1126 13.4901  92.1126 13.4901  C 92.1126 13.4901  93.5988 13.7829  93.5988 13.7829  C 93.5988 13.7829  94.4859 13.3816  94.4859 13.3816  C 94.4859 13.3816  95.2118 12.5464  95.2118 12.5464  C 95.2118 12.5464  98.5702 11.8523  98.5702 11.8523  C 98.5702 11.8523  99.8087 11.7547  99.8087 11.7547  C 99.8087 11.7547  100.4137 13.0617  100.4137 13.0617  C 100.4137 13.0617  100.2063 13.886  100.2063 13.886  C 100.2063 13.886  100.84 13.8046  100.84 13.8046  C 100.84 13.8046  100.8687 12.9315  100.8687 12.9315  C 100.8687 12.9315  101.5773 10.6757  101.5773 10.6757  C 101.5773 10.6757  101.295 8.789  101.295 8.789  C 101.295 8.789  100.4943 7.4391  100.4943 7.4391  C 100.4943 7.4391  101.8941 6.6369  101.8941 6.6369  C 101.8941 6.6369  102.1592 3.9705  102.1592 3.9705  C 102.1592 3.9705  102.3953 3.5858  102.3953 3.5858  C 102.3953 3.5858  101.9633 1.9061  101.9633 1.9061  C 101.9633 1.9061  103.0289 0.984999999999999  103.0289 0.984999999999999  C 103.0289 0.984999999999999  104.2157 0.697899999999997  104.2157 0.697899999999997  C 104.2157 0.697899999999997  104.9012 1.4618  104.9012 1.4618  C 104.9012 1.4618  105.5233 2.9193  105.5233 2.9193  C 105.5233 2.9193  106.7906 3.3907  106.7906 3.3907  C 106.7906 3.3907  106.3356 5.2819  106.3356 5.2819  C 106.3356 5.2819  107.8449 5.5041  107.8449 5.5041  C 107.8449 5.5041  108.7205 6.1057  108.7205 6.1057  C 108.7205 6.1057  109.406 6.057  109.406 6.057  C 109.406 6.057  109.1929 6.9621  109.1929 6.9621  C 109.1929 6.9621  110.1894 7.3632  110.1894 7.3632  C 110.1894 7.3632  110.7713 6.7724  110.7713 6.7724  C 110.7713 6.7724  111.042 7.4283  111.042 7.4283  C 111.042 7.4283  112.1481 7.4934  112.1481 7.4934  C 112.1481 7.4934  113.1446 8.6534  113.1446 8.6534  C 113.1446 8.6534  114.2277 8.919  114.2277 8.919  C 114.2277 8.919  114.5445 8.4745  114.5445 8.4745  C 114.5445 8.4745  115.8579 8.3932  115.8579 8.3932  C 115.8579 8.3932  116.4167 8.6751  116.4167 8.6751  C 116.4167 8.6751  118.0815 8.5775  118.0815 8.5775  C 118.0815 8.5775  118.9226 8.2739  118.9226 8.2739  C 118.9226 8.2739  119.5966 8.6155  119.5966 8.6155  C 119.5966 8.6155  121.6358 8.5396  121.6358 8.5396  C 121.6358 8.5396  121.9757 9.06  121.9757 9.06  C 121.9757 9.06  121.9469 10.2474  121.9469 10.2474  C 121.9469 10.2474  121.5264 11.283  121.5264 11.283  C 121.5264 11.283  122.2465 12.4489  122.2465 12.4489  C 122.2465 12.4489  123.2027 12.4163  123.2027 12.4163  C 123.2027 12.4163  123.6751 13.1375  123.6751 13.1375  C 123.6751 13.1375  124.3433 12.6549  124.3433 12.6549  C 124.3433 12.6549  124.8963 13.002  124.8963 13.002  C 124.8963 13.002  125.2477 12.438  125.2477 12.438  C 125.2477 12.438  126.4114 12.053  126.4114 12.053  C 126.4114 12.053  127.4253 12.2481  127.4253 12.2481  C 127.4253 12.2481  128.2433 14.0161  128.2433 14.0161  C 128.2433 14.0161  128.5198 15.6325  128.5198 15.6325  C 128.5198 15.6325  128.1972 17.325  128.1972 17.325  C 128.1972 17.325  126.6994 17.6886  126.6994 17.6886  C 126.6994 17.6886  126.6245 19.3433  126.6245 19.3433  C 126.6245 19.3433  126.3077 20.293  126.3077 20.293  C 126.3077 20.293  126.9068 20.9822  126.9068 20.9822  C 126.9068 20.9822  126.5496 22.3933  126.5496 22.3933  C 126.5496 22.3933  125.6683 24.5373  125.6683 24.5373  C 125.6683 24.5373  125.9967 25.8945  125.9967 25.8945  C 125.9967 25.8945  126.469 26.5569  126.469 26.5569  C 126.469 26.5569  126.4921 28.7723  126.4921 28.7723  C 126.4921 28.7723  125.7662 29.8476  125.7662 29.8476  C 125.7662 29.8476  126.2674 29.9128  126.2674 29.9128  C 126.2674 29.9128  124.6544 31.7377  124.6544 31.7377  C 124.6544 31.7377  126.2674 33.9812  126.2674 33.9812  C 126.2674 33.9812  125.2823 33.8834  125.2823 33.8834  C 125.2823 33.8834  124.0611 34.6766  124.0611 34.6766  C 124.0611 34.6766  123.5829 36.1273  123.5829 36.1273  C 123.5829 36.1273  122.3329 37.6054  122.3329 37.6054  C 122.3329 37.6054  122.4366 38.4152  122.4366 38.4152  C 122.4366 38.4152  121.4975 42.0136  121.4975 42.0136  C 121.4975 42.0136  121.0252 42.5464  121.0252 42.5464  C 121.0252 42.5464  120.9791 43.5523  120.9791 43.5523  C 120.9791 43.5523  120.4837 44.319  120.4837 44.319  C 120.4837 44.319  121.6531 44.357  121.6531 44.357  C 121.6531 44.357  121.7683 45.6947  121.7683 45.6947  C 121.7683 45.6947  122.7649 45.9558  122.7649 45.9558  C 122.7649 45.9558  122.5345 46.777  122.5345 46.777  C 122.5345 46.777  123.7154 48.5773  123.7154 48.5773  C 123.7154 48.5773  122.9781 48.9581  122.9781 48.9581  C 122.9781 48.9581  123.4792 49.9482  123.4792 49.9482  C 123.4792 49.9482  124.5046 50.9275  124.5046 50.9275  C 124.5046 50.9275  125.1786 53.2562  125.1786 53.2562  C 125.1786 53.2562  125.8065 53.6262  125.8065 53.6262  C 125.8065 53.6262  127.2179 53.7024  127.2179 53.7024  C 127.2179 53.7024  128.2317 54.2957  128.2317 54.2957  C 128.2317 54.2957  128.6234 52.293  128.6234 52.293  C 128.6234 52.293  129.2456 51.3409  129.2456 51.3409  C 129.2456 51.3409  130.8471 50.1495  130.8471 50.1495  C 130.8471 50.1495  130.9335 49.6761  130.9335 49.6761  C 130.9335 49.6761  132.3449 49.056  132.3449 49.056  C 132.3449 49.056  133.0073 50.4867  133.0073 50.4867  C 133.0073 50.4867  133.4105 50.6445  133.4105 50.6445  C 133.4105 50.6445  133.7792 49.6381  133.7792 49.6381  C 133.7792 49.6381  134.7816 49.2138  134.7816 49.2138  C 134.7816 49.2138  135.0927 51.4824  135.0927 51.4824  C 135.0927 51.4824  137.0685 51.1994  137.0685 51.1994  C 137.0685 51.1994  137.61 52.0319  137.61 52.0319  C 137.61 52.0319  138.8486 51.0145  138.8486 51.0145  C 138.8486 51.0145  139.488 51.2158  139.488 51.2158  C 139.488 51.2158  140.5134 50.8622  140.5134 50.8622  C 140.5134 50.8622  140.7093 52.6141  140.7093 52.6141  C 140.7093 52.6141  141.7865 52.1897  141.7865 52.1897  C 141.7865 52.1897  143.3822 52.8645  143.3822 52.8645  C 143.3822 52.8645  142.9386 53.8004  142.9386 53.8004  C 142.9386 53.8004  141.343 54.1487  141.343 54.1487  C 141.343 54.1487  140.715 54.9324  140.715 54.9324  C 140.715 54.9324  138.9292 55.1174  138.9292 55.1174  C 138.9292 55.1174  138.3071 57.1368  138.3071 57.1368  C 138.3071 57.1368  139.1424 58.416  139.1424 58.416  C 139.1424 58.416  139.609 61.9987  139.609 61.9987  C 139.609 61.9987  139.4535 62.8537  139.4535 62.8537  C 139.4535 62.8537  138.9005 63.1533  138.9005 63.1533  C 138.9005 63.1533  137.6274 62.9954  137.6274 62.9954  C 137.6274 62.9954  136.383 65.3755  136.383 65.3755  C 136.383 65.3755  132.3851 66.8844  132.3851 66.8844  C 132.3851 66.8844  130.9104 66.5739  130.9104 66.5739  C 130.9104 66.5739  130.2595 66.8953  130.2595 66.8953  C 130.2595 66.8953  129.4127 68.2301  129.4127 68.2301  C 129.4127 68.2301  129.5048 70.6495  129.5048 70.6495  C 129.5048 70.6495  129.8965 71.625  129.8965 71.625  C 129.8965 71.625  129.5855 74.105  129.5855 74.105  C 129.5855 74.105  129.6027 75.4297  129.6027 75.4297  C 129.6027 75.4297  130.1788 76.8091  130.1788 76.8091  C 130.1788 76.8091  131.4693 78.1123  131.4693 78.1123  C 131.4693 78.1123  132.1087 79.6883  132.1087 79.6883  C 132.1087 79.6883  131.6305 80.3919  131.6305 80.3919  C 131.6305 80.3919  130.7261 83.5883  130.7261 83.5883  C 130.7261 83.5883  130.6512 85.1268  130.6512 85.1268  C 130.6512 85.1268  130.9738 87.8934  130.9738 87.8934  C 130.9738 87.8934  130.4669 90.4477  130.4669 90.4477  C 130.4669 90.4477  130.1501 90.6223  130.1501 90.6223  C 130.1501 90.6223  128.9115 93.1117  128.9115 93.1117  C 128.9115 93.1117  128.8596 95.2739  128.8596 95.2739  C 128.8596 95.2739  127.2524 97.7971  127.2524 97.7971  C 127.2524 97.7971  126.2616 97.5841  126.2616 97.5841  C 126.2616 97.5841  125.5818 99.3756  125.5818 99.3756  C 125.5818 99.3756  125.6279 100.5556  125.6279 100.5556  C 125.6279 100.5556  124.4643 101.3751  124.4643 101.3751  C 124.4643 101.3751  124.0553 102.3531  124.0553 102.3531  C 124.0553 102.3531  123.3928 102.6262  123.3928 102.6262  C 123.3928 102.6262  122.0736 103.8285  122.0736 103.8285  C 122.0736 103.8285  119.9019 103.5224  119.9019 103.5224  C 119.9019 103.5224  118.5424 105.9598  118.5424 105.9598  C 118.5424 105.9598  117.9029 107.7799  117.9029 107.7799  C 117.9029 107.7799  116.6183 110.8791  116.6183 110.8791  C 116.6183 110.8791  115.1839 112.164  115.1839 112.164  C 115.1839 112.164  113.9569 112.7436  113.9569 112.7436  C 113.9569 112.7436  114.4293 114.6412  114.4293 114.6412  C 114.4293 114.6412  114.4523 116.0085  114.4523 116.0085  C 114.4523 116.0085  115.0572 117.3651  115.0572 117.3651  C 115.0572 117.3651  114.6712 119.6079  114.6712 119.6079  C 114.6712 119.6079  112.0329 121.222  112.0329 121.222  C 112.0329 121.222  111.0938 122.5901  111.0938 122.5901  C 111.0938 122.5901  110.2989 122.5737  110.2989 122.5737  C 110.2989 122.5737  109.7113 123.4493  109.7113 123.4493  C 109.7113 123.4493  108.7608 123.4329  108.7608 123.4329  C 108.7608 123.4329  106.3471 124.7848  106.3471 124.7848  C 106.3471 124.7848  106.1801 126.3776  106.1801 126.3776  C 106.1801 126.3776  105.8229 126.624  105.8229 126.624  C 105.8229 126.624  104.8378 128.7317  104.8378 128.7317  C 104.8378 128.7317  104.4461 130.5168  104.4461 130.5168  C 104.4461 130.5168  104.9242 131.2506  104.9242 131.2506  C 104.9242 131.2506  103.2191 133.6549  103.2191 133.6549  C 103.2191 133.6549  103.6165 134.1315  103.6165 134.1315  C 103.6165 134.1315  102.8216 135.5776  102.8216 135.5776  C 102.8216 135.5776  102.499 137.3582  102.499 137.3582  C 102.499 137.3582  102.9195 139.002  102.9195 139.002  C 102.9195 139.002  102.764 139.8075  102.764 139.8075  C 102.764 139.8075  103.1672 141.3585  103.1672 141.3585  C 103.1672 141.3585  104.279 142.7452  104.279 142.7452  C 104.279 142.7452  103.7779 143.9786  103.7779 143.9786  C 103.7779 143.9786  104.1293 144.7132  104.1293 144.7132  C 104.1293 144.7132  105.0452 144.9379  105.0452 144.9379  C 105.0452 144.9379  105.5406 145.6452  105.5406 145.6452  C 105.5406 145.6452  105.1777 147.3121  105.1777 147.3121  C 105.1777 147.3121  105.7537 148.5404  105.7537 148.5404  C 105.7537 148.5404  104.907 149.1601  104.907 149.1601  C 104.907 149.1601  104.5613 150.1198  104.5613 150.1198  C 104.5613 150.1198  105.9266 148.8749  105.9266 148.8749  C 105.9266 148.8749  106.3989 149.4343  106.3989 149.4343  C 106.3989 149.4343  107.24 149.204  107.24 149.204  C 107.24 149.204  107.5453 148.5952  107.5453 148.5952  C 107.5453 148.5952  108.4382 148.3758  108.4382 148.3758  C 108.4382 148.3758  109.9417 148.7488  109.9417 148.7488  C 109.9417 148.7488  112.655 147.4491  112.655 147.4491  Z " fill-rule="nonzero" fill="#169bd5" stroke="none" transform="matrix(1 0 0 1 541 153 )" />
  </g>
</svg>