<?xml version="1.0" encoding="utf-8"?>
<svg version="1.1" xmlns:xlink="http://www.w3.org/1999/xlink" width="104px" height="183px" xmlns="http://www.w3.org/2000/svg">
  <defs>
    <mask fill="white" id="clip136">
      <path d="M 6.55010000000004 38.0867  C 6.55010000000004 38.0867  6.11800000000005 37.1643  6.11800000000005 37.1643  C 6.11800000000005 37.1643  6.73440000000005 36.5679  6.73440000000005 36.5679  C 6.73440000000005 36.5679  6.56730000000005 35.5628  6.56730000000005 35.5628  C 6.56730000000005 35.5628  5.31150000000002 35.8831  5.31150000000002 35.8831  C 5.31150000000002 35.8831  5.19060000000002 37.0097  5.19060000000002 37.0097  C 5.19060000000002 37.0097  4.74699999999996 37.1699  4.74699999999996 37.1699  C 4.74699999999996 37.1699  3.73310000000004 36.1371  3.73310000000004 36.1371  C 3.73310000000004 36.1371  3.84829999999999 35.1707  3.84829999999999 35.1707  C 3.84829999999999 35.1707  2.44849999999997 35.3254  2.44849999999997 35.3254  C 2.44849999999997 35.3254  3.31830000000002 33.6357  3.31830000000002 33.6357  C 3.31830000000002 33.6357  4.78729999999996 33.1719  4.78729999999996 33.1719  C 4.78729999999996 33.1719  4.91980000000001 32.7193  4.91980000000001 32.7193  C 4.91980000000001 32.7193  3.91750000000002 31.7917  3.91750000000002 31.7917  C 3.91750000000002 31.7917  4.06150000000002 30.8423  4.06150000000002 30.8423  C 4.06150000000002 30.8423  5.73209999999995 28.6731  5.73209999999995 28.6731  C 5.73209999999995 28.6731  7.02819999999997 30.4283  7.02819999999997 30.4283  C 7.02819999999997 30.4283  6.82079999999996 31.2398  6.82079999999996 31.2398  C 6.82079999999996 31.2398  7.32770000000005 31.3446  7.32770000000005 31.3446  C 7.32770000000005 31.3446  7.67340000000002 30.5718  7.67340000000002 30.5718  C 7.67340000000002 30.5718  7.63310000000001 29.4347  7.63310000000001 29.4347  C 7.63310000000001 29.4347  10.3579 29.6776  10.3579 29.6776  C 10.3579 29.6776  11.1528 28.822  11.1528 28.822  C 11.1528 28.822  10.8647999999999 27.4479  10.8647999999999 27.4479  C 10.8647999999999 27.4479  10.3924 26.9898  10.3924 26.9898  C 10.3924 26.9898  9.57439999999997 27.354  9.57439999999997 27.354  C 9.57439999999997 27.354  8.98680000000002 26.6366  8.98680000000002 26.6366  C 8.98680000000002 26.6366  8.47990000000004 27.0671  8.47990000000004 27.0671  C 8.47990000000004 27.0671  7.31619999999998 26.9126  7.31619999999998 26.9126  C 7.31619999999998 26.9126  8.26670000000001 25.5772  8.26670000000001 25.5772  C 8.26670000000001 25.5772  8.92340000000002 25.6268  8.92340000000002 25.6268  C 8.92340000000002 25.6268  9.20569999999998 24.5398  9.20569999999998 24.5398  C 9.20569999999998 24.5398  10.0871 24.7826  10.0871 24.7826  C 10.0871 24.7826  10.0525 24.0377  10.0525 24.0377  C 10.0525 24.0377  10.9857 22.8517  10.9857 22.8517  C 10.9857 22.8517  9.60320000000002 21.5663  9.60320000000002 21.5663  C 9.60320000000002 21.5663  8.17460000000005 21.125  8.17460000000005 21.125  C 8.17460000000005 21.125  7.74249999999995 19.7902  7.74249999999995 19.7902  C 7.74249999999995 19.7902  7.1146 19.2111  7.1146 19.2111  C 7.1146 19.2111  6.19290000000001 19.178  6.19290000000001 19.178  C 6.19290000000001 19.178  5.46130000000005 19.8233  5.46130000000005 19.8233  C 5.46130000000005 19.8233  4.90830000000005 18.7644  4.90830000000005 18.7644  C 4.90830000000005 18.7644  4.13059999999996 18.4832  4.13059999999996 18.4832  C 4.13059999999996 18.4832  3.57759999999996 19.3214  3.57759999999996 19.3214  C 3.57759999999996 19.3214  4.10180000000003 16.7847  4.10180000000003 16.7847  C 4.10180000000003 16.7847  4.12480000000005 14.9486  4.12480000000005 14.9486  C 4.12480000000005 14.9486  4.83339999999998 14.7447  4.83339999999998 14.7447  C 4.83339999999998 14.7447  4.45320000000004 13.9783  4.45320000000004 13.9783  C 4.45320000000004 13.9783  3.09370000000001 13.3057  3.09370000000001 13.3057  C 3.09370000000001 13.3057  1.97609999999997 13.5814  1.97609999999997 13.5814  C 1.97609999999997 13.5814  1.18119999999999 14.5682  1.18119999999999 14.5682  C 1.18119999999999 14.5682  0.44380000000001 11.5088  0.44380000000001 11.5088  C 0.44380000000001 11.5088  2.1431 11.0734  2.1431 11.0734  C 2.1431 11.0734  3.12239999999997 9.71199999999999  3.12239999999997 9.71199999999999  C 3.12239999999997 9.71199999999999  4.73540000000003 8.76419999999999  4.73540000000003 8.76419999999999  C 4.73540000000003 8.76419999999999  6.63639999999998 8.9461  6.63639999999998 8.9461  C 6.63639999999998 8.9461  7.52940000000001 8.58779999999999  7.52940000000001 8.58779999999999  C 7.52940000000001 8.58779999999999  8.572 7.2268  8.572 7.2268  C 8.572 7.2268  8.89469999999994 8.10839999999999  8.89469999999994 8.10839999999999  C 8.89469999999994 8.10839999999999  10.0641000000001 8.1746  10.0641000000001 8.1746  C 10.0641000000001 8.1746  10.162 9.35380000000001  10.162 9.35380000000001  C 10.162 9.35380000000001  10.9109 9.77269999999999  10.9109 9.77269999999999  C 10.9109 9.77269999999999  12.9674 9.86089999999999  12.9674 9.86089999999999  C 12.9674 9.86089999999999  13.0999 8.9736  13.0999 8.9736  C 13.0999 8.9736  12.495 7.01740000000001  12.495 7.01740000000001  C 12.495 7.01740000000001  11.8556 6.0642  11.8556 6.0642  C 11.8556 6.0642  11.9881 5.3426  11.9881 5.3426  C 11.9881 5.3426  13.0711 6.28460000000001  13.0711 6.28460000000001  C 13.0711 6.28460000000001  14.782 6.52709999999999  14.782 6.52709999999999  C 14.782 6.52709999999999  14.8627 5.06710000000001  14.8627 5.06710000000001  C 14.8627 5.06710000000001  15.3581 4.5933  15.3581 4.5933  C 15.3581 4.5933  15.5482 3.5026  15.5482 3.5026  C 15.5482 3.5026  16.4007 2.81960000000001  16.4007 2.81960000000001  C 16.4007 2.81960000000001  17.2476 0.902899999999988  17.2476 0.902899999999988  C 17.2476 0.902899999999988  18.2269 0.556000000000012  18.2269 0.556000000000012  C 18.2269 0.556000000000012  18.463 2.423  18.463 2.423  C 18.463 2.423  18.2441 3.9213  18.2441 3.9213  C 18.2441 3.9213  18.4861 4.4777  18.4861 4.4777  C 18.4861 4.4777  19.4078 4.82470000000001  19.4078 4.82470000000001  C 19.4078 4.82470000000001  20.1163 5.9486  20.1163 5.9486  C 20.1163 5.9486  19.6555 7.81639999999999  19.6555 7.81639999999999  C 19.6555 7.81639999999999  19.8398999999999 8.40600000000001  19.8398999999999 8.40600000000001  C 19.8398999999999 8.40600000000001  20.8364 9.0728  20.8364 9.0728  C 20.8364 9.0728  22.0173 8.67060000000001  22.0173 8.67060000000001  C 22.0173 8.67060000000001  23.325 9.2216  23.325 9.2216  C 23.325 9.2216  22.6395 9.679  22.6395 9.679  C 22.6395 9.679  22.4148 10.5002  22.4148 10.5002  C 22.4148 10.5002  22.8872 11.2939  22.8872 11.2939  C 22.8872 11.2939  22.1499 13.5924  22.1499 13.5924  C 22.1499 13.5924  22.2939 14.8329  22.2939 14.8329  C 22.2939 14.8329  23.1867999999999 15.7866  23.1867999999999 15.7866  C 23.1867999999999 15.7866  23.8838 18.1247  23.8838 18.1247  C 23.8838 18.1247  25.8482 19.4869  25.8482 19.4869  C 25.8482 19.4869  27.4208 20.0329  27.4208 20.0329  C 27.4208 20.0329  28.6306 22.4709  28.6306 22.4709  C 28.6306 22.4709  30.3876 23.1385  30.3876 23.1385  C 30.3876 23.1385  30.9578 24.4957  30.9578 24.4957  C 30.9578 24.4957  30.1455999999999 26.0683  30.1455999999999 26.0683  C 30.1455999999999 26.0683  29.535 26.5152  29.535 26.5152  C 29.535 26.5152  28.4059 29.225  28.4059 29.225  C 28.4059 29.225  28.6709 31.3722  28.6709 31.3722  C 28.6709 31.3722  28.2676 33.5253  28.2676 33.5253  C 28.2676 33.5253  27.6916 35.4634  27.6916 35.4634  C 27.6916 35.4634  28.6824 37.5178  28.6824 37.5178  C 28.6824 37.5178  31.6261 38.5561  31.6261 38.5561  C 31.6261 38.5561  32.8704 39.1969  32.8704 39.1969  C 32.8704 39.1969  33.1872 40.2132  33.1872 40.2132  C 33.1872 40.2132  32.6112000000001 40.3127  32.6112000000001 40.3127  C 32.6112000000001 40.3127  31.8105 41.2132  31.8105 41.2132  C 31.8105 41.2132  31.8738 42.4729  31.8738 42.4729  C 31.8738 42.4729  31.4648 44.2962  31.4648 44.2962  C 31.4648 44.2962  30.7793 45.9044  30.7793 45.9044  C 30.7793 45.9044  31.3841 46.9489  31.3841 46.9489  C 31.3841 46.9489  32.0812 46.3465  32.0812 46.3465  C 32.0812 46.3465  33.4003 46.7057  33.4003 46.7057  C 33.4003 46.7057  35.4742 46.5952  35.4742 46.5952  C 35.4742 46.5952  36.465 47.369  36.465 47.369  C 36.465 47.369  38.389 50.6746  38.389 50.6746  C 38.389 50.6746  39.7256 51.5702  39.7256 51.5702  C 39.7256 51.5702  41.3097 52.0735  41.3097 52.0735  C 41.3097 52.0735  42.5079 54.2134  42.5079 54.2134  C 42.5079 54.2134  42.0586 56.149  42.0586 56.149  C 42.0586 56.149  40.3304000000001 57.3327  40.3304000000001 57.3327  C 40.3304000000001 57.3327  40.0481 57.8637  40.0481 57.8637  C 40.0481 57.8637  40.8143 59.1194  40.8143 59.1194  C 40.8143 59.1194  41.4076 60.7958  41.4076 60.7958  C 41.4076 60.7958  43.1128 59.562  43.1128 59.562  C 43.1128 59.562  43.8098 59.9161  43.8098 59.9161  C 43.8098 59.9161  43.7234999999999 61.3049  43.7234999999999 61.3049  C 43.7234999999999 61.3049  44.2649 63.0202  44.2649 63.0202  C 44.2649 63.0202  43.3662 64.5642  43.3662 64.5642  C 43.3662 64.5642  43.4181 65.3501  43.4181 65.3501  C 43.4181 65.3501  44.3570999999999 66.3962  44.3570999999999 66.3962  C 44.3570999999999 66.3962  44.3859 67.138  44.3859 67.138  C 44.3859 67.138  43.9712 71.2958  43.9712 71.2958  C 43.9712 71.2958  44.6336 72.9848  44.6336 72.9848  C 44.6336 72.9848  45.636 73.2173  45.636 73.2173  C 45.636 73.2173  46.2811 74.4635  46.2811 74.4635  C 46.2811 74.4635  46.2984 75.3275  46.2984 75.3275  C 46.2984 75.3275  46.8801999999999 75.7319  46.8801999999999 75.7319  C 46.8801999999999 75.7319  47.848 74.7514  47.848 74.7514  C 47.848 74.7514  48.5105 74.9619  48.5105 74.9619  C 48.5105 74.9619  48.643 76.5572  48.643 76.5572  C 48.643 76.5572  49.726 75.4217  49.726 75.4217  C 49.726 75.4217  49.749 74.5853  49.749 74.5853  C 49.749 74.5853  48.8907 72.874  48.8907 72.874  C 48.8907 72.874  49.1385 71.8218  49.1385 71.8218  C 49.1385 71.8218  48.7352 70.9193  48.7352 70.9193  C 48.7352 70.9193  48.9138 69.5627  48.9138 69.5627  C 48.9138 69.5627  49.5244 69.0368  49.5244 69.0368  C 49.5244 69.0368  50.8033 69.4741  50.8033 69.4741  C 50.8033 69.4741  50.3309 68.4832  50.3309 68.4832  C 50.3309 68.4832  50.5497 67.5752  50.5497 67.5752  C 50.5497 67.5752  50.5728 65.3335  50.5728 65.3335  C 50.5728 65.3335  51.3044 64.7412  51.3044 64.7412  C 51.3044 64.7412  53.5429 65.9147  53.5429 65.9147  C 53.5429 65.9147  54.2227 65.721  54.2227 65.721  C 54.2227 65.721  55.0868 63.8115  55.0868 63.8115  C 55.0868 63.8115  54.3321 62.4668  54.3321 62.4668  C 54.3321 62.4668  54.1421 60.4583  54.1421 60.4583  C 54.1421 60.4583  54.4877 60.0987  54.4877 60.0987  C 54.4877 60.0987  55.9624 61.0503  55.9624 61.0503  C 55.9624 61.0503  57.0166 60.2425  57.0166 60.2425  C 57.0166 60.2425  57.6503 58.7101  57.6503 58.7101  C 57.6503 58.7101  59.2921 58.7432  59.2921 58.7432  C 59.2921 58.7432  60.1677 57.8803  60.1677 57.8803  C 60.1677 57.8803  60.8244 56.1104  60.8244 56.1104  C 60.8244 56.1104  61.1067 53.7267  61.1067 53.7267  C 61.1067 53.7267  63.1978 52.6651  63.1978 52.6651  C 63.1978 52.6651  63.6759 51.5869  63.6759 51.5869  C 63.6759 51.5869  64.5976000000001 47.6896  64.5976000000001 47.6896  C 64.5976000000001 47.6896  65.3407999999999 47.0539  65.3407999999999 47.0539  C 65.3407999999999 47.0539  67.8869 47.5071  67.8869 47.5071  C 67.8869 47.5071  68.8547 47.3082  68.8547 47.3082  C 68.8547 47.3082  70.364 49.558  70.364 49.558  C 70.364 49.558  70.7673 51.2883  70.7673 51.2883  C 70.7673 51.2883  70.8134 52.6761  70.8134 52.6761  C 70.8134 52.6761  71.7696 53.2235  71.7696 53.2235  C 71.7696 53.2235  73.7455 52.831  73.7455 52.831  C 73.7455 52.831  74.8573 53.1185  74.8573 53.1185  C 74.8573 53.1185  76.1534 54.6116  76.1534 54.6116  C 76.1534 54.6116  77.6281 54.8383  77.6281 54.8383  C 77.6281 54.8383  79.5349 54.3019  79.5349 54.3019  C 79.5349 54.3019  80.3011 55.0706  80.3011 55.0706  C 80.3011 55.0706  80.8714 54.9876  80.8714 54.9876  C 80.8714 54.9876  80.7735 53.2734  80.7735 53.2734  C 80.7735 53.2734  83.6538 49.1212  83.6538 49.1212  C 83.6538 49.1212  84.3623 46.4239  84.3623 46.4239  C 84.3623 46.4239  84.3854 44.0642  84.3854 44.0642  C 84.3854 44.0642  83.9534 41.6773  83.9534 41.6773  C 83.9534 41.6773  83.2275 40.8209  83.2275 40.8209  C 83.2275 40.8209  82.7206 39.4841  82.7206 39.4841  C 82.7206 39.4841  83.0259 38.28  83.0259 38.28  C 83.0259 38.28  83.6481 37.2085  83.6481 37.2085  C 83.6481 37.2085  83.7344000000001 35.8334  83.7344000000001 35.8334  C 83.7344000000001 35.8334  83.1527 33.8124  83.1527 33.8124  C 83.1527 33.8124  83.6941 33.2271  83.6941 33.2271  C 83.6941 33.2271  85.2898 33.8621  85.2898 33.8621  C 85.2898 33.8621  87.0525 32.2665  87.0525 32.2665  C 87.0525 32.2665  88.5676 32.9125  88.5676 32.9125  C 88.5676 32.9125  89.9502 31.6758  89.9502 31.6758  C 89.9502 31.6758  89.472 29.9591  89.472 29.9591  C 89.472 29.9591  90.0596 28.0936  90.0596 28.0936  C 90.0596 28.0936  91.1023 28.2591  91.1023 28.2591  C 91.1023 28.2591  91.1079999999999 27.5196  91.1079999999999 27.5196  C 91.1079999999999 27.5196  90.2785 27.2547  90.2785 27.2547  C 90.2785 27.2547  90.4512999999999 26.0848  90.4512999999999 26.0848  C 90.4512999999999 26.0848  91.0447 24.9592  91.0447 24.9592  C 91.0447 24.9592  91.9434 24.5288  91.9434 24.5288  C 91.9434 24.5288  92.9054 25.2571  92.9054 25.2571  C 92.9054 25.2571  93.2222 26.1841  93.2222 26.1841  C 93.2222 26.1841  94.0748 26.2669  94.0748 26.2669  C 94.0748 26.2669  94.9561 27.2767  94.9561 27.2767  C 94.9561 27.2767  96.6728000000001 26.9512  96.6728000000001 26.9512  C 96.6728000000001 26.9512  96.5115 28.9103  96.5115 28.9103  C 96.5115 28.9103  96.9204999999999 29.7217  96.9204999999999 29.7217  C 96.9204999999999 29.7217  96.5288 30.5552  96.5288 30.5552  C 96.5288 30.5552  97.4160000000001 31.9408  97.4160000000001 31.9408  C 97.4160000000001 31.9408  97.3526000000001 32.4708  97.3526000000001 32.4708  C 97.3526000000001 32.4708  93.9826 35.6678  93.9826 35.6678  C 93.9826 35.6678  93.6543 37.0373  93.6543 37.0373  C 93.6543 37.0373  93.8904 38.7218  93.8904 38.7218  C 93.8904 38.7218  94.6508 40.7878  94.6508 40.7878  C 94.6508 40.7878  94.3859 41.5005  94.3859 41.5005  C 94.3859 41.5005  95.6013 42.0805  95.6013 42.0805  C 95.6013 42.0805  95.8951 41.5392  95.8951 41.5392  C 95.8951 41.5392  96.8053 41.3513  96.8053 41.3513  C 96.8053 41.3513  97.8768 42.0695  97.8768 42.0695  C 97.8768 42.0695  99.0116 44.1028  99.0116 44.1028  C 99.0116 44.1028  100.3136 44.2355  100.3136 44.2355  C 100.3136 44.2355  101.4426 45.3185  101.4426 45.3185  C 101.4426 45.3185  102.2779 46.9489  102.2779 46.9489  C 102.2779 46.9489  102.4853 48.5685  102.4853 48.5685  C 102.4853 48.5685  102.324 51.2054  102.324 51.2054  C 102.324 51.2054  102.9519 52.9692  102.9519 52.9692  C 102.9519 52.9692  103.0153 54.2687  103.0153 54.2687  C 103.0153 54.2687  102.4392 55.4521  102.4392 55.4521  C 102.4392 55.4521  102.6985 58.2399  102.6985 58.2399  C 102.6985 58.2399  102.612 59.385  102.612 59.385  C 102.612 59.385  102.013 60.0544  102.013 60.0544  C 102.013 60.0544  102.2837 60.4804  102.2837 60.4804  C 102.2837 60.4804  101.6616 61.9024  101.6616 61.9024  C 101.6616 61.9024  101.5117 62.9593  101.5117 62.9593  C 101.5117 62.9593  100.6707 62.749  100.6707 62.749  C 100.6707 62.749  100.7686 68.0181  100.7686 68.0181  C 100.7686 68.0181  99.9333 68.1842  99.9333 68.1842  C 99.9333 68.1842  100.1868 69.07  100.1868 69.07  C 100.1868 69.07  103.6029 69.7786  103.6029 69.7786  C 103.6029 69.7786  103.2918 71.0411  103.2918 71.0411  C 103.2918 71.0411  103.4877 71.6945  103.4877 71.6945  C 103.4877 71.6945  101.8171 72.082  101.8171 72.082  C 101.8171 72.082  101.241 73.2505  101.241 73.2505  C 101.241 73.2505  101.3562 73.8819  101.3562 73.8819  C 101.3562 73.8819  100.4863 74.0647  100.4863 74.0647  C 100.4863 74.0647  99.6684 75.8537  99.6684 75.8537  C 99.6684 75.8537  99.7317 77.848  99.7317 77.848  C 99.7317 77.848  99.1096 78.0086  99.1096 78.0086  C 99.1096 78.0086  98.1245 77.3937  98.1245 77.3937  C 98.1245 77.3937  97.6809 77.9366  97.6809 77.9366  C 97.6809 77.9366  97.3583 77.2718  97.3583 77.2718  C 97.3583 77.2718  95.8433 78.4297  95.8433 78.4297  C 95.8433 78.4297  94.8525 77.6984  94.8525 77.6984  C 94.8525 77.6984  93.8847 78.6679  93.8847 78.6679  C 93.8847 78.6679  91.6035000000001 79.1832  91.6035000000001 79.1832  C 91.6035000000001 79.1832  90.002 79.0946  90.002 79.0946  C 90.002 79.0946  89.6737000000001 81.2057  89.6737000000001 81.2057  C 89.6737000000001 81.2057  90.1461 82.5578  90.1461 82.5578  C 90.1461 82.5578  90.1518 85.6784  90.1518 85.6784  C 90.1518 85.6784  89.6103000000001 85.9334  89.6103000000001 85.9334  C 89.6103000000001 85.9334  89.3453 87.4412  89.3453 87.4412  C 89.3453 87.4412  89.4835 88.5833  89.4835 88.5833  C 89.4835 88.5833  88.2738000000001 90.7126  88.2738000000001 90.7126  C 88.2738000000001 90.7126  87.9167 92.8938  87.9167 92.8938  C 87.9167 92.8938  87.3522 92.7718  87.3522 92.7718  C 87.3522 92.7718  86.8452 94.053  86.8452 94.053  C 86.8452 94.053  85.7219 95.3453  85.7219 95.3453  C 85.7219 95.3453  85.6009 96.244  85.6009 96.244  C 85.6009 96.244  83.3945 95.961  83.3945 95.961  C 83.3945 95.961  83.4118999999999 97.2259  83.4118999999999 97.2259  C 83.4118999999999 97.2259  82.8704 98.2522  82.8704 98.2522  C 82.8704 98.2522  83.0777000000001 99.0955  83.0777000000001 99.0955  C 83.0777000000001 99.0955  82.1618 102.9967  82.1618 102.9967  C 82.1618 102.9967  82.8128 103.857  82.8128 103.857  C 82.8128 103.857  82.5881000000001 105.3834  82.5881000000001 105.3834  C 82.5881000000001 105.3834  81.747 106.033  81.747 106.033  C 81.747 106.033  81.0039 107.9483  81.0039 107.9483  C 81.0039 107.9483  80.5315000000001 109.9972  80.5315000000001 109.9972  C 80.5315000000001 109.9972  80.8081 111.0578  80.8081 111.0578  C 80.8081 111.0578  81.7125 111.6521  81.7125 111.6521  C 81.7125 111.6521  81.6376 112.5852  81.6376 112.5852  C 81.6376 112.5852  79.8864 114.1681  79.8864 114.1681  C 79.8864 114.1681  80.1226 114.7291  80.1226 114.7291  C 80.1226 114.7291  79.5983 115.8013  79.5983 115.8013  C 79.5983 115.8013  79.7193 116.4846  79.7193 116.4846  C 79.7193 116.4846  80.4682 116.0235  80.4682 116.0235  C 80.4682 116.0235  81.2919000000001 116.6569  81.2919000000001 116.6569  C 81.2919000000001 116.6569  80.8196 119.4184  80.8196 119.4184  C 80.8196 119.4184  81.8335 120.9744  81.8335 120.9744  C 81.8335 120.9744  81.7355 121.5524  81.7355 121.5524  C 81.7355 121.5524  82.5708 122.1137  82.5708 122.1137  C 82.5708 122.1137  82.2194 123.7367  82.2194 123.7367  C 82.2194 123.7367  82.2252 126.4108  82.2252 126.4108  C 82.2252 126.4108  82.8415 126.2161  82.8415 126.2161  C 82.8415 126.2161  83.3139 127.1947  83.3139 127.1947  C 83.3139 127.1947  80.8425999999999 128.7238  80.8425999999999 128.7238  C 80.8425999999999 128.7238  81.6376 128.9963  81.6376 128.9963  C 81.6376 128.9963  81.8968 130.8982  81.8968 130.8982  C 81.8968 130.8982  81.5397 132.411  81.5397 132.411  C 81.5397 132.411  81.4648 133.9853  81.4648 133.9853  C 81.4648 133.9853  81.8622 135.1202  81.8622 135.1202  C 81.8622 135.1202  83.0086 136.4498  83.0086 136.4498  C 83.0086 136.4498  83.5674 136.6446  83.5674 136.6446  C 83.5674 136.6446  86.0271 136.1049  86.0271 136.1049  C 86.0271 136.1049  85.4684 137.2065  85.4684 137.2065  C 85.4684 137.2065  85.9811 139.6717  85.9811 139.6717  C 85.9811 139.6717  84.6274 140.7347  84.6274 140.7347  C 84.6274 140.7347  84.4718 141.6976  84.4718 141.6976  C 84.4718 141.6976  83.1814000000001 141.9759  83.1814000000001 141.9759  C 83.1814000000001 141.9759  82.6227 142.7608  82.6227 142.7608  C 82.6227 142.7608  83.6941 144.2082  83.6941 144.2082  C 83.6941 144.2082  83.1987 145.2158  83.1987 145.2158  C 83.1987 145.2158  81.6952 146.0231  81.6952 146.0231  C 81.6952 146.0231  81.5454 146.5688  81.5454 146.5688  C 81.5454 146.5688  80.6813 146.4741  80.6813 146.4741  C 80.6813 146.4741  81.0903 148.2672  81.0903 148.2672  C 81.0903 148.2672  80.7447 148.6179  80.7447 148.6179  C 80.7447 148.6179  81.4763 149.5369  81.4763 149.5369  C 81.4763 149.5369  81.5569 150.7399  81.5569 150.7399  C 81.5569 150.7399  81.1652 151.8594  81.1652 151.8594  C 81.1652 151.8594  80.5315000000001 152.4109  80.5315000000001 152.4109  C 80.5315000000001 152.4109  80.2896 154.5055  80.2896 154.5055  C 80.2896 154.5055  79.149 155.7591  79.149 155.7591  C 79.149 155.7591  78.8436 156.5893  78.8436 156.5893  C 78.8436 156.5893  77.801 156.8066  77.801 156.8066  C 77.801 156.8066  77.3286000000001 158.3391  77.3286000000001 158.3391  C 77.3286000000001 158.3391  76.1189000000001 159.0692  76.1189000000001 159.0692  C 76.1189000000001 159.0692  76.3434999999999 159.5094  76.3434999999999 159.5094  C 76.3434999999999 159.5094  74.9034 161.8839  74.9034 161.8839  C 74.9034 161.8839  75.2087 162.72  75.2087 162.72  C 75.2087 162.72  73.7858 163.6231  73.7858 163.6231  C 73.7858 163.6231  73.734 164.4482  73.734 164.4482  C 73.734 164.4482  72.5761 164.1305  72.5761 164.1305  C 72.5761 164.1305  72.4493 164.8107  72.4493 164.8107  C 72.4493 164.8107  71.3894 165.396  71.3894 165.396  C 71.3894 165.396  71.2281 166.6563  71.2281 166.6563  C 71.2281 166.6563  70.7097 167.6432  70.7097 167.6432  C 70.7097 167.6432  69.6728000000001 168.7475  69.6728000000001 168.7475  C 69.6728000000001 168.7475  68.6242999999999 168.5411  68.6242999999999 168.5411  C 68.6242999999999 168.5411  68.4342 169.5115  68.4342 169.5115  C 68.4342 169.5115  66.4756 169.941  66.4756 169.941  C 66.4756 169.941  66.3604 169.5506  66.3604 169.5506  C 66.3604 169.5506  62.9213 169.6788  62.9213 169.6788  C 62.9213 169.6788  61.9708000000001 169.0152  61.9708000000001 169.0152  C 61.9708000000001 169.0152  60.6458 169.3833  60.6458 169.3833  C 60.6458 169.3833  60.3405 170.2199  60.3405 170.2199  C 60.3405 170.2199  59.6031 170.5992  59.6031 170.5992  C 59.6031 170.5992  57.7194 170.4151  57.7194 170.4151  C 57.7194 170.4151  57.9786 171.592  57.9786 171.592  C 57.9786 171.592  59.4361 172.7189  59.4361 172.7189  C 59.4361 172.7189  59.8854 174.705  59.8854 174.705  C 59.8854 174.705  58.7391 176.9035  58.7391 176.9035  C 58.7391 176.9035  57.8346 177.0095  57.8346 177.0095  C 57.8346 177.0095  57.345 178.7954  57.345 178.7954  C 57.345 178.7954  56.1525 178.7451  56.1525 178.7451  C 56.1525 178.7451  55.7551 179.147  55.7551 179.147  C 55.7551 179.147  54.9888999999999 178.5052  54.9888999999999 178.5052  C 54.9888999999999 178.5052  53.952 179.0633  53.952 179.0633  C 53.952 179.0633  52.9208 180.52  52.9208 180.52  C 52.9208 180.52  51.1834 179.6325  51.1834 179.6325  C 51.1834 179.6325  50.4231 179.4986  50.4231 179.4986  C 50.4231 179.4986  49.0347 180.0009  49.0347 180.0009  C 49.0347 180.0009  49.2421000000001 181.0894  49.2421000000001 181.0894  C 49.2421000000001 181.0894  48.9367999999999 181.9993  48.9367999999999 181.9993  C 48.9367999999999 181.9993  47.6983 182.8701  47.6983 182.8701  C 47.6983 182.8701  44.2592 182.3231  44.2592 182.3231  C 44.2592 182.3231  43.3086 181.4522  43.3086 181.4522  C 43.3086 181.4522  43.2338 180.6093  43.2338 180.6093  C 43.2338 180.6093  43.6659 179.4819  43.6659 179.4819  C 43.6659 179.4819  41.0851 173.2377  41.0851 173.2377  C 41.0851 173.2377  40.2843 172.624  40.2843 172.624  C 40.2843 172.624  39.3280999999999 172.9364  39.3280999999999 172.9364  C 39.3280999999999 172.9364  38.2451 172.0941  38.2451 172.0941  C 38.2451 172.0941  36.3556 171.4024  36.3556 171.4024  C 36.3556 171.4024  35.9465 170.7275  35.9465 170.7275  C 35.9465 170.7275  36.2749 169.3833  36.2749 169.3833  C 36.2749 169.3833  34.8809 167.0298  34.8809 167.0298  C 34.8809 167.0298  34.9615 166.2436  34.9615 166.2436  C 34.9615 166.2436  36.6781 160.8916  36.6781 160.8916  C 36.6781 160.8916  37.1448 158.8351  37.1448 158.8351  C 37.1448 158.8351  36.9778 157.8821  36.9778 157.8821  C 36.9778 157.8821  36.0042 157.3638  36.0042 157.3638  C 36.0042 157.3638  34.6446999999999 158.8351  34.6446999999999 158.8351  C 34.6446999999999 158.8351  33.3887999999999 158.2443  33.3887999999999 158.2443  C 33.3887999999999 158.2443  31.5857999999999 154.7117  31.5857999999999 154.7117  C 31.5857999999999 154.7117  31.701 153.3635  31.701 153.3635  C 31.701 153.3635  31.3726 152.8064  31.3726 152.8064  C 31.3726 152.8064  31.9545 152.2271  31.9545 152.2271  C 31.9545 152.2271  31.4072 151.0684  31.4072 151.0684  C 31.4072 151.0684  32.8704 148.1724  32.8704 148.1724  C 32.8704 148.1724  34.3566 148.0499  34.3566 148.0499  C 34.3566 148.0499  34.4892 147.0588  34.4892 147.0588  C 34.4892 147.0588  33.5329 146.3627  33.5329 146.3627  C 33.5329 146.3627  33.2161 144.3361  33.2161 144.3361  C 33.2161 144.3361  33.7345 143.078  33.7345 143.078  C 33.7345 143.078  33.3024 142.3488  33.3024 142.3488  C 33.3024 142.3488  33.8439 141.2022  33.8439 141.2022  C 33.8439 141.2022  32.8646 139.5437  32.8646 139.5437  C 32.8646 139.5437  33.2448000000001 138.7201  33.2448000000001 138.7201  C 33.2448000000001 138.7201  32.4614 137.5626  32.4614 137.5626  C 32.4614 137.5626  31.3151 139.1709  31.3151 139.1709  C 31.3151 139.1709  30.3012 139.0596  30.3012 139.0596  C 30.3012 139.0596  30.2378 137.3401  30.2378 137.3401  C 30.2378 137.3401  28.4462 136.9172  28.4462 136.9172  C 28.4462 136.9172  27.8011 135.8601  27.8011 135.8601  C 27.8011 135.8601  28.0891 134.3913  28.0891 134.3913  C 28.0891 134.3913  27.0119 134.3302  27.0119 134.3302  C 27.0119 134.3302  26.7929 133.0953  26.7929 133.0953  C 26.7929 133.0953  26.9945 132.2219  26.9945 132.2219  C 26.9945 132.2219  26.3896999999999 131.5935  26.3896999999999 131.5935  C 26.3896999999999 131.5935  23.7166999999999 131.0206  23.7166999999999 131.0206  C 23.7166999999999 131.0206  22.7778 131.0373  22.7778 131.0373  C 22.7778 131.0373  22.0865 132.8672  22.0865 132.8672  C 22.0865 132.8672  21.2224 133.39  21.2224 133.39  C 21.2224 133.39  20.2488 132.2943  20.2488 132.2943  C 20.2488 132.2943  18.7799 132.3499  18.7799 132.3499  C 18.7799 132.3499  17.8869999999999 130.5812  17.8869999999999 130.5812  C 17.8869999999999 130.5812  17.9503999999999 128.6849  17.9503999999999 128.6849  C 17.9503999999999 128.6849  18.3767 126.8833  18.3767 126.8833  C 18.3767 126.8833  17.6162 124.0258  17.6162 124.0258  C 17.6162 124.0258  18.0944 122.3194  18.0944 122.3194  C 18.0944 122.3194  19.811 120.6187  19.811 120.6187  C 19.811 120.6187  20.8998 121.3912  20.8998 121.3912  C 20.8998 121.3912  22.0865 121.7024  22.0865 121.7024  C 22.0865 121.7024  23.6937 120.5575  23.6937 120.5575  C 23.6937 120.5575  24.2295 118.9627  24.2295 118.9627  C 24.2295 118.9627  25.8194 117.4402  25.8194 117.4402  C 25.8194 117.4402  26.3493999999999 113.646  26.3493999999999 113.646  C 26.3493999999999 113.646  26.1477 112.2796  26.1477 112.2796  C 26.1477 112.2796  25.6984 111.5354  25.6984 111.5354  C 25.6984 111.5354  24.0566 111.0356  24.0566 111.0356  C 24.0566 111.0356  23.0255 110.1249  23.0255 110.1249  C 23.0255 110.1249  22.098 110.6468  22.098 110.6468  C 22.098 110.6468  21.1475 110.7191  21.1475 110.7191  C 21.1475 110.7191  21.2396 109.6696  21.2396 109.6696  C 21.2396 109.6696  20.5254 108.5479  20.5254 108.5479  C 20.5254 108.5479  21.0265000000001 107.6929  21.0265000000001 107.6929  C 21.0265000000001 107.6929  20.4965 106.6824  20.4965 106.6824  C 20.4965 106.6824  19.4251 107.0434  19.4251 107.0434  C 19.4251 107.0434  19.1716 106.2383  19.1716 106.2383  C 19.1716 106.2383  20.5023 105.5222  20.5023 105.5222  C 20.5023 105.5222  19.8514 103.9236  19.8514 103.9236  C 19.8514 103.9236  20.9228000000001 100.1664  20.9228000000001 100.1664  C 20.9228000000001 100.1664  20.7039 99.029  20.7039 99.029  C 20.7039 99.029  21.4067 97.6697  21.4067 97.6697  C 21.4067 97.6697  22.3515 97.5365  22.3515 97.5365  C 22.3515 97.5365  23.544 96.8708  23.544 96.8708  C 23.544 96.8708  24.264 95.9943  24.264 95.9943  C 24.264 95.9943  24.1949 94.5633  24.1949 94.5633  C 24.1949 94.5633  23.3539 92.8439  23.3539 92.8439  C 23.3539 92.8439  23.3596 90.3411  23.3596 90.3411  C 23.3596 90.3411  22.9563000000001 87.7462  22.9563000000001 87.7462  C 22.9563000000001 87.7462  23.2213 86.6318  23.2213 86.6318  C 23.2213 86.6318  22.8987 85.9999  22.8987 85.9999  C 22.8987 85.9999  22.0058 85.6784  22.0058 85.6784  C 22.0058 85.6784  22.265 84.093  22.265 84.093  C 22.265 84.093  21.5047 82.8017  21.5047 82.8017  C 21.5047 82.8017  20.3179 82.907  20.3179 82.907  C 20.3179 82.907  20.8653 81.7819  20.8653 81.7819  C 20.8653 81.7819  20.9632 79.6985  20.9632 79.6985  C 20.9632 79.6985  20.0991 78.8508  20.0991 78.8508  C 20.0991 78.8508  20.1048 78.3189  20.1048 78.3189  C 20.1048 78.3189  19.1601000000001 77.571  19.1601000000001 77.571  C 19.1601000000001 77.571  17.9388 77.1223  17.9388 77.1223  C 17.9388 77.1223  17.4953 75.9811  17.4953 75.9811  C 17.4953 75.9811  17.6508 75.034  17.6508 75.034  C 17.6508 75.034  18.7568 74.9232  18.7568 74.9232  C 18.7568 74.9232  19.6728000000001 73.9318  19.6728000000001 73.9318  C 19.6728000000001 73.9318  19.2695 73.5828  19.2695 73.5828  C 19.2695 73.5828  19.7534000000001 71.8717  19.7534000000001 71.8717  C 19.7534000000001 71.8717  19.7131000000001 71.0133  19.7131000000001 71.0133  C 19.7131000000001 71.0133  18.2326 71.4066  18.2326 71.4066  C 18.2326 71.4066  17.9503999999999 69.9392  17.9503999999999 69.9392  C 17.9503999999999 69.9392  18.4918 66.8058  18.4918 66.8058  C 18.4918 66.8058  19.5287 65.649  19.5287 65.649  C 19.5287 65.649  20.5196 63.2748  20.5196 63.2748  C 20.5196 63.2748  19.788 62.0186  19.788 62.0186  C 19.788 62.0186  19.5922 60.6077  19.5922 60.6077  C 19.5922 60.6077  18.6935 58.9535  18.6935 58.9535  C 18.6935 58.9535  18.0886 58.9701  18.0886 58.9701  C 18.0886 58.9701  17.6105 60.2425  17.6105 60.2425  C 17.6105 60.2425  16.8098 61.2717  16.8098 61.2717  C 16.8098 61.2717  15.1334000000001 61.6036  15.1334000000001 61.6036  C 15.1334000000001 61.6036  14.2693 61.1112  14.2693 61.1112  C 14.2693 61.1112  13.1633 58.7156  13.1633 58.7156  C 13.1633 58.7156  13.7739 57.4267  13.7739 57.4267  C 13.7739 57.4267  12.4605 56.1878  12.4605 56.1878  C 12.4605 56.1878  11.2507000000001 56.7298  11.2507000000001 56.7298  C 11.2507000000001 56.7298  10.0467 55.1259  10.0467 55.1259  C 10.0467 55.1259  9.2921 54.9599  9.2921 54.9599  C 9.2921 54.9599  7.61000000000001 55.2254  7.61000000000001 55.2254  C 7.61000000000001 55.2254  6.64800000000003 53.6714  6.64800000000003 53.6714  C 6.64800000000003 53.6714  4.70669999999996 53.782  4.70669999999996 53.782  C 4.70669999999996 53.782  4.78150000000005 53.2788  4.78150000000005 53.2788  C 4.78150000000005 53.2788  3.49120000000005 52.3886  3.49120000000005 52.3886  C 3.49120000000005 52.3886  3.13980000000004 50.2102  3.13980000000004 50.2102  C 3.13980000000004 50.2102  3.65819999999997 48.2921  3.65819999999997 48.2921  C 3.65819999999997 48.2921  5.23090000000002 47.4906  5.23090000000002 47.4906  C 5.23090000000002 47.4906  5.8415 46.8218  5.8415 46.8218  C 5.8415 46.8218  6.47519999999997 44.9483  6.47519999999997 44.9483  C 6.47519999999997 44.9483  6.42330000000004 43.5613  6.42330000000004 43.5613  C 6.42330000000004 43.5613  5.92219999999998 41.6773  5.92219999999998 41.6773  C 5.92219999999998 41.6773  6.59619999999995 39.683  6.59619999999995 39.683  C 6.59619999999995 39.683  6.55010000000004 38.0867  6.55010000000004 38.0867  Z " fill-rule="evenodd" />
    </mask>
  </defs>
  <g transform="matrix(1 0 0 1 -594 -353 )">
    <path d="M 6.55010000000004 38.0867  C 6.55010000000004 38.0867  6.11800000000005 37.1643  6.11800000000005 37.1643  C 6.11800000000005 37.1643  6.73440000000005 36.5679  6.73440000000005 36.5679  C 6.73440000000005 36.5679  6.56730000000005 35.5628  6.56730000000005 35.5628  C 6.56730000000005 35.5628  5.31150000000002 35.8831  5.31150000000002 35.8831  C 5.31150000000002 35.8831  5.19060000000002 37.0097  5.19060000000002 37.0097  C 5.19060000000002 37.0097  4.74699999999996 37.1699  4.74699999999996 37.1699  C 4.74699999999996 37.1699  3.73310000000004 36.1371  3.73310000000004 36.1371  C 3.73310000000004 36.1371  3.84829999999999 35.1707  3.84829999999999 35.1707  C 3.84829999999999 35.1707  2.44849999999997 35.3254  2.44849999999997 35.3254  C 2.44849999999997 35.3254  3.31830000000002 33.6357  3.31830000000002 33.6357  C 3.31830000000002 33.6357  4.78729999999996 33.1719  4.78729999999996 33.1719  C 4.78729999999996 33.1719  4.91980000000001 32.7193  4.91980000000001 32.7193  C 4.91980000000001 32.7193  3.91750000000002 31.7917  3.91750000000002 31.7917  C 3.91750000000002 31.7917  4.06150000000002 30.8423  4.06150000000002 30.8423  C 4.06150000000002 30.8423  5.73209999999995 28.6731  5.73209999999995 28.6731  C 5.73209999999995 28.6731  7.02819999999997 30.4283  7.02819999999997 30.4283  C 7.02819999999997 30.4283  6.82079999999996 31.2398  6.82079999999996 31.2398  C 6.82079999999996 31.2398  7.32770000000005 31.3446  7.32770000000005 31.3446  C 7.32770000000005 31.3446  7.67340000000002 30.5718  7.67340000000002 30.5718  C 7.67340000000002 30.5718  7.63310000000001 29.4347  7.63310000000001 29.4347  C 7.63310000000001 29.4347  10.3579 29.6776  10.3579 29.6776  C 10.3579 29.6776  11.1528 28.822  11.1528 28.822  C 11.1528 28.822  10.8647999999999 27.4479  10.8647999999999 27.4479  C 10.8647999999999 27.4479  10.3924 26.9898  10.3924 26.9898  C 10.3924 26.9898  9.57439999999997 27.354  9.57439999999997 27.354  C 9.57439999999997 27.354  8.98680000000002 26.6366  8.98680000000002 26.6366  C 8.98680000000002 26.6366  8.47990000000004 27.0671  8.47990000000004 27.0671  C 8.47990000000004 27.0671  7.31619999999998 26.9126  7.31619999999998 26.9126  C 7.31619999999998 26.9126  8.26670000000001 25.5772  8.26670000000001 25.5772  C 8.26670000000001 25.5772  8.92340000000002 25.6268  8.92340000000002 25.6268  C 8.92340000000002 25.6268  9.20569999999998 24.5398  9.20569999999998 24.5398  C 9.20569999999998 24.5398  10.0871 24.7826  10.0871 24.7826  C 10.0871 24.7826  10.0525 24.0377  10.0525 24.0377  C 10.0525 24.0377  10.9857 22.8517  10.9857 22.8517  C 10.9857 22.8517  9.60320000000002 21.5663  9.60320000000002 21.5663  C 9.60320000000002 21.5663  8.17460000000005 21.125  8.17460000000005 21.125  C 8.17460000000005 21.125  7.74249999999995 19.7902  7.74249999999995 19.7902  C 7.74249999999995 19.7902  7.1146 19.2111  7.1146 19.2111  C 7.1146 19.2111  6.19290000000001 19.178  6.19290000000001 19.178  C 6.19290000000001 19.178  5.46130000000005 19.8233  5.46130000000005 19.8233  C 5.46130000000005 19.8233  4.90830000000005 18.7644  4.90830000000005 18.7644  C 4.90830000000005 18.7644  4.13059999999996 18.4832  4.13059999999996 18.4832  C 4.13059999999996 18.4832  3.57759999999996 19.3214  3.57759999999996 19.3214  C 3.57759999999996 19.3214  4.10180000000003 16.7847  4.10180000000003 16.7847  C 4.10180000000003 16.7847  4.12480000000005 14.9486  4.12480000000005 14.9486  C 4.12480000000005 14.9486  4.83339999999998 14.7447  4.83339999999998 14.7447  C 4.83339999999998 14.7447  4.45320000000004 13.9783  4.45320000000004 13.9783  C 4.45320000000004 13.9783  3.09370000000001 13.3057  3.09370000000001 13.3057  C 3.09370000000001 13.3057  1.97609999999997 13.5814  1.97609999999997 13.5814  C 1.97609999999997 13.5814  1.18119999999999 14.5682  1.18119999999999 14.5682  C 1.18119999999999 14.5682  0.44380000000001 11.5088  0.44380000000001 11.5088  C 0.44380000000001 11.5088  2.1431 11.0734  2.1431 11.0734  C 2.1431 11.0734  3.12239999999997 9.71199999999999  3.12239999999997 9.71199999999999  C 3.12239999999997 9.71199999999999  4.73540000000003 8.76419999999999  4.73540000000003 8.76419999999999  C 4.73540000000003 8.76419999999999  6.63639999999998 8.9461  6.63639999999998 8.9461  C 6.63639999999998 8.9461  7.52940000000001 8.58779999999999  7.52940000000001 8.58779999999999  C 7.52940000000001 8.58779999999999  8.572 7.2268  8.572 7.2268  C 8.572 7.2268  8.89469999999994 8.10839999999999  8.89469999999994 8.10839999999999  C 8.89469999999994 8.10839999999999  10.0641000000001 8.1746  10.0641000000001 8.1746  C 10.0641000000001 8.1746  10.162 9.35380000000001  10.162 9.35380000000001  C 10.162 9.35380000000001  10.9109 9.77269999999999  10.9109 9.77269999999999  C 10.9109 9.77269999999999  12.9674 9.86089999999999  12.9674 9.86089999999999  C 12.9674 9.86089999999999  13.0999 8.9736  13.0999 8.9736  C 13.0999 8.9736  12.495 7.01740000000001  12.495 7.01740000000001  C 12.495 7.01740000000001  11.8556 6.0642  11.8556 6.0642  C 11.8556 6.0642  11.9881 5.3426  11.9881 5.3426  C 11.9881 5.3426  13.0711 6.28460000000001  13.0711 6.28460000000001  C 13.0711 6.28460000000001  14.782 6.52709999999999  14.782 6.52709999999999  C 14.782 6.52709999999999  14.8627 5.06710000000001  14.8627 5.06710000000001  C 14.8627 5.06710000000001  15.3581 4.5933  15.3581 4.5933  C 15.3581 4.5933  15.5482 3.5026  15.5482 3.5026  C 15.5482 3.5026  16.4007 2.81960000000001  16.4007 2.81960000000001  C 16.4007 2.81960000000001  17.2476 0.902899999999988  17.2476 0.902899999999988  C 17.2476 0.902899999999988  18.2269 0.556000000000012  18.2269 0.556000000000012  C 18.2269 0.556000000000012  18.463 2.423  18.463 2.423  C 18.463 2.423  18.2441 3.9213  18.2441 3.9213  C 18.2441 3.9213  18.4861 4.4777  18.4861 4.4777  C 18.4861 4.4777  19.4078 4.82470000000001  19.4078 4.82470000000001  C 19.4078 4.82470000000001  20.1163 5.9486  20.1163 5.9486  C 20.1163 5.9486  19.6555 7.81639999999999  19.6555 7.81639999999999  C 19.6555 7.81639999999999  19.8398999999999 8.40600000000001  19.8398999999999 8.40600000000001  C 19.8398999999999 8.40600000000001  20.8364 9.0728  20.8364 9.0728  C 20.8364 9.0728  22.0173 8.67060000000001  22.0173 8.67060000000001  C 22.0173 8.67060000000001  23.325 9.2216  23.325 9.2216  C 23.325 9.2216  22.6395 9.679  22.6395 9.679  C 22.6395 9.679  22.4148 10.5002  22.4148 10.5002  C 22.4148 10.5002  22.8872 11.2939  22.8872 11.2939  C 22.8872 11.2939  22.1499 13.5924  22.1499 13.5924  C 22.1499 13.5924  22.2939 14.8329  22.2939 14.8329  C 22.2939 14.8329  23.1867999999999 15.7866  23.1867999999999 15.7866  C 23.1867999999999 15.7866  23.8838 18.1247  23.8838 18.1247  C 23.8838 18.1247  25.8482 19.4869  25.8482 19.4869  C 25.8482 19.4869  27.4208 20.0329  27.4208 20.0329  C 27.4208 20.0329  28.6306 22.4709  28.6306 22.4709  C 28.6306 22.4709  30.3876 23.1385  30.3876 23.1385  C 30.3876 23.1385  30.9578 24.4957  30.9578 24.4957  C 30.9578 24.4957  30.1455999999999 26.0683  30.1455999999999 26.0683  C 30.1455999999999 26.0683  29.535 26.5152  29.535 26.5152  C 29.535 26.5152  28.4059 29.225  28.4059 29.225  C 28.4059 29.225  28.6709 31.3722  28.6709 31.3722  C 28.6709 31.3722  28.2676 33.5253  28.2676 33.5253  C 28.2676 33.5253  27.6916 35.4634  27.6916 35.4634  C 27.6916 35.4634  28.6824 37.5178  28.6824 37.5178  C 28.6824 37.5178  31.6261 38.5561  31.6261 38.5561  C 31.6261 38.5561  32.8704 39.1969  32.8704 39.1969  C 32.8704 39.1969  33.1872 40.2132  33.1872 40.2132  C 33.1872 40.2132  32.6112000000001 40.3127  32.6112000000001 40.3127  C 32.6112000000001 40.3127  31.8105 41.2132  31.8105 41.2132  C 31.8105 41.2132  31.8738 42.4729  31.8738 42.4729  C 31.8738 42.4729  31.4648 44.2962  31.4648 44.2962  C 31.4648 44.2962  30.7793 45.9044  30.7793 45.9044  C 30.7793 45.9044  31.3841 46.9489  31.3841 46.9489  C 31.3841 46.9489  32.0812 46.3465  32.0812 46.3465  C 32.0812 46.3465  33.4003 46.7057  33.4003 46.7057  C 33.4003 46.7057  35.4742 46.5952  35.4742 46.5952  C 35.4742 46.5952  36.465 47.369  36.465 47.369  C 36.465 47.369  38.389 50.6746  38.389 50.6746  C 38.389 50.6746  39.7256 51.5702  39.7256 51.5702  C 39.7256 51.5702  41.3097 52.0735  41.3097 52.0735  C 41.3097 52.0735  42.5079 54.2134  42.5079 54.2134  C 42.5079 54.2134  42.0586 56.149  42.0586 56.149  C 42.0586 56.149  40.3304000000001 57.3327  40.3304000000001 57.3327  C 40.3304000000001 57.3327  40.0481 57.8637  40.0481 57.8637  C 40.0481 57.8637  40.8143 59.1194  40.8143 59.1194  C 40.8143 59.1194  41.4076 60.7958  41.4076 60.7958  C 41.4076 60.7958  43.1128 59.562  43.1128 59.562  C 43.1128 59.562  43.8098 59.9161  43.8098 59.9161  C 43.8098 59.9161  43.7234999999999 61.3049  43.7234999999999 61.3049  C 43.7234999999999 61.3049  44.2649 63.0202  44.2649 63.0202  C 44.2649 63.0202  43.3662 64.5642  43.3662 64.5642  C 43.3662 64.5642  43.4181 65.3501  43.4181 65.3501  C 43.4181 65.3501  44.3570999999999 66.3962  44.3570999999999 66.3962  C 44.3570999999999 66.3962  44.3859 67.138  44.3859 67.138  C 44.3859 67.138  43.9712 71.2958  43.9712 71.2958  C 43.9712 71.2958  44.6336 72.9848  44.6336 72.9848  C 44.6336 72.9848  45.636 73.2173  45.636 73.2173  C 45.636 73.2173  46.2811 74.4635  46.2811 74.4635  C 46.2811 74.4635  46.2984 75.3275  46.2984 75.3275  C 46.2984 75.3275  46.8801999999999 75.7319  46.8801999999999 75.7319  C 46.8801999999999 75.7319  47.848 74.7514  47.848 74.7514  C 47.848 74.7514  48.5105 74.9619  48.5105 74.9619  C 48.5105 74.9619  48.643 76.5572  48.643 76.5572  C 48.643 76.5572  49.726 75.4217  49.726 75.4217  C 49.726 75.4217  49.749 74.5853  49.749 74.5853  C 49.749 74.5853  48.8907 72.874  48.8907 72.874  C 48.8907 72.874  49.1385 71.8218  49.1385 71.8218  C 49.1385 71.8218  48.7352 70.9193  48.7352 70.9193  C 48.7352 70.9193  48.9138 69.5627  48.9138 69.5627  C 48.9138 69.5627  49.5244 69.0368  49.5244 69.0368  C 49.5244 69.0368  50.8033 69.4741  50.8033 69.4741  C 50.8033 69.4741  50.3309 68.4832  50.3309 68.4832  C 50.3309 68.4832  50.5497 67.5752  50.5497 67.5752  C 50.5497 67.5752  50.5728 65.3335  50.5728 65.3335  C 50.5728 65.3335  51.3044 64.7412  51.3044 64.7412  C 51.3044 64.7412  53.5429 65.9147  53.5429 65.9147  C 53.5429 65.9147  54.2227 65.721  54.2227 65.721  C 54.2227 65.721  55.0868 63.8115  55.0868 63.8115  C 55.0868 63.8115  54.3321 62.4668  54.3321 62.4668  C 54.3321 62.4668  54.1421 60.4583  54.1421 60.4583  C 54.1421 60.4583  54.4877 60.0987  54.4877 60.0987  C 54.4877 60.0987  55.9624 61.0503  55.9624 61.0503  C 55.9624 61.0503  57.0166 60.2425  57.0166 60.2425  C 57.0166 60.2425  57.6503 58.7101  57.6503 58.7101  C 57.6503 58.7101  59.2921 58.7432  59.2921 58.7432  C 59.2921 58.7432  60.1677 57.8803  60.1677 57.8803  C 60.1677 57.8803  60.8244 56.1104  60.8244 56.1104  C 60.8244 56.1104  61.1067 53.7267  61.1067 53.7267  C 61.1067 53.7267  63.1978 52.6651  63.1978 52.6651  C 63.1978 52.6651  63.6759 51.5869  63.6759 51.5869  C 63.6759 51.5869  64.5976000000001 47.6896  64.5976000000001 47.6896  C 64.5976000000001 47.6896  65.3407999999999 47.0539  65.3407999999999 47.0539  C 65.3407999999999 47.0539  67.8869 47.5071  67.8869 47.5071  C 67.8869 47.5071  68.8547 47.3082  68.8547 47.3082  C 68.8547 47.3082  70.364 49.558  70.364 49.558  C 70.364 49.558  70.7673 51.2883  70.7673 51.2883  C 70.7673 51.2883  70.8134 52.6761  70.8134 52.6761  C 70.8134 52.6761  71.7696 53.2235  71.7696 53.2235  C 71.7696 53.2235  73.7455 52.831  73.7455 52.831  C 73.7455 52.831  74.8573 53.1185  74.8573 53.1185  C 74.8573 53.1185  76.1534 54.6116  76.1534 54.6116  C 76.1534 54.6116  77.6281 54.8383  77.6281 54.8383  C 77.6281 54.8383  79.5349 54.3019  79.5349 54.3019  C 79.5349 54.3019  80.3011 55.0706  80.3011 55.0706  C 80.3011 55.0706  80.8714 54.9876  80.8714 54.9876  C 80.8714 54.9876  80.7735 53.2734  80.7735 53.2734  C 80.7735 53.2734  83.6538 49.1212  83.6538 49.1212  C 83.6538 49.1212  84.3623 46.4239  84.3623 46.4239  C 84.3623 46.4239  84.3854 44.0642  84.3854 44.0642  C 84.3854 44.0642  83.9534 41.6773  83.9534 41.6773  C 83.9534 41.6773  83.2275 40.8209  83.2275 40.8209  C 83.2275 40.8209  82.7206 39.4841  82.7206 39.4841  C 82.7206 39.4841  83.0259 38.28  83.0259 38.28  C 83.0259 38.28  83.6481 37.2085  83.6481 37.2085  C 83.6481 37.2085  83.7344000000001 35.8334  83.7344000000001 35.8334  C 83.7344000000001 35.8334  83.1527 33.8124  83.1527 33.8124  C 83.1527 33.8124  83.6941 33.2271  83.6941 33.2271  C 83.6941 33.2271  85.2898 33.8621  85.2898 33.8621  C 85.2898 33.8621  87.0525 32.2665  87.0525 32.2665  C 87.0525 32.2665  88.5676 32.9125  88.5676 32.9125  C 88.5676 32.9125  89.9502 31.6758  89.9502 31.6758  C 89.9502 31.6758  89.472 29.9591  89.472 29.9591  C 89.472 29.9591  90.0596 28.0936  90.0596 28.0936  C 90.0596 28.0936  91.1023 28.2591  91.1023 28.2591  C 91.1023 28.2591  91.1079999999999 27.5196  91.1079999999999 27.5196  C 91.1079999999999 27.5196  90.2785 27.2547  90.2785 27.2547  C 90.2785 27.2547  90.4512999999999 26.0848  90.4512999999999 26.0848  C 90.4512999999999 26.0848  91.0447 24.9592  91.0447 24.9592  C 91.0447 24.9592  91.9434 24.5288  91.9434 24.5288  C 91.9434 24.5288  92.9054 25.2571  92.9054 25.2571  C 92.9054 25.2571  93.2222 26.1841  93.2222 26.1841  C 93.2222 26.1841  94.0748 26.2669  94.0748 26.2669  C 94.0748 26.2669  94.9561 27.2767  94.9561 27.2767  C 94.9561 27.2767  96.6728000000001 26.9512  96.6728000000001 26.9512  C 96.6728000000001 26.9512  96.5115 28.9103  96.5115 28.9103  C 96.5115 28.9103  96.9204999999999 29.7217  96.9204999999999 29.7217  C 96.9204999999999 29.7217  96.5288 30.5552  96.5288 30.5552  C 96.5288 30.5552  97.4160000000001 31.9408  97.4160000000001 31.9408  C 97.4160000000001 31.9408  97.3526000000001 32.4708  97.3526000000001 32.4708  C 97.3526000000001 32.4708  93.9826 35.6678  93.9826 35.6678  C 93.9826 35.6678  93.6543 37.0373  93.6543 37.0373  C 93.6543 37.0373  93.8904 38.7218  93.8904 38.7218  C 93.8904 38.7218  94.6508 40.7878  94.6508 40.7878  C 94.6508 40.7878  94.3859 41.5005  94.3859 41.5005  C 94.3859 41.5005  95.6013 42.0805  95.6013 42.0805  C 95.6013 42.0805  95.8951 41.5392  95.8951 41.5392  C 95.8951 41.5392  96.8053 41.3513  96.8053 41.3513  C 96.8053 41.3513  97.8768 42.0695  97.8768 42.0695  C 97.8768 42.0695  99.0116 44.1028  99.0116 44.1028  C 99.0116 44.1028  100.3136 44.2355  100.3136 44.2355  C 100.3136 44.2355  101.4426 45.3185  101.4426 45.3185  C 101.4426 45.3185  102.2779 46.9489  102.2779 46.9489  C 102.2779 46.9489  102.4853 48.5685  102.4853 48.5685  C 102.4853 48.5685  102.324 51.2054  102.324 51.2054  C 102.324 51.2054  102.9519 52.9692  102.9519 52.9692  C 102.9519 52.9692  103.0153 54.2687  103.0153 54.2687  C 103.0153 54.2687  102.4392 55.4521  102.4392 55.4521  C 102.4392 55.4521  102.6985 58.2399  102.6985 58.2399  C 102.6985 58.2399  102.612 59.385  102.612 59.385  C 102.612 59.385  102.013 60.0544  102.013 60.0544  C 102.013 60.0544  102.2837 60.4804  102.2837 60.4804  C 102.2837 60.4804  101.6616 61.9024  101.6616 61.9024  C 101.6616 61.9024  101.5117 62.9593  101.5117 62.9593  C 101.5117 62.9593  100.6707 62.749  100.6707 62.749  C 100.6707 62.749  100.7686 68.0181  100.7686 68.0181  C 100.7686 68.0181  99.9333 68.1842  99.9333 68.1842  C 99.9333 68.1842  100.1868 69.07  100.1868 69.07  C 100.1868 69.07  103.6029 69.7786  103.6029 69.7786  C 103.6029 69.7786  103.2918 71.0411  103.2918 71.0411  C 103.2918 71.0411  103.4877 71.6945  103.4877 71.6945  C 103.4877 71.6945  101.8171 72.082  101.8171 72.082  C 101.8171 72.082  101.241 73.2505  101.241 73.2505  C 101.241 73.2505  101.3562 73.8819  101.3562 73.8819  C 101.3562 73.8819  100.4863 74.0647  100.4863 74.0647  C 100.4863 74.0647  99.6684 75.8537  99.6684 75.8537  C 99.6684 75.8537  99.7317 77.848  99.7317 77.848  C 99.7317 77.848  99.1096 78.0086  99.1096 78.0086  C 99.1096 78.0086  98.1245 77.3937  98.1245 77.3937  C 98.1245 77.3937  97.6809 77.9366  97.6809 77.9366  C 97.6809 77.9366  97.3583 77.2718  97.3583 77.2718  C 97.3583 77.2718  95.8433 78.4297  95.8433 78.4297  C 95.8433 78.4297  94.8525 77.6984  94.8525 77.6984  C 94.8525 77.6984  93.8847 78.6679  93.8847 78.6679  C 93.8847 78.6679  91.6035000000001 79.1832  91.6035000000001 79.1832  C 91.6035000000001 79.1832  90.002 79.0946  90.002 79.0946  C 90.002 79.0946  89.6737000000001 81.2057  89.6737000000001 81.2057  C 89.6737000000001 81.2057  90.1461 82.5578  90.1461 82.5578  C 90.1461 82.5578  90.1518 85.6784  90.1518 85.6784  C 90.1518 85.6784  89.6103000000001 85.9334  89.6103000000001 85.9334  C 89.6103000000001 85.9334  89.3453 87.4412  89.3453 87.4412  C 89.3453 87.4412  89.4835 88.5833  89.4835 88.5833  C 89.4835 88.5833  88.2738000000001 90.7126  88.2738000000001 90.7126  C 88.2738000000001 90.7126  87.9167 92.8938  87.9167 92.8938  C 87.9167 92.8938  87.3522 92.7718  87.3522 92.7718  C 87.3522 92.7718  86.8452 94.053  86.8452 94.053  C 86.8452 94.053  85.7219 95.3453  85.7219 95.3453  C 85.7219 95.3453  85.6009 96.244  85.6009 96.244  C 85.6009 96.244  83.3945 95.961  83.3945 95.961  C 83.3945 95.961  83.4118999999999 97.2259  83.4118999999999 97.2259  C 83.4118999999999 97.2259  82.8704 98.2522  82.8704 98.2522  C 82.8704 98.2522  83.0777000000001 99.0955  83.0777000000001 99.0955  C 83.0777000000001 99.0955  82.1618 102.9967  82.1618 102.9967  C 82.1618 102.9967  82.8128 103.857  82.8128 103.857  C 82.8128 103.857  82.5881000000001 105.3834  82.5881000000001 105.3834  C 82.5881000000001 105.3834  81.747 106.033  81.747 106.033  C 81.747 106.033  81.0039 107.9483  81.0039 107.9483  C 81.0039 107.9483  80.5315000000001 109.9972  80.5315000000001 109.9972  C 80.5315000000001 109.9972  80.8081 111.0578  80.8081 111.0578  C 80.8081 111.0578  81.7125 111.6521  81.7125 111.6521  C 81.7125 111.6521  81.6376 112.5852  81.6376 112.5852  C 81.6376 112.5852  79.8864 114.1681  79.8864 114.1681  C 79.8864 114.1681  80.1226 114.7291  80.1226 114.7291  C 80.1226 114.7291  79.5983 115.8013  79.5983 115.8013  C 79.5983 115.8013  79.7193 116.4846  79.7193 116.4846  C 79.7193 116.4846  80.4682 116.0235  80.4682 116.0235  C 80.4682 116.0235  81.2919000000001 116.6569  81.2919000000001 116.6569  C 81.2919000000001 116.6569  80.8196 119.4184  80.8196 119.4184  C 80.8196 119.4184  81.8335 120.9744  81.8335 120.9744  C 81.8335 120.9744  81.7355 121.5524  81.7355 121.5524  C 81.7355 121.5524  82.5708 122.1137  82.5708 122.1137  C 82.5708 122.1137  82.2194 123.7367  82.2194 123.7367  C 82.2194 123.7367  82.2252 126.4108  82.2252 126.4108  C 82.2252 126.4108  82.8415 126.2161  82.8415 126.2161  C 82.8415 126.2161  83.3139 127.1947  83.3139 127.1947  C 83.3139 127.1947  80.8425999999999 128.7238  80.8425999999999 128.7238  C 80.8425999999999 128.7238  81.6376 128.9963  81.6376 128.9963  C 81.6376 128.9963  81.8968 130.8982  81.8968 130.8982  C 81.8968 130.8982  81.5397 132.411  81.5397 132.411  C 81.5397 132.411  81.4648 133.9853  81.4648 133.9853  C 81.4648 133.9853  81.8622 135.1202  81.8622 135.1202  C 81.8622 135.1202  83.0086 136.4498  83.0086 136.4498  C 83.0086 136.4498  83.5674 136.6446  83.5674 136.6446  C 83.5674 136.6446  86.0271 136.1049  86.0271 136.1049  C 86.0271 136.1049  85.4684 137.2065  85.4684 137.2065  C 85.4684 137.2065  85.9811 139.6717  85.9811 139.6717  C 85.9811 139.6717  84.6274 140.7347  84.6274 140.7347  C 84.6274 140.7347  84.4718 141.6976  84.4718 141.6976  C 84.4718 141.6976  83.1814000000001 141.9759  83.1814000000001 141.9759  C 83.1814000000001 141.9759  82.6227 142.7608  82.6227 142.7608  C 82.6227 142.7608  83.6941 144.2082  83.6941 144.2082  C 83.6941 144.2082  83.1987 145.2158  83.1987 145.2158  C 83.1987 145.2158  81.6952 146.0231  81.6952 146.0231  C 81.6952 146.0231  81.5454 146.5688  81.5454 146.5688  C 81.5454 146.5688  80.6813 146.4741  80.6813 146.4741  C 80.6813 146.4741  81.0903 148.2672  81.0903 148.2672  C 81.0903 148.2672  80.7447 148.6179  80.7447 148.6179  C 80.7447 148.6179  81.4763 149.5369  81.4763 149.5369  C 81.4763 149.5369  81.5569 150.7399  81.5569 150.7399  C 81.5569 150.7399  81.1652 151.8594  81.1652 151.8594  C 81.1652 151.8594  80.5315000000001 152.4109  80.5315000000001 152.4109  C 80.5315000000001 152.4109  80.2896 154.5055  80.2896 154.5055  C 80.2896 154.5055  79.149 155.7591  79.149 155.7591  C 79.149 155.7591  78.8436 156.5893  78.8436 156.5893  C 78.8436 156.5893  77.801 156.8066  77.801 156.8066  C 77.801 156.8066  77.3286000000001 158.3391  77.3286000000001 158.3391  C 77.3286000000001 158.3391  76.1189000000001 159.0692  76.1189000000001 159.0692  C 76.1189000000001 159.0692  76.3434999999999 159.5094  76.3434999999999 159.5094  C 76.3434999999999 159.5094  74.9034 161.8839  74.9034 161.8839  C 74.9034 161.8839  75.2087 162.72  75.2087 162.72  C 75.2087 162.72  73.7858 163.6231  73.7858 163.6231  C 73.7858 163.6231  73.734 164.4482  73.734 164.4482  C 73.734 164.4482  72.5761 164.1305  72.5761 164.1305  C 72.5761 164.1305  72.4493 164.8107  72.4493 164.8107  C 72.4493 164.8107  71.3894 165.396  71.3894 165.396  C 71.3894 165.396  71.2281 166.6563  71.2281 166.6563  C 71.2281 166.6563  70.7097 167.6432  70.7097 167.6432  C 70.7097 167.6432  69.6728000000001 168.7475  69.6728000000001 168.7475  C 69.6728000000001 168.7475  68.6242999999999 168.5411  68.6242999999999 168.5411  C 68.6242999999999 168.5411  68.4342 169.5115  68.4342 169.5115  C 68.4342 169.5115  66.4756 169.941  66.4756 169.941  C 66.4756 169.941  66.3604 169.5506  66.3604 169.5506  C 66.3604 169.5506  62.9213 169.6788  62.9213 169.6788  C 62.9213 169.6788  61.9708000000001 169.0152  61.9708000000001 169.0152  C 61.9708000000001 169.0152  60.6458 169.3833  60.6458 169.3833  C 60.6458 169.3833  60.3405 170.2199  60.3405 170.2199  C 60.3405 170.2199  59.6031 170.5992  59.6031 170.5992  C 59.6031 170.5992  57.7194 170.4151  57.7194 170.4151  C 57.7194 170.4151  57.9786 171.592  57.9786 171.592  C 57.9786 171.592  59.4361 172.7189  59.4361 172.7189  C 59.4361 172.7189  59.8854 174.705  59.8854 174.705  C 59.8854 174.705  58.7391 176.9035  58.7391 176.9035  C 58.7391 176.9035  57.8346 177.0095  57.8346 177.0095  C 57.8346 177.0095  57.345 178.7954  57.345 178.7954  C 57.345 178.7954  56.1525 178.7451  56.1525 178.7451  C 56.1525 178.7451  55.7551 179.147  55.7551 179.147  C 55.7551 179.147  54.9888999999999 178.5052  54.9888999999999 178.5052  C 54.9888999999999 178.5052  53.952 179.0633  53.952 179.0633  C 53.952 179.0633  52.9208 180.52  52.9208 180.52  C 52.9208 180.52  51.1834 179.6325  51.1834 179.6325  C 51.1834 179.6325  50.4231 179.4986  50.4231 179.4986  C 50.4231 179.4986  49.0347 180.0009  49.0347 180.0009  C 49.0347 180.0009  49.2421000000001 181.0894  49.2421000000001 181.0894  C 49.2421000000001 181.0894  48.9367999999999 181.9993  48.9367999999999 181.9993  C 48.9367999999999 181.9993  47.6983 182.8701  47.6983 182.8701  C 47.6983 182.8701  44.2592 182.3231  44.2592 182.3231  C 44.2592 182.3231  43.3086 181.4522  43.3086 181.4522  C 43.3086 181.4522  43.2338 180.6093  43.2338 180.6093  C 43.2338 180.6093  43.6659 179.4819  43.6659 179.4819  C 43.6659 179.4819  41.0851 173.2377  41.0851 173.2377  C 41.0851 173.2377  40.2843 172.624  40.2843 172.624  C 40.2843 172.624  39.3280999999999 172.9364  39.3280999999999 172.9364  C 39.3280999999999 172.9364  38.2451 172.0941  38.2451 172.0941  C 38.2451 172.0941  36.3556 171.4024  36.3556 171.4024  C 36.3556 171.4024  35.9465 170.7275  35.9465 170.7275  C 35.9465 170.7275  36.2749 169.3833  36.2749 169.3833  C 36.2749 169.3833  34.8809 167.0298  34.8809 167.0298  C 34.8809 167.0298  34.9615 166.2436  34.9615 166.2436  C 34.9615 166.2436  36.6781 160.8916  36.6781 160.8916  C 36.6781 160.8916  37.1448 158.8351  37.1448 158.8351  C 37.1448 158.8351  36.9778 157.8821  36.9778 157.8821  C 36.9778 157.8821  36.0042 157.3638  36.0042 157.3638  C 36.0042 157.3638  34.6446999999999 158.8351  34.6446999999999 158.8351  C 34.6446999999999 158.8351  33.3887999999999 158.2443  33.3887999999999 158.2443  C 33.3887999999999 158.2443  31.5857999999999 154.7117  31.5857999999999 154.7117  C 31.5857999999999 154.7117  31.701 153.3635  31.701 153.3635  C 31.701 153.3635  31.3726 152.8064  31.3726 152.8064  C 31.3726 152.8064  31.9545 152.2271  31.9545 152.2271  C 31.9545 152.2271  31.4072 151.0684  31.4072 151.0684  C 31.4072 151.0684  32.8704 148.1724  32.8704 148.1724  C 32.8704 148.1724  34.3566 148.0499  34.3566 148.0499  C 34.3566 148.0499  34.4892 147.0588  34.4892 147.0588  C 34.4892 147.0588  33.5329 146.3627  33.5329 146.3627  C 33.5329 146.3627  33.2161 144.3361  33.2161 144.3361  C 33.2161 144.3361  33.7345 143.078  33.7345 143.078  C 33.7345 143.078  33.3024 142.3488  33.3024 142.3488  C 33.3024 142.3488  33.8439 141.2022  33.8439 141.2022  C 33.8439 141.2022  32.8646 139.5437  32.8646 139.5437  C 32.8646 139.5437  33.2448000000001 138.7201  33.2448000000001 138.7201  C 33.2448000000001 138.7201  32.4614 137.5626  32.4614 137.5626  C 32.4614 137.5626  31.3151 139.1709  31.3151 139.1709  C 31.3151 139.1709  30.3012 139.0596  30.3012 139.0596  C 30.3012 139.0596  30.2378 137.3401  30.2378 137.3401  C 30.2378 137.3401  28.4462 136.9172  28.4462 136.9172  C 28.4462 136.9172  27.8011 135.8601  27.8011 135.8601  C 27.8011 135.8601  28.0891 134.3913  28.0891 134.3913  C 28.0891 134.3913  27.0119 134.3302  27.0119 134.3302  C 27.0119 134.3302  26.7929 133.0953  26.7929 133.0953  C 26.7929 133.0953  26.9945 132.2219  26.9945 132.2219  C 26.9945 132.2219  26.3896999999999 131.5935  26.3896999999999 131.5935  C 26.3896999999999 131.5935  23.7166999999999 131.0206  23.7166999999999 131.0206  C 23.7166999999999 131.0206  22.7778 131.0373  22.7778 131.0373  C 22.7778 131.0373  22.0865 132.8672  22.0865 132.8672  C 22.0865 132.8672  21.2224 133.39  21.2224 133.39  C 21.2224 133.39  20.2488 132.2943  20.2488 132.2943  C 20.2488 132.2943  18.7799 132.3499  18.7799 132.3499  C 18.7799 132.3499  17.8869999999999 130.5812  17.8869999999999 130.5812  C 17.8869999999999 130.5812  17.9503999999999 128.6849  17.9503999999999 128.6849  C 17.9503999999999 128.6849  18.3767 126.8833  18.3767 126.8833  C 18.3767 126.8833  17.6162 124.0258  17.6162 124.0258  C 17.6162 124.0258  18.0944 122.3194  18.0944 122.3194  C 18.0944 122.3194  19.811 120.6187  19.811 120.6187  C 19.811 120.6187  20.8998 121.3912  20.8998 121.3912  C 20.8998 121.3912  22.0865 121.7024  22.0865 121.7024  C 22.0865 121.7024  23.6937 120.5575  23.6937 120.5575  C 23.6937 120.5575  24.2295 118.9627  24.2295 118.9627  C 24.2295 118.9627  25.8194 117.4402  25.8194 117.4402  C 25.8194 117.4402  26.3493999999999 113.646  26.3493999999999 113.646  C 26.3493999999999 113.646  26.1477 112.2796  26.1477 112.2796  C 26.1477 112.2796  25.6984 111.5354  25.6984 111.5354  C 25.6984 111.5354  24.0566 111.0356  24.0566 111.0356  C 24.0566 111.0356  23.0255 110.1249  23.0255 110.1249  C 23.0255 110.1249  22.098 110.6468  22.098 110.6468  C 22.098 110.6468  21.1475 110.7191  21.1475 110.7191  C 21.1475 110.7191  21.2396 109.6696  21.2396 109.6696  C 21.2396 109.6696  20.5254 108.5479  20.5254 108.5479  C 20.5254 108.5479  21.0265000000001 107.6929  21.0265000000001 107.6929  C 21.0265000000001 107.6929  20.4965 106.6824  20.4965 106.6824  C 20.4965 106.6824  19.4251 107.0434  19.4251 107.0434  C 19.4251 107.0434  19.1716 106.2383  19.1716 106.2383  C 19.1716 106.2383  20.5023 105.5222  20.5023 105.5222  C 20.5023 105.5222  19.8514 103.9236  19.8514 103.9236  C 19.8514 103.9236  20.9228000000001 100.1664  20.9228000000001 100.1664  C 20.9228000000001 100.1664  20.7039 99.029  20.7039 99.029  C 20.7039 99.029  21.4067 97.6697  21.4067 97.6697  C 21.4067 97.6697  22.3515 97.5365  22.3515 97.5365  C 22.3515 97.5365  23.544 96.8708  23.544 96.8708  C 23.544 96.8708  24.264 95.9943  24.264 95.9943  C 24.264 95.9943  24.1949 94.5633  24.1949 94.5633  C 24.1949 94.5633  23.3539 92.8439  23.3539 92.8439  C 23.3539 92.8439  23.3596 90.3411  23.3596 90.3411  C 23.3596 90.3411  22.9563000000001 87.7462  22.9563000000001 87.7462  C 22.9563000000001 87.7462  23.2213 86.6318  23.2213 86.6318  C 23.2213 86.6318  22.8987 85.9999  22.8987 85.9999  C 22.8987 85.9999  22.0058 85.6784  22.0058 85.6784  C 22.0058 85.6784  22.265 84.093  22.265 84.093  C 22.265 84.093  21.5047 82.8017  21.5047 82.8017  C 21.5047 82.8017  20.3179 82.907  20.3179 82.907  C 20.3179 82.907  20.8653 81.7819  20.8653 81.7819  C 20.8653 81.7819  20.9632 79.6985  20.9632 79.6985  C 20.9632 79.6985  20.0991 78.8508  20.0991 78.8508  C 20.0991 78.8508  20.1048 78.3189  20.1048 78.3189  C 20.1048 78.3189  19.1601000000001 77.571  19.1601000000001 77.571  C 19.1601000000001 77.571  17.9388 77.1223  17.9388 77.1223  C 17.9388 77.1223  17.4953 75.9811  17.4953 75.9811  C 17.4953 75.9811  17.6508 75.034  17.6508 75.034  C 17.6508 75.034  18.7568 74.9232  18.7568 74.9232  C 18.7568 74.9232  19.6728000000001 73.9318  19.6728000000001 73.9318  C 19.6728000000001 73.9318  19.2695 73.5828  19.2695 73.5828  C 19.2695 73.5828  19.7534000000001 71.8717  19.7534000000001 71.8717  C 19.7534000000001 71.8717  19.7131000000001 71.0133  19.7131000000001 71.0133  C 19.7131000000001 71.0133  18.2326 71.4066  18.2326 71.4066  C 18.2326 71.4066  17.9503999999999 69.9392  17.9503999999999 69.9392  C 17.9503999999999 69.9392  18.4918 66.8058  18.4918 66.8058  C 18.4918 66.8058  19.5287 65.649  19.5287 65.649  C 19.5287 65.649  20.5196 63.2748  20.5196 63.2748  C 20.5196 63.2748  19.788 62.0186  19.788 62.0186  C 19.788 62.0186  19.5922 60.6077  19.5922 60.6077  C 19.5922 60.6077  18.6935 58.9535  18.6935 58.9535  C 18.6935 58.9535  18.0886 58.9701  18.0886 58.9701  C 18.0886 58.9701  17.6105 60.2425  17.6105 60.2425  C 17.6105 60.2425  16.8098 61.2717  16.8098 61.2717  C 16.8098 61.2717  15.1334000000001 61.6036  15.1334000000001 61.6036  C 15.1334000000001 61.6036  14.2693 61.1112  14.2693 61.1112  C 14.2693 61.1112  13.1633 58.7156  13.1633 58.7156  C 13.1633 58.7156  13.7739 57.4267  13.7739 57.4267  C 13.7739 57.4267  12.4605 56.1878  12.4605 56.1878  C 12.4605 56.1878  11.2507000000001 56.7298  11.2507000000001 56.7298  C 11.2507000000001 56.7298  10.0467 55.1259  10.0467 55.1259  C 10.0467 55.1259  9.2921 54.9599  9.2921 54.9599  C 9.2921 54.9599  7.61000000000001 55.2254  7.61000000000001 55.2254  C 7.61000000000001 55.2254  6.64800000000003 53.6714  6.64800000000003 53.6714  C 6.64800000000003 53.6714  4.70669999999996 53.782  4.70669999999996 53.782  C 4.70669999999996 53.782  4.78150000000005 53.2788  4.78150000000005 53.2788  C 4.78150000000005 53.2788  3.49120000000005 52.3886  3.49120000000005 52.3886  C 3.49120000000005 52.3886  3.13980000000004 50.2102  3.13980000000004 50.2102  C 3.13980000000004 50.2102  3.65819999999997 48.2921  3.65819999999997 48.2921  C 3.65819999999997 48.2921  5.23090000000002 47.4906  5.23090000000002 47.4906  C 5.23090000000002 47.4906  5.8415 46.8218  5.8415 46.8218  C 5.8415 46.8218  6.47519999999997 44.9483  6.47519999999997 44.9483  C 6.47519999999997 44.9483  6.42330000000004 43.5613  6.42330000000004 43.5613  C 6.42330000000004 43.5613  5.92219999999998 41.6773  5.92219999999998 41.6773  C 5.92219999999998 41.6773  6.59619999999995 39.683  6.59619999999995 39.683  C 6.59619999999995 39.683  6.55010000000004 38.0867  6.55010000000004 38.0867  Z " fill-rule="nonzero" fill="#ffffff" stroke="none" transform="matrix(1 0 0 1 594 353 )" />
    <path d="M 6.55010000000004 38.0867  C 6.55010000000004 38.0867  6.11800000000005 37.1643  6.11800000000005 37.1643  C 6.11800000000005 37.1643  6.73440000000005 36.5679  6.73440000000005 36.5679  C 6.73440000000005 36.5679  6.56730000000005 35.5628  6.56730000000005 35.5628  C 6.56730000000005 35.5628  5.31150000000002 35.8831  5.31150000000002 35.8831  C 5.31150000000002 35.8831  5.19060000000002 37.0097  5.19060000000002 37.0097  C 5.19060000000002 37.0097  4.74699999999996 37.1699  4.74699999999996 37.1699  C 4.74699999999996 37.1699  3.73310000000004 36.1371  3.73310000000004 36.1371  C 3.73310000000004 36.1371  3.84829999999999 35.1707  3.84829999999999 35.1707  C 3.84829999999999 35.1707  2.44849999999997 35.3254  2.44849999999997 35.3254  C 2.44849999999997 35.3254  3.31830000000002 33.6357  3.31830000000002 33.6357  C 3.31830000000002 33.6357  4.78729999999996 33.1719  4.78729999999996 33.1719  C 4.78729999999996 33.1719  4.91980000000001 32.7193  4.91980000000001 32.7193  C 4.91980000000001 32.7193  3.91750000000002 31.7917  3.91750000000002 31.7917  C 3.91750000000002 31.7917  4.06150000000002 30.8423  4.06150000000002 30.8423  C 4.06150000000002 30.8423  5.73209999999995 28.6731  5.73209999999995 28.6731  C 5.73209999999995 28.6731  7.02819999999997 30.4283  7.02819999999997 30.4283  C 7.02819999999997 30.4283  6.82079999999996 31.2398  6.82079999999996 31.2398  C 6.82079999999996 31.2398  7.32770000000005 31.3446  7.32770000000005 31.3446  C 7.32770000000005 31.3446  7.67340000000002 30.5718  7.67340000000002 30.5718  C 7.67340000000002 30.5718  7.63310000000001 29.4347  7.63310000000001 29.4347  C 7.63310000000001 29.4347  10.3579 29.6776  10.3579 29.6776  C 10.3579 29.6776  11.1528 28.822  11.1528 28.822  C 11.1528 28.822  10.8647999999999 27.4479  10.8647999999999 27.4479  C 10.8647999999999 27.4479  10.3924 26.9898  10.3924 26.9898  C 10.3924 26.9898  9.57439999999997 27.354  9.57439999999997 27.354  C 9.57439999999997 27.354  8.98680000000002 26.6366  8.98680000000002 26.6366  C 8.98680000000002 26.6366  8.47990000000004 27.0671  8.47990000000004 27.0671  C 8.47990000000004 27.0671  7.31619999999998 26.9126  7.31619999999998 26.9126  C 7.31619999999998 26.9126  8.26670000000001 25.5772  8.26670000000001 25.5772  C 8.26670000000001 25.5772  8.92340000000002 25.6268  8.92340000000002 25.6268  C 8.92340000000002 25.6268  9.20569999999998 24.5398  9.20569999999998 24.5398  C 9.20569999999998 24.5398  10.0871 24.7826  10.0871 24.7826  C 10.0871 24.7826  10.0525 24.0377  10.0525 24.0377  C 10.0525 24.0377  10.9857 22.8517  10.9857 22.8517  C 10.9857 22.8517  9.60320000000002 21.5663  9.60320000000002 21.5663  C 9.60320000000002 21.5663  8.17460000000005 21.125  8.17460000000005 21.125  C 8.17460000000005 21.125  7.74249999999995 19.7902  7.74249999999995 19.7902  C 7.74249999999995 19.7902  7.1146 19.2111  7.1146 19.2111  C 7.1146 19.2111  6.19290000000001 19.178  6.19290000000001 19.178  C 6.19290000000001 19.178  5.46130000000005 19.8233  5.46130000000005 19.8233  C 5.46130000000005 19.8233  4.90830000000005 18.7644  4.90830000000005 18.7644  C 4.90830000000005 18.7644  4.13059999999996 18.4832  4.13059999999996 18.4832  C 4.13059999999996 18.4832  3.57759999999996 19.3214  3.57759999999996 19.3214  C 3.57759999999996 19.3214  4.10180000000003 16.7847  4.10180000000003 16.7847  C 4.10180000000003 16.7847  4.12480000000005 14.9486  4.12480000000005 14.9486  C 4.12480000000005 14.9486  4.83339999999998 14.7447  4.83339999999998 14.7447  C 4.83339999999998 14.7447  4.45320000000004 13.9783  4.45320000000004 13.9783  C 4.45320000000004 13.9783  3.09370000000001 13.3057  3.09370000000001 13.3057  C 3.09370000000001 13.3057  1.97609999999997 13.5814  1.97609999999997 13.5814  C 1.97609999999997 13.5814  1.18119999999999 14.5682  1.18119999999999 14.5682  C 1.18119999999999 14.5682  0.44380000000001 11.5088  0.44380000000001 11.5088  C 0.44380000000001 11.5088  2.1431 11.0734  2.1431 11.0734  C 2.1431 11.0734  3.12239999999997 9.71199999999999  3.12239999999997 9.71199999999999  C 3.12239999999997 9.71199999999999  4.73540000000003 8.76419999999999  4.73540000000003 8.76419999999999  C 4.73540000000003 8.76419999999999  6.63639999999998 8.9461  6.63639999999998 8.9461  C 6.63639999999998 8.9461  7.52940000000001 8.58779999999999  7.52940000000001 8.58779999999999  C 7.52940000000001 8.58779999999999  8.572 7.2268  8.572 7.2268  C 8.572 7.2268  8.89469999999994 8.10839999999999  8.89469999999994 8.10839999999999  C 8.89469999999994 8.10839999999999  10.0641000000001 8.1746  10.0641000000001 8.1746  C 10.0641000000001 8.1746  10.162 9.35380000000001  10.162 9.35380000000001  C 10.162 9.35380000000001  10.9109 9.77269999999999  10.9109 9.77269999999999  C 10.9109 9.77269999999999  12.9674 9.86089999999999  12.9674 9.86089999999999  C 12.9674 9.86089999999999  13.0999 8.9736  13.0999 8.9736  C 13.0999 8.9736  12.495 7.01740000000001  12.495 7.01740000000001  C 12.495 7.01740000000001  11.8556 6.0642  11.8556 6.0642  C 11.8556 6.0642  11.9881 5.3426  11.9881 5.3426  C 11.9881 5.3426  13.0711 6.28460000000001  13.0711 6.28460000000001  C 13.0711 6.28460000000001  14.782 6.52709999999999  14.782 6.52709999999999  C 14.782 6.52709999999999  14.8627 5.06710000000001  14.8627 5.06710000000001  C 14.8627 5.06710000000001  15.3581 4.5933  15.3581 4.5933  C 15.3581 4.5933  15.5482 3.5026  15.5482 3.5026  C 15.5482 3.5026  16.4007 2.81960000000001  16.4007 2.81960000000001  C 16.4007 2.81960000000001  17.2476 0.902899999999988  17.2476 0.902899999999988  C 17.2476 0.902899999999988  18.2269 0.556000000000012  18.2269 0.556000000000012  C 18.2269 0.556000000000012  18.463 2.423  18.463 2.423  C 18.463 2.423  18.2441 3.9213  18.2441 3.9213  C 18.2441 3.9213  18.4861 4.4777  18.4861 4.4777  C 18.4861 4.4777  19.4078 4.82470000000001  19.4078 4.82470000000001  C 19.4078 4.82470000000001  20.1163 5.9486  20.1163 5.9486  C 20.1163 5.9486  19.6555 7.81639999999999  19.6555 7.81639999999999  C 19.6555 7.81639999999999  19.8398999999999 8.40600000000001  19.8398999999999 8.40600000000001  C 19.8398999999999 8.40600000000001  20.8364 9.0728  20.8364 9.0728  C 20.8364 9.0728  22.0173 8.67060000000001  22.0173 8.67060000000001  C 22.0173 8.67060000000001  23.325 9.2216  23.325 9.2216  C 23.325 9.2216  22.6395 9.679  22.6395 9.679  C 22.6395 9.679  22.4148 10.5002  22.4148 10.5002  C 22.4148 10.5002  22.8872 11.2939  22.8872 11.2939  C 22.8872 11.2939  22.1499 13.5924  22.1499 13.5924  C 22.1499 13.5924  22.2939 14.8329  22.2939 14.8329  C 22.2939 14.8329  23.1867999999999 15.7866  23.1867999999999 15.7866  C 23.1867999999999 15.7866  23.8838 18.1247  23.8838 18.1247  C 23.8838 18.1247  25.8482 19.4869  25.8482 19.4869  C 25.8482 19.4869  27.4208 20.0329  27.4208 20.0329  C 27.4208 20.0329  28.6306 22.4709  28.6306 22.4709  C 28.6306 22.4709  30.3876 23.1385  30.3876 23.1385  C 30.3876 23.1385  30.9578 24.4957  30.9578 24.4957  C 30.9578 24.4957  30.1455999999999 26.0683  30.1455999999999 26.0683  C 30.1455999999999 26.0683  29.535 26.5152  29.535 26.5152  C 29.535 26.5152  28.4059 29.225  28.4059 29.225  C 28.4059 29.225  28.6709 31.3722  28.6709 31.3722  C 28.6709 31.3722  28.2676 33.5253  28.2676 33.5253  C 28.2676 33.5253  27.6916 35.4634  27.6916 35.4634  C 27.6916 35.4634  28.6824 37.5178  28.6824 37.5178  C 28.6824 37.5178  31.6261 38.5561  31.6261 38.5561  C 31.6261 38.5561  32.8704 39.1969  32.8704 39.1969  C 32.8704 39.1969  33.1872 40.2132  33.1872 40.2132  C 33.1872 40.2132  32.6112000000001 40.3127  32.6112000000001 40.3127  C 32.6112000000001 40.3127  31.8105 41.2132  31.8105 41.2132  C 31.8105 41.2132  31.8738 42.4729  31.8738 42.4729  C 31.8738 42.4729  31.4648 44.2962  31.4648 44.2962  C 31.4648 44.2962  30.7793 45.9044  30.7793 45.9044  C 30.7793 45.9044  31.3841 46.9489  31.3841 46.9489  C 31.3841 46.9489  32.0812 46.3465  32.0812 46.3465  C 32.0812 46.3465  33.4003 46.7057  33.4003 46.7057  C 33.4003 46.7057  35.4742 46.5952  35.4742 46.5952  C 35.4742 46.5952  36.465 47.369  36.465 47.369  C 36.465 47.369  38.389 50.6746  38.389 50.6746  C 38.389 50.6746  39.7256 51.5702  39.7256 51.5702  C 39.7256 51.5702  41.3097 52.0735  41.3097 52.0735  C 41.3097 52.0735  42.5079 54.2134  42.5079 54.2134  C 42.5079 54.2134  42.0586 56.149  42.0586 56.149  C 42.0586 56.149  40.3304000000001 57.3327  40.3304000000001 57.3327  C 40.3304000000001 57.3327  40.0481 57.8637  40.0481 57.8637  C 40.0481 57.8637  40.8143 59.1194  40.8143 59.1194  C 40.8143 59.1194  41.4076 60.7958  41.4076 60.7958  C 41.4076 60.7958  43.1128 59.562  43.1128 59.562  C 43.1128 59.562  43.8098 59.9161  43.8098 59.9161  C 43.8098 59.9161  43.7234999999999 61.3049  43.7234999999999 61.3049  C 43.7234999999999 61.3049  44.2649 63.0202  44.2649 63.0202  C 44.2649 63.0202  43.3662 64.5642  43.3662 64.5642  C 43.3662 64.5642  43.4181 65.3501  43.4181 65.3501  C 43.4181 65.3501  44.3570999999999 66.3962  44.3570999999999 66.3962  C 44.3570999999999 66.3962  44.3859 67.138  44.3859 67.138  C 44.3859 67.138  43.9712 71.2958  43.9712 71.2958  C 43.9712 71.2958  44.6336 72.9848  44.6336 72.9848  C 44.6336 72.9848  45.636 73.2173  45.636 73.2173  C 45.636 73.2173  46.2811 74.4635  46.2811 74.4635  C 46.2811 74.4635  46.2984 75.3275  46.2984 75.3275  C 46.2984 75.3275  46.8801999999999 75.7319  46.8801999999999 75.7319  C 46.8801999999999 75.7319  47.848 74.7514  47.848 74.7514  C 47.848 74.7514  48.5105 74.9619  48.5105 74.9619  C 48.5105 74.9619  48.643 76.5572  48.643 76.5572  C 48.643 76.5572  49.726 75.4217  49.726 75.4217  C 49.726 75.4217  49.749 74.5853  49.749 74.5853  C 49.749 74.5853  48.8907 72.874  48.8907 72.874  C 48.8907 72.874  49.1385 71.8218  49.1385 71.8218  C 49.1385 71.8218  48.7352 70.9193  48.7352 70.9193  C 48.7352 70.9193  48.9138 69.5627  48.9138 69.5627  C 48.9138 69.5627  49.5244 69.0368  49.5244 69.0368  C 49.5244 69.0368  50.8033 69.4741  50.8033 69.4741  C 50.8033 69.4741  50.3309 68.4832  50.3309 68.4832  C 50.3309 68.4832  50.5497 67.5752  50.5497 67.5752  C 50.5497 67.5752  50.5728 65.3335  50.5728 65.3335  C 50.5728 65.3335  51.3044 64.7412  51.3044 64.7412  C 51.3044 64.7412  53.5429 65.9147  53.5429 65.9147  C 53.5429 65.9147  54.2227 65.721  54.2227 65.721  C 54.2227 65.721  55.0868 63.8115  55.0868 63.8115  C 55.0868 63.8115  54.3321 62.4668  54.3321 62.4668  C 54.3321 62.4668  54.1421 60.4583  54.1421 60.4583  C 54.1421 60.4583  54.4877 60.0987  54.4877 60.0987  C 54.4877 60.0987  55.9624 61.0503  55.9624 61.0503  C 55.9624 61.0503  57.0166 60.2425  57.0166 60.2425  C 57.0166 60.2425  57.6503 58.7101  57.6503 58.7101  C 57.6503 58.7101  59.2921 58.7432  59.2921 58.7432  C 59.2921 58.7432  60.1677 57.8803  60.1677 57.8803  C 60.1677 57.8803  60.8244 56.1104  60.8244 56.1104  C 60.8244 56.1104  61.1067 53.7267  61.1067 53.7267  C 61.1067 53.7267  63.1978 52.6651  63.1978 52.6651  C 63.1978 52.6651  63.6759 51.5869  63.6759 51.5869  C 63.6759 51.5869  64.5976000000001 47.6896  64.5976000000001 47.6896  C 64.5976000000001 47.6896  65.3407999999999 47.0539  65.3407999999999 47.0539  C 65.3407999999999 47.0539  67.8869 47.5071  67.8869 47.5071  C 67.8869 47.5071  68.8547 47.3082  68.8547 47.3082  C 68.8547 47.3082  70.364 49.558  70.364 49.558  C 70.364 49.558  70.7673 51.2883  70.7673 51.2883  C 70.7673 51.2883  70.8134 52.6761  70.8134 52.6761  C 70.8134 52.6761  71.7696 53.2235  71.7696 53.2235  C 71.7696 53.2235  73.7455 52.831  73.7455 52.831  C 73.7455 52.831  74.8573 53.1185  74.8573 53.1185  C 74.8573 53.1185  76.1534 54.6116  76.1534 54.6116  C 76.1534 54.6116  77.6281 54.8383  77.6281 54.8383  C 77.6281 54.8383  79.5349 54.3019  79.5349 54.3019  C 79.5349 54.3019  80.3011 55.0706  80.3011 55.0706  C 80.3011 55.0706  80.8714 54.9876  80.8714 54.9876  C 80.8714 54.9876  80.7735 53.2734  80.7735 53.2734  C 80.7735 53.2734  83.6538 49.1212  83.6538 49.1212  C 83.6538 49.1212  84.3623 46.4239  84.3623 46.4239  C 84.3623 46.4239  84.3854 44.0642  84.3854 44.0642  C 84.3854 44.0642  83.9534 41.6773  83.9534 41.6773  C 83.9534 41.6773  83.2275 40.8209  83.2275 40.8209  C 83.2275 40.8209  82.7206 39.4841  82.7206 39.4841  C 82.7206 39.4841  83.0259 38.28  83.0259 38.28  C 83.0259 38.28  83.6481 37.2085  83.6481 37.2085  C 83.6481 37.2085  83.7344000000001 35.8334  83.7344000000001 35.8334  C 83.7344000000001 35.8334  83.1527 33.8124  83.1527 33.8124  C 83.1527 33.8124  83.6941 33.2271  83.6941 33.2271  C 83.6941 33.2271  85.2898 33.8621  85.2898 33.8621  C 85.2898 33.8621  87.0525 32.2665  87.0525 32.2665  C 87.0525 32.2665  88.5676 32.9125  88.5676 32.9125  C 88.5676 32.9125  89.9502 31.6758  89.9502 31.6758  C 89.9502 31.6758  89.472 29.9591  89.472 29.9591  C 89.472 29.9591  90.0596 28.0936  90.0596 28.0936  C 90.0596 28.0936  91.1023 28.2591  91.1023 28.2591  C 91.1023 28.2591  91.1079999999999 27.5196  91.1079999999999 27.5196  C 91.1079999999999 27.5196  90.2785 27.2547  90.2785 27.2547  C 90.2785 27.2547  90.4512999999999 26.0848  90.4512999999999 26.0848  C 90.4512999999999 26.0848  91.0447 24.9592  91.0447 24.9592  C 91.0447 24.9592  91.9434 24.5288  91.9434 24.5288  C 91.9434 24.5288  92.9054 25.2571  92.9054 25.2571  C 92.9054 25.2571  93.2222 26.1841  93.2222 26.1841  C 93.2222 26.1841  94.0748 26.2669  94.0748 26.2669  C 94.0748 26.2669  94.9561 27.2767  94.9561 27.2767  C 94.9561 27.2767  96.6728000000001 26.9512  96.6728000000001 26.9512  C 96.6728000000001 26.9512  96.5115 28.9103  96.5115 28.9103  C 96.5115 28.9103  96.9204999999999 29.7217  96.9204999999999 29.7217  C 96.9204999999999 29.7217  96.5288 30.5552  96.5288 30.5552  C 96.5288 30.5552  97.4160000000001 31.9408  97.4160000000001 31.9408  C 97.4160000000001 31.9408  97.3526000000001 32.4708  97.3526000000001 32.4708  C 97.3526000000001 32.4708  93.9826 35.6678  93.9826 35.6678  C 93.9826 35.6678  93.6543 37.0373  93.6543 37.0373  C 93.6543 37.0373  93.8904 38.7218  93.8904 38.7218  C 93.8904 38.7218  94.6508 40.7878  94.6508 40.7878  C 94.6508 40.7878  94.3859 41.5005  94.3859 41.5005  C 94.3859 41.5005  95.6013 42.0805  95.6013 42.0805  C 95.6013 42.0805  95.8951 41.5392  95.8951 41.5392  C 95.8951 41.5392  96.8053 41.3513  96.8053 41.3513  C 96.8053 41.3513  97.8768 42.0695  97.8768 42.0695  C 97.8768 42.0695  99.0116 44.1028  99.0116 44.1028  C 99.0116 44.1028  100.3136 44.2355  100.3136 44.2355  C 100.3136 44.2355  101.4426 45.3185  101.4426 45.3185  C 101.4426 45.3185  102.2779 46.9489  102.2779 46.9489  C 102.2779 46.9489  102.4853 48.5685  102.4853 48.5685  C 102.4853 48.5685  102.324 51.2054  102.324 51.2054  C 102.324 51.2054  102.9519 52.9692  102.9519 52.9692  C 102.9519 52.9692  103.0153 54.2687  103.0153 54.2687  C 103.0153 54.2687  102.4392 55.4521  102.4392 55.4521  C 102.4392 55.4521  102.6985 58.2399  102.6985 58.2399  C 102.6985 58.2399  102.612 59.385  102.612 59.385  C 102.612 59.385  102.013 60.0544  102.013 60.0544  C 102.013 60.0544  102.2837 60.4804  102.2837 60.4804  C 102.2837 60.4804  101.6616 61.9024  101.6616 61.9024  C 101.6616 61.9024  101.5117 62.9593  101.5117 62.9593  C 101.5117 62.9593  100.6707 62.749  100.6707 62.749  C 100.6707 62.749  100.7686 68.0181  100.7686 68.0181  C 100.7686 68.0181  99.9333 68.1842  99.9333 68.1842  C 99.9333 68.1842  100.1868 69.07  100.1868 69.07  C 100.1868 69.07  103.6029 69.7786  103.6029 69.7786  C 103.6029 69.7786  103.2918 71.0411  103.2918 71.0411  C 103.2918 71.0411  103.4877 71.6945  103.4877 71.6945  C 103.4877 71.6945  101.8171 72.082  101.8171 72.082  C 101.8171 72.082  101.241 73.2505  101.241 73.2505  C 101.241 73.2505  101.3562 73.8819  101.3562 73.8819  C 101.3562 73.8819  100.4863 74.0647  100.4863 74.0647  C 100.4863 74.0647  99.6684 75.8537  99.6684 75.8537  C 99.6684 75.8537  99.7317 77.848  99.7317 77.848  C 99.7317 77.848  99.1096 78.0086  99.1096 78.0086  C 99.1096 78.0086  98.1245 77.3937  98.1245 77.3937  C 98.1245 77.3937  97.6809 77.9366  97.6809 77.9366  C 97.6809 77.9366  97.3583 77.2718  97.3583 77.2718  C 97.3583 77.2718  95.8433 78.4297  95.8433 78.4297  C 95.8433 78.4297  94.8525 77.6984  94.8525 77.6984  C 94.8525 77.6984  93.8847 78.6679  93.8847 78.6679  C 93.8847 78.6679  91.6035000000001 79.1832  91.6035000000001 79.1832  C 91.6035000000001 79.1832  90.002 79.0946  90.002 79.0946  C 90.002 79.0946  89.6737000000001 81.2057  89.6737000000001 81.2057  C 89.6737000000001 81.2057  90.1461 82.5578  90.1461 82.5578  C 90.1461 82.5578  90.1518 85.6784  90.1518 85.6784  C 90.1518 85.6784  89.6103000000001 85.9334  89.6103000000001 85.9334  C 89.6103000000001 85.9334  89.3453 87.4412  89.3453 87.4412  C 89.3453 87.4412  89.4835 88.5833  89.4835 88.5833  C 89.4835 88.5833  88.2738000000001 90.7126  88.2738000000001 90.7126  C 88.2738000000001 90.7126  87.9167 92.8938  87.9167 92.8938  C 87.9167 92.8938  87.3522 92.7718  87.3522 92.7718  C 87.3522 92.7718  86.8452 94.053  86.8452 94.053  C 86.8452 94.053  85.7219 95.3453  85.7219 95.3453  C 85.7219 95.3453  85.6009 96.244  85.6009 96.244  C 85.6009 96.244  83.3945 95.961  83.3945 95.961  C 83.3945 95.961  83.4118999999999 97.2259  83.4118999999999 97.2259  C 83.4118999999999 97.2259  82.8704 98.2522  82.8704 98.2522  C 82.8704 98.2522  83.0777000000001 99.0955  83.0777000000001 99.0955  C 83.0777000000001 99.0955  82.1618 102.9967  82.1618 102.9967  C 82.1618 102.9967  82.8128 103.857  82.8128 103.857  C 82.8128 103.857  82.5881000000001 105.3834  82.5881000000001 105.3834  C 82.5881000000001 105.3834  81.747 106.033  81.747 106.033  C 81.747 106.033  81.0039 107.9483  81.0039 107.9483  C 81.0039 107.9483  80.5315000000001 109.9972  80.5315000000001 109.9972  C 80.5315000000001 109.9972  80.8081 111.0578  80.8081 111.0578  C 80.8081 111.0578  81.7125 111.6521  81.7125 111.6521  C 81.7125 111.6521  81.6376 112.5852  81.6376 112.5852  C 81.6376 112.5852  79.8864 114.1681  79.8864 114.1681  C 79.8864 114.1681  80.1226 114.7291  80.1226 114.7291  C 80.1226 114.7291  79.5983 115.8013  79.5983 115.8013  C 79.5983 115.8013  79.7193 116.4846  79.7193 116.4846  C 79.7193 116.4846  80.4682 116.0235  80.4682 116.0235  C 80.4682 116.0235  81.2919000000001 116.6569  81.2919000000001 116.6569  C 81.2919000000001 116.6569  80.8196 119.4184  80.8196 119.4184  C 80.8196 119.4184  81.8335 120.9744  81.8335 120.9744  C 81.8335 120.9744  81.7355 121.5524  81.7355 121.5524  C 81.7355 121.5524  82.5708 122.1137  82.5708 122.1137  C 82.5708 122.1137  82.2194 123.7367  82.2194 123.7367  C 82.2194 123.7367  82.2252 126.4108  82.2252 126.4108  C 82.2252 126.4108  82.8415 126.2161  82.8415 126.2161  C 82.8415 126.2161  83.3139 127.1947  83.3139 127.1947  C 83.3139 127.1947  80.8425999999999 128.7238  80.8425999999999 128.7238  C 80.8425999999999 128.7238  81.6376 128.9963  81.6376 128.9963  C 81.6376 128.9963  81.8968 130.8982  81.8968 130.8982  C 81.8968 130.8982  81.5397 132.411  81.5397 132.411  C 81.5397 132.411  81.4648 133.9853  81.4648 133.9853  C 81.4648 133.9853  81.8622 135.1202  81.8622 135.1202  C 81.8622 135.1202  83.0086 136.4498  83.0086 136.4498  C 83.0086 136.4498  83.5674 136.6446  83.5674 136.6446  C 83.5674 136.6446  86.0271 136.1049  86.0271 136.1049  C 86.0271 136.1049  85.4684 137.2065  85.4684 137.2065  C 85.4684 137.2065  85.9811 139.6717  85.9811 139.6717  C 85.9811 139.6717  84.6274 140.7347  84.6274 140.7347  C 84.6274 140.7347  84.4718 141.6976  84.4718 141.6976  C 84.4718 141.6976  83.1814000000001 141.9759  83.1814000000001 141.9759  C 83.1814000000001 141.9759  82.6227 142.7608  82.6227 142.7608  C 82.6227 142.7608  83.6941 144.2082  83.6941 144.2082  C 83.6941 144.2082  83.1987 145.2158  83.1987 145.2158  C 83.1987 145.2158  81.6952 146.0231  81.6952 146.0231  C 81.6952 146.0231  81.5454 146.5688  81.5454 146.5688  C 81.5454 146.5688  80.6813 146.4741  80.6813 146.4741  C 80.6813 146.4741  81.0903 148.2672  81.0903 148.2672  C 81.0903 148.2672  80.7447 148.6179  80.7447 148.6179  C 80.7447 148.6179  81.4763 149.5369  81.4763 149.5369  C 81.4763 149.5369  81.5569 150.7399  81.5569 150.7399  C 81.5569 150.7399  81.1652 151.8594  81.1652 151.8594  C 81.1652 151.8594  80.5315000000001 152.4109  80.5315000000001 152.4109  C 80.5315000000001 152.4109  80.2896 154.5055  80.2896 154.5055  C 80.2896 154.5055  79.149 155.7591  79.149 155.7591  C 79.149 155.7591  78.8436 156.5893  78.8436 156.5893  C 78.8436 156.5893  77.801 156.8066  77.801 156.8066  C 77.801 156.8066  77.3286000000001 158.3391  77.3286000000001 158.3391  C 77.3286000000001 158.3391  76.1189000000001 159.0692  76.1189000000001 159.0692  C 76.1189000000001 159.0692  76.3434999999999 159.5094  76.3434999999999 159.5094  C 76.3434999999999 159.5094  74.9034 161.8839  74.9034 161.8839  C 74.9034 161.8839  75.2087 162.72  75.2087 162.72  C 75.2087 162.72  73.7858 163.6231  73.7858 163.6231  C 73.7858 163.6231  73.734 164.4482  73.734 164.4482  C 73.734 164.4482  72.5761 164.1305  72.5761 164.1305  C 72.5761 164.1305  72.4493 164.8107  72.4493 164.8107  C 72.4493 164.8107  71.3894 165.396  71.3894 165.396  C 71.3894 165.396  71.2281 166.6563  71.2281 166.6563  C 71.2281 166.6563  70.7097 167.6432  70.7097 167.6432  C 70.7097 167.6432  69.6728000000001 168.7475  69.6728000000001 168.7475  C 69.6728000000001 168.7475  68.6242999999999 168.5411  68.6242999999999 168.5411  C 68.6242999999999 168.5411  68.4342 169.5115  68.4342 169.5115  C 68.4342 169.5115  66.4756 169.941  66.4756 169.941  C 66.4756 169.941  66.3604 169.5506  66.3604 169.5506  C 66.3604 169.5506  62.9213 169.6788  62.9213 169.6788  C 62.9213 169.6788  61.9708000000001 169.0152  61.9708000000001 169.0152  C 61.9708000000001 169.0152  60.6458 169.3833  60.6458 169.3833  C 60.6458 169.3833  60.3405 170.2199  60.3405 170.2199  C 60.3405 170.2199  59.6031 170.5992  59.6031 170.5992  C 59.6031 170.5992  57.7194 170.4151  57.7194 170.4151  C 57.7194 170.4151  57.9786 171.592  57.9786 171.592  C 57.9786 171.592  59.4361 172.7189  59.4361 172.7189  C 59.4361 172.7189  59.8854 174.705  59.8854 174.705  C 59.8854 174.705  58.7391 176.9035  58.7391 176.9035  C 58.7391 176.9035  57.8346 177.0095  57.8346 177.0095  C 57.8346 177.0095  57.345 178.7954  57.345 178.7954  C 57.345 178.7954  56.1525 178.7451  56.1525 178.7451  C 56.1525 178.7451  55.7551 179.147  55.7551 179.147  C 55.7551 179.147  54.9888999999999 178.5052  54.9888999999999 178.5052  C 54.9888999999999 178.5052  53.952 179.0633  53.952 179.0633  C 53.952 179.0633  52.9208 180.52  52.9208 180.52  C 52.9208 180.52  51.1834 179.6325  51.1834 179.6325  C 51.1834 179.6325  50.4231 179.4986  50.4231 179.4986  C 50.4231 179.4986  49.0347 180.0009  49.0347 180.0009  C 49.0347 180.0009  49.2421000000001 181.0894  49.2421000000001 181.0894  C 49.2421000000001 181.0894  48.9367999999999 181.9993  48.9367999999999 181.9993  C 48.9367999999999 181.9993  47.6983 182.8701  47.6983 182.8701  C 47.6983 182.8701  44.2592 182.3231  44.2592 182.3231  C 44.2592 182.3231  43.3086 181.4522  43.3086 181.4522  C 43.3086 181.4522  43.2338 180.6093  43.2338 180.6093  C 43.2338 180.6093  43.6659 179.4819  43.6659 179.4819  C 43.6659 179.4819  41.0851 173.2377  41.0851 173.2377  C 41.0851 173.2377  40.2843 172.624  40.2843 172.624  C 40.2843 172.624  39.3280999999999 172.9364  39.3280999999999 172.9364  C 39.3280999999999 172.9364  38.2451 172.0941  38.2451 172.0941  C 38.2451 172.0941  36.3556 171.4024  36.3556 171.4024  C 36.3556 171.4024  35.9465 170.7275  35.9465 170.7275  C 35.9465 170.7275  36.2749 169.3833  36.2749 169.3833  C 36.2749 169.3833  34.8809 167.0298  34.8809 167.0298  C 34.8809 167.0298  34.9615 166.2436  34.9615 166.2436  C 34.9615 166.2436  36.6781 160.8916  36.6781 160.8916  C 36.6781 160.8916  37.1448 158.8351  37.1448 158.8351  C 37.1448 158.8351  36.9778 157.8821  36.9778 157.8821  C 36.9778 157.8821  36.0042 157.3638  36.0042 157.3638  C 36.0042 157.3638  34.6446999999999 158.8351  34.6446999999999 158.8351  C 34.6446999999999 158.8351  33.3887999999999 158.2443  33.3887999999999 158.2443  C 33.3887999999999 158.2443  31.5857999999999 154.7117  31.5857999999999 154.7117  C 31.5857999999999 154.7117  31.701 153.3635  31.701 153.3635  C 31.701 153.3635  31.3726 152.8064  31.3726 152.8064  C 31.3726 152.8064  31.9545 152.2271  31.9545 152.2271  C 31.9545 152.2271  31.4072 151.0684  31.4072 151.0684  C 31.4072 151.0684  32.8704 148.1724  32.8704 148.1724  C 32.8704 148.1724  34.3566 148.0499  34.3566 148.0499  C 34.3566 148.0499  34.4892 147.0588  34.4892 147.0588  C 34.4892 147.0588  33.5329 146.3627  33.5329 146.3627  C 33.5329 146.3627  33.2161 144.3361  33.2161 144.3361  C 33.2161 144.3361  33.7345 143.078  33.7345 143.078  C 33.7345 143.078  33.3024 142.3488  33.3024 142.3488  C 33.3024 142.3488  33.8439 141.2022  33.8439 141.2022  C 33.8439 141.2022  32.8646 139.5437  32.8646 139.5437  C 32.8646 139.5437  33.2448000000001 138.7201  33.2448000000001 138.7201  C 33.2448000000001 138.7201  32.4614 137.5626  32.4614 137.5626  C 32.4614 137.5626  31.3151 139.1709  31.3151 139.1709  C 31.3151 139.1709  30.3012 139.0596  30.3012 139.0596  C 30.3012 139.0596  30.2378 137.3401  30.2378 137.3401  C 30.2378 137.3401  28.4462 136.9172  28.4462 136.9172  C 28.4462 136.9172  27.8011 135.8601  27.8011 135.8601  C 27.8011 135.8601  28.0891 134.3913  28.0891 134.3913  C 28.0891 134.3913  27.0119 134.3302  27.0119 134.3302  C 27.0119 134.3302  26.7929 133.0953  26.7929 133.0953  C 26.7929 133.0953  26.9945 132.2219  26.9945 132.2219  C 26.9945 132.2219  26.3896999999999 131.5935  26.3896999999999 131.5935  C 26.3896999999999 131.5935  23.7166999999999 131.0206  23.7166999999999 131.0206  C 23.7166999999999 131.0206  22.7778 131.0373  22.7778 131.0373  C 22.7778 131.0373  22.0865 132.8672  22.0865 132.8672  C 22.0865 132.8672  21.2224 133.39  21.2224 133.39  C 21.2224 133.39  20.2488 132.2943  20.2488 132.2943  C 20.2488 132.2943  18.7799 132.3499  18.7799 132.3499  C 18.7799 132.3499  17.8869999999999 130.5812  17.8869999999999 130.5812  C 17.8869999999999 130.5812  17.9503999999999 128.6849  17.9503999999999 128.6849  C 17.9503999999999 128.6849  18.3767 126.8833  18.3767 126.8833  C 18.3767 126.8833  17.6162 124.0258  17.6162 124.0258  C 17.6162 124.0258  18.0944 122.3194  18.0944 122.3194  C 18.0944 122.3194  19.811 120.6187  19.811 120.6187  C 19.811 120.6187  20.8998 121.3912  20.8998 121.3912  C 20.8998 121.3912  22.0865 121.7024  22.0865 121.7024  C 22.0865 121.7024  23.6937 120.5575  23.6937 120.5575  C 23.6937 120.5575  24.2295 118.9627  24.2295 118.9627  C 24.2295 118.9627  25.8194 117.4402  25.8194 117.4402  C 25.8194 117.4402  26.3493999999999 113.646  26.3493999999999 113.646  C 26.3493999999999 113.646  26.1477 112.2796  26.1477 112.2796  C 26.1477 112.2796  25.6984 111.5354  25.6984 111.5354  C 25.6984 111.5354  24.0566 111.0356  24.0566 111.0356  C 24.0566 111.0356  23.0255 110.1249  23.0255 110.1249  C 23.0255 110.1249  22.098 110.6468  22.098 110.6468  C 22.098 110.6468  21.1475 110.7191  21.1475 110.7191  C 21.1475 110.7191  21.2396 109.6696  21.2396 109.6696  C 21.2396 109.6696  20.5254 108.5479  20.5254 108.5479  C 20.5254 108.5479  21.0265000000001 107.6929  21.0265000000001 107.6929  C 21.0265000000001 107.6929  20.4965 106.6824  20.4965 106.6824  C 20.4965 106.6824  19.4251 107.0434  19.4251 107.0434  C 19.4251 107.0434  19.1716 106.2383  19.1716 106.2383  C 19.1716 106.2383  20.5023 105.5222  20.5023 105.5222  C 20.5023 105.5222  19.8514 103.9236  19.8514 103.9236  C 19.8514 103.9236  20.9228000000001 100.1664  20.9228000000001 100.1664  C 20.9228000000001 100.1664  20.7039 99.029  20.7039 99.029  C 20.7039 99.029  21.4067 97.6697  21.4067 97.6697  C 21.4067 97.6697  22.3515 97.5365  22.3515 97.5365  C 22.3515 97.5365  23.544 96.8708  23.544 96.8708  C 23.544 96.8708  24.264 95.9943  24.264 95.9943  C 24.264 95.9943  24.1949 94.5633  24.1949 94.5633  C 24.1949 94.5633  23.3539 92.8439  23.3539 92.8439  C 23.3539 92.8439  23.3596 90.3411  23.3596 90.3411  C 23.3596 90.3411  22.9563000000001 87.7462  22.9563000000001 87.7462  C 22.9563000000001 87.7462  23.2213 86.6318  23.2213 86.6318  C 23.2213 86.6318  22.8987 85.9999  22.8987 85.9999  C 22.8987 85.9999  22.0058 85.6784  22.0058 85.6784  C 22.0058 85.6784  22.265 84.093  22.265 84.093  C 22.265 84.093  21.5047 82.8017  21.5047 82.8017  C 21.5047 82.8017  20.3179 82.907  20.3179 82.907  C 20.3179 82.907  20.8653 81.7819  20.8653 81.7819  C 20.8653 81.7819  20.9632 79.6985  20.9632 79.6985  C 20.9632 79.6985  20.0991 78.8508  20.0991 78.8508  C 20.0991 78.8508  20.1048 78.3189  20.1048 78.3189  C 20.1048 78.3189  19.1601000000001 77.571  19.1601000000001 77.571  C 19.1601000000001 77.571  17.9388 77.1223  17.9388 77.1223  C 17.9388 77.1223  17.4953 75.9811  17.4953 75.9811  C 17.4953 75.9811  17.6508 75.034  17.6508 75.034  C 17.6508 75.034  18.7568 74.9232  18.7568 74.9232  C 18.7568 74.9232  19.6728000000001 73.9318  19.6728000000001 73.9318  C 19.6728000000001 73.9318  19.2695 73.5828  19.2695 73.5828  C 19.2695 73.5828  19.7534000000001 71.8717  19.7534000000001 71.8717  C 19.7534000000001 71.8717  19.7131000000001 71.0133  19.7131000000001 71.0133  C 19.7131000000001 71.0133  18.2326 71.4066  18.2326 71.4066  C 18.2326 71.4066  17.9503999999999 69.9392  17.9503999999999 69.9392  C 17.9503999999999 69.9392  18.4918 66.8058  18.4918 66.8058  C 18.4918 66.8058  19.5287 65.649  19.5287 65.649  C 19.5287 65.649  20.5196 63.2748  20.5196 63.2748  C 20.5196 63.2748  19.788 62.0186  19.788 62.0186  C 19.788 62.0186  19.5922 60.6077  19.5922 60.6077  C 19.5922 60.6077  18.6935 58.9535  18.6935 58.9535  C 18.6935 58.9535  18.0886 58.9701  18.0886 58.9701  C 18.0886 58.9701  17.6105 60.2425  17.6105 60.2425  C 17.6105 60.2425  16.8098 61.2717  16.8098 61.2717  C 16.8098 61.2717  15.1334000000001 61.6036  15.1334000000001 61.6036  C 15.1334000000001 61.6036  14.2693 61.1112  14.2693 61.1112  C 14.2693 61.1112  13.1633 58.7156  13.1633 58.7156  C 13.1633 58.7156  13.7739 57.4267  13.7739 57.4267  C 13.7739 57.4267  12.4605 56.1878  12.4605 56.1878  C 12.4605 56.1878  11.2507000000001 56.7298  11.2507000000001 56.7298  C 11.2507000000001 56.7298  10.0467 55.1259  10.0467 55.1259  C 10.0467 55.1259  9.2921 54.9599  9.2921 54.9599  C 9.2921 54.9599  7.61000000000001 55.2254  7.61000000000001 55.2254  C 7.61000000000001 55.2254  6.64800000000003 53.6714  6.64800000000003 53.6714  C 6.64800000000003 53.6714  4.70669999999996 53.782  4.70669999999996 53.782  C 4.70669999999996 53.782  4.78150000000005 53.2788  4.78150000000005 53.2788  C 4.78150000000005 53.2788  3.49120000000005 52.3886  3.49120000000005 52.3886  C 3.49120000000005 52.3886  3.13980000000004 50.2102  3.13980000000004 50.2102  C 3.13980000000004 50.2102  3.65819999999997 48.2921  3.65819999999997 48.2921  C 3.65819999999997 48.2921  5.23090000000002 47.4906  5.23090000000002 47.4906  C 5.23090000000002 47.4906  5.8415 46.8218  5.8415 46.8218  C 5.8415 46.8218  6.47519999999997 44.9483  6.47519999999997 44.9483  C 6.47519999999997 44.9483  6.42330000000004 43.5613  6.42330000000004 43.5613  C 6.42330000000004 43.5613  5.92219999999998 41.6773  5.92219999999998 41.6773  C 5.92219999999998 41.6773  6.59619999999995 39.683  6.59619999999995 39.683  C 6.59619999999995 39.683  6.55010000000004 38.0867  6.55010000000004 38.0867  Z " stroke-width="2" stroke="#666666" fill="none" transform="matrix(1 0 0 1 594 353 )" mask="url(#clip136)" />
  </g>
</svg>