<?xml version="1.0" encoding="utf-8"?>
<svg version="1.1" xmlns:xlink="http://www.w3.org/1999/xlink" width="73px" height="105px" xmlns="http://www.w3.org/2000/svg">
  <defs>
    <mask fill="white" id="clip137">
      <path d="M 57.7466 0.974300000000028  C 57.7466 0.974300000000028  58.7662 1.42860000000002  58.7662 1.42860000000002  C 58.7662 1.42860000000002  59.6821 2.73050000000001  59.6821 2.73050000000001  C 59.6821 2.73050000000001  61.3239 1.49610000000001  61.3239 1.49610000000001  C 61.3239 1.49610000000001  63.0117 2.7921  63.0117 2.7921  C 63.0117 2.7921  64.3598 2.7473  64.3598 2.7473  C 64.3598 2.7473  65.5292 2.08519999999999  65.5292 2.08519999999999  C 65.5292 2.08519999999999  66.0303 3.28030000000001  66.0303 3.28030000000001  C 66.0303 3.28030000000001  66.1456 5.09289999999999  66.1456 5.09289999999999  C 66.1456 5.09289999999999  65.4024 6.24340000000001  65.4024 6.24340000000001  C 65.4024 6.24340000000001  66.3299 7.79270000000002  66.3299 7.79270000000002  C 66.3299 7.79270000000002  66.3241 8.76369999999997  66.3241 8.76369999999997  C 66.3241 8.76369999999997  65.1778 10.0774  65.1778 10.0774  C 65.1778 10.0774  65.3276 11.0711  65.3276 11.0711  C 65.3276 11.0711  66.1283 11.4641  66.1283 11.4641  C 66.1283 11.4641  66.3702 12.3849  66.3702 12.3849  C 66.3702 12.3849  65.4773 16.1418  65.4773 16.1418  C 65.4773 16.1418  65.0223 19.5402  65.0223 19.5402  C 65.0223 19.5402  65.4716 19.6525  65.4716 19.6525  C 65.4716 19.6525  65.4946 22.2763  65.4946 22.2763  C 65.4946 22.2763  64.9243 23.9002  64.9243 23.9002  C 64.9243 23.9002  65.4888 25.7659  65.4888 25.7659  C 65.4888 25.7659  66.2665 26.5977  66.2665 26.5977  C 66.2665 26.5977  66.9578 25.5411  66.9578 25.5411  C 66.9578 25.5411  68.421 26.5135  68.421 26.5135  C 68.421 26.5135  69.095 26.5752  69.095 26.5752  C 69.095 26.5752  69.4349 27.2722  69.4349 27.2722  C 69.4349 27.2722  70.155 25.8221  70.155 25.8221  C 70.155 25.8221  70.7656 25.8446  70.7656 25.8446  C 70.7656 25.8446  70.7483 26.8225  70.7483 26.8225  C 70.7483 26.8225  70.0743 29.0592  70.0743 29.0592  C 70.0743 29.0592  69.8266 30.7849  69.8266 30.7849  C 69.8266 30.7849  69.2563 31.2796  69.2563 31.2796  C 69.2563 31.2796  69.0719 33.4892  69.0719 33.4892  C 69.0719 33.4892  69.8785 35.3504  69.8785 35.3504  C 69.8785 35.3504  69.6941 35.8509  69.6941 35.8509  C 69.6941 35.8509  69.9015 37.9992999999999  69.9015 37.9992999999999  C 69.9015 37.9992999999999  71.2726 40.5305  71.2726 40.5305  C 71.2726 40.5305  71.3705 42.9159  71.3705 42.9159  C 71.3705 42.9159  72.4419 44.6489  72.4419 44.6489  C 72.4419 44.6489  72.2345 48.0311  72.2345 48.0311  C 72.2345 48.0311  70.3048 48.2225  70.3048 48.2225  C 70.3048 48.2225  68.7781 48.1437  68.7781 48.1437  C 68.7781 48.1437  66.0707 47.4571  66.0707 47.4571  C 66.0707 47.4571  64.4001 46.4497  64.4001 46.4497  C 64.4001 46.4497  63.0176 45.3579999999999  63.0176 45.3579999999999  C 63.0176 45.3579999999999  62.3436 44.3451  62.3436 44.3451  C 62.3436 44.3451  61.3469 41.1043  61.3469 41.1043  C 61.3469 41.1043  60.7306 39.6248000000001  60.7306 39.6248000000001  C 60.7306 39.6248000000001  59.1176 37.943  59.1176 37.943  C 59.1176 37.943  58.7547 39.1861  58.7547 39.1861  C 58.7547 39.1861  58.53 41.3182  58.53 41.3182  C 58.53 41.3182  56.4332 44.3338  56.4332 44.3338  C 56.4332 44.3338  55.6612 45.9544  55.6612 45.9544  C 55.6612 45.9544  53.7256 47.1081  53.7256 47.1081  C 53.7256 47.1081  54.0079 49.3764  54.0079 49.3764  C 54.0079 49.3764  52.8788 50.0462  52.8788 50.0462  C 52.8788 50.0462  49.4974 48.3857  49.4974 48.3857  C 49.4974 48.3857  46.7207 49.4721  46.7207 49.4721  C 46.7207 49.4721  44.3473 49.8605  44.3473 49.8605  C 44.3473 49.8605  35.7778 50.2433  35.7778 50.2433  C 35.7778 50.2433  32.8975 51.0201  32.8975 51.0201  C 32.8975 51.0201  30.3802 51.1834  30.3802 51.1834  C 30.3802 51.1834  29.2395 52.7879  29.2395 52.7879  C 29.2395 52.7879  25.8695 54.691  25.8695 54.691  C 25.8695 54.691  24.0895 55.1977000000001  24.0895 55.1977000000001  C 24.0895 55.1977000000001  22.2864 54.8881  22.2864 54.8881  C 22.2864 54.8881  18.9511 51.8194999999999  18.9511 51.8194999999999  C 18.9511 51.8194999999999  18.0524 51.2735  18.0524 51.2735  C 18.0524 51.2735  16.6756 51.0595  16.6756 51.0595  C 16.6756 51.0595  15.3103 51.3072  15.3103 51.3072  C 15.3103 51.3072  14.8091 50.4121  14.8091 50.4121  C 14.8091 50.4121  14.6594 48.5377999999999  14.6594 48.5377999999999  C 14.6594 48.5377999999999  14.9993 47.2714  14.9993 47.2714  C 14.9993 47.2714  16.1629 45.6281  16.1629 45.6281  C 16.1629 45.6281  17.4072 44.7446  17.4072 44.7446  C 17.4072 44.7446  21.2035 43.5629  21.2035 43.5629  C 21.2035 43.5629  22.5341 42.4714  22.5341 42.4714  C 22.5341 42.4714  23.1506 41.29  23.1506 41.29  C 23.1506 41.29  23.283 39.5743  23.283 39.5743  C 23.283 39.5743  22.5802 37.1894  22.5802 37.1894  C 22.5802 37.1894  21.1285 36.4639  21.1285 36.4639  C 21.1285 36.4639  19.8669 37.0205999999999  19.8669 37.0205999999999  C 19.8669 37.0205999999999  18.7609 35.6203  18.7609 35.6203  C 18.7609 35.6203  16.4279 35.2942  16.4279 35.2942  C 16.4279 35.2942  11.1339 34.7881  11.1339 34.7881  C 11.1339 34.7881  9.20979999999997 34.8612000000001  9.20979999999997 34.8612000000001  C 9.20979999999997 34.8612000000001  7.09570000000002 34.6363  7.09570000000002 34.6363  C 7.09570000000002 34.6363  5.41930000000002 33.9727  5.41930000000002 33.9727  C 5.41930000000002 33.9727  4.33629999999999 33.1518  4.33629999999999 33.1518  C 4.33629999999999 33.1518  2.80399999999997 30.8467000000001  2.80399999999997 30.8467000000001  C 2.80399999999997 30.8467000000001  1.05849999999998 26.4853000000001  1.05849999999998 26.4853000000001  C 1.05849999999998 26.4853000000001  0.447900000000004 23.8271  0.447900000000004 23.8271  C 0.447900000000004 23.8271  0.482500000000016 22.1301999999999  0.482500000000016 22.1301999999999  C 0.482500000000016 22.1301999999999  0.781999999999982 20.0289  0.781999999999982 20.0289  C 0.781999999999982 20.0289  1.1737 18.7425  1.1737 18.7425  C 1.1737 18.7425  1.6979 18.1694  1.6979 18.1694  C 1.6979 18.1694  2.6542 18.0291  2.6542 18.0291  C 2.6542 18.0291  3.21879999999999 18.4335  3.21879999999999 18.4335  C 3.21879999999999 18.4335  4.10590000000002 18.1976  4.10590000000002 18.1976  C 4.10590000000002 18.1976  4.97579999999999 17.2427  4.97579999999999 17.2427  C 4.97579999999999 17.2427  5.61520000000002 17.3157  5.61520000000002 17.3157  C 5.61520000000002 17.3157  7.13600000000002 16.1138  7.13600000000002 16.1138  C 7.13600000000002 16.1138  7.59679999999997 16.4058  7.59679999999997 16.4058  C 7.59679999999997 16.4058  8.19009999999997 13.7045  8.19009999999997 13.7045  C 8.19009999999997 13.7045  9.37110000000001 11.6999  9.37110000000001 11.6999  C 9.37110000000001 11.6999  9.16370000000001 11.1329  9.16370000000001 11.1329  C 9.16370000000001 11.1329  8.47239999999999 11.335  8.47239999999999 11.335  C 8.47239999999999 11.335  8.46089999999998 9.98750000000001  8.46089999999998 9.98750000000001  C 8.46089999999998 9.98750000000001  9.93560000000002 9.23520000000002  9.93560000000002 9.23520000000002  C 9.93560000000002 9.23520000000002  9.3365 10.2009  9.3365 10.2009  C 9.3365 10.2009  9.6764 11.0093  9.6764 11.0093  C 9.6764 11.0093  10.2813 9.26889999999997  10.2813 9.26889999999997  C 10.2813 9.26889999999997  11.6926 8.58409999999998  11.6926 8.58409999999998  C 11.6926 8.58409999999998  13.4554 8.74689999999998  13.4554 8.74689999999998  C 13.4554 8.74689999999998  14.4981 8.0564  14.4981 8.0564  C 14.4981 8.0564  16.4106 8.6739  16.4106 8.6739  C 16.4106 8.6739  18.1791 7.18079999999998  18.1791 7.18079999999998  C 18.1791 7.18079999999998  18.9395 5.18270000000001  18.9395 5.18270000000001  C 18.9395 5.18270000000001  19.6653 4.90210000000002  19.6653 4.90210000000002  C 19.6653 4.90210000000002  20.3969 5.22210000000001  20.3969 5.22210000000001  C 20.3969 5.22210000000001  21.8544 7.60169999999999  21.8544 7.60169999999999  C 21.8544 7.60169999999999  22.4881 7.8768  22.4881 7.8768  C 22.4881 7.8768  23.4386 7.29860000000002  23.4386 7.29860000000002  C 23.4386 7.29860000000002  29.3029 7.1472  29.3029 7.1472  C 29.3029 7.1472  31.0714 5.77199999999999  31.0714 5.77199999999999  C 31.0714 5.77199999999999  31.5553 4.95830000000001  31.5553 4.95830000000001  C 31.5553 4.95830000000001  31.4171 3.20179999999999  31.4171 3.20179999999999  C 31.4171 3.20179999999999  32.8514 3.2747  32.8514 3.2747  C 32.8514 3.2747  32.045 2.01220000000001  32.045 2.01220000000001  C 32.045 2.01220000000001  32.0046 1.21539999999999  32.0046 1.21539999999999  C 32.0046 1.21539999999999  33.0761 1.50729999999999  33.0761 1.50729999999999  C 33.0761 1.50729999999999  33.7674 0.817200000000014  33.7674 0.817200000000014  C 33.7674 0.817200000000014  34.4529 2.45549999999997  34.4529 2.45549999999997  C 34.4529 2.45549999999997  34.7294 1.75409999999999  34.7294 1.75409999999999  C 34.7294 1.75409999999999  35.4322 2.20859999999999  35.4322 2.20859999999999  C 35.4322 2.20859999999999  34.9944 3.42070000000001  34.9944 3.42070000000001  C 34.9944 3.42070000000001  35.2882 3.95370000000003  35.2882 3.95370000000003  C 35.2882 3.95370000000003  37.3193 3.44310000000002  37.3193 3.44310000000002  C 37.3193 3.44310000000002  37.4058 2.42739999999998  37.4058 2.42739999999998  C 37.4058 2.42739999999998  38.5061 1.47359999999998  38.5061 1.47359999999998  C 38.5061 1.47359999999998  40.073 3.06709999999998  40.073 3.06709999999998  C 40.073 3.06709999999998  41.058 2.5172  41.058 2.5172  C 41.058 2.5172  42.2793 3.34210000000002  42.2793 3.34210000000002  C 42.2793 3.34210000000002  42.3599 1.58019999999999  42.3599 1.58019999999999  C 42.3599 1.58019999999999  42.9129 1.3109  42.9129 1.3109  C 42.9129 1.3109  44.451 1.70929999999998  44.451 1.70929999999998  C 44.451 1.70929999999998  45.0674 0.474899999999991  45.0674 0.474899999999991  C 45.0674 0.474899999999991  46.2598 0.834000000000003  46.2598 0.834000000000003  C 46.2598 0.834000000000003  46.4327 2.72480000000002  46.4327 2.72480000000002  C 46.4327 2.72480000000002  47.7058 3.77409999999998  47.7058 3.77409999999998  C 47.7058 3.77409999999998  48.23 3.75170000000003  48.23 3.75170000000003  C 48.23 3.75170000000003  48.5986 2.27030000000002  48.5986 2.27030000000002  C 48.5986 2.27030000000002  49.3821 2.1918  49.3821 2.1918  C 49.3821 2.1918  49.699 3.75170000000003  49.699 3.75170000000003  C 49.699 3.75170000000003  50.154 4.2568  50.154 4.2568  C 50.154 4.2568  52.4122 5.03680000000003  52.4122 5.03680000000003  C 52.4122 5.03680000000003  53.668 2.11320000000001  53.668 2.11320000000001  C 53.668 2.11320000000001  55.0736 2.93799999999999  55.0736 2.93799999999999  C 55.0736 2.93799999999999  56.4274 2.59019999999998  56.4274 2.59019999999998  C 56.4274 2.59019999999998  57.2224 1.2491  57.2224 1.2491  C 57.2224 1.2491  57.7466 0.974300000000028  57.7466 0.974300000000028  Z M 19.6538 93.5948  C 19.6538 93.5948  18.4787 92.6521  18.4787 92.6521  C 18.4787 92.6521  18.2713 88.7732999999999  18.2713 88.7732999999999  C 18.2713 88.7732999999999  18.7725 87.3453  18.7725 87.3453  C 18.7725 87.3453  21.7253 86.053  21.7253 86.053  C 21.7253 86.053  22.5318 85.9176  22.5318 85.9176  C 22.5318 85.9176  23.2979 86.3465  23.2979 86.3465  C 23.2979 86.3465  23.7531 87.3058  23.7531 87.3058  C 23.7531 87.3058  23.7185 88.9764  23.7185 88.9764  C 23.7185 88.9764  22.9062 92.1834  22.9062 92.1834  C 22.9062 92.1834  22.4742 92.6746000000001  22.4742 92.6746000000001  C 22.4742 92.6746000000001  20.4085 92.1834  20.4085 92.1834  C 20.4085 92.1834  19.9361 91.5287  19.9361 91.5287  C 19.9361 91.5287  19.36 92.1947  19.36 92.1947  C 19.36 92.1947  19.6538 93.5948  19.6538 93.5948  Z M 29.3179 104.3026  C 29.3179 104.3026  27.4422 103.5456  27.4422 103.5456  C 27.4422 103.5456  27.4307 101.5513  27.4307 101.5513  C 27.4307 101.5513  29.6001 102.314  29.6001 102.314  C 29.6001 102.314  29.3179 104.3026  29.3179 104.3026  Z " fill-rule="evenodd" />
    </mask>
  </defs>
  <g transform="matrix(1 0 0 1 -483 -604 )">
    <path d="M 57.7466 0.974300000000028  C 57.7466 0.974300000000028  58.7662 1.42860000000002  58.7662 1.42860000000002  C 58.7662 1.42860000000002  59.6821 2.73050000000001  59.6821 2.73050000000001  C 59.6821 2.73050000000001  61.3239 1.49610000000001  61.3239 1.49610000000001  C 61.3239 1.49610000000001  63.0117 2.7921  63.0117 2.7921  C 63.0117 2.7921  64.3598 2.7473  64.3598 2.7473  C 64.3598 2.7473  65.5292 2.08519999999999  65.5292 2.08519999999999  C 65.5292 2.08519999999999  66.0303 3.28030000000001  66.0303 3.28030000000001  C 66.0303 3.28030000000001  66.1456 5.09289999999999  66.1456 5.09289999999999  C 66.1456 5.09289999999999  65.4024 6.24340000000001  65.4024 6.24340000000001  C 65.4024 6.24340000000001  66.3299 7.79270000000002  66.3299 7.79270000000002  C 66.3299 7.79270000000002  66.3241 8.76369999999997  66.3241 8.76369999999997  C 66.3241 8.76369999999997  65.1778 10.0774  65.1778 10.0774  C 65.1778 10.0774  65.3276 11.0711  65.3276 11.0711  C 65.3276 11.0711  66.1283 11.4641  66.1283 11.4641  C 66.1283 11.4641  66.3702 12.3849  66.3702 12.3849  C 66.3702 12.3849  65.4773 16.1418  65.4773 16.1418  C 65.4773 16.1418  65.0223 19.5402  65.0223 19.5402  C 65.0223 19.5402  65.4716 19.6525  65.4716 19.6525  C 65.4716 19.6525  65.4946 22.2763  65.4946 22.2763  C 65.4946 22.2763  64.9243 23.9002  64.9243 23.9002  C 64.9243 23.9002  65.4888 25.7659  65.4888 25.7659  C 65.4888 25.7659  66.2665 26.5977  66.2665 26.5977  C 66.2665 26.5977  66.9578 25.5411  66.9578 25.5411  C 66.9578 25.5411  68.421 26.5135  68.421 26.5135  C 68.421 26.5135  69.095 26.5752  69.095 26.5752  C 69.095 26.5752  69.4349 27.2722  69.4349 27.2722  C 69.4349 27.2722  70.155 25.8221  70.155 25.8221  C 70.155 25.8221  70.7656 25.8446  70.7656 25.8446  C 70.7656 25.8446  70.7483 26.8225  70.7483 26.8225  C 70.7483 26.8225  70.0743 29.0592  70.0743 29.0592  C 70.0743 29.0592  69.8266 30.7849  69.8266 30.7849  C 69.8266 30.7849  69.2563 31.2796  69.2563 31.2796  C 69.2563 31.2796  69.0719 33.4892  69.0719 33.4892  C 69.0719 33.4892  69.8785 35.3504  69.8785 35.3504  C 69.8785 35.3504  69.6941 35.8509  69.6941 35.8509  C 69.6941 35.8509  69.9015 37.9992999999999  69.9015 37.9992999999999  C 69.9015 37.9992999999999  71.2726 40.5305  71.2726 40.5305  C 71.2726 40.5305  71.3705 42.9159  71.3705 42.9159  C 71.3705 42.9159  72.4419 44.6489  72.4419 44.6489  C 72.4419 44.6489  72.2345 48.0311  72.2345 48.0311  C 72.2345 48.0311  70.3048 48.2225  70.3048 48.2225  C 70.3048 48.2225  68.7781 48.1437  68.7781 48.1437  C 68.7781 48.1437  66.0707 47.4571  66.0707 47.4571  C 66.0707 47.4571  64.4001 46.4497  64.4001 46.4497  C 64.4001 46.4497  63.0176 45.3579999999999  63.0176 45.3579999999999  C 63.0176 45.3579999999999  62.3436 44.3451  62.3436 44.3451  C 62.3436 44.3451  61.3469 41.1043  61.3469 41.1043  C 61.3469 41.1043  60.7306 39.6248000000001  60.7306 39.6248000000001  C 60.7306 39.6248000000001  59.1176 37.943  59.1176 37.943  C 59.1176 37.943  58.7547 39.1861  58.7547 39.1861  C 58.7547 39.1861  58.53 41.3182  58.53 41.3182  C 58.53 41.3182  56.4332 44.3338  56.4332 44.3338  C 56.4332 44.3338  55.6612 45.9544  55.6612 45.9544  C 55.6612 45.9544  53.7256 47.1081  53.7256 47.1081  C 53.7256 47.1081  54.0079 49.3764  54.0079 49.3764  C 54.0079 49.3764  52.8788 50.0462  52.8788 50.0462  C 52.8788 50.0462  49.4974 48.3857  49.4974 48.3857  C 49.4974 48.3857  46.7207 49.4721  46.7207 49.4721  C 46.7207 49.4721  44.3473 49.8605  44.3473 49.8605  C 44.3473 49.8605  35.7778 50.2433  35.7778 50.2433  C 35.7778 50.2433  32.8975 51.0201  32.8975 51.0201  C 32.8975 51.0201  30.3802 51.1834  30.3802 51.1834  C 30.3802 51.1834  29.2395 52.7879  29.2395 52.7879  C 29.2395 52.7879  25.8695 54.691  25.8695 54.691  C 25.8695 54.691  24.0895 55.1977000000001  24.0895 55.1977000000001  C 24.0895 55.1977000000001  22.2864 54.8881  22.2864 54.8881  C 22.2864 54.8881  18.9511 51.8194999999999  18.9511 51.8194999999999  C 18.9511 51.8194999999999  18.0524 51.2735  18.0524 51.2735  C 18.0524 51.2735  16.6756 51.0595  16.6756 51.0595  C 16.6756 51.0595  15.3103 51.3072  15.3103 51.3072  C 15.3103 51.3072  14.8091 50.4121  14.8091 50.4121  C 14.8091 50.4121  14.6594 48.5377999999999  14.6594 48.5377999999999  C 14.6594 48.5377999999999  14.9993 47.2714  14.9993 47.2714  C 14.9993 47.2714  16.1629 45.6281  16.1629 45.6281  C 16.1629 45.6281  17.4072 44.7446  17.4072 44.7446  C 17.4072 44.7446  21.2035 43.5629  21.2035 43.5629  C 21.2035 43.5629  22.5341 42.4714  22.5341 42.4714  C 22.5341 42.4714  23.1506 41.29  23.1506 41.29  C 23.1506 41.29  23.283 39.5743  23.283 39.5743  C 23.283 39.5743  22.5802 37.1894  22.5802 37.1894  C 22.5802 37.1894  21.1285 36.4639  21.1285 36.4639  C 21.1285 36.4639  19.8669 37.0205999999999  19.8669 37.0205999999999  C 19.8669 37.0205999999999  18.7609 35.6203  18.7609 35.6203  C 18.7609 35.6203  16.4279 35.2942  16.4279 35.2942  C 16.4279 35.2942  11.1339 34.7881  11.1339 34.7881  C 11.1339 34.7881  9.20979999999997 34.8612000000001  9.20979999999997 34.8612000000001  C 9.20979999999997 34.8612000000001  7.09570000000002 34.6363  7.09570000000002 34.6363  C 7.09570000000002 34.6363  5.41930000000002 33.9727  5.41930000000002 33.9727  C 5.41930000000002 33.9727  4.33629999999999 33.1518  4.33629999999999 33.1518  C 4.33629999999999 33.1518  2.80399999999997 30.8467000000001  2.80399999999997 30.8467000000001  C 2.80399999999997 30.8467000000001  1.05849999999998 26.4853000000001  1.05849999999998 26.4853000000001  C 1.05849999999998 26.4853000000001  0.447900000000004 23.8271  0.447900000000004 23.8271  C 0.447900000000004 23.8271  0.482500000000016 22.1301999999999  0.482500000000016 22.1301999999999  C 0.482500000000016 22.1301999999999  0.781999999999982 20.0289  0.781999999999982 20.0289  C 0.781999999999982 20.0289  1.1737 18.7425  1.1737 18.7425  C 1.1737 18.7425  1.6979 18.1694  1.6979 18.1694  C 1.6979 18.1694  2.6542 18.0291  2.6542 18.0291  C 2.6542 18.0291  3.21879999999999 18.4335  3.21879999999999 18.4335  C 3.21879999999999 18.4335  4.10590000000002 18.1976  4.10590000000002 18.1976  C 4.10590000000002 18.1976  4.97579999999999 17.2427  4.97579999999999 17.2427  C 4.97579999999999 17.2427  5.61520000000002 17.3157  5.61520000000002 17.3157  C 5.61520000000002 17.3157  7.13600000000002 16.1138  7.13600000000002 16.1138  C 7.13600000000002 16.1138  7.59679999999997 16.4058  7.59679999999997 16.4058  C 7.59679999999997 16.4058  8.19009999999997 13.7045  8.19009999999997 13.7045  C 8.19009999999997 13.7045  9.37110000000001 11.6999  9.37110000000001 11.6999  C 9.37110000000001 11.6999  9.16370000000001 11.1329  9.16370000000001 11.1329  C 9.16370000000001 11.1329  8.47239999999999 11.335  8.47239999999999 11.335  C 8.47239999999999 11.335  8.46089999999998 9.98750000000001  8.46089999999998 9.98750000000001  C 8.46089999999998 9.98750000000001  9.93560000000002 9.23520000000002  9.93560000000002 9.23520000000002  C 9.93560000000002 9.23520000000002  9.3365 10.2009  9.3365 10.2009  C 9.3365 10.2009  9.6764 11.0093  9.6764 11.0093  C 9.6764 11.0093  10.2813 9.26889999999997  10.2813 9.26889999999997  C 10.2813 9.26889999999997  11.6926 8.58409999999998  11.6926 8.58409999999998  C 11.6926 8.58409999999998  13.4554 8.74689999999998  13.4554 8.74689999999998  C 13.4554 8.74689999999998  14.4981 8.0564  14.4981 8.0564  C 14.4981 8.0564  16.4106 8.6739  16.4106 8.6739  C 16.4106 8.6739  18.1791 7.18079999999998  18.1791 7.18079999999998  C 18.1791 7.18079999999998  18.9395 5.18270000000001  18.9395 5.18270000000001  C 18.9395 5.18270000000001  19.6653 4.90210000000002  19.6653 4.90210000000002  C 19.6653 4.90210000000002  20.3969 5.22210000000001  20.3969 5.22210000000001  C 20.3969 5.22210000000001  21.8544 7.60169999999999  21.8544 7.60169999999999  C 21.8544 7.60169999999999  22.4881 7.8768  22.4881 7.8768  C 22.4881 7.8768  23.4386 7.29860000000002  23.4386 7.29860000000002  C 23.4386 7.29860000000002  29.3029 7.1472  29.3029 7.1472  C 29.3029 7.1472  31.0714 5.77199999999999  31.0714 5.77199999999999  C 31.0714 5.77199999999999  31.5553 4.95830000000001  31.5553 4.95830000000001  C 31.5553 4.95830000000001  31.4171 3.20179999999999  31.4171 3.20179999999999  C 31.4171 3.20179999999999  32.8514 3.2747  32.8514 3.2747  C 32.8514 3.2747  32.045 2.01220000000001  32.045 2.01220000000001  C 32.045 2.01220000000001  32.0046 1.21539999999999  32.0046 1.21539999999999  C 32.0046 1.21539999999999  33.0761 1.50729999999999  33.0761 1.50729999999999  C 33.0761 1.50729999999999  33.7674 0.817200000000014  33.7674 0.817200000000014  C 33.7674 0.817200000000014  34.4529 2.45549999999997  34.4529 2.45549999999997  C 34.4529 2.45549999999997  34.7294 1.75409999999999  34.7294 1.75409999999999  C 34.7294 1.75409999999999  35.4322 2.20859999999999  35.4322 2.20859999999999  C 35.4322 2.20859999999999  34.9944 3.42070000000001  34.9944 3.42070000000001  C 34.9944 3.42070000000001  35.2882 3.95370000000003  35.2882 3.95370000000003  C 35.2882 3.95370000000003  37.3193 3.44310000000002  37.3193 3.44310000000002  C 37.3193 3.44310000000002  37.4058 2.42739999999998  37.4058 2.42739999999998  C 37.4058 2.42739999999998  38.5061 1.47359999999998  38.5061 1.47359999999998  C 38.5061 1.47359999999998  40.073 3.06709999999998  40.073 3.06709999999998  C 40.073 3.06709999999998  41.058 2.5172  41.058 2.5172  C 41.058 2.5172  42.2793 3.34210000000002  42.2793 3.34210000000002  C 42.2793 3.34210000000002  42.3599 1.58019999999999  42.3599 1.58019999999999  C 42.3599 1.58019999999999  42.9129 1.3109  42.9129 1.3109  C 42.9129 1.3109  44.451 1.70929999999998  44.451 1.70929999999998  C 44.451 1.70929999999998  45.0674 0.474899999999991  45.0674 0.474899999999991  C 45.0674 0.474899999999991  46.2598 0.834000000000003  46.2598 0.834000000000003  C 46.2598 0.834000000000003  46.4327 2.72480000000002  46.4327 2.72480000000002  C 46.4327 2.72480000000002  47.7058 3.77409999999998  47.7058 3.77409999999998  C 47.7058 3.77409999999998  48.23 3.75170000000003  48.23 3.75170000000003  C 48.23 3.75170000000003  48.5986 2.27030000000002  48.5986 2.27030000000002  C 48.5986 2.27030000000002  49.3821 2.1918  49.3821 2.1918  C 49.3821 2.1918  49.699 3.75170000000003  49.699 3.75170000000003  C 49.699 3.75170000000003  50.154 4.2568  50.154 4.2568  C 50.154 4.2568  52.4122 5.03680000000003  52.4122 5.03680000000003  C 52.4122 5.03680000000003  53.668 2.11320000000001  53.668 2.11320000000001  C 53.668 2.11320000000001  55.0736 2.93799999999999  55.0736 2.93799999999999  C 55.0736 2.93799999999999  56.4274 2.59019999999998  56.4274 2.59019999999998  C 56.4274 2.59019999999998  57.2224 1.2491  57.2224 1.2491  C 57.2224 1.2491  57.7466 0.974300000000028  57.7466 0.974300000000028  Z M 19.6538 93.5948  C 19.6538 93.5948  18.4787 92.6521  18.4787 92.6521  C 18.4787 92.6521  18.2713 88.7732999999999  18.2713 88.7732999999999  C 18.2713 88.7732999999999  18.7725 87.3453  18.7725 87.3453  C 18.7725 87.3453  21.7253 86.053  21.7253 86.053  C 21.7253 86.053  22.5318 85.9176  22.5318 85.9176  C 22.5318 85.9176  23.2979 86.3465  23.2979 86.3465  C 23.2979 86.3465  23.7531 87.3058  23.7531 87.3058  C 23.7531 87.3058  23.7185 88.9764  23.7185 88.9764  C 23.7185 88.9764  22.9062 92.1834  22.9062 92.1834  C 22.9062 92.1834  22.4742 92.6746000000001  22.4742 92.6746000000001  C 22.4742 92.6746000000001  20.4085 92.1834  20.4085 92.1834  C 20.4085 92.1834  19.9361 91.5287  19.9361 91.5287  C 19.9361 91.5287  19.36 92.1947  19.36 92.1947  C 19.36 92.1947  19.6538 93.5948  19.6538 93.5948  Z M 29.3179 104.3026  C 29.3179 104.3026  27.4422 103.5456  27.4422 103.5456  C 27.4422 103.5456  27.4307 101.5513  27.4307 101.5513  C 27.4307 101.5513  29.6001 102.314  29.6001 102.314  C 29.6001 102.314  29.3179 104.3026  29.3179 104.3026  Z " fill-rule="nonzero" fill="#ffffff" stroke="none" transform="matrix(1 0 0 1 483 604 )" />
    <path d="M 57.7466 0.974300000000028  C 57.7466 0.974300000000028  58.7662 1.42860000000002  58.7662 1.42860000000002  C 58.7662 1.42860000000002  59.6821 2.73050000000001  59.6821 2.73050000000001  C 59.6821 2.73050000000001  61.3239 1.49610000000001  61.3239 1.49610000000001  C 61.3239 1.49610000000001  63.0117 2.7921  63.0117 2.7921  C 63.0117 2.7921  64.3598 2.7473  64.3598 2.7473  C 64.3598 2.7473  65.5292 2.08519999999999  65.5292 2.08519999999999  C 65.5292 2.08519999999999  66.0303 3.28030000000001  66.0303 3.28030000000001  C 66.0303 3.28030000000001  66.1456 5.09289999999999  66.1456 5.09289999999999  C 66.1456 5.09289999999999  65.4024 6.24340000000001  65.4024 6.24340000000001  C 65.4024 6.24340000000001  66.3299 7.79270000000002  66.3299 7.79270000000002  C 66.3299 7.79270000000002  66.3241 8.76369999999997  66.3241 8.76369999999997  C 66.3241 8.76369999999997  65.1778 10.0774  65.1778 10.0774  C 65.1778 10.0774  65.3276 11.0711  65.3276 11.0711  C 65.3276 11.0711  66.1283 11.4641  66.1283 11.4641  C 66.1283 11.4641  66.3702 12.3849  66.3702 12.3849  C 66.3702 12.3849  65.4773 16.1418  65.4773 16.1418  C 65.4773 16.1418  65.0223 19.5402  65.0223 19.5402  C 65.0223 19.5402  65.4716 19.6525  65.4716 19.6525  C 65.4716 19.6525  65.4946 22.2763  65.4946 22.2763  C 65.4946 22.2763  64.9243 23.9002  64.9243 23.9002  C 64.9243 23.9002  65.4888 25.7659  65.4888 25.7659  C 65.4888 25.7659  66.2665 26.5977  66.2665 26.5977  C 66.2665 26.5977  66.9578 25.5411  66.9578 25.5411  C 66.9578 25.5411  68.421 26.5135  68.421 26.5135  C 68.421 26.5135  69.095 26.5752  69.095 26.5752  C 69.095 26.5752  69.4349 27.2722  69.4349 27.2722  C 69.4349 27.2722  70.155 25.8221  70.155 25.8221  C 70.155 25.8221  70.7656 25.8446  70.7656 25.8446  C 70.7656 25.8446  70.7483 26.8225  70.7483 26.8225  C 70.7483 26.8225  70.0743 29.0592  70.0743 29.0592  C 70.0743 29.0592  69.8266 30.7849  69.8266 30.7849  C 69.8266 30.7849  69.2563 31.2796  69.2563 31.2796  C 69.2563 31.2796  69.0719 33.4892  69.0719 33.4892  C 69.0719 33.4892  69.8785 35.3504  69.8785 35.3504  C 69.8785 35.3504  69.6941 35.8509  69.6941 35.8509  C 69.6941 35.8509  69.9015 37.9992999999999  69.9015 37.9992999999999  C 69.9015 37.9992999999999  71.2726 40.5305  71.2726 40.5305  C 71.2726 40.5305  71.3705 42.9159  71.3705 42.9159  C 71.3705 42.9159  72.4419 44.6489  72.4419 44.6489  C 72.4419 44.6489  72.2345 48.0311  72.2345 48.0311  C 72.2345 48.0311  70.3048 48.2225  70.3048 48.2225  C 70.3048 48.2225  68.7781 48.1437  68.7781 48.1437  C 68.7781 48.1437  66.0707 47.4571  66.0707 47.4571  C 66.0707 47.4571  64.4001 46.4497  64.4001 46.4497  C 64.4001 46.4497  63.0176 45.3579999999999  63.0176 45.3579999999999  C 63.0176 45.3579999999999  62.3436 44.3451  62.3436 44.3451  C 62.3436 44.3451  61.3469 41.1043  61.3469 41.1043  C 61.3469 41.1043  60.7306 39.6248000000001  60.7306 39.6248000000001  C 60.7306 39.6248000000001  59.1176 37.943  59.1176 37.943  C 59.1176 37.943  58.7547 39.1861  58.7547 39.1861  C 58.7547 39.1861  58.53 41.3182  58.53 41.3182  C 58.53 41.3182  56.4332 44.3338  56.4332 44.3338  C 56.4332 44.3338  55.6612 45.9544  55.6612 45.9544  C 55.6612 45.9544  53.7256 47.1081  53.7256 47.1081  C 53.7256 47.1081  54.0079 49.3764  54.0079 49.3764  C 54.0079 49.3764  52.8788 50.0462  52.8788 50.0462  C 52.8788 50.0462  49.4974 48.3857  49.4974 48.3857  C 49.4974 48.3857  46.7207 49.4721  46.7207 49.4721  C 46.7207 49.4721  44.3473 49.8605  44.3473 49.8605  C 44.3473 49.8605  35.7778 50.2433  35.7778 50.2433  C 35.7778 50.2433  32.8975 51.0201  32.8975 51.0201  C 32.8975 51.0201  30.3802 51.1834  30.3802 51.1834  C 30.3802 51.1834  29.2395 52.7879  29.2395 52.7879  C 29.2395 52.7879  25.8695 54.691  25.8695 54.691  C 25.8695 54.691  24.0895 55.1977000000001  24.0895 55.1977000000001  C 24.0895 55.1977000000001  22.2864 54.8881  22.2864 54.8881  C 22.2864 54.8881  18.9511 51.8194999999999  18.9511 51.8194999999999  C 18.9511 51.8194999999999  18.0524 51.2735  18.0524 51.2735  C 18.0524 51.2735  16.6756 51.0595  16.6756 51.0595  C 16.6756 51.0595  15.3103 51.3072  15.3103 51.3072  C 15.3103 51.3072  14.8091 50.4121  14.8091 50.4121  C 14.8091 50.4121  14.6594 48.5377999999999  14.6594 48.5377999999999  C 14.6594 48.5377999999999  14.9993 47.2714  14.9993 47.2714  C 14.9993 47.2714  16.1629 45.6281  16.1629 45.6281  C 16.1629 45.6281  17.4072 44.7446  17.4072 44.7446  C 17.4072 44.7446  21.2035 43.5629  21.2035 43.5629  C 21.2035 43.5629  22.5341 42.4714  22.5341 42.4714  C 22.5341 42.4714  23.1506 41.29  23.1506 41.29  C 23.1506 41.29  23.283 39.5743  23.283 39.5743  C 23.283 39.5743  22.5802 37.1894  22.5802 37.1894  C 22.5802 37.1894  21.1285 36.4639  21.1285 36.4639  C 21.1285 36.4639  19.8669 37.0205999999999  19.8669 37.0205999999999  C 19.8669 37.0205999999999  18.7609 35.6203  18.7609 35.6203  C 18.7609 35.6203  16.4279 35.2942  16.4279 35.2942  C 16.4279 35.2942  11.1339 34.7881  11.1339 34.7881  C 11.1339 34.7881  9.20979999999997 34.8612000000001  9.20979999999997 34.8612000000001  C 9.20979999999997 34.8612000000001  7.09570000000002 34.6363  7.09570000000002 34.6363  C 7.09570000000002 34.6363  5.41930000000002 33.9727  5.41930000000002 33.9727  C 5.41930000000002 33.9727  4.33629999999999 33.1518  4.33629999999999 33.1518  C 4.33629999999999 33.1518  2.80399999999997 30.8467000000001  2.80399999999997 30.8467000000001  C 2.80399999999997 30.8467000000001  1.05849999999998 26.4853000000001  1.05849999999998 26.4853000000001  C 1.05849999999998 26.4853000000001  0.447900000000004 23.8271  0.447900000000004 23.8271  C 0.447900000000004 23.8271  0.482500000000016 22.1301999999999  0.482500000000016 22.1301999999999  C 0.482500000000016 22.1301999999999  0.781999999999982 20.0289  0.781999999999982 20.0289  C 0.781999999999982 20.0289  1.1737 18.7425  1.1737 18.7425  C 1.1737 18.7425  1.6979 18.1694  1.6979 18.1694  C 1.6979 18.1694  2.6542 18.0291  2.6542 18.0291  C 2.6542 18.0291  3.21879999999999 18.4335  3.21879999999999 18.4335  C 3.21879999999999 18.4335  4.10590000000002 18.1976  4.10590000000002 18.1976  C 4.10590000000002 18.1976  4.97579999999999 17.2427  4.97579999999999 17.2427  C 4.97579999999999 17.2427  5.61520000000002 17.3157  5.61520000000002 17.3157  C 5.61520000000002 17.3157  7.13600000000002 16.1138  7.13600000000002 16.1138  C 7.13600000000002 16.1138  7.59679999999997 16.4058  7.59679999999997 16.4058  C 7.59679999999997 16.4058  8.19009999999997 13.7045  8.19009999999997 13.7045  C 8.19009999999997 13.7045  9.37110000000001 11.6999  9.37110000000001 11.6999  C 9.37110000000001 11.6999  9.16370000000001 11.1329  9.16370000000001 11.1329  C 9.16370000000001 11.1329  8.47239999999999 11.335  8.47239999999999 11.335  C 8.47239999999999 11.335  8.46089999999998 9.98750000000001  8.46089999999998 9.98750000000001  C 8.46089999999998 9.98750000000001  9.93560000000002 9.23520000000002  9.93560000000002 9.23520000000002  C 9.93560000000002 9.23520000000002  9.3365 10.2009  9.3365 10.2009  C 9.3365 10.2009  9.6764 11.0093  9.6764 11.0093  C 9.6764 11.0093  10.2813 9.26889999999997  10.2813 9.26889999999997  C 10.2813 9.26889999999997  11.6926 8.58409999999998  11.6926 8.58409999999998  C 11.6926 8.58409999999998  13.4554 8.74689999999998  13.4554 8.74689999999998  C 13.4554 8.74689999999998  14.4981 8.0564  14.4981 8.0564  C 14.4981 8.0564  16.4106 8.6739  16.4106 8.6739  C 16.4106 8.6739  18.1791 7.18079999999998  18.1791 7.18079999999998  C 18.1791 7.18079999999998  18.9395 5.18270000000001  18.9395 5.18270000000001  C 18.9395 5.18270000000001  19.6653 4.90210000000002  19.6653 4.90210000000002  C 19.6653 4.90210000000002  20.3969 5.22210000000001  20.3969 5.22210000000001  C 20.3969 5.22210000000001  21.8544 7.60169999999999  21.8544 7.60169999999999  C 21.8544 7.60169999999999  22.4881 7.8768  22.4881 7.8768  C 22.4881 7.8768  23.4386 7.29860000000002  23.4386 7.29860000000002  C 23.4386 7.29860000000002  29.3029 7.1472  29.3029 7.1472  C 29.3029 7.1472  31.0714 5.77199999999999  31.0714 5.77199999999999  C 31.0714 5.77199999999999  31.5553 4.95830000000001  31.5553 4.95830000000001  C 31.5553 4.95830000000001  31.4171 3.20179999999999  31.4171 3.20179999999999  C 31.4171 3.20179999999999  32.8514 3.2747  32.8514 3.2747  C 32.8514 3.2747  32.045 2.01220000000001  32.045 2.01220000000001  C 32.045 2.01220000000001  32.0046 1.21539999999999  32.0046 1.21539999999999  C 32.0046 1.21539999999999  33.0761 1.50729999999999  33.0761 1.50729999999999  C 33.0761 1.50729999999999  33.7674 0.817200000000014  33.7674 0.817200000000014  C 33.7674 0.817200000000014  34.4529 2.45549999999997  34.4529 2.45549999999997  C 34.4529 2.45549999999997  34.7294 1.75409999999999  34.7294 1.75409999999999  C 34.7294 1.75409999999999  35.4322 2.20859999999999  35.4322 2.20859999999999  C 35.4322 2.20859999999999  34.9944 3.42070000000001  34.9944 3.42070000000001  C 34.9944 3.42070000000001  35.2882 3.95370000000003  35.2882 3.95370000000003  C 35.2882 3.95370000000003  37.3193 3.44310000000002  37.3193 3.44310000000002  C 37.3193 3.44310000000002  37.4058 2.42739999999998  37.4058 2.42739999999998  C 37.4058 2.42739999999998  38.5061 1.47359999999998  38.5061 1.47359999999998  C 38.5061 1.47359999999998  40.073 3.06709999999998  40.073 3.06709999999998  C 40.073 3.06709999999998  41.058 2.5172  41.058 2.5172  C 41.058 2.5172  42.2793 3.34210000000002  42.2793 3.34210000000002  C 42.2793 3.34210000000002  42.3599 1.58019999999999  42.3599 1.58019999999999  C 42.3599 1.58019999999999  42.9129 1.3109  42.9129 1.3109  C 42.9129 1.3109  44.451 1.70929999999998  44.451 1.70929999999998  C 44.451 1.70929999999998  45.0674 0.474899999999991  45.0674 0.474899999999991  C 45.0674 0.474899999999991  46.2598 0.834000000000003  46.2598 0.834000000000003  C 46.2598 0.834000000000003  46.4327 2.72480000000002  46.4327 2.72480000000002  C 46.4327 2.72480000000002  47.7058 3.77409999999998  47.7058 3.77409999999998  C 47.7058 3.77409999999998  48.23 3.75170000000003  48.23 3.75170000000003  C 48.23 3.75170000000003  48.5986 2.27030000000002  48.5986 2.27030000000002  C 48.5986 2.27030000000002  49.3821 2.1918  49.3821 2.1918  C 49.3821 2.1918  49.699 3.75170000000003  49.699 3.75170000000003  C 49.699 3.75170000000003  50.154 4.2568  50.154 4.2568  C 50.154 4.2568  52.4122 5.03680000000003  52.4122 5.03680000000003  C 52.4122 5.03680000000003  53.668 2.11320000000001  53.668 2.11320000000001  C 53.668 2.11320000000001  55.0736 2.93799999999999  55.0736 2.93799999999999  C 55.0736 2.93799999999999  56.4274 2.59019999999998  56.4274 2.59019999999998  C 56.4274 2.59019999999998  57.2224 1.2491  57.2224 1.2491  C 57.2224 1.2491  57.7466 0.974300000000028  57.7466 0.974300000000028  Z " stroke-width="2" stroke="#666666" fill="none" transform="matrix(1 0 0 1 483 604 )" mask="url(#clip137)" />
    <path d="M 19.6538 93.5948  C 19.6538 93.5948  18.4787 92.6521  18.4787 92.6521  C 18.4787 92.6521  18.2713 88.7732999999999  18.2713 88.7732999999999  C 18.2713 88.7732999999999  18.7725 87.3453  18.7725 87.3453  C 18.7725 87.3453  21.7253 86.053  21.7253 86.053  C 21.7253 86.053  22.5318 85.9176  22.5318 85.9176  C 22.5318 85.9176  23.2979 86.3465  23.2979 86.3465  C 23.2979 86.3465  23.7531 87.3058  23.7531 87.3058  C 23.7531 87.3058  23.7185 88.9764  23.7185 88.9764  C 23.7185 88.9764  22.9062 92.1834  22.9062 92.1834  C 22.9062 92.1834  22.4742 92.6746000000001  22.4742 92.6746000000001  C 22.4742 92.6746000000001  20.4085 92.1834  20.4085 92.1834  C 20.4085 92.1834  19.9361 91.5287  19.9361 91.5287  C 19.9361 91.5287  19.36 92.1947  19.36 92.1947  C 19.36 92.1947  19.6538 93.5948  19.6538 93.5948  Z " stroke-width="2" stroke="#666666" fill="none" transform="matrix(1 0 0 1 483 604 )" mask="url(#clip137)" />
    <path d="M 29.3179 104.3026  C 29.3179 104.3026  27.4422 103.5456  27.4422 103.5456  C 27.4422 103.5456  27.4307 101.5513  27.4307 101.5513  C 27.4307 101.5513  29.6001 102.314  29.6001 102.314  C 29.6001 102.314  29.3179 104.3026  29.3179 104.3026  Z " stroke-width="2" stroke="#666666" fill="none" transform="matrix(1 0 0 1 483 604 )" mask="url(#clip137)" />
  </g>
</svg>