<?xml version="1.0" encoding="utf-8"?>
<svg version="1.1" xmlns:xlink="http://www.w3.org/1999/xlink" width="87px" height="91px" xmlns="http://www.w3.org/2000/svg">
  <defs>
    <mask fill="white" id="clip138">
      <path d="M 47.3807 1.01960000000003  C 47.3807 1.01960000000003  48.3542 0.72890000000001  48.3542 0.72890000000001  C 48.3542 0.72890000000001  49.0398 2.35640000000001  49.0398 2.35640000000001  C 49.0398 2.35640000000001  49.6849 2.28919999999999  49.6849 2.28919999999999  C 49.6849 2.28919999999999  50.4741 3.27359999999999  50.4741 3.27359999999999  C 50.4741 3.27359999999999  51.3325 3.77699999999999  51.3325 3.77699999999999  C 51.3325 3.77699999999999  51.177 5.13069999999999  51.177 5.13069999999999  C 51.177 5.13069999999999  51.4534 7.4468  51.4534 7.4468  C 51.4534 7.4468  51.9834 7.58670000000001  51.9834 7.58670000000001  C 51.9834 7.58670000000001  52.4904 9.09179999999998  52.4904 9.09179999999998  C 52.4904 9.09179999999998  53.487 8.97989999999999  53.487 8.97989999999999  C 53.487 8.97989999999999  54.2186 9.88080000000002  54.2186 9.88080000000002  C 54.2186 9.88080000000002  55.4167 10.6195  55.4167 10.6195  C 55.4167 10.6195  56.7417 8.75049999999999  56.7417 8.75049999999999  C 56.7417 8.75049999999999  57.2314 9.38279999999997  57.2314 9.38279999999997  C 57.2314 9.38279999999997  57.6634 8.77280000000002  57.6634 8.77280000000002  C 57.6634 8.77280000000002  58.9768 9.7242  58.9768 9.7242  C 58.9768 9.7242  58.8559 11.694  58.8559 11.694  C 58.8559 11.694  59.5586 12.2033  59.5586 12.2033  C 59.5586 12.2033  59.7661 14.0952  59.7661 14.0952  C 59.7661 14.0952  60.826 15.058  60.826 15.058  C 60.826 15.058  61.356 14.9572  61.356 14.9572  C 61.356 14.9572  62.341 15.6962  62.341 15.6962  C 62.341 15.6962  62.2777 17.3477  62.2777 17.3477  C 62.2777 17.3477  62.03 17.0006  62.03 17.0006  C 62.03 17.0006  60.4804 18.0028  60.4804 18.0028  C 60.4804 18.0028  60.296 18.4843  60.296 18.4843  C 60.296 18.4843  59.1843 18.5348  59.1843 18.5348  C 59.1843 18.5348  58.1819 19.8115  58.1819 19.8115  C 58.1819 19.8115  57.0413 20.209  57.0413 20.209  C 57.0413 20.209  57.168 21.0098  57.168 21.0098  C 57.168 21.0098  55.7105 21.7323  55.7105 21.7323  C 55.7105 21.7323  55.0999 23.9671  55.0999 23.9671  C 55.0999 23.9671  55.9928 24.9474  55.9928 24.9474  C 55.9928 24.9474  56.0447 26.5665  56.0447 26.5665  C 56.0447 26.5665  57.4618 27.0764  57.4618 27.0764  C 57.4618 27.0764  56.8223 28.7516  56.8223 28.7516  C 56.8223 28.7516  56.1657 28.6507  56.1657 28.6507  C 56.1657 28.6507  56.4019 30.0797  56.4019 30.0797  C 56.4019 30.0797  55.9928 31.2622  55.9928 31.2622  C 55.9928 31.2622  56.4537 32.086  56.4537 32.086  C 56.4537 32.086  57.7556 32.8483  57.7556 32.8483  C 57.7556 32.8483  56.1887 35.3483  56.1887 35.3483  C 56.1887 35.3483  56.638 36.5649  56.638 36.5649  C 56.638 36.5649  55.9122 38.7964  55.9122 38.7964  C 55.9122 38.7964  56.6553 40.2937  56.6553 40.2937  C 56.6553 40.2937  57.4215 41.0507  57.4215 41.0507  C 57.4215 41.0507  58.8559 41.1517  58.8559 41.1517  C 58.8559 41.1517  59.5183 41.9985  59.5183 41.9985  C 59.5183 41.9985  59.5471 43.5017  59.5471 43.5017  C 59.5471 43.5017  60.9528 44.3431  60.9528 44.3431  C 60.9528 44.3431  60.6416 46.4539  60.6416 46.4539  C 60.6416 46.4539  61.0046 47.099  61.0046 47.099  C 61.0046 47.099  63.1015 48.2772  63.1015 48.2772  C 63.1015 48.2772  65.2674 47.6881  65.2674 47.6881  C 65.2674 47.6881  66.6442 46.8634  66.6442 46.8634  C 66.6442 46.8634  68.309 47.4861  68.309 47.4861  C 68.309 47.4861  70.6364 46.4875  70.6364 46.4875  C 70.6364 46.4875  71.7309 47.6769  71.7309 47.6769  C 71.7309 47.6769  72.572 47.9237  72.572 47.9237  C 72.572 47.9237  73.6492 47.5871  73.6492 47.5871  C 73.6492 47.5871  75.7057 48.6363  75.7057 48.6363  C 75.7057 48.6363  76.6044 50.5609  76.6044 50.5609  C 76.6044 50.5609  76.1147 53.2434  76.1147 53.2434  C 76.1147 53.2434  76.4546 54.1921  76.4546 54.1921  C 76.4546 54.1921  79.9974 58.5932  79.9974 58.5932  C 79.9974 58.5932  80.222 61.4683  80.222 61.4683  C 80.222 61.4683  81.0631 62.2432  81.0631 62.2432  C 81.0631 62.2432  79.4559 63.5463  79.4559 63.5463  C 79.4559 63.5463  79.4674 66.9109  79.4674 66.9109  C 79.4674 66.9109  80.2048 67.8211  80.2048 67.8211  C 80.2048 67.8211  81.0343 67.8828  81.0343 67.8828  C 81.0343 67.8828  81.4549 66.9783  81.4549 66.9783  C 81.4549 66.9783  82.3132 66.5513999999999  82.3132 66.5513999999999  C 82.3132 66.5513999999999  82.9757 67.2592  82.9757 67.2592  C 82.9757 67.2592  85.3893 68.6976  85.3893 68.6976  C 85.3893 68.6976  86.2822 70.3664  86.2822 70.3664  C 86.2822 70.3664  85.879 71.8049  85.879 71.8049  C 85.879 71.8049  84.0817 74.1036  84.0817 74.1036  C 84.0817 74.1036  83.0851 76.1834  83.0851 76.1834  C 83.0851 76.1834  81.7659 77.9261  81.7659 77.9261  C 81.7659 77.9261  81.4836 79.5454  81.4836 79.5454  C 81.4836 79.5454  80.4467 81.3111  80.4467 81.3111  C 80.4467 81.3111  78.7301 82.4751  78.7301 82.4751  C 78.7301 82.4751  78.3787 84.1567  78.3787 84.1567  C 78.3787 84.1567  77.3705 84.9499  77.3705 84.9499  C 77.3705 84.9499  75.4004 85.653  75.4004 85.653  C 75.4004 85.653  71.1836 86.3449000000001  71.1836 86.3449000000001  C 71.1836 86.3449000000001  69.2135 86.1817  69.2135 86.1817  C 69.2135 86.1817  66.7191 85.5293  66.7191 85.5293  C 66.7191 85.5293  65.4345 85.8837  65.4345 85.8837  C 65.4345 85.8837  62.3871 87.3687  62.3871 87.3687  C 62.3871 87.3687  61.4654 88.3871  61.4654 88.3871  C 61.4654 88.3871  58.5045 90.5927  58.5045 90.5927  C 58.5045 90.5927  57.2659 90.6884  57.2659 90.6884  C 57.2659 90.6884  56.8684 90.0637  56.8684 90.0637  C 56.8684 90.0637  57.0297 89.1072  57.0297 89.1072  C 57.0297 89.1072  58.8444 86.4011  58.8444 86.4011  C 58.8444 86.4011  60.031 83.4931  60.031 83.4931  C 60.031 83.4931  60.1751 81.8959  60.1751 81.8959  C 60.1751 81.8959  59.7661 80.237  59.7661 80.237  C 59.7661 80.237  58.9192 79.3149  58.9192 79.3149  C 58.9192 79.3149  58.0263 79.1968000000001  58.0263 79.1968000000001  C 58.0263 79.1968000000001  56.638 79.821  56.638 79.821  C 56.638 79.821  55.82 80.7544  55.82 80.7544  C 55.82 80.7544  55.3937 81.9071  55.3937 81.9071  C 55.3937 81.9071  54.691 82.5089  54.691 82.5089  C 54.691 82.5089  52.9801 83.1894  52.9801 83.1894  C 52.9801 83.1894  52.5422 83.8081  52.5422 83.8081  C 52.5422 83.8081  52.9166 84.5561  52.9166 84.5561  C 52.9166 84.5561  54.7197 85.428  54.7197 85.428  C 54.7197 85.428  55.8776 86.4293  55.8776 86.4293  C 55.8776 86.4293  55.9641 87.3237  55.9641 87.3237  C 55.9641 87.3237  55.1864 88.1169  55.1864 88.1169  C 55.1864 88.1169  53.4063 88.8541  53.4063 88.8541  C 53.4063 88.8541  51.2115 89.1803  51.2115 89.1803  C 51.2115 89.1803  49.2932 88.8484  49.2932 88.8484  C 49.2932 88.8484  45.641 87.0537  45.641 87.0537  C 45.641 87.0537  44.8057 85.6361000000001  44.8057 85.6361000000001  C 44.8057 85.6361000000001  42.4174 85.0454999999999  42.4174 85.0454999999999  C 42.4174 85.0454999999999  40.9253 85.0792  40.9253 85.0792  C 40.9253 85.0792  38.8516 85.4448  38.8516 85.4448  C 38.8516 85.4448  37.9817 86.2156  37.9817 86.2156  C 37.9817 86.2156  36.7777 86.0524  36.7777 86.0524  C 36.7777 86.0524  36.0057 83.3582  36.0057 83.3582  C 36.0057 83.3582  35.1244 82.1715  35.1244 82.1715  C 35.1244 82.1715  34.7211 81.0186  34.7211 81.0186  C 34.7211 81.0186  34.0587 81.2661000000001  34.0587 81.2661000000001  C 34.0587 81.2661000000001  32.7798 80.6588  32.7798 80.6588  C 32.7798 80.6588  32.1001 79.8884  32.1001 79.8884  C 32.1001 79.8884  32.221 79.2586  32.221 79.2586  C 32.221 79.2586  31.5644 78.6627  31.5644 78.6627  C 31.5644 78.6627  32.1116 78.241  32.1116 78.241  C 32.1116 78.241  31.9158 77.2853  31.9158 77.2853  C 31.9158 77.2853  31.1496 76.723  31.1496 76.723  C 31.1496 76.723  31.1611 75.8517000000001  31.1611 75.8517000000001  C 31.1611 75.8517000000001  29.5884 74.3452  29.5884 74.3452  C 29.5884 74.3452  28.6552 75.0198  28.6552 75.0198  C 28.6552 75.0198  28.638 75.6212  28.638 75.6212  C 28.638 75.6212  27.7796 75.4469  27.7796 75.4469  C 27.7796 75.4469  27.3303 74.5139  27.3303 74.5139  C 27.3303 74.5139  25.7115 74.0362  25.7115 74.0362  C 25.7115 74.0362  24.9684 74.4408  24.9684 74.4408  C 24.9684 74.4408  24.1389 74.2835  24.1389 74.2835  C 24.1389 74.2835  23.0847 75.3795  23.0847 75.3795  C 23.0847 75.3795  20.936 75.8630000000001  20.936 75.8630000000001  C 20.936 75.8630000000001  20.3541 76.5599999999999  20.3541 76.5599999999999  C 20.3541 76.5599999999999  19.4382 76.9029  19.4382 76.9029  C 19.4382 76.9029  18.6778 77.7237  18.6778 77.7237  C 18.6778 77.7237  16.8344 78.6852  16.8344 78.6852  C 16.8344 78.6852  15.8838 78.7357  15.8838 78.7357  C 15.8838 78.7357  14.7548 78.3253  14.7548 78.3253  C 14.7548 78.3253  13.9829 78.955  13.9829 78.955  C 13.9829 78.955  11.3675 79.3823  11.3675 79.3823  C 11.3675 79.3823  10.0772 79.8265  10.0772 79.8265  C 10.0772 79.8265  8.65429999999998 78.106  8.65429999999998 78.106  C 8.65429999999998 78.106  7.09320000000002 78.5614  7.09320000000002 78.5614  C 7.09320000000002 78.5614  5.84309999999999 80.9343  5.84309999999999 80.9343  C 5.84309999999999 80.9343  5.411 80.5126  5.411 80.5126  C 5.411 80.5126  4.71980000000002 80.8387  4.71980000000002 80.8387  C 4.71980000000002 80.8387  2.89370000000002 80.1583000000001  2.89370000000002 80.1583000000001  C 2.89370000000002 80.1583000000001  1.2346 80.0177  1.2346 80.0177  C 1.2346 80.0177  2.09870000000001 79.3036  2.09870000000001 79.3036  C 2.09870000000001 79.3036  2.3349 78.2298  2.3349 78.2298  C 2.3349 78.2298  1.5111 76.8579  1.5111 76.8579  C 1.5111 76.8579  1.25189999999998 74.6039  1.25189999999998 74.6039  C 1.25189999999998 74.6039  0.86020000000002 73.9912  0.86020000000002 73.9912  C 0.86020000000002 73.9912  2.7208 73.1144  2.7208 73.1144  C 2.7208 73.1144  2.13900000000001 72.1308  2.13900000000001 72.1308  C 2.13900000000001 72.1308  3.41210000000001 71.0069  3.41210000000001 71.0069  C 3.41210000000001 71.0069  3.7405 70.0966  3.7405 70.0966  C 3.7405 70.0966  5.3707 68.1244  5.3707 68.1244  C 5.3707 68.1244  5.40530000000001 67.5739  5.40530000000001 67.5739  C 5.40530000000001 67.5739  6.59199999999998 67.0289  6.59199999999998 67.0289  C 6.59199999999998 67.0289  6.25779999999997 65.3043  6.25779999999997 65.3043  C 6.25779999999997 65.3043  6.2867 63.535  6.2867 63.535  C 6.2867 63.535  6.82819999999998 61.8052  6.82819999999998 61.8052  C 6.82819999999998 61.8052  7.36970000000002 61.0189  7.36970000000002 61.0189  C 7.36970000000002 61.0189  6.6841 59.3681  6.6841 59.3681  C 6.6841 59.3681  6.63229999999999 57.8409  6.63229999999999 57.8409  C 6.63229999999999 57.8409  7.67500000000001 54.7309  7.67500000000001 54.7309  C 7.67500000000001 54.7309  7.43299999999999 53.0807  7.43299999999999 53.0807  C 7.43299999999999 53.0807  6.37880000000001 51.3578  6.37880000000001 51.3578  C 6.37880000000001 51.3578  5.50900000000001 50.5272  5.50900000000001 50.5272  C 5.50900000000001 50.5272  6.0908 49.1244  6.0908 49.1244  C 6.0908 49.1244  6.7706 48.2267  6.7706 48.2267  C 6.7706 48.2267  6.37310000000002 47.5535  6.37310000000002 47.5535  C 6.37310000000002 47.5535  6.67840000000001 45.1285  6.67840000000001 45.1285  C 6.67840000000001 45.1285  7.25450000000001 46.3417  7.25450000000001 46.3417  C 7.25450000000001 46.3417  8.51029999999997 44.4104  8.51029999999997 44.4104  C 8.51029999999997 44.4104  7.73259999999999 43.0642  7.73259999999999 43.0642  C 7.73259999999999 43.0642  8.32600000000002 42.2958  8.32600000000002 42.2958  C 8.32600000000002 42.2958  7.94569999999999 41.7686  7.94569999999999 41.7686  C 7.94569999999999 41.7686  8.71190000000001 41.3144  8.71190000000001 41.3144  C 8.71190000000001 41.3144  8.2971 40.7255  8.2971 40.7255  C 8.2971 40.7255  10.0138 39.1497  10.0138 39.1497  C 10.0138 39.1497  10.0138 38.3703  10.0138 38.3703  C 10.0138 38.3703  11.0449 37.7479  11.0449 37.7479  C 11.0449 37.7479  11.7535 35.5502  11.7535 35.5502  C 11.7535 35.5502  12.6003 35.3819  12.6003 35.3819  C 12.6003 35.3819  12.2835 34.513  12.2835 34.513  C 12.2835 34.513  13.8734 34.0646  13.8734 34.0646  C 13.8734 34.0646  13.3319 33.0389  13.3319 33.0389  C 13.3319 33.0389  13.8446 32.8315  13.8446 32.8315  C 13.8446 32.8315  14.1499 31.7274  14.1499 31.7274  C 14.1499 31.7274  14.9565 31.5984  14.9565 31.5984  C 14.9565 31.5984  15.7744 29.9677  15.7744 29.9677  C 15.7744 29.9677  14.6108 29.368  14.6108 29.368  C 14.6108 29.368  14.7029 28.5331  14.7029 28.5331  C 14.7029 28.5331  14.1903 28.337  14.1903 28.337  C 14.1903 28.337  14.438 25.7205  14.438 25.7205  C 14.438 25.7205  13.4874 24.9083  13.4874 24.9083  C 13.4874 24.9083  13.0612 23.984  13.0612 23.984  C 13.0612 23.984  11.9666 19.9011  11.9666 19.9011  C 11.9666 19.9011  12.2893 19.1171  12.2893 19.1171  C 12.2893 19.1171  14.3458 20.0691  14.3458 20.0691  C 14.3458 20.0691  15.5613 19.7947  15.5613 19.7947  C 15.5613 19.7947  17.8483 18.8988  17.8483 18.8988  C 17.8483 18.8988  19.5131 19.3915  19.5131 19.3915  C 19.5131 19.3915  20.3771 18.0757  20.3771 18.0757  C 20.3771 18.0757  23.1826 17.3029  23.1826 17.3029  C 23.1826 17.3029  25.049 17.0902  25.049 17.0902  C 25.049 17.0902  26.5641 16.312  26.5641 16.312  C 26.5641 16.312  27.8257 16.8215  27.8257 16.8215  C 27.8257 16.8215  29.4962 17.079  29.4962 17.079  C 29.4962 17.079  30.5735 16.939  30.5735 16.939  C 30.5735 16.939  31.2706 16.1105  31.2706 16.1105  C 31.2706 16.1105  32.2268 16.4744  32.2268 16.4744  C 32.2268 16.4744  32.3997 17.6053  32.3997 17.6053  C 32.3997 17.6053  33.4077 17.023  33.4077 17.023  C 33.4077 17.023  33.3329 15.2035  33.3329 15.2035  C 33.3329 15.2035  33.9204 14.6942  33.9204 14.6942  C 33.9204 14.6942  34.1509 13.0933  34.1509 13.0933  C 34.1509 13.0933  34.8709 12.5111  34.8709 12.5111  C 34.8709 12.5111  35.8791 13.3171  35.8791 13.3171  C 35.8791 13.3171  36.4666 13.0093  36.4666 13.0093  C 36.4666 13.0093  36.0461 10.9944  36.0461 10.9944  C 36.0461 10.9944  37.0139 10.0096  37.0139 10.0096  C 37.0139 10.0096  37.1522 9.37720000000002  37.1522 9.37720000000002  C 37.1522 9.37720000000002  39.0013 8.2749  39.0013 8.2749  C 39.0013 8.2749  38.552 6.9153  38.552 6.9153  C 38.552 6.9153  39.6638 5.14190000000002  39.6638 5.14190000000002  C 39.6638 5.14190000000002  40.6085 4.38670000000002  40.6085 4.38670000000002  C 40.6085 4.38670000000002  41.7319 4.83420000000001  41.7319 4.83420000000001  C 41.7319 4.83420000000001  42.4059 4.61610000000002  42.4059 4.61610000000002  C 42.4059 4.61610000000002  44.6271 2.4402  44.6271 2.4402  C 44.6271 2.4402  46.1133 2.83170000000001  46.1133 2.83170000000001  C 46.1133 2.83170000000001  46.747 2.4067  46.747 2.4067  C 46.747 2.4067  47.3807 1.01960000000003  47.3807 1.01960000000003  Z " fill-rule="evenodd" />
    </mask>
  </defs>
  <g transform="matrix(1 0 0 1 -379 -558 )">
    <path d="M 47.3807 1.01960000000003  C 47.3807 1.01960000000003  48.3542 0.72890000000001  48.3542 0.72890000000001  C 48.3542 0.72890000000001  49.0398 2.35640000000001  49.0398 2.35640000000001  C 49.0398 2.35640000000001  49.6849 2.28919999999999  49.6849 2.28919999999999  C 49.6849 2.28919999999999  50.4741 3.27359999999999  50.4741 3.27359999999999  C 50.4741 3.27359999999999  51.3325 3.77699999999999  51.3325 3.77699999999999  C 51.3325 3.77699999999999  51.177 5.13069999999999  51.177 5.13069999999999  C 51.177 5.13069999999999  51.4534 7.4468  51.4534 7.4468  C 51.4534 7.4468  51.9834 7.58670000000001  51.9834 7.58670000000001  C 51.9834 7.58670000000001  52.4904 9.09179999999998  52.4904 9.09179999999998  C 52.4904 9.09179999999998  53.487 8.97989999999999  53.487 8.97989999999999  C 53.487 8.97989999999999  54.2186 9.88080000000002  54.2186 9.88080000000002  C 54.2186 9.88080000000002  55.4167 10.6195  55.4167 10.6195  C 55.4167 10.6195  56.7417 8.75049999999999  56.7417 8.75049999999999  C 56.7417 8.75049999999999  57.2314 9.38279999999997  57.2314 9.38279999999997  C 57.2314 9.38279999999997  57.6634 8.77280000000002  57.6634 8.77280000000002  C 57.6634 8.77280000000002  58.9768 9.7242  58.9768 9.7242  C 58.9768 9.7242  58.8559 11.694  58.8559 11.694  C 58.8559 11.694  59.5586 12.2033  59.5586 12.2033  C 59.5586 12.2033  59.7661 14.0952  59.7661 14.0952  C 59.7661 14.0952  60.826 15.058  60.826 15.058  C 60.826 15.058  61.356 14.9572  61.356 14.9572  C 61.356 14.9572  62.341 15.6962  62.341 15.6962  C 62.341 15.6962  62.2777 17.3477  62.2777 17.3477  C 62.2777 17.3477  62.03 17.0006  62.03 17.0006  C 62.03 17.0006  60.4804 18.0028  60.4804 18.0028  C 60.4804 18.0028  60.296 18.4843  60.296 18.4843  C 60.296 18.4843  59.1843 18.5348  59.1843 18.5348  C 59.1843 18.5348  58.1819 19.8115  58.1819 19.8115  C 58.1819 19.8115  57.0413 20.209  57.0413 20.209  C 57.0413 20.209  57.168 21.0098  57.168 21.0098  C 57.168 21.0098  55.7105 21.7323  55.7105 21.7323  C 55.7105 21.7323  55.0999 23.9671  55.0999 23.9671  C 55.0999 23.9671  55.9928 24.9474  55.9928 24.9474  C 55.9928 24.9474  56.0447 26.5665  56.0447 26.5665  C 56.0447 26.5665  57.4618 27.0764  57.4618 27.0764  C 57.4618 27.0764  56.8223 28.7516  56.8223 28.7516  C 56.8223 28.7516  56.1657 28.6507  56.1657 28.6507  C 56.1657 28.6507  56.4019 30.0797  56.4019 30.0797  C 56.4019 30.0797  55.9928 31.2622  55.9928 31.2622  C 55.9928 31.2622  56.4537 32.086  56.4537 32.086  C 56.4537 32.086  57.7556 32.8483  57.7556 32.8483  C 57.7556 32.8483  56.1887 35.3483  56.1887 35.3483  C 56.1887 35.3483  56.638 36.5649  56.638 36.5649  C 56.638 36.5649  55.9122 38.7964  55.9122 38.7964  C 55.9122 38.7964  56.6553 40.2937  56.6553 40.2937  C 56.6553 40.2937  57.4215 41.0507  57.4215 41.0507  C 57.4215 41.0507  58.8559 41.1517  58.8559 41.1517  C 58.8559 41.1517  59.5183 41.9985  59.5183 41.9985  C 59.5183 41.9985  59.5471 43.5017  59.5471 43.5017  C 59.5471 43.5017  60.9528 44.3431  60.9528 44.3431  C 60.9528 44.3431  60.6416 46.4539  60.6416 46.4539  C 60.6416 46.4539  61.0046 47.099  61.0046 47.099  C 61.0046 47.099  63.1015 48.2772  63.1015 48.2772  C 63.1015 48.2772  65.2674 47.6881  65.2674 47.6881  C 65.2674 47.6881  66.6442 46.8634  66.6442 46.8634  C 66.6442 46.8634  68.309 47.4861  68.309 47.4861  C 68.309 47.4861  70.6364 46.4875  70.6364 46.4875  C 70.6364 46.4875  71.7309 47.6769  71.7309 47.6769  C 71.7309 47.6769  72.572 47.9237  72.572 47.9237  C 72.572 47.9237  73.6492 47.5871  73.6492 47.5871  C 73.6492 47.5871  75.7057 48.6363  75.7057 48.6363  C 75.7057 48.6363  76.6044 50.5609  76.6044 50.5609  C 76.6044 50.5609  76.1147 53.2434  76.1147 53.2434  C 76.1147 53.2434  76.4546 54.1921  76.4546 54.1921  C 76.4546 54.1921  79.9974 58.5932  79.9974 58.5932  C 79.9974 58.5932  80.222 61.4683  80.222 61.4683  C 80.222 61.4683  81.0631 62.2432  81.0631 62.2432  C 81.0631 62.2432  79.4559 63.5463  79.4559 63.5463  C 79.4559 63.5463  79.4674 66.9109  79.4674 66.9109  C 79.4674 66.9109  80.2048 67.8211  80.2048 67.8211  C 80.2048 67.8211  81.0343 67.8828  81.0343 67.8828  C 81.0343 67.8828  81.4549 66.9783  81.4549 66.9783  C 81.4549 66.9783  82.3132 66.5513999999999  82.3132 66.5513999999999  C 82.3132 66.5513999999999  82.9757 67.2592  82.9757 67.2592  C 82.9757 67.2592  85.3893 68.6976  85.3893 68.6976  C 85.3893 68.6976  86.2822 70.3664  86.2822 70.3664  C 86.2822 70.3664  85.879 71.8049  85.879 71.8049  C 85.879 71.8049  84.0817 74.1036  84.0817 74.1036  C 84.0817 74.1036  83.0851 76.1834  83.0851 76.1834  C 83.0851 76.1834  81.7659 77.9261  81.7659 77.9261  C 81.7659 77.9261  81.4836 79.5454  81.4836 79.5454  C 81.4836 79.5454  80.4467 81.3111  80.4467 81.3111  C 80.4467 81.3111  78.7301 82.4751  78.7301 82.4751  C 78.7301 82.4751  78.3787 84.1567  78.3787 84.1567  C 78.3787 84.1567  77.3705 84.9499  77.3705 84.9499  C 77.3705 84.9499  75.4004 85.653  75.4004 85.653  C 75.4004 85.653  71.1836 86.3449000000001  71.1836 86.3449000000001  C 71.1836 86.3449000000001  69.2135 86.1817  69.2135 86.1817  C 69.2135 86.1817  66.7191 85.5293  66.7191 85.5293  C 66.7191 85.5293  65.4345 85.8837  65.4345 85.8837  C 65.4345 85.8837  62.3871 87.3687  62.3871 87.3687  C 62.3871 87.3687  61.4654 88.3871  61.4654 88.3871  C 61.4654 88.3871  58.5045 90.5927  58.5045 90.5927  C 58.5045 90.5927  57.2659 90.6884  57.2659 90.6884  C 57.2659 90.6884  56.8684 90.0637  56.8684 90.0637  C 56.8684 90.0637  57.0297 89.1072  57.0297 89.1072  C 57.0297 89.1072  58.8444 86.4011  58.8444 86.4011  C 58.8444 86.4011  60.031 83.4931  60.031 83.4931  C 60.031 83.4931  60.1751 81.8959  60.1751 81.8959  C 60.1751 81.8959  59.7661 80.237  59.7661 80.237  C 59.7661 80.237  58.9192 79.3149  58.9192 79.3149  C 58.9192 79.3149  58.0263 79.1968000000001  58.0263 79.1968000000001  C 58.0263 79.1968000000001  56.638 79.821  56.638 79.821  C 56.638 79.821  55.82 80.7544  55.82 80.7544  C 55.82 80.7544  55.3937 81.9071  55.3937 81.9071  C 55.3937 81.9071  54.691 82.5089  54.691 82.5089  C 54.691 82.5089  52.9801 83.1894  52.9801 83.1894  C 52.9801 83.1894  52.5422 83.8081  52.5422 83.8081  C 52.5422 83.8081  52.9166 84.5561  52.9166 84.5561  C 52.9166 84.5561  54.7197 85.428  54.7197 85.428  C 54.7197 85.428  55.8776 86.4293  55.8776 86.4293  C 55.8776 86.4293  55.9641 87.3237  55.9641 87.3237  C 55.9641 87.3237  55.1864 88.1169  55.1864 88.1169  C 55.1864 88.1169  53.4063 88.8541  53.4063 88.8541  C 53.4063 88.8541  51.2115 89.1803  51.2115 89.1803  C 51.2115 89.1803  49.2932 88.8484  49.2932 88.8484  C 49.2932 88.8484  45.641 87.0537  45.641 87.0537  C 45.641 87.0537  44.8057 85.6361000000001  44.8057 85.6361000000001  C 44.8057 85.6361000000001  42.4174 85.0454999999999  42.4174 85.0454999999999  C 42.4174 85.0454999999999  40.9253 85.0792  40.9253 85.0792  C 40.9253 85.0792  38.8516 85.4448  38.8516 85.4448  C 38.8516 85.4448  37.9817 86.2156  37.9817 86.2156  C 37.9817 86.2156  36.7777 86.0524  36.7777 86.0524  C 36.7777 86.0524  36.0057 83.3582  36.0057 83.3582  C 36.0057 83.3582  35.1244 82.1715  35.1244 82.1715  C 35.1244 82.1715  34.7211 81.0186  34.7211 81.0186  C 34.7211 81.0186  34.0587 81.2661000000001  34.0587 81.2661000000001  C 34.0587 81.2661000000001  32.7798 80.6588  32.7798 80.6588  C 32.7798 80.6588  32.1001 79.8884  32.1001 79.8884  C 32.1001 79.8884  32.221 79.2586  32.221 79.2586  C 32.221 79.2586  31.5644 78.6627  31.5644 78.6627  C 31.5644 78.6627  32.1116 78.241  32.1116 78.241  C 32.1116 78.241  31.9158 77.2853  31.9158 77.2853  C 31.9158 77.2853  31.1496 76.723  31.1496 76.723  C 31.1496 76.723  31.1611 75.8517000000001  31.1611 75.8517000000001  C 31.1611 75.8517000000001  29.5884 74.3452  29.5884 74.3452  C 29.5884 74.3452  28.6552 75.0198  28.6552 75.0198  C 28.6552 75.0198  28.638 75.6212  28.638 75.6212  C 28.638 75.6212  27.7796 75.4469  27.7796 75.4469  C 27.7796 75.4469  27.3303 74.5139  27.3303 74.5139  C 27.3303 74.5139  25.7115 74.0362  25.7115 74.0362  C 25.7115 74.0362  24.9684 74.4408  24.9684 74.4408  C 24.9684 74.4408  24.1389 74.2835  24.1389 74.2835  C 24.1389 74.2835  23.0847 75.3795  23.0847 75.3795  C 23.0847 75.3795  20.936 75.8630000000001  20.936 75.8630000000001  C 20.936 75.8630000000001  20.3541 76.5599999999999  20.3541 76.5599999999999  C 20.3541 76.5599999999999  19.4382 76.9029  19.4382 76.9029  C 19.4382 76.9029  18.6778 77.7237  18.6778 77.7237  C 18.6778 77.7237  16.8344 78.6852  16.8344 78.6852  C 16.8344 78.6852  15.8838 78.7357  15.8838 78.7357  C 15.8838 78.7357  14.7548 78.3253  14.7548 78.3253  C 14.7548 78.3253  13.9829 78.955  13.9829 78.955  C 13.9829 78.955  11.3675 79.3823  11.3675 79.3823  C 11.3675 79.3823  10.0772 79.8265  10.0772 79.8265  C 10.0772 79.8265  8.65429999999998 78.106  8.65429999999998 78.106  C 8.65429999999998 78.106  7.09320000000002 78.5614  7.09320000000002 78.5614  C 7.09320000000002 78.5614  5.84309999999999 80.9343  5.84309999999999 80.9343  C 5.84309999999999 80.9343  5.411 80.5126  5.411 80.5126  C 5.411 80.5126  4.71980000000002 80.8387  4.71980000000002 80.8387  C 4.71980000000002 80.8387  2.89370000000002 80.1583000000001  2.89370000000002 80.1583000000001  C 2.89370000000002 80.1583000000001  1.2346 80.0177  1.2346 80.0177  C 1.2346 80.0177  2.09870000000001 79.3036  2.09870000000001 79.3036  C 2.09870000000001 79.3036  2.3349 78.2298  2.3349 78.2298  C 2.3349 78.2298  1.5111 76.8579  1.5111 76.8579  C 1.5111 76.8579  1.25189999999998 74.6039  1.25189999999998 74.6039  C 1.25189999999998 74.6039  0.86020000000002 73.9912  0.86020000000002 73.9912  C 0.86020000000002 73.9912  2.7208 73.1144  2.7208 73.1144  C 2.7208 73.1144  2.13900000000001 72.1308  2.13900000000001 72.1308  C 2.13900000000001 72.1308  3.41210000000001 71.0069  3.41210000000001 71.0069  C 3.41210000000001 71.0069  3.7405 70.0966  3.7405 70.0966  C 3.7405 70.0966  5.3707 68.1244  5.3707 68.1244  C 5.3707 68.1244  5.40530000000001 67.5739  5.40530000000001 67.5739  C 5.40530000000001 67.5739  6.59199999999998 67.0289  6.59199999999998 67.0289  C 6.59199999999998 67.0289  6.25779999999997 65.3043  6.25779999999997 65.3043  C 6.25779999999997 65.3043  6.2867 63.535  6.2867 63.535  C 6.2867 63.535  6.82819999999998 61.8052  6.82819999999998 61.8052  C 6.82819999999998 61.8052  7.36970000000002 61.0189  7.36970000000002 61.0189  C 7.36970000000002 61.0189  6.6841 59.3681  6.6841 59.3681  C 6.6841 59.3681  6.63229999999999 57.8409  6.63229999999999 57.8409  C 6.63229999999999 57.8409  7.67500000000001 54.7309  7.67500000000001 54.7309  C 7.67500000000001 54.7309  7.43299999999999 53.0807  7.43299999999999 53.0807  C 7.43299999999999 53.0807  6.37880000000001 51.3578  6.37880000000001 51.3578  C 6.37880000000001 51.3578  5.50900000000001 50.5272  5.50900000000001 50.5272  C 5.50900000000001 50.5272  6.0908 49.1244  6.0908 49.1244  C 6.0908 49.1244  6.7706 48.2267  6.7706 48.2267  C 6.7706 48.2267  6.37310000000002 47.5535  6.37310000000002 47.5535  C 6.37310000000002 47.5535  6.67840000000001 45.1285  6.67840000000001 45.1285  C 6.67840000000001 45.1285  7.25450000000001 46.3417  7.25450000000001 46.3417  C 7.25450000000001 46.3417  8.51029999999997 44.4104  8.51029999999997 44.4104  C 8.51029999999997 44.4104  7.73259999999999 43.0642  7.73259999999999 43.0642  C 7.73259999999999 43.0642  8.32600000000002 42.2958  8.32600000000002 42.2958  C 8.32600000000002 42.2958  7.94569999999999 41.7686  7.94569999999999 41.7686  C 7.94569999999999 41.7686  8.71190000000001 41.3144  8.71190000000001 41.3144  C 8.71190000000001 41.3144  8.2971 40.7255  8.2971 40.7255  C 8.2971 40.7255  10.0138 39.1497  10.0138 39.1497  C 10.0138 39.1497  10.0138 38.3703  10.0138 38.3703  C 10.0138 38.3703  11.0449 37.7479  11.0449 37.7479  C 11.0449 37.7479  11.7535 35.5502  11.7535 35.5502  C 11.7535 35.5502  12.6003 35.3819  12.6003 35.3819  C 12.6003 35.3819  12.2835 34.513  12.2835 34.513  C 12.2835 34.513  13.8734 34.0646  13.8734 34.0646  C 13.8734 34.0646  13.3319 33.0389  13.3319 33.0389  C 13.3319 33.0389  13.8446 32.8315  13.8446 32.8315  C 13.8446 32.8315  14.1499 31.7274  14.1499 31.7274  C 14.1499 31.7274  14.9565 31.5984  14.9565 31.5984  C 14.9565 31.5984  15.7744 29.9677  15.7744 29.9677  C 15.7744 29.9677  14.6108 29.368  14.6108 29.368  C 14.6108 29.368  14.7029 28.5331  14.7029 28.5331  C 14.7029 28.5331  14.1903 28.337  14.1903 28.337  C 14.1903 28.337  14.438 25.7205  14.438 25.7205  C 14.438 25.7205  13.4874 24.9083  13.4874 24.9083  C 13.4874 24.9083  13.0612 23.984  13.0612 23.984  C 13.0612 23.984  11.9666 19.9011  11.9666 19.9011  C 11.9666 19.9011  12.2893 19.1171  12.2893 19.1171  C 12.2893 19.1171  14.3458 20.0691  14.3458 20.0691  C 14.3458 20.0691  15.5613 19.7947  15.5613 19.7947  C 15.5613 19.7947  17.8483 18.8988  17.8483 18.8988  C 17.8483 18.8988  19.5131 19.3915  19.5131 19.3915  C 19.5131 19.3915  20.3771 18.0757  20.3771 18.0757  C 20.3771 18.0757  23.1826 17.3029  23.1826 17.3029  C 23.1826 17.3029  25.049 17.0902  25.049 17.0902  C 25.049 17.0902  26.5641 16.312  26.5641 16.312  C 26.5641 16.312  27.8257 16.8215  27.8257 16.8215  C 27.8257 16.8215  29.4962 17.079  29.4962 17.079  C 29.4962 17.079  30.5735 16.939  30.5735 16.939  C 30.5735 16.939  31.2706 16.1105  31.2706 16.1105  C 31.2706 16.1105  32.2268 16.4744  32.2268 16.4744  C 32.2268 16.4744  32.3997 17.6053  32.3997 17.6053  C 32.3997 17.6053  33.4077 17.023  33.4077 17.023  C 33.4077 17.023  33.3329 15.2035  33.3329 15.2035  C 33.3329 15.2035  33.9204 14.6942  33.9204 14.6942  C 33.9204 14.6942  34.1509 13.0933  34.1509 13.0933  C 34.1509 13.0933  34.8709 12.5111  34.8709 12.5111  C 34.8709 12.5111  35.8791 13.3171  35.8791 13.3171  C 35.8791 13.3171  36.4666 13.0093  36.4666 13.0093  C 36.4666 13.0093  36.0461 10.9944  36.0461 10.9944  C 36.0461 10.9944  37.0139 10.0096  37.0139 10.0096  C 37.0139 10.0096  37.1522 9.37720000000002  37.1522 9.37720000000002  C 37.1522 9.37720000000002  39.0013 8.2749  39.0013 8.2749  C 39.0013 8.2749  38.552 6.9153  38.552 6.9153  C 38.552 6.9153  39.6638 5.14190000000002  39.6638 5.14190000000002  C 39.6638 5.14190000000002  40.6085 4.38670000000002  40.6085 4.38670000000002  C 40.6085 4.38670000000002  41.7319 4.83420000000001  41.7319 4.83420000000001  C 41.7319 4.83420000000001  42.4059 4.61610000000002  42.4059 4.61610000000002  C 42.4059 4.61610000000002  44.6271 2.4402  44.6271 2.4402  C 44.6271 2.4402  46.1133 2.83170000000001  46.1133 2.83170000000001  C 46.1133 2.83170000000001  46.747 2.4067  46.747 2.4067  C 46.747 2.4067  47.3807 1.01960000000003  47.3807 1.01960000000003  Z " fill-rule="nonzero" fill="#ffffff" stroke="none" transform="matrix(1 0 0 1 379 558 )" />
    <path d="M 47.3807 1.01960000000003  C 47.3807 1.01960000000003  48.3542 0.72890000000001  48.3542 0.72890000000001  C 48.3542 0.72890000000001  49.0398 2.35640000000001  49.0398 2.35640000000001  C 49.0398 2.35640000000001  49.6849 2.28919999999999  49.6849 2.28919999999999  C 49.6849 2.28919999999999  50.4741 3.27359999999999  50.4741 3.27359999999999  C 50.4741 3.27359999999999  51.3325 3.77699999999999  51.3325 3.77699999999999  C 51.3325 3.77699999999999  51.177 5.13069999999999  51.177 5.13069999999999  C 51.177 5.13069999999999  51.4534 7.4468  51.4534 7.4468  C 51.4534 7.4468  51.9834 7.58670000000001  51.9834 7.58670000000001  C 51.9834 7.58670000000001  52.4904 9.09179999999998  52.4904 9.09179999999998  C 52.4904 9.09179999999998  53.487 8.97989999999999  53.487 8.97989999999999  C 53.487 8.97989999999999  54.2186 9.88080000000002  54.2186 9.88080000000002  C 54.2186 9.88080000000002  55.4167 10.6195  55.4167 10.6195  C 55.4167 10.6195  56.7417 8.75049999999999  56.7417 8.75049999999999  C 56.7417 8.75049999999999  57.2314 9.38279999999997  57.2314 9.38279999999997  C 57.2314 9.38279999999997  57.6634 8.77280000000002  57.6634 8.77280000000002  C 57.6634 8.77280000000002  58.9768 9.7242  58.9768 9.7242  C 58.9768 9.7242  58.8559 11.694  58.8559 11.694  C 58.8559 11.694  59.5586 12.2033  59.5586 12.2033  C 59.5586 12.2033  59.7661 14.0952  59.7661 14.0952  C 59.7661 14.0952  60.826 15.058  60.826 15.058  C 60.826 15.058  61.356 14.9572  61.356 14.9572  C 61.356 14.9572  62.341 15.6962  62.341 15.6962  C 62.341 15.6962  62.2777 17.3477  62.2777 17.3477  C 62.2777 17.3477  62.03 17.0006  62.03 17.0006  C 62.03 17.0006  60.4804 18.0028  60.4804 18.0028  C 60.4804 18.0028  60.296 18.4843  60.296 18.4843  C 60.296 18.4843  59.1843 18.5348  59.1843 18.5348  C 59.1843 18.5348  58.1819 19.8115  58.1819 19.8115  C 58.1819 19.8115  57.0413 20.209  57.0413 20.209  C 57.0413 20.209  57.168 21.0098  57.168 21.0098  C 57.168 21.0098  55.7105 21.7323  55.7105 21.7323  C 55.7105 21.7323  55.0999 23.9671  55.0999 23.9671  C 55.0999 23.9671  55.9928 24.9474  55.9928 24.9474  C 55.9928 24.9474  56.0447 26.5665  56.0447 26.5665  C 56.0447 26.5665  57.4618 27.0764  57.4618 27.0764  C 57.4618 27.0764  56.8223 28.7516  56.8223 28.7516  C 56.8223 28.7516  56.1657 28.6507  56.1657 28.6507  C 56.1657 28.6507  56.4019 30.0797  56.4019 30.0797  C 56.4019 30.0797  55.9928 31.2622  55.9928 31.2622  C 55.9928 31.2622  56.4537 32.086  56.4537 32.086  C 56.4537 32.086  57.7556 32.8483  57.7556 32.8483  C 57.7556 32.8483  56.1887 35.3483  56.1887 35.3483  C 56.1887 35.3483  56.638 36.5649  56.638 36.5649  C 56.638 36.5649  55.9122 38.7964  55.9122 38.7964  C 55.9122 38.7964  56.6553 40.2937  56.6553 40.2937  C 56.6553 40.2937  57.4215 41.0507  57.4215 41.0507  C 57.4215 41.0507  58.8559 41.1517  58.8559 41.1517  C 58.8559 41.1517  59.5183 41.9985  59.5183 41.9985  C 59.5183 41.9985  59.5471 43.5017  59.5471 43.5017  C 59.5471 43.5017  60.9528 44.3431  60.9528 44.3431  C 60.9528 44.3431  60.6416 46.4539  60.6416 46.4539  C 60.6416 46.4539  61.0046 47.099  61.0046 47.099  C 61.0046 47.099  63.1015 48.2772  63.1015 48.2772  C 63.1015 48.2772  65.2674 47.6881  65.2674 47.6881  C 65.2674 47.6881  66.6442 46.8634  66.6442 46.8634  C 66.6442 46.8634  68.309 47.4861  68.309 47.4861  C 68.309 47.4861  70.6364 46.4875  70.6364 46.4875  C 70.6364 46.4875  71.7309 47.6769  71.7309 47.6769  C 71.7309 47.6769  72.572 47.9237  72.572 47.9237  C 72.572 47.9237  73.6492 47.5871  73.6492 47.5871  C 73.6492 47.5871  75.7057 48.6363  75.7057 48.6363  C 75.7057 48.6363  76.6044 50.5609  76.6044 50.5609  C 76.6044 50.5609  76.1147 53.2434  76.1147 53.2434  C 76.1147 53.2434  76.4546 54.1921  76.4546 54.1921  C 76.4546 54.1921  79.9974 58.5932  79.9974 58.5932  C 79.9974 58.5932  80.222 61.4683  80.222 61.4683  C 80.222 61.4683  81.0631 62.2432  81.0631 62.2432  C 81.0631 62.2432  79.4559 63.5463  79.4559 63.5463  C 79.4559 63.5463  79.4674 66.9109  79.4674 66.9109  C 79.4674 66.9109  80.2048 67.8211  80.2048 67.8211  C 80.2048 67.8211  81.0343 67.8828  81.0343 67.8828  C 81.0343 67.8828  81.4549 66.9783  81.4549 66.9783  C 81.4549 66.9783  82.3132 66.5513999999999  82.3132 66.5513999999999  C 82.3132 66.5513999999999  82.9757 67.2592  82.9757 67.2592  C 82.9757 67.2592  85.3893 68.6976  85.3893 68.6976  C 85.3893 68.6976  86.2822 70.3664  86.2822 70.3664  C 86.2822 70.3664  85.879 71.8049  85.879 71.8049  C 85.879 71.8049  84.0817 74.1036  84.0817 74.1036  C 84.0817 74.1036  83.0851 76.1834  83.0851 76.1834  C 83.0851 76.1834  81.7659 77.9261  81.7659 77.9261  C 81.7659 77.9261  81.4836 79.5454  81.4836 79.5454  C 81.4836 79.5454  80.4467 81.3111  80.4467 81.3111  C 80.4467 81.3111  78.7301 82.4751  78.7301 82.4751  C 78.7301 82.4751  78.3787 84.1567  78.3787 84.1567  C 78.3787 84.1567  77.3705 84.9499  77.3705 84.9499  C 77.3705 84.9499  75.4004 85.653  75.4004 85.653  C 75.4004 85.653  71.1836 86.3449000000001  71.1836 86.3449000000001  C 71.1836 86.3449000000001  69.2135 86.1817  69.2135 86.1817  C 69.2135 86.1817  66.7191 85.5293  66.7191 85.5293  C 66.7191 85.5293  65.4345 85.8837  65.4345 85.8837  C 65.4345 85.8837  62.3871 87.3687  62.3871 87.3687  C 62.3871 87.3687  61.4654 88.3871  61.4654 88.3871  C 61.4654 88.3871  58.5045 90.5927  58.5045 90.5927  C 58.5045 90.5927  57.2659 90.6884  57.2659 90.6884  C 57.2659 90.6884  56.8684 90.0637  56.8684 90.0637  C 56.8684 90.0637  57.0297 89.1072  57.0297 89.1072  C 57.0297 89.1072  58.8444 86.4011  58.8444 86.4011  C 58.8444 86.4011  60.031 83.4931  60.031 83.4931  C 60.031 83.4931  60.1751 81.8959  60.1751 81.8959  C 60.1751 81.8959  59.7661 80.237  59.7661 80.237  C 59.7661 80.237  58.9192 79.3149  58.9192 79.3149  C 58.9192 79.3149  58.0263 79.1968000000001  58.0263 79.1968000000001  C 58.0263 79.1968000000001  56.638 79.821  56.638 79.821  C 56.638 79.821  55.82 80.7544  55.82 80.7544  C 55.82 80.7544  55.3937 81.9071  55.3937 81.9071  C 55.3937 81.9071  54.691 82.5089  54.691 82.5089  C 54.691 82.5089  52.9801 83.1894  52.9801 83.1894  C 52.9801 83.1894  52.5422 83.8081  52.5422 83.8081  C 52.5422 83.8081  52.9166 84.5561  52.9166 84.5561  C 52.9166 84.5561  54.7197 85.428  54.7197 85.428  C 54.7197 85.428  55.8776 86.4293  55.8776 86.4293  C 55.8776 86.4293  55.9641 87.3237  55.9641 87.3237  C 55.9641 87.3237  55.1864 88.1169  55.1864 88.1169  C 55.1864 88.1169  53.4063 88.8541  53.4063 88.8541  C 53.4063 88.8541  51.2115 89.1803  51.2115 89.1803  C 51.2115 89.1803  49.2932 88.8484  49.2932 88.8484  C 49.2932 88.8484  45.641 87.0537  45.641 87.0537  C 45.641 87.0537  44.8057 85.6361000000001  44.8057 85.6361000000001  C 44.8057 85.6361000000001  42.4174 85.0454999999999  42.4174 85.0454999999999  C 42.4174 85.0454999999999  40.9253 85.0792  40.9253 85.0792  C 40.9253 85.0792  38.8516 85.4448  38.8516 85.4448  C 38.8516 85.4448  37.9817 86.2156  37.9817 86.2156  C 37.9817 86.2156  36.7777 86.0524  36.7777 86.0524  C 36.7777 86.0524  36.0057 83.3582  36.0057 83.3582  C 36.0057 83.3582  35.1244 82.1715  35.1244 82.1715  C 35.1244 82.1715  34.7211 81.0186  34.7211 81.0186  C 34.7211 81.0186  34.0587 81.2661000000001  34.0587 81.2661000000001  C 34.0587 81.2661000000001  32.7798 80.6588  32.7798 80.6588  C 32.7798 80.6588  32.1001 79.8884  32.1001 79.8884  C 32.1001 79.8884  32.221 79.2586  32.221 79.2586  C 32.221 79.2586  31.5644 78.6627  31.5644 78.6627  C 31.5644 78.6627  32.1116 78.241  32.1116 78.241  C 32.1116 78.241  31.9158 77.2853  31.9158 77.2853  C 31.9158 77.2853  31.1496 76.723  31.1496 76.723  C 31.1496 76.723  31.1611 75.8517000000001  31.1611 75.8517000000001  C 31.1611 75.8517000000001  29.5884 74.3452  29.5884 74.3452  C 29.5884 74.3452  28.6552 75.0198  28.6552 75.0198  C 28.6552 75.0198  28.638 75.6212  28.638 75.6212  C 28.638 75.6212  27.7796 75.4469  27.7796 75.4469  C 27.7796 75.4469  27.3303 74.5139  27.3303 74.5139  C 27.3303 74.5139  25.7115 74.0362  25.7115 74.0362  C 25.7115 74.0362  24.9684 74.4408  24.9684 74.4408  C 24.9684 74.4408  24.1389 74.2835  24.1389 74.2835  C 24.1389 74.2835  23.0847 75.3795  23.0847 75.3795  C 23.0847 75.3795  20.936 75.8630000000001  20.936 75.8630000000001  C 20.936 75.8630000000001  20.3541 76.5599999999999  20.3541 76.5599999999999  C 20.3541 76.5599999999999  19.4382 76.9029  19.4382 76.9029  C 19.4382 76.9029  18.6778 77.7237  18.6778 77.7237  C 18.6778 77.7237  16.8344 78.6852  16.8344 78.6852  C 16.8344 78.6852  15.8838 78.7357  15.8838 78.7357  C 15.8838 78.7357  14.7548 78.3253  14.7548 78.3253  C 14.7548 78.3253  13.9829 78.955  13.9829 78.955  C 13.9829 78.955  11.3675 79.3823  11.3675 79.3823  C 11.3675 79.3823  10.0772 79.8265  10.0772 79.8265  C 10.0772 79.8265  8.65429999999998 78.106  8.65429999999998 78.106  C 8.65429999999998 78.106  7.09320000000002 78.5614  7.09320000000002 78.5614  C 7.09320000000002 78.5614  5.84309999999999 80.9343  5.84309999999999 80.9343  C 5.84309999999999 80.9343  5.411 80.5126  5.411 80.5126  C 5.411 80.5126  4.71980000000002 80.8387  4.71980000000002 80.8387  C 4.71980000000002 80.8387  2.89370000000002 80.1583000000001  2.89370000000002 80.1583000000001  C 2.89370000000002 80.1583000000001  1.2346 80.0177  1.2346 80.0177  C 1.2346 80.0177  2.09870000000001 79.3036  2.09870000000001 79.3036  C 2.09870000000001 79.3036  2.3349 78.2298  2.3349 78.2298  C 2.3349 78.2298  1.5111 76.8579  1.5111 76.8579  C 1.5111 76.8579  1.25189999999998 74.6039  1.25189999999998 74.6039  C 1.25189999999998 74.6039  0.86020000000002 73.9912  0.86020000000002 73.9912  C 0.86020000000002 73.9912  2.7208 73.1144  2.7208 73.1144  C 2.7208 73.1144  2.13900000000001 72.1308  2.13900000000001 72.1308  C 2.13900000000001 72.1308  3.41210000000001 71.0069  3.41210000000001 71.0069  C 3.41210000000001 71.0069  3.7405 70.0966  3.7405 70.0966  C 3.7405 70.0966  5.3707 68.1244  5.3707 68.1244  C 5.3707 68.1244  5.40530000000001 67.5739  5.40530000000001 67.5739  C 5.40530000000001 67.5739  6.59199999999998 67.0289  6.59199999999998 67.0289  C 6.59199999999998 67.0289  6.25779999999997 65.3043  6.25779999999997 65.3043  C 6.25779999999997 65.3043  6.2867 63.535  6.2867 63.535  C 6.2867 63.535  6.82819999999998 61.8052  6.82819999999998 61.8052  C 6.82819999999998 61.8052  7.36970000000002 61.0189  7.36970000000002 61.0189  C 7.36970000000002 61.0189  6.6841 59.3681  6.6841 59.3681  C 6.6841 59.3681  6.63229999999999 57.8409  6.63229999999999 57.8409  C 6.63229999999999 57.8409  7.67500000000001 54.7309  7.67500000000001 54.7309  C 7.67500000000001 54.7309  7.43299999999999 53.0807  7.43299999999999 53.0807  C 7.43299999999999 53.0807  6.37880000000001 51.3578  6.37880000000001 51.3578  C 6.37880000000001 51.3578  5.50900000000001 50.5272  5.50900000000001 50.5272  C 5.50900000000001 50.5272  6.0908 49.1244  6.0908 49.1244  C 6.0908 49.1244  6.7706 48.2267  6.7706 48.2267  C 6.7706 48.2267  6.37310000000002 47.5535  6.37310000000002 47.5535  C 6.37310000000002 47.5535  6.67840000000001 45.1285  6.67840000000001 45.1285  C 6.67840000000001 45.1285  7.25450000000001 46.3417  7.25450000000001 46.3417  C 7.25450000000001 46.3417  8.51029999999997 44.4104  8.51029999999997 44.4104  C 8.51029999999997 44.4104  7.73259999999999 43.0642  7.73259999999999 43.0642  C 7.73259999999999 43.0642  8.32600000000002 42.2958  8.32600000000002 42.2958  C 8.32600000000002 42.2958  7.94569999999999 41.7686  7.94569999999999 41.7686  C 7.94569999999999 41.7686  8.71190000000001 41.3144  8.71190000000001 41.3144  C 8.71190000000001 41.3144  8.2971 40.7255  8.2971 40.7255  C 8.2971 40.7255  10.0138 39.1497  10.0138 39.1497  C 10.0138 39.1497  10.0138 38.3703  10.0138 38.3703  C 10.0138 38.3703  11.0449 37.7479  11.0449 37.7479  C 11.0449 37.7479  11.7535 35.5502  11.7535 35.5502  C 11.7535 35.5502  12.6003 35.3819  12.6003 35.3819  C 12.6003 35.3819  12.2835 34.513  12.2835 34.513  C 12.2835 34.513  13.8734 34.0646  13.8734 34.0646  C 13.8734 34.0646  13.3319 33.0389  13.3319 33.0389  C 13.3319 33.0389  13.8446 32.8315  13.8446 32.8315  C 13.8446 32.8315  14.1499 31.7274  14.1499 31.7274  C 14.1499 31.7274  14.9565 31.5984  14.9565 31.5984  C 14.9565 31.5984  15.7744 29.9677  15.7744 29.9677  C 15.7744 29.9677  14.6108 29.368  14.6108 29.368  C 14.6108 29.368  14.7029 28.5331  14.7029 28.5331  C 14.7029 28.5331  14.1903 28.337  14.1903 28.337  C 14.1903 28.337  14.438 25.7205  14.438 25.7205  C 14.438 25.7205  13.4874 24.9083  13.4874 24.9083  C 13.4874 24.9083  13.0612 23.984  13.0612 23.984  C 13.0612 23.984  11.9666 19.9011  11.9666 19.9011  C 11.9666 19.9011  12.2893 19.1171  12.2893 19.1171  C 12.2893 19.1171  14.3458 20.0691  14.3458 20.0691  C 14.3458 20.0691  15.5613 19.7947  15.5613 19.7947  C 15.5613 19.7947  17.8483 18.8988  17.8483 18.8988  C 17.8483 18.8988  19.5131 19.3915  19.5131 19.3915  C 19.5131 19.3915  20.3771 18.0757  20.3771 18.0757  C 20.3771 18.0757  23.1826 17.3029  23.1826 17.3029  C 23.1826 17.3029  25.049 17.0902  25.049 17.0902  C 25.049 17.0902  26.5641 16.312  26.5641 16.312  C 26.5641 16.312  27.8257 16.8215  27.8257 16.8215  C 27.8257 16.8215  29.4962 17.079  29.4962 17.079  C 29.4962 17.079  30.5735 16.939  30.5735 16.939  C 30.5735 16.939  31.2706 16.1105  31.2706 16.1105  C 31.2706 16.1105  32.2268 16.4744  32.2268 16.4744  C 32.2268 16.4744  32.3997 17.6053  32.3997 17.6053  C 32.3997 17.6053  33.4077 17.023  33.4077 17.023  C 33.4077 17.023  33.3329 15.2035  33.3329 15.2035  C 33.3329 15.2035  33.9204 14.6942  33.9204 14.6942  C 33.9204 14.6942  34.1509 13.0933  34.1509 13.0933  C 34.1509 13.0933  34.8709 12.5111  34.8709 12.5111  C 34.8709 12.5111  35.8791 13.3171  35.8791 13.3171  C 35.8791 13.3171  36.4666 13.0093  36.4666 13.0093  C 36.4666 13.0093  36.0461 10.9944  36.0461 10.9944  C 36.0461 10.9944  37.0139 10.0096  37.0139 10.0096  C 37.0139 10.0096  37.1522 9.37720000000002  37.1522 9.37720000000002  C 37.1522 9.37720000000002  39.0013 8.2749  39.0013 8.2749  C 39.0013 8.2749  38.552 6.9153  38.552 6.9153  C 38.552 6.9153  39.6638 5.14190000000002  39.6638 5.14190000000002  C 39.6638 5.14190000000002  40.6085 4.38670000000002  40.6085 4.38670000000002  C 40.6085 4.38670000000002  41.7319 4.83420000000001  41.7319 4.83420000000001  C 41.7319 4.83420000000001  42.4059 4.61610000000002  42.4059 4.61610000000002  C 42.4059 4.61610000000002  44.6271 2.4402  44.6271 2.4402  C 44.6271 2.4402  46.1133 2.83170000000001  46.1133 2.83170000000001  C 46.1133 2.83170000000001  46.747 2.4067  46.747 2.4067  C 46.747 2.4067  47.3807 1.01960000000003  47.3807 1.01960000000003  Z " stroke-width="2" stroke="#666666" fill="none" transform="matrix(1 0 0 1 379 558 )" mask="url(#clip138)" />
  </g>
</svg>