<?xml version="1.0" encoding="utf-8"?>
<svg version="1.1" xmlns:xlink="http://www.w3.org/1999/xlink" width="129px" height="113px" xmlns="http://www.w3.org/2000/svg">
  <defs>
    <mask fill="white" id="clip139">
      <path d="M 108.7259 77.4539  C 108.7259 77.4539  108.7662 79.4286  108.7662 79.4286  C 108.7662 79.4286  107.7466 78.9743  107.7466 78.9743  C 107.7466 78.9743  107.2224 79.2491  107.2224 79.2491  C 107.2224 79.2491  106.4274 80.5902  106.4274 80.5902  C 106.4274 80.5902  105.0736 80.938  105.0736 80.938  C 105.0736 80.938  103.668 80.1132  103.668 80.1132  C 103.668 80.1132  102.4122 83.0368  102.4122 83.0368  C 102.4122 83.0368  100.154 82.2568  100.154 82.2568  C 100.154 82.2568  99.699 81.7517  99.699 81.7517  C 99.699 81.7517  99.3821 80.1918  99.3821 80.1918  C 99.3821 80.1918  98.5986 80.2703  98.5986 80.2703  C 98.5986 80.2703  98.23 81.7517  98.23 81.7517  C 98.23 81.7517  97.7058 81.7741  97.7058 81.7741  C 97.7058 81.7741  96.4327 80.7248  96.4327 80.7248  C 96.4327 80.7248  96.2598 78.834  96.2598 78.834  C 96.2598 78.834  95.0674 78.4749  95.0674 78.4749  C 95.0674 78.4749  94.451 79.7093  94.451 79.7093  C 94.451 79.7093  92.9129 79.3109  92.9129 79.3109  C 92.9129 79.3109  92.3599 79.5802  92.3599 79.5802  C 92.3599 79.5802  92.2793 81.3421  92.2793 81.3421  C 92.2793 81.3421  91.058 80.5172  91.058 80.5172  C 91.058 80.5172  90.073 81.0671  90.073 81.0671  C 90.073 81.0671  88.5061 79.4736  88.5061 79.4736  C 88.5061 79.4736  87.4058 80.4274  87.4058 80.4274  C 87.4058 80.4274  87.3193 81.4431  87.3193 81.4431  C 87.3193 81.4431  86.2882 81.9537  86.2882 81.9537  C 86.2882 81.9537  85.9944 81.4207  85.9944 81.4207  C 85.9944 81.4207  86.4322 80.2086  86.4322 80.2086  C 86.4322 80.2086  85.7294 79.7541  85.7294 79.7541  C 85.7294 79.7541  85.4529 80.4555  85.4529 80.4555  C 85.4529 80.4555  84.7674 78.8172  84.7674 78.8172  C 84.7674 78.8172  84.0761 79.5073  84.0761 79.5073  C 84.0761 79.5073  83.0046 79.2154  83.0046 79.2154  C 83.0046 79.2154  83.045 80.0122  83.045 80.0122  C 83.045 80.0122  83.8514 81.2747  83.8514 81.2747  C 83.8514 81.2747  82.4171 81.2018  82.4171 81.2018  C 82.4171 81.2018  82.5553 82.9583  82.5553 82.9583  C 82.5553 82.9583  82.0714 83.772  82.0714 83.772  C 82.0714 83.772  80.3029 85.1472  80.3029 85.1472  C 80.3029 85.1472  74.4386 85.2986  74.4386 85.2986  C 74.4386 85.2986  73.4881 85.8768  73.4881 85.8768  C 73.4881 85.8768  72.8544 85.6017  72.8544 85.6017  C 72.8544 85.6017  71.3969 83.2221  71.3969 83.2221  C 71.3969 83.2221  70.6653 82.9021  70.6653 82.9021  C 70.6653 82.9021  69.9395 83.1827  69.9395 83.1827  C 69.9395 83.1827  69.1791 85.1808  69.1791 85.1808  C 69.1791 85.1808  67.4106 86.6739  67.4106 86.6739  C 67.4106 86.6739  65.4981 86.0564  65.4981 86.0564  C 65.4981 86.0564  63.4554 86.7469  63.4554 86.7469  C 63.4554 86.7469  61.6926 86.5841  61.6926 86.5841  C 61.6926 86.5841  60.2813 87.2689  60.2813 87.2689  C 60.2813 87.2689  59.6764 89.0093  59.6764 89.0093  C 59.6764 89.0093  59.3365 88.2009  59.3365 88.2009  C 59.3365 88.2009  59.9356 87.2352  59.9356 87.2352  C 59.9356 87.2352  58.4609 87.9875  58.4609 87.9875  C 58.4609 87.9875  58.4724 89.335  58.4724 89.335  C 58.4724 89.335  59.1637 89.1329  59.1637 89.1329  C 59.1637 89.1329  59.3711 89.6999  59.3711 89.6999  C 59.3711 89.6999  58.1901 91.7045  58.1901 91.7045  C 58.1901 91.7045  57.5968 94.4058  57.5968 94.4058  C 57.5968 94.4058  57.136 94.1138  57.136 94.1138  C 57.136 94.1138  55.6152 95.3157  55.6152 95.3157  C 55.6152 95.3157  54.9758 95.2427  54.9758 95.2427  C 54.9758 95.2427  54.1059 96.1976  54.1059 96.1976  C 54.1059 96.1976  53.2188 96.4335  53.2188 96.4335  C 53.2188 96.4335  52.6542 96.0291  52.6542 96.0291  C 52.6542 96.0291  51.6979 96.1694  51.6979 96.1694  C 51.6979 96.1694  51.1737 96.7425  51.1737 96.7425  C 51.1737 96.7425  50.782 98.0289  50.782 98.0289  C 50.782 98.0289  50.4825 100.1302  50.4825 100.1302  C 50.4825 100.1302  50.4479 101.8271  50.4479 101.8271  C 50.4479 101.8271  51.0585 104.4853  51.0585 104.4853  C 51.0585 104.4853  52.804 107.8467  52.804 107.8467  C 52.804 107.8467  51.7901 108.4989  51.7901 108.4989  C 51.7901 108.4989  49.1633 109.5164  49.1633 109.5164  C 49.1633 109.5164  47.8729 108.0885  47.8729 108.0885  C 47.8729 108.0885  46.3232 107.9873  46.3232 107.9873  C 46.3232 107.9873  45.1481 108.6844  45.1481 108.6844  C 45.1481 108.6844  44.6988 109.5502  44.6988 109.5502  C 44.6988 109.5502  43.345 109.6795  43.345 109.6795  C 43.345 109.6795  43.1434 110.461  43.1434 110.461  C 43.1434 110.461  42.5558 110.3486  42.5558 110.3486  C 42.5558 110.3486  41.6975 109.0217  41.6975 109.0217  C 41.6975 109.0217  41.7897 107.6443  41.7897 107.6443  C 41.7897 107.6443  41.0983 106.6719  41.0983 106.6719  C 41.0983 106.6719  39.8368 105.8792  39.8368 105.8792  C 39.8368 105.8792  39.4624 106.3121  39.4624 106.3121  C 39.4624 106.3121  39.9578 108.2009  39.9578 108.2009  C 39.9578 108.2009  39.9405 109.1342  39.9405 109.1342  C 39.9405 109.1342  39.4451 110.4273  39.4451 110.4273  C 39.4451 110.4273  38.6501 111.3382  38.6501 111.3382  C 38.6501 111.3382  37.2733 111.7487  37.2733 111.7487  C 37.2733 111.7487  37.1524 110.9615  37.1524 110.9615  C 37.1524 110.9615  38.6501 109.792  38.6501 109.792  C 38.6501 109.792  39.3529 108.8249  39.3529 108.8249  C 39.3529 108.8249  39.3817 107.9029  39.3817 107.9029  C 39.3817 107.9029  38.5982 105.3397  38.5982 105.3397  C 38.5982 105.3397  38.0049 104.4628  38.0049 104.4628  C 38.0049 104.4628  37.4173 104.6259  37.4173 104.6259  C 37.4173 104.6259  37.0256 106.6999  37.0256 106.6999  C 37.0256 106.6999  35.9887 106.1603  35.9887 106.1603  C 35.9887 106.1603  34.3872 103.4007  34.3872 103.4007  C 34.3872 103.4007  33.5174 102.524  33.5174 102.524  C 33.5174 102.524  32.2961 102.3554  32.2961 102.3554  C 32.2961 102.3554  30.879 102.8049  30.879 102.8049  C 30.879 102.8049  31.2822 101.3664  31.2822 101.3664  C 31.2822 101.3664  30.3893 99.6976  30.3893 99.6976  C 30.3893 99.6976  27.9757 98.2592  27.9757 98.2592  C 27.9757 98.2592  27.3132 97.5513999999999  27.3132 97.5513999999999  C 27.3132 97.5513999999999  26.4549 97.9783  26.4549 97.9783  C 26.4549 97.9783  26.0343 98.8828  26.0343 98.8828  C 26.0343 98.8828  25.2048 98.8211  25.2048 98.8211  C 25.2048 98.8211  24.4674 97.9109  24.4674 97.9109  C 24.4674 97.9109  24.4559 94.5463  24.4559 94.5463  C 24.4559 94.5463  26.0631 93.2432  26.0631 93.2432  C 26.0631 93.2432  25.222 92.4683  25.222 92.4683  C 25.222 92.4683  24.9974 89.5932  24.9974 89.5932  C 24.9974 89.5932  21.4546 85.1921  21.4546 85.1921  C 21.4546 85.1921  21.1147 84.2434  21.1147 84.2434  C 21.1147 84.2434  21.6044 81.5609  21.6044 81.5609  C 21.6044 81.5609  20.7057 79.6363  20.7057 79.6363  C 20.7057 79.6363  18.6492 78.5871  18.6492 78.5871  C 18.6492 78.5871  17.572 78.9237  17.572 78.9237  C 17.572 78.9237  16.7309 78.6769  16.7309 78.6769  C 16.7309 78.6769  15.6364 77.4875  15.6364 77.4875  C 15.6364 77.4875  13.309 78.4861  13.309 78.4861  C 13.309 78.4861  11.6442 77.8634  11.6442 77.8634  C 11.6442 77.8634  10.2674 78.6881  10.2674 78.6881  C 10.2674 78.6881  8.10149999999999 79.2772  8.10149999999999 79.2772  C 8.10149999999999 79.2772  6.00459999999998 78.099  6.00459999999998 78.099  C 6.00459999999998 78.099  5.64159999999998 77.4539  5.64159999999998 77.4539  C 5.64159999999998 77.4539  5.95280000000002 76.3431  5.95280000000002 76.3431  C 5.95280000000002 76.3431  4.5471 75.5017  4.5471 75.5017  C 4.5471 75.5017  4.51830000000001 73.9985  4.51830000000001 73.9985  C 4.51830000000001 73.9985  3.85590000000002 73.1517  3.85590000000002 73.1517  C 3.85590000000002 73.1517  2.42149999999998 73.0507  2.42149999999998 73.0507  C 2.42149999999998 73.0507  1.65530000000001 72.2937  1.65530000000001 72.2937  C 1.65530000000001 72.2937  0.912199999999984 70.7964  0.912199999999984 70.7964  C 0.912199999999984 70.7964  1.63799999999998 68.5649  1.63799999999998 68.5649  C 1.63799999999998 68.5649  1.18869999999998 67.3483  1.18869999999998 67.3483  C 1.18869999999998 67.3483  2.75560000000002 64.8483  2.75560000000002 64.8483  C 2.75560000000002 64.8483  1.45370000000003 64.086  1.45370000000003 64.086  C 1.45370000000003 64.086  0.992799999999988 63.2622  0.992799999999988 63.2622  C 0.992799999999988 63.2622  1.40190000000001 62.0797  1.40190000000001 62.0797  C 1.40190000000001 62.0797  1.16570000000002 60.6507  1.16570000000002 60.6507  C 1.16570000000002 60.6507  1.82229999999998 60.7516  1.82229999999998 60.7516  C 1.82229999999998 60.7516  2.46179999999998 59.0764  2.46179999999998 59.0764  C 2.46179999999998 59.0764  1.04469999999998 58.5665  1.04469999999998 58.5665  C 1.04469999999998 58.5665  0.992799999999988 56.9474  0.992799999999988 56.9474  C 0.992799999999988 56.9474  0.099899999999991 54.9671  0.099899999999991 54.9671  C 0.099899999999991 54.9671  0.710500000000025 52.7323  0.710500000000025 52.7323  C 0.710500000000025 52.7323  2.16800000000001 52.0098  2.16800000000001 52.0098  C 2.16800000000001 52.0098  2.04129999999998 51.209  2.04129999999998 51.209  C 2.04129999999998 51.209  3.18189999999998 50.8115  3.18189999999998 50.8115  C 3.18189999999998 50.8115  4.18430000000001 49.5348  4.18430000000001 49.5348  C 4.18430000000001 49.5348  5.29599999999999 49.4843  5.29599999999999 49.4843  C 5.29599999999999 49.4843  5.48039999999997 49.0028  5.48039999999997 49.0028  C 5.48039999999997 49.0028  7.02999999999997 48.0006  7.02999999999997 48.0006  C 7.02999999999997 48.0006  7.27769999999998 48.3477  7.27769999999998 48.3477  C 7.27769999999998 48.3477  8.56799999999998 47.8327  8.56799999999998 47.8327  C 8.56799999999998 47.8327  8.93099999999998 46.5786  8.93099999999998 46.5786  C 8.93099999999998 46.5786  9.46100000000001 46.5674  9.46100000000001 46.5674  C 9.46100000000001 46.5674  10.446 45.2743  10.446 45.2743  C 10.446 45.2743  11.5002 44.7034  11.5002 44.7034  C 11.5002 44.7034  12.9173 44.3731  12.9173 44.3731  C 12.9173 44.3731  14.2365 44.7258  14.2365 44.7258  C 14.2365 44.7258  15.0776 43.7406  15.0776 43.7406  C 15.0776 43.7406  16.3276 42.8955  16.3276 42.8955  C 16.3276 42.8955  16.8519 43.1417  16.8519 43.1417  C 16.8519 43.1417  17.1168 42.403  17.1168 42.403  C 17.1168 42.403  18.125 42.2687  18.125 42.2687  C 18.125 42.2687  19.0985 44.0764  19.0985 44.0764  C 19.0985 44.0764  21.5353 45.0952  21.5353 45.0952  C 21.5353 45.0952  23.6494 45.1903  23.6494 45.1903  C 23.6494 45.1903  24.0757 43.9869  24.0757 43.9869  C 24.0757 43.9869  23.8049 43.0466  23.8049 43.0466  C 23.8049 43.0466  24.3177 42.5709  24.3177 42.5709  C 24.3177 42.5709  24.4732 41.4796  24.4732 41.4796  C 24.4732 41.4796  25.5389 41.793  25.5389 41.793  C 25.5389 41.793  26.0689 41.4908  26.0689 41.4908  C 26.0689 41.4908  26.8869 38.7546  26.8869 38.7546  C 26.8869 38.7546  27.4457 37.988  27.4457 37.988  C 27.4457 37.988  27.2613 37.4734  27.2613 37.4734  C 27.2613 37.4734  27.8374 36.2649  27.8374 36.2649  C 27.8374 36.2649  27.1 35.8901  27.1 35.8901  C 27.1 35.8901  27.0079 34.2848  27.0079 34.2848  C 27.0079 34.2848  27.4053 34.2903  27.4053 34.2903  C 27.4053 34.2903  27.5551 32.9872  27.5551 32.9872  C 27.5551 32.9872  29.1277 31.6841  29.1277 31.6841  C 29.1277 31.6841  28.7706 30.2974  28.7706 30.2974  C 28.7706 30.2974  27.5205 29.2518  27.5205 29.2518  C 27.5205 29.2518  28.3789 27.9993  28.3789 27.9993  C 28.3789 27.9993  28.3616 26.8644  28.3616 26.8644  C 28.3616 26.8644  29.485 26.5179  29.485 26.5179  C 29.485 26.5179  30.2857 25.7687  30.2857 25.7687  C 30.2857 25.7687  31.0691 27.2669  31.0691 27.2669  C 31.0691 27.2669  31.7834 27.457  31.7834 27.457  C 31.7834 27.457  32.6648 25.9756  32.6648 25.9756  C 32.6648 25.9756  32.8607 24.9974  32.8607 24.9974  C 32.8607 24.9974  34.0185 24.2987  34.0185 24.2987  C 34.0185 24.2987  33.6902 23.5945  33.6902 23.5945  C 33.6902 23.5945  34.0473 22.8121  34.0473 22.8121  C 34.0473 22.8121  35.5278 24.1645  35.5278 24.1645  C 35.5278 24.1645  36.1903 25.8582  36.1903 25.8582  C 36.1903 25.8582  37.1005 25.7408  37.1005 25.7408  C 37.1005 25.7408  37.2791 24.5893  37.2791 24.5893  C 37.2791 24.5893  37.7399 24.1925  37.7399 24.1925  C 37.7399 24.1925  38.2296 22.5549  38.2296 22.5549  C 38.2296 22.5549  38.9612 22.6835  38.9612 22.6835  C 38.9612 22.6835  39.0649 23.8068  39.0649 23.8068  C 39.0649 23.8068  40.6548 23.7341  40.6548 23.7341  C 40.6548 23.7341  40.2976 22.7226  40.2976 22.7226  C 40.2976 22.7226  39.8771 20.3364  39.8771 20.3364  C 39.8771 20.3364  40.1075 19.9285  40.1075 19.9285  C 40.1075 19.9285  41.6457 20.152  41.6457 20.152  C 41.6457 20.152  42.792 18.3083  42.792 18.3083  C 42.792 18.3083  44.1688 18.068  44.1688 18.068  C 44.1688 18.068  45.3324 16.6714  45.3324 16.6714  C 45.3324 16.6714  45.3382 16.0401  45.3382 16.0401  C 45.3382 16.0401  47.5157 16.3418  47.5157 16.3418  C 47.5157 16.3418  48.2127 15.3642  48.2127 15.3642  C 48.2127 15.3642  48.7024 15.7497  48.7024 15.7497  C 48.7024 15.7497  49.8372 14.5823  49.8372 14.5823  C 49.8372 14.5823  51.0182 16.3194  51.0182 16.3194  C 51.0182 16.3194  52.1185 16.9116  52.1185 16.9116  C 52.1185 16.9116  52.1761 17.5484  52.1761 17.5484  C 52.1761 17.5484  53.9388 17.6825  53.9388 17.6825  C 53.9388 17.6825  54.9123 17.1742  54.9123 17.1742  C 54.9123 17.1742  55.6152 17.5429  55.6152 17.5429  C 55.6152 17.5429  56.5887 16.3083  56.5887 16.3083  C 56.5887 16.3083  57.689 16.2133  57.689 16.2133  C 57.689 16.2133  58.9794 16.9172  58.9794 16.9172  C 58.9794 16.9172  60.1085 14.4817  60.1085 14.4817  C 60.1085 14.4817  61.4449 14.8615  61.4449 14.8615  C 61.4449 14.8615  61.8942 15.9619  61.8942 15.9619  C 61.8942 15.9619  62.4357 15.9396  62.4357 15.9396  C 62.4357 15.9396  62.4357 17.3417  62.4357 17.3417  C 62.4357 17.3417  62.8851 17.7328  62.8851 17.7328  C 62.8851 17.7328  65.9013 18.0456  65.9013 18.0456  C 65.9013 18.0456  66.247 16.9227  66.247 16.9227  C 66.247 16.9227  68.7701 16.5317  68.7701 16.5317  C 68.7701 16.5317  70.0662 17.7048  70.0662 17.7048  C 70.0662 17.7048  72.9581 17.1295  72.9581 17.1295  C 72.9581 17.1295  73.7588 17.6434  73.7588 17.6434  C 73.7588 17.6434  74.283 17.1797  74.283 17.1797  C 74.283 17.1797  75.9018 16.7551  75.9018 16.7551  C 75.9018 16.7551  75.1184 14.9676  75.1184 14.9676  C 75.1184 14.9676  74.4213 15.0626  74.4213 15.0626  C 74.4213 15.0626  74.3752 14.2695  74.3752 14.2695  C 74.3752 14.2695  75.1702 13.387  75.1702 13.387  C 75.1702 13.387  75.4352 14.3924  75.4352 14.3924  C 75.4352 14.3924  76.8408 14.1298  76.8408 14.1298  C 76.8408 14.1298  77.7279 14.9118  77.7279 14.9118  C 77.7279 14.9118  77.7164 15.5876  77.7164 15.5876  C 77.7164 15.5876  76.6046 17.0177  76.6046 17.0177  C 76.6046 17.0177  77.7797 17.1573  77.7797 17.1573  C 77.7797 17.1573  79.1278 16.7328  79.1278 16.7328  C 79.1278 16.7328  79.5137 17.3808  79.5137 17.3808  C 79.5137 17.3808  80.1589 16.7216  80.1589 16.7216  C 80.1589 16.7216  80.0897 18.1295  80.0897 18.1295  C 80.0897 18.1295  81.7143 17.7775  81.7143 17.7775  C 81.7143 17.7775  82.7281 19.2972  82.7281 19.2972  C 82.7281 19.2972  82.8779 20.3364  82.8779 20.3364  C 82.8779 20.3364  85.3665 17.7775  85.3665 17.7775  C 85.3665 17.7775  86.7721 17.6546  86.7721 17.6546  C 86.7721 17.6546  87.1005 16.5037  87.1005 16.5037  C 87.1005 16.5037  84.8941 14.4147  84.8941 14.4147  C 84.8941 14.4147  84.7098 12.7671  84.7098 12.7671  C 84.7098 12.7671  85.0554 11.6  85.0554 11.6  C 85.0554 11.6  85.7006 11.17  85.7006 11.17  C 85.7006 11.17  86.0001 10.0811  86.0001 10.0811  C 86.0001 10.0811  87.112 9.00909999999999  87.112 9.00909999999999  C 87.112 9.00909999999999  87.3482 7.8981  87.3482 7.8981  C 87.3482 7.8981  87.8666 7.74180000000001  87.8666 7.74180000000001  C 87.8666 7.74180000000001  89.3932 5.85489999999999  89.3932 5.85489999999999  C 89.3932 5.85489999999999  90.5569 5.99450000000002  90.5569 5.99450000000002  C 90.5569 5.99450000000002  91.1041 5.01769999999999  91.1041 5.01769999999999  C 91.1041 5.01769999999999  92.0603 4.74979999999999  92.0603 4.74979999999999  C 92.0603 4.74979999999999  93.1895 5.89960000000002  93.1895 5.89960000000002  C 93.1895 5.89960000000002  93.7021 5.27449999999999  93.7021 5.27449999999999  C 93.7021 5.27449999999999  94.3531 5.654  94.3531 5.654  C 94.3531 5.654  95.1596 5.24099999999999  95.1596 5.24099999999999  C 95.1596 5.24099999999999  96.1331 5.58699999999999  96.1331 5.58699999999999  C 96.1331 5.58699999999999  95.9949 7.33420000000001  95.9949 7.33420000000001  C 95.9949 7.33420000000001  96.7092 7.1891  96.7092 7.1891  C 96.7092 7.1891  96.5421 6.11169999999998  96.5421 6.11169999999998  C 96.5421 6.11169999999998  96.859 5.59269999999998  96.859 5.59269999999998  C 96.859 5.59269999999998  97.9074 5.71539999999999  97.9074 5.71539999999999  C 97.9074 5.71539999999999  98.5181 5.34699999999998  98.5181 5.34699999999998  C 98.5181 5.34699999999998  98.9961 4.30880000000002  98.9961 4.30880000000002  C 98.9961 4.30880000000002  99.987 3.42700000000002  99.987 3.42700000000002  C 99.987 3.42700000000002  101.9514 5.0958  101.9514 5.0958  C 101.9514 5.0958  103.213 3.87349999999998  103.213 3.87349999999998  C 103.213 3.87349999999998  104.751 3.3768  104.751 3.3768  C 104.751 3.3768  104.895 2.66809999999998  104.895 2.66809999999998  C 104.895 2.66809999999998  105.425 3.03640000000001  105.425 3.03640000000001  C 105.425 3.03640000000001  105.8456 2.06529999999998  105.8456 2.06529999999998  C 105.8456 2.06529999999998  106.9862 0.486100000000022  106.9862 0.486100000000022  C 106.9862 0.486100000000022  109.0369 1.37900000000002  109.0369 1.37900000000002  C 109.0369 1.37900000000002  109.2443 2.34440000000001  109.2443 2.34440000000001  C 109.2443 2.34440000000001  110.1373 3.36559999999997  110.1373 3.36559999999997  C 110.1373 3.36559999999997  110.84 2.77969999999999  110.84 2.77969999999999  C 110.84 2.77969999999999  111.7099 2.69040000000001  111.7099 2.69040000000001  C 111.7099 2.69040000000001  112.0901 1.8254  112.0901 1.8254  C 112.0901 1.8254  112.8966 2.39460000000003  112.8966 2.39460000000003  C 112.8966 2.39460000000003  112.7122 2.6234  112.7122 2.6234  C 112.7122 2.6234  112.9484 6.13400000000001  112.9484 6.13400000000001  C 112.9484 6.13400000000001  114.0371 8.28890000000001  114.0371 8.28890000000001  C 114.0371 8.28890000000001  116.3472 9.76280000000003  116.3472 9.76280000000003  C 116.3472 9.76280000000003  117.3208 10.8963  117.3208 10.8963  C 117.3208 10.8963  117.1076 12.6498  117.1076 12.6498  C 117.1076 12.6498  117.747 12.5828  117.747 12.5828  C 117.747 12.5828  118.9625 13.1636  118.9625 13.1636  C 118.9625 13.1636  119.7517 12.2644  119.7517 12.2644  C 119.7517 12.2644  120.5064 13.0129  120.5064 13.0129  C 120.5064 13.0129  120.5064 10.2989  120.5064 10.2989  C 120.5064 10.2989  121.6066 10.0029  121.6066 10.0029  C 121.6066 10.0029  122.8279 10.2431  122.8279 10.2431  C 122.8279 10.2431  124.919 11.142  124.919 11.142  C 124.919 11.142  126.3534 11.5162  126.3534 11.5162  C 126.3534 11.5162  126.7221 12.3873  126.7221 12.3873  C 126.7221 12.3873  127.6841 13.1246  127.6841 13.1246  C 127.6841 13.1246  127.494 14.6548  127.494 14.6548  C 127.494 14.6548  128.1738 15.8614  128.1738 15.8614  C 128.1738 15.8614  128.1277 17.0401  128.1277 17.0401  C 128.1277 17.0401  128.6922 17.1853  128.6922 17.1853  C 128.6922 17.1853  128.5022 18.0513  128.5022 18.0513  C 128.5022 18.0513  127.6784 18.1407  127.6784 18.1407  C 127.6784 18.1407  127.661 19.0122  127.661 19.0122  C 127.661 19.0122  127.0331 19.733  127.0331 19.733  C 127.0331 19.733  126.2094 21.6943  126.2094 21.6943  C 126.2094 21.6943  124.752 23.4547  124.752 23.4547  C 124.752 23.4547  124.1356 24.7514  124.1356 24.7514  C 124.1356 24.7514  124.3602 25.629  124.3602 25.629  C 124.3602 25.629  125.5008 26.4004  125.5008 26.4004  C 125.5008 26.4004  126.4916 27.8371  126.4916 27.8371  C 126.4916 27.8371  126.8603 29.2069  126.8603 29.2069  C 126.8603 29.2069  127.6668 30.3868  127.6668 30.3868  C 127.6668 30.3868  127.7763 31.7792  127.7763 31.7792  C 127.7763 31.7792  127.1426 32.5845  127.1426 32.5845  C 127.1426 32.5845  126.7106 34.1617  126.7106 34.1617  C 126.7106 34.1617  126.7452 36.4999  126.7452 36.4999  C 126.7452 36.4999  126.388 37.2159  126.388 37.2159  C 126.388 37.2159  124.4639 37.9936  124.4639 37.9936  C 124.4639 37.9936  123.7208 37.6244  123.7208 37.6244  C 123.7208 37.6244  122.3382 36.0244  122.3382 36.0244  C 122.3382 36.0244  120.6907 35.3476  120.6907 35.3476  C 120.6907 35.3476  120.0513 34.2065  120.0513 34.2065  C 120.0513 34.2065  119.337 33.9771  119.337 33.9771  C 119.337 33.9771  118.9682 33.2109  118.9682 33.2109  C 118.9682 33.2109  119.4061 32.5566  119.4061 32.5566  C 119.4061 32.5566  118.7724 31.9861  118.7724 31.9861  C 118.7724 31.9861  118.2943 30.8397  118.2943 30.8397  C 118.2943 30.8397  117.8104 31.4716  117.8104 31.4716  C 117.8104 31.4716  117.8795 33.1885  117.8795 33.1885  C 117.8795 33.1885  116.5142 33.0766  116.5142 33.0766  C 116.5142 33.0766  115.5061 34.5532  115.5061 34.5532  C 115.5061 34.5532  114.8148 34.3127  114.8148 34.3127  C 114.8148 34.3127  114.4923 35.7223  114.4923 35.7223  C 114.4923 35.7223  113.8183 34.9392  113.8183 34.9392  C 113.8183 34.9392  112.9023 37.1264  112.9023 37.1264  C 112.9023 37.1264  114.2273 38.9448  114.2273 38.9448  C 114.2273 38.9448  113.801 39.2469  113.801 39.2469  C 113.801 39.2469  111.8366 37.1824  111.8366 37.1824  C 111.8366 37.1824  111.3585 37.1264  111.3585 37.1264  C 111.3585 37.1264  110.1948 38.0999  110.1948 38.0999  C 110.1948 38.0999  108.795 38.6818  108.795 38.6818  C 108.795 38.6818  107.6774 39.9799  107.6774 39.9799  C 107.6774 39.9799  106.5598 44.0821  106.5598 44.0821  C 106.5598 44.0821  106.5368 45.8621  106.5368 45.8621  C 106.5368 45.8621  107.1993 46.8809  107.1993 46.8809  C 107.1993 46.8809  107.3606 48.7117  107.3606 48.7117  C 107.3606 48.7117  105.8917 50.6547  105.8917 50.6547  C 105.8917 50.6547  105.0506 52.5307  105.0506 52.5307  C 105.0506 52.5307  104.4054 57.9951  104.4054 57.9951  C 104.4054 57.9951  104.4227 60.2642  104.4227 60.2642  C 104.4227 60.2642  104.8374 62.0517  104.8374 62.0517  C 104.8374 62.0517  106.3871 63.6265  106.3871 63.6265  C 106.3871 63.6265  106.629 64.271  106.629 64.271  C 106.629 64.271  106.364 65.336  106.364 65.336  C 106.364 65.336  106.629 66.3337  106.629 66.3337  C 106.629 66.3337  107.4701 67.836  107.4701 67.836  C 107.4701 67.836  107.7696 69.0863  107.7696 69.0863  C 107.7696 69.0863  108.3342 73.4153  108.3342 73.4153  C 108.3342 73.4153  107.6889 74.077  107.6889 74.077  C 107.6889 74.077  106.243 73.2022  106.243 73.2022  C 106.243 73.2022  106.3813 74.3127  106.3813 74.3127  C 106.3813 74.3127  107.2454 75.2437  107.2454 75.2437  C 107.2454 75.2437  107.9655 75.4905  107.9655 75.4905  C 107.9655 75.4905  108.2247 76.2422  108.2247 76.2422  C 108.2247 76.2422  107.8329 76.8985  107.8329 76.8985  C 107.8329 76.8985  107.7927 78.43  107.7927 78.43  C 107.7927 78.43  108.7259 77.4539  108.7259 77.4539  Z M 49.3879 109.163  C 49.3879 109.163  49.8776 108.8707  49.8776 108.8707  C 49.8776 108.8707  52.5655 111.8162  52.5655 111.8162  C 52.5655 111.8162  52.1392 112.4236  52.1392 112.4236  C 52.1392 112.4236  49.8142 111.7375  49.8142 111.7375  C 49.8142 111.7375  49.3879 109.163  49.3879 109.163  Z " fill-rule="evenodd" />
    </mask>
  </defs>
  <g transform="matrix(1 0 0 1 -433 -527 )">
    <path d="M 108.7259 77.4539  C 108.7259 77.4539  108.7662 79.4286  108.7662 79.4286  C 108.7662 79.4286  107.7466 78.9743  107.7466 78.9743  C 107.7466 78.9743  107.2224 79.2491  107.2224 79.2491  C 107.2224 79.2491  106.4274 80.5902  106.4274 80.5902  C 106.4274 80.5902  105.0736 80.938  105.0736 80.938  C 105.0736 80.938  103.668 80.1132  103.668 80.1132  C 103.668 80.1132  102.4122 83.0368  102.4122 83.0368  C 102.4122 83.0368  100.154 82.2568  100.154 82.2568  C 100.154 82.2568  99.699 81.7517  99.699 81.7517  C 99.699 81.7517  99.3821 80.1918  99.3821 80.1918  C 99.3821 80.1918  98.5986 80.2703  98.5986 80.2703  C 98.5986 80.2703  98.23 81.7517  98.23 81.7517  C 98.23 81.7517  97.7058 81.7741  97.7058 81.7741  C 97.7058 81.7741  96.4327 80.7248  96.4327 80.7248  C 96.4327 80.7248  96.2598 78.834  96.2598 78.834  C 96.2598 78.834  95.0674 78.4749  95.0674 78.4749  C 95.0674 78.4749  94.451 79.7093  94.451 79.7093  C 94.451 79.7093  92.9129 79.3109  92.9129 79.3109  C 92.9129 79.3109  92.3599 79.5802  92.3599 79.5802  C 92.3599 79.5802  92.2793 81.3421  92.2793 81.3421  C 92.2793 81.3421  91.058 80.5172  91.058 80.5172  C 91.058 80.5172  90.073 81.0671  90.073 81.0671  C 90.073 81.0671  88.5061 79.4736  88.5061 79.4736  C 88.5061 79.4736  87.4058 80.4274  87.4058 80.4274  C 87.4058 80.4274  87.3193 81.4431  87.3193 81.4431  C 87.3193 81.4431  86.2882 81.9537  86.2882 81.9537  C 86.2882 81.9537  85.9944 81.4207  85.9944 81.4207  C 85.9944 81.4207  86.4322 80.2086  86.4322 80.2086  C 86.4322 80.2086  85.7294 79.7541  85.7294 79.7541  C 85.7294 79.7541  85.4529 80.4555  85.4529 80.4555  C 85.4529 80.4555  84.7674 78.8172  84.7674 78.8172  C 84.7674 78.8172  84.0761 79.5073  84.0761 79.5073  C 84.0761 79.5073  83.0046 79.2154  83.0046 79.2154  C 83.0046 79.2154  83.045 80.0122  83.045 80.0122  C 83.045 80.0122  83.8514 81.2747  83.8514 81.2747  C 83.8514 81.2747  82.4171 81.2018  82.4171 81.2018  C 82.4171 81.2018  82.5553 82.9583  82.5553 82.9583  C 82.5553 82.9583  82.0714 83.772  82.0714 83.772  C 82.0714 83.772  80.3029 85.1472  80.3029 85.1472  C 80.3029 85.1472  74.4386 85.2986  74.4386 85.2986  C 74.4386 85.2986  73.4881 85.8768  73.4881 85.8768  C 73.4881 85.8768  72.8544 85.6017  72.8544 85.6017  C 72.8544 85.6017  71.3969 83.2221  71.3969 83.2221  C 71.3969 83.2221  70.6653 82.9021  70.6653 82.9021  C 70.6653 82.9021  69.9395 83.1827  69.9395 83.1827  C 69.9395 83.1827  69.1791 85.1808  69.1791 85.1808  C 69.1791 85.1808  67.4106 86.6739  67.4106 86.6739  C 67.4106 86.6739  65.4981 86.0564  65.4981 86.0564  C 65.4981 86.0564  63.4554 86.7469  63.4554 86.7469  C 63.4554 86.7469  61.6926 86.5841  61.6926 86.5841  C 61.6926 86.5841  60.2813 87.2689  60.2813 87.2689  C 60.2813 87.2689  59.6764 89.0093  59.6764 89.0093  C 59.6764 89.0093  59.3365 88.2009  59.3365 88.2009  C 59.3365 88.2009  59.9356 87.2352  59.9356 87.2352  C 59.9356 87.2352  58.4609 87.9875  58.4609 87.9875  C 58.4609 87.9875  58.4724 89.335  58.4724 89.335  C 58.4724 89.335  59.1637 89.1329  59.1637 89.1329  C 59.1637 89.1329  59.3711 89.6999  59.3711 89.6999  C 59.3711 89.6999  58.1901 91.7045  58.1901 91.7045  C 58.1901 91.7045  57.5968 94.4058  57.5968 94.4058  C 57.5968 94.4058  57.136 94.1138  57.136 94.1138  C 57.136 94.1138  55.6152 95.3157  55.6152 95.3157  C 55.6152 95.3157  54.9758 95.2427  54.9758 95.2427  C 54.9758 95.2427  54.1059 96.1976  54.1059 96.1976  C 54.1059 96.1976  53.2188 96.4335  53.2188 96.4335  C 53.2188 96.4335  52.6542 96.0291  52.6542 96.0291  C 52.6542 96.0291  51.6979 96.1694  51.6979 96.1694  C 51.6979 96.1694  51.1737 96.7425  51.1737 96.7425  C 51.1737 96.7425  50.782 98.0289  50.782 98.0289  C 50.782 98.0289  50.4825 100.1302  50.4825 100.1302  C 50.4825 100.1302  50.4479 101.8271  50.4479 101.8271  C 50.4479 101.8271  51.0585 104.4853  51.0585 104.4853  C 51.0585 104.4853  52.804 107.8467  52.804 107.8467  C 52.804 107.8467  51.7901 108.4989  51.7901 108.4989  C 51.7901 108.4989  49.1633 109.5164  49.1633 109.5164  C 49.1633 109.5164  47.8729 108.0885  47.8729 108.0885  C 47.8729 108.0885  46.3232 107.9873  46.3232 107.9873  C 46.3232 107.9873  45.1481 108.6844  45.1481 108.6844  C 45.1481 108.6844  44.6988 109.5502  44.6988 109.5502  C 44.6988 109.5502  43.345 109.6795  43.345 109.6795  C 43.345 109.6795  43.1434 110.461  43.1434 110.461  C 43.1434 110.461  42.5558 110.3486  42.5558 110.3486  C 42.5558 110.3486  41.6975 109.0217  41.6975 109.0217  C 41.6975 109.0217  41.7897 107.6443  41.7897 107.6443  C 41.7897 107.6443  41.0983 106.6719  41.0983 106.6719  C 41.0983 106.6719  39.8368 105.8792  39.8368 105.8792  C 39.8368 105.8792  39.4624 106.3121  39.4624 106.3121  C 39.4624 106.3121  39.9578 108.2009  39.9578 108.2009  C 39.9578 108.2009  39.9405 109.1342  39.9405 109.1342  C 39.9405 109.1342  39.4451 110.4273  39.4451 110.4273  C 39.4451 110.4273  38.6501 111.3382  38.6501 111.3382  C 38.6501 111.3382  37.2733 111.7487  37.2733 111.7487  C 37.2733 111.7487  37.1524 110.9615  37.1524 110.9615  C 37.1524 110.9615  38.6501 109.792  38.6501 109.792  C 38.6501 109.792  39.3529 108.8249  39.3529 108.8249  C 39.3529 108.8249  39.3817 107.9029  39.3817 107.9029  C 39.3817 107.9029  38.5982 105.3397  38.5982 105.3397  C 38.5982 105.3397  38.0049 104.4628  38.0049 104.4628  C 38.0049 104.4628  37.4173 104.6259  37.4173 104.6259  C 37.4173 104.6259  37.0256 106.6999  37.0256 106.6999  C 37.0256 106.6999  35.9887 106.1603  35.9887 106.1603  C 35.9887 106.1603  34.3872 103.4007  34.3872 103.4007  C 34.3872 103.4007  33.5174 102.524  33.5174 102.524  C 33.5174 102.524  32.2961 102.3554  32.2961 102.3554  C 32.2961 102.3554  30.879 102.8049  30.879 102.8049  C 30.879 102.8049  31.2822 101.3664  31.2822 101.3664  C 31.2822 101.3664  30.3893 99.6976  30.3893 99.6976  C 30.3893 99.6976  27.9757 98.2592  27.9757 98.2592  C 27.9757 98.2592  27.3132 97.5513999999999  27.3132 97.5513999999999  C 27.3132 97.5513999999999  26.4549 97.9783  26.4549 97.9783  C 26.4549 97.9783  26.0343 98.8828  26.0343 98.8828  C 26.0343 98.8828  25.2048 98.8211  25.2048 98.8211  C 25.2048 98.8211  24.4674 97.9109  24.4674 97.9109  C 24.4674 97.9109  24.4559 94.5463  24.4559 94.5463  C 24.4559 94.5463  26.0631 93.2432  26.0631 93.2432  C 26.0631 93.2432  25.222 92.4683  25.222 92.4683  C 25.222 92.4683  24.9974 89.5932  24.9974 89.5932  C 24.9974 89.5932  21.4546 85.1921  21.4546 85.1921  C 21.4546 85.1921  21.1147 84.2434  21.1147 84.2434  C 21.1147 84.2434  21.6044 81.5609  21.6044 81.5609  C 21.6044 81.5609  20.7057 79.6363  20.7057 79.6363  C 20.7057 79.6363  18.6492 78.5871  18.6492 78.5871  C 18.6492 78.5871  17.572 78.9237  17.572 78.9237  C 17.572 78.9237  16.7309 78.6769  16.7309 78.6769  C 16.7309 78.6769  15.6364 77.4875  15.6364 77.4875  C 15.6364 77.4875  13.309 78.4861  13.309 78.4861  C 13.309 78.4861  11.6442 77.8634  11.6442 77.8634  C 11.6442 77.8634  10.2674 78.6881  10.2674 78.6881  C 10.2674 78.6881  8.10149999999999 79.2772  8.10149999999999 79.2772  C 8.10149999999999 79.2772  6.00459999999998 78.099  6.00459999999998 78.099  C 6.00459999999998 78.099  5.64159999999998 77.4539  5.64159999999998 77.4539  C 5.64159999999998 77.4539  5.95280000000002 76.3431  5.95280000000002 76.3431  C 5.95280000000002 76.3431  4.5471 75.5017  4.5471 75.5017  C 4.5471 75.5017  4.51830000000001 73.9985  4.51830000000001 73.9985  C 4.51830000000001 73.9985  3.85590000000002 73.1517  3.85590000000002 73.1517  C 3.85590000000002 73.1517  2.42149999999998 73.0507  2.42149999999998 73.0507  C 2.42149999999998 73.0507  1.65530000000001 72.2937  1.65530000000001 72.2937  C 1.65530000000001 72.2937  0.912199999999984 70.7964  0.912199999999984 70.7964  C 0.912199999999984 70.7964  1.63799999999998 68.5649  1.63799999999998 68.5649  C 1.63799999999998 68.5649  1.18869999999998 67.3483  1.18869999999998 67.3483  C 1.18869999999998 67.3483  2.75560000000002 64.8483  2.75560000000002 64.8483  C 2.75560000000002 64.8483  1.45370000000003 64.086  1.45370000000003 64.086  C 1.45370000000003 64.086  0.992799999999988 63.2622  0.992799999999988 63.2622  C 0.992799999999988 63.2622  1.40190000000001 62.0797  1.40190000000001 62.0797  C 1.40190000000001 62.0797  1.16570000000002 60.6507  1.16570000000002 60.6507  C 1.16570000000002 60.6507  1.82229999999998 60.7516  1.82229999999998 60.7516  C 1.82229999999998 60.7516  2.46179999999998 59.0764  2.46179999999998 59.0764  C 2.46179999999998 59.0764  1.04469999999998 58.5665  1.04469999999998 58.5665  C 1.04469999999998 58.5665  0.992799999999988 56.9474  0.992799999999988 56.9474  C 0.992799999999988 56.9474  0.099899999999991 54.9671  0.099899999999991 54.9671  C 0.099899999999991 54.9671  0.710500000000025 52.7323  0.710500000000025 52.7323  C 0.710500000000025 52.7323  2.16800000000001 52.0098  2.16800000000001 52.0098  C 2.16800000000001 52.0098  2.04129999999998 51.209  2.04129999999998 51.209  C 2.04129999999998 51.209  3.18189999999998 50.8115  3.18189999999998 50.8115  C 3.18189999999998 50.8115  4.18430000000001 49.5348  4.18430000000001 49.5348  C 4.18430000000001 49.5348  5.29599999999999 49.4843  5.29599999999999 49.4843  C 5.29599999999999 49.4843  5.48039999999997 49.0028  5.48039999999997 49.0028  C 5.48039999999997 49.0028  7.02999999999997 48.0006  7.02999999999997 48.0006  C 7.02999999999997 48.0006  7.27769999999998 48.3477  7.27769999999998 48.3477  C 7.27769999999998 48.3477  8.56799999999998 47.8327  8.56799999999998 47.8327  C 8.56799999999998 47.8327  8.93099999999998 46.5786  8.93099999999998 46.5786  C 8.93099999999998 46.5786  9.46100000000001 46.5674  9.46100000000001 46.5674  C 9.46100000000001 46.5674  10.446 45.2743  10.446 45.2743  C 10.446 45.2743  11.5002 44.7034  11.5002 44.7034  C 11.5002 44.7034  12.9173 44.3731  12.9173 44.3731  C 12.9173 44.3731  14.2365 44.7258  14.2365 44.7258  C 14.2365 44.7258  15.0776 43.7406  15.0776 43.7406  C 15.0776 43.7406  16.3276 42.8955  16.3276 42.8955  C 16.3276 42.8955  16.8519 43.1417  16.8519 43.1417  C 16.8519 43.1417  17.1168 42.403  17.1168 42.403  C 17.1168 42.403  18.125 42.2687  18.125 42.2687  C 18.125 42.2687  19.0985 44.0764  19.0985 44.0764  C 19.0985 44.0764  21.5353 45.0952  21.5353 45.0952  C 21.5353 45.0952  23.6494 45.1903  23.6494 45.1903  C 23.6494 45.1903  24.0757 43.9869  24.0757 43.9869  C 24.0757 43.9869  23.8049 43.0466  23.8049 43.0466  C 23.8049 43.0466  24.3177 42.5709  24.3177 42.5709  C 24.3177 42.5709  24.4732 41.4796  24.4732 41.4796  C 24.4732 41.4796  25.5389 41.793  25.5389 41.793  C 25.5389 41.793  26.0689 41.4908  26.0689 41.4908  C 26.0689 41.4908  26.8869 38.7546  26.8869 38.7546  C 26.8869 38.7546  27.4457 37.988  27.4457 37.988  C 27.4457 37.988  27.2613 37.4734  27.2613 37.4734  C 27.2613 37.4734  27.8374 36.2649  27.8374 36.2649  C 27.8374 36.2649  27.1 35.8901  27.1 35.8901  C 27.1 35.8901  27.0079 34.2848  27.0079 34.2848  C 27.0079 34.2848  27.4053 34.2903  27.4053 34.2903  C 27.4053 34.2903  27.5551 32.9872  27.5551 32.9872  C 27.5551 32.9872  29.1277 31.6841  29.1277 31.6841  C 29.1277 31.6841  28.7706 30.2974  28.7706 30.2974  C 28.7706 30.2974  27.5205 29.2518  27.5205 29.2518  C 27.5205 29.2518  28.3789 27.9993  28.3789 27.9993  C 28.3789 27.9993  28.3616 26.8644  28.3616 26.8644  C 28.3616 26.8644  29.485 26.5179  29.485 26.5179  C 29.485 26.5179  30.2857 25.7687  30.2857 25.7687  C 30.2857 25.7687  31.0691 27.2669  31.0691 27.2669  C 31.0691 27.2669  31.7834 27.457  31.7834 27.457  C 31.7834 27.457  32.6648 25.9756  32.6648 25.9756  C 32.6648 25.9756  32.8607 24.9974  32.8607 24.9974  C 32.8607 24.9974  34.0185 24.2987  34.0185 24.2987  C 34.0185 24.2987  33.6902 23.5945  33.6902 23.5945  C 33.6902 23.5945  34.0473 22.8121  34.0473 22.8121  C 34.0473 22.8121  35.5278 24.1645  35.5278 24.1645  C 35.5278 24.1645  36.1903 25.8582  36.1903 25.8582  C 36.1903 25.8582  37.1005 25.7408  37.1005 25.7408  C 37.1005 25.7408  37.2791 24.5893  37.2791 24.5893  C 37.2791 24.5893  37.7399 24.1925  37.7399 24.1925  C 37.7399 24.1925  38.2296 22.5549  38.2296 22.5549  C 38.2296 22.5549  38.9612 22.6835  38.9612 22.6835  C 38.9612 22.6835  39.0649 23.8068  39.0649 23.8068  C 39.0649 23.8068  40.6548 23.7341  40.6548 23.7341  C 40.6548 23.7341  40.2976 22.7226  40.2976 22.7226  C 40.2976 22.7226  39.8771 20.3364  39.8771 20.3364  C 39.8771 20.3364  40.1075 19.9285  40.1075 19.9285  C 40.1075 19.9285  41.6457 20.152  41.6457 20.152  C 41.6457 20.152  42.792 18.3083  42.792 18.3083  C 42.792 18.3083  44.1688 18.068  44.1688 18.068  C 44.1688 18.068  45.3324 16.6714  45.3324 16.6714  C 45.3324 16.6714  45.3382 16.0401  45.3382 16.0401  C 45.3382 16.0401  47.5157 16.3418  47.5157 16.3418  C 47.5157 16.3418  48.2127 15.3642  48.2127 15.3642  C 48.2127 15.3642  48.7024 15.7497  48.7024 15.7497  C 48.7024 15.7497  49.8372 14.5823  49.8372 14.5823  C 49.8372 14.5823  51.0182 16.3194  51.0182 16.3194  C 51.0182 16.3194  52.1185 16.9116  52.1185 16.9116  C 52.1185 16.9116  52.1761 17.5484  52.1761 17.5484  C 52.1761 17.5484  53.9388 17.6825  53.9388 17.6825  C 53.9388 17.6825  54.9123 17.1742  54.9123 17.1742  C 54.9123 17.1742  55.6152 17.5429  55.6152 17.5429  C 55.6152 17.5429  56.5887 16.3083  56.5887 16.3083  C 56.5887 16.3083  57.689 16.2133  57.689 16.2133  C 57.689 16.2133  58.9794 16.9172  58.9794 16.9172  C 58.9794 16.9172  60.1085 14.4817  60.1085 14.4817  C 60.1085 14.4817  61.4449 14.8615  61.4449 14.8615  C 61.4449 14.8615  61.8942 15.9619  61.8942 15.9619  C 61.8942 15.9619  62.4357 15.9396  62.4357 15.9396  C 62.4357 15.9396  62.4357 17.3417  62.4357 17.3417  C 62.4357 17.3417  62.8851 17.7328  62.8851 17.7328  C 62.8851 17.7328  65.9013 18.0456  65.9013 18.0456  C 65.9013 18.0456  66.247 16.9227  66.247 16.9227  C 66.247 16.9227  68.7701 16.5317  68.7701 16.5317  C 68.7701 16.5317  70.0662 17.7048  70.0662 17.7048  C 70.0662 17.7048  72.9581 17.1295  72.9581 17.1295  C 72.9581 17.1295  73.7588 17.6434  73.7588 17.6434  C 73.7588 17.6434  74.283 17.1797  74.283 17.1797  C 74.283 17.1797  75.9018 16.7551  75.9018 16.7551  C 75.9018 16.7551  75.1184 14.9676  75.1184 14.9676  C 75.1184 14.9676  74.4213 15.0626  74.4213 15.0626  C 74.4213 15.0626  74.3752 14.2695  74.3752 14.2695  C 74.3752 14.2695  75.1702 13.387  75.1702 13.387  C 75.1702 13.387  75.4352 14.3924  75.4352 14.3924  C 75.4352 14.3924  76.8408 14.1298  76.8408 14.1298  C 76.8408 14.1298  77.7279 14.9118  77.7279 14.9118  C 77.7279 14.9118  77.7164 15.5876  77.7164 15.5876  C 77.7164 15.5876  76.6046 17.0177  76.6046 17.0177  C 76.6046 17.0177  77.7797 17.1573  77.7797 17.1573  C 77.7797 17.1573  79.1278 16.7328  79.1278 16.7328  C 79.1278 16.7328  79.5137 17.3808  79.5137 17.3808  C 79.5137 17.3808  80.1589 16.7216  80.1589 16.7216  C 80.1589 16.7216  80.0897 18.1295  80.0897 18.1295  C 80.0897 18.1295  81.7143 17.7775  81.7143 17.7775  C 81.7143 17.7775  82.7281 19.2972  82.7281 19.2972  C 82.7281 19.2972  82.8779 20.3364  82.8779 20.3364  C 82.8779 20.3364  85.3665 17.7775  85.3665 17.7775  C 85.3665 17.7775  86.7721 17.6546  86.7721 17.6546  C 86.7721 17.6546  87.1005 16.5037  87.1005 16.5037  C 87.1005 16.5037  84.8941 14.4147  84.8941 14.4147  C 84.8941 14.4147  84.7098 12.7671  84.7098 12.7671  C 84.7098 12.7671  85.0554 11.6  85.0554 11.6  C 85.0554 11.6  85.7006 11.17  85.7006 11.17  C 85.7006 11.17  86.0001 10.0811  86.0001 10.0811  C 86.0001 10.0811  87.112 9.00909999999999  87.112 9.00909999999999  C 87.112 9.00909999999999  87.3482 7.8981  87.3482 7.8981  C 87.3482 7.8981  87.8666 7.74180000000001  87.8666 7.74180000000001  C 87.8666 7.74180000000001  89.3932 5.85489999999999  89.3932 5.85489999999999  C 89.3932 5.85489999999999  90.5569 5.99450000000002  90.5569 5.99450000000002  C 90.5569 5.99450000000002  91.1041 5.01769999999999  91.1041 5.01769999999999  C 91.1041 5.01769999999999  92.0603 4.74979999999999  92.0603 4.74979999999999  C 92.0603 4.74979999999999  93.1895 5.89960000000002  93.1895 5.89960000000002  C 93.1895 5.89960000000002  93.7021 5.27449999999999  93.7021 5.27449999999999  C 93.7021 5.27449999999999  94.3531 5.654  94.3531 5.654  C 94.3531 5.654  95.1596 5.24099999999999  95.1596 5.24099999999999  C 95.1596 5.24099999999999  96.1331 5.58699999999999  96.1331 5.58699999999999  C 96.1331 5.58699999999999  95.9949 7.33420000000001  95.9949 7.33420000000001  C 95.9949 7.33420000000001  96.7092 7.1891  96.7092 7.1891  C 96.7092 7.1891  96.5421 6.11169999999998  96.5421 6.11169999999998  C 96.5421 6.11169999999998  96.859 5.59269999999998  96.859 5.59269999999998  C 96.859 5.59269999999998  97.9074 5.71539999999999  97.9074 5.71539999999999  C 97.9074 5.71539999999999  98.5181 5.34699999999998  98.5181 5.34699999999998  C 98.5181 5.34699999999998  98.9961 4.30880000000002  98.9961 4.30880000000002  C 98.9961 4.30880000000002  99.987 3.42700000000002  99.987 3.42700000000002  C 99.987 3.42700000000002  101.9514 5.0958  101.9514 5.0958  C 101.9514 5.0958  103.213 3.87349999999998  103.213 3.87349999999998  C 103.213 3.87349999999998  104.751 3.3768  104.751 3.3768  C 104.751 3.3768  104.895 2.66809999999998  104.895 2.66809999999998  C 104.895 2.66809999999998  105.425 3.03640000000001  105.425 3.03640000000001  C 105.425 3.03640000000001  105.8456 2.06529999999998  105.8456 2.06529999999998  C 105.8456 2.06529999999998  106.9862 0.486100000000022  106.9862 0.486100000000022  C 106.9862 0.486100000000022  109.0369 1.37900000000002  109.0369 1.37900000000002  C 109.0369 1.37900000000002  109.2443 2.34440000000001  109.2443 2.34440000000001  C 109.2443 2.34440000000001  110.1373 3.36559999999997  110.1373 3.36559999999997  C 110.1373 3.36559999999997  110.84 2.77969999999999  110.84 2.77969999999999  C 110.84 2.77969999999999  111.7099 2.69040000000001  111.7099 2.69040000000001  C 111.7099 2.69040000000001  112.0901 1.8254  112.0901 1.8254  C 112.0901 1.8254  112.8966 2.39460000000003  112.8966 2.39460000000003  C 112.8966 2.39460000000003  112.7122 2.6234  112.7122 2.6234  C 112.7122 2.6234  112.9484 6.13400000000001  112.9484 6.13400000000001  C 112.9484 6.13400000000001  114.0371 8.28890000000001  114.0371 8.28890000000001  C 114.0371 8.28890000000001  116.3472 9.76280000000003  116.3472 9.76280000000003  C 116.3472 9.76280000000003  117.3208 10.8963  117.3208 10.8963  C 117.3208 10.8963  117.1076 12.6498  117.1076 12.6498  C 117.1076 12.6498  117.747 12.5828  117.747 12.5828  C 117.747 12.5828  118.9625 13.1636  118.9625 13.1636  C 118.9625 13.1636  119.7517 12.2644  119.7517 12.2644  C 119.7517 12.2644  120.5064 13.0129  120.5064 13.0129  C 120.5064 13.0129  120.5064 10.2989  120.5064 10.2989  C 120.5064 10.2989  121.6066 10.0029  121.6066 10.0029  C 121.6066 10.0029  122.8279 10.2431  122.8279 10.2431  C 122.8279 10.2431  124.919 11.142  124.919 11.142  C 124.919 11.142  126.3534 11.5162  126.3534 11.5162  C 126.3534 11.5162  126.7221 12.3873  126.7221 12.3873  C 126.7221 12.3873  127.6841 13.1246  127.6841 13.1246  C 127.6841 13.1246  127.494 14.6548  127.494 14.6548  C 127.494 14.6548  128.1738 15.8614  128.1738 15.8614  C 128.1738 15.8614  128.1277 17.0401  128.1277 17.0401  C 128.1277 17.0401  128.6922 17.1853  128.6922 17.1853  C 128.6922 17.1853  128.5022 18.0513  128.5022 18.0513  C 128.5022 18.0513  127.6784 18.1407  127.6784 18.1407  C 127.6784 18.1407  127.661 19.0122  127.661 19.0122  C 127.661 19.0122  127.0331 19.733  127.0331 19.733  C 127.0331 19.733  126.2094 21.6943  126.2094 21.6943  C 126.2094 21.6943  124.752 23.4547  124.752 23.4547  C 124.752 23.4547  124.1356 24.7514  124.1356 24.7514  C 124.1356 24.7514  124.3602 25.629  124.3602 25.629  C 124.3602 25.629  125.5008 26.4004  125.5008 26.4004  C 125.5008 26.4004  126.4916 27.8371  126.4916 27.8371  C 126.4916 27.8371  126.8603 29.2069  126.8603 29.2069  C 126.8603 29.2069  127.6668 30.3868  127.6668 30.3868  C 127.6668 30.3868  127.7763 31.7792  127.7763 31.7792  C 127.7763 31.7792  127.1426 32.5845  127.1426 32.5845  C 127.1426 32.5845  126.7106 34.1617  126.7106 34.1617  C 126.7106 34.1617  126.7452 36.4999  126.7452 36.4999  C 126.7452 36.4999  126.388 37.2159  126.388 37.2159  C 126.388 37.2159  124.4639 37.9936  124.4639 37.9936  C 124.4639 37.9936  123.7208 37.6244  123.7208 37.6244  C 123.7208 37.6244  122.3382 36.0244  122.3382 36.0244  C 122.3382 36.0244  120.6907 35.3476  120.6907 35.3476  C 120.6907 35.3476  120.0513 34.2065  120.0513 34.2065  C 120.0513 34.2065  119.337 33.9771  119.337 33.9771  C 119.337 33.9771  118.9682 33.2109  118.9682 33.2109  C 118.9682 33.2109  119.4061 32.5566  119.4061 32.5566  C 119.4061 32.5566  118.7724 31.9861  118.7724 31.9861  C 118.7724 31.9861  118.2943 30.8397  118.2943 30.8397  C 118.2943 30.8397  117.8104 31.4716  117.8104 31.4716  C 117.8104 31.4716  117.8795 33.1885  117.8795 33.1885  C 117.8795 33.1885  116.5142 33.0766  116.5142 33.0766  C 116.5142 33.0766  115.5061 34.5532  115.5061 34.5532  C 115.5061 34.5532  114.8148 34.3127  114.8148 34.3127  C 114.8148 34.3127  114.4923 35.7223  114.4923 35.7223  C 114.4923 35.7223  113.8183 34.9392  113.8183 34.9392  C 113.8183 34.9392  112.9023 37.1264  112.9023 37.1264  C 112.9023 37.1264  114.2273 38.9448  114.2273 38.9448  C 114.2273 38.9448  113.801 39.2469  113.801 39.2469  C 113.801 39.2469  111.8366 37.1824  111.8366 37.1824  C 111.8366 37.1824  111.3585 37.1264  111.3585 37.1264  C 111.3585 37.1264  110.1948 38.0999  110.1948 38.0999  C 110.1948 38.0999  108.795 38.6818  108.795 38.6818  C 108.795 38.6818  107.6774 39.9799  107.6774 39.9799  C 107.6774 39.9799  106.5598 44.0821  106.5598 44.0821  C 106.5598 44.0821  106.5368 45.8621  106.5368 45.8621  C 106.5368 45.8621  107.1993 46.8809  107.1993 46.8809  C 107.1993 46.8809  107.3606 48.7117  107.3606 48.7117  C 107.3606 48.7117  105.8917 50.6547  105.8917 50.6547  C 105.8917 50.6547  105.0506 52.5307  105.0506 52.5307  C 105.0506 52.5307  104.4054 57.9951  104.4054 57.9951  C 104.4054 57.9951  104.4227 60.2642  104.4227 60.2642  C 104.4227 60.2642  104.8374 62.0517  104.8374 62.0517  C 104.8374 62.0517  106.3871 63.6265  106.3871 63.6265  C 106.3871 63.6265  106.629 64.271  106.629 64.271  C 106.629 64.271  106.364 65.336  106.364 65.336  C 106.364 65.336  106.629 66.3337  106.629 66.3337  C 106.629 66.3337  107.4701 67.836  107.4701 67.836  C 107.4701 67.836  107.7696 69.0863  107.7696 69.0863  C 107.7696 69.0863  108.3342 73.4153  108.3342 73.4153  C 108.3342 73.4153  107.6889 74.077  107.6889 74.077  C 107.6889 74.077  106.243 73.2022  106.243 73.2022  C 106.243 73.2022  106.3813 74.3127  106.3813 74.3127  C 106.3813 74.3127  107.2454 75.2437  107.2454 75.2437  C 107.2454 75.2437  107.9655 75.4905  107.9655 75.4905  C 107.9655 75.4905  108.2247 76.2422  108.2247 76.2422  C 108.2247 76.2422  107.8329 76.8985  107.8329 76.8985  C 107.8329 76.8985  107.7927 78.43  107.7927 78.43  C 107.7927 78.43  108.7259 77.4539  108.7259 77.4539  Z M 49.3879 109.163  C 49.3879 109.163  49.8776 108.8707  49.8776 108.8707  C 49.8776 108.8707  52.5655 111.8162  52.5655 111.8162  C 52.5655 111.8162  52.1392 112.4236  52.1392 112.4236  C 52.1392 112.4236  49.8142 111.7375  49.8142 111.7375  C 49.8142 111.7375  49.3879 109.163  49.3879 109.163  Z " fill-rule="nonzero" fill="#ffffff" stroke="none" transform="matrix(1 0 0 1 433 527 )" />
    <path d="M 108.7259 77.4539  C 108.7259 77.4539  108.7662 79.4286  108.7662 79.4286  C 108.7662 79.4286  107.7466 78.9743  107.7466 78.9743  C 107.7466 78.9743  107.2224 79.2491  107.2224 79.2491  C 107.2224 79.2491  106.4274 80.5902  106.4274 80.5902  C 106.4274 80.5902  105.0736 80.938  105.0736 80.938  C 105.0736 80.938  103.668 80.1132  103.668 80.1132  C 103.668 80.1132  102.4122 83.0368  102.4122 83.0368  C 102.4122 83.0368  100.154 82.2568  100.154 82.2568  C 100.154 82.2568  99.699 81.7517  99.699 81.7517  C 99.699 81.7517  99.3821 80.1918  99.3821 80.1918  C 99.3821 80.1918  98.5986 80.2703  98.5986 80.2703  C 98.5986 80.2703  98.23 81.7517  98.23 81.7517  C 98.23 81.7517  97.7058 81.7741  97.7058 81.7741  C 97.7058 81.7741  96.4327 80.7248  96.4327 80.7248  C 96.4327 80.7248  96.2598 78.834  96.2598 78.834  C 96.2598 78.834  95.0674 78.4749  95.0674 78.4749  C 95.0674 78.4749  94.451 79.7093  94.451 79.7093  C 94.451 79.7093  92.9129 79.3109  92.9129 79.3109  C 92.9129 79.3109  92.3599 79.5802  92.3599 79.5802  C 92.3599 79.5802  92.2793 81.3421  92.2793 81.3421  C 92.2793 81.3421  91.058 80.5172  91.058 80.5172  C 91.058 80.5172  90.073 81.0671  90.073 81.0671  C 90.073 81.0671  88.5061 79.4736  88.5061 79.4736  C 88.5061 79.4736  87.4058 80.4274  87.4058 80.4274  C 87.4058 80.4274  87.3193 81.4431  87.3193 81.4431  C 87.3193 81.4431  86.2882 81.9537  86.2882 81.9537  C 86.2882 81.9537  85.9944 81.4207  85.9944 81.4207  C 85.9944 81.4207  86.4322 80.2086  86.4322 80.2086  C 86.4322 80.2086  85.7294 79.7541  85.7294 79.7541  C 85.7294 79.7541  85.4529 80.4555  85.4529 80.4555  C 85.4529 80.4555  84.7674 78.8172  84.7674 78.8172  C 84.7674 78.8172  84.0761 79.5073  84.0761 79.5073  C 84.0761 79.5073  83.0046 79.2154  83.0046 79.2154  C 83.0046 79.2154  83.045 80.0122  83.045 80.0122  C 83.045 80.0122  83.8514 81.2747  83.8514 81.2747  C 83.8514 81.2747  82.4171 81.2018  82.4171 81.2018  C 82.4171 81.2018  82.5553 82.9583  82.5553 82.9583  C 82.5553 82.9583  82.0714 83.772  82.0714 83.772  C 82.0714 83.772  80.3029 85.1472  80.3029 85.1472  C 80.3029 85.1472  74.4386 85.2986  74.4386 85.2986  C 74.4386 85.2986  73.4881 85.8768  73.4881 85.8768  C 73.4881 85.8768  72.8544 85.6017  72.8544 85.6017  C 72.8544 85.6017  71.3969 83.2221  71.3969 83.2221  C 71.3969 83.2221  70.6653 82.9021  70.6653 82.9021  C 70.6653 82.9021  69.9395 83.1827  69.9395 83.1827  C 69.9395 83.1827  69.1791 85.1808  69.1791 85.1808  C 69.1791 85.1808  67.4106 86.6739  67.4106 86.6739  C 67.4106 86.6739  65.4981 86.0564  65.4981 86.0564  C 65.4981 86.0564  63.4554 86.7469  63.4554 86.7469  C 63.4554 86.7469  61.6926 86.5841  61.6926 86.5841  C 61.6926 86.5841  60.2813 87.2689  60.2813 87.2689  C 60.2813 87.2689  59.6764 89.0093  59.6764 89.0093  C 59.6764 89.0093  59.3365 88.2009  59.3365 88.2009  C 59.3365 88.2009  59.9356 87.2352  59.9356 87.2352  C 59.9356 87.2352  58.4609 87.9875  58.4609 87.9875  C 58.4609 87.9875  58.4724 89.335  58.4724 89.335  C 58.4724 89.335  59.1637 89.1329  59.1637 89.1329  C 59.1637 89.1329  59.3711 89.6999  59.3711 89.6999  C 59.3711 89.6999  58.1901 91.7045  58.1901 91.7045  C 58.1901 91.7045  57.5968 94.4058  57.5968 94.4058  C 57.5968 94.4058  57.136 94.1138  57.136 94.1138  C 57.136 94.1138  55.6152 95.3157  55.6152 95.3157  C 55.6152 95.3157  54.9758 95.2427  54.9758 95.2427  C 54.9758 95.2427  54.1059 96.1976  54.1059 96.1976  C 54.1059 96.1976  53.2188 96.4335  53.2188 96.4335  C 53.2188 96.4335  52.6542 96.0291  52.6542 96.0291  C 52.6542 96.0291  51.6979 96.1694  51.6979 96.1694  C 51.6979 96.1694  51.1737 96.7425  51.1737 96.7425  C 51.1737 96.7425  50.782 98.0289  50.782 98.0289  C 50.782 98.0289  50.4825 100.1302  50.4825 100.1302  C 50.4825 100.1302  50.4479 101.8271  50.4479 101.8271  C 50.4479 101.8271  51.0585 104.4853  51.0585 104.4853  C 51.0585 104.4853  52.804 107.8467  52.804 107.8467  C 52.804 107.8467  51.7901 108.4989  51.7901 108.4989  C 51.7901 108.4989  49.1633 109.5164  49.1633 109.5164  C 49.1633 109.5164  47.8729 108.0885  47.8729 108.0885  C 47.8729 108.0885  46.3232 107.9873  46.3232 107.9873  C 46.3232 107.9873  45.1481 108.6844  45.1481 108.6844  C 45.1481 108.6844  44.6988 109.5502  44.6988 109.5502  C 44.6988 109.5502  43.345 109.6795  43.345 109.6795  C 43.345 109.6795  43.1434 110.461  43.1434 110.461  C 43.1434 110.461  42.5558 110.3486  42.5558 110.3486  C 42.5558 110.3486  41.6975 109.0217  41.6975 109.0217  C 41.6975 109.0217  41.7897 107.6443  41.7897 107.6443  C 41.7897 107.6443  41.0983 106.6719  41.0983 106.6719  C 41.0983 106.6719  39.8368 105.8792  39.8368 105.8792  C 39.8368 105.8792  39.4624 106.3121  39.4624 106.3121  C 39.4624 106.3121  39.9578 108.2009  39.9578 108.2009  C 39.9578 108.2009  39.9405 109.1342  39.9405 109.1342  C 39.9405 109.1342  39.4451 110.4273  39.4451 110.4273  C 39.4451 110.4273  38.6501 111.3382  38.6501 111.3382  C 38.6501 111.3382  37.2733 111.7487  37.2733 111.7487  C 37.2733 111.7487  37.1524 110.9615  37.1524 110.9615  C 37.1524 110.9615  38.6501 109.792  38.6501 109.792  C 38.6501 109.792  39.3529 108.8249  39.3529 108.8249  C 39.3529 108.8249  39.3817 107.9029  39.3817 107.9029  C 39.3817 107.9029  38.5982 105.3397  38.5982 105.3397  C 38.5982 105.3397  38.0049 104.4628  38.0049 104.4628  C 38.0049 104.4628  37.4173 104.6259  37.4173 104.6259  C 37.4173 104.6259  37.0256 106.6999  37.0256 106.6999  C 37.0256 106.6999  35.9887 106.1603  35.9887 106.1603  C 35.9887 106.1603  34.3872 103.4007  34.3872 103.4007  C 34.3872 103.4007  33.5174 102.524  33.5174 102.524  C 33.5174 102.524  32.2961 102.3554  32.2961 102.3554  C 32.2961 102.3554  30.879 102.8049  30.879 102.8049  C 30.879 102.8049  31.2822 101.3664  31.2822 101.3664  C 31.2822 101.3664  30.3893 99.6976  30.3893 99.6976  C 30.3893 99.6976  27.9757 98.2592  27.9757 98.2592  C 27.9757 98.2592  27.3132 97.5513999999999  27.3132 97.5513999999999  C 27.3132 97.5513999999999  26.4549 97.9783  26.4549 97.9783  C 26.4549 97.9783  26.0343 98.8828  26.0343 98.8828  C 26.0343 98.8828  25.2048 98.8211  25.2048 98.8211  C 25.2048 98.8211  24.4674 97.9109  24.4674 97.9109  C 24.4674 97.9109  24.4559 94.5463  24.4559 94.5463  C 24.4559 94.5463  26.0631 93.2432  26.0631 93.2432  C 26.0631 93.2432  25.222 92.4683  25.222 92.4683  C 25.222 92.4683  24.9974 89.5932  24.9974 89.5932  C 24.9974 89.5932  21.4546 85.1921  21.4546 85.1921  C 21.4546 85.1921  21.1147 84.2434  21.1147 84.2434  C 21.1147 84.2434  21.6044 81.5609  21.6044 81.5609  C 21.6044 81.5609  20.7057 79.6363  20.7057 79.6363  C 20.7057 79.6363  18.6492 78.5871  18.6492 78.5871  C 18.6492 78.5871  17.572 78.9237  17.572 78.9237  C 17.572 78.9237  16.7309 78.6769  16.7309 78.6769  C 16.7309 78.6769  15.6364 77.4875  15.6364 77.4875  C 15.6364 77.4875  13.309 78.4861  13.309 78.4861  C 13.309 78.4861  11.6442 77.8634  11.6442 77.8634  C 11.6442 77.8634  10.2674 78.6881  10.2674 78.6881  C 10.2674 78.6881  8.10149999999999 79.2772  8.10149999999999 79.2772  C 8.10149999999999 79.2772  6.00459999999998 78.099  6.00459999999998 78.099  C 6.00459999999998 78.099  5.64159999999998 77.4539  5.64159999999998 77.4539  C 5.64159999999998 77.4539  5.95280000000002 76.3431  5.95280000000002 76.3431  C 5.95280000000002 76.3431  4.5471 75.5017  4.5471 75.5017  C 4.5471 75.5017  4.51830000000001 73.9985  4.51830000000001 73.9985  C 4.51830000000001 73.9985  3.85590000000002 73.1517  3.85590000000002 73.1517  C 3.85590000000002 73.1517  2.42149999999998 73.0507  2.42149999999998 73.0507  C 2.42149999999998 73.0507  1.65530000000001 72.2937  1.65530000000001 72.2937  C 1.65530000000001 72.2937  0.912199999999984 70.7964  0.912199999999984 70.7964  C 0.912199999999984 70.7964  1.63799999999998 68.5649  1.63799999999998 68.5649  C 1.63799999999998 68.5649  1.18869999999998 67.3483  1.18869999999998 67.3483  C 1.18869999999998 67.3483  2.75560000000002 64.8483  2.75560000000002 64.8483  C 2.75560000000002 64.8483  1.45370000000003 64.086  1.45370000000003 64.086  C 1.45370000000003 64.086  0.992799999999988 63.2622  0.992799999999988 63.2622  C 0.992799999999988 63.2622  1.40190000000001 62.0797  1.40190000000001 62.0797  C 1.40190000000001 62.0797  1.16570000000002 60.6507  1.16570000000002 60.6507  C 1.16570000000002 60.6507  1.82229999999998 60.7516  1.82229999999998 60.7516  C 1.82229999999998 60.7516  2.46179999999998 59.0764  2.46179999999998 59.0764  C 2.46179999999998 59.0764  1.04469999999998 58.5665  1.04469999999998 58.5665  C 1.04469999999998 58.5665  0.992799999999988 56.9474  0.992799999999988 56.9474  C 0.992799999999988 56.9474  0.099899999999991 54.9671  0.099899999999991 54.9671  C 0.099899999999991 54.9671  0.710500000000025 52.7323  0.710500000000025 52.7323  C 0.710500000000025 52.7323  2.16800000000001 52.0098  2.16800000000001 52.0098  C 2.16800000000001 52.0098  2.04129999999998 51.209  2.04129999999998 51.209  C 2.04129999999998 51.209  3.18189999999998 50.8115  3.18189999999998 50.8115  C 3.18189999999998 50.8115  4.18430000000001 49.5348  4.18430000000001 49.5348  C 4.18430000000001 49.5348  5.29599999999999 49.4843  5.29599999999999 49.4843  C 5.29599999999999 49.4843  5.48039999999997 49.0028  5.48039999999997 49.0028  C 5.48039999999997 49.0028  7.02999999999997 48.0006  7.02999999999997 48.0006  C 7.02999999999997 48.0006  7.27769999999998 48.3477  7.27769999999998 48.3477  C 7.27769999999998 48.3477  8.56799999999998 47.8327  8.56799999999998 47.8327  C 8.56799999999998 47.8327  8.93099999999998 46.5786  8.93099999999998 46.5786  C 8.93099999999998 46.5786  9.46100000000001 46.5674  9.46100000000001 46.5674  C 9.46100000000001 46.5674  10.446 45.2743  10.446 45.2743  C 10.446 45.2743  11.5002 44.7034  11.5002 44.7034  C 11.5002 44.7034  12.9173 44.3731  12.9173 44.3731  C 12.9173 44.3731  14.2365 44.7258  14.2365 44.7258  C 14.2365 44.7258  15.0776 43.7406  15.0776 43.7406  C 15.0776 43.7406  16.3276 42.8955  16.3276 42.8955  C 16.3276 42.8955  16.8519 43.1417  16.8519 43.1417  C 16.8519 43.1417  17.1168 42.403  17.1168 42.403  C 17.1168 42.403  18.125 42.2687  18.125 42.2687  C 18.125 42.2687  19.0985 44.0764  19.0985 44.0764  C 19.0985 44.0764  21.5353 45.0952  21.5353 45.0952  C 21.5353 45.0952  23.6494 45.1903  23.6494 45.1903  C 23.6494 45.1903  24.0757 43.9869  24.0757 43.9869  C 24.0757 43.9869  23.8049 43.0466  23.8049 43.0466  C 23.8049 43.0466  24.3177 42.5709  24.3177 42.5709  C 24.3177 42.5709  24.4732 41.4796  24.4732 41.4796  C 24.4732 41.4796  25.5389 41.793  25.5389 41.793  C 25.5389 41.793  26.0689 41.4908  26.0689 41.4908  C 26.0689 41.4908  26.8869 38.7546  26.8869 38.7546  C 26.8869 38.7546  27.4457 37.988  27.4457 37.988  C 27.4457 37.988  27.2613 37.4734  27.2613 37.4734  C 27.2613 37.4734  27.8374 36.2649  27.8374 36.2649  C 27.8374 36.2649  27.1 35.8901  27.1 35.8901  C 27.1 35.8901  27.0079 34.2848  27.0079 34.2848  C 27.0079 34.2848  27.4053 34.2903  27.4053 34.2903  C 27.4053 34.2903  27.5551 32.9872  27.5551 32.9872  C 27.5551 32.9872  29.1277 31.6841  29.1277 31.6841  C 29.1277 31.6841  28.7706 30.2974  28.7706 30.2974  C 28.7706 30.2974  27.5205 29.2518  27.5205 29.2518  C 27.5205 29.2518  28.3789 27.9993  28.3789 27.9993  C 28.3789 27.9993  28.3616 26.8644  28.3616 26.8644  C 28.3616 26.8644  29.485 26.5179  29.485 26.5179  C 29.485 26.5179  30.2857 25.7687  30.2857 25.7687  C 30.2857 25.7687  31.0691 27.2669  31.0691 27.2669  C 31.0691 27.2669  31.7834 27.457  31.7834 27.457  C 31.7834 27.457  32.6648 25.9756  32.6648 25.9756  C 32.6648 25.9756  32.8607 24.9974  32.8607 24.9974  C 32.8607 24.9974  34.0185 24.2987  34.0185 24.2987  C 34.0185 24.2987  33.6902 23.5945  33.6902 23.5945  C 33.6902 23.5945  34.0473 22.8121  34.0473 22.8121  C 34.0473 22.8121  35.5278 24.1645  35.5278 24.1645  C 35.5278 24.1645  36.1903 25.8582  36.1903 25.8582  C 36.1903 25.8582  37.1005 25.7408  37.1005 25.7408  C 37.1005 25.7408  37.2791 24.5893  37.2791 24.5893  C 37.2791 24.5893  37.7399 24.1925  37.7399 24.1925  C 37.7399 24.1925  38.2296 22.5549  38.2296 22.5549  C 38.2296 22.5549  38.9612 22.6835  38.9612 22.6835  C 38.9612 22.6835  39.0649 23.8068  39.0649 23.8068  C 39.0649 23.8068  40.6548 23.7341  40.6548 23.7341  C 40.6548 23.7341  40.2976 22.7226  40.2976 22.7226  C 40.2976 22.7226  39.8771 20.3364  39.8771 20.3364  C 39.8771 20.3364  40.1075 19.9285  40.1075 19.9285  C 40.1075 19.9285  41.6457 20.152  41.6457 20.152  C 41.6457 20.152  42.792 18.3083  42.792 18.3083  C 42.792 18.3083  44.1688 18.068  44.1688 18.068  C 44.1688 18.068  45.3324 16.6714  45.3324 16.6714  C 45.3324 16.6714  45.3382 16.0401  45.3382 16.0401  C 45.3382 16.0401  47.5157 16.3418  47.5157 16.3418  C 47.5157 16.3418  48.2127 15.3642  48.2127 15.3642  C 48.2127 15.3642  48.7024 15.7497  48.7024 15.7497  C 48.7024 15.7497  49.8372 14.5823  49.8372 14.5823  C 49.8372 14.5823  51.0182 16.3194  51.0182 16.3194  C 51.0182 16.3194  52.1185 16.9116  52.1185 16.9116  C 52.1185 16.9116  52.1761 17.5484  52.1761 17.5484  C 52.1761 17.5484  53.9388 17.6825  53.9388 17.6825  C 53.9388 17.6825  54.9123 17.1742  54.9123 17.1742  C 54.9123 17.1742  55.6152 17.5429  55.6152 17.5429  C 55.6152 17.5429  56.5887 16.3083  56.5887 16.3083  C 56.5887 16.3083  57.689 16.2133  57.689 16.2133  C 57.689 16.2133  58.9794 16.9172  58.9794 16.9172  C 58.9794 16.9172  60.1085 14.4817  60.1085 14.4817  C 60.1085 14.4817  61.4449 14.8615  61.4449 14.8615  C 61.4449 14.8615  61.8942 15.9619  61.8942 15.9619  C 61.8942 15.9619  62.4357 15.9396  62.4357 15.9396  C 62.4357 15.9396  62.4357 17.3417  62.4357 17.3417  C 62.4357 17.3417  62.8851 17.7328  62.8851 17.7328  C 62.8851 17.7328  65.9013 18.0456  65.9013 18.0456  C 65.9013 18.0456  66.247 16.9227  66.247 16.9227  C 66.247 16.9227  68.7701 16.5317  68.7701 16.5317  C 68.7701 16.5317  70.0662 17.7048  70.0662 17.7048  C 70.0662 17.7048  72.9581 17.1295  72.9581 17.1295  C 72.9581 17.1295  73.7588 17.6434  73.7588 17.6434  C 73.7588 17.6434  74.283 17.1797  74.283 17.1797  C 74.283 17.1797  75.9018 16.7551  75.9018 16.7551  C 75.9018 16.7551  75.1184 14.9676  75.1184 14.9676  C 75.1184 14.9676  74.4213 15.0626  74.4213 15.0626  C 74.4213 15.0626  74.3752 14.2695  74.3752 14.2695  C 74.3752 14.2695  75.1702 13.387  75.1702 13.387  C 75.1702 13.387  75.4352 14.3924  75.4352 14.3924  C 75.4352 14.3924  76.8408 14.1298  76.8408 14.1298  C 76.8408 14.1298  77.7279 14.9118  77.7279 14.9118  C 77.7279 14.9118  77.7164 15.5876  77.7164 15.5876  C 77.7164 15.5876  76.6046 17.0177  76.6046 17.0177  C 76.6046 17.0177  77.7797 17.1573  77.7797 17.1573  C 77.7797 17.1573  79.1278 16.7328  79.1278 16.7328  C 79.1278 16.7328  79.5137 17.3808  79.5137 17.3808  C 79.5137 17.3808  80.1589 16.7216  80.1589 16.7216  C 80.1589 16.7216  80.0897 18.1295  80.0897 18.1295  C 80.0897 18.1295  81.7143 17.7775  81.7143 17.7775  C 81.7143 17.7775  82.7281 19.2972  82.7281 19.2972  C 82.7281 19.2972  82.8779 20.3364  82.8779 20.3364  C 82.8779 20.3364  85.3665 17.7775  85.3665 17.7775  C 85.3665 17.7775  86.7721 17.6546  86.7721 17.6546  C 86.7721 17.6546  87.1005 16.5037  87.1005 16.5037  C 87.1005 16.5037  84.8941 14.4147  84.8941 14.4147  C 84.8941 14.4147  84.7098 12.7671  84.7098 12.7671  C 84.7098 12.7671  85.0554 11.6  85.0554 11.6  C 85.0554 11.6  85.7006 11.17  85.7006 11.17  C 85.7006 11.17  86.0001 10.0811  86.0001 10.0811  C 86.0001 10.0811  87.112 9.00909999999999  87.112 9.00909999999999  C 87.112 9.00909999999999  87.3482 7.8981  87.3482 7.8981  C 87.3482 7.8981  87.8666 7.74180000000001  87.8666 7.74180000000001  C 87.8666 7.74180000000001  89.3932 5.85489999999999  89.3932 5.85489999999999  C 89.3932 5.85489999999999  90.5569 5.99450000000002  90.5569 5.99450000000002  C 90.5569 5.99450000000002  91.1041 5.01769999999999  91.1041 5.01769999999999  C 91.1041 5.01769999999999  92.0603 4.74979999999999  92.0603 4.74979999999999  C 92.0603 4.74979999999999  93.1895 5.89960000000002  93.1895 5.89960000000002  C 93.1895 5.89960000000002  93.7021 5.27449999999999  93.7021 5.27449999999999  C 93.7021 5.27449999999999  94.3531 5.654  94.3531 5.654  C 94.3531 5.654  95.1596 5.24099999999999  95.1596 5.24099999999999  C 95.1596 5.24099999999999  96.1331 5.58699999999999  96.1331 5.58699999999999  C 96.1331 5.58699999999999  95.9949 7.33420000000001  95.9949 7.33420000000001  C 95.9949 7.33420000000001  96.7092 7.1891  96.7092 7.1891  C 96.7092 7.1891  96.5421 6.11169999999998  96.5421 6.11169999999998  C 96.5421 6.11169999999998  96.859 5.59269999999998  96.859 5.59269999999998  C 96.859 5.59269999999998  97.9074 5.71539999999999  97.9074 5.71539999999999  C 97.9074 5.71539999999999  98.5181 5.34699999999998  98.5181 5.34699999999998  C 98.5181 5.34699999999998  98.9961 4.30880000000002  98.9961 4.30880000000002  C 98.9961 4.30880000000002  99.987 3.42700000000002  99.987 3.42700000000002  C 99.987 3.42700000000002  101.9514 5.0958  101.9514 5.0958  C 101.9514 5.0958  103.213 3.87349999999998  103.213 3.87349999999998  C 103.213 3.87349999999998  104.751 3.3768  104.751 3.3768  C 104.751 3.3768  104.895 2.66809999999998  104.895 2.66809999999998  C 104.895 2.66809999999998  105.425 3.03640000000001  105.425 3.03640000000001  C 105.425 3.03640000000001  105.8456 2.06529999999998  105.8456 2.06529999999998  C 105.8456 2.06529999999998  106.9862 0.486100000000022  106.9862 0.486100000000022  C 106.9862 0.486100000000022  109.0369 1.37900000000002  109.0369 1.37900000000002  C 109.0369 1.37900000000002  109.2443 2.34440000000001  109.2443 2.34440000000001  C 109.2443 2.34440000000001  110.1373 3.36559999999997  110.1373 3.36559999999997  C 110.1373 3.36559999999997  110.84 2.77969999999999  110.84 2.77969999999999  C 110.84 2.77969999999999  111.7099 2.69040000000001  111.7099 2.69040000000001  C 111.7099 2.69040000000001  112.0901 1.8254  112.0901 1.8254  C 112.0901 1.8254  112.8966 2.39460000000003  112.8966 2.39460000000003  C 112.8966 2.39460000000003  112.7122 2.6234  112.7122 2.6234  C 112.7122 2.6234  112.9484 6.13400000000001  112.9484 6.13400000000001  C 112.9484 6.13400000000001  114.0371 8.28890000000001  114.0371 8.28890000000001  C 114.0371 8.28890000000001  116.3472 9.76280000000003  116.3472 9.76280000000003  C 116.3472 9.76280000000003  117.3208 10.8963  117.3208 10.8963  C 117.3208 10.8963  117.1076 12.6498  117.1076 12.6498  C 117.1076 12.6498  117.747 12.5828  117.747 12.5828  C 117.747 12.5828  118.9625 13.1636  118.9625 13.1636  C 118.9625 13.1636  119.7517 12.2644  119.7517 12.2644  C 119.7517 12.2644  120.5064 13.0129  120.5064 13.0129  C 120.5064 13.0129  120.5064 10.2989  120.5064 10.2989  C 120.5064 10.2989  121.6066 10.0029  121.6066 10.0029  C 121.6066 10.0029  122.8279 10.2431  122.8279 10.2431  C 122.8279 10.2431  124.919 11.142  124.919 11.142  C 124.919 11.142  126.3534 11.5162  126.3534 11.5162  C 126.3534 11.5162  126.7221 12.3873  126.7221 12.3873  C 126.7221 12.3873  127.6841 13.1246  127.6841 13.1246  C 127.6841 13.1246  127.494 14.6548  127.494 14.6548  C 127.494 14.6548  128.1738 15.8614  128.1738 15.8614  C 128.1738 15.8614  128.1277 17.0401  128.1277 17.0401  C 128.1277 17.0401  128.6922 17.1853  128.6922 17.1853  C 128.6922 17.1853  128.5022 18.0513  128.5022 18.0513  C 128.5022 18.0513  127.6784 18.1407  127.6784 18.1407  C 127.6784 18.1407  127.661 19.0122  127.661 19.0122  C 127.661 19.0122  127.0331 19.733  127.0331 19.733  C 127.0331 19.733  126.2094 21.6943  126.2094 21.6943  C 126.2094 21.6943  124.752 23.4547  124.752 23.4547  C 124.752 23.4547  124.1356 24.7514  124.1356 24.7514  C 124.1356 24.7514  124.3602 25.629  124.3602 25.629  C 124.3602 25.629  125.5008 26.4004  125.5008 26.4004  C 125.5008 26.4004  126.4916 27.8371  126.4916 27.8371  C 126.4916 27.8371  126.8603 29.2069  126.8603 29.2069  C 126.8603 29.2069  127.6668 30.3868  127.6668 30.3868  C 127.6668 30.3868  127.7763 31.7792  127.7763 31.7792  C 127.7763 31.7792  127.1426 32.5845  127.1426 32.5845  C 127.1426 32.5845  126.7106 34.1617  126.7106 34.1617  C 126.7106 34.1617  126.7452 36.4999  126.7452 36.4999  C 126.7452 36.4999  126.388 37.2159  126.388 37.2159  C 126.388 37.2159  124.4639 37.9936  124.4639 37.9936  C 124.4639 37.9936  123.7208 37.6244  123.7208 37.6244  C 123.7208 37.6244  122.3382 36.0244  122.3382 36.0244  C 122.3382 36.0244  120.6907 35.3476  120.6907 35.3476  C 120.6907 35.3476  120.0513 34.2065  120.0513 34.2065  C 120.0513 34.2065  119.337 33.9771  119.337 33.9771  C 119.337 33.9771  118.9682 33.2109  118.9682 33.2109  C 118.9682 33.2109  119.4061 32.5566  119.4061 32.5566  C 119.4061 32.5566  118.7724 31.9861  118.7724 31.9861  C 118.7724 31.9861  118.2943 30.8397  118.2943 30.8397  C 118.2943 30.8397  117.8104 31.4716  117.8104 31.4716  C 117.8104 31.4716  117.8795 33.1885  117.8795 33.1885  C 117.8795 33.1885  116.5142 33.0766  116.5142 33.0766  C 116.5142 33.0766  115.5061 34.5532  115.5061 34.5532  C 115.5061 34.5532  114.8148 34.3127  114.8148 34.3127  C 114.8148 34.3127  114.4923 35.7223  114.4923 35.7223  C 114.4923 35.7223  113.8183 34.9392  113.8183 34.9392  C 113.8183 34.9392  112.9023 37.1264  112.9023 37.1264  C 112.9023 37.1264  114.2273 38.9448  114.2273 38.9448  C 114.2273 38.9448  113.801 39.2469  113.801 39.2469  C 113.801 39.2469  111.8366 37.1824  111.8366 37.1824  C 111.8366 37.1824  111.3585 37.1264  111.3585 37.1264  C 111.3585 37.1264  110.1948 38.0999  110.1948 38.0999  C 110.1948 38.0999  108.795 38.6818  108.795 38.6818  C 108.795 38.6818  107.6774 39.9799  107.6774 39.9799  C 107.6774 39.9799  106.5598 44.0821  106.5598 44.0821  C 106.5598 44.0821  106.5368 45.8621  106.5368 45.8621  C 106.5368 45.8621  107.1993 46.8809  107.1993 46.8809  C 107.1993 46.8809  107.3606 48.7117  107.3606 48.7117  C 107.3606 48.7117  105.8917 50.6547  105.8917 50.6547  C 105.8917 50.6547  105.0506 52.5307  105.0506 52.5307  C 105.0506 52.5307  104.4054 57.9951  104.4054 57.9951  C 104.4054 57.9951  104.4227 60.2642  104.4227 60.2642  C 104.4227 60.2642  104.8374 62.0517  104.8374 62.0517  C 104.8374 62.0517  106.3871 63.6265  106.3871 63.6265  C 106.3871 63.6265  106.629 64.271  106.629 64.271  C 106.629 64.271  106.364 65.336  106.364 65.336  C 106.364 65.336  106.629 66.3337  106.629 66.3337  C 106.629 66.3337  107.4701 67.836  107.4701 67.836  C 107.4701 67.836  107.7696 69.0863  107.7696 69.0863  C 107.7696 69.0863  108.3342 73.4153  108.3342 73.4153  C 108.3342 73.4153  107.6889 74.077  107.6889 74.077  C 107.6889 74.077  106.243 73.2022  106.243 73.2022  C 106.243 73.2022  106.3813 74.3127  106.3813 74.3127  C 106.3813 74.3127  107.2454 75.2437  107.2454 75.2437  C 107.2454 75.2437  107.9655 75.4905  107.9655 75.4905  C 107.9655 75.4905  108.2247 76.2422  108.2247 76.2422  C 108.2247 76.2422  107.8329 76.8985  107.8329 76.8985  C 107.8329 76.8985  107.7927 78.43  107.7927 78.43  C 107.7927 78.43  108.7259 77.4539  108.7259 77.4539  Z " stroke-width="2" stroke="#666666" fill="none" transform="matrix(1 0 0 1 433 527 )" mask="url(#clip139)" />
    <path d="M 49.3879 109.163  C 49.3879 109.163  49.8776 108.8707  49.8776 108.8707  C 49.8776 108.8707  52.5655 111.8162  52.5655 111.8162  C 52.5655 111.8162  52.1392 112.4236  52.1392 112.4236  C 52.1392 112.4236  49.8142 111.7375  49.8142 111.7375  C 49.8142 111.7375  49.3879 109.163  49.3879 109.163  Z " stroke-width="2" stroke="#666666" fill="none" transform="matrix(1 0 0 1 433 527 )" mask="url(#clip139)" />
  </g>
</svg>