<?xml version="1.0" encoding="utf-8"?>
<svg version="1.1" xmlns:xlink="http://www.w3.org/1999/xlink" width="112px" height="142px" xmlns="http://www.w3.org/2000/svg">
  <defs>
    <mask fill="white" id="clip140">
      <path d="M 35.7261 139.0107  C 35.7261 139.0107  34.8966 140.3946  34.8966 140.3946  C 34.8966 140.3946  34.0901 139.8254  34.0901 139.8254  C 34.0901 139.8254  33.7099 140.6904  33.7099 140.6904  C 33.7099 140.6904  32.84 140.7797  32.84 140.7797  C 32.84 140.7797  32.1373 141.3656  32.1373 141.3656  C 32.1373 141.3656  31.2443 140.3444  31.2443 140.3444  C 31.2443 140.3444  31.0369 139.379  31.0369 139.379  C 31.0369 139.379  31.7109 138.9493  31.7109 138.9493  C 31.7109 138.9493  31.6188 137.9227  31.6188 137.9227  C 31.6188 137.9227  30.7604 136.2656  30.7604 136.2656  C 30.7604 136.2656  29.8503 135.1331  29.8503 135.1331  C 29.8503 135.1331  29.2799 135.624  29.2799 135.624  C 29.2799 135.624  28.7845 134.8542  28.7845 134.8542  C 28.7845 134.8542  29.3088 134.1403  29.3088 134.1403  C 29.3088 134.1403  28.5311 133.0526  28.5311 133.0526  C 28.5311 133.0526  28.7615 131.6861  28.7615 131.6861  C 28.7615 131.6861  28.3986 130.5819  28.3986 130.5819  C 28.3986 130.5819  27.1716 129.9685  27.1716 129.9685  C 27.1716 129.9685  27.114 129.2492  27.114 129.2492  C 27.114 129.2492  25.3627 129.0875  25.3627 129.0875  C 25.3627 129.0875  23.0585 129.344  23.0585 129.344  C 23.0585 129.344  23.4847 128.3068  23.4847 128.3068  C 23.4847 128.3068  23.1679 127.5151  23.1679 127.5151  C 23.1679 127.5151  23.9168 125.9597  23.9168 125.9597  C 23.9168 125.9597  23.986 125.0343  23.986 125.0343  C 23.986 125.0343  24.7982 125.5249  24.7982 125.5249  C 24.7982 125.5249  25.2706 124.9731  25.2706 124.9731  C 25.2706 124.9731  24.1876 123.652  24.1876 123.652  C 24.1876 123.652  22.9778 124.1816  22.9778 124.1816  C 22.9778 124.1816  21.1805 124.1313  21.1805 124.1313  C 21.1805 124.1313  20.4777 122.0413  20.4777 122.0413  C 20.4777 122.0413  19.2334 121.4784  19.2334 121.4784  C 19.2334 121.4784  19.5618 120.765  19.5618 120.765  C 19.5618 120.765  19.0433 119.8345  19.0433 119.8345  C 19.0433 119.8345  21.4974 118.5697  21.4974 118.5697  C 21.4974 118.5697  21.2669 117.2715  21.2669 117.2715  C 21.2669 117.2715  17.2921 115.1101  17.2921 115.1101  C 17.2921 115.1101  16.3704 115.461  16.3704 115.461  C 16.3704 115.461  15.7482 114.9708  15.7482 114.9708  C 15.7482 114.9708  15.7712 113.7342  15.7712 113.7342  C 15.7712 113.7342  13.8818 113.4446  13.8818 113.4446  C 13.8818 113.4446  13.2539 112.6594  13.2539 112.6594  C 13.2539 112.6594  13.346 111.5845  13.346 111.5845  C 13.346 111.5845  12.1363 110.326  12.1363 110.326  C 12.1363 110.326  11.6985 109.3404  11.6985 109.3404  C 11.6985 109.3404  11.7618 108.3828  11.7618 108.3828  C 11.7618 108.3828  11.0591 107.8261  11.0591 107.8261  C 11.0591 107.8261  10.7364 106.9353  10.7364 106.9353  C 10.7364 106.9353  9.8897 105.9723  9.8897 105.9723  C 9.8897 105.9723  8.65690000000001 105.6605  8.65690000000001 105.6605  C 8.65690000000001 105.6605  8.37459999999999 104.6197  8.37459999999999 104.6197  C 8.37459999999999 104.6197  10.0106 102.7774  10.0106 102.7774  C 10.0106 102.7774  9.87810000000002 102.2654  9.87810000000002 102.2654  C 9.87810000000002 102.2654  10.9093 102.143  10.9093 102.143  C 10.9093 102.143  10.3851 101.4084  10.3851 101.4084  C 10.3851 101.4084  11.2261 99.8672  11.2261 99.8672  C 11.2261 99.8672  10.4139 98.8044  10.4139 98.8044  C 10.4139 98.8044  9.42880000000002 96.6627  9.42880000000002 96.6627  C 9.42880000000002 96.6627  8.16149999999999 97.0409  8.16149999999999 97.0409  C 8.16149999999999 97.0409  7.32040000000001 96.2788  7.32040000000001 96.2788  C 7.32040000000001 96.2788  6.50240000000002 96.0674  6.50240000000002 96.0674  C 6.50240000000002 96.0674  6.04730000000001 96.5569  6.04730000000001 96.5569  C 6.04730000000001 96.5569  5.30990000000003 96.2565  5.30990000000003 96.2565  C 5.30990000000003 96.2565  4.0138 96.6904  4.0138 96.6904  C 4.0138 96.6904  3.71429999999998 95.8227  3.71429999999998 95.8227  C 3.71429999999998 95.8227  4.15210000000002 95.2609  4.15210000000002 95.2609  C 4.15210000000002 95.2609  3.54140000000001 94.4544  3.54140000000001 94.4544  C 3.54140000000001 94.4544  3.9332 93.6702  3.9332 93.6702  C 3.9332 93.6702  3.36279999999999 91.5793  3.36279999999999 91.5793  C 3.36279999999999 91.5793  2.89049999999997 91.7627  2.89049999999997 91.7627  C 2.89049999999997 91.7627  3.18430000000001 89.3162  3.18430000000001 89.3162  C 3.18430000000001 89.3162  3.55869999999999 88.3377  3.55869999999999 88.3377  C 3.55869999999999 88.3377  3.55290000000002 87.2093  3.55290000000002 87.2093  C 3.55290000000002 87.2093  4.10599999999999 86.8368  4.10599999999999 86.8368  C 4.10599999999999 86.8368  4.4631 85.0581  4.4631 85.0581  C 4.4631 85.0581  3.99650000000003 84.7469  3.99650000000003 84.7469  C 3.99650000000003 84.7469  3.95620000000002 83.1963  3.95620000000002 83.1963  C 3.95620000000002 83.1963  2.32589999999999 82.4739  2.32589999999999 82.4739  C 2.32589999999999 82.4739  3.10359999999997 81.2015  3.10359999999997 81.2015  C 3.10359999999997 81.2015  2.37779999999998 80.6236  2.37779999999998 80.6236  C 2.37779999999998 80.6236  2.3374 79.7735  2.3374 79.7735  C 2.3374 79.7735  0.920299999999997 78.8735  0.920299999999997 78.8735  C 0.920299999999997 78.8735  1.92849999999999 79.0902  1.92849999999999 79.0902  C 1.92849999999999 79.0902  2.9538 77.5515  2.9538 77.5515  C 2.9538 77.5515  1.49059999999997 77.0293  1.49059999999997 77.0293  C 1.49059999999997 77.0293  1.20260000000002 76.3739  1.20260000000002 76.3739  C 1.20260000000002 76.3739  1.43310000000002 75.9794  1.43310000000002 75.9794  C 1.43310000000002 75.9794  0.447999999999979 75.052  0.447999999999979 75.052  C 0.447999999999979 75.052  1.46179999999998 74.0079  1.46179999999998 74.0079  C 1.46179999999998 74.0079  0.73599999999999 72.7973  0.73599999999999 72.7973  C 0.73599999999999 72.7973  2.38350000000003 71.4813  2.38350000000003 71.4813  C 2.38350000000003 71.4813  3.08640000000003 71.5646  3.08640000000003 71.5646  C 3.08640000000003 71.5646  3.70850000000002 69.7817  3.70850000000002 69.7817  C 3.70850000000002 69.7817  4.89519999999999 71.3259  4.89519999999999 71.3259  C 4.89519999999999 71.3259  5.35599999999999 68.8601  5.35599999999999 68.8601  C 5.35599999999999 68.8601  5.85140000000001 68.9378  5.85140000000001 68.9378  C 5.85140000000001 68.9378  5.67860000000002 67.5499  5.67860000000002 67.5499  C 5.67860000000002 67.5499  6.23739999999998 66.8783  6.23739999999998 66.8783  C 6.23739999999998 66.8783  7.19940000000003 66.8006  7.19940000000003 66.8006  C 7.19940000000003 66.8006  7.60270000000003 65.3796  7.60270000000003 65.3796  C 7.60270000000003 65.3796  8.32279999999997 65.3241  8.32279999999997 65.3241  C 8.32279999999997 65.3241  9.25020000000001 63.3096  9.25020000000001 63.3096  C 9.25020000000001 63.3096  10.8114 64.0532  10.8114 64.0532  C 10.8114 64.0532  11.4738 63.2763  11.4738 63.2763  C 11.4738 63.2763  13.0695 64.8635  13.0695 64.8635  C 13.0695 64.8635  12.6375 65.907  12.6375 65.907  C 12.6375 65.907  12.9082 66.8949  12.9082 66.8949  C 12.9082 66.8949  13.5707 67.2003  13.5707 67.2003  C 13.5707 67.2003  15.1318 66.7007  15.1318 66.7007  C 15.1318 66.7007  15.9613 68.0385  15.9613 68.0385  C 15.9613 68.0385  16.8485 68.1939  16.8485 68.1939  C 16.8485 68.1939  17.269 69.0101  17.269 69.0101  C 17.269 69.0101  18.6919 66.9171  18.6919 66.9171  C 18.6919 66.9171  21.3303 66.5897  21.3303 66.5897  C 21.3303 66.5897  21.3763 68.1828  21.3763 68.1828  C 21.3763 68.1828  22.8626 71.3259  22.8626 71.3259  C 22.8626 71.3259  22.7531 72.3697  22.7531 72.3697  C 22.7531 72.3697  23.6806 72.7362  23.6806 72.7362  C 23.6806 72.7362  23.6461 73.2637  23.6461 73.2637  C 23.6461 73.2637  25.6219 75.4074  25.6219 75.4074  C 25.6219 75.4074  25.7717 76.0905  25.7717 76.0905  C 25.7717 76.0905  26.6992 75.2408  26.6992 75.2408  C 26.6992 75.2408  26.8835 74.541  26.8835 74.541  C 26.8835 74.541  27.5633 74.2688  27.5633 74.2688  C 27.5633 74.2688  27.6324 73.1193  27.6324 73.1193  C 27.6324 73.1193  28.5541 69.8872  28.5541 69.8872  C 28.5541 69.8872  28.3121 69.5152  28.3121 69.5152  C 28.3121 69.5152  29.5391 68.6491  29.5391 68.6491  C 29.5391 68.6491  29.8964 69.4375  29.8964 69.4375  C 29.8964 69.4375  31.0427 68.1329  31.0427 68.1329  C 31.0427 68.1329  31.083 67.2336  31.083 67.2336  C 31.083 67.2336  32.4598 65.7349  32.4598 65.7349  C 32.4598 65.7349  32.8804 64.425  32.8804 64.425  C 32.8804 64.425  33.7041 62.8823  33.7041 62.8823  C 33.7041 62.8823  34.839 62.0388  34.839 62.0388  C 34.839 62.0388  36.0487 62.7768  36.0487 62.7768  C 36.0487 62.7768  36.9646 64.6248  36.9646 64.6248  C 36.9646 64.6248  37.9727 64.7192  37.9727 64.7192  C 37.9727 64.7192  37.6847 63.8478  37.6847 63.8478  C 37.6847 63.8478  38.8599 63.8922  38.8599 63.8922  C 38.8599 63.8922  39.5857 62.5659  39.5857 62.5659  C 39.5857 62.5659  39.9429 60.2078  39.9429 60.2078  C 39.9429 60.2078  40.8242 58.1496  40.8242 58.1496  C 40.8242 58.1496  41.6768 59.4256  41.6768 59.4256  C 41.6768 59.4256  43.0075 59.1759  43.0075 59.1759  C 43.0075 59.1759  43.9465 58.2162  43.9465 58.2162  C 43.9465 58.2162  44.2 56.6353  44.2 56.6353  C 44.2 56.6353  45.1159 56.2914  45.1159 56.2914  C 45.1159 56.2914  48.1921 57.1013  48.1921 57.1013  C 48.1921 57.1013  49.0792 58.3216  49.0792 58.3216  C 49.0792 58.3216  49.2348 59.9637  49.2348 59.9637  C 49.2348 59.9637  50.0125 61.0568  50.0125 61.0568  C 50.0125 61.0568  50.4791 59.3867  50.4791 59.3867  C 50.4791 59.3867  52.4377 57.3286  52.4377 57.3286  C 52.4377 57.3286  52.2131000000001 56.2859  52.2131000000001 56.2859  C 52.2131000000001 56.2859  52.6854 54.489  52.6854 54.489  C 52.6854 54.489  52.7833000000001 52.964  52.7833000000001 52.964  C 52.7833000000001 52.964  52.4434 51.1565  52.4434 51.1565  C 52.4434 51.1565  52.3916 49.4211  52.3916 49.4211  C 52.3916 49.4211  53.0540999999999 47.0154  53.0540999999999 47.0154  C 53.0540999999999 47.0154  54.2234999999999 45.325  54.2234999999999 45.325  C 54.2234999999999 45.325  54.9838999999999 41.2302  54.9838999999999 41.2302  C 54.9838999999999 41.2302  54.6267 38.2223  54.6267 38.2223  C 54.6267 38.2223  55.0473 36.2062  55.0473 36.2062  C 55.0473 36.2062  57.4874 35.8851  57.4874 35.8851  C 57.4874 35.8851  57.8273 34.772  57.8273 34.772  C 57.8273 34.772  58.0577 32.0644  58.0577 32.0644  C 58.0577 32.0644  59.3251 30.996  59.3251 30.996  C 59.3251 30.996  59.8781 29.9332  59.8781 29.9332  C 59.8781 29.9332  60.506 27.7579  60.506 27.7579  C 60.506 27.7579  61.2491 26.9444  61.2491 26.9444  C 61.2491 26.9444  63.5821999999999 26.5238  63.5821999999999 26.5238  C 63.5821999999999 26.5238  64.6248000000001 25.9925  64.6248000000001 25.9925  C 64.6248000000001 25.9925  66.6353 24.4653  66.6353 24.4653  C 66.6353 24.4653  68.231 21.6879  68.231 21.6879  C 68.231 21.6879  70.5641000000001 18.9223  70.5641000000001 18.9223  C 70.5641000000001 18.9223  71.4743 17.5341  71.4743 17.5341  C 71.4743 17.5341  72.8337 16.4337  72.8337 16.4337  C 72.8337 16.4337  73.4041 16.5996  73.4041 16.5996  C 73.4041 16.5996  75.115 18.4577  75.115 18.4577  C 75.115 18.4577  75.8523 18.4411  75.8523 18.4411  C 75.8523 18.4411  76.5724 17.5894  76.5724 17.5894  C 76.5724 17.5894  76.8777 16.3894  76.8777 16.3894  C 76.8777 16.3894  77.0678 14.2165  77.0678 14.2165  C 77.0678 14.2165  77.4134 13.4756  77.4134 13.4756  C 77.4134 13.4756  78.0529 13.6415  78.0529 13.6415  C 78.0529 13.6415  79.7119 15.361  79.7119 15.361  C 79.7119 15.361  81.3653 14.9573  81.3653 14.9573  C 81.3653 14.9573  82.287 17.3848  82.287 17.3848  C 82.287 17.3848  82.8515 18.1259  82.8515 18.1259  C 82.8515 18.1259  83.128 19.3592  83.128 19.3592  C 83.128 19.3592  84.1246 17.9931  84.1246 17.9931  C 84.1246 17.9931  83.8135 16.3231  83.8135 16.3231  C 83.8135 16.3231  84.885 15.173  84.885 15.173  C 84.885 15.173  85.294 13.6194  85.294 13.6194  C 85.294 13.6194  84.8677 12.4971  84.8677 12.4971  C 84.8677 12.4971  83.9518 12.6242  83.9518 12.6242  C 83.9518 12.6242  84.3838 11.1207  84.3838 11.1207  C 84.3838 11.1207  83.825 8.94310000000002  83.825 8.94310000000002  C 83.825 8.94310000000002  83.439 8.64460000000003  83.439 8.64460000000003  C 83.439 8.64460000000003  83.8423 7.23000000000002  83.8423 7.23000000000002  C 83.8423 7.23000000000002  84.5682 6.84859999999998  84.5682 6.84859999999998  C 84.5682 6.84859999999998  84.8561999999999 2.78789999999998  84.8561999999999 2.78789999999998  C 84.8561999999999 2.78789999999998  85.3401 2.02010000000001  85.3401 2.02010000000001  C 85.3401 2.02010000000001  87.4426999999999 0.909899999999993  87.4426999999999 0.909899999999993  C 87.4426999999999 0.909899999999993  89.361 1.07560000000001  89.361 1.07560000000001  C 89.361 1.07560000000001  89.9601 0.352100000000007  89.9601 0.352100000000007  C 89.9601 0.352100000000007  91.1180000000001 0.164300000000026  91.1180000000001 0.164300000000026  C 91.1180000000001 0.164300000000026  91.5501 1.08670000000001  91.5501 1.08670000000001  C 91.5501 1.08670000000001  91.5962 2.68299999999999  91.5962 2.68299999999999  C 91.5962 2.68299999999999  90.9222 4.6773  90.9222 4.6773  C 90.9222 4.6773  91.4233 6.56130000000002  91.4233 6.56130000000002  C 91.4233 6.56130000000002  91.4752 7.94830000000002  91.4752 7.94830000000002  C 91.4752 7.94830000000002  90.8415 9.8218  90.8415 9.8218  C 90.8415 9.8218  90.2309 10.4906  90.2309 10.4906  C 90.2309 10.4906  88.6582 11.2921  88.6582 11.2921  C 88.6582 11.2921  88.1398 13.2102  88.1398 13.2102  C 88.1398 13.2102  88.4912 15.3886  88.4912 15.3886  C 88.4912 15.3886  89.7815000000001 16.2788  89.7815000000001 16.2788  C 89.7815000000001 16.2788  89.7067 16.782  89.7067 16.782  C 89.7067 16.782  91.648 16.6714  91.648 16.6714  C 91.648 16.6714  92.61 18.2254  92.61 18.2254  C 92.61 18.2254  94.2921 17.9599  94.2921 17.9599  C 94.2921 17.9599  95.0467 18.1259  95.0467 18.1259  C 95.0467 18.1259  96.2507000000001 19.7298  96.2507000000001 19.7298  C 96.2507000000001 19.7298  97.4605 19.1878  97.4605 19.1878  C 97.4605 19.1878  98.7739 20.4267  98.7739 20.4267  C 98.7739 20.4267  98.1633 21.7156  98.1633 21.7156  C 98.1633 21.7156  99.2693 24.1112  99.2693 24.1112  C 99.2693 24.1112  100.1334 24.6036  100.1334 24.6036  C 100.1334 24.6036  101.8098 24.2717  101.8098 24.2717  C 101.8098 24.2717  102.6105 23.2425  102.6105 23.2425  C 102.6105 23.2425  103.0886 21.9701  103.0886 21.9701  C 103.0886 21.9701  103.6935 21.9535  103.6935 21.9535  C 103.6935 21.9535  104.5922 23.6077  104.5922 23.6077  C 104.5922 23.6077  104.788 25.0186  104.788 25.0186  C 104.788 25.0186  105.5196 26.2748  105.5196 26.2748  C 105.5196 26.2748  104.5287 28.649  104.5287 28.649  C 104.5287 28.649  103.4918 29.8058  103.4918 29.8058  C 103.4918 29.8058  102.9504 32.9392  102.9504 32.9392  C 102.9504 32.9392  103.2326 34.4066  103.2326 34.4066  C 103.2326 34.4066  104.7131 34.0133  104.7131 34.0133  C 104.7131 34.0133  104.7534 34.8717  104.7534 34.8717  C 104.7534 34.8717  104.2695 36.5828  104.2695 36.5828  C 104.2695 36.5828  104.6728 36.9318  104.6728 36.9318  C 104.6728 36.9318  103.7568 37.9232  103.7568 37.9232  C 103.7568 37.9232  102.6508 38.034  102.6508 38.034  C 102.6508 38.034  102.4953 38.9811  102.4953 38.9811  C 102.4953 38.9811  102.9388 40.1223  102.9388 40.1223  C 102.9388 40.1223  104.1601 40.571  104.1601 40.571  C 104.1601 40.571  105.1048 41.3189  105.1048 41.3189  C 105.1048 41.3189  105.0991 41.8508  105.0991 41.8508  C 105.0991 41.8508  105.9632 42.6985  105.9632 42.6985  C 105.9632 42.6985  105.8653 44.7819  105.8653 44.7819  C 105.8653 44.7819  105.3179 45.907  105.3179 45.907  C 105.3179 45.907  106.5047 45.8017  106.5047 45.8017  C 106.5047 45.8017  107.265 47.093  107.265 47.093  C 107.265 47.093  107.0058 48.6784  107.0058 48.6784  C 107.0058 48.6784  107.8987 48.9999  107.8987 48.9999  C 107.8987 48.9999  108.2213 49.6318  108.2213 49.6318  C 108.2213 49.6318  107.9563 50.7462  107.9563 50.7462  C 107.9563 50.7462  108.3596 53.3411  108.3596 53.3411  C 108.3596 53.3411  108.3539 54.8439  108.3539 54.8439  C 108.3539 54.8439  109.1949 56.5633  109.1949 56.5633  C 109.1949 56.5633  109.264 57.9943  109.264 57.9943  C 109.264 57.9943  108.544 58.8708  108.544 58.8708  C 108.544 58.8708  107.3515 59.5365  107.3515 59.5365  C 107.3515 59.5365  106.4067 59.6697  106.4067 59.6697  C 106.4067 59.6697  105.7039 61.029  105.7039 61.029  C 105.7039 61.029  105.9228 62.1664  105.9228 62.1664  C 105.9228 62.1664  104.8514 65.9236  104.8514 65.9236  C 104.8514 65.9236  105.5023 67.5222  105.5023 67.5222  C 105.5023 67.5222  104.1716 68.2383  104.1716 68.2383  C 104.1716 68.2383  104.4251 69.0434  104.4251 69.0434  C 104.4251 69.0434  105.4965 68.6824  105.4965 68.6824  C 105.4965 68.6824  106.0265 69.6929  106.0265 69.6929  C 106.0265 69.6929  105.5254 71.5479  105.5254 71.5479  C 105.5254 71.5479  106.2396 72.6696  106.2396 72.6696  C 106.2396 72.6696  106.1475 73.7191  106.1475 73.7191  C 106.1475 73.7191  107.098 73.6468  107.098 73.6468  C 107.098 73.6468  108.0255 73.1249  108.0255 73.1249  C 108.0255 73.1249  109.0566 74.0356  109.0566 74.0356  C 109.0566 74.0356  110.6984 74.5354  110.6984 74.5354  C 110.6984 74.5354  111.1477 75.2796  111.1477 75.2796  C 111.1477 75.2796  111.3494 76.646  111.3494 76.646  C 111.3494 76.646  110.8194 80.4402  110.8194 80.4402  C 110.8194 80.4402  109.2295 81.9627  109.2295 81.9627  C 109.2295 81.9627  108.6937 83.5575  108.6937 83.5575  C 108.6937 83.5575  107.0865 84.7024  107.0865 84.7024  C 107.0865 84.7024  105.8998 84.3912  105.8998 84.3912  C 105.8998 84.3912  104.811 83.6187  104.811 83.6187  C 104.811 83.6187  103.0944 85.3194  103.0944 85.3194  C 103.0944 85.3194  102.6162 87.0258  102.6162 87.0258  C 102.6162 87.0258  103.3767 89.8833  103.3767 89.8833  C 103.3767 89.8833  102.9504 91.6849  102.9504 91.6849  C 102.9504 91.6849  102.887 93.5812  102.887 93.5812  C 102.887 93.5812  100.9111 95.0662  100.9111 95.0662  C 100.9111 95.0662  100.7152 96.2899  100.7152 96.2899  C 100.7152 96.2899  99.4364 97.1077  99.4364 97.1077  C 99.4364 97.1077  99.1541 97.7808  99.1541 97.7808  C 99.1541 97.7808  99.2232 99.1939  99.2232 99.1939  C 99.2232 99.1939  98.7336 99.6724  98.7336 99.6724  C 98.7336 99.6724  96.7807 99.1884  96.7807 99.1884  C 96.7807 99.1884  94.6896 100.8576  94.6896 100.8576  C 94.6896 100.8576  93.3013 101.3417  93.3013 101.3417  C 93.3013 101.3417  92.5524 100.0396  92.5524 100.0396  C 92.5524 100.0396  91.4982 100.1731  91.4982 100.1731  C 91.4982 100.1731  90.3288 101.5699  90.3288 101.5699  C 90.3288 101.5699  88.9808 102.093  88.9808 102.093  C 88.9808 102.093  87.8978 101.4808  87.8978 101.4808  C 87.8978 101.4808  87.2527 101.8926  87.2527 101.8926  C 87.2527 101.8926  86.9761 101.236  86.9761 101.236  C 86.9761 101.236  86.2963999999999 101.4975  86.2963999999999 101.4975  C 86.2963999999999 101.4975  85.5648 103.9518  85.5648 103.9518  C 85.5648 103.9518  86.0372 104.564  86.0372 104.564  C 86.0372 104.564  84.9657 105.2041  84.9657 105.2041  C 84.9657 105.2041  84.6949 103.7903  84.6949 103.7903  C 84.6949 103.7903  83.5889 105.026  83.5889 105.026  C 83.5889 105.026  83.2374 106.4288  83.2374 106.4288  C 83.2374 106.4288  84.1419 106.579  84.1419 106.579  C 84.1419 106.579  84.2166999999999 108.6055  84.2166999999999 108.6055  C 84.2166999999999 108.6055  83.1165 110.4095  83.1165 110.4095  C 83.1165 110.4095  81.1579 112.4867  81.1579 112.4867  C 81.1579 112.4867  81.0945 113.7342  81.0945 113.7342  C 81.0945 113.7342  81.4286 114.7814  81.4286 114.7814  C 81.4286 114.7814  81.515 117.6949  81.515 117.6949  C 81.515 117.6949  81.8664 119.3442  81.8664 119.3442  C 81.8664 119.3442  81.4171 119.7119  81.4171 119.7119  C 81.4171 119.7119  79.8732 119.411  79.8732 119.411  C 79.8732 119.411  79.0322 119.5614  79.0322 119.5614  C 79.0322 119.5614  78.9977 117.5946  78.9977 117.5946  C 78.9977 117.5946  77.3904 115.8733  77.3904 115.8733  C 77.3904 115.8733  73.9225 115.6671  73.9225 115.6671  C 73.9225 115.6671  71.912 116.3969  71.912 116.3969  C 71.912 116.3969  70.5756 117.7117  70.5756 117.7117  C 70.5756 117.7117  69.7403 115.0655  69.7403 115.0655  C 69.7403 115.0655  69.0259 113.9515  69.0259 113.9515  C 69.0259 113.9515  67.8508 110.404  67.8508 110.404  C 67.8508 110.404  67.004 110.5209  67.004 110.5209  C 67.004 110.5209  66.1572 112.1414  66.1572 112.1414  C 66.1572 112.1414  65.6848 112.2361  65.6848 112.2361  C 65.6848 112.2361  64.6306 110.8049  64.6306 110.8049  C 64.6306 110.8049  63.4151000000001 110.7604  63.4151000000001 110.7604  C 63.4151000000001 110.7604  62.6086 110.0754  62.6086 110.0754  C 62.6086 110.0754  62.7008 108.8672  62.7008 108.8672  C 62.7008 108.8672  62.0383 108.4385  62.0383 108.4385  C 62.0383 108.4385  62.0959 107.8261  62.0959 107.8261  C 62.0959 107.8261  60.4542 106.5234  60.4542 106.5234  C 60.4542 106.5234  59.9127 105.5714  59.9127 105.5714  C 59.9127 105.5714  58.8699 105.2597  58.8699 105.2597  C 58.8699 105.2597  57.833 104.0352  57.833 104.0352  C 57.833 104.0352  56.4159 103.8905  56.4159 103.8905  C 56.4159 103.8905  54.1428 104.2969  54.1428 104.2969  C 54.1428 104.2969  52.7776 103.6958  52.7776 103.6958  C 52.7776 103.6958  51.9077 103.9518  51.9077 103.9518  C 51.9077 103.9518  51.7003 105.0538  51.7003 105.0538  C 51.7003 105.0538  49.1887 106.8853  49.1887 106.8853  C 49.1887 106.8853  48.0827 108.5053  48.0827 108.5053  C 48.0827 108.5053  46.8038 109.4129  46.8038 109.4129  C 46.8038 109.4129  45.6113 108.7169  45.6113 108.7169  C 45.6113 108.7169  45.8014 110.1868  45.8014 110.1868  C 45.8014 110.1868  46.9478 110.5042  46.9478 110.5042  C 46.9478 110.5042  48.2843 113.6117  48.2843 113.6117  C 48.2843 113.6117  48.6241 113.1439  48.6241 113.1439  C 48.6241 113.1439  48.5723 114.6533  48.5723 114.6533  C 48.5723 114.6533  49.9779 116.0125  49.9779 116.0125  C 49.9779 116.0125  49.4537 116.3523  49.4537 116.3523  C 49.4537 116.3523  48.6933 115.8287  48.6933 115.8287  C 48.6933 115.8287  47.8119 116.5195  47.8119 116.5195  C 47.8119 116.5195  48.7624 117.6392  48.7624 117.6392  C 48.7624 117.6392  49.0562 118.631  49.0562 118.631  C 49.0562 118.631  49.3039 117.6838  49.3039 117.6838  C 49.3039 117.6838  50.266 119.2662  50.266 119.2662  C 50.266 119.2662  48.7682 118.7257  48.7682 118.7257  C 48.7682 118.7257  48.4743999999999 117.8509  48.4743999999999 117.8509  C 48.4743999999999 117.8509  46.7231 117.8899  46.7231 117.8899  C 46.7231 117.8899  46.51 120.6035  46.51 120.6035  C 46.51 120.6035  45.7957 120.7595  45.7957 120.7595  C 45.7957 120.7595  45.8475 121.6456  45.8475 121.6456  C 45.8475 121.6456  45.3521 122.0134  45.3521 122.0134  C 45.3521 122.0134  44.2921 120.8988  44.2921 120.8988  C 44.2921 120.8988  43.4742 121.2165  43.4742 121.2165  C 43.4742 121.2165  42.8174 120.6982  42.8174 120.6982  C 42.8174 120.6982  42.564 121.8351  42.564 121.8351  C 42.564 121.8351  41.936 122.6599  41.936 122.6599  C 41.936 122.6599  42.7598 125.4525  42.7598 125.4525  C 42.7598 125.4525  42.4833 125.7813  42.4833 125.7813  C 42.4833 125.7813  42.8348 127.4985  42.8348 127.4985  C 42.8348 127.4985  42.4891 128.9314  42.4891 128.9314  C 42.4891 128.9314  43.094 129.5671  43.094 129.5671  C 43.094 129.5671  43.9235 129.7064  43.9235 129.7064  C 43.9235 129.7064  44.609 130.9891  44.609 130.9891  C 44.609 130.9891  44.056 132.6342  44.056 132.6342  C 44.056 132.6342  42.2472 133.1864  42.2472 133.1864  C 42.2472 133.1864  41.9015 133.6494  41.9015 133.6494  C 41.9015 133.6494  41.1872 132.8406  41.1872 132.8406  C 41.1872 132.8406  40.1215 133.3426  40.1215 133.3426  C 40.1215 133.3426  39.7182 133.9784  39.7182 133.9784  C 39.7182 133.9784  39.2804 135.8417  39.2804 135.8417  C 39.2804 135.8417  39.9083 136.5111  39.9083 136.5111  C 39.9083 136.5111  39.315 137.3201  39.315 137.3201  C 39.315 137.3201  38.7908 137.1862  38.7908 137.1862  C 38.7908 137.1862  37.1202 137.6939  37.1202 137.6939  C 37.1202 137.6939  35.7261 139.0107  35.7261 139.0107  Z " fill-rule="evenodd" />
    </mask>
  </defs>
  <g transform="matrix(1 0 0 1 -510 -390 )">
    <path d="M 35.7261 139.0107  C 35.7261 139.0107  34.8966 140.3946  34.8966 140.3946  C 34.8966 140.3946  34.0901 139.8254  34.0901 139.8254  C 34.0901 139.8254  33.7099 140.6904  33.7099 140.6904  C 33.7099 140.6904  32.84 140.7797  32.84 140.7797  C 32.84 140.7797  32.1373 141.3656  32.1373 141.3656  C 32.1373 141.3656  31.2443 140.3444  31.2443 140.3444  C 31.2443 140.3444  31.0369 139.379  31.0369 139.379  C 31.0369 139.379  31.7109 138.9493  31.7109 138.9493  C 31.7109 138.9493  31.6188 137.9227  31.6188 137.9227  C 31.6188 137.9227  30.7604 136.2656  30.7604 136.2656  C 30.7604 136.2656  29.8503 135.1331  29.8503 135.1331  C 29.8503 135.1331  29.2799 135.624  29.2799 135.624  C 29.2799 135.624  28.7845 134.8542  28.7845 134.8542  C 28.7845 134.8542  29.3088 134.1403  29.3088 134.1403  C 29.3088 134.1403  28.5311 133.0526  28.5311 133.0526  C 28.5311 133.0526  28.7615 131.6861  28.7615 131.6861  C 28.7615 131.6861  28.3986 130.5819  28.3986 130.5819  C 28.3986 130.5819  27.1716 129.9685  27.1716 129.9685  C 27.1716 129.9685  27.114 129.2492  27.114 129.2492  C 27.114 129.2492  25.3627 129.0875  25.3627 129.0875  C 25.3627 129.0875  23.0585 129.344  23.0585 129.344  C 23.0585 129.344  23.4847 128.3068  23.4847 128.3068  C 23.4847 128.3068  23.1679 127.5151  23.1679 127.5151  C 23.1679 127.5151  23.9168 125.9597  23.9168 125.9597  C 23.9168 125.9597  23.986 125.0343  23.986 125.0343  C 23.986 125.0343  24.7982 125.5249  24.7982 125.5249  C 24.7982 125.5249  25.2706 124.9731  25.2706 124.9731  C 25.2706 124.9731  24.1876 123.652  24.1876 123.652  C 24.1876 123.652  22.9778 124.1816  22.9778 124.1816  C 22.9778 124.1816  21.1805 124.1313  21.1805 124.1313  C 21.1805 124.1313  20.4777 122.0413  20.4777 122.0413  C 20.4777 122.0413  19.2334 121.4784  19.2334 121.4784  C 19.2334 121.4784  19.5618 120.765  19.5618 120.765  C 19.5618 120.765  19.0433 119.8345  19.0433 119.8345  C 19.0433 119.8345  21.4974 118.5697  21.4974 118.5697  C 21.4974 118.5697  21.2669 117.2715  21.2669 117.2715  C 21.2669 117.2715  17.2921 115.1101  17.2921 115.1101  C 17.2921 115.1101  16.3704 115.461  16.3704 115.461  C 16.3704 115.461  15.7482 114.9708  15.7482 114.9708  C 15.7482 114.9708  15.7712 113.7342  15.7712 113.7342  C 15.7712 113.7342  13.8818 113.4446  13.8818 113.4446  C 13.8818 113.4446  13.2539 112.6594  13.2539 112.6594  C 13.2539 112.6594  13.346 111.5845  13.346 111.5845  C 13.346 111.5845  12.1363 110.326  12.1363 110.326  C 12.1363 110.326  11.6985 109.3404  11.6985 109.3404  C 11.6985 109.3404  11.7618 108.3828  11.7618 108.3828  C 11.7618 108.3828  11.0591 107.8261  11.0591 107.8261  C 11.0591 107.8261  10.7364 106.9353  10.7364 106.9353  C 10.7364 106.9353  9.8897 105.9723  9.8897 105.9723  C 9.8897 105.9723  8.65690000000001 105.6605  8.65690000000001 105.6605  C 8.65690000000001 105.6605  8.37459999999999 104.6197  8.37459999999999 104.6197  C 8.37459999999999 104.6197  10.0106 102.7774  10.0106 102.7774  C 10.0106 102.7774  9.87810000000002 102.2654  9.87810000000002 102.2654  C 9.87810000000002 102.2654  10.9093 102.143  10.9093 102.143  C 10.9093 102.143  10.3851 101.4084  10.3851 101.4084  C 10.3851 101.4084  11.2261 99.8672  11.2261 99.8672  C 11.2261 99.8672  10.4139 98.8044  10.4139 98.8044  C 10.4139 98.8044  9.42880000000002 96.6627  9.42880000000002 96.6627  C 9.42880000000002 96.6627  8.16149999999999 97.0409  8.16149999999999 97.0409  C 8.16149999999999 97.0409  7.32040000000001 96.2788  7.32040000000001 96.2788  C 7.32040000000001 96.2788  6.50240000000002 96.0674  6.50240000000002 96.0674  C 6.50240000000002 96.0674  6.04730000000001 96.5569  6.04730000000001 96.5569  C 6.04730000000001 96.5569  5.30990000000003 96.2565  5.30990000000003 96.2565  C 5.30990000000003 96.2565  4.0138 96.6904  4.0138 96.6904  C 4.0138 96.6904  3.71429999999998 95.8227  3.71429999999998 95.8227  C 3.71429999999998 95.8227  4.15210000000002 95.2609  4.15210000000002 95.2609  C 4.15210000000002 95.2609  3.54140000000001 94.4544  3.54140000000001 94.4544  C 3.54140000000001 94.4544  3.9332 93.6702  3.9332 93.6702  C 3.9332 93.6702  3.36279999999999 91.5793  3.36279999999999 91.5793  C 3.36279999999999 91.5793  2.89049999999997 91.7627  2.89049999999997 91.7627  C 2.89049999999997 91.7627  3.18430000000001 89.3162  3.18430000000001 89.3162  C 3.18430000000001 89.3162  3.55869999999999 88.3377  3.55869999999999 88.3377  C 3.55869999999999 88.3377  3.55290000000002 87.2093  3.55290000000002 87.2093  C 3.55290000000002 87.2093  4.10599999999999 86.8368  4.10599999999999 86.8368  C 4.10599999999999 86.8368  4.4631 85.0581  4.4631 85.0581  C 4.4631 85.0581  3.99650000000003 84.7469  3.99650000000003 84.7469  C 3.99650000000003 84.7469  3.95620000000002 83.1963  3.95620000000002 83.1963  C 3.95620000000002 83.1963  2.32589999999999 82.4739  2.32589999999999 82.4739  C 2.32589999999999 82.4739  3.10359999999997 81.2015  3.10359999999997 81.2015  C 3.10359999999997 81.2015  2.37779999999998 80.6236  2.37779999999998 80.6236  C 2.37779999999998 80.6236  2.3374 79.7735  2.3374 79.7735  C 2.3374 79.7735  0.920299999999997 78.8735  0.920299999999997 78.8735  C 0.920299999999997 78.8735  1.92849999999999 79.0902  1.92849999999999 79.0902  C 1.92849999999999 79.0902  2.9538 77.5515  2.9538 77.5515  C 2.9538 77.5515  1.49059999999997 77.0293  1.49059999999997 77.0293  C 1.49059999999997 77.0293  1.20260000000002 76.3739  1.20260000000002 76.3739  C 1.20260000000002 76.3739  1.43310000000002 75.9794  1.43310000000002 75.9794  C 1.43310000000002 75.9794  0.447999999999979 75.052  0.447999999999979 75.052  C 0.447999999999979 75.052  1.46179999999998 74.0079  1.46179999999998 74.0079  C 1.46179999999998 74.0079  0.73599999999999 72.7973  0.73599999999999 72.7973  C 0.73599999999999 72.7973  2.38350000000003 71.4813  2.38350000000003 71.4813  C 2.38350000000003 71.4813  3.08640000000003 71.5646  3.08640000000003 71.5646  C 3.08640000000003 71.5646  3.70850000000002 69.7817  3.70850000000002 69.7817  C 3.70850000000002 69.7817  4.89519999999999 71.3259  4.89519999999999 71.3259  C 4.89519999999999 71.3259  5.35599999999999 68.8601  5.35599999999999 68.8601  C 5.35599999999999 68.8601  5.85140000000001 68.9378  5.85140000000001 68.9378  C 5.85140000000001 68.9378  5.67860000000002 67.5499  5.67860000000002 67.5499  C 5.67860000000002 67.5499  6.23739999999998 66.8783  6.23739999999998 66.8783  C 6.23739999999998 66.8783  7.19940000000003 66.8006  7.19940000000003 66.8006  C 7.19940000000003 66.8006  7.60270000000003 65.3796  7.60270000000003 65.3796  C 7.60270000000003 65.3796  8.32279999999997 65.3241  8.32279999999997 65.3241  C 8.32279999999997 65.3241  9.25020000000001 63.3096  9.25020000000001 63.3096  C 9.25020000000001 63.3096  10.8114 64.0532  10.8114 64.0532  C 10.8114 64.0532  11.4738 63.2763  11.4738 63.2763  C 11.4738 63.2763  13.0695 64.8635  13.0695 64.8635  C 13.0695 64.8635  12.6375 65.907  12.6375 65.907  C 12.6375 65.907  12.9082 66.8949  12.9082 66.8949  C 12.9082 66.8949  13.5707 67.2003  13.5707 67.2003  C 13.5707 67.2003  15.1318 66.7007  15.1318 66.7007  C 15.1318 66.7007  15.9613 68.0385  15.9613 68.0385  C 15.9613 68.0385  16.8485 68.1939  16.8485 68.1939  C 16.8485 68.1939  17.269 69.0101  17.269 69.0101  C 17.269 69.0101  18.6919 66.9171  18.6919 66.9171  C 18.6919 66.9171  21.3303 66.5897  21.3303 66.5897  C 21.3303 66.5897  21.3763 68.1828  21.3763 68.1828  C 21.3763 68.1828  22.8626 71.3259  22.8626 71.3259  C 22.8626 71.3259  22.7531 72.3697  22.7531 72.3697  C 22.7531 72.3697  23.6806 72.7362  23.6806 72.7362  C 23.6806 72.7362  23.6461 73.2637  23.6461 73.2637  C 23.6461 73.2637  25.6219 75.4074  25.6219 75.4074  C 25.6219 75.4074  25.7717 76.0905  25.7717 76.0905  C 25.7717 76.0905  26.6992 75.2408  26.6992 75.2408  C 26.6992 75.2408  26.8835 74.541  26.8835 74.541  C 26.8835 74.541  27.5633 74.2688  27.5633 74.2688  C 27.5633 74.2688  27.6324 73.1193  27.6324 73.1193  C 27.6324 73.1193  28.5541 69.8872  28.5541 69.8872  C 28.5541 69.8872  28.3121 69.5152  28.3121 69.5152  C 28.3121 69.5152  29.5391 68.6491  29.5391 68.6491  C 29.5391 68.6491  29.8964 69.4375  29.8964 69.4375  C 29.8964 69.4375  31.0427 68.1329  31.0427 68.1329  C 31.0427 68.1329  31.083 67.2336  31.083 67.2336  C 31.083 67.2336  32.4598 65.7349  32.4598 65.7349  C 32.4598 65.7349  32.8804 64.425  32.8804 64.425  C 32.8804 64.425  33.7041 62.8823  33.7041 62.8823  C 33.7041 62.8823  34.839 62.0388  34.839 62.0388  C 34.839 62.0388  36.0487 62.7768  36.0487 62.7768  C 36.0487 62.7768  36.9646 64.6248  36.9646 64.6248  C 36.9646 64.6248  37.9727 64.7192  37.9727 64.7192  C 37.9727 64.7192  37.6847 63.8478  37.6847 63.8478  C 37.6847 63.8478  38.8599 63.8922  38.8599 63.8922  C 38.8599 63.8922  39.5857 62.5659  39.5857 62.5659  C 39.5857 62.5659  39.9429 60.2078  39.9429 60.2078  C 39.9429 60.2078  40.8242 58.1496  40.8242 58.1496  C 40.8242 58.1496  41.6768 59.4256  41.6768 59.4256  C 41.6768 59.4256  43.0075 59.1759  43.0075 59.1759  C 43.0075 59.1759  43.9465 58.2162  43.9465 58.2162  C 43.9465 58.2162  44.2 56.6353  44.2 56.6353  C 44.2 56.6353  45.1159 56.2914  45.1159 56.2914  C 45.1159 56.2914  48.1921 57.1013  48.1921 57.1013  C 48.1921 57.1013  49.0792 58.3216  49.0792 58.3216  C 49.0792 58.3216  49.2348 59.9637  49.2348 59.9637  C 49.2348 59.9637  50.0125 61.0568  50.0125 61.0568  C 50.0125 61.0568  50.4791 59.3867  50.4791 59.3867  C 50.4791 59.3867  52.4377 57.3286  52.4377 57.3286  C 52.4377 57.3286  52.2131000000001 56.2859  52.2131000000001 56.2859  C 52.2131000000001 56.2859  52.6854 54.489  52.6854 54.489  C 52.6854 54.489  52.7833000000001 52.964  52.7833000000001 52.964  C 52.7833000000001 52.964  52.4434 51.1565  52.4434 51.1565  C 52.4434 51.1565  52.3916 49.4211  52.3916 49.4211  C 52.3916 49.4211  53.0540999999999 47.0154  53.0540999999999 47.0154  C 53.0540999999999 47.0154  54.2234999999999 45.325  54.2234999999999 45.325  C 54.2234999999999 45.325  54.9838999999999 41.2302  54.9838999999999 41.2302  C 54.9838999999999 41.2302  54.6267 38.2223  54.6267 38.2223  C 54.6267 38.2223  55.0473 36.2062  55.0473 36.2062  C 55.0473 36.2062  57.4874 35.8851  57.4874 35.8851  C 57.4874 35.8851  57.8273 34.772  57.8273 34.772  C 57.8273 34.772  58.0577 32.0644  58.0577 32.0644  C 58.0577 32.0644  59.3251 30.996  59.3251 30.996  C 59.3251 30.996  59.8781 29.9332  59.8781 29.9332  C 59.8781 29.9332  60.506 27.7579  60.506 27.7579  C 60.506 27.7579  61.2491 26.9444  61.2491 26.9444  C 61.2491 26.9444  63.5821999999999 26.5238  63.5821999999999 26.5238  C 63.5821999999999 26.5238  64.6248000000001 25.9925  64.6248000000001 25.9925  C 64.6248000000001 25.9925  66.6353 24.4653  66.6353 24.4653  C 66.6353 24.4653  68.231 21.6879  68.231 21.6879  C 68.231 21.6879  70.5641000000001 18.9223  70.5641000000001 18.9223  C 70.5641000000001 18.9223  71.4743 17.5341  71.4743 17.5341  C 71.4743 17.5341  72.8337 16.4337  72.8337 16.4337  C 72.8337 16.4337  73.4041 16.5996  73.4041 16.5996  C 73.4041 16.5996  75.115 18.4577  75.115 18.4577  C 75.115 18.4577  75.8523 18.4411  75.8523 18.4411  C 75.8523 18.4411  76.5724 17.5894  76.5724 17.5894  C 76.5724 17.5894  76.8777 16.3894  76.8777 16.3894  C 76.8777 16.3894  77.0678 14.2165  77.0678 14.2165  C 77.0678 14.2165  77.4134 13.4756  77.4134 13.4756  C 77.4134 13.4756  78.0529 13.6415  78.0529 13.6415  C 78.0529 13.6415  79.7119 15.361  79.7119 15.361  C 79.7119 15.361  81.3653 14.9573  81.3653 14.9573  C 81.3653 14.9573  82.287 17.3848  82.287 17.3848  C 82.287 17.3848  82.8515 18.1259  82.8515 18.1259  C 82.8515 18.1259  83.128 19.3592  83.128 19.3592  C 83.128 19.3592  84.1246 17.9931  84.1246 17.9931  C 84.1246 17.9931  83.8135 16.3231  83.8135 16.3231  C 83.8135 16.3231  84.885 15.173  84.885 15.173  C 84.885 15.173  85.294 13.6194  85.294 13.6194  C 85.294 13.6194  84.8677 12.4971  84.8677 12.4971  C 84.8677 12.4971  83.9518 12.6242  83.9518 12.6242  C 83.9518 12.6242  84.3838 11.1207  84.3838 11.1207  C 84.3838 11.1207  83.825 8.94310000000002  83.825 8.94310000000002  C 83.825 8.94310000000002  83.439 8.64460000000003  83.439 8.64460000000003  C 83.439 8.64460000000003  83.8423 7.23000000000002  83.8423 7.23000000000002  C 83.8423 7.23000000000002  84.5682 6.84859999999998  84.5682 6.84859999999998  C 84.5682 6.84859999999998  84.8561999999999 2.78789999999998  84.8561999999999 2.78789999999998  C 84.8561999999999 2.78789999999998  85.3401 2.02010000000001  85.3401 2.02010000000001  C 85.3401 2.02010000000001  87.4426999999999 0.909899999999993  87.4426999999999 0.909899999999993  C 87.4426999999999 0.909899999999993  89.361 1.07560000000001  89.361 1.07560000000001  C 89.361 1.07560000000001  89.9601 0.352100000000007  89.9601 0.352100000000007  C 89.9601 0.352100000000007  91.1180000000001 0.164300000000026  91.1180000000001 0.164300000000026  C 91.1180000000001 0.164300000000026  91.5501 1.08670000000001  91.5501 1.08670000000001  C 91.5501 1.08670000000001  91.5962 2.68299999999999  91.5962 2.68299999999999  C 91.5962 2.68299999999999  90.9222 4.6773  90.9222 4.6773  C 90.9222 4.6773  91.4233 6.56130000000002  91.4233 6.56130000000002  C 91.4233 6.56130000000002  91.4752 7.94830000000002  91.4752 7.94830000000002  C 91.4752 7.94830000000002  90.8415 9.8218  90.8415 9.8218  C 90.8415 9.8218  90.2309 10.4906  90.2309 10.4906  C 90.2309 10.4906  88.6582 11.2921  88.6582 11.2921  C 88.6582 11.2921  88.1398 13.2102  88.1398 13.2102  C 88.1398 13.2102  88.4912 15.3886  88.4912 15.3886  C 88.4912 15.3886  89.7815000000001 16.2788  89.7815000000001 16.2788  C 89.7815000000001 16.2788  89.7067 16.782  89.7067 16.782  C 89.7067 16.782  91.648 16.6714  91.648 16.6714  C 91.648 16.6714  92.61 18.2254  92.61 18.2254  C 92.61 18.2254  94.2921 17.9599  94.2921 17.9599  C 94.2921 17.9599  95.0467 18.1259  95.0467 18.1259  C 95.0467 18.1259  96.2507000000001 19.7298  96.2507000000001 19.7298  C 96.2507000000001 19.7298  97.4605 19.1878  97.4605 19.1878  C 97.4605 19.1878  98.7739 20.4267  98.7739 20.4267  C 98.7739 20.4267  98.1633 21.7156  98.1633 21.7156  C 98.1633 21.7156  99.2693 24.1112  99.2693 24.1112  C 99.2693 24.1112  100.1334 24.6036  100.1334 24.6036  C 100.1334 24.6036  101.8098 24.2717  101.8098 24.2717  C 101.8098 24.2717  102.6105 23.2425  102.6105 23.2425  C 102.6105 23.2425  103.0886 21.9701  103.0886 21.9701  C 103.0886 21.9701  103.6935 21.9535  103.6935 21.9535  C 103.6935 21.9535  104.5922 23.6077  104.5922 23.6077  C 104.5922 23.6077  104.788 25.0186  104.788 25.0186  C 104.788 25.0186  105.5196 26.2748  105.5196 26.2748  C 105.5196 26.2748  104.5287 28.649  104.5287 28.649  C 104.5287 28.649  103.4918 29.8058  103.4918 29.8058  C 103.4918 29.8058  102.9504 32.9392  102.9504 32.9392  C 102.9504 32.9392  103.2326 34.4066  103.2326 34.4066  C 103.2326 34.4066  104.7131 34.0133  104.7131 34.0133  C 104.7131 34.0133  104.7534 34.8717  104.7534 34.8717  C 104.7534 34.8717  104.2695 36.5828  104.2695 36.5828  C 104.2695 36.5828  104.6728 36.9318  104.6728 36.9318  C 104.6728 36.9318  103.7568 37.9232  103.7568 37.9232  C 103.7568 37.9232  102.6508 38.034  102.6508 38.034  C 102.6508 38.034  102.4953 38.9811  102.4953 38.9811  C 102.4953 38.9811  102.9388 40.1223  102.9388 40.1223  C 102.9388 40.1223  104.1601 40.571  104.1601 40.571  C 104.1601 40.571  105.1048 41.3189  105.1048 41.3189  C 105.1048 41.3189  105.0991 41.8508  105.0991 41.8508  C 105.0991 41.8508  105.9632 42.6985  105.9632 42.6985  C 105.9632 42.6985  105.8653 44.7819  105.8653 44.7819  C 105.8653 44.7819  105.3179 45.907  105.3179 45.907  C 105.3179 45.907  106.5047 45.8017  106.5047 45.8017  C 106.5047 45.8017  107.265 47.093  107.265 47.093  C 107.265 47.093  107.0058 48.6784  107.0058 48.6784  C 107.0058 48.6784  107.8987 48.9999  107.8987 48.9999  C 107.8987 48.9999  108.2213 49.6318  108.2213 49.6318  C 108.2213 49.6318  107.9563 50.7462  107.9563 50.7462  C 107.9563 50.7462  108.3596 53.3411  108.3596 53.3411  C 108.3596 53.3411  108.3539 54.8439  108.3539 54.8439  C 108.3539 54.8439  109.1949 56.5633  109.1949 56.5633  C 109.1949 56.5633  109.264 57.9943  109.264 57.9943  C 109.264 57.9943  108.544 58.8708  108.544 58.8708  C 108.544 58.8708  107.3515 59.5365  107.3515 59.5365  C 107.3515 59.5365  106.4067 59.6697  106.4067 59.6697  C 106.4067 59.6697  105.7039 61.029  105.7039 61.029  C 105.7039 61.029  105.9228 62.1664  105.9228 62.1664  C 105.9228 62.1664  104.8514 65.9236  104.8514 65.9236  C 104.8514 65.9236  105.5023 67.5222  105.5023 67.5222  C 105.5023 67.5222  104.1716 68.2383  104.1716 68.2383  C 104.1716 68.2383  104.4251 69.0434  104.4251 69.0434  C 104.4251 69.0434  105.4965 68.6824  105.4965 68.6824  C 105.4965 68.6824  106.0265 69.6929  106.0265 69.6929  C 106.0265 69.6929  105.5254 71.5479  105.5254 71.5479  C 105.5254 71.5479  106.2396 72.6696  106.2396 72.6696  C 106.2396 72.6696  106.1475 73.7191  106.1475 73.7191  C 106.1475 73.7191  107.098 73.6468  107.098 73.6468  C 107.098 73.6468  108.0255 73.1249  108.0255 73.1249  C 108.0255 73.1249  109.0566 74.0356  109.0566 74.0356  C 109.0566 74.0356  110.6984 74.5354  110.6984 74.5354  C 110.6984 74.5354  111.1477 75.2796  111.1477 75.2796  C 111.1477 75.2796  111.3494 76.646  111.3494 76.646  C 111.3494 76.646  110.8194 80.4402  110.8194 80.4402  C 110.8194 80.4402  109.2295 81.9627  109.2295 81.9627  C 109.2295 81.9627  108.6937 83.5575  108.6937 83.5575  C 108.6937 83.5575  107.0865 84.7024  107.0865 84.7024  C 107.0865 84.7024  105.8998 84.3912  105.8998 84.3912  C 105.8998 84.3912  104.811 83.6187  104.811 83.6187  C 104.811 83.6187  103.0944 85.3194  103.0944 85.3194  C 103.0944 85.3194  102.6162 87.0258  102.6162 87.0258  C 102.6162 87.0258  103.3767 89.8833  103.3767 89.8833  C 103.3767 89.8833  102.9504 91.6849  102.9504 91.6849  C 102.9504 91.6849  102.887 93.5812  102.887 93.5812  C 102.887 93.5812  100.9111 95.0662  100.9111 95.0662  C 100.9111 95.0662  100.7152 96.2899  100.7152 96.2899  C 100.7152 96.2899  99.4364 97.1077  99.4364 97.1077  C 99.4364 97.1077  99.1541 97.7808  99.1541 97.7808  C 99.1541 97.7808  99.2232 99.1939  99.2232 99.1939  C 99.2232 99.1939  98.7336 99.6724  98.7336 99.6724  C 98.7336 99.6724  96.7807 99.1884  96.7807 99.1884  C 96.7807 99.1884  94.6896 100.8576  94.6896 100.8576  C 94.6896 100.8576  93.3013 101.3417  93.3013 101.3417  C 93.3013 101.3417  92.5524 100.0396  92.5524 100.0396  C 92.5524 100.0396  91.4982 100.1731  91.4982 100.1731  C 91.4982 100.1731  90.3288 101.5699  90.3288 101.5699  C 90.3288 101.5699  88.9808 102.093  88.9808 102.093  C 88.9808 102.093  87.8978 101.4808  87.8978 101.4808  C 87.8978 101.4808  87.2527 101.8926  87.2527 101.8926  C 87.2527 101.8926  86.9761 101.236  86.9761 101.236  C 86.9761 101.236  86.2963999999999 101.4975  86.2963999999999 101.4975  C 86.2963999999999 101.4975  85.5648 103.9518  85.5648 103.9518  C 85.5648 103.9518  86.0372 104.564  86.0372 104.564  C 86.0372 104.564  84.9657 105.2041  84.9657 105.2041  C 84.9657 105.2041  84.6949 103.7903  84.6949 103.7903  C 84.6949 103.7903  83.5889 105.026  83.5889 105.026  C 83.5889 105.026  83.2374 106.4288  83.2374 106.4288  C 83.2374 106.4288  84.1419 106.579  84.1419 106.579  C 84.1419 106.579  84.2166999999999 108.6055  84.2166999999999 108.6055  C 84.2166999999999 108.6055  83.1165 110.4095  83.1165 110.4095  C 83.1165 110.4095  81.1579 112.4867  81.1579 112.4867  C 81.1579 112.4867  81.0945 113.7342  81.0945 113.7342  C 81.0945 113.7342  81.4286 114.7814  81.4286 114.7814  C 81.4286 114.7814  81.515 117.6949  81.515 117.6949  C 81.515 117.6949  81.8664 119.3442  81.8664 119.3442  C 81.8664 119.3442  81.4171 119.7119  81.4171 119.7119  C 81.4171 119.7119  79.8732 119.411  79.8732 119.411  C 79.8732 119.411  79.0322 119.5614  79.0322 119.5614  C 79.0322 119.5614  78.9977 117.5946  78.9977 117.5946  C 78.9977 117.5946  77.3904 115.8733  77.3904 115.8733  C 77.3904 115.8733  73.9225 115.6671  73.9225 115.6671  C 73.9225 115.6671  71.912 116.3969  71.912 116.3969  C 71.912 116.3969  70.5756 117.7117  70.5756 117.7117  C 70.5756 117.7117  69.7403 115.0655  69.7403 115.0655  C 69.7403 115.0655  69.0259 113.9515  69.0259 113.9515  C 69.0259 113.9515  67.8508 110.404  67.8508 110.404  C 67.8508 110.404  67.004 110.5209  67.004 110.5209  C 67.004 110.5209  66.1572 112.1414  66.1572 112.1414  C 66.1572 112.1414  65.6848 112.2361  65.6848 112.2361  C 65.6848 112.2361  64.6306 110.8049  64.6306 110.8049  C 64.6306 110.8049  63.4151000000001 110.7604  63.4151000000001 110.7604  C 63.4151000000001 110.7604  62.6086 110.0754  62.6086 110.0754  C 62.6086 110.0754  62.7008 108.8672  62.7008 108.8672  C 62.7008 108.8672  62.0383 108.4385  62.0383 108.4385  C 62.0383 108.4385  62.0959 107.8261  62.0959 107.8261  C 62.0959 107.8261  60.4542 106.5234  60.4542 106.5234  C 60.4542 106.5234  59.9127 105.5714  59.9127 105.5714  C 59.9127 105.5714  58.8699 105.2597  58.8699 105.2597  C 58.8699 105.2597  57.833 104.0352  57.833 104.0352  C 57.833 104.0352  56.4159 103.8905  56.4159 103.8905  C 56.4159 103.8905  54.1428 104.2969  54.1428 104.2969  C 54.1428 104.2969  52.7776 103.6958  52.7776 103.6958  C 52.7776 103.6958  51.9077 103.9518  51.9077 103.9518  C 51.9077 103.9518  51.7003 105.0538  51.7003 105.0538  C 51.7003 105.0538  49.1887 106.8853  49.1887 106.8853  C 49.1887 106.8853  48.0827 108.5053  48.0827 108.5053  C 48.0827 108.5053  46.8038 109.4129  46.8038 109.4129  C 46.8038 109.4129  45.6113 108.7169  45.6113 108.7169  C 45.6113 108.7169  45.8014 110.1868  45.8014 110.1868  C 45.8014 110.1868  46.9478 110.5042  46.9478 110.5042  C 46.9478 110.5042  48.2843 113.6117  48.2843 113.6117  C 48.2843 113.6117  48.6241 113.1439  48.6241 113.1439  C 48.6241 113.1439  48.5723 114.6533  48.5723 114.6533  C 48.5723 114.6533  49.9779 116.0125  49.9779 116.0125  C 49.9779 116.0125  49.4537 116.3523  49.4537 116.3523  C 49.4537 116.3523  48.6933 115.8287  48.6933 115.8287  C 48.6933 115.8287  47.8119 116.5195  47.8119 116.5195  C 47.8119 116.5195  48.7624 117.6392  48.7624 117.6392  C 48.7624 117.6392  49.0562 118.631  49.0562 118.631  C 49.0562 118.631  49.3039 117.6838  49.3039 117.6838  C 49.3039 117.6838  50.266 119.2662  50.266 119.2662  C 50.266 119.2662  48.7682 118.7257  48.7682 118.7257  C 48.7682 118.7257  48.4743999999999 117.8509  48.4743999999999 117.8509  C 48.4743999999999 117.8509  46.7231 117.8899  46.7231 117.8899  C 46.7231 117.8899  46.51 120.6035  46.51 120.6035  C 46.51 120.6035  45.7957 120.7595  45.7957 120.7595  C 45.7957 120.7595  45.8475 121.6456  45.8475 121.6456  C 45.8475 121.6456  45.3521 122.0134  45.3521 122.0134  C 45.3521 122.0134  44.2921 120.8988  44.2921 120.8988  C 44.2921 120.8988  43.4742 121.2165  43.4742 121.2165  C 43.4742 121.2165  42.8174 120.6982  42.8174 120.6982  C 42.8174 120.6982  42.564 121.8351  42.564 121.8351  C 42.564 121.8351  41.936 122.6599  41.936 122.6599  C 41.936 122.6599  42.7598 125.4525  42.7598 125.4525  C 42.7598 125.4525  42.4833 125.7813  42.4833 125.7813  C 42.4833 125.7813  42.8348 127.4985  42.8348 127.4985  C 42.8348 127.4985  42.4891 128.9314  42.4891 128.9314  C 42.4891 128.9314  43.094 129.5671  43.094 129.5671  C 43.094 129.5671  43.9235 129.7064  43.9235 129.7064  C 43.9235 129.7064  44.609 130.9891  44.609 130.9891  C 44.609 130.9891  44.056 132.6342  44.056 132.6342  C 44.056 132.6342  42.2472 133.1864  42.2472 133.1864  C 42.2472 133.1864  41.9015 133.6494  41.9015 133.6494  C 41.9015 133.6494  41.1872 132.8406  41.1872 132.8406  C 41.1872 132.8406  40.1215 133.3426  40.1215 133.3426  C 40.1215 133.3426  39.7182 133.9784  39.7182 133.9784  C 39.7182 133.9784  39.2804 135.8417  39.2804 135.8417  C 39.2804 135.8417  39.9083 136.5111  39.9083 136.5111  C 39.9083 136.5111  39.315 137.3201  39.315 137.3201  C 39.315 137.3201  38.7908 137.1862  38.7908 137.1862  C 38.7908 137.1862  37.1202 137.6939  37.1202 137.6939  C 37.1202 137.6939  35.7261 139.0107  35.7261 139.0107  Z " fill-rule="nonzero" fill="#ffffff" stroke="none" transform="matrix(1 0 0 1 510 390 )" />
    <path d="M 35.7261 139.0107  C 35.7261 139.0107  34.8966 140.3946  34.8966 140.3946  C 34.8966 140.3946  34.0901 139.8254  34.0901 139.8254  C 34.0901 139.8254  33.7099 140.6904  33.7099 140.6904  C 33.7099 140.6904  32.84 140.7797  32.84 140.7797  C 32.84 140.7797  32.1373 141.3656  32.1373 141.3656  C 32.1373 141.3656  31.2443 140.3444  31.2443 140.3444  C 31.2443 140.3444  31.0369 139.379  31.0369 139.379  C 31.0369 139.379  31.7109 138.9493  31.7109 138.9493  C 31.7109 138.9493  31.6188 137.9227  31.6188 137.9227  C 31.6188 137.9227  30.7604 136.2656  30.7604 136.2656  C 30.7604 136.2656  29.8503 135.1331  29.8503 135.1331  C 29.8503 135.1331  29.2799 135.624  29.2799 135.624  C 29.2799 135.624  28.7845 134.8542  28.7845 134.8542  C 28.7845 134.8542  29.3088 134.1403  29.3088 134.1403  C 29.3088 134.1403  28.5311 133.0526  28.5311 133.0526  C 28.5311 133.0526  28.7615 131.6861  28.7615 131.6861  C 28.7615 131.6861  28.3986 130.5819  28.3986 130.5819  C 28.3986 130.5819  27.1716 129.9685  27.1716 129.9685  C 27.1716 129.9685  27.114 129.2492  27.114 129.2492  C 27.114 129.2492  25.3627 129.0875  25.3627 129.0875  C 25.3627 129.0875  23.0585 129.344  23.0585 129.344  C 23.0585 129.344  23.4847 128.3068  23.4847 128.3068  C 23.4847 128.3068  23.1679 127.5151  23.1679 127.5151  C 23.1679 127.5151  23.9168 125.9597  23.9168 125.9597  C 23.9168 125.9597  23.986 125.0343  23.986 125.0343  C 23.986 125.0343  24.7982 125.5249  24.7982 125.5249  C 24.7982 125.5249  25.2706 124.9731  25.2706 124.9731  C 25.2706 124.9731  24.1876 123.652  24.1876 123.652  C 24.1876 123.652  22.9778 124.1816  22.9778 124.1816  C 22.9778 124.1816  21.1805 124.1313  21.1805 124.1313  C 21.1805 124.1313  20.4777 122.0413  20.4777 122.0413  C 20.4777 122.0413  19.2334 121.4784  19.2334 121.4784  C 19.2334 121.4784  19.5618 120.765  19.5618 120.765  C 19.5618 120.765  19.0433 119.8345  19.0433 119.8345  C 19.0433 119.8345  21.4974 118.5697  21.4974 118.5697  C 21.4974 118.5697  21.2669 117.2715  21.2669 117.2715  C 21.2669 117.2715  17.2921 115.1101  17.2921 115.1101  C 17.2921 115.1101  16.3704 115.461  16.3704 115.461  C 16.3704 115.461  15.7482 114.9708  15.7482 114.9708  C 15.7482 114.9708  15.7712 113.7342  15.7712 113.7342  C 15.7712 113.7342  13.8818 113.4446  13.8818 113.4446  C 13.8818 113.4446  13.2539 112.6594  13.2539 112.6594  C 13.2539 112.6594  13.346 111.5845  13.346 111.5845  C 13.346 111.5845  12.1363 110.326  12.1363 110.326  C 12.1363 110.326  11.6985 109.3404  11.6985 109.3404  C 11.6985 109.3404  11.7618 108.3828  11.7618 108.3828  C 11.7618 108.3828  11.0591 107.8261  11.0591 107.8261  C 11.0591 107.8261  10.7364 106.9353  10.7364 106.9353  C 10.7364 106.9353  9.8897 105.9723  9.8897 105.9723  C 9.8897 105.9723  8.65690000000001 105.6605  8.65690000000001 105.6605  C 8.65690000000001 105.6605  8.37459999999999 104.6197  8.37459999999999 104.6197  C 8.37459999999999 104.6197  10.0106 102.7774  10.0106 102.7774  C 10.0106 102.7774  9.87810000000002 102.2654  9.87810000000002 102.2654  C 9.87810000000002 102.2654  10.9093 102.143  10.9093 102.143  C 10.9093 102.143  10.3851 101.4084  10.3851 101.4084  C 10.3851 101.4084  11.2261 99.8672  11.2261 99.8672  C 11.2261 99.8672  10.4139 98.8044  10.4139 98.8044  C 10.4139 98.8044  9.42880000000002 96.6627  9.42880000000002 96.6627  C 9.42880000000002 96.6627  8.16149999999999 97.0409  8.16149999999999 97.0409  C 8.16149999999999 97.0409  7.32040000000001 96.2788  7.32040000000001 96.2788  C 7.32040000000001 96.2788  6.50240000000002 96.0674  6.50240000000002 96.0674  C 6.50240000000002 96.0674  6.04730000000001 96.5569  6.04730000000001 96.5569  C 6.04730000000001 96.5569  5.30990000000003 96.2565  5.30990000000003 96.2565  C 5.30990000000003 96.2565  4.0138 96.6904  4.0138 96.6904  C 4.0138 96.6904  3.71429999999998 95.8227  3.71429999999998 95.8227  C 3.71429999999998 95.8227  4.15210000000002 95.2609  4.15210000000002 95.2609  C 4.15210000000002 95.2609  3.54140000000001 94.4544  3.54140000000001 94.4544  C 3.54140000000001 94.4544  3.9332 93.6702  3.9332 93.6702  C 3.9332 93.6702  3.36279999999999 91.5793  3.36279999999999 91.5793  C 3.36279999999999 91.5793  2.89049999999997 91.7627  2.89049999999997 91.7627  C 2.89049999999997 91.7627  3.18430000000001 89.3162  3.18430000000001 89.3162  C 3.18430000000001 89.3162  3.55869999999999 88.3377  3.55869999999999 88.3377  C 3.55869999999999 88.3377  3.55290000000002 87.2093  3.55290000000002 87.2093  C 3.55290000000002 87.2093  4.10599999999999 86.8368  4.10599999999999 86.8368  C 4.10599999999999 86.8368  4.4631 85.0581  4.4631 85.0581  C 4.4631 85.0581  3.99650000000003 84.7469  3.99650000000003 84.7469  C 3.99650000000003 84.7469  3.95620000000002 83.1963  3.95620000000002 83.1963  C 3.95620000000002 83.1963  2.32589999999999 82.4739  2.32589999999999 82.4739  C 2.32589999999999 82.4739  3.10359999999997 81.2015  3.10359999999997 81.2015  C 3.10359999999997 81.2015  2.37779999999998 80.6236  2.37779999999998 80.6236  C 2.37779999999998 80.6236  2.3374 79.7735  2.3374 79.7735  C 2.3374 79.7735  0.920299999999997 78.8735  0.920299999999997 78.8735  C 0.920299999999997 78.8735  1.92849999999999 79.0902  1.92849999999999 79.0902  C 1.92849999999999 79.0902  2.9538 77.5515  2.9538 77.5515  C 2.9538 77.5515  1.49059999999997 77.0293  1.49059999999997 77.0293  C 1.49059999999997 77.0293  1.20260000000002 76.3739  1.20260000000002 76.3739  C 1.20260000000002 76.3739  1.43310000000002 75.9794  1.43310000000002 75.9794  C 1.43310000000002 75.9794  0.447999999999979 75.052  0.447999999999979 75.052  C 0.447999999999979 75.052  1.46179999999998 74.0079  1.46179999999998 74.0079  C 1.46179999999998 74.0079  0.73599999999999 72.7973  0.73599999999999 72.7973  C 0.73599999999999 72.7973  2.38350000000003 71.4813  2.38350000000003 71.4813  C 2.38350000000003 71.4813  3.08640000000003 71.5646  3.08640000000003 71.5646  C 3.08640000000003 71.5646  3.70850000000002 69.7817  3.70850000000002 69.7817  C 3.70850000000002 69.7817  4.89519999999999 71.3259  4.89519999999999 71.3259  C 4.89519999999999 71.3259  5.35599999999999 68.8601  5.35599999999999 68.8601  C 5.35599999999999 68.8601  5.85140000000001 68.9378  5.85140000000001 68.9378  C 5.85140000000001 68.9378  5.67860000000002 67.5499  5.67860000000002 67.5499  C 5.67860000000002 67.5499  6.23739999999998 66.8783  6.23739999999998 66.8783  C 6.23739999999998 66.8783  7.19940000000003 66.8006  7.19940000000003 66.8006  C 7.19940000000003 66.8006  7.60270000000003 65.3796  7.60270000000003 65.3796  C 7.60270000000003 65.3796  8.32279999999997 65.3241  8.32279999999997 65.3241  C 8.32279999999997 65.3241  9.25020000000001 63.3096  9.25020000000001 63.3096  C 9.25020000000001 63.3096  10.8114 64.0532  10.8114 64.0532  C 10.8114 64.0532  11.4738 63.2763  11.4738 63.2763  C 11.4738 63.2763  13.0695 64.8635  13.0695 64.8635  C 13.0695 64.8635  12.6375 65.907  12.6375 65.907  C 12.6375 65.907  12.9082 66.8949  12.9082 66.8949  C 12.9082 66.8949  13.5707 67.2003  13.5707 67.2003  C 13.5707 67.2003  15.1318 66.7007  15.1318 66.7007  C 15.1318 66.7007  15.9613 68.0385  15.9613 68.0385  C 15.9613 68.0385  16.8485 68.1939  16.8485 68.1939  C 16.8485 68.1939  17.269 69.0101  17.269 69.0101  C 17.269 69.0101  18.6919 66.9171  18.6919 66.9171  C 18.6919 66.9171  21.3303 66.5897  21.3303 66.5897  C 21.3303 66.5897  21.3763 68.1828  21.3763 68.1828  C 21.3763 68.1828  22.8626 71.3259  22.8626 71.3259  C 22.8626 71.3259  22.7531 72.3697  22.7531 72.3697  C 22.7531 72.3697  23.6806 72.7362  23.6806 72.7362  C 23.6806 72.7362  23.6461 73.2637  23.6461 73.2637  C 23.6461 73.2637  25.6219 75.4074  25.6219 75.4074  C 25.6219 75.4074  25.7717 76.0905  25.7717 76.0905  C 25.7717 76.0905  26.6992 75.2408  26.6992 75.2408  C 26.6992 75.2408  26.8835 74.541  26.8835 74.541  C 26.8835 74.541  27.5633 74.2688  27.5633 74.2688  C 27.5633 74.2688  27.6324 73.1193  27.6324 73.1193  C 27.6324 73.1193  28.5541 69.8872  28.5541 69.8872  C 28.5541 69.8872  28.3121 69.5152  28.3121 69.5152  C 28.3121 69.5152  29.5391 68.6491  29.5391 68.6491  C 29.5391 68.6491  29.8964 69.4375  29.8964 69.4375  C 29.8964 69.4375  31.0427 68.1329  31.0427 68.1329  C 31.0427 68.1329  31.083 67.2336  31.083 67.2336  C 31.083 67.2336  32.4598 65.7349  32.4598 65.7349  C 32.4598 65.7349  32.8804 64.425  32.8804 64.425  C 32.8804 64.425  33.7041 62.8823  33.7041 62.8823  C 33.7041 62.8823  34.839 62.0388  34.839 62.0388  C 34.839 62.0388  36.0487 62.7768  36.0487 62.7768  C 36.0487 62.7768  36.9646 64.6248  36.9646 64.6248  C 36.9646 64.6248  37.9727 64.7192  37.9727 64.7192  C 37.9727 64.7192  37.6847 63.8478  37.6847 63.8478  C 37.6847 63.8478  38.8599 63.8922  38.8599 63.8922  C 38.8599 63.8922  39.5857 62.5659  39.5857 62.5659  C 39.5857 62.5659  39.9429 60.2078  39.9429 60.2078  C 39.9429 60.2078  40.8242 58.1496  40.8242 58.1496  C 40.8242 58.1496  41.6768 59.4256  41.6768 59.4256  C 41.6768 59.4256  43.0075 59.1759  43.0075 59.1759  C 43.0075 59.1759  43.9465 58.2162  43.9465 58.2162  C 43.9465 58.2162  44.2 56.6353  44.2 56.6353  C 44.2 56.6353  45.1159 56.2914  45.1159 56.2914  C 45.1159 56.2914  48.1921 57.1013  48.1921 57.1013  C 48.1921 57.1013  49.0792 58.3216  49.0792 58.3216  C 49.0792 58.3216  49.2348 59.9637  49.2348 59.9637  C 49.2348 59.9637  50.0125 61.0568  50.0125 61.0568  C 50.0125 61.0568  50.4791 59.3867  50.4791 59.3867  C 50.4791 59.3867  52.4377 57.3286  52.4377 57.3286  C 52.4377 57.3286  52.2131000000001 56.2859  52.2131000000001 56.2859  C 52.2131000000001 56.2859  52.6854 54.489  52.6854 54.489  C 52.6854 54.489  52.7833000000001 52.964  52.7833000000001 52.964  C 52.7833000000001 52.964  52.4434 51.1565  52.4434 51.1565  C 52.4434 51.1565  52.3916 49.4211  52.3916 49.4211  C 52.3916 49.4211  53.0540999999999 47.0154  53.0540999999999 47.0154  C 53.0540999999999 47.0154  54.2234999999999 45.325  54.2234999999999 45.325  C 54.2234999999999 45.325  54.9838999999999 41.2302  54.9838999999999 41.2302  C 54.9838999999999 41.2302  54.6267 38.2223  54.6267 38.2223  C 54.6267 38.2223  55.0473 36.2062  55.0473 36.2062  C 55.0473 36.2062  57.4874 35.8851  57.4874 35.8851  C 57.4874 35.8851  57.8273 34.772  57.8273 34.772  C 57.8273 34.772  58.0577 32.0644  58.0577 32.0644  C 58.0577 32.0644  59.3251 30.996  59.3251 30.996  C 59.3251 30.996  59.8781 29.9332  59.8781 29.9332  C 59.8781 29.9332  60.506 27.7579  60.506 27.7579  C 60.506 27.7579  61.2491 26.9444  61.2491 26.9444  C 61.2491 26.9444  63.5821999999999 26.5238  63.5821999999999 26.5238  C 63.5821999999999 26.5238  64.6248000000001 25.9925  64.6248000000001 25.9925  C 64.6248000000001 25.9925  66.6353 24.4653  66.6353 24.4653  C 66.6353 24.4653  68.231 21.6879  68.231 21.6879  C 68.231 21.6879  70.5641000000001 18.9223  70.5641000000001 18.9223  C 70.5641000000001 18.9223  71.4743 17.5341  71.4743 17.5341  C 71.4743 17.5341  72.8337 16.4337  72.8337 16.4337  C 72.8337 16.4337  73.4041 16.5996  73.4041 16.5996  C 73.4041 16.5996  75.115 18.4577  75.115 18.4577  C 75.115 18.4577  75.8523 18.4411  75.8523 18.4411  C 75.8523 18.4411  76.5724 17.5894  76.5724 17.5894  C 76.5724 17.5894  76.8777 16.3894  76.8777 16.3894  C 76.8777 16.3894  77.0678 14.2165  77.0678 14.2165  C 77.0678 14.2165  77.4134 13.4756  77.4134 13.4756  C 77.4134 13.4756  78.0529 13.6415  78.0529 13.6415  C 78.0529 13.6415  79.7119 15.361  79.7119 15.361  C 79.7119 15.361  81.3653 14.9573  81.3653 14.9573  C 81.3653 14.9573  82.287 17.3848  82.287 17.3848  C 82.287 17.3848  82.8515 18.1259  82.8515 18.1259  C 82.8515 18.1259  83.128 19.3592  83.128 19.3592  C 83.128 19.3592  84.1246 17.9931  84.1246 17.9931  C 84.1246 17.9931  83.8135 16.3231  83.8135 16.3231  C 83.8135 16.3231  84.885 15.173  84.885 15.173  C 84.885 15.173  85.294 13.6194  85.294 13.6194  C 85.294 13.6194  84.8677 12.4971  84.8677 12.4971  C 84.8677 12.4971  83.9518 12.6242  83.9518 12.6242  C 83.9518 12.6242  84.3838 11.1207  84.3838 11.1207  C 84.3838 11.1207  83.825 8.94310000000002  83.825 8.94310000000002  C 83.825 8.94310000000002  83.439 8.64460000000003  83.439 8.64460000000003  C 83.439 8.64460000000003  83.8423 7.23000000000002  83.8423 7.23000000000002  C 83.8423 7.23000000000002  84.5682 6.84859999999998  84.5682 6.84859999999998  C 84.5682 6.84859999999998  84.8561999999999 2.78789999999998  84.8561999999999 2.78789999999998  C 84.8561999999999 2.78789999999998  85.3401 2.02010000000001  85.3401 2.02010000000001  C 85.3401 2.02010000000001  87.4426999999999 0.909899999999993  87.4426999999999 0.909899999999993  C 87.4426999999999 0.909899999999993  89.361 1.07560000000001  89.361 1.07560000000001  C 89.361 1.07560000000001  89.9601 0.352100000000007  89.9601 0.352100000000007  C 89.9601 0.352100000000007  91.1180000000001 0.164300000000026  91.1180000000001 0.164300000000026  C 91.1180000000001 0.164300000000026  91.5501 1.08670000000001  91.5501 1.08670000000001  C 91.5501 1.08670000000001  91.5962 2.68299999999999  91.5962 2.68299999999999  C 91.5962 2.68299999999999  90.9222 4.6773  90.9222 4.6773  C 90.9222 4.6773  91.4233 6.56130000000002  91.4233 6.56130000000002  C 91.4233 6.56130000000002  91.4752 7.94830000000002  91.4752 7.94830000000002  C 91.4752 7.94830000000002  90.8415 9.8218  90.8415 9.8218  C 90.8415 9.8218  90.2309 10.4906  90.2309 10.4906  C 90.2309 10.4906  88.6582 11.2921  88.6582 11.2921  C 88.6582 11.2921  88.1398 13.2102  88.1398 13.2102  C 88.1398 13.2102  88.4912 15.3886  88.4912 15.3886  C 88.4912 15.3886  89.7815000000001 16.2788  89.7815000000001 16.2788  C 89.7815000000001 16.2788  89.7067 16.782  89.7067 16.782  C 89.7067 16.782  91.648 16.6714  91.648 16.6714  C 91.648 16.6714  92.61 18.2254  92.61 18.2254  C 92.61 18.2254  94.2921 17.9599  94.2921 17.9599  C 94.2921 17.9599  95.0467 18.1259  95.0467 18.1259  C 95.0467 18.1259  96.2507000000001 19.7298  96.2507000000001 19.7298  C 96.2507000000001 19.7298  97.4605 19.1878  97.4605 19.1878  C 97.4605 19.1878  98.7739 20.4267  98.7739 20.4267  C 98.7739 20.4267  98.1633 21.7156  98.1633 21.7156  C 98.1633 21.7156  99.2693 24.1112  99.2693 24.1112  C 99.2693 24.1112  100.1334 24.6036  100.1334 24.6036  C 100.1334 24.6036  101.8098 24.2717  101.8098 24.2717  C 101.8098 24.2717  102.6105 23.2425  102.6105 23.2425  C 102.6105 23.2425  103.0886 21.9701  103.0886 21.9701  C 103.0886 21.9701  103.6935 21.9535  103.6935 21.9535  C 103.6935 21.9535  104.5922 23.6077  104.5922 23.6077  C 104.5922 23.6077  104.788 25.0186  104.788 25.0186  C 104.788 25.0186  105.5196 26.2748  105.5196 26.2748  C 105.5196 26.2748  104.5287 28.649  104.5287 28.649  C 104.5287 28.649  103.4918 29.8058  103.4918 29.8058  C 103.4918 29.8058  102.9504 32.9392  102.9504 32.9392  C 102.9504 32.9392  103.2326 34.4066  103.2326 34.4066  C 103.2326 34.4066  104.7131 34.0133  104.7131 34.0133  C 104.7131 34.0133  104.7534 34.8717  104.7534 34.8717  C 104.7534 34.8717  104.2695 36.5828  104.2695 36.5828  C 104.2695 36.5828  104.6728 36.9318  104.6728 36.9318  C 104.6728 36.9318  103.7568 37.9232  103.7568 37.9232  C 103.7568 37.9232  102.6508 38.034  102.6508 38.034  C 102.6508 38.034  102.4953 38.9811  102.4953 38.9811  C 102.4953 38.9811  102.9388 40.1223  102.9388 40.1223  C 102.9388 40.1223  104.1601 40.571  104.1601 40.571  C 104.1601 40.571  105.1048 41.3189  105.1048 41.3189  C 105.1048 41.3189  105.0991 41.8508  105.0991 41.8508  C 105.0991 41.8508  105.9632 42.6985  105.9632 42.6985  C 105.9632 42.6985  105.8653 44.7819  105.8653 44.7819  C 105.8653 44.7819  105.3179 45.907  105.3179 45.907  C 105.3179 45.907  106.5047 45.8017  106.5047 45.8017  C 106.5047 45.8017  107.265 47.093  107.265 47.093  C 107.265 47.093  107.0058 48.6784  107.0058 48.6784  C 107.0058 48.6784  107.8987 48.9999  107.8987 48.9999  C 107.8987 48.9999  108.2213 49.6318  108.2213 49.6318  C 108.2213 49.6318  107.9563 50.7462  107.9563 50.7462  C 107.9563 50.7462  108.3596 53.3411  108.3596 53.3411  C 108.3596 53.3411  108.3539 54.8439  108.3539 54.8439  C 108.3539 54.8439  109.1949 56.5633  109.1949 56.5633  C 109.1949 56.5633  109.264 57.9943  109.264 57.9943  C 109.264 57.9943  108.544 58.8708  108.544 58.8708  C 108.544 58.8708  107.3515 59.5365  107.3515 59.5365  C 107.3515 59.5365  106.4067 59.6697  106.4067 59.6697  C 106.4067 59.6697  105.7039 61.029  105.7039 61.029  C 105.7039 61.029  105.9228 62.1664  105.9228 62.1664  C 105.9228 62.1664  104.8514 65.9236  104.8514 65.9236  C 104.8514 65.9236  105.5023 67.5222  105.5023 67.5222  C 105.5023 67.5222  104.1716 68.2383  104.1716 68.2383  C 104.1716 68.2383  104.4251 69.0434  104.4251 69.0434  C 104.4251 69.0434  105.4965 68.6824  105.4965 68.6824  C 105.4965 68.6824  106.0265 69.6929  106.0265 69.6929  C 106.0265 69.6929  105.5254 71.5479  105.5254 71.5479  C 105.5254 71.5479  106.2396 72.6696  106.2396 72.6696  C 106.2396 72.6696  106.1475 73.7191  106.1475 73.7191  C 106.1475 73.7191  107.098 73.6468  107.098 73.6468  C 107.098 73.6468  108.0255 73.1249  108.0255 73.1249  C 108.0255 73.1249  109.0566 74.0356  109.0566 74.0356  C 109.0566 74.0356  110.6984 74.5354  110.6984 74.5354  C 110.6984 74.5354  111.1477 75.2796  111.1477 75.2796  C 111.1477 75.2796  111.3494 76.646  111.3494 76.646  C 111.3494 76.646  110.8194 80.4402  110.8194 80.4402  C 110.8194 80.4402  109.2295 81.9627  109.2295 81.9627  C 109.2295 81.9627  108.6937 83.5575  108.6937 83.5575  C 108.6937 83.5575  107.0865 84.7024  107.0865 84.7024  C 107.0865 84.7024  105.8998 84.3912  105.8998 84.3912  C 105.8998 84.3912  104.811 83.6187  104.811 83.6187  C 104.811 83.6187  103.0944 85.3194  103.0944 85.3194  C 103.0944 85.3194  102.6162 87.0258  102.6162 87.0258  C 102.6162 87.0258  103.3767 89.8833  103.3767 89.8833  C 103.3767 89.8833  102.9504 91.6849  102.9504 91.6849  C 102.9504 91.6849  102.887 93.5812  102.887 93.5812  C 102.887 93.5812  100.9111 95.0662  100.9111 95.0662  C 100.9111 95.0662  100.7152 96.2899  100.7152 96.2899  C 100.7152 96.2899  99.4364 97.1077  99.4364 97.1077  C 99.4364 97.1077  99.1541 97.7808  99.1541 97.7808  C 99.1541 97.7808  99.2232 99.1939  99.2232 99.1939  C 99.2232 99.1939  98.7336 99.6724  98.7336 99.6724  C 98.7336 99.6724  96.7807 99.1884  96.7807 99.1884  C 96.7807 99.1884  94.6896 100.8576  94.6896 100.8576  C 94.6896 100.8576  93.3013 101.3417  93.3013 101.3417  C 93.3013 101.3417  92.5524 100.0396  92.5524 100.0396  C 92.5524 100.0396  91.4982 100.1731  91.4982 100.1731  C 91.4982 100.1731  90.3288 101.5699  90.3288 101.5699  C 90.3288 101.5699  88.9808 102.093  88.9808 102.093  C 88.9808 102.093  87.8978 101.4808  87.8978 101.4808  C 87.8978 101.4808  87.2527 101.8926  87.2527 101.8926  C 87.2527 101.8926  86.9761 101.236  86.9761 101.236  C 86.9761 101.236  86.2963999999999 101.4975  86.2963999999999 101.4975  C 86.2963999999999 101.4975  85.5648 103.9518  85.5648 103.9518  C 85.5648 103.9518  86.0372 104.564  86.0372 104.564  C 86.0372 104.564  84.9657 105.2041  84.9657 105.2041  C 84.9657 105.2041  84.6949 103.7903  84.6949 103.7903  C 84.6949 103.7903  83.5889 105.026  83.5889 105.026  C 83.5889 105.026  83.2374 106.4288  83.2374 106.4288  C 83.2374 106.4288  84.1419 106.579  84.1419 106.579  C 84.1419 106.579  84.2166999999999 108.6055  84.2166999999999 108.6055  C 84.2166999999999 108.6055  83.1165 110.4095  83.1165 110.4095  C 83.1165 110.4095  81.1579 112.4867  81.1579 112.4867  C 81.1579 112.4867  81.0945 113.7342  81.0945 113.7342  C 81.0945 113.7342  81.4286 114.7814  81.4286 114.7814  C 81.4286 114.7814  81.515 117.6949  81.515 117.6949  C 81.515 117.6949  81.8664 119.3442  81.8664 119.3442  C 81.8664 119.3442  81.4171 119.7119  81.4171 119.7119  C 81.4171 119.7119  79.8732 119.411  79.8732 119.411  C 79.8732 119.411  79.0322 119.5614  79.0322 119.5614  C 79.0322 119.5614  78.9977 117.5946  78.9977 117.5946  C 78.9977 117.5946  77.3904 115.8733  77.3904 115.8733  C 77.3904 115.8733  73.9225 115.6671  73.9225 115.6671  C 73.9225 115.6671  71.912 116.3969  71.912 116.3969  C 71.912 116.3969  70.5756 117.7117  70.5756 117.7117  C 70.5756 117.7117  69.7403 115.0655  69.7403 115.0655  C 69.7403 115.0655  69.0259 113.9515  69.0259 113.9515  C 69.0259 113.9515  67.8508 110.404  67.8508 110.404  C 67.8508 110.404  67.004 110.5209  67.004 110.5209  C 67.004 110.5209  66.1572 112.1414  66.1572 112.1414  C 66.1572 112.1414  65.6848 112.2361  65.6848 112.2361  C 65.6848 112.2361  64.6306 110.8049  64.6306 110.8049  C 64.6306 110.8049  63.4151000000001 110.7604  63.4151000000001 110.7604  C 63.4151000000001 110.7604  62.6086 110.0754  62.6086 110.0754  C 62.6086 110.0754  62.7008 108.8672  62.7008 108.8672  C 62.7008 108.8672  62.0383 108.4385  62.0383 108.4385  C 62.0383 108.4385  62.0959 107.8261  62.0959 107.8261  C 62.0959 107.8261  60.4542 106.5234  60.4542 106.5234  C 60.4542 106.5234  59.9127 105.5714  59.9127 105.5714  C 59.9127 105.5714  58.8699 105.2597  58.8699 105.2597  C 58.8699 105.2597  57.833 104.0352  57.833 104.0352  C 57.833 104.0352  56.4159 103.8905  56.4159 103.8905  C 56.4159 103.8905  54.1428 104.2969  54.1428 104.2969  C 54.1428 104.2969  52.7776 103.6958  52.7776 103.6958  C 52.7776 103.6958  51.9077 103.9518  51.9077 103.9518  C 51.9077 103.9518  51.7003 105.0538  51.7003 105.0538  C 51.7003 105.0538  49.1887 106.8853  49.1887 106.8853  C 49.1887 106.8853  48.0827 108.5053  48.0827 108.5053  C 48.0827 108.5053  46.8038 109.4129  46.8038 109.4129  C 46.8038 109.4129  45.6113 108.7169  45.6113 108.7169  C 45.6113 108.7169  45.8014 110.1868  45.8014 110.1868  C 45.8014 110.1868  46.9478 110.5042  46.9478 110.5042  C 46.9478 110.5042  48.2843 113.6117  48.2843 113.6117  C 48.2843 113.6117  48.6241 113.1439  48.6241 113.1439  C 48.6241 113.1439  48.5723 114.6533  48.5723 114.6533  C 48.5723 114.6533  49.9779 116.0125  49.9779 116.0125  C 49.9779 116.0125  49.4537 116.3523  49.4537 116.3523  C 49.4537 116.3523  48.6933 115.8287  48.6933 115.8287  C 48.6933 115.8287  47.8119 116.5195  47.8119 116.5195  C 47.8119 116.5195  48.7624 117.6392  48.7624 117.6392  C 48.7624 117.6392  49.0562 118.631  49.0562 118.631  C 49.0562 118.631  49.3039 117.6838  49.3039 117.6838  C 49.3039 117.6838  50.266 119.2662  50.266 119.2662  C 50.266 119.2662  48.7682 118.7257  48.7682 118.7257  C 48.7682 118.7257  48.4743999999999 117.8509  48.4743999999999 117.8509  C 48.4743999999999 117.8509  46.7231 117.8899  46.7231 117.8899  C 46.7231 117.8899  46.51 120.6035  46.51 120.6035  C 46.51 120.6035  45.7957 120.7595  45.7957 120.7595  C 45.7957 120.7595  45.8475 121.6456  45.8475 121.6456  C 45.8475 121.6456  45.3521 122.0134  45.3521 122.0134  C 45.3521 122.0134  44.2921 120.8988  44.2921 120.8988  C 44.2921 120.8988  43.4742 121.2165  43.4742 121.2165  C 43.4742 121.2165  42.8174 120.6982  42.8174 120.6982  C 42.8174 120.6982  42.564 121.8351  42.564 121.8351  C 42.564 121.8351  41.936 122.6599  41.936 122.6599  C 41.936 122.6599  42.7598 125.4525  42.7598 125.4525  C 42.7598 125.4525  42.4833 125.7813  42.4833 125.7813  C 42.4833 125.7813  42.8348 127.4985  42.8348 127.4985  C 42.8348 127.4985  42.4891 128.9314  42.4891 128.9314  C 42.4891 128.9314  43.094 129.5671  43.094 129.5671  C 43.094 129.5671  43.9235 129.7064  43.9235 129.7064  C 43.9235 129.7064  44.609 130.9891  44.609 130.9891  C 44.609 130.9891  44.056 132.6342  44.056 132.6342  C 44.056 132.6342  42.2472 133.1864  42.2472 133.1864  C 42.2472 133.1864  41.9015 133.6494  41.9015 133.6494  C 41.9015 133.6494  41.1872 132.8406  41.1872 132.8406  C 41.1872 132.8406  40.1215 133.3426  40.1215 133.3426  C 40.1215 133.3426  39.7182 133.9784  39.7182 133.9784  C 39.7182 133.9784  39.2804 135.8417  39.2804 135.8417  C 39.2804 135.8417  39.9083 136.5111  39.9083 136.5111  C 39.9083 136.5111  39.315 137.3201  39.315 137.3201  C 39.315 137.3201  38.7908 137.1862  38.7908 137.1862  C 38.7908 137.1862  37.1202 137.6939  37.1202 137.6939  C 37.1202 137.6939  35.7261 139.0107  35.7261 139.0107  Z " stroke-width="2" stroke="#666666" fill="none" transform="matrix(1 0 0 1 510 390 )" mask="url(#clip140)" />
  </g>
</svg>