<?xml version="1.0" encoding="utf-8"?>
<svg version="1.1" xmlns:xlink="http://www.w3.org/1999/xlink" width="104px" height="153px" xmlns="http://www.w3.org/2000/svg">
  <defs>
    <mask fill="white" id="clip141">
      <path d="M 8.7122 47.6234  C 8.7122 47.6234  8.89659999999998 47.3946  8.89659999999998 47.3946  C 8.89659999999998 47.3946  9.72609999999997 46.0107  9.72609999999997 46.0107  C 9.72609999999997 46.0107  11.1202 44.6939  11.1202 44.6939  C 11.1202 44.6939  12.7908 44.1862  12.7908 44.1862  C 12.7908 44.1862  13.315 44.3201  13.315 44.3201  C 13.315 44.3201  13.9083 43.5111  13.9083 43.5111  C 13.9083 43.5111  13.2804 42.8417  13.2804 42.8417  C 13.2804 42.8417  13.7182 40.9784  13.7182 40.9784  C 13.7182 40.9784  14.1215 40.3426  14.1215 40.3426  C 14.1215 40.3426  15.1872 39.8406  15.1872 39.8406  C 15.1872 39.8406  15.9015 40.6494  15.9015 40.6494  C 15.9015 40.6494  16.2472 40.1864  16.2472 40.1864  C 16.2472 40.1864  18.056 39.6342  18.056 39.6342  C 18.056 39.6342  18.609 37.9891  18.609 37.9891  C 18.609 37.9891  17.9235 36.7064  17.9235 36.7064  C 17.9235 36.7064  17.094 36.5671  17.094 36.5671  C 17.094 36.5671  16.4891 35.9314  16.4891 35.9314  C 16.4891 35.9314  16.8348 34.4985  16.8348 34.4985  C 16.8348 34.4985  16.4833 32.7813  16.4833 32.7813  C 16.4833 32.7813  16.7598 32.4525  16.7598 32.4525  C 16.7598 32.4525  15.936 29.6599  15.936 29.6599  C 15.936 29.6599  16.564 28.8351  16.564 28.8351  C 16.564 28.8351  16.8174 27.6982  16.8174 27.6982  C 16.8174 27.6982  17.4742 28.2165  17.4742 28.2165  C 17.4742 28.2165  18.2921 27.8988  18.2921 27.8988  C 18.2921 27.8988  19.3521 29.0134  19.3521 29.0134  C 19.3521 29.0134  19.8475 28.6456  19.8475 28.6456  C 19.8475 28.6456  19.7957 27.7595  19.7957 27.7595  C 19.7957 27.7595  20.51 27.6035  20.51 27.6035  C 20.51 27.6035  20.7231 24.8899  20.7231 24.8899  C 20.7231 24.8899  22.4743999999999 24.8509  22.4743999999999 24.8509  C 22.4743999999999 24.8509  22.7682 25.7257  22.7682 25.7257  C 22.7682 25.7257  24.266 26.2662  24.266 26.2662  C 24.266 26.2662  23.3039 24.6838  23.3039 24.6838  C 23.3039 24.6838  23.0562 25.631  23.0562 25.631  C 23.0562 25.631  22.7624 24.6392  22.7624 24.6392  C 22.7624 24.6392  21.8119 23.5195  21.8119 23.5195  C 21.8119 23.5195  22.6933 22.8287  22.6933 22.8287  C 22.6933 22.8287  23.4537 23.3523  23.4537 23.3523  C 23.4537 23.3523  23.9779 23.0125  23.9779 23.0125  C 23.9779 23.0125  22.5723 21.6533  22.5723 21.6533  C 22.5723 21.6533  22.6241 20.1439  22.6241 20.1439  C 22.6241 20.1439  22.2843 20.6117  22.2843 20.6117  C 22.2843 20.6117  20.9478 17.5042  20.9478 17.5042  C 20.9478 17.5042  19.8014 17.1868  19.8014 17.1868  C 19.8014 17.1868  19.6113 15.7169  19.6113 15.7169  C 19.6113 15.7169  20.8038 16.4129  20.8038 16.4129  C 20.8038 16.4129  22.0827 15.5053  22.0827 15.5053  C 22.0827 15.5053  23.1887 13.8853  23.1887 13.8853  C 23.1887 13.8853  25.7003 12.0538  25.7003 12.0538  C 25.7003 12.0538  25.9077 10.9518  25.9077 10.9518  C 25.9077 10.9518  26.7776 10.6958  26.7776 10.6958  C 26.7776 10.6958  28.1428 11.2969  28.1428 11.2969  C 28.1428 11.2969  29.4159 10.8905  29.4159 10.8905  C 29.4159 10.8905  30.833 11.0352  30.833 11.0352  C 30.833 11.0352  31.8699 12.2597  31.8699 12.2597  C 31.8699 12.2597  32.9127 12.5714  32.9127 12.5714  C 32.9127 12.5714  33.4542 13.5234  33.4542 13.5234  C 33.4542 13.5234  35.0959 14.8261  35.0959 14.8261  C 35.0959 14.8261  35.0383 15.4385  35.0383 15.4385  C 35.0383 15.4385  35.7008 15.8672  35.7008 15.8672  C 35.7008 15.8672  35.6086 17.0754  35.6086 17.0754  C 35.6086 17.0754  36.4151000000001 17.7604  36.4151000000001 17.7604  C 36.4151000000001 17.7604  37.6306 17.8049  37.6306 17.8049  C 37.6306 17.8049  38.6848 19.2361  38.6848 19.2361  C 38.6848 19.2361  39.1572 19.1414  39.1572 19.1414  C 39.1572 19.1414  40.004 17.5209  40.004 17.5209  C 40.004 17.5209  40.8508 17.404  40.8508 17.404  C 40.8508 17.404  42.0259 20.9515  42.0259 20.9515  C 42.0259 20.9515  42.7403 22.0655  42.7403 22.0655  C 42.7403 22.0655  43.5756 24.7117  43.5756 24.7117  C 43.5756 24.7117  44.912 23.3969  44.912 23.3969  C 44.912 23.3969  46.9225 22.6671  46.9225 22.6671  C 46.9225 22.6671  50.3904 22.8733  50.3904 22.8733  C 50.3904 22.8733  52.9977 24.5946  52.9977 24.5946  C 52.9977 24.5946  53.0322 26.5614  53.0322 26.5614  C 53.0322 26.5614  53.8732 26.411  53.8732 26.411  C 53.8732 26.411  55.4171 26.7119  55.4171 26.7119  C 55.4171 26.7119  55.8664 26.3442  55.8664 26.3442  C 55.8664 26.3442  55.515 24.6949  55.515 24.6949  C 55.515 24.6949  55.4286 21.7814  55.4286 21.7814  C 55.4286 21.7814  55.0945 20.7342  55.0945 20.7342  C 55.0945 20.7342  55.1579 19.4867  55.1579 19.4867  C 55.1579 19.4867  57.1165 17.4095  57.1165 17.4095  C 57.1165 17.4095  58.2166999999999 15.6055  58.2166999999999 15.6055  C 58.2166999999999 15.6055  58.1419 13.579  58.1419 13.579  C 58.1419 13.579  57.2374 13.4288  57.2374 13.4288  C 57.2374 13.4288  57.5889 12.026  57.5889 12.026  C 57.5889 12.026  58.6949 10.7903  58.6949 10.7903  C 58.6949 10.7903  58.9657 12.2041  58.9657 12.2041  C 58.9657 12.2041  60.0372 11.564  60.0372 11.564  C 60.0372 11.564  59.5648 10.9518  59.5648 10.9518  C 59.5648 10.9518  60.2963999999999 8.4975  60.2963999999999 8.4975  C 60.2963999999999 8.4975  60.9761 8.23599999999999  60.9761 8.23599999999999  C 60.9761 8.23599999999999  61.2527 8.89260000000002  61.2527 8.89260000000002  C 61.2527 8.89260000000002  61.8978 8.48079999999999  61.8978 8.48079999999999  C 61.8978 8.48079999999999  62.9808 9.09300000000002  62.9808 9.09300000000002  C 62.9808 9.09300000000002  64.3288 8.56990000000002  64.3288 8.56990000000002  C 64.3288 8.56990000000002  65.4982 7.17309999999998  65.4982 7.17309999999998  C 65.4982 7.17309999999998  66.5524 7.03960000000001  66.5524 7.03960000000001  C 66.5524 7.03960000000001  67.3013 8.3417  67.3013 8.3417  C 67.3013 8.3417  68.6896 7.85759999999999  68.6896 7.85759999999999  C 68.6896 7.85759999999999  70.7807 6.1884  70.7807 6.1884  C 70.7807 6.1884  72.7336 6.67239999999998  72.7336 6.67239999999998  C 72.7336 6.67239999999998  73.2232 6.19389999999999  73.2232 6.19389999999999  C 73.2232 6.19389999999999  73.1541 4.7808  73.1541 4.7808  C 73.1541 4.7808  73.4364 4.10770000000002  73.4364 4.10770000000002  C 73.4364 4.10770000000002  74.7152 3.28989999999999  74.7152 3.28989999999999  C 74.7152 3.28989999999999  74.9111 2.06619999999998  74.9111 2.06619999999998  C 74.9111 2.06619999999998  76.8869999999999 0.581200000000024  76.8869999999999 0.581200000000024  C 76.8869999999999 0.581200000000024  77.7799 2.34989999999999  77.7799 2.34989999999999  C 77.7799 2.34989999999999  79.2488 2.29430000000002  79.2488 2.29430000000002  C 79.2488 2.29430000000002  80.2224 3.38999999999999  80.2224 3.38999999999999  C 80.2224 3.38999999999999  81.0865 2.86720000000003  81.0865 2.86720000000003  C 81.0865 2.86720000000003  81.7778 1.03730000000002  81.7778 1.03730000000002  C 81.7778 1.03730000000002  82.7166999999999 1.0206  82.7166999999999 1.0206  C 82.7166999999999 1.0206  85.3896999999999 1.59350000000001  85.3896999999999 1.59350000000001  C 85.3896999999999 1.59350000000001  85.9945 2.22190000000001  85.9945 2.22190000000001  C 85.9945 2.22190000000001  85.7929 3.09530000000001  85.7929 3.09530000000001  C 85.7929 3.09530000000001  86.0119 4.33019999999999  86.0119 4.33019999999999  C 86.0119 4.33019999999999  87.0891 4.3913  87.0891 4.3913  C 87.0891 4.3913  86.8011 5.86009999999999  86.8011 5.86009999999999  C 86.8011 5.86009999999999  87.4462 6.91719999999998  87.4462 6.91719999999998  C 87.4462 6.91719999999998  89.2378 7.34010000000001  89.2378 7.34010000000001  C 89.2378 7.34010000000001  89.3012 9.05959999999999  89.3012 9.05959999999999  C 89.3012 9.05959999999999  90.3151 9.17090000000002  90.3151 9.17090000000002  C 90.3151 9.17090000000002  91.4614 7.56259999999998  91.4614 7.56259999999998  C 91.4614 7.56259999999998  92.2448000000001 8.7201  92.2448000000001 8.7201  C 92.2448000000001 8.7201  91.8646 9.5437  91.8646 9.5437  C 91.8646 9.5437  92.8439 11.2022  92.8439 11.2022  C 92.8439 11.2022  92.3024 12.3488  92.3024 12.3488  C 92.3024 12.3488  92.7345 13.078  92.7345 13.078  C 92.7345 13.078  92.2161 14.3361  92.2161 14.3361  C 92.2161 14.3361  92.5329 16.3627  92.5329 16.3627  C 92.5329 16.3627  93.4892 17.0588  93.4892 17.0588  C 93.4892 17.0588  93.3566 18.0499  93.3566 18.0499  C 93.3566 18.0499  91.8704 18.1724  91.8704 18.1724  C 91.8704 18.1724  90.4072 21.0684  90.4072 21.0684  C 90.4072 21.0684  90.9545000000001 22.2271  90.9545000000001 22.2271  C 90.9545000000001 22.2271  90.3726 22.8064  90.3726 22.8064  C 90.3726 22.8064  90.701 23.3635  90.701 23.3635  C 90.701 23.3635  90.5857999999999 24.7117  90.5857999999999 24.7117  C 90.5857999999999 24.7117  92.3887999999999 28.2443  92.3887999999999 28.2443  C 92.3887999999999 28.2443  93.6446999999999 28.8351  93.6446999999999 28.8351  C 93.6446999999999 28.8351  95.0042 27.3638  95.0042 27.3638  C 95.0042 27.3638  95.9778 27.8821  95.9778 27.8821  C 95.9778 27.8821  96.1448 28.8351  96.1448 28.8351  C 96.1448 28.8351  95.6781 30.8916  95.6781 30.8916  C 95.6781 30.8916  93.9615 36.2436  93.9615 36.2436  C 93.9615 36.2436  93.8809 37.0298  93.8809 37.0298  C 93.8809 37.0298  95.2749 39.3833  95.2749 39.3833  C 95.2749 39.3833  94.9465 40.7275  94.9465 40.7275  C 94.9465 40.7275  95.3556 41.4024  95.3556 41.4024  C 95.3556 41.4024  97.2451 42.0941  97.2451 42.0941  C 97.2451 42.0941  98.3280999999999 42.9364  98.3280999999999 42.9364  C 98.3280999999999 42.9364  99.2843 42.624  99.2843 42.624  C 99.2843 42.624  100.0851 43.2377  100.0851 43.2377  C 100.0851 43.2377  102.6659 49.4819  102.6659 49.4819  C 102.6659 49.4819  102.2338 50.6093  102.2338 50.6093  C 102.2338 50.6093  102.3086 51.4522  102.3086 51.4522  C 102.3086 51.4522  103.2592 52.3231  103.2592 52.3231  C 103.2592 52.3231  103.4147 54.4948  103.4147 54.4948  C 103.4147 54.4948  102.6082 55.3491  102.6082 55.3491  C 102.6082 55.3491  101.8823 55.4385  101.8823 55.4385  C 101.8823 55.4385  100.6381 54.9248  100.6381 54.9248  C 100.6381 54.9248  100.0735 55.4776  100.0735 55.4776  C 100.0735 55.4776  98.5182 55.2096  98.5182 55.2096  C 98.5182 55.2096  97.1702 55.9019  97.1702 55.9019  C 97.1702 55.9019  96.5768 56.6447  96.5768 56.6447  C 96.5768 56.6447  96.4443 57.8342  96.4443 57.8342  C 96.4443 57.8342  95.9432 58.0407  95.9432 58.0407  C 95.9432 58.0407  95.5169 56.5776  95.5169 56.5776  C 95.5169 56.5776  94.3878 55.1649  94.3878 55.1649  C 94.3878 55.1649  92.9937 55.6283  92.9937 55.6283  C 92.9937 55.6283  93.3163 57.1249  93.3163 57.1249  C 93.3163 57.1249  93.0916 57.7671  93.0916 57.7671  C 93.0916 57.7671  92.072 58.253  92.072 58.253  C 92.072 58.253  92.7402 58.8953  92.7402 58.8953  C 92.7402 58.8953  92.5501 60.0626  92.5501 60.0626  C 92.5501 60.0626  93.034 62.0848  93.034 62.0848  C 93.034 62.0848  92.2563 62.0568  92.2563 62.0568  C 92.2563 62.0568  91.496 63.8948  91.496 63.8948  C 91.496 63.8948  91.4556 64.9173  91.4556 64.9173  C 91.4556 64.9173  92.049 66.1914  92.049 66.1914  C 92.049 66.1914  91.5651 67.3817  91.5651 67.3817  C 91.5651 67.3817  90.3955999999999 67.6947  90.3955999999999 67.6947  C 90.3955999999999 67.6947  88.823 67.1637  88.823 67.1637  C 88.823 67.1637  88.3104 66.3534  88.3104 66.3534  C 88.3104 66.3534  87.5499 66.0238  87.5499 66.0238  C 87.5499 66.0238  87.187 66.4652  87.187 66.4652  C 87.187 66.4652  87.8783 68.0411  87.8783 68.0411  C 87.8783 68.0411  87.9474 68.9969  87.9474 68.9969  C 87.9474 68.9969  88.944 69.1869  88.944 69.1869  C 88.944 69.1869  89.4452 70.0868  89.4452 70.0868  C 89.4452 70.0868  89.497 72.1439  89.497 72.1439  C 89.497 72.1439  88.9555 73.3292  88.9555 73.3292  C 88.9555 73.3292  89.3703 74.33  89.3703 74.33  C 89.3703 74.33  89.3069 77.9358  89.3069 77.9358  C 89.3069 77.9358  90.2344000000001 78.92  90.2344000000001 78.92  C 90.2344000000001 78.92  90.6607 78.2657  90.6607 78.2657  C 90.6607 78.2657  91.5593 78.702  91.5593 78.702  C 91.5593 78.702  92.2276000000001 80.4414  92.2276000000001 80.4414  C 92.2276000000001 80.4414  92.1757 81.9572  92.1757 81.9572  C 92.1757 81.9572  93.011 82.4608  93.011 82.4608  C 93.011 82.4608  93.9788 84.2118  93.9788 84.2118  C 93.9788 84.2118  93.9327 85.4092  93.9327 85.4092  C 93.9327 85.4092  94.912 85.5043  94.912 85.5043  C 94.912 85.5043  95.2231 86.3044  95.2231 86.3044  C 95.2231 86.3044  94.8314 86.8976  94.8314 86.8976  C 94.8314 86.8976  92.8785 87.5132  92.8785 87.5132  C 92.8785 87.5132  91.3807 86.7857  91.3807 86.7857  C 91.3807 86.7857  90.3496 85.4036  90.3496 85.4036  C 90.3496 85.4036  90.0213 85.5547  90.0213 85.5547  C 90.0213 85.5547  89.2666 87.3565  89.2666 87.3565  C 89.2666 87.3565  88.0914 87.7538  88.0914 87.7538  C 88.0914 87.7538  88.0166 89.1753  88.0166 89.1753  C 88.0166 89.1753  87.3771 90.1492  87.3771 90.1492  C 87.3771 90.1492  85.7583 90.4739  85.7583 90.4739  C 85.7583 90.4739  85.0152000000001 91.0224  85.0152000000001 91.0224  C 85.0152000000001 91.0224  84.4161 92.7298  84.4161 92.7298  C 84.4161 92.7298  84.8655 94.275  84.8655 94.275  C 84.8655 94.275  85.7641 94.7117  85.7641 94.7117  C 85.7641 94.7117  86.5649 96.2123  86.5649 96.2123  C 86.5649 96.2123  86.8356 97.8082  86.8356 97.8082  C 86.8356 97.8082  86.2019 97.797  86.2019 97.797  C 86.2019 97.797  85.7987000000001 98.5755  85.7987000000001 98.5755  C 85.7987000000001 98.5755  85.2687 98.3235  85.2687 98.3235  C 85.2687 98.3235  84.8885 99.1524  84.8885 99.1524  C 84.8885 99.1524  83.0681 100.1886  83.0681 100.1886  C 83.0681 100.1886  82.4402 99.3036  82.4402 99.3036  C 82.4402 99.3036  81.3227000000001 99.4996  81.3227000000001 99.4996  C 81.3227000000001 99.4996  80.7524 98.7435  80.7524 98.7435  C 80.7524 98.7435  81.0519 96.7331  81.0519 96.7331  C 81.0519 96.7331  79.7557 96.5539  79.7557 96.5539  C 79.7557 96.5539  77.8663 95.4116  77.8663 95.4116  C 77.8663 95.4116  75.516 98.6427  75.516 98.6427  C 75.516 98.6427  75.6023 99.4269  75.6023 99.4269  C 75.6023 99.4269  75.0493 100.0205  75.0493 100.0205  C 75.0493 100.0205  73.5919 100.8048  73.5919 100.8048  C 73.5919 100.8048  72.4974 100.6423  72.4974 100.6423  C 72.4974 100.6423  72.0481 100.0765  72.0481 100.0765  C 72.0481 100.0765  72.5492 99.578  72.5492 99.578  C 72.5492 99.578  70.2911 97.2147  70.2911 97.2147  C 70.2911 97.2147  69.7784 95.8428  69.7784 95.8428  C 69.7784 95.8428  68.0617 94.4261  68.0617 94.4261  C 68.0617 94.4261  67.1112000000001 94.135  67.1112000000001 94.135  C 67.1112000000001 94.135  66.4776000000001 94.7844  66.4776000000001 94.7844  C 66.4776000000001 94.7844  66.5351000000001 96.0387  66.5351000000001 96.0387  C 66.5351000000001 96.0387  65.6768 96.3243  65.6768 96.3243  C 65.6768 96.3243  65.0546000000001 97.1418  65.0546000000001 97.1418  C 65.0546000000001 97.1418  65.239 98.0322  65.239 98.0322  C 65.239 98.0322  64.3 98.6651  64.3 98.6651  C 64.3 98.6651  62.5948 97.1251  62.5948 97.1251  C 62.5948 97.1251  62.5776 96.4363  62.5776 96.4363  C 62.5776 96.4363  61.8344 95.4731  61.8344 95.4731  C 61.8344 95.4731  61.3851 96.6827  61.3851 96.6827  C 61.3851 96.6827  60.7918 97.041  60.7918 97.041  C 60.7918 97.041  60.7975 98.0434  60.7975 98.0434  C 60.7975 98.0434  60.1351 98.6427  60.1351 98.6427  C 60.1351 98.6427  60.1754 99.8637  60.1754 99.8637  C 60.1754 99.8637  60.763 100.2446  60.763 100.2446  C 60.763 100.2446  62.0015 101.7906  62.0015 101.7906  C 62.0015 101.7906  62.7735 101.9026  62.7735 101.9026  C 62.7735 101.9026  63.0499 102.5917  63.0499 102.5917  C 63.0499 102.5917  63.1363 105.2698  63.1363 105.2698  C 63.1363 105.2698  62.0073 105.449  62.0073 105.449  C 62.0073 105.449  62.5603 106.6202  62.5603 106.6202  C 62.5603 106.6202  62.2030999999999 110.7732  62.2030999999999 110.7732  C 62.2030999999999 110.7732  61.9382000000001 112.0737  61.9382000000001 112.0737  C 61.9382000000001 112.0737  63.0096 114.6414  63.0096 114.6414  C 63.0096 114.6414  62.4278 114.49  62.4278 114.49  C 62.4278 114.49  62.6409 116.4357  62.6409 116.4357  C 62.6409 116.4357  62.1743 117.6133  62.1743 117.6133  C 62.1743 117.6133  63.9716 118.4881  63.9716 118.4881  C 63.9716 118.4881  65.0719 120.2661  65.0719 120.2661  C 65.0719 120.2661  63.6952 121.8312  63.6952 121.8312  C 63.6952 121.8312  64.6341 122.3024  64.6341 122.3024  C 64.6341 122.3024  65.5328 124.6756  65.5328 124.6756  C 65.5328 124.6756  64.9913 124.8831  64.9913 124.8831  C 64.9913 124.8831  65.1007 125.9605  65.1007 125.9605  C 65.1007 125.9605  63.3207 126.4319  63.3207 126.4319  C 63.3207 126.4319  61.846 126.241  61.846 126.241  C 61.846 126.241  60.9876 126.5497  60.9876 126.5497  C 60.9876 126.5497  59.9737 126.0502  59.9737 126.0502  C 59.9737 126.0502  59.0751 124.6587  59.0751 124.6587  C 59.0751 124.6587  57.4333 123.5086  57.4333 123.5086  C 57.4333 123.5086  56.9321 126.1064  56.9321 126.1064  C 56.9321 126.1064  56.1084 125.837  56.1084 125.837  C 56.1084 125.837  54.9965 127.296  54.9965 127.296  C 54.9965 127.296  53.0495 127.4588  53.0495 127.4588  C 53.0495 127.4588  50.3616 126.6339  50.3616 126.6339  C 50.3616 126.6339  50.5056 126.0222  50.5056 126.0222  C 50.5056 126.0222  49.342 125.3488  49.342 125.3488  C 49.342 125.3488  48.547 125.9605  48.547 125.9605  C 48.547 125.9605  48.2532 125.3601  48.2532 125.3601  C 48.2532 125.3601  46.6518 125.9044  46.6518 125.9044  C 46.6518 125.9044  45.8741 125.6182  45.8741 125.6182  C 45.8741 125.6182  44.9983999999999 127.1109  44.9983999999999 127.1109  C 44.9983999999999 127.1109  44.5606 125.3376  44.5606 125.3376  C 44.5606 125.3376  43.5295 125.1525  43.5295 125.1525  C 43.5295 125.1525  43.1205 126.589  43.1205 126.589  C 43.1205 126.589  42.5733 127.0828  42.5733 127.0828  C 42.5733 127.0828  42.6309 128.2557  42.6309 128.2557  C 42.6309 128.2557  42.1527 128.3343  42.1527 128.3343  C 42.1527 128.3343  41.8128 126.7068  41.8128 126.7068  C 41.8128 126.7068  41.4269 126.965  41.4269 126.965  C 41.4269 126.965  40.6665 128.9067  40.6665 128.9067  C 40.6665 128.9067  38.5696 129.6813  38.5696 129.6813  C 38.5696 129.6813  37.3425 128.3511  37.3425 128.3511  C 37.3425 128.3511  36.0925 128.396  36.0925 128.396  C 36.0925 128.396  34.952 127.8348  34.952 127.8348  C 34.952 127.8348  34.8367 127.3241  34.8367 127.3241  C 34.8367 127.3241  33.4195999999999 127.4307  33.4195999999999 127.4307  C 33.4195999999999 127.4307  33.0567 128.2164  33.0567 128.2164  C 33.0567 128.2164  30.3319 130.9498  30.3319 130.9498  C 30.3319 130.9498  30.931 131.1519  30.931 131.1519  C 30.931 131.1519  30.3261 132.3532  30.3261 132.3532  C 30.3261 132.3532  30.4298 132.9594  30.4298 132.9594  C 30.4298 132.9594  29.6349 134.1216  29.6349 134.1216  C 29.6349 134.1216  29.9805 134.7279  29.9805 134.7279  C 29.9805 134.7279  29.583 135.5478  29.583 135.5478  C 29.583 135.5478  29.8077 136.7102  29.8077 136.7102  C 29.8077 136.7102  29.8019 138.8666  29.8019 138.8666  C 29.8019 138.8666  29.4505 140.4561  29.4505 140.4561  C 29.4505 140.4561  29.9863 141.557  29.9863 141.557  C 29.9863 141.557  28.6037 142.7312  28.6037 142.7312  C 28.6037 142.7312  28.8283 144.7593  28.8283 144.7593  C 28.8283 144.7593  28.0564000000001 144.9391  28.0564000000001 144.9391  C 28.0564000000001 144.9391  27.3076 146.1359  27.3076 146.1359  C 27.3076 146.1359  27.3076 147.0294  27.3076 147.0294  C 27.3076 147.0294  27.9642 147.1699  27.9642 147.1699  C 27.9642 147.1699  27.5841 147.9455  27.5841 147.9455  C 27.5841 147.9455  28.0852 148.6535  28.0852 148.6535  C 28.0852 148.6535  26.7661 150.587  26.7661 150.587  C 26.7661 150.587  25.5966 150.6769  25.5966 150.6769  C 25.5966 150.6769  24.9284 149.7326  24.9284 149.7326  C 24.9284 149.7326  24.1738 150.868  24.1738 150.868  C 24.1738 150.868  23.3558 150.5532  23.3558 150.5532  C 23.3558 150.5532  22.6991 151.7281  22.6991 151.7281  C 22.6991 151.7281  20.8384 151.7786  20.8384 151.7786  C 20.8384 151.7786  20.078 151.121  20.078 151.121  C 20.078 151.121  19.8706 152.6781  19.8706 152.6781  C 19.8706 152.6781  18.9604 152.5207  18.9604 152.5207  C 18.9604 152.5207  18.1654 151.7449  18.1654 151.7449  C 18.1654 151.7449  18.2691 150.9017  18.2691 150.9017  C 18.2691 150.9017  17.647 148.4793  17.647 148.4793  C 17.647 148.4793  16.7656 148.8446  16.7656 148.8446  C 16.7656 148.8446  16.155 148.8221  16.155 148.8221  C 16.155 148.8221  15.4349 150.2722  15.4349 150.2722  C 15.4349 150.2722  15.095 149.5752  15.095 149.5752  C 15.095 149.5752  14.421 149.5135  14.421 149.5135  C 14.421 149.5135  12.9578 148.5411  12.9578 148.5411  C 12.9578 148.5411  12.2665 149.5977  12.2665 149.5977  C 12.2665 149.5977  11.4888 148.7659  11.4888 148.7659  C 11.4888 148.7659  10.9243 146.9002  10.9243 146.9002  C 10.9243 146.9002  11.4946 145.2763  11.4946 145.2763  C 11.4946 145.2763  11.4716 142.6525  11.4716 142.6525  C 11.4716 142.6525  11.0223 142.5402  11.0223 142.5402  C 11.0223 142.5402  11.4773 139.1418  11.4773 139.1418  C 11.4773 139.1418  12.3702 135.3849  12.3702 135.3849  C 12.3702 135.3849  12.1283 134.4641  12.1283 134.4641  C 12.1283 134.4641  11.3276 134.0711  11.3276 134.0711  C 11.3276 134.0711  11.1778 133.0774  11.1778 133.0774  C 11.1778 133.0774  12.3241 131.7637  12.3241 131.7637  C 12.3241 131.7637  12.3299 130.7927  12.3299 130.7927  C 12.3299 130.7927  11.4024 129.2434  11.4024 129.2434  C 11.4024 129.2434  12.1456 128.0929  12.1456 128.0929  C 12.1456 128.0929  12.0303 126.2803  12.0303 126.2803  C 12.0303 126.2803  11.5292 125.0852  11.5292 125.0852  C 11.5292 125.0852  10.3598 125.7473  10.3598 125.7473  C 10.3598 125.7473  9.01170000000002 125.7921  9.01170000000002 125.7921  C 9.01170000000002 125.7921  7.32389999999998 124.4961  7.32389999999998 124.4961  C 7.32389999999998 124.4961  5.68209999999999 125.7305  5.68209999999999 125.7305  C 5.68209999999999 125.7305  4.76620000000003 124.4286  4.76620000000003 124.4286  C 4.76620000000003 124.4286  4.72590000000002 122.4539  4.72590000000002 122.4539  C 4.72590000000002 122.4539  3.79270000000002 123.43  3.79270000000002 123.43  C 3.79270000000002 123.43  3.8329 121.8985  3.8329 121.8985  C 3.8329 121.8985  4.22469999999998 121.2422  4.22469999999998 121.2422  C 4.22469999999998 121.2422  3.96550000000002 120.4905  3.96550000000002 120.4905  C 3.96550000000002 120.4905  3.24540000000002 120.2437  3.24540000000002 120.2437  C 3.24540000000002 120.2437  2.38130000000001 119.3127  2.38130000000001 119.3127  C 2.38130000000001 119.3127  2.243 118.2022  2.243 118.2022  C 2.243 118.2022  3.68889999999999 119.077  3.68889999999999 119.077  C 3.68889999999999 119.077  4.33420000000001 118.4153  4.33420000000001 118.4153  C 4.33420000000001 118.4153  3.76960000000002 114.0863  3.76960000000002 114.0863  C 3.76960000000002 114.0863  3.4701 112.836  3.4701 112.836  C 3.4701 112.836  2.62900000000002 111.3337  2.62900000000002 111.3337  C 2.62900000000002 111.3337  2.36399999999998 110.336  2.36399999999998 110.336  C 2.36399999999998 110.336  2.62900000000002 109.271  2.62900000000002 109.271  C 2.62900000000002 109.271  2.38709999999998 108.6265  2.38709999999998 108.6265  C 2.38709999999998 108.6265  0.837400000000002 107.0517  0.837400000000002 107.0517  C 0.837400000000002 107.0517  0.42270000000002 105.2642  0.42270000000002 105.2642  C 0.42270000000002 105.2642  0.405399999999986 102.9951  0.405399999999986 102.9951  C 0.405399999999986 102.9951  1.05059999999997 98.5307  1.05059999999997 98.5307  C 1.05059999999997 98.5307  1.89170000000001 96.6547  1.89170000000001 96.6547  C 1.89170000000001 96.6547  3.36059999999998 94.7117  3.36059999999998 94.7117  C 3.36059999999998 94.7117  3.19929999999999 92.8809  3.19929999999999 92.8809  C 3.19929999999999 92.8809  2.53680000000003 91.8621  2.53680000000003 91.8621  C 2.53680000000003 91.8621  2.5598 90.0821  2.5598 90.0821  C 2.5598 90.0821  3.67739999999998 85.9799  3.67739999999998 85.9799  C 3.67739999999998 85.9799  4.79500000000002 84.6818  4.79500000000002 84.6818  C 4.79500000000002 84.6818  6.19479999999999 84.0999  6.19479999999999 84.0999  C 6.19479999999999 84.0999  7.35849999999999 83.1264  7.35849999999999 83.1264  C 7.35849999999999 83.1264  7.83659999999998 83.1824  7.83659999999998 83.1824  C 7.83659999999998 83.1824  9.80099999999999 85.2469  9.80099999999999 85.2469  C 9.80099999999999 85.2469  10.2273 84.9448  10.2273 84.9448  C 10.2273 84.9448  8.90230000000003 83.1264  8.90230000000003 83.1264  C 8.90230000000003 83.1264  9.81830000000002 80.9392  9.81830000000002 80.9392  C 9.81830000000002 80.9392  10.4923 81.7223  10.4923 81.7223  C 10.4923 81.7223  10.8148 80.3127  10.8148 80.3127  C 10.8148 80.3127  11.5061 80.5532  11.5061 80.5532  C 11.5061 80.5532  12.5142 79.0766  12.5142 79.0766  C 12.5142 79.0766  13.8795 79.1885  13.8795 79.1885  C 13.8795 79.1885  13.8104 77.4716  13.8104 77.4716  C 13.8104 77.4716  14.2943 75.8397  14.2943 75.8397  C 14.2943 75.8397  14.7724 77.9861  14.7724 77.9861  C 14.7724 77.9861  15.4061 78.5566  15.4061 78.5566  C 15.4061 78.5566  14.9682 79.2109  14.9682 79.2109  C 14.9682 79.2109  15.337 79.9771  15.337 79.9771  C 15.337 79.9771  16.0513 80.2065  16.0513 80.2065  C 16.0513 80.2065  16.6907 81.3476  16.6907 81.3476  C 16.6907 81.3476  18.3382 82.0244  18.3382 82.0244  C 18.3382 82.0244  19.7208 83.6244  19.7208 83.6244  C 19.7208 83.6244  20.4639 83.9936  20.4639 83.9936  C 20.4639 83.9936  22.388 83.2159  22.388 83.2159  C 22.388 83.2159  22.7452 82.4999  22.7452 82.4999  C 22.7452 82.4999  22.7106 80.1617  22.7106 80.1617  C 22.7106 80.1617  23.1426 78.5845  23.1426 78.5845  C 23.1426 78.5845  23.7763 77.7792  23.7763 77.7792  C 23.7763 77.7792  23.6668 75.3868  23.6668 75.3868  C 23.6668 75.3868  22.8603000000001 74.2069  22.8603000000001 74.2069  C 22.8603000000001 74.2069  22.4915999999999 72.8371  22.4915999999999 72.8371  C 22.4915999999999 72.8371  21.5008 71.4004  21.5008 71.4004  C 21.5008 71.4004  20.3602 70.629  20.3602 70.629  C 20.3602 70.629  20.1356 69.7514  20.1356 69.7514  C 20.1356 69.7514  20.752 68.4547  20.752 68.4547  C 20.752 68.4547  22.2094 66.6943  22.2094 66.6943  C 22.2094 66.6943  23.0331 64.733  23.0331 64.733  C 23.0331 64.733  23.6609999999999 64.0122  23.6609999999999 64.0122  C 23.6609999999999 64.0122  23.6784 63.1407  23.6784 63.1407  C 23.6784 63.1407  24.5022 63.0513  24.5022 63.0513  C 24.5022 63.0513  24.6922 62.1853  24.6922 62.1853  C 24.6922 62.1853  24.1277 62.0401  24.1277 62.0401  C 24.1277 62.0401  24.1738 60.8614  24.1738 60.8614  C 24.1738 60.8614  23.494 59.6548  23.494 59.6548  C 23.494 59.6548  23.6840999999999 58.1246  23.6840999999999 58.1246  C 23.6840999999999 58.1246  22.7221 57.3873  22.7221 57.3873  C 22.7221 57.3873  22.3534 56.5162  22.3534 56.5162  C 22.3534 56.5162  20.919 56.142  20.919 56.142  C 20.919 56.142  18.8279 55.2431  18.8279 55.2431  C 18.8279 55.2431  17.6066 55.0029  17.6066 55.0029  C 17.6066 55.0029  16.5064 55.2989  16.5064 55.2989  C 16.5064 55.2989  16.5064 58.0129  16.5064 58.0129  C 16.5064 58.0129  15.7517 57.2644  15.7517 57.2644  C 15.7517 57.2644  14.9625 58.1636  14.9625 58.1636  C 14.9625 58.1636  13.747 57.5828  13.747 57.5828  C 13.747 57.5828  13.1076 57.6498  13.1076 57.6498  C 13.1076 57.6498  13.3208 55.8963  13.3208 55.8963  C 13.3208 55.8963  12.3472 54.7628  12.3472 54.7628  C 12.3472 54.7628  10.0371 53.2889  10.0371 53.2889  C 10.0371 53.2889  8.94839999999999 51.134  8.94839999999999 51.134  C 8.94839999999999 51.134  8.7122 47.6234  8.7122 47.6234  Z " fill-rule="evenodd" />
    </mask>
  </defs>
  <g transform="matrix(1 0 0 1 -536 -482 )">
    <path d="M 8.7122 47.6234  C 8.7122 47.6234  8.89659999999998 47.3946  8.89659999999998 47.3946  C 8.89659999999998 47.3946  9.72609999999997 46.0107  9.72609999999997 46.0107  C 9.72609999999997 46.0107  11.1202 44.6939  11.1202 44.6939  C 11.1202 44.6939  12.7908 44.1862  12.7908 44.1862  C 12.7908 44.1862  13.315 44.3201  13.315 44.3201  C 13.315 44.3201  13.9083 43.5111  13.9083 43.5111  C 13.9083 43.5111  13.2804 42.8417  13.2804 42.8417  C 13.2804 42.8417  13.7182 40.9784  13.7182 40.9784  C 13.7182 40.9784  14.1215 40.3426  14.1215 40.3426  C 14.1215 40.3426  15.1872 39.8406  15.1872 39.8406  C 15.1872 39.8406  15.9015 40.6494  15.9015 40.6494  C 15.9015 40.6494  16.2472 40.1864  16.2472 40.1864  C 16.2472 40.1864  18.056 39.6342  18.056 39.6342  C 18.056 39.6342  18.609 37.9891  18.609 37.9891  C 18.609 37.9891  17.9235 36.7064  17.9235 36.7064  C 17.9235 36.7064  17.094 36.5671  17.094 36.5671  C 17.094 36.5671  16.4891 35.9314  16.4891 35.9314  C 16.4891 35.9314  16.8348 34.4985  16.8348 34.4985  C 16.8348 34.4985  16.4833 32.7813  16.4833 32.7813  C 16.4833 32.7813  16.7598 32.4525  16.7598 32.4525  C 16.7598 32.4525  15.936 29.6599  15.936 29.6599  C 15.936 29.6599  16.564 28.8351  16.564 28.8351  C 16.564 28.8351  16.8174 27.6982  16.8174 27.6982  C 16.8174 27.6982  17.4742 28.2165  17.4742 28.2165  C 17.4742 28.2165  18.2921 27.8988  18.2921 27.8988  C 18.2921 27.8988  19.3521 29.0134  19.3521 29.0134  C 19.3521 29.0134  19.8475 28.6456  19.8475 28.6456  C 19.8475 28.6456  19.7957 27.7595  19.7957 27.7595  C 19.7957 27.7595  20.51 27.6035  20.51 27.6035  C 20.51 27.6035  20.7231 24.8899  20.7231 24.8899  C 20.7231 24.8899  22.4743999999999 24.8509  22.4743999999999 24.8509  C 22.4743999999999 24.8509  22.7682 25.7257  22.7682 25.7257  C 22.7682 25.7257  24.266 26.2662  24.266 26.2662  C 24.266 26.2662  23.3039 24.6838  23.3039 24.6838  C 23.3039 24.6838  23.0562 25.631  23.0562 25.631  C 23.0562 25.631  22.7624 24.6392  22.7624 24.6392  C 22.7624 24.6392  21.8119 23.5195  21.8119 23.5195  C 21.8119 23.5195  22.6933 22.8287  22.6933 22.8287  C 22.6933 22.8287  23.4537 23.3523  23.4537 23.3523  C 23.4537 23.3523  23.9779 23.0125  23.9779 23.0125  C 23.9779 23.0125  22.5723 21.6533  22.5723 21.6533  C 22.5723 21.6533  22.6241 20.1439  22.6241 20.1439  C 22.6241 20.1439  22.2843 20.6117  22.2843 20.6117  C 22.2843 20.6117  20.9478 17.5042  20.9478 17.5042  C 20.9478 17.5042  19.8014 17.1868  19.8014 17.1868  C 19.8014 17.1868  19.6113 15.7169  19.6113 15.7169  C 19.6113 15.7169  20.8038 16.4129  20.8038 16.4129  C 20.8038 16.4129  22.0827 15.5053  22.0827 15.5053  C 22.0827 15.5053  23.1887 13.8853  23.1887 13.8853  C 23.1887 13.8853  25.7003 12.0538  25.7003 12.0538  C 25.7003 12.0538  25.9077 10.9518  25.9077 10.9518  C 25.9077 10.9518  26.7776 10.6958  26.7776 10.6958  C 26.7776 10.6958  28.1428 11.2969  28.1428 11.2969  C 28.1428 11.2969  29.4159 10.8905  29.4159 10.8905  C 29.4159 10.8905  30.833 11.0352  30.833 11.0352  C 30.833 11.0352  31.8699 12.2597  31.8699 12.2597  C 31.8699 12.2597  32.9127 12.5714  32.9127 12.5714  C 32.9127 12.5714  33.4542 13.5234  33.4542 13.5234  C 33.4542 13.5234  35.0959 14.8261  35.0959 14.8261  C 35.0959 14.8261  35.0383 15.4385  35.0383 15.4385  C 35.0383 15.4385  35.7008 15.8672  35.7008 15.8672  C 35.7008 15.8672  35.6086 17.0754  35.6086 17.0754  C 35.6086 17.0754  36.4151000000001 17.7604  36.4151000000001 17.7604  C 36.4151000000001 17.7604  37.6306 17.8049  37.6306 17.8049  C 37.6306 17.8049  38.6848 19.2361  38.6848 19.2361  C 38.6848 19.2361  39.1572 19.1414  39.1572 19.1414  C 39.1572 19.1414  40.004 17.5209  40.004 17.5209  C 40.004 17.5209  40.8508 17.404  40.8508 17.404  C 40.8508 17.404  42.0259 20.9515  42.0259 20.9515  C 42.0259 20.9515  42.7403 22.0655  42.7403 22.0655  C 42.7403 22.0655  43.5756 24.7117  43.5756 24.7117  C 43.5756 24.7117  44.912 23.3969  44.912 23.3969  C 44.912 23.3969  46.9225 22.6671  46.9225 22.6671  C 46.9225 22.6671  50.3904 22.8733  50.3904 22.8733  C 50.3904 22.8733  52.9977 24.5946  52.9977 24.5946  C 52.9977 24.5946  53.0322 26.5614  53.0322 26.5614  C 53.0322 26.5614  53.8732 26.411  53.8732 26.411  C 53.8732 26.411  55.4171 26.7119  55.4171 26.7119  C 55.4171 26.7119  55.8664 26.3442  55.8664 26.3442  C 55.8664 26.3442  55.515 24.6949  55.515 24.6949  C 55.515 24.6949  55.4286 21.7814  55.4286 21.7814  C 55.4286 21.7814  55.0945 20.7342  55.0945 20.7342  C 55.0945 20.7342  55.1579 19.4867  55.1579 19.4867  C 55.1579 19.4867  57.1165 17.4095  57.1165 17.4095  C 57.1165 17.4095  58.2166999999999 15.6055  58.2166999999999 15.6055  C 58.2166999999999 15.6055  58.1419 13.579  58.1419 13.579  C 58.1419 13.579  57.2374 13.4288  57.2374 13.4288  C 57.2374 13.4288  57.5889 12.026  57.5889 12.026  C 57.5889 12.026  58.6949 10.7903  58.6949 10.7903  C 58.6949 10.7903  58.9657 12.2041  58.9657 12.2041  C 58.9657 12.2041  60.0372 11.564  60.0372 11.564  C 60.0372 11.564  59.5648 10.9518  59.5648 10.9518  C 59.5648 10.9518  60.2963999999999 8.4975  60.2963999999999 8.4975  C 60.2963999999999 8.4975  60.9761 8.23599999999999  60.9761 8.23599999999999  C 60.9761 8.23599999999999  61.2527 8.89260000000002  61.2527 8.89260000000002  C 61.2527 8.89260000000002  61.8978 8.48079999999999  61.8978 8.48079999999999  C 61.8978 8.48079999999999  62.9808 9.09300000000002  62.9808 9.09300000000002  C 62.9808 9.09300000000002  64.3288 8.56990000000002  64.3288 8.56990000000002  C 64.3288 8.56990000000002  65.4982 7.17309999999998  65.4982 7.17309999999998  C 65.4982 7.17309999999998  66.5524 7.03960000000001  66.5524 7.03960000000001  C 66.5524 7.03960000000001  67.3013 8.3417  67.3013 8.3417  C 67.3013 8.3417  68.6896 7.85759999999999  68.6896 7.85759999999999  C 68.6896 7.85759999999999  70.7807 6.1884  70.7807 6.1884  C 70.7807 6.1884  72.7336 6.67239999999998  72.7336 6.67239999999998  C 72.7336 6.67239999999998  73.2232 6.19389999999999  73.2232 6.19389999999999  C 73.2232 6.19389999999999  73.1541 4.7808  73.1541 4.7808  C 73.1541 4.7808  73.4364 4.10770000000002  73.4364 4.10770000000002  C 73.4364 4.10770000000002  74.7152 3.28989999999999  74.7152 3.28989999999999  C 74.7152 3.28989999999999  74.9111 2.06619999999998  74.9111 2.06619999999998  C 74.9111 2.06619999999998  76.8869999999999 0.581200000000024  76.8869999999999 0.581200000000024  C 76.8869999999999 0.581200000000024  77.7799 2.34989999999999  77.7799 2.34989999999999  C 77.7799 2.34989999999999  79.2488 2.29430000000002  79.2488 2.29430000000002  C 79.2488 2.29430000000002  80.2224 3.38999999999999  80.2224 3.38999999999999  C 80.2224 3.38999999999999  81.0865 2.86720000000003  81.0865 2.86720000000003  C 81.0865 2.86720000000003  81.7778 1.03730000000002  81.7778 1.03730000000002  C 81.7778 1.03730000000002  82.7166999999999 1.0206  82.7166999999999 1.0206  C 82.7166999999999 1.0206  85.3896999999999 1.59350000000001  85.3896999999999 1.59350000000001  C 85.3896999999999 1.59350000000001  85.9945 2.22190000000001  85.9945 2.22190000000001  C 85.9945 2.22190000000001  85.7929 3.09530000000001  85.7929 3.09530000000001  C 85.7929 3.09530000000001  86.0119 4.33019999999999  86.0119 4.33019999999999  C 86.0119 4.33019999999999  87.0891 4.3913  87.0891 4.3913  C 87.0891 4.3913  86.8011 5.86009999999999  86.8011 5.86009999999999  C 86.8011 5.86009999999999  87.4462 6.91719999999998  87.4462 6.91719999999998  C 87.4462 6.91719999999998  89.2378 7.34010000000001  89.2378 7.34010000000001  C 89.2378 7.34010000000001  89.3012 9.05959999999999  89.3012 9.05959999999999  C 89.3012 9.05959999999999  90.3151 9.17090000000002  90.3151 9.17090000000002  C 90.3151 9.17090000000002  91.4614 7.56259999999998  91.4614 7.56259999999998  C 91.4614 7.56259999999998  92.2448000000001 8.7201  92.2448000000001 8.7201  C 92.2448000000001 8.7201  91.8646 9.5437  91.8646 9.5437  C 91.8646 9.5437  92.8439 11.2022  92.8439 11.2022  C 92.8439 11.2022  92.3024 12.3488  92.3024 12.3488  C 92.3024 12.3488  92.7345 13.078  92.7345 13.078  C 92.7345 13.078  92.2161 14.3361  92.2161 14.3361  C 92.2161 14.3361  92.5329 16.3627  92.5329 16.3627  C 92.5329 16.3627  93.4892 17.0588  93.4892 17.0588  C 93.4892 17.0588  93.3566 18.0499  93.3566 18.0499  C 93.3566 18.0499  91.8704 18.1724  91.8704 18.1724  C 91.8704 18.1724  90.4072 21.0684  90.4072 21.0684  C 90.4072 21.0684  90.9545000000001 22.2271  90.9545000000001 22.2271  C 90.9545000000001 22.2271  90.3726 22.8064  90.3726 22.8064  C 90.3726 22.8064  90.701 23.3635  90.701 23.3635  C 90.701 23.3635  90.5857999999999 24.7117  90.5857999999999 24.7117  C 90.5857999999999 24.7117  92.3887999999999 28.2443  92.3887999999999 28.2443  C 92.3887999999999 28.2443  93.6446999999999 28.8351  93.6446999999999 28.8351  C 93.6446999999999 28.8351  95.0042 27.3638  95.0042 27.3638  C 95.0042 27.3638  95.9778 27.8821  95.9778 27.8821  C 95.9778 27.8821  96.1448 28.8351  96.1448 28.8351  C 96.1448 28.8351  95.6781 30.8916  95.6781 30.8916  C 95.6781 30.8916  93.9615 36.2436  93.9615 36.2436  C 93.9615 36.2436  93.8809 37.0298  93.8809 37.0298  C 93.8809 37.0298  95.2749 39.3833  95.2749 39.3833  C 95.2749 39.3833  94.9465 40.7275  94.9465 40.7275  C 94.9465 40.7275  95.3556 41.4024  95.3556 41.4024  C 95.3556 41.4024  97.2451 42.0941  97.2451 42.0941  C 97.2451 42.0941  98.3280999999999 42.9364  98.3280999999999 42.9364  C 98.3280999999999 42.9364  99.2843 42.624  99.2843 42.624  C 99.2843 42.624  100.0851 43.2377  100.0851 43.2377  C 100.0851 43.2377  102.6659 49.4819  102.6659 49.4819  C 102.6659 49.4819  102.2338 50.6093  102.2338 50.6093  C 102.2338 50.6093  102.3086 51.4522  102.3086 51.4522  C 102.3086 51.4522  103.2592 52.3231  103.2592 52.3231  C 103.2592 52.3231  103.4147 54.4948  103.4147 54.4948  C 103.4147 54.4948  102.6082 55.3491  102.6082 55.3491  C 102.6082 55.3491  101.8823 55.4385  101.8823 55.4385  C 101.8823 55.4385  100.6381 54.9248  100.6381 54.9248  C 100.6381 54.9248  100.0735 55.4776  100.0735 55.4776  C 100.0735 55.4776  98.5182 55.2096  98.5182 55.2096  C 98.5182 55.2096  97.1702 55.9019  97.1702 55.9019  C 97.1702 55.9019  96.5768 56.6447  96.5768 56.6447  C 96.5768 56.6447  96.4443 57.8342  96.4443 57.8342  C 96.4443 57.8342  95.9432 58.0407  95.9432 58.0407  C 95.9432 58.0407  95.5169 56.5776  95.5169 56.5776  C 95.5169 56.5776  94.3878 55.1649  94.3878 55.1649  C 94.3878 55.1649  92.9937 55.6283  92.9937 55.6283  C 92.9937 55.6283  93.3163 57.1249  93.3163 57.1249  C 93.3163 57.1249  93.0916 57.7671  93.0916 57.7671  C 93.0916 57.7671  92.072 58.253  92.072 58.253  C 92.072 58.253  92.7402 58.8953  92.7402 58.8953  C 92.7402 58.8953  92.5501 60.0626  92.5501 60.0626  C 92.5501 60.0626  93.034 62.0848  93.034 62.0848  C 93.034 62.0848  92.2563 62.0568  92.2563 62.0568  C 92.2563 62.0568  91.496 63.8948  91.496 63.8948  C 91.496 63.8948  91.4556 64.9173  91.4556 64.9173  C 91.4556 64.9173  92.049 66.1914  92.049 66.1914  C 92.049 66.1914  91.5651 67.3817  91.5651 67.3817  C 91.5651 67.3817  90.3955999999999 67.6947  90.3955999999999 67.6947  C 90.3955999999999 67.6947  88.823 67.1637  88.823 67.1637  C 88.823 67.1637  88.3104 66.3534  88.3104 66.3534  C 88.3104 66.3534  87.5499 66.0238  87.5499 66.0238  C 87.5499 66.0238  87.187 66.4652  87.187 66.4652  C 87.187 66.4652  87.8783 68.0411  87.8783 68.0411  C 87.8783 68.0411  87.9474 68.9969  87.9474 68.9969  C 87.9474 68.9969  88.944 69.1869  88.944 69.1869  C 88.944 69.1869  89.4452 70.0868  89.4452 70.0868  C 89.4452 70.0868  89.497 72.1439  89.497 72.1439  C 89.497 72.1439  88.9555 73.3292  88.9555 73.3292  C 88.9555 73.3292  89.3703 74.33  89.3703 74.33  C 89.3703 74.33  89.3069 77.9358  89.3069 77.9358  C 89.3069 77.9358  90.2344000000001 78.92  90.2344000000001 78.92  C 90.2344000000001 78.92  90.6607 78.2657  90.6607 78.2657  C 90.6607 78.2657  91.5593 78.702  91.5593 78.702  C 91.5593 78.702  92.2276000000001 80.4414  92.2276000000001 80.4414  C 92.2276000000001 80.4414  92.1757 81.9572  92.1757 81.9572  C 92.1757 81.9572  93.011 82.4608  93.011 82.4608  C 93.011 82.4608  93.9788 84.2118  93.9788 84.2118  C 93.9788 84.2118  93.9327 85.4092  93.9327 85.4092  C 93.9327 85.4092  94.912 85.5043  94.912 85.5043  C 94.912 85.5043  95.2231 86.3044  95.2231 86.3044  C 95.2231 86.3044  94.8314 86.8976  94.8314 86.8976  C 94.8314 86.8976  92.8785 87.5132  92.8785 87.5132  C 92.8785 87.5132  91.3807 86.7857  91.3807 86.7857  C 91.3807 86.7857  90.3496 85.4036  90.3496 85.4036  C 90.3496 85.4036  90.0213 85.5547  90.0213 85.5547  C 90.0213 85.5547  89.2666 87.3565  89.2666 87.3565  C 89.2666 87.3565  88.0914 87.7538  88.0914 87.7538  C 88.0914 87.7538  88.0166 89.1753  88.0166 89.1753  C 88.0166 89.1753  87.3771 90.1492  87.3771 90.1492  C 87.3771 90.1492  85.7583 90.4739  85.7583 90.4739  C 85.7583 90.4739  85.0152000000001 91.0224  85.0152000000001 91.0224  C 85.0152000000001 91.0224  84.4161 92.7298  84.4161 92.7298  C 84.4161 92.7298  84.8655 94.275  84.8655 94.275  C 84.8655 94.275  85.7641 94.7117  85.7641 94.7117  C 85.7641 94.7117  86.5649 96.2123  86.5649 96.2123  C 86.5649 96.2123  86.8356 97.8082  86.8356 97.8082  C 86.8356 97.8082  86.2019 97.797  86.2019 97.797  C 86.2019 97.797  85.7987000000001 98.5755  85.7987000000001 98.5755  C 85.7987000000001 98.5755  85.2687 98.3235  85.2687 98.3235  C 85.2687 98.3235  84.8885 99.1524  84.8885 99.1524  C 84.8885 99.1524  83.0681 100.1886  83.0681 100.1886  C 83.0681 100.1886  82.4402 99.3036  82.4402 99.3036  C 82.4402 99.3036  81.3227000000001 99.4996  81.3227000000001 99.4996  C 81.3227000000001 99.4996  80.7524 98.7435  80.7524 98.7435  C 80.7524 98.7435  81.0519 96.7331  81.0519 96.7331  C 81.0519 96.7331  79.7557 96.5539  79.7557 96.5539  C 79.7557 96.5539  77.8663 95.4116  77.8663 95.4116  C 77.8663 95.4116  75.516 98.6427  75.516 98.6427  C 75.516 98.6427  75.6023 99.4269  75.6023 99.4269  C 75.6023 99.4269  75.0493 100.0205  75.0493 100.0205  C 75.0493 100.0205  73.5919 100.8048  73.5919 100.8048  C 73.5919 100.8048  72.4974 100.6423  72.4974 100.6423  C 72.4974 100.6423  72.0481 100.0765  72.0481 100.0765  C 72.0481 100.0765  72.5492 99.578  72.5492 99.578  C 72.5492 99.578  70.2911 97.2147  70.2911 97.2147  C 70.2911 97.2147  69.7784 95.8428  69.7784 95.8428  C 69.7784 95.8428  68.0617 94.4261  68.0617 94.4261  C 68.0617 94.4261  67.1112000000001 94.135  67.1112000000001 94.135  C 67.1112000000001 94.135  66.4776000000001 94.7844  66.4776000000001 94.7844  C 66.4776000000001 94.7844  66.5351000000001 96.0387  66.5351000000001 96.0387  C 66.5351000000001 96.0387  65.6768 96.3243  65.6768 96.3243  C 65.6768 96.3243  65.0546000000001 97.1418  65.0546000000001 97.1418  C 65.0546000000001 97.1418  65.239 98.0322  65.239 98.0322  C 65.239 98.0322  64.3 98.6651  64.3 98.6651  C 64.3 98.6651  62.5948 97.1251  62.5948 97.1251  C 62.5948 97.1251  62.5776 96.4363  62.5776 96.4363  C 62.5776 96.4363  61.8344 95.4731  61.8344 95.4731  C 61.8344 95.4731  61.3851 96.6827  61.3851 96.6827  C 61.3851 96.6827  60.7918 97.041  60.7918 97.041  C 60.7918 97.041  60.7975 98.0434  60.7975 98.0434  C 60.7975 98.0434  60.1351 98.6427  60.1351 98.6427  C 60.1351 98.6427  60.1754 99.8637  60.1754 99.8637  C 60.1754 99.8637  60.763 100.2446  60.763 100.2446  C 60.763 100.2446  62.0015 101.7906  62.0015 101.7906  C 62.0015 101.7906  62.7735 101.9026  62.7735 101.9026  C 62.7735 101.9026  63.0499 102.5917  63.0499 102.5917  C 63.0499 102.5917  63.1363 105.2698  63.1363 105.2698  C 63.1363 105.2698  62.0073 105.449  62.0073 105.449  C 62.0073 105.449  62.5603 106.6202  62.5603 106.6202  C 62.5603 106.6202  62.2030999999999 110.7732  62.2030999999999 110.7732  C 62.2030999999999 110.7732  61.9382000000001 112.0737  61.9382000000001 112.0737  C 61.9382000000001 112.0737  63.0096 114.6414  63.0096 114.6414  C 63.0096 114.6414  62.4278 114.49  62.4278 114.49  C 62.4278 114.49  62.6409 116.4357  62.6409 116.4357  C 62.6409 116.4357  62.1743 117.6133  62.1743 117.6133  C 62.1743 117.6133  63.9716 118.4881  63.9716 118.4881  C 63.9716 118.4881  65.0719 120.2661  65.0719 120.2661  C 65.0719 120.2661  63.6952 121.8312  63.6952 121.8312  C 63.6952 121.8312  64.6341 122.3024  64.6341 122.3024  C 64.6341 122.3024  65.5328 124.6756  65.5328 124.6756  C 65.5328 124.6756  64.9913 124.8831  64.9913 124.8831  C 64.9913 124.8831  65.1007 125.9605  65.1007 125.9605  C 65.1007 125.9605  63.3207 126.4319  63.3207 126.4319  C 63.3207 126.4319  61.846 126.241  61.846 126.241  C 61.846 126.241  60.9876 126.5497  60.9876 126.5497  C 60.9876 126.5497  59.9737 126.0502  59.9737 126.0502  C 59.9737 126.0502  59.0751 124.6587  59.0751 124.6587  C 59.0751 124.6587  57.4333 123.5086  57.4333 123.5086  C 57.4333 123.5086  56.9321 126.1064  56.9321 126.1064  C 56.9321 126.1064  56.1084 125.837  56.1084 125.837  C 56.1084 125.837  54.9965 127.296  54.9965 127.296  C 54.9965 127.296  53.0495 127.4588  53.0495 127.4588  C 53.0495 127.4588  50.3616 126.6339  50.3616 126.6339  C 50.3616 126.6339  50.5056 126.0222  50.5056 126.0222  C 50.5056 126.0222  49.342 125.3488  49.342 125.3488  C 49.342 125.3488  48.547 125.9605  48.547 125.9605  C 48.547 125.9605  48.2532 125.3601  48.2532 125.3601  C 48.2532 125.3601  46.6518 125.9044  46.6518 125.9044  C 46.6518 125.9044  45.8741 125.6182  45.8741 125.6182  C 45.8741 125.6182  44.9983999999999 127.1109  44.9983999999999 127.1109  C 44.9983999999999 127.1109  44.5606 125.3376  44.5606 125.3376  C 44.5606 125.3376  43.5295 125.1525  43.5295 125.1525  C 43.5295 125.1525  43.1205 126.589  43.1205 126.589  C 43.1205 126.589  42.5733 127.0828  42.5733 127.0828  C 42.5733 127.0828  42.6309 128.2557  42.6309 128.2557  C 42.6309 128.2557  42.1527 128.3343  42.1527 128.3343  C 42.1527 128.3343  41.8128 126.7068  41.8128 126.7068  C 41.8128 126.7068  41.4269 126.965  41.4269 126.965  C 41.4269 126.965  40.6665 128.9067  40.6665 128.9067  C 40.6665 128.9067  38.5696 129.6813  38.5696 129.6813  C 38.5696 129.6813  37.3425 128.3511  37.3425 128.3511  C 37.3425 128.3511  36.0925 128.396  36.0925 128.396  C 36.0925 128.396  34.952 127.8348  34.952 127.8348  C 34.952 127.8348  34.8367 127.3241  34.8367 127.3241  C 34.8367 127.3241  33.4195999999999 127.4307  33.4195999999999 127.4307  C 33.4195999999999 127.4307  33.0567 128.2164  33.0567 128.2164  C 33.0567 128.2164  30.3319 130.9498  30.3319 130.9498  C 30.3319 130.9498  30.931 131.1519  30.931 131.1519  C 30.931 131.1519  30.3261 132.3532  30.3261 132.3532  C 30.3261 132.3532  30.4298 132.9594  30.4298 132.9594  C 30.4298 132.9594  29.6349 134.1216  29.6349 134.1216  C 29.6349 134.1216  29.9805 134.7279  29.9805 134.7279  C 29.9805 134.7279  29.583 135.5478  29.583 135.5478  C 29.583 135.5478  29.8077 136.7102  29.8077 136.7102  C 29.8077 136.7102  29.8019 138.8666  29.8019 138.8666  C 29.8019 138.8666  29.4505 140.4561  29.4505 140.4561  C 29.4505 140.4561  29.9863 141.557  29.9863 141.557  C 29.9863 141.557  28.6037 142.7312  28.6037 142.7312  C 28.6037 142.7312  28.8283 144.7593  28.8283 144.7593  C 28.8283 144.7593  28.0564000000001 144.9391  28.0564000000001 144.9391  C 28.0564000000001 144.9391  27.3076 146.1359  27.3076 146.1359  C 27.3076 146.1359  27.3076 147.0294  27.3076 147.0294  C 27.3076 147.0294  27.9642 147.1699  27.9642 147.1699  C 27.9642 147.1699  27.5841 147.9455  27.5841 147.9455  C 27.5841 147.9455  28.0852 148.6535  28.0852 148.6535  C 28.0852 148.6535  26.7661 150.587  26.7661 150.587  C 26.7661 150.587  25.5966 150.6769  25.5966 150.6769  C 25.5966 150.6769  24.9284 149.7326  24.9284 149.7326  C 24.9284 149.7326  24.1738 150.868  24.1738 150.868  C 24.1738 150.868  23.3558 150.5532  23.3558 150.5532  C 23.3558 150.5532  22.6991 151.7281  22.6991 151.7281  C 22.6991 151.7281  20.8384 151.7786  20.8384 151.7786  C 20.8384 151.7786  20.078 151.121  20.078 151.121  C 20.078 151.121  19.8706 152.6781  19.8706 152.6781  C 19.8706 152.6781  18.9604 152.5207  18.9604 152.5207  C 18.9604 152.5207  18.1654 151.7449  18.1654 151.7449  C 18.1654 151.7449  18.2691 150.9017  18.2691 150.9017  C 18.2691 150.9017  17.647 148.4793  17.647 148.4793  C 17.647 148.4793  16.7656 148.8446  16.7656 148.8446  C 16.7656 148.8446  16.155 148.8221  16.155 148.8221  C 16.155 148.8221  15.4349 150.2722  15.4349 150.2722  C 15.4349 150.2722  15.095 149.5752  15.095 149.5752  C 15.095 149.5752  14.421 149.5135  14.421 149.5135  C 14.421 149.5135  12.9578 148.5411  12.9578 148.5411  C 12.9578 148.5411  12.2665 149.5977  12.2665 149.5977  C 12.2665 149.5977  11.4888 148.7659  11.4888 148.7659  C 11.4888 148.7659  10.9243 146.9002  10.9243 146.9002  C 10.9243 146.9002  11.4946 145.2763  11.4946 145.2763  C 11.4946 145.2763  11.4716 142.6525  11.4716 142.6525  C 11.4716 142.6525  11.0223 142.5402  11.0223 142.5402  C 11.0223 142.5402  11.4773 139.1418  11.4773 139.1418  C 11.4773 139.1418  12.3702 135.3849  12.3702 135.3849  C 12.3702 135.3849  12.1283 134.4641  12.1283 134.4641  C 12.1283 134.4641  11.3276 134.0711  11.3276 134.0711  C 11.3276 134.0711  11.1778 133.0774  11.1778 133.0774  C 11.1778 133.0774  12.3241 131.7637  12.3241 131.7637  C 12.3241 131.7637  12.3299 130.7927  12.3299 130.7927  C 12.3299 130.7927  11.4024 129.2434  11.4024 129.2434  C 11.4024 129.2434  12.1456 128.0929  12.1456 128.0929  C 12.1456 128.0929  12.0303 126.2803  12.0303 126.2803  C 12.0303 126.2803  11.5292 125.0852  11.5292 125.0852  C 11.5292 125.0852  10.3598 125.7473  10.3598 125.7473  C 10.3598 125.7473  9.01170000000002 125.7921  9.01170000000002 125.7921  C 9.01170000000002 125.7921  7.32389999999998 124.4961  7.32389999999998 124.4961  C 7.32389999999998 124.4961  5.68209999999999 125.7305  5.68209999999999 125.7305  C 5.68209999999999 125.7305  4.76620000000003 124.4286  4.76620000000003 124.4286  C 4.76620000000003 124.4286  4.72590000000002 122.4539  4.72590000000002 122.4539  C 4.72590000000002 122.4539  3.79270000000002 123.43  3.79270000000002 123.43  C 3.79270000000002 123.43  3.8329 121.8985  3.8329 121.8985  C 3.8329 121.8985  4.22469999999998 121.2422  4.22469999999998 121.2422  C 4.22469999999998 121.2422  3.96550000000002 120.4905  3.96550000000002 120.4905  C 3.96550000000002 120.4905  3.24540000000002 120.2437  3.24540000000002 120.2437  C 3.24540000000002 120.2437  2.38130000000001 119.3127  2.38130000000001 119.3127  C 2.38130000000001 119.3127  2.243 118.2022  2.243 118.2022  C 2.243 118.2022  3.68889999999999 119.077  3.68889999999999 119.077  C 3.68889999999999 119.077  4.33420000000001 118.4153  4.33420000000001 118.4153  C 4.33420000000001 118.4153  3.76960000000002 114.0863  3.76960000000002 114.0863  C 3.76960000000002 114.0863  3.4701 112.836  3.4701 112.836  C 3.4701 112.836  2.62900000000002 111.3337  2.62900000000002 111.3337  C 2.62900000000002 111.3337  2.36399999999998 110.336  2.36399999999998 110.336  C 2.36399999999998 110.336  2.62900000000002 109.271  2.62900000000002 109.271  C 2.62900000000002 109.271  2.38709999999998 108.6265  2.38709999999998 108.6265  C 2.38709999999998 108.6265  0.837400000000002 107.0517  0.837400000000002 107.0517  C 0.837400000000002 107.0517  0.42270000000002 105.2642  0.42270000000002 105.2642  C 0.42270000000002 105.2642  0.405399999999986 102.9951  0.405399999999986 102.9951  C 0.405399999999986 102.9951  1.05059999999997 98.5307  1.05059999999997 98.5307  C 1.05059999999997 98.5307  1.89170000000001 96.6547  1.89170000000001 96.6547  C 1.89170000000001 96.6547  3.36059999999998 94.7117  3.36059999999998 94.7117  C 3.36059999999998 94.7117  3.19929999999999 92.8809  3.19929999999999 92.8809  C 3.19929999999999 92.8809  2.53680000000003 91.8621  2.53680000000003 91.8621  C 2.53680000000003 91.8621  2.5598 90.0821  2.5598 90.0821  C 2.5598 90.0821  3.67739999999998 85.9799  3.67739999999998 85.9799  C 3.67739999999998 85.9799  4.79500000000002 84.6818  4.79500000000002 84.6818  C 4.79500000000002 84.6818  6.19479999999999 84.0999  6.19479999999999 84.0999  C 6.19479999999999 84.0999  7.35849999999999 83.1264  7.35849999999999 83.1264  C 7.35849999999999 83.1264  7.83659999999998 83.1824  7.83659999999998 83.1824  C 7.83659999999998 83.1824  9.80099999999999 85.2469  9.80099999999999 85.2469  C 9.80099999999999 85.2469  10.2273 84.9448  10.2273 84.9448  C 10.2273 84.9448  8.90230000000003 83.1264  8.90230000000003 83.1264  C 8.90230000000003 83.1264  9.81830000000002 80.9392  9.81830000000002 80.9392  C 9.81830000000002 80.9392  10.4923 81.7223  10.4923 81.7223  C 10.4923 81.7223  10.8148 80.3127  10.8148 80.3127  C 10.8148 80.3127  11.5061 80.5532  11.5061 80.5532  C 11.5061 80.5532  12.5142 79.0766  12.5142 79.0766  C 12.5142 79.0766  13.8795 79.1885  13.8795 79.1885  C 13.8795 79.1885  13.8104 77.4716  13.8104 77.4716  C 13.8104 77.4716  14.2943 75.8397  14.2943 75.8397  C 14.2943 75.8397  14.7724 77.9861  14.7724 77.9861  C 14.7724 77.9861  15.4061 78.5566  15.4061 78.5566  C 15.4061 78.5566  14.9682 79.2109  14.9682 79.2109  C 14.9682 79.2109  15.337 79.9771  15.337 79.9771  C 15.337 79.9771  16.0513 80.2065  16.0513 80.2065  C 16.0513 80.2065  16.6907 81.3476  16.6907 81.3476  C 16.6907 81.3476  18.3382 82.0244  18.3382 82.0244  C 18.3382 82.0244  19.7208 83.6244  19.7208 83.6244  C 19.7208 83.6244  20.4639 83.9936  20.4639 83.9936  C 20.4639 83.9936  22.388 83.2159  22.388 83.2159  C 22.388 83.2159  22.7452 82.4999  22.7452 82.4999  C 22.7452 82.4999  22.7106 80.1617  22.7106 80.1617  C 22.7106 80.1617  23.1426 78.5845  23.1426 78.5845  C 23.1426 78.5845  23.7763 77.7792  23.7763 77.7792  C 23.7763 77.7792  23.6668 75.3868  23.6668 75.3868  C 23.6668 75.3868  22.8603000000001 74.2069  22.8603000000001 74.2069  C 22.8603000000001 74.2069  22.4915999999999 72.8371  22.4915999999999 72.8371  C 22.4915999999999 72.8371  21.5008 71.4004  21.5008 71.4004  C 21.5008 71.4004  20.3602 70.629  20.3602 70.629  C 20.3602 70.629  20.1356 69.7514  20.1356 69.7514  C 20.1356 69.7514  20.752 68.4547  20.752 68.4547  C 20.752 68.4547  22.2094 66.6943  22.2094 66.6943  C 22.2094 66.6943  23.0331 64.733  23.0331 64.733  C 23.0331 64.733  23.6609999999999 64.0122  23.6609999999999 64.0122  C 23.6609999999999 64.0122  23.6784 63.1407  23.6784 63.1407  C 23.6784 63.1407  24.5022 63.0513  24.5022 63.0513  C 24.5022 63.0513  24.6922 62.1853  24.6922 62.1853  C 24.6922 62.1853  24.1277 62.0401  24.1277 62.0401  C 24.1277 62.0401  24.1738 60.8614  24.1738 60.8614  C 24.1738 60.8614  23.494 59.6548  23.494 59.6548  C 23.494 59.6548  23.6840999999999 58.1246  23.6840999999999 58.1246  C 23.6840999999999 58.1246  22.7221 57.3873  22.7221 57.3873  C 22.7221 57.3873  22.3534 56.5162  22.3534 56.5162  C 22.3534 56.5162  20.919 56.142  20.919 56.142  C 20.919 56.142  18.8279 55.2431  18.8279 55.2431  C 18.8279 55.2431  17.6066 55.0029  17.6066 55.0029  C 17.6066 55.0029  16.5064 55.2989  16.5064 55.2989  C 16.5064 55.2989  16.5064 58.0129  16.5064 58.0129  C 16.5064 58.0129  15.7517 57.2644  15.7517 57.2644  C 15.7517 57.2644  14.9625 58.1636  14.9625 58.1636  C 14.9625 58.1636  13.747 57.5828  13.747 57.5828  C 13.747 57.5828  13.1076 57.6498  13.1076 57.6498  C 13.1076 57.6498  13.3208 55.8963  13.3208 55.8963  C 13.3208 55.8963  12.3472 54.7628  12.3472 54.7628  C 12.3472 54.7628  10.0371 53.2889  10.0371 53.2889  C 10.0371 53.2889  8.94839999999999 51.134  8.94839999999999 51.134  C 8.94839999999999 51.134  8.7122 47.6234  8.7122 47.6234  Z " fill-rule="nonzero" fill="#ffffff" stroke="none" transform="matrix(1 0 0 1 536 482 )" />
    <path d="M 8.7122 47.6234  C 8.7122 47.6234  8.89659999999998 47.3946  8.89659999999998 47.3946  C 8.89659999999998 47.3946  9.72609999999997 46.0107  9.72609999999997 46.0107  C 9.72609999999997 46.0107  11.1202 44.6939  11.1202 44.6939  C 11.1202 44.6939  12.7908 44.1862  12.7908 44.1862  C 12.7908 44.1862  13.315 44.3201  13.315 44.3201  C 13.315 44.3201  13.9083 43.5111  13.9083 43.5111  C 13.9083 43.5111  13.2804 42.8417  13.2804 42.8417  C 13.2804 42.8417  13.7182 40.9784  13.7182 40.9784  C 13.7182 40.9784  14.1215 40.3426  14.1215 40.3426  C 14.1215 40.3426  15.1872 39.8406  15.1872 39.8406  C 15.1872 39.8406  15.9015 40.6494  15.9015 40.6494  C 15.9015 40.6494  16.2472 40.1864  16.2472 40.1864  C 16.2472 40.1864  18.056 39.6342  18.056 39.6342  C 18.056 39.6342  18.609 37.9891  18.609 37.9891  C 18.609 37.9891  17.9235 36.7064  17.9235 36.7064  C 17.9235 36.7064  17.094 36.5671  17.094 36.5671  C 17.094 36.5671  16.4891 35.9314  16.4891 35.9314  C 16.4891 35.9314  16.8348 34.4985  16.8348 34.4985  C 16.8348 34.4985  16.4833 32.7813  16.4833 32.7813  C 16.4833 32.7813  16.7598 32.4525  16.7598 32.4525  C 16.7598 32.4525  15.936 29.6599  15.936 29.6599  C 15.936 29.6599  16.564 28.8351  16.564 28.8351  C 16.564 28.8351  16.8174 27.6982  16.8174 27.6982  C 16.8174 27.6982  17.4742 28.2165  17.4742 28.2165  C 17.4742 28.2165  18.2921 27.8988  18.2921 27.8988  C 18.2921 27.8988  19.3521 29.0134  19.3521 29.0134  C 19.3521 29.0134  19.8475 28.6456  19.8475 28.6456  C 19.8475 28.6456  19.7957 27.7595  19.7957 27.7595  C 19.7957 27.7595  20.51 27.6035  20.51 27.6035  C 20.51 27.6035  20.7231 24.8899  20.7231 24.8899  C 20.7231 24.8899  22.4743999999999 24.8509  22.4743999999999 24.8509  C 22.4743999999999 24.8509  22.7682 25.7257  22.7682 25.7257  C 22.7682 25.7257  24.266 26.2662  24.266 26.2662  C 24.266 26.2662  23.3039 24.6838  23.3039 24.6838  C 23.3039 24.6838  23.0562 25.631  23.0562 25.631  C 23.0562 25.631  22.7624 24.6392  22.7624 24.6392  C 22.7624 24.6392  21.8119 23.5195  21.8119 23.5195  C 21.8119 23.5195  22.6933 22.8287  22.6933 22.8287  C 22.6933 22.8287  23.4537 23.3523  23.4537 23.3523  C 23.4537 23.3523  23.9779 23.0125  23.9779 23.0125  C 23.9779 23.0125  22.5723 21.6533  22.5723 21.6533  C 22.5723 21.6533  22.6241 20.1439  22.6241 20.1439  C 22.6241 20.1439  22.2843 20.6117  22.2843 20.6117  C 22.2843 20.6117  20.9478 17.5042  20.9478 17.5042  C 20.9478 17.5042  19.8014 17.1868  19.8014 17.1868  C 19.8014 17.1868  19.6113 15.7169  19.6113 15.7169  C 19.6113 15.7169  20.8038 16.4129  20.8038 16.4129  C 20.8038 16.4129  22.0827 15.5053  22.0827 15.5053  C 22.0827 15.5053  23.1887 13.8853  23.1887 13.8853  C 23.1887 13.8853  25.7003 12.0538  25.7003 12.0538  C 25.7003 12.0538  25.9077 10.9518  25.9077 10.9518  C 25.9077 10.9518  26.7776 10.6958  26.7776 10.6958  C 26.7776 10.6958  28.1428 11.2969  28.1428 11.2969  C 28.1428 11.2969  29.4159 10.8905  29.4159 10.8905  C 29.4159 10.8905  30.833 11.0352  30.833 11.0352  C 30.833 11.0352  31.8699 12.2597  31.8699 12.2597  C 31.8699 12.2597  32.9127 12.5714  32.9127 12.5714  C 32.9127 12.5714  33.4542 13.5234  33.4542 13.5234  C 33.4542 13.5234  35.0959 14.8261  35.0959 14.8261  C 35.0959 14.8261  35.0383 15.4385  35.0383 15.4385  C 35.0383 15.4385  35.7008 15.8672  35.7008 15.8672  C 35.7008 15.8672  35.6086 17.0754  35.6086 17.0754  C 35.6086 17.0754  36.4151000000001 17.7604  36.4151000000001 17.7604  C 36.4151000000001 17.7604  37.6306 17.8049  37.6306 17.8049  C 37.6306 17.8049  38.6848 19.2361  38.6848 19.2361  C 38.6848 19.2361  39.1572 19.1414  39.1572 19.1414  C 39.1572 19.1414  40.004 17.5209  40.004 17.5209  C 40.004 17.5209  40.8508 17.404  40.8508 17.404  C 40.8508 17.404  42.0259 20.9515  42.0259 20.9515  C 42.0259 20.9515  42.7403 22.0655  42.7403 22.0655  C 42.7403 22.0655  43.5756 24.7117  43.5756 24.7117  C 43.5756 24.7117  44.912 23.3969  44.912 23.3969  C 44.912 23.3969  46.9225 22.6671  46.9225 22.6671  C 46.9225 22.6671  50.3904 22.8733  50.3904 22.8733  C 50.3904 22.8733  52.9977 24.5946  52.9977 24.5946  C 52.9977 24.5946  53.0322 26.5614  53.0322 26.5614  C 53.0322 26.5614  53.8732 26.411  53.8732 26.411  C 53.8732 26.411  55.4171 26.7119  55.4171 26.7119  C 55.4171 26.7119  55.8664 26.3442  55.8664 26.3442  C 55.8664 26.3442  55.515 24.6949  55.515 24.6949  C 55.515 24.6949  55.4286 21.7814  55.4286 21.7814  C 55.4286 21.7814  55.0945 20.7342  55.0945 20.7342  C 55.0945 20.7342  55.1579 19.4867  55.1579 19.4867  C 55.1579 19.4867  57.1165 17.4095  57.1165 17.4095  C 57.1165 17.4095  58.2166999999999 15.6055  58.2166999999999 15.6055  C 58.2166999999999 15.6055  58.1419 13.579  58.1419 13.579  C 58.1419 13.579  57.2374 13.4288  57.2374 13.4288  C 57.2374 13.4288  57.5889 12.026  57.5889 12.026  C 57.5889 12.026  58.6949 10.7903  58.6949 10.7903  C 58.6949 10.7903  58.9657 12.2041  58.9657 12.2041  C 58.9657 12.2041  60.0372 11.564  60.0372 11.564  C 60.0372 11.564  59.5648 10.9518  59.5648 10.9518  C 59.5648 10.9518  60.2963999999999 8.4975  60.2963999999999 8.4975  C 60.2963999999999 8.4975  60.9761 8.23599999999999  60.9761 8.23599999999999  C 60.9761 8.23599999999999  61.2527 8.89260000000002  61.2527 8.89260000000002  C 61.2527 8.89260000000002  61.8978 8.48079999999999  61.8978 8.48079999999999  C 61.8978 8.48079999999999  62.9808 9.09300000000002  62.9808 9.09300000000002  C 62.9808 9.09300000000002  64.3288 8.56990000000002  64.3288 8.56990000000002  C 64.3288 8.56990000000002  65.4982 7.17309999999998  65.4982 7.17309999999998  C 65.4982 7.17309999999998  66.5524 7.03960000000001  66.5524 7.03960000000001  C 66.5524 7.03960000000001  67.3013 8.3417  67.3013 8.3417  C 67.3013 8.3417  68.6896 7.85759999999999  68.6896 7.85759999999999  C 68.6896 7.85759999999999  70.7807 6.1884  70.7807 6.1884  C 70.7807 6.1884  72.7336 6.67239999999998  72.7336 6.67239999999998  C 72.7336 6.67239999999998  73.2232 6.19389999999999  73.2232 6.19389999999999  C 73.2232 6.19389999999999  73.1541 4.7808  73.1541 4.7808  C 73.1541 4.7808  73.4364 4.10770000000002  73.4364 4.10770000000002  C 73.4364 4.10770000000002  74.7152 3.28989999999999  74.7152 3.28989999999999  C 74.7152 3.28989999999999  74.9111 2.06619999999998  74.9111 2.06619999999998  C 74.9111 2.06619999999998  76.8869999999999 0.581200000000024  76.8869999999999 0.581200000000024  C 76.8869999999999 0.581200000000024  77.7799 2.34989999999999  77.7799 2.34989999999999  C 77.7799 2.34989999999999  79.2488 2.29430000000002  79.2488 2.29430000000002  C 79.2488 2.29430000000002  80.2224 3.38999999999999  80.2224 3.38999999999999  C 80.2224 3.38999999999999  81.0865 2.86720000000003  81.0865 2.86720000000003  C 81.0865 2.86720000000003  81.7778 1.03730000000002  81.7778 1.03730000000002  C 81.7778 1.03730000000002  82.7166999999999 1.0206  82.7166999999999 1.0206  C 82.7166999999999 1.0206  85.3896999999999 1.59350000000001  85.3896999999999 1.59350000000001  C 85.3896999999999 1.59350000000001  85.9945 2.22190000000001  85.9945 2.22190000000001  C 85.9945 2.22190000000001  85.7929 3.09530000000001  85.7929 3.09530000000001  C 85.7929 3.09530000000001  86.0119 4.33019999999999  86.0119 4.33019999999999  C 86.0119 4.33019999999999  87.0891 4.3913  87.0891 4.3913  C 87.0891 4.3913  86.8011 5.86009999999999  86.8011 5.86009999999999  C 86.8011 5.86009999999999  87.4462 6.91719999999998  87.4462 6.91719999999998  C 87.4462 6.91719999999998  89.2378 7.34010000000001  89.2378 7.34010000000001  C 89.2378 7.34010000000001  89.3012 9.05959999999999  89.3012 9.05959999999999  C 89.3012 9.05959999999999  90.3151 9.17090000000002  90.3151 9.17090000000002  C 90.3151 9.17090000000002  91.4614 7.56259999999998  91.4614 7.56259999999998  C 91.4614 7.56259999999998  92.2448000000001 8.7201  92.2448000000001 8.7201  C 92.2448000000001 8.7201  91.8646 9.5437  91.8646 9.5437  C 91.8646 9.5437  92.8439 11.2022  92.8439 11.2022  C 92.8439 11.2022  92.3024 12.3488  92.3024 12.3488  C 92.3024 12.3488  92.7345 13.078  92.7345 13.078  C 92.7345 13.078  92.2161 14.3361  92.2161 14.3361  C 92.2161 14.3361  92.5329 16.3627  92.5329 16.3627  C 92.5329 16.3627  93.4892 17.0588  93.4892 17.0588  C 93.4892 17.0588  93.3566 18.0499  93.3566 18.0499  C 93.3566 18.0499  91.8704 18.1724  91.8704 18.1724  C 91.8704 18.1724  90.4072 21.0684  90.4072 21.0684  C 90.4072 21.0684  90.9545000000001 22.2271  90.9545000000001 22.2271  C 90.9545000000001 22.2271  90.3726 22.8064  90.3726 22.8064  C 90.3726 22.8064  90.701 23.3635  90.701 23.3635  C 90.701 23.3635  90.5857999999999 24.7117  90.5857999999999 24.7117  C 90.5857999999999 24.7117  92.3887999999999 28.2443  92.3887999999999 28.2443  C 92.3887999999999 28.2443  93.6446999999999 28.8351  93.6446999999999 28.8351  C 93.6446999999999 28.8351  95.0042 27.3638  95.0042 27.3638  C 95.0042 27.3638  95.9778 27.8821  95.9778 27.8821  C 95.9778 27.8821  96.1448 28.8351  96.1448 28.8351  C 96.1448 28.8351  95.6781 30.8916  95.6781 30.8916  C 95.6781 30.8916  93.9615 36.2436  93.9615 36.2436  C 93.9615 36.2436  93.8809 37.0298  93.8809 37.0298  C 93.8809 37.0298  95.2749 39.3833  95.2749 39.3833  C 95.2749 39.3833  94.9465 40.7275  94.9465 40.7275  C 94.9465 40.7275  95.3556 41.4024  95.3556 41.4024  C 95.3556 41.4024  97.2451 42.0941  97.2451 42.0941  C 97.2451 42.0941  98.3280999999999 42.9364  98.3280999999999 42.9364  C 98.3280999999999 42.9364  99.2843 42.624  99.2843 42.624  C 99.2843 42.624  100.0851 43.2377  100.0851 43.2377  C 100.0851 43.2377  102.6659 49.4819  102.6659 49.4819  C 102.6659 49.4819  102.2338 50.6093  102.2338 50.6093  C 102.2338 50.6093  102.3086 51.4522  102.3086 51.4522  C 102.3086 51.4522  103.2592 52.3231  103.2592 52.3231  C 103.2592 52.3231  103.4147 54.4948  103.4147 54.4948  C 103.4147 54.4948  102.6082 55.3491  102.6082 55.3491  C 102.6082 55.3491  101.8823 55.4385  101.8823 55.4385  C 101.8823 55.4385  100.6381 54.9248  100.6381 54.9248  C 100.6381 54.9248  100.0735 55.4776  100.0735 55.4776  C 100.0735 55.4776  98.5182 55.2096  98.5182 55.2096  C 98.5182 55.2096  97.1702 55.9019  97.1702 55.9019  C 97.1702 55.9019  96.5768 56.6447  96.5768 56.6447  C 96.5768 56.6447  96.4443 57.8342  96.4443 57.8342  C 96.4443 57.8342  95.9432 58.0407  95.9432 58.0407  C 95.9432 58.0407  95.5169 56.5776  95.5169 56.5776  C 95.5169 56.5776  94.3878 55.1649  94.3878 55.1649  C 94.3878 55.1649  92.9937 55.6283  92.9937 55.6283  C 92.9937 55.6283  93.3163 57.1249  93.3163 57.1249  C 93.3163 57.1249  93.0916 57.7671  93.0916 57.7671  C 93.0916 57.7671  92.072 58.253  92.072 58.253  C 92.072 58.253  92.7402 58.8953  92.7402 58.8953  C 92.7402 58.8953  92.5501 60.0626  92.5501 60.0626  C 92.5501 60.0626  93.034 62.0848  93.034 62.0848  C 93.034 62.0848  92.2563 62.0568  92.2563 62.0568  C 92.2563 62.0568  91.496 63.8948  91.496 63.8948  C 91.496 63.8948  91.4556 64.9173  91.4556 64.9173  C 91.4556 64.9173  92.049 66.1914  92.049 66.1914  C 92.049 66.1914  91.5651 67.3817  91.5651 67.3817  C 91.5651 67.3817  90.3955999999999 67.6947  90.3955999999999 67.6947  C 90.3955999999999 67.6947  88.823 67.1637  88.823 67.1637  C 88.823 67.1637  88.3104 66.3534  88.3104 66.3534  C 88.3104 66.3534  87.5499 66.0238  87.5499 66.0238  C 87.5499 66.0238  87.187 66.4652  87.187 66.4652  C 87.187 66.4652  87.8783 68.0411  87.8783 68.0411  C 87.8783 68.0411  87.9474 68.9969  87.9474 68.9969  C 87.9474 68.9969  88.944 69.1869  88.944 69.1869  C 88.944 69.1869  89.4452 70.0868  89.4452 70.0868  C 89.4452 70.0868  89.497 72.1439  89.497 72.1439  C 89.497 72.1439  88.9555 73.3292  88.9555 73.3292  C 88.9555 73.3292  89.3703 74.33  89.3703 74.33  C 89.3703 74.33  89.3069 77.9358  89.3069 77.9358  C 89.3069 77.9358  90.2344000000001 78.92  90.2344000000001 78.92  C 90.2344000000001 78.92  90.6607 78.2657  90.6607 78.2657  C 90.6607 78.2657  91.5593 78.702  91.5593 78.702  C 91.5593 78.702  92.2276000000001 80.4414  92.2276000000001 80.4414  C 92.2276000000001 80.4414  92.1757 81.9572  92.1757 81.9572  C 92.1757 81.9572  93.011 82.4608  93.011 82.4608  C 93.011 82.4608  93.9788 84.2118  93.9788 84.2118  C 93.9788 84.2118  93.9327 85.4092  93.9327 85.4092  C 93.9327 85.4092  94.912 85.5043  94.912 85.5043  C 94.912 85.5043  95.2231 86.3044  95.2231 86.3044  C 95.2231 86.3044  94.8314 86.8976  94.8314 86.8976  C 94.8314 86.8976  92.8785 87.5132  92.8785 87.5132  C 92.8785 87.5132  91.3807 86.7857  91.3807 86.7857  C 91.3807 86.7857  90.3496 85.4036  90.3496 85.4036  C 90.3496 85.4036  90.0213 85.5547  90.0213 85.5547  C 90.0213 85.5547  89.2666 87.3565  89.2666 87.3565  C 89.2666 87.3565  88.0914 87.7538  88.0914 87.7538  C 88.0914 87.7538  88.0166 89.1753  88.0166 89.1753  C 88.0166 89.1753  87.3771 90.1492  87.3771 90.1492  C 87.3771 90.1492  85.7583 90.4739  85.7583 90.4739  C 85.7583 90.4739  85.0152000000001 91.0224  85.0152000000001 91.0224  C 85.0152000000001 91.0224  84.4161 92.7298  84.4161 92.7298  C 84.4161 92.7298  84.8655 94.275  84.8655 94.275  C 84.8655 94.275  85.7641 94.7117  85.7641 94.7117  C 85.7641 94.7117  86.5649 96.2123  86.5649 96.2123  C 86.5649 96.2123  86.8356 97.8082  86.8356 97.8082  C 86.8356 97.8082  86.2019 97.797  86.2019 97.797  C 86.2019 97.797  85.7987000000001 98.5755  85.7987000000001 98.5755  C 85.7987000000001 98.5755  85.2687 98.3235  85.2687 98.3235  C 85.2687 98.3235  84.8885 99.1524  84.8885 99.1524  C 84.8885 99.1524  83.0681 100.1886  83.0681 100.1886  C 83.0681 100.1886  82.4402 99.3036  82.4402 99.3036  C 82.4402 99.3036  81.3227000000001 99.4996  81.3227000000001 99.4996  C 81.3227000000001 99.4996  80.7524 98.7435  80.7524 98.7435  C 80.7524 98.7435  81.0519 96.7331  81.0519 96.7331  C 81.0519 96.7331  79.7557 96.5539  79.7557 96.5539  C 79.7557 96.5539  77.8663 95.4116  77.8663 95.4116  C 77.8663 95.4116  75.516 98.6427  75.516 98.6427  C 75.516 98.6427  75.6023 99.4269  75.6023 99.4269  C 75.6023 99.4269  75.0493 100.0205  75.0493 100.0205  C 75.0493 100.0205  73.5919 100.8048  73.5919 100.8048  C 73.5919 100.8048  72.4974 100.6423  72.4974 100.6423  C 72.4974 100.6423  72.0481 100.0765  72.0481 100.0765  C 72.0481 100.0765  72.5492 99.578  72.5492 99.578  C 72.5492 99.578  70.2911 97.2147  70.2911 97.2147  C 70.2911 97.2147  69.7784 95.8428  69.7784 95.8428  C 69.7784 95.8428  68.0617 94.4261  68.0617 94.4261  C 68.0617 94.4261  67.1112000000001 94.135  67.1112000000001 94.135  C 67.1112000000001 94.135  66.4776000000001 94.7844  66.4776000000001 94.7844  C 66.4776000000001 94.7844  66.5351000000001 96.0387  66.5351000000001 96.0387  C 66.5351000000001 96.0387  65.6768 96.3243  65.6768 96.3243  C 65.6768 96.3243  65.0546000000001 97.1418  65.0546000000001 97.1418  C 65.0546000000001 97.1418  65.239 98.0322  65.239 98.0322  C 65.239 98.0322  64.3 98.6651  64.3 98.6651  C 64.3 98.6651  62.5948 97.1251  62.5948 97.1251  C 62.5948 97.1251  62.5776 96.4363  62.5776 96.4363  C 62.5776 96.4363  61.8344 95.4731  61.8344 95.4731  C 61.8344 95.4731  61.3851 96.6827  61.3851 96.6827  C 61.3851 96.6827  60.7918 97.041  60.7918 97.041  C 60.7918 97.041  60.7975 98.0434  60.7975 98.0434  C 60.7975 98.0434  60.1351 98.6427  60.1351 98.6427  C 60.1351 98.6427  60.1754 99.8637  60.1754 99.8637  C 60.1754 99.8637  60.763 100.2446  60.763 100.2446  C 60.763 100.2446  62.0015 101.7906  62.0015 101.7906  C 62.0015 101.7906  62.7735 101.9026  62.7735 101.9026  C 62.7735 101.9026  63.0499 102.5917  63.0499 102.5917  C 63.0499 102.5917  63.1363 105.2698  63.1363 105.2698  C 63.1363 105.2698  62.0073 105.449  62.0073 105.449  C 62.0073 105.449  62.5603 106.6202  62.5603 106.6202  C 62.5603 106.6202  62.2030999999999 110.7732  62.2030999999999 110.7732  C 62.2030999999999 110.7732  61.9382000000001 112.0737  61.9382000000001 112.0737  C 61.9382000000001 112.0737  63.0096 114.6414  63.0096 114.6414  C 63.0096 114.6414  62.4278 114.49  62.4278 114.49  C 62.4278 114.49  62.6409 116.4357  62.6409 116.4357  C 62.6409 116.4357  62.1743 117.6133  62.1743 117.6133  C 62.1743 117.6133  63.9716 118.4881  63.9716 118.4881  C 63.9716 118.4881  65.0719 120.2661  65.0719 120.2661  C 65.0719 120.2661  63.6952 121.8312  63.6952 121.8312  C 63.6952 121.8312  64.6341 122.3024  64.6341 122.3024  C 64.6341 122.3024  65.5328 124.6756  65.5328 124.6756  C 65.5328 124.6756  64.9913 124.8831  64.9913 124.8831  C 64.9913 124.8831  65.1007 125.9605  65.1007 125.9605  C 65.1007 125.9605  63.3207 126.4319  63.3207 126.4319  C 63.3207 126.4319  61.846 126.241  61.846 126.241  C 61.846 126.241  60.9876 126.5497  60.9876 126.5497  C 60.9876 126.5497  59.9737 126.0502  59.9737 126.0502  C 59.9737 126.0502  59.0751 124.6587  59.0751 124.6587  C 59.0751 124.6587  57.4333 123.5086  57.4333 123.5086  C 57.4333 123.5086  56.9321 126.1064  56.9321 126.1064  C 56.9321 126.1064  56.1084 125.837  56.1084 125.837  C 56.1084 125.837  54.9965 127.296  54.9965 127.296  C 54.9965 127.296  53.0495 127.4588  53.0495 127.4588  C 53.0495 127.4588  50.3616 126.6339  50.3616 126.6339  C 50.3616 126.6339  50.5056 126.0222  50.5056 126.0222  C 50.5056 126.0222  49.342 125.3488  49.342 125.3488  C 49.342 125.3488  48.547 125.9605  48.547 125.9605  C 48.547 125.9605  48.2532 125.3601  48.2532 125.3601  C 48.2532 125.3601  46.6518 125.9044  46.6518 125.9044  C 46.6518 125.9044  45.8741 125.6182  45.8741 125.6182  C 45.8741 125.6182  44.9983999999999 127.1109  44.9983999999999 127.1109  C 44.9983999999999 127.1109  44.5606 125.3376  44.5606 125.3376  C 44.5606 125.3376  43.5295 125.1525  43.5295 125.1525  C 43.5295 125.1525  43.1205 126.589  43.1205 126.589  C 43.1205 126.589  42.5733 127.0828  42.5733 127.0828  C 42.5733 127.0828  42.6309 128.2557  42.6309 128.2557  C 42.6309 128.2557  42.1527 128.3343  42.1527 128.3343  C 42.1527 128.3343  41.8128 126.7068  41.8128 126.7068  C 41.8128 126.7068  41.4269 126.965  41.4269 126.965  C 41.4269 126.965  40.6665 128.9067  40.6665 128.9067  C 40.6665 128.9067  38.5696 129.6813  38.5696 129.6813  C 38.5696 129.6813  37.3425 128.3511  37.3425 128.3511  C 37.3425 128.3511  36.0925 128.396  36.0925 128.396  C 36.0925 128.396  34.952 127.8348  34.952 127.8348  C 34.952 127.8348  34.8367 127.3241  34.8367 127.3241  C 34.8367 127.3241  33.4195999999999 127.4307  33.4195999999999 127.4307  C 33.4195999999999 127.4307  33.0567 128.2164  33.0567 128.2164  C 33.0567 128.2164  30.3319 130.9498  30.3319 130.9498  C 30.3319 130.9498  30.931 131.1519  30.931 131.1519  C 30.931 131.1519  30.3261 132.3532  30.3261 132.3532  C 30.3261 132.3532  30.4298 132.9594  30.4298 132.9594  C 30.4298 132.9594  29.6349 134.1216  29.6349 134.1216  C 29.6349 134.1216  29.9805 134.7279  29.9805 134.7279  C 29.9805 134.7279  29.583 135.5478  29.583 135.5478  C 29.583 135.5478  29.8077 136.7102  29.8077 136.7102  C 29.8077 136.7102  29.8019 138.8666  29.8019 138.8666  C 29.8019 138.8666  29.4505 140.4561  29.4505 140.4561  C 29.4505 140.4561  29.9863 141.557  29.9863 141.557  C 29.9863 141.557  28.6037 142.7312  28.6037 142.7312  C 28.6037 142.7312  28.8283 144.7593  28.8283 144.7593  C 28.8283 144.7593  28.0564000000001 144.9391  28.0564000000001 144.9391  C 28.0564000000001 144.9391  27.3076 146.1359  27.3076 146.1359  C 27.3076 146.1359  27.3076 147.0294  27.3076 147.0294  C 27.3076 147.0294  27.9642 147.1699  27.9642 147.1699  C 27.9642 147.1699  27.5841 147.9455  27.5841 147.9455  C 27.5841 147.9455  28.0852 148.6535  28.0852 148.6535  C 28.0852 148.6535  26.7661 150.587  26.7661 150.587  C 26.7661 150.587  25.5966 150.6769  25.5966 150.6769  C 25.5966 150.6769  24.9284 149.7326  24.9284 149.7326  C 24.9284 149.7326  24.1738 150.868  24.1738 150.868  C 24.1738 150.868  23.3558 150.5532  23.3558 150.5532  C 23.3558 150.5532  22.6991 151.7281  22.6991 151.7281  C 22.6991 151.7281  20.8384 151.7786  20.8384 151.7786  C 20.8384 151.7786  20.078 151.121  20.078 151.121  C 20.078 151.121  19.8706 152.6781  19.8706 152.6781  C 19.8706 152.6781  18.9604 152.5207  18.9604 152.5207  C 18.9604 152.5207  18.1654 151.7449  18.1654 151.7449  C 18.1654 151.7449  18.2691 150.9017  18.2691 150.9017  C 18.2691 150.9017  17.647 148.4793  17.647 148.4793  C 17.647 148.4793  16.7656 148.8446  16.7656 148.8446  C 16.7656 148.8446  16.155 148.8221  16.155 148.8221  C 16.155 148.8221  15.4349 150.2722  15.4349 150.2722  C 15.4349 150.2722  15.095 149.5752  15.095 149.5752  C 15.095 149.5752  14.421 149.5135  14.421 149.5135  C 14.421 149.5135  12.9578 148.5411  12.9578 148.5411  C 12.9578 148.5411  12.2665 149.5977  12.2665 149.5977  C 12.2665 149.5977  11.4888 148.7659  11.4888 148.7659  C 11.4888 148.7659  10.9243 146.9002  10.9243 146.9002  C 10.9243 146.9002  11.4946 145.2763  11.4946 145.2763  C 11.4946 145.2763  11.4716 142.6525  11.4716 142.6525  C 11.4716 142.6525  11.0223 142.5402  11.0223 142.5402  C 11.0223 142.5402  11.4773 139.1418  11.4773 139.1418  C 11.4773 139.1418  12.3702 135.3849  12.3702 135.3849  C 12.3702 135.3849  12.1283 134.4641  12.1283 134.4641  C 12.1283 134.4641  11.3276 134.0711  11.3276 134.0711  C 11.3276 134.0711  11.1778 133.0774  11.1778 133.0774  C 11.1778 133.0774  12.3241 131.7637  12.3241 131.7637  C 12.3241 131.7637  12.3299 130.7927  12.3299 130.7927  C 12.3299 130.7927  11.4024 129.2434  11.4024 129.2434  C 11.4024 129.2434  12.1456 128.0929  12.1456 128.0929  C 12.1456 128.0929  12.0303 126.2803  12.0303 126.2803  C 12.0303 126.2803  11.5292 125.0852  11.5292 125.0852  C 11.5292 125.0852  10.3598 125.7473  10.3598 125.7473  C 10.3598 125.7473  9.01170000000002 125.7921  9.01170000000002 125.7921  C 9.01170000000002 125.7921  7.32389999999998 124.4961  7.32389999999998 124.4961  C 7.32389999999998 124.4961  5.68209999999999 125.7305  5.68209999999999 125.7305  C 5.68209999999999 125.7305  4.76620000000003 124.4286  4.76620000000003 124.4286  C 4.76620000000003 124.4286  4.72590000000002 122.4539  4.72590000000002 122.4539  C 4.72590000000002 122.4539  3.79270000000002 123.43  3.79270000000002 123.43  C 3.79270000000002 123.43  3.8329 121.8985  3.8329 121.8985  C 3.8329 121.8985  4.22469999999998 121.2422  4.22469999999998 121.2422  C 4.22469999999998 121.2422  3.96550000000002 120.4905  3.96550000000002 120.4905  C 3.96550000000002 120.4905  3.24540000000002 120.2437  3.24540000000002 120.2437  C 3.24540000000002 120.2437  2.38130000000001 119.3127  2.38130000000001 119.3127  C 2.38130000000001 119.3127  2.243 118.2022  2.243 118.2022  C 2.243 118.2022  3.68889999999999 119.077  3.68889999999999 119.077  C 3.68889999999999 119.077  4.33420000000001 118.4153  4.33420000000001 118.4153  C 4.33420000000001 118.4153  3.76960000000002 114.0863  3.76960000000002 114.0863  C 3.76960000000002 114.0863  3.4701 112.836  3.4701 112.836  C 3.4701 112.836  2.62900000000002 111.3337  2.62900000000002 111.3337  C 2.62900000000002 111.3337  2.36399999999998 110.336  2.36399999999998 110.336  C 2.36399999999998 110.336  2.62900000000002 109.271  2.62900000000002 109.271  C 2.62900000000002 109.271  2.38709999999998 108.6265  2.38709999999998 108.6265  C 2.38709999999998 108.6265  0.837400000000002 107.0517  0.837400000000002 107.0517  C 0.837400000000002 107.0517  0.42270000000002 105.2642  0.42270000000002 105.2642  C 0.42270000000002 105.2642  0.405399999999986 102.9951  0.405399999999986 102.9951  C 0.405399999999986 102.9951  1.05059999999997 98.5307  1.05059999999997 98.5307  C 1.05059999999997 98.5307  1.89170000000001 96.6547  1.89170000000001 96.6547  C 1.89170000000001 96.6547  3.36059999999998 94.7117  3.36059999999998 94.7117  C 3.36059999999998 94.7117  3.19929999999999 92.8809  3.19929999999999 92.8809  C 3.19929999999999 92.8809  2.53680000000003 91.8621  2.53680000000003 91.8621  C 2.53680000000003 91.8621  2.5598 90.0821  2.5598 90.0821  C 2.5598 90.0821  3.67739999999998 85.9799  3.67739999999998 85.9799  C 3.67739999999998 85.9799  4.79500000000002 84.6818  4.79500000000002 84.6818  C 4.79500000000002 84.6818  6.19479999999999 84.0999  6.19479999999999 84.0999  C 6.19479999999999 84.0999  7.35849999999999 83.1264  7.35849999999999 83.1264  C 7.35849999999999 83.1264  7.83659999999998 83.1824  7.83659999999998 83.1824  C 7.83659999999998 83.1824  9.80099999999999 85.2469  9.80099999999999 85.2469  C 9.80099999999999 85.2469  10.2273 84.9448  10.2273 84.9448  C 10.2273 84.9448  8.90230000000003 83.1264  8.90230000000003 83.1264  C 8.90230000000003 83.1264  9.81830000000002 80.9392  9.81830000000002 80.9392  C 9.81830000000002 80.9392  10.4923 81.7223  10.4923 81.7223  C 10.4923 81.7223  10.8148 80.3127  10.8148 80.3127  C 10.8148 80.3127  11.5061 80.5532  11.5061 80.5532  C 11.5061 80.5532  12.5142 79.0766  12.5142 79.0766  C 12.5142 79.0766  13.8795 79.1885  13.8795 79.1885  C 13.8795 79.1885  13.8104 77.4716  13.8104 77.4716  C 13.8104 77.4716  14.2943 75.8397  14.2943 75.8397  C 14.2943 75.8397  14.7724 77.9861  14.7724 77.9861  C 14.7724 77.9861  15.4061 78.5566  15.4061 78.5566  C 15.4061 78.5566  14.9682 79.2109  14.9682 79.2109  C 14.9682 79.2109  15.337 79.9771  15.337 79.9771  C 15.337 79.9771  16.0513 80.2065  16.0513 80.2065  C 16.0513 80.2065  16.6907 81.3476  16.6907 81.3476  C 16.6907 81.3476  18.3382 82.0244  18.3382 82.0244  C 18.3382 82.0244  19.7208 83.6244  19.7208 83.6244  C 19.7208 83.6244  20.4639 83.9936  20.4639 83.9936  C 20.4639 83.9936  22.388 83.2159  22.388 83.2159  C 22.388 83.2159  22.7452 82.4999  22.7452 82.4999  C 22.7452 82.4999  22.7106 80.1617  22.7106 80.1617  C 22.7106 80.1617  23.1426 78.5845  23.1426 78.5845  C 23.1426 78.5845  23.7763 77.7792  23.7763 77.7792  C 23.7763 77.7792  23.6668 75.3868  23.6668 75.3868  C 23.6668 75.3868  22.8603000000001 74.2069  22.8603000000001 74.2069  C 22.8603000000001 74.2069  22.4915999999999 72.8371  22.4915999999999 72.8371  C 22.4915999999999 72.8371  21.5008 71.4004  21.5008 71.4004  C 21.5008 71.4004  20.3602 70.629  20.3602 70.629  C 20.3602 70.629  20.1356 69.7514  20.1356 69.7514  C 20.1356 69.7514  20.752 68.4547  20.752 68.4547  C 20.752 68.4547  22.2094 66.6943  22.2094 66.6943  C 22.2094 66.6943  23.0331 64.733  23.0331 64.733  C 23.0331 64.733  23.6609999999999 64.0122  23.6609999999999 64.0122  C 23.6609999999999 64.0122  23.6784 63.1407  23.6784 63.1407  C 23.6784 63.1407  24.5022 63.0513  24.5022 63.0513  C 24.5022 63.0513  24.6922 62.1853  24.6922 62.1853  C 24.6922 62.1853  24.1277 62.0401  24.1277 62.0401  C 24.1277 62.0401  24.1738 60.8614  24.1738 60.8614  C 24.1738 60.8614  23.494 59.6548  23.494 59.6548  C 23.494 59.6548  23.6840999999999 58.1246  23.6840999999999 58.1246  C 23.6840999999999 58.1246  22.7221 57.3873  22.7221 57.3873  C 22.7221 57.3873  22.3534 56.5162  22.3534 56.5162  C 22.3534 56.5162  20.919 56.142  20.919 56.142  C 20.919 56.142  18.8279 55.2431  18.8279 55.2431  C 18.8279 55.2431  17.6066 55.0029  17.6066 55.0029  C 17.6066 55.0029  16.5064 55.2989  16.5064 55.2989  C 16.5064 55.2989  16.5064 58.0129  16.5064 58.0129  C 16.5064 58.0129  15.7517 57.2644  15.7517 57.2644  C 15.7517 57.2644  14.9625 58.1636  14.9625 58.1636  C 14.9625 58.1636  13.747 57.5828  13.747 57.5828  C 13.747 57.5828  13.1076 57.6498  13.1076 57.6498  C 13.1076 57.6498  13.3208 55.8963  13.3208 55.8963  C 13.3208 55.8963  12.3472 54.7628  12.3472 54.7628  C 12.3472 54.7628  10.0371 53.2889  10.0371 53.2889  C 10.0371 53.2889  8.94839999999999 51.134  8.94839999999999 51.134  C 8.94839999999999 51.134  8.7122 47.6234  8.7122 47.6234  Z " stroke-width="2" stroke="#666666" fill="none" transform="matrix(1 0 0 1 536 482 )" mask="url(#clip141)" />
  </g>
</svg>