<?xml version="1.0" encoding="utf-8"?>
<svg version="1.1" xmlns:xlink="http://www.w3.org/1999/xlink" width="115px" height="153px" xmlns="http://www.w3.org/2000/svg">
  <defs>
    <mask fill="white" id="clip143">
      <path d="M 84.4243 134.0795  C 84.4243 134.0795  83.6985 134.2399  83.6985 134.2399  C 83.6985 134.2399  83.4392 131.4521  83.4392 131.4521  C 83.4392 131.4521  84.0153 130.2687  84.0153 130.2687  C 84.0153 130.2687  83.9519 128.9692  83.9519 128.9692  C 83.9519 128.9692  83.324 127.2054  83.324 127.2054  C 83.324 127.2054  83.4853000000001 124.5685  83.4853000000001 124.5685  C 83.4853000000001 124.5685  83.2779 122.9489  83.2779 122.9489  C 83.2779 122.9489  82.4426 121.3185  82.4426 121.3185  C 82.4426 121.3185  81.3136 120.2355  81.3136 120.2355  C 81.3136 120.2355  80.0116 120.1028  80.0116 120.1028  C 80.0116 120.1028  78.8768 118.0695  78.8768 118.0695  C 78.8768 118.0695  77.8053 117.3513  77.8053 117.3513  C 77.8053 117.3513  76.8951 117.5392  76.8951 117.5392  C 76.8951 117.5392  76.6013 118.0805  76.6013 118.0805  C 76.6013 118.0805  75.3859 117.5005  75.3859 117.5005  C 75.3859 117.5005  75.6508 116.7878  75.6508 116.7878  C 75.6508 116.7878  74.8904 114.7218  74.8904 114.7218  C 74.8904 114.7218  74.6543 113.0373  74.6543 113.0373  C 74.6543 113.0373  74.9826 111.6678  74.9826 111.6678  C 74.9826 111.6678  78.3526000000001 108.4708  78.3526000000001 108.4708  C 78.3526000000001 108.4708  78.4160000000001 107.9408  78.4160000000001 107.9408  C 78.4160000000001 107.9408  77.5288 106.5552  77.5288 106.5552  C 77.5288 106.5552  77.9204999999999 105.7217  77.9204999999999 105.7217  C 77.9204999999999 105.7217  77.5115 104.9103  77.5115 104.9103  C 77.5115 104.9103  77.6728000000001 102.9512  77.6728000000001 102.9512  C 77.6728000000001 102.9512  75.9561 103.2767  75.9561 103.2767  C 75.9561 103.2767  75.0748 102.2669  75.0748 102.2669  C 75.0748 102.2669  74.2222 102.1841  74.2222 102.1841  C 74.2222 102.1841  73.9054 101.2571  73.9054 101.2571  C 73.9054 101.2571  72.9434 100.5288  72.9434 100.5288  C 72.9434 100.5288  72.0447 100.9592  72.0447 100.9592  C 72.0447 100.9592  71.4512999999999 102.0848  71.4512999999999 102.0848  C 71.4512999999999 102.0848  71.2785 103.2547  71.2785 103.2547  C 71.2785 103.2547  72.1079999999999 103.5196  72.1079999999999 103.5196  C 72.1079999999999 103.5196  72.1023 104.2591  72.1023 104.2591  C 72.1023 104.2591  71.0596 104.0936  71.0596 104.0936  C 71.0596 104.0936  70.472 105.9591  70.472 105.9591  C 70.472 105.9591  70.9502 107.6758  70.9502 107.6758  C 70.9502 107.6758  69.5676 108.9125  69.5676 108.9125  C 69.5676 108.9125  68.0525 108.2665  68.0525 108.2665  C 68.0525 108.2665  66.2898 109.8621  66.2898 109.8621  C 66.2898 109.8621  64.6941 109.2271  64.6941 109.2271  C 64.6941 109.2271  64.1527 109.8124  64.1527 109.8124  C 64.1527 109.8124  64.7344000000001 111.8334  64.7344000000001 111.8334  C 64.7344000000001 111.8334  64.6481 113.2085  64.6481 113.2085  C 64.6481 113.2085  64.0259 114.28  64.0259 114.28  C 64.0259 114.28  63.7206 115.4841  63.7206 115.4841  C 63.7206 115.4841  64.2275 116.8209  64.2275 116.8209  C 64.2275 116.8209  64.9534 117.6773  64.9534 117.6773  C 64.9534 117.6773  65.3854 120.0642  65.3854 120.0642  C 65.3854 120.0642  65.3623 122.4239  65.3623 122.4239  C 65.3623 122.4239  64.6538 125.1212  64.6538 125.1212  C 64.6538 125.1212  61.7735 129.2734  61.7735 129.2734  C 61.7735 129.2734  61.8714 130.9876  61.8714 130.9876  C 61.8714 130.9876  61.3011 131.0706  61.3011 131.0706  C 61.3011 131.0706  60.5349 130.3019  60.5349 130.3019  C 60.5349 130.3019  58.6281 130.8383  58.6281 130.8383  C 58.6281 130.8383  56.1534 130.6116  56.1534 130.6116  C 56.1534 130.6116  54.8573 129.1185  54.8573 129.1185  C 54.8573 129.1185  53.7455 128.831  53.7455 128.831  C 53.7455 128.831  51.7696 129.2235  51.7696 129.2235  C 51.7696 129.2235  50.8134 128.6761  50.8134 128.6761  C 50.8134 128.6761  50.7673 127.2883  50.7673 127.2883  C 50.7673 127.2883  50.364 125.558  50.364 125.558  C 50.364 125.558  48.8547 123.3082  48.8547 123.3082  C 48.8547 123.3082  47.8869 123.5071  47.8869 123.5071  C 47.8869 123.5071  45.3407999999999 123.0539  45.3407999999999 123.0539  C 45.3407999999999 123.0539  44.5976000000001 123.6896  44.5976000000001 123.6896  C 44.5976000000001 123.6896  43.6759 127.5869  43.6759 127.5869  C 43.6759 127.5869  43.1978 128.6651  43.1978 128.6651  C 43.1978 128.6651  41.1067 129.7267  41.1067 129.7267  C 41.1067 129.7267  40.8244 132.1104  40.8244 132.1104  C 40.8244 132.1104  40.1677 133.8803  40.1677 133.8803  C 40.1677 133.8803  39.2921 134.7432  39.2921 134.7432  C 39.2921 134.7432  37.6503 134.7101  37.6503 134.7101  C 37.6503 134.7101  37.0166 136.2425  37.0166 136.2425  C 37.0166 136.2425  35.9624 137.0503  35.9624 137.0503  C 35.9624 137.0503  34.4877 136.0987  34.4877 136.0987  C 34.4877 136.0987  34.1421 136.4583  34.1421 136.4583  C 34.1421 136.4583  34.3321 138.4668  34.3321 138.4668  C 34.3321 138.4668  35.0868 139.8115  35.0868 139.8115  C 35.0868 139.8115  34.2227 141.721  34.2227 141.721  C 34.2227 141.721  33.5429 141.9147  33.5429 141.9147  C 33.5429 141.9147  32.3044 140.7412  32.3044 140.7412  C 32.3044 140.7412  31.5728 141.3335  31.5728 141.3335  C 31.5728 141.3335  31.5497 143.5752  31.5497 143.5752  C 31.5497 143.5752  31.3309 144.4832  31.3309 144.4832  C 31.3309 144.4832  31.8033 145.4741  31.8033 145.4741  C 31.8033 145.4741  30.5244 145.0368  30.5244 145.0368  C 30.5244 145.0368  29.9138 145.5627  29.9138 145.5627  C 29.9138 145.5627  29.7352 146.9193  29.7352 146.9193  C 29.7352 146.9193  30.1385 147.8218  30.1385 147.8218  C 30.1385 147.8218  29.8907 148.874  29.8907 148.874  C 29.8907 148.874  30.749 150.5853  30.749 150.5853  C 30.749 150.5853  30.726 151.4217  30.726 151.4217  C 30.726 151.4217  29.643 152.5572  29.643 152.5572  C 29.643 152.5572  29.5105 150.9619  29.5105 150.9619  C 29.5105 150.9619  28.848 150.7514  28.848 150.7514  C 28.848 150.7514  27.8801999999999 151.7319  27.8801999999999 151.7319  C 27.8801999999999 151.7319  27.2984 151.3275  27.2984 151.3275  C 27.2984 151.3275  27.2811 150.4635  27.2811 150.4635  C 27.2811 150.4635  26.636 149.2173  26.636 149.2173  C 26.636 149.2173  25.6336 148.9848  25.6336 148.9848  C 25.6336 148.9848  24.9712 147.2958  24.9712 147.2958  C 24.9712 147.2958  25.3859 143.138  25.3859 143.138  C 25.3859 143.138  25.3570999999999 142.3962  25.3570999999999 142.3962  C 25.3570999999999 142.3962  24.4181 141.3501  24.4181 141.3501  C 24.4181 141.3501  24.3662 140.5642  24.3662 140.5642  C 24.3662 140.5642  25.2649 139.0202  25.2649 139.0202  C 25.2649 139.0202  24.7234999999999 137.3049  24.7234999999999 137.3049  C 24.7234999999999 137.3049  24.8098 135.9161  24.8098 135.9161  C 24.8098 135.9161  24.1128 135.562  24.1128 135.562  C 24.1128 135.562  22.4076 136.7958  22.4076 136.7958  C 22.4076 136.7958  21.8143 135.1194  21.8143 135.1194  C 21.8143 135.1194  21.0481 133.8637  21.0481 133.8637  C 21.0481 133.8637  21.3304000000001 133.3327  21.3304000000001 133.3327  C 21.3304000000001 133.3327  23.0586 132.149  23.0586 132.149  C 23.0586 132.149  23.5079 130.2134  23.5079 130.2134  C 23.5079 130.2134  22.3097 128.0735  22.3097 128.0735  C 22.3097 128.0735  20.7256 127.5702  20.7256 127.5702  C 20.7256 127.5702  19.389 126.6746  19.389 126.6746  C 19.389 126.6746  17.465 123.369  17.465 123.369  C 17.465 123.369  16.4742 122.5952  16.4742 122.5952  C 16.4742 122.5952  14.4003 122.7057  14.4003 122.7057  C 14.4003 122.7057  13.0812 122.3465  13.0812 122.3465  C 13.0812 122.3465  12.3841 122.9489  12.3841 122.9489  C 12.3841 122.9489  11.7793 121.9044  11.7793 121.9044  C 11.7793 121.9044  12.4648 120.2962  12.4648 120.2962  C 12.4648 120.2962  12.8738 118.4729  12.8738 118.4729  C 12.8738 118.4729  12.8105 117.2132  12.8105 117.2132  C 12.8105 117.2132  13.6112000000001 116.3127  13.6112000000001 116.3127  C 13.6112000000001 116.3127  14.1872 116.2132  14.1872 116.2132  C 14.1872 116.2132  13.8704 115.1969  13.8704 115.1969  C 13.8704 115.1969  12.6261 114.5561  12.6261 114.5561  C 12.6261 114.5561  9.68240000000003 113.5178  9.68240000000003 113.5178  C 9.68240000000003 113.5178  8.69159999999999 111.4634  8.69159999999999 111.4634  C 8.69159999999999 111.4634  9.26760000000002 109.5253  9.26760000000002 109.5253  C 9.26760000000002 109.5253  9.67089999999996 107.3722  9.67089999999996 107.3722  C 9.67089999999996 107.3722  9.40589999999997 105.225  9.40589999999997 105.225  C 9.40589999999997 105.225  10.535 102.5152  10.535 102.5152  C 10.535 102.5152  11.1455999999999 102.0683  11.1455999999999 102.0683  C 11.1455999999999 102.0683  11.9578 100.4957  11.9578 100.4957  C 11.9578 100.4957  11.3876 99.1385  11.3876 99.1385  C 11.3876 99.1385  9.63059999999996 98.4709  9.63059999999996 98.4709  C 9.63059999999996 98.4709  8.42079999999999 96.0329  8.42079999999999 96.0329  C 8.42079999999999 96.0329  6.84820000000002 95.4869  6.84820000000002 95.4869  C 6.84820000000002 95.4869  4.88379999999995 94.1247  4.88379999999995 94.1247  C 4.88379999999995 94.1247  4.18679999999995 91.7866  4.18679999999995 91.7866  C 4.18679999999995 91.7866  3.29390000000001 90.8329  3.29390000000001 90.8329  C 3.29390000000001 90.8329  3.1499 89.5924  3.1499 89.5924  C 3.1499 89.5924  3.88720000000001 87.2939  3.88720000000001 87.2939  C 3.88720000000001 87.2939  3.41480000000001 86.5002  3.41480000000001 86.5002  C 3.41480000000001 86.5002  3.6395 85.679  3.6395 85.679  C 3.6395 85.679  4.32500000000005 85.2216  4.32500000000005 85.2216  C 4.32500000000005 85.2216  3.01729999999998 84.6706  3.01729999999998 84.6706  C 3.01729999999998 84.6706  1.83640000000003 85.0728  1.83640000000003 85.0728  C 1.83640000000003 85.0728  0.839899999999943 84.406  0.839899999999943 84.406  C 0.839899999999943 84.406  0.655499999999961 83.8164  0.655499999999961 83.8164  C 0.655499999999961 83.8164  1.11630000000002 81.9486  1.11630000000002 81.9486  C 1.11630000000002 81.9486  0.407799999999952 80.8247  0.407799999999952 80.8247  C 0.407799999999952 80.8247  1.43320000000006 79.8331  1.43320000000006 79.8331  C 1.43320000000006 79.8331  1.95159999999998 78.021  1.95159999999998 78.021  C 1.95159999999998 78.021  2.72929999999997 77.4152  2.72929999999997 77.4152  C 2.72929999999997 77.4152  4.49789999999996 77.6464  4.49789999999996 77.6464  C 4.49789999999996 77.6464  5.92070000000001 78.792  5.92070000000001 78.792  C 5.92070000000001 78.792  6.47950000000003 80.2408  6.47950000000003 80.2408  C 6.47950000000003 80.2408  7.13620000000003 81.023  7.13620000000003 81.023  C 7.13620000000003 81.023  8.18460000000005 81.5629  8.18460000000005 81.5629  C 8.18460000000005 81.5629  9.12360000000001 82.4775  9.12360000000001 82.4775  C 9.12360000000001 82.4775  11.4337 83.3315  11.4337 83.3315  C 11.4337 83.3315  12.4878 84.3178  12.4878 84.3178  C 12.4878 84.3178  14.5271 84.2022  14.5271 84.2022  C 14.5271 84.2022  15.8232 85.1885  15.8232 85.1885  C 15.8232 85.1885  17.3441 85.5027  17.3441 85.5027  C 17.3441 85.5027  17.851 83.8549  17.851 83.8549  C 17.851 83.8549  17.3095 82.4224  17.3095 82.4224  C 17.3095 82.4224  17.7761 80.5658  17.7761 80.5658  C 17.7761 80.5658  18.8476000000001 78.8196  18.8476000000001 78.8196  C 18.8476000000001 78.8196  20.4951 78.2303  20.4951 78.2303  C 20.4951 78.2303  21.3131 78.434  21.3131 78.434  C 21.3131 78.434  22.2982 80.9018  22.2982 80.9018  C 22.2982 80.9018  22.1657 84.2242  22.1657 84.2242  C 22.1657 84.2242  23.8132000000001 86.0703  23.8132000000001 86.0703  C 23.8132000000001 86.0703  23.6981 87.4481  23.6981 87.4481  C 23.6981 87.4481  24.0608999999999 88.1922  24.0608999999999 88.1922  C 24.0608999999999 88.1922  24.0552 90.072  24.0552 90.072  C 24.0552 90.072  24.3029 91.2684  24.3029 91.2684  C 24.3029 91.2684  24.7292 90.9983  24.7292 90.9983  C 24.7292 90.9983  26.3307 88.4569  26.3307 88.4569  C 26.3307 88.4569  26.4344 87.3875  26.4344 87.3875  C 26.4344 87.3875  27.3445 87.1671  27.3445 87.1671  C 27.3445 87.1671  26.9355 86.2191  26.9355 86.2191  C 26.9355 86.2191  28.0127 86.175  28.0127 86.175  C 28.0127 86.175  28.1453 84.687  28.1453 84.687  C 28.1453 84.687  28.8423 83.5134  28.8423 83.5134  C 28.8423 83.5134  29.3723 83.7613  29.3723 83.7613  C 29.3723 83.7613  29.9944 85.2877  29.9944 85.2877  C 29.9944 85.2877  30.1442 87.3434  30.1442 87.3434  C 30.1442 87.3434  31.4231 87.6686  31.4231 87.6686  C 31.4231 87.6686  32.6558 86.2301  32.6558 86.2301  C 32.6558 86.2301  33.4508 86.1365  33.4508 86.1365  C 33.4508 86.1365  34.2285000000001 83.9211  34.2285000000001 83.9211  C 34.2285000000001 83.9211  35.1214 83.91  35.1214 83.91  C 35.1214 83.91  34.9831 82.3177  34.9831 82.3177  C 34.9831 82.3177  34.4877 81.7668  34.4877 81.7668  C 34.4877 81.7668  32.5751 81.607  32.5751 81.607  C 32.5751 81.607  31.2502 80.979  31.2502 80.979  C 31.2502 80.979  30.2882 80.0149  30.2882 80.0149  C 30.2882 80.0149  30.7375 79.4751  30.7375 79.4751  C 30.7375 79.4751  31.7341 79.9818  31.7341 79.9818  C 31.7341 79.9818  32.5694 79.42  32.5694 79.42  C 32.5694 79.42  32.8229 77.5528  32.8229 77.5528  C 32.8229 77.5528  34.5683 74.0802  34.5683 74.0802  C 34.5683 74.0802  35.1156 71.3438  35.1156 71.3438  C 35.1156 71.3438  36.2159 69.7309  36.2159 69.7309  C 36.2159 69.7309  35.0983 67.6558  35.0983 67.6558  C 35.0983 67.6558  36.3196 67.0449  36.3196 67.0449  C 36.3196 67.0449  36.4693 66.0708  36.4693 66.0708  C 36.4693 66.0708  34.6663 64.0239  34.6663 64.0239  C 34.6663 64.0239  34.0038 61.6472  34.0038 61.6472  C 34.0038 61.6472  32.4715 60.2279  32.4715 60.2279  C 32.4715 60.2279  31.832 58.9354  31.832 58.9354  C 31.832 58.9354  31.8839 57.291  31.8839 57.291  C 31.8839 57.291  33.2204 55.8394  33.2204 55.8394  C 33.2204 55.8394  33.3298 55.1905  33.3298 55.1905  C 33.3298 55.1905  32.3274 53.7391  32.3274 53.7391  C 32.3274 53.7391  32.748 52.7386  32.748 52.7386  C 32.748 52.7386  33.8771 52.3813  33.8771 52.3813  C 33.8771 52.3813  34.096 50.8697  34.096 50.8697  C 34.096 50.8697  34.7008 48.8472  34.7008 48.8472  C 34.7008 48.8472  35.3864 48.2152  35.3864 48.2152  C 35.3864 48.2152  37.5869 48.5175  37.5869 48.5175  C 37.5869 48.5175  38.3704 47.5174  38.3704 47.5174  C 38.3704 47.5174  38.6296 46.1932  38.6296 46.1932  C 38.6296 46.1932  39.1481 45.4019  39.1481 45.4019  C 39.1481 45.4019  39.9891 45.6492  39.9891 45.6492  C 39.9891 45.6492  41.2046 45.0174  41.2046 45.0174  C 41.2046 45.0174  40.761 43.8143  40.761 43.8143  C 40.761 43.8143  41.314 42.5345  41.314 42.5345  C 41.314 42.5345  42.1321 42.8805  42.1321 42.8805  C 42.1321 42.8805  43.1632 42.1775  43.1632 42.1775  C 43.1632 42.1775  44.2923 38.9317  44.2923 38.9317  C 44.2923 38.9317  45.6864 38.5309  45.6864 38.5309  C 45.6864 38.5309  46.009 38.0422  46.009 38.0422  C 46.009 38.0422  45.9456 35.4947  45.9456 35.4947  C 45.9456 35.4947  45.479 34.1772  45.479 34.1772  C 45.479 34.1772  45.3638 31.927  45.3638 31.927  C 45.3638 31.927  45.9629 29.3753  45.9629 29.3753  C 45.9629 29.3753  45.9398 27.2191  45.9398 27.2191  C 45.9398 27.2191  45.5885 25.7599  45.5885 25.7599  C 45.5885 25.7599  44.6378999999999 25.5569  44.6378999999999 25.5569  C 44.6378999999999 25.5569  43.6068 26.462  43.6068 26.462  C 43.6068 26.462  42.7888 26.6047  42.7888 26.6047  C 42.7888 26.6047  42.0054 26.0561  42.0054 26.0561  C 42.0054 26.0561  41.1585 24.7835  41.1585 24.7835  C 41.1585 24.7835  40.5363 22.3758  40.5363 22.3758  C 40.5363 22.3758  40.5133 21.4766  40.5133 21.4766  C 40.5133 21.4766  40.7380000000001 20.9885  40.7380000000001 20.9885  C 40.7380000000001 20.9885  40.4787 18.0444  40.4787 18.0444  C 40.4787 18.0444  40.8647 17.2988  40.8647 17.2988  C 40.8647 17.2988  41.3083 14.5309  41.3083 14.5309  C 41.3083 14.5309  40.8475 11.9608  40.8475 11.9608  C 40.8475 11.9608  42.4489 11.2157  42.4489 11.2157  C 42.4489 11.2157  43.7335 11.2322  43.7335 11.2322  C 43.7335 11.2322  45.7901000000001 9.39689999999999  45.7901000000001 9.39689999999999  C 45.7901000000001 9.39689999999999  48.3363000000001 7.97810000000001  48.3363000000001 7.97810000000001  C 48.3363000000001 7.97810000000001  48.7798 6.93729999999999  48.7798 6.93729999999999  C 48.7798 6.93729999999999  49.7361 6.07210000000001  49.7361 6.07210000000001  C 49.7361 6.07210000000001  49.9435 4.7741  49.9435 4.7741  C 49.9435 4.7741  52.0231 2.5291  52.0231 2.5291  C 52.0231 2.5291  53.1002999999999 2.0309  53.1002999999999 2.0309  C 53.1002999999999 2.0309  53.0599999999999 0.996199999999988  53.0599999999999 0.996199999999988  C 53.0599999999999 0.996199999999988  53.9356 0.257200000000012  53.9356 0.257200000000012  C 53.9356 0.257200000000012  55.0186 1.13310000000001  55.0186 1.13310000000001  C 55.0186 1.13310000000001  55.5947 3.19710000000001  55.5947 3.19710000000001  C 55.5947 3.19710000000001  56.6719000000001 3.7884  56.6719000000001 3.7884  C 56.6719000000001 3.7884  58.4899 4.922  58.4899 4.922  C 58.4899 4.922  60.9843 5.32169999999999  60.9843 5.32169999999999  C 60.9843 5.32169999999999  61.9809 4.52770000000001  61.9809 4.52770000000001  C 61.9809 4.52770000000001  62.5281 2.54560000000001  62.5281 2.54560000000001  C 62.5281 2.54560000000001  63.4326 2.3648  63.4326 2.3648  C 63.4326 2.3648  64.3945 2.93979999999999  64.3945 2.93979999999999  C 64.3945 2.93979999999999  64.625 4.65360000000001  64.625 4.65360000000001  C 64.625 4.65360000000001  65.3739 5.3492  65.3739 5.3492  C 65.3739 5.3492  66.6124 5.06989999999999  66.6124 5.06989999999999  C 66.6124 5.06989999999999  67.0963 6.08840000000001  67.0963 6.08840000000001  C 67.0963 6.08840000000001  65.8347 8.89279999999999  65.8347 8.89279999999999  C 65.8347 8.89279999999999  65.6677 10.7007  65.6677 10.7007  C 65.6677 10.7007  66.1861 11.928  66.1861 11.928  C 66.1861 11.928  67.3901 12.7389  67.3901 12.7389  C 67.3901 12.7389  69.3545 13.1116  69.3545 13.1116  C 69.3545 13.1116  69.5848999999999 13.55  69.5848999999999 13.55  C 69.5848999999999 13.55  69.51 15.2653  69.51 15.2653  C 69.51 15.2653  68.9915999999999 16.2409  68.9915999999999 16.2409  C 68.9915999999999 16.2409  67.3152 17.096  67.3152 17.096  C 67.3152 17.096  66.7622 18.2801  66.7622 18.2801  C 66.7622 18.2801  66.7852 19.574  66.7852 19.574  C 66.7852 19.574  67.4535 21.1037  67.4535 21.1037  C 67.4535 21.1037  68.9281999999999 22.3814  68.9281999999999 22.3814  C 68.9281999999999 22.3814  69.7232 22.683  69.7232 22.683  C 69.7232 22.683  69.2508 24.6958  69.2508 24.6958  C 69.2508 24.6958  68.4328 25.1401  68.4328 25.1401  C 68.4328 25.1401  67.9777 26.2975  67.9777 26.2975  C 67.9777 26.2975  68.9109 27.3837  68.9109 27.3837  C 68.9109 27.3837  68.9858 28.4041  68.9858 28.4041  C 68.9858 28.4041  68.1505 29.9349  68.1505 29.9349  C 68.1505 29.9349  68.4213 31.2355  68.4213 31.2355  C 68.4213 31.2355  69.7923 33.612  69.7923 33.612  C 69.7923 33.612  70.426 35.9394  70.426 35.9394  C 70.426 35.9394  69.7404 38.3716  69.7404 38.3716  C 69.7404 38.3716  69.4985 39.9256  69.4985 39.9256  C 69.4985 39.9256  69.0492 40.7274  69.0492 40.7274  C 69.0492 40.7274  69.268 42.3641  69.268 42.3641  C 69.268 42.3641  67.2346 46.0448  67.2346 46.0448  C 67.2346 46.0448  66.7679000000001 47.2151  66.7679000000001 47.2151  C 66.7679000000001 47.2151  67.0963 47.6987  67.0963 47.6987  C 67.0963 47.6987  67.9489 47.5448  67.9489 47.5448  C 67.9489 47.5448  68.3348 49.2373  68.3348 49.2373  C 68.3348 49.2373  69.5617999999999 49.1439  69.5617999999999 49.1439  C 69.5617999999999 49.1439  69.8269 48.3361  69.8269 48.3361  C 69.8269 48.3361  70.8695 48.5119  70.8695 48.5119  C 70.8695 48.5119  72.2924 49.3253  72.2924 49.3253  C 72.2924 49.3253  73.0643 50.3145  73.0643 50.3145  C 73.0643 50.3145  73.6116 51.6172  73.6116 51.6172  C 73.6116 51.6172  74.2395 52.1834  74.2395 52.1834  C 74.2395 52.1834  75.7545 50.9741  75.7545 50.9741  C 75.7545 50.9741  76.5265000000001 51.947  76.5265000000001 51.947  C 76.5265000000001 51.947  77.3271999999999 51.3643  77.3271999999999 51.3643  C 77.3271999999999 51.3643  78.272 47.6327  78.272 47.6327  C 78.272 47.6327  78.727 46.726  78.727 46.726  C 78.727 46.726  79.3722 46.4019  79.3722 46.4019  C 79.3722 46.4019  81.0083 47.4239  81.0083 47.4239  C 81.0083 47.4239  82.3217 47.6602  82.3217 47.6602  C 82.3217 47.6602  82.7018 47.3305  82.7018 47.3305  C 82.7018 47.3305  82.8286000000001 45.6492  82.8286000000001 45.6492  C 82.8286000000001 45.6492  82.408 44.2153  82.408 44.2153  C 82.408 44.2153  82.7537 42.7541  82.7537 42.7541  C 82.7537 42.7541  84.5741 39.6456  84.5741 39.6456  C 84.5741 39.6456  86.3253 37.8555  86.3253 37.8555  C 86.3253 37.8555  87.4198 37.8939  87.4198 37.8939  C 87.4198 37.8939  87.754 36.8178  87.754 36.8178  C 87.754 36.8178  89.6319 37.6853  89.6319 37.6853  C 89.6319 37.6853  91.7979 37.4986  91.7979 37.4986  C 91.7979 37.4986  93.4281999999999 37.1308  93.4281999999999 37.1308  C 93.4281999999999 37.1308  94.2462 38.2893  94.2462 38.2893  C 94.2462 38.2893  95.7497 38.6847  95.7497 38.6847  C 95.7497 38.6847  97.3511 38.0202  97.3511 38.0202  C 97.3511 38.0202  98.9526 38.5144  98.9526 38.5144  C 98.9526 38.5144  99.8858 38.5363  99.8858 38.5363  C 99.8858 38.5363  99.978 39.8817  99.978 39.8817  C 99.978 39.8817  100.3755 40.0684  100.3755 40.0684  C 100.3755 40.0684  102.5299 39.3765  102.5299 39.3765  C 102.5299 39.3765  104.1142 40.0299  104.1142 40.0299  C 104.1142 40.0299  105.1453 40.0299  105.1453 40.0299  C 105.1453 40.0299  106.1074 38.7614  106.1074 38.7614  C 106.1074 38.7614  107.0636 38.7121  107.0636 38.7121  C 107.0636 38.7121  107.559 39.3546  107.559 39.3546  C 107.559 39.3546  109.6444 39.8378  109.6444 39.8378  C 109.6444 39.8378  111.6433 41.7326  111.6433 41.7326  C 111.6433 41.7326  110.5546 42.7377  110.5546 42.7377  C 110.5546 42.7377  109.7538 42.441  109.7538 42.441  C 109.7538 42.441  108.4001 43.0837  108.4001 43.0837  C 108.4001 43.0837  107.7548 43.0178  107.7548 43.0178  C 107.7548 43.0178  106.8908 43.644  106.8908 43.644  C 106.8908 43.644  106.2455 46.1547  106.2455 46.1547  C 106.2455 46.1547  105.249 47.1327  105.249 47.1327  C 105.249 47.1327  105.5889 48.3581  105.5889 48.3581  C 105.5889 48.3581  105.3008 49.0944  105.3008 49.0944  C 105.3008 49.0944  106.3032 51.1115  106.3032 51.1115  C 106.3032 51.1115  104.8458 51.6447  104.8458 51.6447  C 104.8458 51.6447  104.3273 52.909  104.3273 52.909  C 104.3273 52.909  105.1626 54.9157  105.1626 54.9157  C 105.1626 54.9157  105.0646 56.2958  105.0646 56.2958  C 105.0646 56.2958  106.188 56.3892  106.188 56.3892  C 106.188 56.3892  106.3551 57.2141  106.3551 57.2141  C 106.3551 57.2141  107.703 58.0335  107.703 58.0335  C 107.703 58.0335  107.703 58.4019  107.703 58.4019  C 107.703 58.4019  109.051 60.8441  109.051 60.8441  C 109.051 60.8441  109.6559 60.8001  109.6559 60.8001  C 109.6559 60.8001  110.376 62.4779  110.376 62.4779  C 110.376 62.4779  110.2147 64.7446  110.2147 64.7446  C 110.2147 64.7446  110.5546 65.6746  110.5546 65.6746  C 110.5546 65.6746  109.5464 66.478  109.5464 66.478  C 109.5464 66.478  108.8782 67.7548  108.8782 67.7548  C 108.8782 67.7548  108.8033 69.5491  108.8033 69.5491  C 108.8033 69.5491  109.5579 70.0721  109.5579 70.0721  C 109.5579 70.0721  109.7999 70.9639  109.7999 70.9639  C 109.7999 70.9639  111.5742 71.8668  111.5742 71.8668  C 111.5742 71.8668  113.0086 75.0163  113.0086 75.0163  C 113.0086 75.0163  113.118 77.7896  113.118 77.7896  C 113.118 77.7896  114.1895 78.3625  114.1895 78.3625  C 114.1895 78.3625  114.5005 80.2683  114.5005 80.2683  C 114.5005 80.2683  114.3335 83.001  114.3335 83.001  C 114.3335 83.001  113.648 83.8605  113.648 83.8605  C 113.648 83.8605  113.239 85.0508  113.239 85.0508  C 113.239 85.0508  112.3346 85.7948  112.3346 85.7948  C 112.3346 85.7948  111.7988 87.6411  111.7988 87.6411  C 111.7988 87.6411  111.0269 87.7513  111.0269 87.7513  C 111.0269 87.7513  109.8805 89.1128  109.8805 89.1128  C 109.8805 89.1128  109.0914 89.1845  109.0914 89.1845  C 109.0914 89.1845  109.0971 90.6288  109.0971 90.6288  C 109.0971 90.6288  108.7745 91.489  108.7745 91.489  C 108.7745 91.489  107.8585 91.5441  107.8585 91.5441  C 107.8585 91.5441  107.4726 90.8108  107.4726 90.8108  C 107.4726 90.8108  106.4932 91.1471  106.4932 91.1471  C 106.4932 91.1471  106.234 92.0348  106.234 92.0348  C 106.234 92.0348  105.3354 92.6799  105.3354 92.6799  C 105.3354 92.6799  105.226 94.1578  105.226 94.1578  C 105.226 94.1578  104.7132 93.6339  104.7132 93.6339  C 104.7132 93.6339  103.8261 93.8544  103.8261 93.8544  C 103.8261 93.8544  103.4574 94.9519  103.4574 94.9519  C 103.4574 94.9519  101.7581 94.7975  101.7581 94.7975  C 101.7581 94.7975  100.5771 94.3177  100.5771 94.3177  C 100.5771 94.3177  100.0702 99.6019  100.0702 99.6019  C 100.0702 99.6019  101.2511 100.8819  101.2511 100.8819  C 101.2511 100.8819  101.3318 101.8034  101.3318 101.8034  C 101.3318 101.8034  100.6463 104.6179  100.6463 104.6179  C 100.6463 104.6179  100.6348 106.3123  100.6348 106.3123  C 100.6348 106.3123  101.0034 107.7696  101.0034 107.7696  C 101.0034 107.7696  101.4009 108.1286  101.4009 108.1286  C 101.4009 108.1286  101.3375 109.4315  101.3375 109.4315  C 101.3375 109.4315  102.023 110.3977  102.023 110.3977  C 102.023 110.3977  102.6913 112.6949  102.6913 112.6949  C 102.6913 112.6949  103.8434 113.6449  103.8434 113.6449  C 103.8434 113.6449  103.878 116.2078  103.878 116.2078  C 103.878 116.2078  105.3066 118.6552  105.3066 118.6552  C 105.3066 118.6552  103.5842 122.236  103.5842 122.236  C 103.5842 122.236  103.0196 122.2415  103.0196 122.2415  C 103.0196 122.2415  103.1579 123.076  103.1579 123.076  C 103.1579 123.076  102.0634 122.8052  102.0634 122.8052  C 102.0634 122.8052  101.2453 123.0374  101.2453 123.0374  C 101.2453 123.0374  100.6578 123.8553  100.6578 123.8553  C 100.6578 123.8553  99.6842 122.8329  99.6842 122.8329  C 99.6842 122.8329  98.8028 122.7224  98.8028 122.7224  C 98.8028 122.7224  98.5666 124.0599  98.5666 124.0599  C 98.5666 124.0599  99.0448 125.6629  99.0448 125.6629  C 99.0448 125.6629  98.1577 127.0671  98.1577 127.0671  C 98.1577 127.0671  97.6277 126.365  97.6277 126.365  C 97.6277 126.365  96.4179 126.3761  96.4179 126.3761  C 96.4179 126.3761  96.3949 127.1445  96.3949 127.1445  C 96.3949 127.1445  95.6402000000001 128.7701  95.6402000000001 128.7701  C 95.6402000000001 128.7701  95.9629 130.0253  95.9629 130.0253  C 95.9629 130.0253  96.4871000000001 130.3572  96.4871000000001 130.3572  C 96.4871000000001 130.3572  96.2048 132.0108  96.2048 132.0108  C 96.2048 132.0108  96.5562 134.3339  96.5562 134.3339  C 96.5562 134.3339  95.8418 134.6658  95.8418 134.6658  C 95.8418 134.6658  95.4847 136.8954  95.4847 136.8954  C 95.4847 136.8954  94.396 136.0157  94.396 136.0157  C 94.396 136.0157  94.0503 136.6741  94.0503 136.6741  C 94.0503 136.6741  92.7886999999999 136.7737  92.7886999999999 136.7737  C 92.7886999999999 136.7737  92.0975 136.0876  92.0975 136.0876  C 92.0975 136.0876  91.0778 136.3145  91.0778 136.3145  C 91.0778 136.3145  90.5939 135.5067  90.5939 135.5067  C 90.5939 135.5067  89.9775 135.656  89.9775 135.656  C 89.9775 135.656  88.6065 134.9923  88.6065 134.9923  C 88.6065 134.9923  88.2205 133.8416  88.2205 133.8416  C 88.2205 133.8416  86.9935 133.8194  86.9935 133.8194  C 86.9935 133.8194  86.8150000000001 135.2246  86.8150000000001 135.2246  C 86.8150000000001 135.2246  86.4002 135.9659  86.4002 135.9659  C 86.4002 135.9659  84.4243 134.0795  84.4243 134.0795  Z " fill-rule="evenodd" />
    </mask>
  </defs>
  <g transform="matrix(1 0 0 1 -613 -278 )">
    <path d="M 84.4243 134.0795  C 84.4243 134.0795  83.6985 134.2399  83.6985 134.2399  C 83.6985 134.2399  83.4392 131.4521  83.4392 131.4521  C 83.4392 131.4521  84.0153 130.2687  84.0153 130.2687  C 84.0153 130.2687  83.9519 128.9692  83.9519 128.9692  C 83.9519 128.9692  83.324 127.2054  83.324 127.2054  C 83.324 127.2054  83.4853000000001 124.5685  83.4853000000001 124.5685  C 83.4853000000001 124.5685  83.2779 122.9489  83.2779 122.9489  C 83.2779 122.9489  82.4426 121.3185  82.4426 121.3185  C 82.4426 121.3185  81.3136 120.2355  81.3136 120.2355  C 81.3136 120.2355  80.0116 120.1028  80.0116 120.1028  C 80.0116 120.1028  78.8768 118.0695  78.8768 118.0695  C 78.8768 118.0695  77.8053 117.3513  77.8053 117.3513  C 77.8053 117.3513  76.8951 117.5392  76.8951 117.5392  C 76.8951 117.5392  76.6013 118.0805  76.6013 118.0805  C 76.6013 118.0805  75.3859 117.5005  75.3859 117.5005  C 75.3859 117.5005  75.6508 116.7878  75.6508 116.7878  C 75.6508 116.7878  74.8904 114.7218  74.8904 114.7218  C 74.8904 114.7218  74.6543 113.0373  74.6543 113.0373  C 74.6543 113.0373  74.9826 111.6678  74.9826 111.6678  C 74.9826 111.6678  78.3526000000001 108.4708  78.3526000000001 108.4708  C 78.3526000000001 108.4708  78.4160000000001 107.9408  78.4160000000001 107.9408  C 78.4160000000001 107.9408  77.5288 106.5552  77.5288 106.5552  C 77.5288 106.5552  77.9204999999999 105.7217  77.9204999999999 105.7217  C 77.9204999999999 105.7217  77.5115 104.9103  77.5115 104.9103  C 77.5115 104.9103  77.6728000000001 102.9512  77.6728000000001 102.9512  C 77.6728000000001 102.9512  75.9561 103.2767  75.9561 103.2767  C 75.9561 103.2767  75.0748 102.2669  75.0748 102.2669  C 75.0748 102.2669  74.2222 102.1841  74.2222 102.1841  C 74.2222 102.1841  73.9054 101.2571  73.9054 101.2571  C 73.9054 101.2571  72.9434 100.5288  72.9434 100.5288  C 72.9434 100.5288  72.0447 100.9592  72.0447 100.9592  C 72.0447 100.9592  71.4512999999999 102.0848  71.4512999999999 102.0848  C 71.4512999999999 102.0848  71.2785 103.2547  71.2785 103.2547  C 71.2785 103.2547  72.1079999999999 103.5196  72.1079999999999 103.5196  C 72.1079999999999 103.5196  72.1023 104.2591  72.1023 104.2591  C 72.1023 104.2591  71.0596 104.0936  71.0596 104.0936  C 71.0596 104.0936  70.472 105.9591  70.472 105.9591  C 70.472 105.9591  70.9502 107.6758  70.9502 107.6758  C 70.9502 107.6758  69.5676 108.9125  69.5676 108.9125  C 69.5676 108.9125  68.0525 108.2665  68.0525 108.2665  C 68.0525 108.2665  66.2898 109.8621  66.2898 109.8621  C 66.2898 109.8621  64.6941 109.2271  64.6941 109.2271  C 64.6941 109.2271  64.1527 109.8124  64.1527 109.8124  C 64.1527 109.8124  64.7344000000001 111.8334  64.7344000000001 111.8334  C 64.7344000000001 111.8334  64.6481 113.2085  64.6481 113.2085  C 64.6481 113.2085  64.0259 114.28  64.0259 114.28  C 64.0259 114.28  63.7206 115.4841  63.7206 115.4841  C 63.7206 115.4841  64.2275 116.8209  64.2275 116.8209  C 64.2275 116.8209  64.9534 117.6773  64.9534 117.6773  C 64.9534 117.6773  65.3854 120.0642  65.3854 120.0642  C 65.3854 120.0642  65.3623 122.4239  65.3623 122.4239  C 65.3623 122.4239  64.6538 125.1212  64.6538 125.1212  C 64.6538 125.1212  61.7735 129.2734  61.7735 129.2734  C 61.7735 129.2734  61.8714 130.9876  61.8714 130.9876  C 61.8714 130.9876  61.3011 131.0706  61.3011 131.0706  C 61.3011 131.0706  60.5349 130.3019  60.5349 130.3019  C 60.5349 130.3019  58.6281 130.8383  58.6281 130.8383  C 58.6281 130.8383  56.1534 130.6116  56.1534 130.6116  C 56.1534 130.6116  54.8573 129.1185  54.8573 129.1185  C 54.8573 129.1185  53.7455 128.831  53.7455 128.831  C 53.7455 128.831  51.7696 129.2235  51.7696 129.2235  C 51.7696 129.2235  50.8134 128.6761  50.8134 128.6761  C 50.8134 128.6761  50.7673 127.2883  50.7673 127.2883  C 50.7673 127.2883  50.364 125.558  50.364 125.558  C 50.364 125.558  48.8547 123.3082  48.8547 123.3082  C 48.8547 123.3082  47.8869 123.5071  47.8869 123.5071  C 47.8869 123.5071  45.3407999999999 123.0539  45.3407999999999 123.0539  C 45.3407999999999 123.0539  44.5976000000001 123.6896  44.5976000000001 123.6896  C 44.5976000000001 123.6896  43.6759 127.5869  43.6759 127.5869  C 43.6759 127.5869  43.1978 128.6651  43.1978 128.6651  C 43.1978 128.6651  41.1067 129.7267  41.1067 129.7267  C 41.1067 129.7267  40.8244 132.1104  40.8244 132.1104  C 40.8244 132.1104  40.1677 133.8803  40.1677 133.8803  C 40.1677 133.8803  39.2921 134.7432  39.2921 134.7432  C 39.2921 134.7432  37.6503 134.7101  37.6503 134.7101  C 37.6503 134.7101  37.0166 136.2425  37.0166 136.2425  C 37.0166 136.2425  35.9624 137.0503  35.9624 137.0503  C 35.9624 137.0503  34.4877 136.0987  34.4877 136.0987  C 34.4877 136.0987  34.1421 136.4583  34.1421 136.4583  C 34.1421 136.4583  34.3321 138.4668  34.3321 138.4668  C 34.3321 138.4668  35.0868 139.8115  35.0868 139.8115  C 35.0868 139.8115  34.2227 141.721  34.2227 141.721  C 34.2227 141.721  33.5429 141.9147  33.5429 141.9147  C 33.5429 141.9147  32.3044 140.7412  32.3044 140.7412  C 32.3044 140.7412  31.5728 141.3335  31.5728 141.3335  C 31.5728 141.3335  31.5497 143.5752  31.5497 143.5752  C 31.5497 143.5752  31.3309 144.4832  31.3309 144.4832  C 31.3309 144.4832  31.8033 145.4741  31.8033 145.4741  C 31.8033 145.4741  30.5244 145.0368  30.5244 145.0368  C 30.5244 145.0368  29.9138 145.5627  29.9138 145.5627  C 29.9138 145.5627  29.7352 146.9193  29.7352 146.9193  C 29.7352 146.9193  30.1385 147.8218  30.1385 147.8218  C 30.1385 147.8218  29.8907 148.874  29.8907 148.874  C 29.8907 148.874  30.749 150.5853  30.749 150.5853  C 30.749 150.5853  30.726 151.4217  30.726 151.4217  C 30.726 151.4217  29.643 152.5572  29.643 152.5572  C 29.643 152.5572  29.5105 150.9619  29.5105 150.9619  C 29.5105 150.9619  28.848 150.7514  28.848 150.7514  C 28.848 150.7514  27.8801999999999 151.7319  27.8801999999999 151.7319  C 27.8801999999999 151.7319  27.2984 151.3275  27.2984 151.3275  C 27.2984 151.3275  27.2811 150.4635  27.2811 150.4635  C 27.2811 150.4635  26.636 149.2173  26.636 149.2173  C 26.636 149.2173  25.6336 148.9848  25.6336 148.9848  C 25.6336 148.9848  24.9712 147.2958  24.9712 147.2958  C 24.9712 147.2958  25.3859 143.138  25.3859 143.138  C 25.3859 143.138  25.3570999999999 142.3962  25.3570999999999 142.3962  C 25.3570999999999 142.3962  24.4181 141.3501  24.4181 141.3501  C 24.4181 141.3501  24.3662 140.5642  24.3662 140.5642  C 24.3662 140.5642  25.2649 139.0202  25.2649 139.0202  C 25.2649 139.0202  24.7234999999999 137.3049  24.7234999999999 137.3049  C 24.7234999999999 137.3049  24.8098 135.9161  24.8098 135.9161  C 24.8098 135.9161  24.1128 135.562  24.1128 135.562  C 24.1128 135.562  22.4076 136.7958  22.4076 136.7958  C 22.4076 136.7958  21.8143 135.1194  21.8143 135.1194  C 21.8143 135.1194  21.0481 133.8637  21.0481 133.8637  C 21.0481 133.8637  21.3304000000001 133.3327  21.3304000000001 133.3327  C 21.3304000000001 133.3327  23.0586 132.149  23.0586 132.149  C 23.0586 132.149  23.5079 130.2134  23.5079 130.2134  C 23.5079 130.2134  22.3097 128.0735  22.3097 128.0735  C 22.3097 128.0735  20.7256 127.5702  20.7256 127.5702  C 20.7256 127.5702  19.389 126.6746  19.389 126.6746  C 19.389 126.6746  17.465 123.369  17.465 123.369  C 17.465 123.369  16.4742 122.5952  16.4742 122.5952  C 16.4742 122.5952  14.4003 122.7057  14.4003 122.7057  C 14.4003 122.7057  13.0812 122.3465  13.0812 122.3465  C 13.0812 122.3465  12.3841 122.9489  12.3841 122.9489  C 12.3841 122.9489  11.7793 121.9044  11.7793 121.9044  C 11.7793 121.9044  12.4648 120.2962  12.4648 120.2962  C 12.4648 120.2962  12.8738 118.4729  12.8738 118.4729  C 12.8738 118.4729  12.8105 117.2132  12.8105 117.2132  C 12.8105 117.2132  13.6112000000001 116.3127  13.6112000000001 116.3127  C 13.6112000000001 116.3127  14.1872 116.2132  14.1872 116.2132  C 14.1872 116.2132  13.8704 115.1969  13.8704 115.1969  C 13.8704 115.1969  12.6261 114.5561  12.6261 114.5561  C 12.6261 114.5561  9.68240000000003 113.5178  9.68240000000003 113.5178  C 9.68240000000003 113.5178  8.69159999999999 111.4634  8.69159999999999 111.4634  C 8.69159999999999 111.4634  9.26760000000002 109.5253  9.26760000000002 109.5253  C 9.26760000000002 109.5253  9.67089999999996 107.3722  9.67089999999996 107.3722  C 9.67089999999996 107.3722  9.40589999999997 105.225  9.40589999999997 105.225  C 9.40589999999997 105.225  10.535 102.5152  10.535 102.5152  C 10.535 102.5152  11.1455999999999 102.0683  11.1455999999999 102.0683  C 11.1455999999999 102.0683  11.9578 100.4957  11.9578 100.4957  C 11.9578 100.4957  11.3876 99.1385  11.3876 99.1385  C 11.3876 99.1385  9.63059999999996 98.4709  9.63059999999996 98.4709  C 9.63059999999996 98.4709  8.42079999999999 96.0329  8.42079999999999 96.0329  C 8.42079999999999 96.0329  6.84820000000002 95.4869  6.84820000000002 95.4869  C 6.84820000000002 95.4869  4.88379999999995 94.1247  4.88379999999995 94.1247  C 4.88379999999995 94.1247  4.18679999999995 91.7866  4.18679999999995 91.7866  C 4.18679999999995 91.7866  3.29390000000001 90.8329  3.29390000000001 90.8329  C 3.29390000000001 90.8329  3.1499 89.5924  3.1499 89.5924  C 3.1499 89.5924  3.88720000000001 87.2939  3.88720000000001 87.2939  C 3.88720000000001 87.2939  3.41480000000001 86.5002  3.41480000000001 86.5002  C 3.41480000000001 86.5002  3.6395 85.679  3.6395 85.679  C 3.6395 85.679  4.32500000000005 85.2216  4.32500000000005 85.2216  C 4.32500000000005 85.2216  3.01729999999998 84.6706  3.01729999999998 84.6706  C 3.01729999999998 84.6706  1.83640000000003 85.0728  1.83640000000003 85.0728  C 1.83640000000003 85.0728  0.839899999999943 84.406  0.839899999999943 84.406  C 0.839899999999943 84.406  0.655499999999961 83.8164  0.655499999999961 83.8164  C 0.655499999999961 83.8164  1.11630000000002 81.9486  1.11630000000002 81.9486  C 1.11630000000002 81.9486  0.407799999999952 80.8247  0.407799999999952 80.8247  C 0.407799999999952 80.8247  1.43320000000006 79.8331  1.43320000000006 79.8331  C 1.43320000000006 79.8331  1.95159999999998 78.021  1.95159999999998 78.021  C 1.95159999999998 78.021  2.72929999999997 77.4152  2.72929999999997 77.4152  C 2.72929999999997 77.4152  4.49789999999996 77.6464  4.49789999999996 77.6464  C 4.49789999999996 77.6464  5.92070000000001 78.792  5.92070000000001 78.792  C 5.92070000000001 78.792  6.47950000000003 80.2408  6.47950000000003 80.2408  C 6.47950000000003 80.2408  7.13620000000003 81.023  7.13620000000003 81.023  C 7.13620000000003 81.023  8.18460000000005 81.5629  8.18460000000005 81.5629  C 8.18460000000005 81.5629  9.12360000000001 82.4775  9.12360000000001 82.4775  C 9.12360000000001 82.4775  11.4337 83.3315  11.4337 83.3315  C 11.4337 83.3315  12.4878 84.3178  12.4878 84.3178  C 12.4878 84.3178  14.5271 84.2022  14.5271 84.2022  C 14.5271 84.2022  15.8232 85.1885  15.8232 85.1885  C 15.8232 85.1885  17.3441 85.5027  17.3441 85.5027  C 17.3441 85.5027  17.851 83.8549  17.851 83.8549  C 17.851 83.8549  17.3095 82.4224  17.3095 82.4224  C 17.3095 82.4224  17.7761 80.5658  17.7761 80.5658  C 17.7761 80.5658  18.8476000000001 78.8196  18.8476000000001 78.8196  C 18.8476000000001 78.8196  20.4951 78.2303  20.4951 78.2303  C 20.4951 78.2303  21.3131 78.434  21.3131 78.434  C 21.3131 78.434  22.2982 80.9018  22.2982 80.9018  C 22.2982 80.9018  22.1657 84.2242  22.1657 84.2242  C 22.1657 84.2242  23.8132000000001 86.0703  23.8132000000001 86.0703  C 23.8132000000001 86.0703  23.6981 87.4481  23.6981 87.4481  C 23.6981 87.4481  24.0608999999999 88.1922  24.0608999999999 88.1922  C 24.0608999999999 88.1922  24.0552 90.072  24.0552 90.072  C 24.0552 90.072  24.3029 91.2684  24.3029 91.2684  C 24.3029 91.2684  24.7292 90.9983  24.7292 90.9983  C 24.7292 90.9983  26.3307 88.4569  26.3307 88.4569  C 26.3307 88.4569  26.4344 87.3875  26.4344 87.3875  C 26.4344 87.3875  27.3445 87.1671  27.3445 87.1671  C 27.3445 87.1671  26.9355 86.2191  26.9355 86.2191  C 26.9355 86.2191  28.0127 86.175  28.0127 86.175  C 28.0127 86.175  28.1453 84.687  28.1453 84.687  C 28.1453 84.687  28.8423 83.5134  28.8423 83.5134  C 28.8423 83.5134  29.3723 83.7613  29.3723 83.7613  C 29.3723 83.7613  29.9944 85.2877  29.9944 85.2877  C 29.9944 85.2877  30.1442 87.3434  30.1442 87.3434  C 30.1442 87.3434  31.4231 87.6686  31.4231 87.6686  C 31.4231 87.6686  32.6558 86.2301  32.6558 86.2301  C 32.6558 86.2301  33.4508 86.1365  33.4508 86.1365  C 33.4508 86.1365  34.2285000000001 83.9211  34.2285000000001 83.9211  C 34.2285000000001 83.9211  35.1214 83.91  35.1214 83.91  C 35.1214 83.91  34.9831 82.3177  34.9831 82.3177  C 34.9831 82.3177  34.4877 81.7668  34.4877 81.7668  C 34.4877 81.7668  32.5751 81.607  32.5751 81.607  C 32.5751 81.607  31.2502 80.979  31.2502 80.979  C 31.2502 80.979  30.2882 80.0149  30.2882 80.0149  C 30.2882 80.0149  30.7375 79.4751  30.7375 79.4751  C 30.7375 79.4751  31.7341 79.9818  31.7341 79.9818  C 31.7341 79.9818  32.5694 79.42  32.5694 79.42  C 32.5694 79.42  32.8229 77.5528  32.8229 77.5528  C 32.8229 77.5528  34.5683 74.0802  34.5683 74.0802  C 34.5683 74.0802  35.1156 71.3438  35.1156 71.3438  C 35.1156 71.3438  36.2159 69.7309  36.2159 69.7309  C 36.2159 69.7309  35.0983 67.6558  35.0983 67.6558  C 35.0983 67.6558  36.3196 67.0449  36.3196 67.0449  C 36.3196 67.0449  36.4693 66.0708  36.4693 66.0708  C 36.4693 66.0708  34.6663 64.0239  34.6663 64.0239  C 34.6663 64.0239  34.0038 61.6472  34.0038 61.6472  C 34.0038 61.6472  32.4715 60.2279  32.4715 60.2279  C 32.4715 60.2279  31.832 58.9354  31.832 58.9354  C 31.832 58.9354  31.8839 57.291  31.8839 57.291  C 31.8839 57.291  33.2204 55.8394  33.2204 55.8394  C 33.2204 55.8394  33.3298 55.1905  33.3298 55.1905  C 33.3298 55.1905  32.3274 53.7391  32.3274 53.7391  C 32.3274 53.7391  32.748 52.7386  32.748 52.7386  C 32.748 52.7386  33.8771 52.3813  33.8771 52.3813  C 33.8771 52.3813  34.096 50.8697  34.096 50.8697  C 34.096 50.8697  34.7008 48.8472  34.7008 48.8472  C 34.7008 48.8472  35.3864 48.2152  35.3864 48.2152  C 35.3864 48.2152  37.5869 48.5175  37.5869 48.5175  C 37.5869 48.5175  38.3704 47.5174  38.3704 47.5174  C 38.3704 47.5174  38.6296 46.1932  38.6296 46.1932  C 38.6296 46.1932  39.1481 45.4019  39.1481 45.4019  C 39.1481 45.4019  39.9891 45.6492  39.9891 45.6492  C 39.9891 45.6492  41.2046 45.0174  41.2046 45.0174  C 41.2046 45.0174  40.761 43.8143  40.761 43.8143  C 40.761 43.8143  41.314 42.5345  41.314 42.5345  C 41.314 42.5345  42.1321 42.8805  42.1321 42.8805  C 42.1321 42.8805  43.1632 42.1775  43.1632 42.1775  C 43.1632 42.1775  44.2923 38.9317  44.2923 38.9317  C 44.2923 38.9317  45.6864 38.5309  45.6864 38.5309  C 45.6864 38.5309  46.009 38.0422  46.009 38.0422  C 46.009 38.0422  45.9456 35.4947  45.9456 35.4947  C 45.9456 35.4947  45.479 34.1772  45.479 34.1772  C 45.479 34.1772  45.3638 31.927  45.3638 31.927  C 45.3638 31.927  45.9629 29.3753  45.9629 29.3753  C 45.9629 29.3753  45.9398 27.2191  45.9398 27.2191  C 45.9398 27.2191  45.5885 25.7599  45.5885 25.7599  C 45.5885 25.7599  44.6378999999999 25.5569  44.6378999999999 25.5569  C 44.6378999999999 25.5569  43.6068 26.462  43.6068 26.462  C 43.6068 26.462  42.7888 26.6047  42.7888 26.6047  C 42.7888 26.6047  42.0054 26.0561  42.0054 26.0561  C 42.0054 26.0561  41.1585 24.7835  41.1585 24.7835  C 41.1585 24.7835  40.5363 22.3758  40.5363 22.3758  C 40.5363 22.3758  40.5133 21.4766  40.5133 21.4766  C 40.5133 21.4766  40.7380000000001 20.9885  40.7380000000001 20.9885  C 40.7380000000001 20.9885  40.4787 18.0444  40.4787 18.0444  C 40.4787 18.0444  40.8647 17.2988  40.8647 17.2988  C 40.8647 17.2988  41.3083 14.5309  41.3083 14.5309  C 41.3083 14.5309  40.8475 11.9608  40.8475 11.9608  C 40.8475 11.9608  42.4489 11.2157  42.4489 11.2157  C 42.4489 11.2157  43.7335 11.2322  43.7335 11.2322  C 43.7335 11.2322  45.7901000000001 9.39689999999999  45.7901000000001 9.39689999999999  C 45.7901000000001 9.39689999999999  48.3363000000001 7.97810000000001  48.3363000000001 7.97810000000001  C 48.3363000000001 7.97810000000001  48.7798 6.93729999999999  48.7798 6.93729999999999  C 48.7798 6.93729999999999  49.7361 6.07210000000001  49.7361 6.07210000000001  C 49.7361 6.07210000000001  49.9435 4.7741  49.9435 4.7741  C 49.9435 4.7741  52.0231 2.5291  52.0231 2.5291  C 52.0231 2.5291  53.1002999999999 2.0309  53.1002999999999 2.0309  C 53.1002999999999 2.0309  53.0599999999999 0.996199999999988  53.0599999999999 0.996199999999988  C 53.0599999999999 0.996199999999988  53.9356 0.257200000000012  53.9356 0.257200000000012  C 53.9356 0.257200000000012  55.0186 1.13310000000001  55.0186 1.13310000000001  C 55.0186 1.13310000000001  55.5947 3.19710000000001  55.5947 3.19710000000001  C 55.5947 3.19710000000001  56.6719000000001 3.7884  56.6719000000001 3.7884  C 56.6719000000001 3.7884  58.4899 4.922  58.4899 4.922  C 58.4899 4.922  60.9843 5.32169999999999  60.9843 5.32169999999999  C 60.9843 5.32169999999999  61.9809 4.52770000000001  61.9809 4.52770000000001  C 61.9809 4.52770000000001  62.5281 2.54560000000001  62.5281 2.54560000000001  C 62.5281 2.54560000000001  63.4326 2.3648  63.4326 2.3648  C 63.4326 2.3648  64.3945 2.93979999999999  64.3945 2.93979999999999  C 64.3945 2.93979999999999  64.625 4.65360000000001  64.625 4.65360000000001  C 64.625 4.65360000000001  65.3739 5.3492  65.3739 5.3492  C 65.3739 5.3492  66.6124 5.06989999999999  66.6124 5.06989999999999  C 66.6124 5.06989999999999  67.0963 6.08840000000001  67.0963 6.08840000000001  C 67.0963 6.08840000000001  65.8347 8.89279999999999  65.8347 8.89279999999999  C 65.8347 8.89279999999999  65.6677 10.7007  65.6677 10.7007  C 65.6677 10.7007  66.1861 11.928  66.1861 11.928  C 66.1861 11.928  67.3901 12.7389  67.3901 12.7389  C 67.3901 12.7389  69.3545 13.1116  69.3545 13.1116  C 69.3545 13.1116  69.5848999999999 13.55  69.5848999999999 13.55  C 69.5848999999999 13.55  69.51 15.2653  69.51 15.2653  C 69.51 15.2653  68.9915999999999 16.2409  68.9915999999999 16.2409  C 68.9915999999999 16.2409  67.3152 17.096  67.3152 17.096  C 67.3152 17.096  66.7622 18.2801  66.7622 18.2801  C 66.7622 18.2801  66.7852 19.574  66.7852 19.574  C 66.7852 19.574  67.4535 21.1037  67.4535 21.1037  C 67.4535 21.1037  68.9281999999999 22.3814  68.9281999999999 22.3814  C 68.9281999999999 22.3814  69.7232 22.683  69.7232 22.683  C 69.7232 22.683  69.2508 24.6958  69.2508 24.6958  C 69.2508 24.6958  68.4328 25.1401  68.4328 25.1401  C 68.4328 25.1401  67.9777 26.2975  67.9777 26.2975  C 67.9777 26.2975  68.9109 27.3837  68.9109 27.3837  C 68.9109 27.3837  68.9858 28.4041  68.9858 28.4041  C 68.9858 28.4041  68.1505 29.9349  68.1505 29.9349  C 68.1505 29.9349  68.4213 31.2355  68.4213 31.2355  C 68.4213 31.2355  69.7923 33.612  69.7923 33.612  C 69.7923 33.612  70.426 35.9394  70.426 35.9394  C 70.426 35.9394  69.7404 38.3716  69.7404 38.3716  C 69.7404 38.3716  69.4985 39.9256  69.4985 39.9256  C 69.4985 39.9256  69.0492 40.7274  69.0492 40.7274  C 69.0492 40.7274  69.268 42.3641  69.268 42.3641  C 69.268 42.3641  67.2346 46.0448  67.2346 46.0448  C 67.2346 46.0448  66.7679000000001 47.2151  66.7679000000001 47.2151  C 66.7679000000001 47.2151  67.0963 47.6987  67.0963 47.6987  C 67.0963 47.6987  67.9489 47.5448  67.9489 47.5448  C 67.9489 47.5448  68.3348 49.2373  68.3348 49.2373  C 68.3348 49.2373  69.5617999999999 49.1439  69.5617999999999 49.1439  C 69.5617999999999 49.1439  69.8269 48.3361  69.8269 48.3361  C 69.8269 48.3361  70.8695 48.5119  70.8695 48.5119  C 70.8695 48.5119  72.2924 49.3253  72.2924 49.3253  C 72.2924 49.3253  73.0643 50.3145  73.0643 50.3145  C 73.0643 50.3145  73.6116 51.6172  73.6116 51.6172  C 73.6116 51.6172  74.2395 52.1834  74.2395 52.1834  C 74.2395 52.1834  75.7545 50.9741  75.7545 50.9741  C 75.7545 50.9741  76.5265000000001 51.947  76.5265000000001 51.947  C 76.5265000000001 51.947  77.3271999999999 51.3643  77.3271999999999 51.3643  C 77.3271999999999 51.3643  78.272 47.6327  78.272 47.6327  C 78.272 47.6327  78.727 46.726  78.727 46.726  C 78.727 46.726  79.3722 46.4019  79.3722 46.4019  C 79.3722 46.4019  81.0083 47.4239  81.0083 47.4239  C 81.0083 47.4239  82.3217 47.6602  82.3217 47.6602  C 82.3217 47.6602  82.7018 47.3305  82.7018 47.3305  C 82.7018 47.3305  82.8286000000001 45.6492  82.8286000000001 45.6492  C 82.8286000000001 45.6492  82.408 44.2153  82.408 44.2153  C 82.408 44.2153  82.7537 42.7541  82.7537 42.7541  C 82.7537 42.7541  84.5741 39.6456  84.5741 39.6456  C 84.5741 39.6456  86.3253 37.8555  86.3253 37.8555  C 86.3253 37.8555  87.4198 37.8939  87.4198 37.8939  C 87.4198 37.8939  87.754 36.8178  87.754 36.8178  C 87.754 36.8178  89.6319 37.6853  89.6319 37.6853  C 89.6319 37.6853  91.7979 37.4986  91.7979 37.4986  C 91.7979 37.4986  93.4281999999999 37.1308  93.4281999999999 37.1308  C 93.4281999999999 37.1308  94.2462 38.2893  94.2462 38.2893  C 94.2462 38.2893  95.7497 38.6847  95.7497 38.6847  C 95.7497 38.6847  97.3511 38.0202  97.3511 38.0202  C 97.3511 38.0202  98.9526 38.5144  98.9526 38.5144  C 98.9526 38.5144  99.8858 38.5363  99.8858 38.5363  C 99.8858 38.5363  99.978 39.8817  99.978 39.8817  C 99.978 39.8817  100.3755 40.0684  100.3755 40.0684  C 100.3755 40.0684  102.5299 39.3765  102.5299 39.3765  C 102.5299 39.3765  104.1142 40.0299  104.1142 40.0299  C 104.1142 40.0299  105.1453 40.0299  105.1453 40.0299  C 105.1453 40.0299  106.1074 38.7614  106.1074 38.7614  C 106.1074 38.7614  107.0636 38.7121  107.0636 38.7121  C 107.0636 38.7121  107.559 39.3546  107.559 39.3546  C 107.559 39.3546  109.6444 39.8378  109.6444 39.8378  C 109.6444 39.8378  111.6433 41.7326  111.6433 41.7326  C 111.6433 41.7326  110.5546 42.7377  110.5546 42.7377  C 110.5546 42.7377  109.7538 42.441  109.7538 42.441  C 109.7538 42.441  108.4001 43.0837  108.4001 43.0837  C 108.4001 43.0837  107.7548 43.0178  107.7548 43.0178  C 107.7548 43.0178  106.8908 43.644  106.8908 43.644  C 106.8908 43.644  106.2455 46.1547  106.2455 46.1547  C 106.2455 46.1547  105.249 47.1327  105.249 47.1327  C 105.249 47.1327  105.5889 48.3581  105.5889 48.3581  C 105.5889 48.3581  105.3008 49.0944  105.3008 49.0944  C 105.3008 49.0944  106.3032 51.1115  106.3032 51.1115  C 106.3032 51.1115  104.8458 51.6447  104.8458 51.6447  C 104.8458 51.6447  104.3273 52.909  104.3273 52.909  C 104.3273 52.909  105.1626 54.9157  105.1626 54.9157  C 105.1626 54.9157  105.0646 56.2958  105.0646 56.2958  C 105.0646 56.2958  106.188 56.3892  106.188 56.3892  C 106.188 56.3892  106.3551 57.2141  106.3551 57.2141  C 106.3551 57.2141  107.703 58.0335  107.703 58.0335  C 107.703 58.0335  107.703 58.4019  107.703 58.4019  C 107.703 58.4019  109.051 60.8441  109.051 60.8441  C 109.051 60.8441  109.6559 60.8001  109.6559 60.8001  C 109.6559 60.8001  110.376 62.4779  110.376 62.4779  C 110.376 62.4779  110.2147 64.7446  110.2147 64.7446  C 110.2147 64.7446  110.5546 65.6746  110.5546 65.6746  C 110.5546 65.6746  109.5464 66.478  109.5464 66.478  C 109.5464 66.478  108.8782 67.7548  108.8782 67.7548  C 108.8782 67.7548  108.8033 69.5491  108.8033 69.5491  C 108.8033 69.5491  109.5579 70.0721  109.5579 70.0721  C 109.5579 70.0721  109.7999 70.9639  109.7999 70.9639  C 109.7999 70.9639  111.5742 71.8668  111.5742 71.8668  C 111.5742 71.8668  113.0086 75.0163  113.0086 75.0163  C 113.0086 75.0163  113.118 77.7896  113.118 77.7896  C 113.118 77.7896  114.1895 78.3625  114.1895 78.3625  C 114.1895 78.3625  114.5005 80.2683  114.5005 80.2683  C 114.5005 80.2683  114.3335 83.001  114.3335 83.001  C 114.3335 83.001  113.648 83.8605  113.648 83.8605  C 113.648 83.8605  113.239 85.0508  113.239 85.0508  C 113.239 85.0508  112.3346 85.7948  112.3346 85.7948  C 112.3346 85.7948  111.7988 87.6411  111.7988 87.6411  C 111.7988 87.6411  111.0269 87.7513  111.0269 87.7513  C 111.0269 87.7513  109.8805 89.1128  109.8805 89.1128  C 109.8805 89.1128  109.0914 89.1845  109.0914 89.1845  C 109.0914 89.1845  109.0971 90.6288  109.0971 90.6288  C 109.0971 90.6288  108.7745 91.489  108.7745 91.489  C 108.7745 91.489  107.8585 91.5441  107.8585 91.5441  C 107.8585 91.5441  107.4726 90.8108  107.4726 90.8108  C 107.4726 90.8108  106.4932 91.1471  106.4932 91.1471  C 106.4932 91.1471  106.234 92.0348  106.234 92.0348  C 106.234 92.0348  105.3354 92.6799  105.3354 92.6799  C 105.3354 92.6799  105.226 94.1578  105.226 94.1578  C 105.226 94.1578  104.7132 93.6339  104.7132 93.6339  C 104.7132 93.6339  103.8261 93.8544  103.8261 93.8544  C 103.8261 93.8544  103.4574 94.9519  103.4574 94.9519  C 103.4574 94.9519  101.7581 94.7975  101.7581 94.7975  C 101.7581 94.7975  100.5771 94.3177  100.5771 94.3177  C 100.5771 94.3177  100.0702 99.6019  100.0702 99.6019  C 100.0702 99.6019  101.2511 100.8819  101.2511 100.8819  C 101.2511 100.8819  101.3318 101.8034  101.3318 101.8034  C 101.3318 101.8034  100.6463 104.6179  100.6463 104.6179  C 100.6463 104.6179  100.6348 106.3123  100.6348 106.3123  C 100.6348 106.3123  101.0034 107.7696  101.0034 107.7696  C 101.0034 107.7696  101.4009 108.1286  101.4009 108.1286  C 101.4009 108.1286  101.3375 109.4315  101.3375 109.4315  C 101.3375 109.4315  102.023 110.3977  102.023 110.3977  C 102.023 110.3977  102.6913 112.6949  102.6913 112.6949  C 102.6913 112.6949  103.8434 113.6449  103.8434 113.6449  C 103.8434 113.6449  103.878 116.2078  103.878 116.2078  C 103.878 116.2078  105.3066 118.6552  105.3066 118.6552  C 105.3066 118.6552  103.5842 122.236  103.5842 122.236  C 103.5842 122.236  103.0196 122.2415  103.0196 122.2415  C 103.0196 122.2415  103.1579 123.076  103.1579 123.076  C 103.1579 123.076  102.0634 122.8052  102.0634 122.8052  C 102.0634 122.8052  101.2453 123.0374  101.2453 123.0374  C 101.2453 123.0374  100.6578 123.8553  100.6578 123.8553  C 100.6578 123.8553  99.6842 122.8329  99.6842 122.8329  C 99.6842 122.8329  98.8028 122.7224  98.8028 122.7224  C 98.8028 122.7224  98.5666 124.0599  98.5666 124.0599  C 98.5666 124.0599  99.0448 125.6629  99.0448 125.6629  C 99.0448 125.6629  98.1577 127.0671  98.1577 127.0671  C 98.1577 127.0671  97.6277 126.365  97.6277 126.365  C 97.6277 126.365  96.4179 126.3761  96.4179 126.3761  C 96.4179 126.3761  96.3949 127.1445  96.3949 127.1445  C 96.3949 127.1445  95.6402000000001 128.7701  95.6402000000001 128.7701  C 95.6402000000001 128.7701  95.9629 130.0253  95.9629 130.0253  C 95.9629 130.0253  96.4871000000001 130.3572  96.4871000000001 130.3572  C 96.4871000000001 130.3572  96.2048 132.0108  96.2048 132.0108  C 96.2048 132.0108  96.5562 134.3339  96.5562 134.3339  C 96.5562 134.3339  95.8418 134.6658  95.8418 134.6658  C 95.8418 134.6658  95.4847 136.8954  95.4847 136.8954  C 95.4847 136.8954  94.396 136.0157  94.396 136.0157  C 94.396 136.0157  94.0503 136.6741  94.0503 136.6741  C 94.0503 136.6741  92.7886999999999 136.7737  92.7886999999999 136.7737  C 92.7886999999999 136.7737  92.0975 136.0876  92.0975 136.0876  C 92.0975 136.0876  91.0778 136.3145  91.0778 136.3145  C 91.0778 136.3145  90.5939 135.5067  90.5939 135.5067  C 90.5939 135.5067  89.9775 135.656  89.9775 135.656  C 89.9775 135.656  88.6065 134.9923  88.6065 134.9923  C 88.6065 134.9923  88.2205 133.8416  88.2205 133.8416  C 88.2205 133.8416  86.9935 133.8194  86.9935 133.8194  C 86.9935 133.8194  86.8150000000001 135.2246  86.8150000000001 135.2246  C 86.8150000000001 135.2246  86.4002 135.9659  86.4002 135.9659  C 86.4002 135.9659  84.4243 134.0795  84.4243 134.0795  Z " fill-rule="nonzero" fill="#ffffff" stroke="none" transform="matrix(1 0 0 1 613 278 )" />
    <path d="M 84.4243 134.0795  C 84.4243 134.0795  83.6985 134.2399  83.6985 134.2399  C 83.6985 134.2399  83.4392 131.4521  83.4392 131.4521  C 83.4392 131.4521  84.0153 130.2687  84.0153 130.2687  C 84.0153 130.2687  83.9519 128.9692  83.9519 128.9692  C 83.9519 128.9692  83.324 127.2054  83.324 127.2054  C 83.324 127.2054  83.4853000000001 124.5685  83.4853000000001 124.5685  C 83.4853000000001 124.5685  83.2779 122.9489  83.2779 122.9489  C 83.2779 122.9489  82.4426 121.3185  82.4426 121.3185  C 82.4426 121.3185  81.3136 120.2355  81.3136 120.2355  C 81.3136 120.2355  80.0116 120.1028  80.0116 120.1028  C 80.0116 120.1028  78.8768 118.0695  78.8768 118.0695  C 78.8768 118.0695  77.8053 117.3513  77.8053 117.3513  C 77.8053 117.3513  76.8951 117.5392  76.8951 117.5392  C 76.8951 117.5392  76.6013 118.0805  76.6013 118.0805  C 76.6013 118.0805  75.3859 117.5005  75.3859 117.5005  C 75.3859 117.5005  75.6508 116.7878  75.6508 116.7878  C 75.6508 116.7878  74.8904 114.7218  74.8904 114.7218  C 74.8904 114.7218  74.6543 113.0373  74.6543 113.0373  C 74.6543 113.0373  74.9826 111.6678  74.9826 111.6678  C 74.9826 111.6678  78.3526000000001 108.4708  78.3526000000001 108.4708  C 78.3526000000001 108.4708  78.4160000000001 107.9408  78.4160000000001 107.9408  C 78.4160000000001 107.9408  77.5288 106.5552  77.5288 106.5552  C 77.5288 106.5552  77.9204999999999 105.7217  77.9204999999999 105.7217  C 77.9204999999999 105.7217  77.5115 104.9103  77.5115 104.9103  C 77.5115 104.9103  77.6728000000001 102.9512  77.6728000000001 102.9512  C 77.6728000000001 102.9512  75.9561 103.2767  75.9561 103.2767  C 75.9561 103.2767  75.0748 102.2669  75.0748 102.2669  C 75.0748 102.2669  74.2222 102.1841  74.2222 102.1841  C 74.2222 102.1841  73.9054 101.2571  73.9054 101.2571  C 73.9054 101.2571  72.9434 100.5288  72.9434 100.5288  C 72.9434 100.5288  72.0447 100.9592  72.0447 100.9592  C 72.0447 100.9592  71.4512999999999 102.0848  71.4512999999999 102.0848  C 71.4512999999999 102.0848  71.2785 103.2547  71.2785 103.2547  C 71.2785 103.2547  72.1079999999999 103.5196  72.1079999999999 103.5196  C 72.1079999999999 103.5196  72.1023 104.2591  72.1023 104.2591  C 72.1023 104.2591  71.0596 104.0936  71.0596 104.0936  C 71.0596 104.0936  70.472 105.9591  70.472 105.9591  C 70.472 105.9591  70.9502 107.6758  70.9502 107.6758  C 70.9502 107.6758  69.5676 108.9125  69.5676 108.9125  C 69.5676 108.9125  68.0525 108.2665  68.0525 108.2665  C 68.0525 108.2665  66.2898 109.8621  66.2898 109.8621  C 66.2898 109.8621  64.6941 109.2271  64.6941 109.2271  C 64.6941 109.2271  64.1527 109.8124  64.1527 109.8124  C 64.1527 109.8124  64.7344000000001 111.8334  64.7344000000001 111.8334  C 64.7344000000001 111.8334  64.6481 113.2085  64.6481 113.2085  C 64.6481 113.2085  64.0259 114.28  64.0259 114.28  C 64.0259 114.28  63.7206 115.4841  63.7206 115.4841  C 63.7206 115.4841  64.2275 116.8209  64.2275 116.8209  C 64.2275 116.8209  64.9534 117.6773  64.9534 117.6773  C 64.9534 117.6773  65.3854 120.0642  65.3854 120.0642  C 65.3854 120.0642  65.3623 122.4239  65.3623 122.4239  C 65.3623 122.4239  64.6538 125.1212  64.6538 125.1212  C 64.6538 125.1212  61.7735 129.2734  61.7735 129.2734  C 61.7735 129.2734  61.8714 130.9876  61.8714 130.9876  C 61.8714 130.9876  61.3011 131.0706  61.3011 131.0706  C 61.3011 131.0706  60.5349 130.3019  60.5349 130.3019  C 60.5349 130.3019  58.6281 130.8383  58.6281 130.8383  C 58.6281 130.8383  56.1534 130.6116  56.1534 130.6116  C 56.1534 130.6116  54.8573 129.1185  54.8573 129.1185  C 54.8573 129.1185  53.7455 128.831  53.7455 128.831  C 53.7455 128.831  51.7696 129.2235  51.7696 129.2235  C 51.7696 129.2235  50.8134 128.6761  50.8134 128.6761  C 50.8134 128.6761  50.7673 127.2883  50.7673 127.2883  C 50.7673 127.2883  50.364 125.558  50.364 125.558  C 50.364 125.558  48.8547 123.3082  48.8547 123.3082  C 48.8547 123.3082  47.8869 123.5071  47.8869 123.5071  C 47.8869 123.5071  45.3407999999999 123.0539  45.3407999999999 123.0539  C 45.3407999999999 123.0539  44.5976000000001 123.6896  44.5976000000001 123.6896  C 44.5976000000001 123.6896  43.6759 127.5869  43.6759 127.5869  C 43.6759 127.5869  43.1978 128.6651  43.1978 128.6651  C 43.1978 128.6651  41.1067 129.7267  41.1067 129.7267  C 41.1067 129.7267  40.8244 132.1104  40.8244 132.1104  C 40.8244 132.1104  40.1677 133.8803  40.1677 133.8803  C 40.1677 133.8803  39.2921 134.7432  39.2921 134.7432  C 39.2921 134.7432  37.6503 134.7101  37.6503 134.7101  C 37.6503 134.7101  37.0166 136.2425  37.0166 136.2425  C 37.0166 136.2425  35.9624 137.0503  35.9624 137.0503  C 35.9624 137.0503  34.4877 136.0987  34.4877 136.0987  C 34.4877 136.0987  34.1421 136.4583  34.1421 136.4583  C 34.1421 136.4583  34.3321 138.4668  34.3321 138.4668  C 34.3321 138.4668  35.0868 139.8115  35.0868 139.8115  C 35.0868 139.8115  34.2227 141.721  34.2227 141.721  C 34.2227 141.721  33.5429 141.9147  33.5429 141.9147  C 33.5429 141.9147  32.3044 140.7412  32.3044 140.7412  C 32.3044 140.7412  31.5728 141.3335  31.5728 141.3335  C 31.5728 141.3335  31.5497 143.5752  31.5497 143.5752  C 31.5497 143.5752  31.3309 144.4832  31.3309 144.4832  C 31.3309 144.4832  31.8033 145.4741  31.8033 145.4741  C 31.8033 145.4741  30.5244 145.0368  30.5244 145.0368  C 30.5244 145.0368  29.9138 145.5627  29.9138 145.5627  C 29.9138 145.5627  29.7352 146.9193  29.7352 146.9193  C 29.7352 146.9193  30.1385 147.8218  30.1385 147.8218  C 30.1385 147.8218  29.8907 148.874  29.8907 148.874  C 29.8907 148.874  30.749 150.5853  30.749 150.5853  C 30.749 150.5853  30.726 151.4217  30.726 151.4217  C 30.726 151.4217  29.643 152.5572  29.643 152.5572  C 29.643 152.5572  29.5105 150.9619  29.5105 150.9619  C 29.5105 150.9619  28.848 150.7514  28.848 150.7514  C 28.848 150.7514  27.8801999999999 151.7319  27.8801999999999 151.7319  C 27.8801999999999 151.7319  27.2984 151.3275  27.2984 151.3275  C 27.2984 151.3275  27.2811 150.4635  27.2811 150.4635  C 27.2811 150.4635  26.636 149.2173  26.636 149.2173  C 26.636 149.2173  25.6336 148.9848  25.6336 148.9848  C 25.6336 148.9848  24.9712 147.2958  24.9712 147.2958  C 24.9712 147.2958  25.3859 143.138  25.3859 143.138  C 25.3859 143.138  25.3570999999999 142.3962  25.3570999999999 142.3962  C 25.3570999999999 142.3962  24.4181 141.3501  24.4181 141.3501  C 24.4181 141.3501  24.3662 140.5642  24.3662 140.5642  C 24.3662 140.5642  25.2649 139.0202  25.2649 139.0202  C 25.2649 139.0202  24.7234999999999 137.3049  24.7234999999999 137.3049  C 24.7234999999999 137.3049  24.8098 135.9161  24.8098 135.9161  C 24.8098 135.9161  24.1128 135.562  24.1128 135.562  C 24.1128 135.562  22.4076 136.7958  22.4076 136.7958  C 22.4076 136.7958  21.8143 135.1194  21.8143 135.1194  C 21.8143 135.1194  21.0481 133.8637  21.0481 133.8637  C 21.0481 133.8637  21.3304000000001 133.3327  21.3304000000001 133.3327  C 21.3304000000001 133.3327  23.0586 132.149  23.0586 132.149  C 23.0586 132.149  23.5079 130.2134  23.5079 130.2134  C 23.5079 130.2134  22.3097 128.0735  22.3097 128.0735  C 22.3097 128.0735  20.7256 127.5702  20.7256 127.5702  C 20.7256 127.5702  19.389 126.6746  19.389 126.6746  C 19.389 126.6746  17.465 123.369  17.465 123.369  C 17.465 123.369  16.4742 122.5952  16.4742 122.5952  C 16.4742 122.5952  14.4003 122.7057  14.4003 122.7057  C 14.4003 122.7057  13.0812 122.3465  13.0812 122.3465  C 13.0812 122.3465  12.3841 122.9489  12.3841 122.9489  C 12.3841 122.9489  11.7793 121.9044  11.7793 121.9044  C 11.7793 121.9044  12.4648 120.2962  12.4648 120.2962  C 12.4648 120.2962  12.8738 118.4729  12.8738 118.4729  C 12.8738 118.4729  12.8105 117.2132  12.8105 117.2132  C 12.8105 117.2132  13.6112000000001 116.3127  13.6112000000001 116.3127  C 13.6112000000001 116.3127  14.1872 116.2132  14.1872 116.2132  C 14.1872 116.2132  13.8704 115.1969  13.8704 115.1969  C 13.8704 115.1969  12.6261 114.5561  12.6261 114.5561  C 12.6261 114.5561  9.68240000000003 113.5178  9.68240000000003 113.5178  C 9.68240000000003 113.5178  8.69159999999999 111.4634  8.69159999999999 111.4634  C 8.69159999999999 111.4634  9.26760000000002 109.5253  9.26760000000002 109.5253  C 9.26760000000002 109.5253  9.67089999999996 107.3722  9.67089999999996 107.3722  C 9.67089999999996 107.3722  9.40589999999997 105.225  9.40589999999997 105.225  C 9.40589999999997 105.225  10.535 102.5152  10.535 102.5152  C 10.535 102.5152  11.1455999999999 102.0683  11.1455999999999 102.0683  C 11.1455999999999 102.0683  11.9578 100.4957  11.9578 100.4957  C 11.9578 100.4957  11.3876 99.1385  11.3876 99.1385  C 11.3876 99.1385  9.63059999999996 98.4709  9.63059999999996 98.4709  C 9.63059999999996 98.4709  8.42079999999999 96.0329  8.42079999999999 96.0329  C 8.42079999999999 96.0329  6.84820000000002 95.4869  6.84820000000002 95.4869  C 6.84820000000002 95.4869  4.88379999999995 94.1247  4.88379999999995 94.1247  C 4.88379999999995 94.1247  4.18679999999995 91.7866  4.18679999999995 91.7866  C 4.18679999999995 91.7866  3.29390000000001 90.8329  3.29390000000001 90.8329  C 3.29390000000001 90.8329  3.1499 89.5924  3.1499 89.5924  C 3.1499 89.5924  3.88720000000001 87.2939  3.88720000000001 87.2939  C 3.88720000000001 87.2939  3.41480000000001 86.5002  3.41480000000001 86.5002  C 3.41480000000001 86.5002  3.6395 85.679  3.6395 85.679  C 3.6395 85.679  4.32500000000005 85.2216  4.32500000000005 85.2216  C 4.32500000000005 85.2216  3.01729999999998 84.6706  3.01729999999998 84.6706  C 3.01729999999998 84.6706  1.83640000000003 85.0728  1.83640000000003 85.0728  C 1.83640000000003 85.0728  0.839899999999943 84.406  0.839899999999943 84.406  C 0.839899999999943 84.406  0.655499999999961 83.8164  0.655499999999961 83.8164  C 0.655499999999961 83.8164  1.11630000000002 81.9486  1.11630000000002 81.9486  C 1.11630000000002 81.9486  0.407799999999952 80.8247  0.407799999999952 80.8247  C 0.407799999999952 80.8247  1.43320000000006 79.8331  1.43320000000006 79.8331  C 1.43320000000006 79.8331  1.95159999999998 78.021  1.95159999999998 78.021  C 1.95159999999998 78.021  2.72929999999997 77.4152  2.72929999999997 77.4152  C 2.72929999999997 77.4152  4.49789999999996 77.6464  4.49789999999996 77.6464  C 4.49789999999996 77.6464  5.92070000000001 78.792  5.92070000000001 78.792  C 5.92070000000001 78.792  6.47950000000003 80.2408  6.47950000000003 80.2408  C 6.47950000000003 80.2408  7.13620000000003 81.023  7.13620000000003 81.023  C 7.13620000000003 81.023  8.18460000000005 81.5629  8.18460000000005 81.5629  C 8.18460000000005 81.5629  9.12360000000001 82.4775  9.12360000000001 82.4775  C 9.12360000000001 82.4775  11.4337 83.3315  11.4337 83.3315  C 11.4337 83.3315  12.4878 84.3178  12.4878 84.3178  C 12.4878 84.3178  14.5271 84.2022  14.5271 84.2022  C 14.5271 84.2022  15.8232 85.1885  15.8232 85.1885  C 15.8232 85.1885  17.3441 85.5027  17.3441 85.5027  C 17.3441 85.5027  17.851 83.8549  17.851 83.8549  C 17.851 83.8549  17.3095 82.4224  17.3095 82.4224  C 17.3095 82.4224  17.7761 80.5658  17.7761 80.5658  C 17.7761 80.5658  18.8476000000001 78.8196  18.8476000000001 78.8196  C 18.8476000000001 78.8196  20.4951 78.2303  20.4951 78.2303  C 20.4951 78.2303  21.3131 78.434  21.3131 78.434  C 21.3131 78.434  22.2982 80.9018  22.2982 80.9018  C 22.2982 80.9018  22.1657 84.2242  22.1657 84.2242  C 22.1657 84.2242  23.8132000000001 86.0703  23.8132000000001 86.0703  C 23.8132000000001 86.0703  23.6981 87.4481  23.6981 87.4481  C 23.6981 87.4481  24.0608999999999 88.1922  24.0608999999999 88.1922  C 24.0608999999999 88.1922  24.0552 90.072  24.0552 90.072  C 24.0552 90.072  24.3029 91.2684  24.3029 91.2684  C 24.3029 91.2684  24.7292 90.9983  24.7292 90.9983  C 24.7292 90.9983  26.3307 88.4569  26.3307 88.4569  C 26.3307 88.4569  26.4344 87.3875  26.4344 87.3875  C 26.4344 87.3875  27.3445 87.1671  27.3445 87.1671  C 27.3445 87.1671  26.9355 86.2191  26.9355 86.2191  C 26.9355 86.2191  28.0127 86.175  28.0127 86.175  C 28.0127 86.175  28.1453 84.687  28.1453 84.687  C 28.1453 84.687  28.8423 83.5134  28.8423 83.5134  C 28.8423 83.5134  29.3723 83.7613  29.3723 83.7613  C 29.3723 83.7613  29.9944 85.2877  29.9944 85.2877  C 29.9944 85.2877  30.1442 87.3434  30.1442 87.3434  C 30.1442 87.3434  31.4231 87.6686  31.4231 87.6686  C 31.4231 87.6686  32.6558 86.2301  32.6558 86.2301  C 32.6558 86.2301  33.4508 86.1365  33.4508 86.1365  C 33.4508 86.1365  34.2285000000001 83.9211  34.2285000000001 83.9211  C 34.2285000000001 83.9211  35.1214 83.91  35.1214 83.91  C 35.1214 83.91  34.9831 82.3177  34.9831 82.3177  C 34.9831 82.3177  34.4877 81.7668  34.4877 81.7668  C 34.4877 81.7668  32.5751 81.607  32.5751 81.607  C 32.5751 81.607  31.2502 80.979  31.2502 80.979  C 31.2502 80.979  30.2882 80.0149  30.2882 80.0149  C 30.2882 80.0149  30.7375 79.4751  30.7375 79.4751  C 30.7375 79.4751  31.7341 79.9818  31.7341 79.9818  C 31.7341 79.9818  32.5694 79.42  32.5694 79.42  C 32.5694 79.42  32.8229 77.5528  32.8229 77.5528  C 32.8229 77.5528  34.5683 74.0802  34.5683 74.0802  C 34.5683 74.0802  35.1156 71.3438  35.1156 71.3438  C 35.1156 71.3438  36.2159 69.7309  36.2159 69.7309  C 36.2159 69.7309  35.0983 67.6558  35.0983 67.6558  C 35.0983 67.6558  36.3196 67.0449  36.3196 67.0449  C 36.3196 67.0449  36.4693 66.0708  36.4693 66.0708  C 36.4693 66.0708  34.6663 64.0239  34.6663 64.0239  C 34.6663 64.0239  34.0038 61.6472  34.0038 61.6472  C 34.0038 61.6472  32.4715 60.2279  32.4715 60.2279  C 32.4715 60.2279  31.832 58.9354  31.832 58.9354  C 31.832 58.9354  31.8839 57.291  31.8839 57.291  C 31.8839 57.291  33.2204 55.8394  33.2204 55.8394  C 33.2204 55.8394  33.3298 55.1905  33.3298 55.1905  C 33.3298 55.1905  32.3274 53.7391  32.3274 53.7391  C 32.3274 53.7391  32.748 52.7386  32.748 52.7386  C 32.748 52.7386  33.8771 52.3813  33.8771 52.3813  C 33.8771 52.3813  34.096 50.8697  34.096 50.8697  C 34.096 50.8697  34.7008 48.8472  34.7008 48.8472  C 34.7008 48.8472  35.3864 48.2152  35.3864 48.2152  C 35.3864 48.2152  37.5869 48.5175  37.5869 48.5175  C 37.5869 48.5175  38.3704 47.5174  38.3704 47.5174  C 38.3704 47.5174  38.6296 46.1932  38.6296 46.1932  C 38.6296 46.1932  39.1481 45.4019  39.1481 45.4019  C 39.1481 45.4019  39.9891 45.6492  39.9891 45.6492  C 39.9891 45.6492  41.2046 45.0174  41.2046 45.0174  C 41.2046 45.0174  40.761 43.8143  40.761 43.8143  C 40.761 43.8143  41.314 42.5345  41.314 42.5345  C 41.314 42.5345  42.1321 42.8805  42.1321 42.8805  C 42.1321 42.8805  43.1632 42.1775  43.1632 42.1775  C 43.1632 42.1775  44.2923 38.9317  44.2923 38.9317  C 44.2923 38.9317  45.6864 38.5309  45.6864 38.5309  C 45.6864 38.5309  46.009 38.0422  46.009 38.0422  C 46.009 38.0422  45.9456 35.4947  45.9456 35.4947  C 45.9456 35.4947  45.479 34.1772  45.479 34.1772  C 45.479 34.1772  45.3638 31.927  45.3638 31.927  C 45.3638 31.927  45.9629 29.3753  45.9629 29.3753  C 45.9629 29.3753  45.9398 27.2191  45.9398 27.2191  C 45.9398 27.2191  45.5885 25.7599  45.5885 25.7599  C 45.5885 25.7599  44.6378999999999 25.5569  44.6378999999999 25.5569  C 44.6378999999999 25.5569  43.6068 26.462  43.6068 26.462  C 43.6068 26.462  42.7888 26.6047  42.7888 26.6047  C 42.7888 26.6047  42.0054 26.0561  42.0054 26.0561  C 42.0054 26.0561  41.1585 24.7835  41.1585 24.7835  C 41.1585 24.7835  40.5363 22.3758  40.5363 22.3758  C 40.5363 22.3758  40.5133 21.4766  40.5133 21.4766  C 40.5133 21.4766  40.7380000000001 20.9885  40.7380000000001 20.9885  C 40.7380000000001 20.9885  40.4787 18.0444  40.4787 18.0444  C 40.4787 18.0444  40.8647 17.2988  40.8647 17.2988  C 40.8647 17.2988  41.3083 14.5309  41.3083 14.5309  C 41.3083 14.5309  40.8475 11.9608  40.8475 11.9608  C 40.8475 11.9608  42.4489 11.2157  42.4489 11.2157  C 42.4489 11.2157  43.7335 11.2322  43.7335 11.2322  C 43.7335 11.2322  45.7901000000001 9.39689999999999  45.7901000000001 9.39689999999999  C 45.7901000000001 9.39689999999999  48.3363000000001 7.97810000000001  48.3363000000001 7.97810000000001  C 48.3363000000001 7.97810000000001  48.7798 6.93729999999999  48.7798 6.93729999999999  C 48.7798 6.93729999999999  49.7361 6.07210000000001  49.7361 6.07210000000001  C 49.7361 6.07210000000001  49.9435 4.7741  49.9435 4.7741  C 49.9435 4.7741  52.0231 2.5291  52.0231 2.5291  C 52.0231 2.5291  53.1002999999999 2.0309  53.1002999999999 2.0309  C 53.1002999999999 2.0309  53.0599999999999 0.996199999999988  53.0599999999999 0.996199999999988  C 53.0599999999999 0.996199999999988  53.9356 0.257200000000012  53.9356 0.257200000000012  C 53.9356 0.257200000000012  55.0186 1.13310000000001  55.0186 1.13310000000001  C 55.0186 1.13310000000001  55.5947 3.19710000000001  55.5947 3.19710000000001  C 55.5947 3.19710000000001  56.6719000000001 3.7884  56.6719000000001 3.7884  C 56.6719000000001 3.7884  58.4899 4.922  58.4899 4.922  C 58.4899 4.922  60.9843 5.32169999999999  60.9843 5.32169999999999  C 60.9843 5.32169999999999  61.9809 4.52770000000001  61.9809 4.52770000000001  C 61.9809 4.52770000000001  62.5281 2.54560000000001  62.5281 2.54560000000001  C 62.5281 2.54560000000001  63.4326 2.3648  63.4326 2.3648  C 63.4326 2.3648  64.3945 2.93979999999999  64.3945 2.93979999999999  C 64.3945 2.93979999999999  64.625 4.65360000000001  64.625 4.65360000000001  C 64.625 4.65360000000001  65.3739 5.3492  65.3739 5.3492  C 65.3739 5.3492  66.6124 5.06989999999999  66.6124 5.06989999999999  C 66.6124 5.06989999999999  67.0963 6.08840000000001  67.0963 6.08840000000001  C 67.0963 6.08840000000001  65.8347 8.89279999999999  65.8347 8.89279999999999  C 65.8347 8.89279999999999  65.6677 10.7007  65.6677 10.7007  C 65.6677 10.7007  66.1861 11.928  66.1861 11.928  C 66.1861 11.928  67.3901 12.7389  67.3901 12.7389  C 67.3901 12.7389  69.3545 13.1116  69.3545 13.1116  C 69.3545 13.1116  69.5848999999999 13.55  69.5848999999999 13.55  C 69.5848999999999 13.55  69.51 15.2653  69.51 15.2653  C 69.51 15.2653  68.9915999999999 16.2409  68.9915999999999 16.2409  C 68.9915999999999 16.2409  67.3152 17.096  67.3152 17.096  C 67.3152 17.096  66.7622 18.2801  66.7622 18.2801  C 66.7622 18.2801  66.7852 19.574  66.7852 19.574  C 66.7852 19.574  67.4535 21.1037  67.4535 21.1037  C 67.4535 21.1037  68.9281999999999 22.3814  68.9281999999999 22.3814  C 68.9281999999999 22.3814  69.7232 22.683  69.7232 22.683  C 69.7232 22.683  69.2508 24.6958  69.2508 24.6958  C 69.2508 24.6958  68.4328 25.1401  68.4328 25.1401  C 68.4328 25.1401  67.9777 26.2975  67.9777 26.2975  C 67.9777 26.2975  68.9109 27.3837  68.9109 27.3837  C 68.9109 27.3837  68.9858 28.4041  68.9858 28.4041  C 68.9858 28.4041  68.1505 29.9349  68.1505 29.9349  C 68.1505 29.9349  68.4213 31.2355  68.4213 31.2355  C 68.4213 31.2355  69.7923 33.612  69.7923 33.612  C 69.7923 33.612  70.426 35.9394  70.426 35.9394  C 70.426 35.9394  69.7404 38.3716  69.7404 38.3716  C 69.7404 38.3716  69.4985 39.9256  69.4985 39.9256  C 69.4985 39.9256  69.0492 40.7274  69.0492 40.7274  C 69.0492 40.7274  69.268 42.3641  69.268 42.3641  C 69.268 42.3641  67.2346 46.0448  67.2346 46.0448  C 67.2346 46.0448  66.7679000000001 47.2151  66.7679000000001 47.2151  C 66.7679000000001 47.2151  67.0963 47.6987  67.0963 47.6987  C 67.0963 47.6987  67.9489 47.5448  67.9489 47.5448  C 67.9489 47.5448  68.3348 49.2373  68.3348 49.2373  C 68.3348 49.2373  69.5617999999999 49.1439  69.5617999999999 49.1439  C 69.5617999999999 49.1439  69.8269 48.3361  69.8269 48.3361  C 69.8269 48.3361  70.8695 48.5119  70.8695 48.5119  C 70.8695 48.5119  72.2924 49.3253  72.2924 49.3253  C 72.2924 49.3253  73.0643 50.3145  73.0643 50.3145  C 73.0643 50.3145  73.6116 51.6172  73.6116 51.6172  C 73.6116 51.6172  74.2395 52.1834  74.2395 52.1834  C 74.2395 52.1834  75.7545 50.9741  75.7545 50.9741  C 75.7545 50.9741  76.5265000000001 51.947  76.5265000000001 51.947  C 76.5265000000001 51.947  77.3271999999999 51.3643  77.3271999999999 51.3643  C 77.3271999999999 51.3643  78.272 47.6327  78.272 47.6327  C 78.272 47.6327  78.727 46.726  78.727 46.726  C 78.727 46.726  79.3722 46.4019  79.3722 46.4019  C 79.3722 46.4019  81.0083 47.4239  81.0083 47.4239  C 81.0083 47.4239  82.3217 47.6602  82.3217 47.6602  C 82.3217 47.6602  82.7018 47.3305  82.7018 47.3305  C 82.7018 47.3305  82.8286000000001 45.6492  82.8286000000001 45.6492  C 82.8286000000001 45.6492  82.408 44.2153  82.408 44.2153  C 82.408 44.2153  82.7537 42.7541  82.7537 42.7541  C 82.7537 42.7541  84.5741 39.6456  84.5741 39.6456  C 84.5741 39.6456  86.3253 37.8555  86.3253 37.8555  C 86.3253 37.8555  87.4198 37.8939  87.4198 37.8939  C 87.4198 37.8939  87.754 36.8178  87.754 36.8178  C 87.754 36.8178  89.6319 37.6853  89.6319 37.6853  C 89.6319 37.6853  91.7979 37.4986  91.7979 37.4986  C 91.7979 37.4986  93.4281999999999 37.1308  93.4281999999999 37.1308  C 93.4281999999999 37.1308  94.2462 38.2893  94.2462 38.2893  C 94.2462 38.2893  95.7497 38.6847  95.7497 38.6847  C 95.7497 38.6847  97.3511 38.0202  97.3511 38.0202  C 97.3511 38.0202  98.9526 38.5144  98.9526 38.5144  C 98.9526 38.5144  99.8858 38.5363  99.8858 38.5363  C 99.8858 38.5363  99.978 39.8817  99.978 39.8817  C 99.978 39.8817  100.3755 40.0684  100.3755 40.0684  C 100.3755 40.0684  102.5299 39.3765  102.5299 39.3765  C 102.5299 39.3765  104.1142 40.0299  104.1142 40.0299  C 104.1142 40.0299  105.1453 40.0299  105.1453 40.0299  C 105.1453 40.0299  106.1074 38.7614  106.1074 38.7614  C 106.1074 38.7614  107.0636 38.7121  107.0636 38.7121  C 107.0636 38.7121  107.559 39.3546  107.559 39.3546  C 107.559 39.3546  109.6444 39.8378  109.6444 39.8378  C 109.6444 39.8378  111.6433 41.7326  111.6433 41.7326  C 111.6433 41.7326  110.5546 42.7377  110.5546 42.7377  C 110.5546 42.7377  109.7538 42.441  109.7538 42.441  C 109.7538 42.441  108.4001 43.0837  108.4001 43.0837  C 108.4001 43.0837  107.7548 43.0178  107.7548 43.0178  C 107.7548 43.0178  106.8908 43.644  106.8908 43.644  C 106.8908 43.644  106.2455 46.1547  106.2455 46.1547  C 106.2455 46.1547  105.249 47.1327  105.249 47.1327  C 105.249 47.1327  105.5889 48.3581  105.5889 48.3581  C 105.5889 48.3581  105.3008 49.0944  105.3008 49.0944  C 105.3008 49.0944  106.3032 51.1115  106.3032 51.1115  C 106.3032 51.1115  104.8458 51.6447  104.8458 51.6447  C 104.8458 51.6447  104.3273 52.909  104.3273 52.909  C 104.3273 52.909  105.1626 54.9157  105.1626 54.9157  C 105.1626 54.9157  105.0646 56.2958  105.0646 56.2958  C 105.0646 56.2958  106.188 56.3892  106.188 56.3892  C 106.188 56.3892  106.3551 57.2141  106.3551 57.2141  C 106.3551 57.2141  107.703 58.0335  107.703 58.0335  C 107.703 58.0335  107.703 58.4019  107.703 58.4019  C 107.703 58.4019  109.051 60.8441  109.051 60.8441  C 109.051 60.8441  109.6559 60.8001  109.6559 60.8001  C 109.6559 60.8001  110.376 62.4779  110.376 62.4779  C 110.376 62.4779  110.2147 64.7446  110.2147 64.7446  C 110.2147 64.7446  110.5546 65.6746  110.5546 65.6746  C 110.5546 65.6746  109.5464 66.478  109.5464 66.478  C 109.5464 66.478  108.8782 67.7548  108.8782 67.7548  C 108.8782 67.7548  108.8033 69.5491  108.8033 69.5491  C 108.8033 69.5491  109.5579 70.0721  109.5579 70.0721  C 109.5579 70.0721  109.7999 70.9639  109.7999 70.9639  C 109.7999 70.9639  111.5742 71.8668  111.5742 71.8668  C 111.5742 71.8668  113.0086 75.0163  113.0086 75.0163  C 113.0086 75.0163  113.118 77.7896  113.118 77.7896  C 113.118 77.7896  114.1895 78.3625  114.1895 78.3625  C 114.1895 78.3625  114.5005 80.2683  114.5005 80.2683  C 114.5005 80.2683  114.3335 83.001  114.3335 83.001  C 114.3335 83.001  113.648 83.8605  113.648 83.8605  C 113.648 83.8605  113.239 85.0508  113.239 85.0508  C 113.239 85.0508  112.3346 85.7948  112.3346 85.7948  C 112.3346 85.7948  111.7988 87.6411  111.7988 87.6411  C 111.7988 87.6411  111.0269 87.7513  111.0269 87.7513  C 111.0269 87.7513  109.8805 89.1128  109.8805 89.1128  C 109.8805 89.1128  109.0914 89.1845  109.0914 89.1845  C 109.0914 89.1845  109.0971 90.6288  109.0971 90.6288  C 109.0971 90.6288  108.7745 91.489  108.7745 91.489  C 108.7745 91.489  107.8585 91.5441  107.8585 91.5441  C 107.8585 91.5441  107.4726 90.8108  107.4726 90.8108  C 107.4726 90.8108  106.4932 91.1471  106.4932 91.1471  C 106.4932 91.1471  106.234 92.0348  106.234 92.0348  C 106.234 92.0348  105.3354 92.6799  105.3354 92.6799  C 105.3354 92.6799  105.226 94.1578  105.226 94.1578  C 105.226 94.1578  104.7132 93.6339  104.7132 93.6339  C 104.7132 93.6339  103.8261 93.8544  103.8261 93.8544  C 103.8261 93.8544  103.4574 94.9519  103.4574 94.9519  C 103.4574 94.9519  101.7581 94.7975  101.7581 94.7975  C 101.7581 94.7975  100.5771 94.3177  100.5771 94.3177  C 100.5771 94.3177  100.0702 99.6019  100.0702 99.6019  C 100.0702 99.6019  101.2511 100.8819  101.2511 100.8819  C 101.2511 100.8819  101.3318 101.8034  101.3318 101.8034  C 101.3318 101.8034  100.6463 104.6179  100.6463 104.6179  C 100.6463 104.6179  100.6348 106.3123  100.6348 106.3123  C 100.6348 106.3123  101.0034 107.7696  101.0034 107.7696  C 101.0034 107.7696  101.4009 108.1286  101.4009 108.1286  C 101.4009 108.1286  101.3375 109.4315  101.3375 109.4315  C 101.3375 109.4315  102.023 110.3977  102.023 110.3977  C 102.023 110.3977  102.6913 112.6949  102.6913 112.6949  C 102.6913 112.6949  103.8434 113.6449  103.8434 113.6449  C 103.8434 113.6449  103.878 116.2078  103.878 116.2078  C 103.878 116.2078  105.3066 118.6552  105.3066 118.6552  C 105.3066 118.6552  103.5842 122.236  103.5842 122.236  C 103.5842 122.236  103.0196 122.2415  103.0196 122.2415  C 103.0196 122.2415  103.1579 123.076  103.1579 123.076  C 103.1579 123.076  102.0634 122.8052  102.0634 122.8052  C 102.0634 122.8052  101.2453 123.0374  101.2453 123.0374  C 101.2453 123.0374  100.6578 123.8553  100.6578 123.8553  C 100.6578 123.8553  99.6842 122.8329  99.6842 122.8329  C 99.6842 122.8329  98.8028 122.7224  98.8028 122.7224  C 98.8028 122.7224  98.5666 124.0599  98.5666 124.0599  C 98.5666 124.0599  99.0448 125.6629  99.0448 125.6629  C 99.0448 125.6629  98.1577 127.0671  98.1577 127.0671  C 98.1577 127.0671  97.6277 126.365  97.6277 126.365  C 97.6277 126.365  96.4179 126.3761  96.4179 126.3761  C 96.4179 126.3761  96.3949 127.1445  96.3949 127.1445  C 96.3949 127.1445  95.6402000000001 128.7701  95.6402000000001 128.7701  C 95.6402000000001 128.7701  95.9629 130.0253  95.9629 130.0253  C 95.9629 130.0253  96.4871000000001 130.3572  96.4871000000001 130.3572  C 96.4871000000001 130.3572  96.2048 132.0108  96.2048 132.0108  C 96.2048 132.0108  96.5562 134.3339  96.5562 134.3339  C 96.5562 134.3339  95.8418 134.6658  95.8418 134.6658  C 95.8418 134.6658  95.4847 136.8954  95.4847 136.8954  C 95.4847 136.8954  94.396 136.0157  94.396 136.0157  C 94.396 136.0157  94.0503 136.6741  94.0503 136.6741  C 94.0503 136.6741  92.7886999999999 136.7737  92.7886999999999 136.7737  C 92.7886999999999 136.7737  92.0975 136.0876  92.0975 136.0876  C 92.0975 136.0876  91.0778 136.3145  91.0778 136.3145  C 91.0778 136.3145  90.5939 135.5067  90.5939 135.5067  C 90.5939 135.5067  89.9775 135.656  89.9775 135.656  C 89.9775 135.656  88.6065 134.9923  88.6065 134.9923  C 88.6065 134.9923  88.2205 133.8416  88.2205 133.8416  C 88.2205 133.8416  86.9935 133.8194  86.9935 133.8194  C 86.9935 133.8194  86.8150000000001 135.2246  86.8150000000001 135.2246  C 86.8150000000001 135.2246  86.4002 135.9659  86.4002 135.9659  C 86.4002 135.9659  84.4243 134.0795  84.4243 134.0795  Z " stroke-width="2" stroke="#666666" fill="none" transform="matrix(1 0 0 1 613 278 )" mask="url(#clip143)" />
  </g>
</svg>